<svg class="main-svg" xmlns="http://www.w3.org/2000/svg" xmlns:xlink="http://www.w3.org/1999/xlink" width="1200" height="480" style="" viewBox="0 0 1200 480"><rect x="0" y="0" width="1200" height="480" style="fill: rgb(0, 0, 0); fill-opacity: 0;"/><defs id="defs-20142f"><g class="clips"/><g class="gradients"/><g class="patterns"/></defs><g class="bglayer"/><g class="layer-below"><g class="imagelayer"/><g class="shapelayer"/></g><g class="cartesianlayer"/><g class="polarlayer"/><g class="smithlayer"/><g class="ternarylayer"/><g class="geolayer"/><g class="funnelarealayer"/><g class="pielayer"/><g class="iciclelayer"/><g class="treemaplayer"/><g class="sunburstlayer"/><g class="glimages"/><g class="sankey" transform="matrix(1 0 0 1 0 0)" style="box-sizing: content-box; position: absolute; left: 0px; shape-rendering: geometricprecision; pointer-events: none;"><g class="sankey-links" style="fill: none;"><path class="sankey-link" d="M 566.379751909201 405.79483825683496 L561.379751909201 405.79483825683496A11.398343587445133 11.398343587445133 0 0 0 549.9814083217558 417.19318184428005L549.9814083217558 422.19318184428005A11.398343587445133 11.398343587445133 0 0 0 561.379751909201 433.59152543172513L780.1730025456013 433.59152543172513A11.398343587445133 11.398343587445133 0 0 0 791.5713461330465 422.19318184428005L791.5713461330465 416.19318184428005A11.398343587445133 11.398343587445133 0 0 0 780.1730025456013 404.79483825683496L775.1730025456013 404.79483825683496L775.1730025456013 406.19318184428005L780.1730025456013 406.19318184428005A10 10 0 0 1 790.1730025456013 416.19318184428005L790.1730025456013 422.19318184428005A10 10 0 0 1 780.1730025456013 432.19318184428005L561.379751909201 432.19318184428005A10 10 0 0 1 551.379751909201 422.19318184428005L551.379751909201 417.19318184428005A10 10 0 0 1 561.379751909201 407.19318184428005L566.379751909201 407.19318184428005Z" style="stroke: rgb(68, 68, 68); stroke-opacity: 1; fill: rgb(211, 211, 211); fill-opacity: 0.5; stroke-width: 0; opacity: 1;"/><path class="sankey-link" d="M586.379751909201,405.4668317363231C670.7763772274011,405.4668317363231 670.7763772274011,404.4668317363231 755.1730025456013,404.4668317363231L755.1730025456013,406.19318184428005C670.7763772274011,406.19318184428005 670.7763772274011,407.19318184428005 586.379751909201,407.19318184428005Z" style="stroke: rgb(68, 68, 68); stroke-opacity: 1; fill: rgb(211, 211, 211); fill-opacity: 0.5; stroke-width: 0; opacity: 1;"/><path class="sankey-link" d="M586.379751909201,386.41974690569526C859.5696278638015,386.41974690569526 859.5696278638015,387.28292195967373 1132.759503818402,387.28292195967373L1132.759503818402,406.3300067903015C859.5696278638015,406.3300067903015 859.5696278638015,405.46683173632306 586.379751909201,405.46683173632306Z" style="stroke: rgb(68, 68, 68); stroke-opacity: 1; fill: rgb(211, 211, 211); fill-opacity: 0.5; stroke-width: 0; opacity: 1;"/><path class="sankey-link" d="M397.58650127280066,350.7425310312741C481.9831265910008,350.7425310312741 481.9831265910008,386.41974690569526 566.379751909201,386.41974690569526L566.379751909201,405.7948382568349C481.9831265910008,405.7948382568349 481.9831265910008,370.11762238241374 397.58650127280066,370.11762238241374Z" style="stroke: rgb(68, 68, 68); stroke-opacity: 1; fill: rgb(211, 211, 211); fill-opacity: 0.5; stroke-width: 0; opacity: 1;"/><path class="sankey-link" d="M586.379751909201,220.125207224466C670.7763772274011,220.125207224466 670.7763772274011,169.9923145103494 755.1730025456013,169.9923145103494L755.1730025456013,171.83850721611935C670.7763772274011,171.83850721611935 670.7763772274011,221.97139993023598 586.379751909201,221.97139993023598Z" style="stroke: rgb(68, 68, 68); stroke-opacity: 1; fill: rgb(211, 211, 211); fill-opacity: 0.5; stroke-width: 0; opacity: 1;"/><path class="sankey-link" d="M586.379751909201,203.30066153151918C670.7763772274011,203.30066153151918 670.7763772274011,124.03866134304755 755.1730025456013,124.03866134304755L755.1730025456013,140.8632070359944C670.7763772274011,140.8632070359944 670.7763772274011,220.12520722446604 586.379751909201,220.12520722446604Z" style="stroke: rgb(68, 68, 68); stroke-opacity: 1; fill: rgb(211, 211, 211); fill-opacity: 0.5; stroke-width: 0; opacity: 1;"/><path class="sankey-link" d="M397.58650127280066,258.7607916847292C481.9831265910008,258.7607916847292 481.9831265910008,203.30066153151918 566.379751909201,203.30066153151918L566.379751909201,221.971399930236C481.9831265910008,221.971399930236 481.9831265910008,277.43153008344603 397.58650127280066,277.43153008344603Z" style="stroke: rgb(68, 68, 68); stroke-opacity: 1; fill: rgb(211, 211, 211); fill-opacity: 0.5; stroke-width: 0; opacity: 1;"/><path class="sankey-link" d="M208.79325063640033,301.85598747670633C670.7763772274011,301.85598747670633 670.7763772274011,301.81996292846173 1132.759503818402,301.81996292846173L1132.759503818402,346.2874151489387C670.7763772274011,346.2874151489387 670.7763772274011,346.3234396971833 208.79325063640033,346.3234396971833Z" style="stroke: rgb(68, 68, 68); stroke-opacity: 1; fill: rgb(211, 211, 211); fill-opacity: 0.5; stroke-width: 0; opacity: 1;"/><path class="sankey-link" d="M208.79325063640033,346.3234396971833C293.1898759546005,346.3234396971833 293.1898759546005,350.7425310312741 377.58650127280066,350.7425310312741L377.58650127280066,370.11762238241374C293.1898759546005,370.11762238241374 293.1898759546005,365.69853104832293 208.79325063640033,365.69853104832293Z" style="stroke: rgb(68, 68, 68); stroke-opacity: 1; fill: rgb(211, 211, 211); fill-opacity: 0.5; stroke-width: 0; opacity: 1;"/><path class="sankey-link" d="M208.79325063640033,283.1852490779895C293.1898759546005,283.1852490779895 293.1898759546005,258.7607916847292 377.58650127280066,258.7607916847292L377.58650127280066,277.43153008344603C293.1898759546005,277.43153008344603 293.1898759546005,301.85598747670633 208.79325063640033,301.85598747670633Z" style="stroke: rgb(68, 68, 68); stroke-opacity: 1; fill: rgb(211, 211, 211); fill-opacity: 0.5; stroke-width: 0; opacity: 1;"/><path class="sankey-link" d="M20,358.81139818131516C104.39662531820017,358.81139818131516 104.39662531820017,343.9099864820618 188.79325063640033,343.9099864820618L188.79325063640033,365.698531048323C104.39662531820017,365.698531048323 104.39662531820017,380.59994274757634 20,380.59994274757634Z" style="stroke: rgb(68, 68, 68); stroke-opacity: 1; fill: rgb(211, 211, 211); fill-opacity: 0.5; stroke-width: 0; opacity: 1;"/><path class="sankey-link" d="M20,293.08666077724274C104.39662531820017,293.08666077724274 104.39662531820017,283.1852490779895 188.79325063640033,283.1852490779895L188.79325063640033,343.90998648206187C104.39662531820017,343.90998648206187 104.39662531820017,353.8113981813151 20,353.8113981813151Z" style="stroke: rgb(68, 68, 68); stroke-opacity: 1; fill: rgb(211, 211, 211); fill-opacity: 0.5; stroke-width: 0; opacity: 1;"/><path class="sankey-link" d="M775.1730025456013,169.9923145103494C859.5696278638015,169.9923145103494 859.5696278638015,102.1562173039716 943.9662531820017,102.1562173039716L943.9662531820017,104.0024100097416C859.5696278638015,104.0024100097416 859.5696278638015,171.83850721611935 775.1730025456013,171.83850721611935Z" style="stroke: rgb(68, 68, 68); stroke-opacity: 1; fill: rgb(211, 211, 211); fill-opacity: 0.5; stroke-width: 0; opacity: 1;"/><path class="sankey-link" d="M775.1730025456013,124.03866134304758C859.5696278638015,124.03866134304758 859.5696278638015,61.20256413666979 943.9662531820017,61.20256413666979L943.9662531820017,102.1562173039716C859.5696278638015,102.1562173039716 859.5696278638015,164.9923145103494 775.1730025456013,164.9923145103494Z" style="stroke: rgb(68, 68, 68); stroke-opacity: 1; fill: rgb(211, 211, 211); fill-opacity: 0.5; stroke-width: 0; opacity: 1;"/><path class="sankey-link" d="M963.9662531820017,62.50178653673454C1048.3628785002018,62.50178653673454 1048.3628785002018,70.50178653673454 1132.759503818402,70.50178653673454L1132.759503818402,112.00241000974161C1048.3628785002018,112.00241000974161 1048.3628785002018,104.00241000974161 963.9662531820017,104.00241000974161Z" style="stroke: rgb(68, 68, 68); stroke-opacity: 1; fill: rgb(211, 211, 211); fill-opacity: 0.5; stroke-width: 0; opacity: 1;"/><path class="sankey-link" d="M963.9662531820017,49.176428587352525C1048.3628785002018,49.176428587352525 1048.3628785002018,52.176428587352525 1132.759503818402,52.176428587352525L1132.759503818402,65.50178653673454C1048.3628785002018,65.50178653673454 1048.3628785002018,62.501786536734535 963.9662531820017,62.501786536734535Z" style="stroke: rgb(68, 68, 68); stroke-opacity: 1; fill: rgb(211, 211, 211); fill-opacity: 0.5; stroke-width: 0; opacity: 1;"/><path class="sankey-link" d="M 943.9662531820017 61.20256413666979 L938.9662531820017 61.20256413666979A22.026135549317267 22.026135549317267 0 0 1 916.9401176326843 39.17642858735252L916.9401176326843 34.176428587352525A22.026135549317267 22.026135549317267 0 0 1 938.9662531820017 12.150293038035258L1157.759503818402 12.150293038035258A22.026135549317267 22.026135549317267 0 0 1 1179.785639367719 34.176428587352525L1179.785639367719 42.17642858735252A22.026135549317267 22.026135549317267 0 0 1 1157.759503818402 64.20256413666979L1152.759503818402 64.20256413666979L1152.759503818402 52.17642858735252L1157.759503818402 52.17642858735252A10 10 0 0 0 1167.759503818402 42.17642858735252L1167.759503818402 34.176428587352525A10 10 0 0 0 1157.759503818402 24.176428587352525L938.9662531820017 24.176428587352525A10 10 0 0 0 928.9662531820017 34.176428587352525L928.9662531820017 39.17642858735252A10 10 0 0 0 938.9662531820017 49.17642858735252L943.9662531820017 49.17642858735252Z" style="stroke: rgb(68, 68, 68); stroke-opacity: 1; fill: rgb(211, 211, 211); fill-opacity: 0.5; stroke-width: 0; opacity: 1;"/></g><g class="sankey-node-set" style="cursor: move;"><g class="sankey-node" transform="translate(566.380,386.420)" style="opacity: 1;"><rect class="node-rect" width="20" height="20.773434938584785" style="stroke-width: 0.5; stroke: rgb(68, 68, 68); stroke-opacity: 1; fill: rgb(99, 110, 250); fill-opacity: 0.8;"/><text class="node-label" data-notex="1" x="0" y="0" text-anchor="start" transform="translate(23.25,14.586717469292392)" style="cursor: default; font-family: 'Open Sans', verdana, arial, sans-serif; font-size: 12px; fill: rgb(42, 63, 95); fill-opacity: 1; white-space: pre; text-shadow: rgba(0, 0, 0, 0) 1px 1px 1px, rgba(0, 0, 0, 0) -1px -1px 1px, rgba(0, 0, 0, 0) 1px -1px 1px, rgba(0, 0, 0, 0) -1px 1px 1px;">electric_bus_general</text></g><g class="sankey-node" transform="translate(377.587,258.761)" style="opacity: 1;"><rect class="node-rect" width="20" height="18.67073839871705" style="stroke-width: 0.5; stroke: rgb(68, 68, 68); stroke-opacity: 1; fill: rgb(239, 85, 59); fill-opacity: 0.8;"/><text class="node-label" data-notex="1" x="0" y="0" text-anchor="start" transform="translate(23.25,13.535369199358524)" style="cursor: default; font-family: 'Open Sans', verdana, arial, sans-serif; font-size: 12px; fill: rgb(42, 63, 95); fill-opacity: 1; white-space: pre; text-shadow: rgba(0, 0, 0, 0) 1px 1px 1px, rgba(0, 0, 0, 0) -1px -1px 1px, rgba(0, 0, 0, 0) 1px -1px 1px, rgba(0, 0, 0, 0) -1px 1px 1px;">renewable_to_heatpump</text></g><g class="sankey-node" transform="translate(1132.760,387.283)" style="opacity: 1;"><rect class="node-rect" width="20" height="19.047084830627796" style="stroke-width: 0.5; stroke: rgb(68, 68, 68); stroke-opacity: 1; fill: rgb(0, 204, 150); fill-opacity: 0.8;"/><text class="node-label" data-notex="1" x="0" y="0" text-anchor="end" transform="translate(-3.25,13.723542415313897)" style="cursor: default; font-family: 'Open Sans', verdana, arial, sans-serif; font-size: 12px; fill: rgb(42, 63, 95); fill-opacity: 1; white-space: pre; text-shadow: rgba(0, 0, 0, 0) 1px 1px 1px, rgba(0, 0, 0, 0) -1px -1px 1px, rgba(0, 0, 0, 0) 1px -1px 1px, rgba(0, 0, 0, 0) -1px 1px 1px;">electrical_demand</text></g><g class="sankey-node" transform="translate(0.000,293.087)" style="opacity: 1;"><rect class="node-rect" width="20" height="60.72473740407236" style="stroke-width: 0.5; stroke: rgb(68, 68, 68); stroke-opacity: 1; fill: rgb(171, 99, 250); fill-opacity: 0.8;"/><text class="node-label" data-notex="1" x="0" y="0" text-anchor="start" transform="translate(23.25,34.56236870203618)" style="cursor: default; font-family: 'Open Sans', verdana, arial, sans-serif; font-size: 12px; fill: rgb(42, 63, 95); fill-opacity: 1; white-space: pre; text-shadow: rgba(0, 0, 0, 0) 1px 1px 1px, rgba(0, 0, 0, 0) -1px -1px 1px, rgba(0, 0, 0, 0) 1px -1px 1px, rgba(0, 0, 0, 0) -1px 1px 1px;">wind_generation</text></g><g class="sankey-node" transform="translate(0.000,358.811)" style="opacity: 1;"><rect class="node-rect" width="20" height="21.788544566261066" style="stroke-width: 0.5; stroke: rgb(68, 68, 68); stroke-opacity: 1; fill: rgb(25, 211, 243); fill-opacity: 0.8;"/><text class="node-label" data-notex="1" x="0" y="0" text-anchor="start" transform="translate(23.25,15.094272283130532)" style="cursor: default; font-family: 'Open Sans', verdana, arial, sans-serif; font-size: 12px; fill: rgb(42, 63, 95); fill-opacity: 1; white-space: pre; text-shadow: rgba(0, 0, 0, 0) 1px 1px 1px, rgba(0, 0, 0, 0) -1px -1px 1px, rgba(0, 0, 0, 0) 1px -1px 1px, rgba(0, 0, 0, 0) -1px 1px 1px;">pv_generation</text></g><g class="sankey-node" transform="translate(943.966,49.176)" style="opacity: 1;"><rect class="node-rect" width="20" height="54.82598142238907" style="stroke-width: 0.5; stroke: rgb(68, 68, 68); stroke-opacity: 1; fill: rgb(255, 102, 146); fill-opacity: 0.8;"/><text class="node-label" data-notex="1" x="0" y="0" text-anchor="start" transform="translate(23.25,31.612990711194534)" style="cursor: default; font-family: 'Open Sans', verdana, arial, sans-serif; font-size: 12px; fill: rgb(42, 63, 95); fill-opacity: 1; white-space: pre; text-shadow: rgba(0, 0, 0, 0) 1px 1px 1px, rgba(0, 0, 0, 0) -1px -1px 1px, rgba(0, 0, 0, 0) 1px -1px 1px, rgba(0, 0, 0, 0) -1px 1px 1px;">thermal_bus</text></g><g class="sankey-node" transform="translate(755.173,124.039)" style="opacity: 1;"><rect class="node-rect" width="20" height="40.95365316730182" style="stroke-width: 0.5; stroke: rgb(68, 68, 68); stroke-opacity: 1; fill: rgb(182, 232, 128); fill-opacity: 0.8;"/><text class="node-label" data-notex="1" x="0" y="0" text-anchor="start" transform="translate(23.25,24.67682658365091)" style="cursor: default; font-family: 'Open Sans', verdana, arial, sans-serif; font-size: 12px; fill: rgb(42, 63, 95); fill-opacity: 1; white-space: pre; text-shadow: rgba(0, 0, 0, 0) 1px 1px 1px, rgba(0, 0, 0, 0) -1px -1px 1px, rgba(0, 0, 0, 0) 1px -1px 1px, rgba(0, 0, 0, 0) -1px 1px 1px;">heatpump</text></g><g class="sankey-node" transform="translate(755.173,404.467)" style="opacity: 1;"><rect class="node-rect" width="20" height="1.7263501079569323" style="stroke-width: 0.5; stroke: rgb(68, 68, 68); stroke-opacity: 1; fill: rgb(254, 203, 82); fill-opacity: 0.8;"/><text class="node-label" data-notex="1" x="0" y="0" text-anchor="start" transform="translate(23.25,5.0631750539784655)" style="cursor: default; font-family: 'Open Sans', verdana, arial, sans-serif; font-size: 12px; fill: rgb(42, 63, 95); fill-opacity: 1; white-space: pre; text-shadow: rgba(0, 0, 0, 0) 1px 1px 1px, rgba(0, 0, 0, 0) -1px -1px 1px, rgba(0, 0, 0, 0) 1px -1px 1px, rgba(0, 0, 0, 0) -1px 1px 1px;">battery_storage</text></g><g class="sankey-node" transform="translate(566.380,203.301)" style="opacity: 1;"><rect class="node-rect" width="20" height="18.67073839871682" style="stroke-width: 0.5; stroke: rgb(68, 68, 68); stroke-opacity: 1; fill: rgb(99, 110, 250); fill-opacity: 0.8;"/><text class="node-label" data-notex="1" x="0" y="0" text-anchor="start" transform="translate(23.25,13.53536919935841)" style="cursor: default; font-family: 'Open Sans', verdana, arial, sans-serif; font-size: 12px; fill: rgb(42, 63, 95); fill-opacity: 1; white-space: pre; text-shadow: rgba(0, 0, 0, 0) 1px 1px 1px, rgba(0, 0, 0, 0) -1px -1px 1px, rgba(0, 0, 0, 0) 1px -1px 1px, rgba(0, 0, 0, 0) -1px 1px 1px;">electric_bus_heatpump</text></g><g class="sankey-node" transform="translate(1132.760,301.820)" style="opacity: 1;"><rect class="node-rect" width="20" height="44.46745222047696" style="stroke-width: 0.5; stroke: rgb(68, 68, 68); stroke-opacity: 1; fill: rgb(0, 204, 150); fill-opacity: 0.8;"/><text class="node-label" data-notex="1" x="0" y="0" text-anchor="end" transform="translate(-3.25,26.433726110238478)" style="cursor: default; font-family: 'Open Sans', verdana, arial, sans-serif; font-size: 12px; fill: rgb(42, 63, 95); fill-opacity: 1; white-space: pre; text-shadow: rgba(0, 0, 0, 0) 1px 1px 1px, rgba(0, 0, 0, 0) -1px -1px 1px, rgba(0, 0, 0, 0) 1px -1px 1px, rgba(0, 0, 0, 0) -1px 1px 1px;">grid_feed_in_renewables</text></g><g class="sankey-node" transform="translate(1132.760,70.502)" style="opacity: 1;"><rect class="node-rect" width="20" height="41.500623473007025" style="stroke-width: 0.5; stroke: rgb(68, 68, 68); stroke-opacity: 1; fill: rgb(25, 211, 243); fill-opacity: 0.8;"/><text class="node-label" data-notex="1" x="0" y="0" text-anchor="end" transform="translate(-3.25,24.95031173650351)" style="cursor: default; font-family: 'Open Sans', verdana, arial, sans-serif; font-size: 12px; fill: rgb(42, 63, 95); fill-opacity: 1; white-space: pre; text-shadow: rgba(0, 0, 0, 0) 1px 1px 1px, rgba(0, 0, 0, 0) -1px -1px 1px, rgba(0, 0, 0, 0) 1px -1px 1px, rgba(0, 0, 0, 0) -1px 1px 1px;">heat_demand</text></g><g class="sankey-node" transform="translate(755.173,169.992)" style="opacity: 1;"><rect class="node-rect" width="20" height="1.8461927057699654" style="stroke-width: 0.5; stroke: rgb(68, 68, 68); stroke-opacity: 1; fill: rgb(255, 102, 146); fill-opacity: 0.8;"/><text class="node-label" data-notex="1" x="0" y="0" text-anchor="start" transform="translate(23.25,5.123096352884982)" style="cursor: default; font-family: 'Open Sans', verdana, arial, sans-serif; font-size: 12px; fill: rgb(42, 63, 95); fill-opacity: 1; white-space: pre; text-shadow: rgba(0, 0, 0, 0) 1px 1px 1px, rgba(0, 0, 0, 0) -1px -1px 1px, rgba(0, 0, 0, 0) 1px -1px 1px, rgba(0, 0, 0, 0) -1px 1px 1px;">heating_element</text></g><g class="sankey-node" transform="translate(1132.760,52.176)" style="opacity: 1;"><rect class="node-rect" width="20" height="13.325357949382017" style="stroke-width: 0.5; stroke: rgb(68, 68, 68); stroke-opacity: 1; fill: rgb(255, 151, 255); fill-opacity: 0.8;"/><text class="node-label" data-notex="1" x="0" y="0" text-anchor="end" transform="translate(-3.25,10.862678974691008)" style="cursor: default; font-family: 'Open Sans', verdana, arial, sans-serif; font-size: 12px; fill: rgb(42, 63, 95); fill-opacity: 1; white-space: pre; text-shadow: rgba(0, 0, 0, 0) 1px 1px 1px, rgba(0, 0, 0, 0) -1px -1px 1px, rgba(0, 0, 0, 0) 1px -1px 1px, rgba(0, 0, 0, 0) -1px 1px 1px;">thermal_storage</text></g><g class="sankey-node" transform="translate(188.793,283.185)" style="opacity: 1;"><rect class="node-rect" width="20" height="82.51328197033331" style="stroke-width: 0.5; stroke: rgb(68, 68, 68); stroke-opacity: 1; fill: rgb(239, 85, 59); fill-opacity: 0.8;"/><text class="node-label" data-notex="1" x="0" y="0" text-anchor="start" transform="translate(23.25,45.45664098516666)" style="cursor: default; font-family: 'Open Sans', verdana, arial, sans-serif; font-size: 12px; fill: rgb(42, 63, 95); fill-opacity: 1; white-space: pre; text-shadow: rgba(0, 0, 0, 0) 1px 1px 1px, rgba(0, 0, 0, 0) -1px -1px 1px, rgba(0, 0, 0, 0) 1px -1px 1px, rgba(0, 0, 0, 0) -1px 1px 1px;">electric_bus_renewables</text></g><g class="sankey-node" transform="translate(377.587,350.743)" style="opacity: 1;"><rect class="node-rect" width="20" height="19.375091351139645" style="stroke-width: 0.5; stroke: rgb(68, 68, 68); stroke-opacity: 1; fill: rgb(0, 204, 150); fill-opacity: 0.8;"/><text class="node-label" data-notex="1" x="0" y="0" text-anchor="start" transform="translate(23.25,13.887545675569822)" style="cursor: default; font-family: 'Open Sans', verdana, arial, sans-serif; font-size: 12px; fill: rgb(42, 63, 95); fill-opacity: 1; white-space: pre; text-shadow: rgba(0, 0, 0, 0) 1px 1px 1px, rgba(0, 0, 0, 0) -1px -1px 1px, rgba(0, 0, 0, 0) 1px -1px 1px, rgba(0, 0, 0, 0) -1px 1px 1px;">renewable_to_electric</text></g></g></g><defs id="topdefs-20142f"><g class="clips"/></defs><g class="layer-above"><g class="imagelayer"/><g class="shapelayer"/></g><g class="infolayer"><g class="g-gtitle"/><g class="first-render"/></g></svg>