<svg class="main-svg" xmlns="http://www.w3.org/2000/svg" xmlns:xlink="http://www.w3.org/1999/xlink" width="1200" height="230" style="" viewBox="0 0 1200 230"><rect x="0" y="0" width="1200" height="230" style="fill: rgb(255, 255, 255); fill-opacity: 1;"/><defs id="defs-dfd569"><g class="clips"><clipPath id="clipdfd569xyplot" class="plotclip"><rect width="1040" height="160"/></clipPath><clipPath class="axesclip" id="clipdfd569x"><rect x="80" y="0" width="1040" height="230"/></clipPath><clipPath class="axesclip" id="clipdfd569y"><rect x="0" y="25" width="1200" height="160"/></clipPath><clipPath class="axesclip" id="clipdfd569xy"><rect x="80" y="25" width="1040" height="160"/></clipPath></g><g class="gradients"/><g class="patterns"/></defs><g class="bglayer"/><g class="layer-below"><g class="imagelayer"/><g class="shapelayer"/></g><g class="cartesianlayer"><g class="subplot xy"><g class="layer-subplot"><g class="shapelayer"/><g class="imagelayer"/></g><g class="minor-gridlayer"><g class="x"/><g class="y"/></g><g class="gridlayer"><g class="x"><path class="xgrid crisp" transform="translate(168.34,0)" d="M0,25v160" style="stroke: rgb(200, 200, 200); stroke-opacity: 1; stroke-width: 1px;"/><path class="xgrid crisp" transform="translate(248.13,0)" d="M0,25v160" style="stroke: rgb(200, 200, 200); stroke-opacity: 1; stroke-width: 1px;"/><path class="xgrid crisp" transform="translate(336.47,0)" d="M0,25v160" style="stroke: rgb(200, 200, 200); stroke-opacity: 1; stroke-width: 1px;"/><path class="xgrid crisp" transform="translate(421.96,0)" d="M0,25v160" style="stroke: rgb(200, 200, 200); stroke-opacity: 1; stroke-width: 1px;"/><path class="xgrid crisp" transform="translate(510.3,0)" d="M0,25v160" style="stroke: rgb(200, 200, 200); stroke-opacity: 1; stroke-width: 1px;"/><path class="xgrid crisp" transform="translate(595.78,0)" d="M0,25v160" style="stroke: rgb(200, 200, 200); stroke-opacity: 1; stroke-width: 1px;"/><path class="xgrid crisp" transform="translate(684.12,0)" d="M0,25v160" style="stroke: rgb(200, 200, 200); stroke-opacity: 1; stroke-width: 1px;"/><path class="xgrid crisp" transform="translate(772.46,0)" d="M0,25v160" style="stroke: rgb(200, 200, 200); stroke-opacity: 1; stroke-width: 1px;"/><path class="xgrid crisp" transform="translate(857.95,0)" d="M0,25v160" style="stroke: rgb(200, 200, 200); stroke-opacity: 1; stroke-width: 1px;"/><path class="xgrid crisp" transform="translate(946.29,0)" d="M0,25v160" style="stroke: rgb(200, 200, 200); stroke-opacity: 1; stroke-width: 1px;"/><path class="xgrid crisp" transform="translate(1031.78,0)" d="M0,25v160" style="stroke: rgb(200, 200, 200); stroke-opacity: 1; stroke-width: 1px;"/></g><g class="y"><path class="ygrid crisp" transform="translate(0,161.39)" d="M80,0h1040" style="stroke: rgb(200, 200, 200); stroke-opacity: 1; stroke-width: 1px;"/><path class="ygrid crisp" transform="translate(0,145.76999999999998)" d="M80,0h1040" style="stroke: rgb(200, 200, 200); stroke-opacity: 1; stroke-width: 1px;"/><path class="ygrid crisp" transform="translate(0,130.16)" d="M80,0h1040" style="stroke: rgb(200, 200, 200); stroke-opacity: 1; stroke-width: 1px;"/><path class="ygrid crisp" transform="translate(0,114.55)" d="M80,0h1040" style="stroke: rgb(200, 200, 200); stroke-opacity: 1; stroke-width: 1px;"/><path class="ygrid crisp" transform="translate(0,98.93)" d="M80,0h1040" style="stroke: rgb(200, 200, 200); stroke-opacity: 1; stroke-width: 1px;"/><path class="ygrid crisp" transform="translate(0,83.32)" d="M80,0h1040" style="stroke: rgb(200, 200, 200); stroke-opacity: 1; stroke-width: 1px;"/><path class="ygrid crisp" transform="translate(0,67.71000000000001)" d="M80,0h1040" style="stroke: rgb(200, 200, 200); stroke-opacity: 1; stroke-width: 1px;"/><path class="ygrid crisp" transform="translate(0,52.09)" d="M80,0h1040" style="stroke: rgb(200, 200, 200); stroke-opacity: 1; stroke-width: 1px;"/><path class="ygrid crisp" transform="translate(0,36.480000000000004)" d="M80,0h1040" style="stroke: rgb(200, 200, 200); stroke-opacity: 1; stroke-width: 1px;"/></g></g><g class="zerolinelayer"><path class="yzl zl crisp" transform="translate(0,177)" d="M80,0h1040" style="stroke: rgb(255, 255, 255); stroke-opacity: 1; stroke-width: 2px;"/></g><path class="xlines-below"/><path class="ylines-below"/><g class="overlines-below"/><g class="xaxislayer-below"/><g class="yaxislayer-below"/><g class="overaxes-below"/><g class="plot" transform="translate(80,25)" clip-path="url(#clipdfd569xyplot)"><g class="scatterlayer mlayer"><g class="trace scatter tracec8ff0c" style="stroke-miterlimit: 2; opacity: 1;"><g class="fills"/><g class="errorbars"/><g class="lines"><path class="js-line" d="M0,152L3.44,152L3.56,8L8.55,8L8.67,152L9.5,152L9.62,8L10.33,8L10.45,24.83L11.28,51.2L11.4,51.2L12.23,51.2L12.35,9.07L13.18,22.96L13.3,50.35L14.13,51.2L14.25,51.2L20.9,51.2L21.02,11.55L22.08,51.2L22.2,8L27.9,8L28.02,25.37L28.85,152L28.97,152L29.33,152L29.45,29.01L30.28,8L30.4,8L43.46,8L43.58,21.63L44.41,8L44.53,8L49.75,8L49.87,28.36L50.7,152L50.82,152L51.65,8L51.77,8L52.01,8L52.12,9.14L52.96,8L53.07,8L53.55,8L53.67,43.08L54.5,152L54.62,152L55.81,152L55.92,51.2L56.04,50.44L56.16,24.61L56.76,8L56.87,36.78L57.71,152L57.82,152L58.66,8L58.77,51.2L59.6,152L59.72,152L60.67,152L60.79,51.2L61.5,51.2L61.62,46.37L62.34,8L62.45,11.58L62.57,28.59L63.4,51.2L63.52,51.2L63.76,29.46L63.88,49.59L64.47,8L64.59,50.47L65.42,51.2L65.54,51.2L66.61,51.2L66.73,8L67.68,51.2L67.8,51.2L69.1,51.2L69.22,49.18L70.05,8L70.17,8L70.41,32.94L70.88,8L71,8L80.98,8L81.1,152L81.93,152L82.05,8L83.35,8L83.47,18.76L84.3,8L84.42,8L86.8,8L86.91,152L87.75,152L87.86,8L89.05,8L89.17,32.79L90,8L90.12,8L90.71,8L90.83,27.06L91.66,152L91.78,152L93.44,152L93.56,49.19L93.68,51.01L93.8,38.87L94.63,8L94.75,8L97.01,8L97.13,152L97.96,152L98.08,21.01L98.91,8L99.03,8L99.38,8L99.5,11.68L100.69,152L100.81,152L102.11,152L102.23,51.2L102.47,22.73L102.94,51.2L103.06,51.2L103.3,51.2L103.42,46.16L103.54,51.2L103.66,21.4L104.61,8L104.72,8L105.08,8L105.2,12.96L105.56,51.2L106.03,32.42L106.15,29.78L106.39,40.85L106.51,13.78L106.62,8L106.98,8L107.1,12.6L107.22,9.35L107.34,32.37L108.17,51.2L108.29,51.2L109.47,51.2L109.59,46.74L110.42,51.2L110.54,51.2L115.89,51.2L116,152L116.95,152L117.07,51.2L117.55,51.2L117.67,24.97L118.14,16.64L118.26,21.63L118.38,32.16L119.33,8L119.45,8L124.2,8L124.32,15.58L125.15,152L125.27,152L126.33,152L126.45,8L127.05,8L127.17,12.46L128,152L128.12,152L128.35,152L128.47,51.2L128.71,51.2L128.83,42.22L128.95,38.08L129.06,8L131.68,8L131.8,10.5L132.63,8L132.75,8L133.7,152L133.81,152L135.83,152L135.95,8L136.55,8L136.66,24.07L137.5,152L137.61,152L138.45,8L138.56,8L139.39,51.2L139.51,37.41L139.63,51.2L139.75,8L139.99,8L140.11,8L142.13,8L142.24,23.04L143.08,152L143.19,152L144.14,8L144.26,38.63L145.09,152L145.21,152L146.4,152L146.52,51.2L146.99,8L147.35,11.19L147.47,152L148.3,152L148.42,51.2L149.01,51.2L149.13,29.02L149.84,51.2L149.96,33.84L150.79,51.2L150.91,51.2L151.74,51.2L151.86,8L154.24,8L154.36,24.6L154.59,33.41L155.19,8L155.31,8L155.66,8L155.78,12.14L156.97,152L157.09,152L158.04,8L158.16,8L158.51,8L158.63,152L160.29,152L160.41,45.96L160.77,51.2L161.24,8L161.36,8L161.6,8L161.72,51.2L161.95,51.2L162.07,152L163.14,152L163.26,50.63L164.09,8L164.21,8L165.04,152L165.16,152L165.75,152L165.87,51.2L166.11,51.2L166.23,45.67L166.47,8L166.59,51.2L166.82,51.2L166.94,51.2L167.42,51.2L167.54,152L168.84,152L168.96,51.2L169.08,48.24L169.67,51.2L169.79,51.2L169.91,8L170.5,51.2L170.62,152L171.57,152L171.69,51.2L172.76,51.2L172.88,36.74L173,51.2L173.12,8L173.35,8L173.47,152L174.3,152L174.42,51.2L176.08,51.2L176.2,152L177.39,152L177.51,51.2L177.75,51.2L177.87,8L178.93,152L179.05,152L179.65,152L179.76,51.2L181.78,51.2L181.9,152L182.73,152L182.85,51.2L184.51,51.2L184.63,152L185.94,152L186.06,51.2L186.3,42.87L186.65,51.2L186.77,8L187.48,51.2L187.6,8L188.43,152L188.55,152L189.38,51.2L189.5,51.2L189.74,8L190.09,51.2L190.21,152L191.64,152L191.76,51.2L192.83,51.2L192.94,19.75L193.78,152L193.89,152L194.13,152L194.25,51.2L196.03,51.2L196.15,152L197.34,152L197.46,47.28L197.81,40.69L198.17,51.2L198.29,8.89L199.12,51.2L199.24,8.79L200.07,152L200.19,152L200.31,29.74L201.02,51.2L201.14,51.2L204.58,51.2L204.7,152L205.53,152L205.65,51.2L210.52,51.2L210.64,152L211.59,152L211.7,51.2L213.25,51.2L213.37,152L214.44,152L214.55,51.2L215.15,51.2L215.27,8L216.22,152L216.34,152L217.29,152L217.4,49.97L217.64,51.2L217.76,41.93L217.88,8L219.18,8L219.3,152L220.13,152L220.25,26.94L221.08,8L221.2,8L221.68,37.79L221.8,152L222.98,152L223.1,8L224.05,8L224.17,32.2L225,152L225.12,152L225.48,152L225.6,51.2L226.55,51.2L226.67,37.8L227.02,8L227.26,10.75L227.38,51.2L228.21,152L228.33,152L228.68,152L228.8,25.94L229.4,51.2L229.51,13.64L229.87,8L229.99,51.2L230.94,152L231.06,152L231.53,152L231.65,36.16L232.01,51.2L232.13,29.36L232.25,8L232.6,8L232.72,28.46L233.55,152L233.67,152L234.38,152L234.5,51.2L235.1,51.2L235.21,8L235.45,8L235.57,28.32L236.4,152L236.52,152L237.23,152L237.35,51.2L237.71,51.2L237.83,8L238.66,51.2L238.78,8L239.84,152L239.96,152L240.91,8L241.03,8L241.98,8L242.1,152L242.93,152L243.05,21.81L243.88,8L244,26.53L244.12,33.13L244.24,152L245.78,152L245.9,45.82L246.73,51.2L246.85,51.2L247.68,51.2L247.8,152L248.63,152L248.75,42.93L249.58,51.2L249.7,8L251.01,152L251.12,152L251.48,152L251.6,43.02L251.72,51.2L251.84,10.1L251.96,8L252.55,8L252.67,47.57L253.5,152L253.62,152L254.45,152L254.57,51.2L255.52,51.2L255.64,18.19L256.59,152L256.71,152L257.3,152L257.42,51.2L258.6,51.2L258.72,152L260.03,152L260.15,51.2L261.22,51.2L261.34,33.24L262.29,152L262.4,152L263.12,152L263.24,51.2L264.07,8L264.19,152L265.37,152L265.49,51.2L266.32,8L266.44,8L267.63,8L267.75,20.62L268.7,152L268.82,152L271.55,152L271.67,51.2L272.38,51.2L272.5,10.16L272.85,8L272.97,51.2L273.8,152L273.92,152L274.4,152L274.52,51.2L275.35,8L275.47,26.16L275.7,40.28L275.94,8L276.06,8L276.18,18.09L277.01,152L277.13,152L278.55,152L278.67,48.74L279.03,8L279.38,42.65L279.5,152L281.05,152L281.16,51.2L281.88,51.2L282,152L282.95,152L283.06,51.2L283.78,51.2L283.9,8L284.96,152L285.08,152L285.8,152L285.91,51.2L287.46,51.2L287.58,152L288.41,152L288.53,51.2L290.07,51.2L290.19,8L291.38,152L291.49,152L292.44,51.2L292.56,49.86L292.8,25.41L292.92,51.2L293.04,152L294.11,152L294.23,51.2L295.89,51.2L296.01,152L297.19,152L297.31,51.2L298.5,51.2L298.62,152L299.92,152L300.04,51.2L300.28,51.2L300.4,23.94L301.71,152L301.82,152L302.66,152L302.77,51.2L303.96,51.2L304.08,42.02L304.91,152L305.03,152L305.74,152L305.86,8L306.69,51.2L306.81,51.2L307.17,51.2L307.29,152L308.35,152L308.47,51.2L308.95,51.2L309.07,18.04L310.02,152L310.14,152L311.68,152L311.8,51.2L312.27,51.2L312.39,8L313.34,152L313.46,152L314.89,152L315,51.2L315.12,8L315.72,51.2L315.84,152L317.38,152L317.5,51.2L318.21,51.2L318.33,152L320.7,152L320.82,51.2L321.53,51.2L321.65,152L323.32,152L323.43,51.2L323.67,51.2L323.79,19.33L324.15,51.2L324.27,152L326.28,152L326.4,11.29L326.52,11.51L326.64,14.5L326.76,23.53L327.11,9.38L327.23,152L331.27,152L331.39,51.2L332.34,51.2L332.46,152L334.12,152L334.24,51.2L334.95,8L335.19,28.78L335.31,43.73L336.14,152L336.26,152L337.09,152L337.21,51.2L338.28,51.2L338.39,152L339.7,152L339.82,51.2L341.36,51.2L341.48,152L342.67,152L342.79,51.2L343.86,51.2L343.98,152L345.64,152L345.76,51.2L346.35,51.2L346.47,9.7L347.54,152L347.66,152L348.49,152L348.61,51.2L349.91,51.2L350.03,152L351.22,152L351.34,51.2L351.69,8L352.05,51.2L352.17,51.2L353,152L353.12,152L353.83,152L353.95,51.2L355.26,51.2L355.37,42.34L355.85,51.2L355.97,152L356.92,152L357.04,47.33L357.87,51.2L357.99,51.2L358.22,45.99L358.34,23.71L359.65,152L359.77,152L360.6,8L360.72,8L361.67,152L361.79,152L362.62,152L362.74,51.2L362.97,17.05L363.45,51.2L363.57,51.2L364.52,152L364.64,152L365.35,152L365.47,41.69L366.18,8L366.3,152L368.32,152L368.43,51.2L369.27,51.2L369.38,37.53L369.5,8L369.62,152L369.74,152L371.28,152L371.4,8L372.23,51.2L372.35,51.2L373.18,152L373.3,152L374.13,152L374.25,51.2L375.32,51.2L375.44,42.14L375.68,51.2L375.8,152L377.1,152L377.22,51.2L378.65,51.2L378.76,152L380.07,152L380.19,51.2L381.14,8L381.26,152L382.56,152L382.68,51.2L383.63,8L383.75,8L384.23,8L384.35,16.18L385.41,152L385.53,152L387.79,152L387.91,51.2L388.14,41.45L388.26,51.2L388.38,8L389.21,51.2L389.33,42.81L389.45,8L389.57,51.2L389.81,51.2L389.93,152L391.35,152L391.47,51.2L392.18,51.2L392.3,152L394.2,152L394.32,51.2L395.03,51.2L395.15,152L397.05,152L397.17,51.2L397.88,51.2L398,152L399.66,152L399.78,51.2L400.61,51.2L400.73,152L402.16,152L402.27,51.2L402.51,51.2L402.63,19.64L403.11,8L403.22,152L405.36,152L405.48,51.2L406.67,51.2L406.79,152L408.33,152L408.45,51.2L408.57,46.56L408.69,8L409.75,152L409.87,152L411.18,152L411.3,51.2L412.01,51.2L412.13,152L414.5,152L414.62,51.2L414.86,51.2L414.98,33.55L415.1,10.53L415.34,51.2L415.45,152L417.12,152L417.23,51.2L417.95,51.2L418.07,152L419.73,152L419.85,51.2L421.03,51.2L421.15,152L422.46,152L422.58,50.56L423.41,8L423.53,8L423.77,8L423.88,51.2L424.83,152L424.95,152L425.31,152L425.43,31.16L425.9,51.2L426.26,8L426.38,8L427.21,152L427.33,152L431.25,152L431.36,51.2L432.08,51.2L432.2,152L434.57,152L434.69,51.2L435.4,51.2L435.52,152L437.06,152L437.18,51.2L437.66,51.2L437.78,41.83L437.89,31.05L438.01,152L443,152L443.12,51.2L443.48,51.2L443.59,36.21L443.83,32.05L443.95,152L448.22,152L448.34,51.2L448.7,51.2L448.82,43.83L448.94,10.3L449.17,21.08L449.29,152L453.92,152L454.04,51.2L454.76,8.56L454.87,34.82L454.99,152L462.24,152L462.35,18.14L463.07,8L463.19,152L516.62,152L516.73,20.88L517.33,35.45L517.45,33.17L517.57,152L533.83,152L533.95,51.2L534.19,51.2L534.31,35.26L534.78,8L534.9,152L537.28,152L537.39,51.2L537.87,8L537.99,8.42L538.11,51.2L538.23,8L538.34,152L538.58,152L538.7,152L542.74,152L542.86,51.2L543.57,51.2L543.69,152L545.35,152L545.47,31.24L545.59,8L545.71,51.2L546.06,51.2L546.18,51.2L547.01,152L547.13,152L551.29,152L551.41,8L552.12,8L552.24,152L556.27,152L556.39,51.2L557.22,51.2L557.34,14.3L558.41,152L558.53,152L565.06,152L565.18,51.2L565.65,50.98L565.77,16.8L566.01,26.06L566.13,152L570.88,152L571,18.59L571.35,26.81L571.47,25.73L571.59,34.23L571.71,30.27L571.83,152L576.81,152L576.93,21.89L577.65,34.15L577.76,152L582.04,152L582.16,51.2L582.87,51.2L582.99,152L585.6,152L585.72,51.2L585.84,48.56L586.43,51.2L586.55,152L611.13,152L611.25,8L611.96,8L612.08,152L619.2,152L619.32,51.2L619.92,51.2L620.03,35.28L621.22,152L621.34,152L625.26,152L625.38,8.4L625.97,22.58L626.09,22.57L626.21,152L633.45,152L633.57,51.2L634.64,51.2L634.76,152L639.51,152L639.63,51.2L640.34,51.2L640.46,152L642.36,152L642.48,51.2L643.19,51.2L643.31,152L644.73,152L644.85,51.2L645.56,51.2L645.68,152L647.7,152L647.82,51.2L648.53,8L648.65,152L653.87,152L653.99,24.81L654.59,36.48L654.7,29.67L654.82,152L662.3,152L662.42,8L663.02,8.55L663.14,12.93L663.97,152L664.08,152L668.12,152L668.24,16.26L668.36,11.28L668.72,23.55L668.95,15.31L669.07,152L687.83,152L687.95,51.2L688.19,51.2L688.31,34.59L688.43,26.91L688.66,31.56L688.78,152L693.53,152L693.65,51.2L694.36,51.2L694.48,152L696.62,152L696.74,51.2L697.45,51.2L697.57,152L699.35,152L699.47,51.2L700.18,51.2L700.3,152L702.2,152L702.32,51.2L703.03,51.2L703.15,152L705.05,152L705.17,51.2L705.88,51.2L706,152L707.42,152L707.54,51.2L707.78,44L707.9,8L708.25,8L708.37,152L710.51,152L710.63,29.51L711.1,39.88L711.22,8L711.34,22.41L711.46,51.2L712.41,152L712.53,152L715.97,152L716.09,51.2L717.04,51.2L717.16,11.01L718.11,152L718.23,152L719.18,152L719.3,51.2L719.53,51.2L719.65,9.23L719.89,8L720.01,37.95L720.84,152L720.96,152L722.03,152L722.15,51.2L722.62,51.2L722.74,46.84L722.86,51.2L722.98,152L725,152L725.11,51.2L725.83,51.2L725.95,152L727.96,152L728.08,51.2L728.44,9.37L728.56,27.05L728.68,51.2L729.63,152L729.75,152L730.58,152L730.7,8L731.41,15.22L731.53,152L736.39,152L736.51,51.2L737.23,51.2L737.34,152L739.36,152L739.48,51.2L740.19,51.2L740.31,152L741.74,152L741.86,51.2L742.81,51.2L742.92,152L744.59,152L744.71,51.2L744.94,46.97L745.06,8L745.42,8L745.54,152L747.44,152L747.56,51.2L747.79,51.2L747.91,8L748.98,152L749.1,152L750.29,152L750.41,51.2L751.47,51.2L751.59,152L753.14,152L753.25,51.2L753.85,51.2L753.97,28.07L754.8,152L754.92,152L756.1,152L756.22,51.2L756.94,51.2L757.05,152L758.84,152L758.95,51.2L759.19,51.2L759.31,46.88L759.55,8L759.67,42.05L759.79,152L761.92,152L762.04,51.2L762.75,51.2L762.87,152L764.42,152L764.53,51.2L765.01,51.2L765.13,25.43L765.25,8L765.37,152L767.27,152L767.38,51.2L768.22,51.2L768.33,152L770.12,152L770.23,51.2L771.42,51.2L771.54,152L772.61,152L772.73,51.2L773.2,51.2L773.32,43.86L773.44,8L773.56,152L773.68,152L773.8,152L776.41,152L776.53,51.2L777.24,51.2L777.36,152L778.19,152L778.31,51.2L778.66,51.2L778.78,47.72L779.02,8L779.14,152L779.26,152L781.51,152L781.63,51.2L782.35,51.2L782.46,152L784.36,152L784.48,51.2L785.67,51.2L785.79,152L786.86,152L786.98,51.2L788.16,51.2L788.28,32.25L789.11,152L789.23,152L790.06,152L790.18,51.2L791.96,51.2L792.08,152L793.15,152L793.27,25.71L793.62,21.58L793.86,51.2L793.98,14.79L794.22,51.2L794.46,8L794.69,8L794.81,8L795.17,8L795.29,51.2L796.12,152L796.24,152L797.78,152L797.9,51.2L799.44,51.2L799.56,45.3L799.68,8L799.8,152L799.92,152L800.04,152L800.63,152L800.75,8L801.34,8L801.46,11.43L802.29,152L802.41,152L804.19,152L804.31,51.2L805.5,51.2L805.62,30.48L806.45,152L806.57,152L807.16,152L807.28,51.2L808.47,51.2L808.59,152L810.13,152L810.25,51.2L811.08,51.2L811.2,21.86L812.15,152L812.27,152L812.86,152L812.98,51.2L813.1,9.52L813.69,51.2L813.81,51.2L813.93,44.38L814.05,51.2L814.17,152L815.83,152L815.95,51.2L816.9,51.2L817.02,152L818.8,152L818.92,51.2L819.63,51.2L819.75,152L821.41,152L821.53,51.2L822.36,51.2L822.48,47.3L822.6,8L822.83,152L822.95,152L824.26,152L824.38,51.2L825.45,51.2L825.56,152L826.99,152L827.11,51.2L827.58,51.2L827.7,8L828.3,8L828.41,47.99L828.53,23.24L828.65,152L828.77,152L832.57,152L832.69,51.2L833.4,51.2L833.52,152L834.35,152L834.47,39.54L834.59,8L834.71,51.2L835.06,51.2L835.18,51.2L836.13,152L836.25,152L836.96,152L837.08,51.2L837.79,51.2L837.91,152L838.86,152L838.98,51.2L839.69,51.2L839.81,152L840.88,152L841,33.46L841.12,21.43L841.48,51.2L841.59,51.2L841.95,51.2L842.07,35.17L842.19,44.66L842.31,152L844.56,152L844.68,51.2L845.16,51.2L845.27,38.93L845.39,51.2L845.51,152L847.06,152L847.17,51.2L847.65,51.2L847.77,19.42L847.89,8L848.01,51.2L848.12,30.59L848.24,152L850.02,152L850.14,51.2L850.86,8L850.97,152L852.75,152L852.87,51.2L853.35,51.2L853.47,44.48L853.7,8L853.82,51.2L853.94,51.2L854.06,152L856.08,152L856.2,51.2L857.5,51.2L857.62,152L858.45,152L858.57,51.2L859.17,8L859.29,18.87L859.4,51.2L859.52,8L859.76,152L859.88,152L861.19,152L861.3,51.2L861.78,51.2L861.9,8L864.03,8L864.15,39.87L864.98,8L865.1,8L866.17,8L866.29,32.94L866.41,48.82L866.88,34.24L867,23.58L867.12,23.77L867.24,16.6L867.6,8L867.72,19.79L867.83,23.4L868.67,8L868.78,8L872.23,8L872.35,34.23L872.58,48.83L872.7,47.02L872.82,152L874.01,152L874.13,29.36L874.96,8L875.08,8L877.81,8L877.93,26.13L878.05,51.16L878.52,8L878.64,8L879,8L879.11,31.95L879.35,8L879.47,40.61L879.83,16.99L879.95,21.66L880.3,45.29L880.42,152L881.61,152L881.73,8L881.84,12.77L882.44,8L882.56,8L885.05,8L885.17,24L885.53,8L885.64,39.13L885.76,152L886.59,152L886.71,15.74L887.43,8L887.54,152L888.61,152L888.73,27.5L889.56,8L889.68,8L890.75,8L890.87,47.1L891.7,152L891.82,152L895.26,152L895.38,37.2L895.97,8L896.09,23.38L896.21,152L897.04,152L897.16,46.98L898.11,8L898.23,8L898.59,8L898.71,35.76L898.94,8L899.18,34.09L899.3,152L901.44,152L901.55,35.06L901.79,38.73L902.03,8L902.15,29.6L902.27,51.2L902.86,8L903.1,27.75L903.22,33.18L904.17,8L904.29,8L907.61,8L907.73,50.29L908.44,8L908.56,42.04L908.68,152L911.17,152L911.29,44.18L911.65,51.2L911.88,35.95L912,17.56L912.12,24.47L912.36,8L912.48,8L912.6,8L912.83,8L912.95,31.52L913.19,51.2L913.43,8L913.55,8L913.67,24.41L914.5,152L914.62,152L915.21,152L915.33,51.2L916.28,8L916.4,8L917.82,8L917.94,36.46L918.42,51.2L918.53,42.3L918.65,8L919.01,51.2L919.13,152L921.15,152L921.26,43.31L921.38,46.31L921.5,37.22L921.62,8L921.86,8L921.98,51.2L922.93,152L923.05,152L925.3,152L925.42,51.2L926.13,29.09L926.25,34L926.37,152L927.2,152L927.32,50.43L927.68,51.2L927.8,29.9L928.63,8L928.75,8L932.43,8L932.54,16.17L933.73,152L933.85,152L938.48,152L938.6,51.2L939.67,51.2L939.79,41.06L940.26,8.34L940.38,152L941.21,152L941.33,42.57L942.4,51.2L942.52,51.2L942.76,51.2L942.87,19.72L943.71,8L943.82,8L949.52,8L949.64,8.98L950.59,152L950.71,152L951.66,8L951.78,8L953.2,8L953.32,10.82L953.56,11.84L953.68,19.75L954.51,152L954.63,152L954.87,152L954.99,23.14L955.58,44.91L955.7,8L955.82,152L956.65,152L956.77,8L957.48,8L957.6,33.75L958.43,152L958.55,152L959.74,152L959.85,27.75L960.69,8L960.8,8L961.16,34.72L961.28,8L961.4,8L962.82,8L962.94,24.13L963.77,152L963.89,152L966.38,152L966.5,51.2L966.74,51.2L966.86,36.39L967.57,8L967.69,29.11L968.76,51.2L968.88,51.2L978.97,51.2L979.09,152L980.16,152L980.28,51.2L990.72,51.2L990.84,49.75L991.44,8L991.56,152L992.39,152L992.51,51.2L992.74,51.2L992.86,34.59L993.34,8L993.46,51.2L993.57,51.2L993.81,51.2L993.93,152L994.76,152L994.88,51.2L995.24,51.2L995.36,39.66L995.47,40.86L995.59,28.74L996.07,8L996.19,51.2L996.31,44.64L996.54,51.2L996.9,8L997.02,152L997.97,152L998.09,8L998.68,51.2L998.8,8L998.92,16.36L999.16,8L999.27,51.2L1000.11,152L1000.22,152L1001.05,8L1001.17,8L1001.65,45.92L1001.77,8.12L1001.89,152L1004.02,152L1004.14,51.2L1004.97,8L1005.09,152L1005.92,152L1006.04,51.2L1006.52,51.2L1006.64,8L1008.77,8L1008.89,152L1009.72,152L1009.84,43.11L1010.32,8L1010.55,14.62L1010.67,152L1011.5,152L1011.62,8L1011.98,8L1012.1,34.82L1013.05,8L1013.17,8L1022.55,8L1022.66,16.56L1022.9,15.23L1023.14,51.2L1023.26,152L1025.16,152L1025.28,51.2L1025.99,8L1026.11,152L1026.94,152L1027.06,42.82L1027.18,46.03L1027.3,32.61L1027.41,13.66L1027.53,15.04L1027.65,8L1027.77,8L1028.6,8L1028.72,152L1029.55,152L1029.67,8L1030.38,51.2L1030.5,46.74L1030.62,36.54L1031.21,8L1031.45,24.44L1031.57,41.52L1031.69,47.02L1031.81,34.21L1032.04,40.43L1032.16,27.17L1032.4,27.96L1032.99,8L1033.11,8L1033.35,51.2L1033.83,12.5L1033.94,8L1034.66,51.2L1034.78,38.78L1034.89,29.15L1035.25,45.14L1035.37,8L1036.44,8L1036.56,30.56L1037.03,51.2L1037.15,12.84L1037.27,8L1039.05,8L1039.17,152L1040,152" style="vector-effect: none; fill: none; stroke: rgb(0, 117, 173); stroke-opacity: 1; stroke-width: 2px; opacity: 1;"/></g><g class="points"/><g class="text"/></g></g></g><g class="overplot"/><path class="xlines-above crisp" d="M0,0" style="fill: none;"/><path class="ylines-above crisp" d="M0,0" style="fill: none;"/><g class="overlines-above"/><g class="xaxislayer-above"><g class="xtick"><text text-anchor="middle" x="0" y="199" transform="translate(80,0)" style="font-family: Arial; font-size: 13px; fill: rgb(51, 51, 51); fill-opacity: 1; white-space: pre; opacity: 1;">Jan 2019</text></g><g class="xtick"><text text-anchor="middle" x="0" y="199" style="font-family: Arial; font-size: 13px; fill: rgb(51, 51, 51); fill-opacity: 1; white-space: pre; opacity: 1;" transform="translate(168.34,0)">Feb 2019</text></g><g class="xtick"><text text-anchor="middle" x="0" y="199" style="font-family: Arial; font-size: 13px; fill: rgb(51, 51, 51); fill-opacity: 1; white-space: pre; opacity: 1;" transform="translate(248.13,0)">Mar 2019</text></g><g class="xtick"><text text-anchor="middle" x="0" y="199" style="font-family: Arial; font-size: 13px; fill: rgb(51, 51, 51); fill-opacity: 1; white-space: pre; opacity: 1;" transform="translate(336.47,0)">Apr 2019</text></g><g class="xtick"><text text-anchor="middle" x="0" y="199" style="font-family: Arial; font-size: 13px; fill: rgb(51, 51, 51); fill-opacity: 1; white-space: pre; opacity: 1;" transform="translate(421.96,0)">May 2019</text></g><g class="xtick"><text text-anchor="middle" x="0" y="199" style="font-family: Arial; font-size: 13px; fill: rgb(51, 51, 51); fill-opacity: 1; white-space: pre; opacity: 1;" transform="translate(510.3,0)">Jun 2019</text></g><g class="xtick"><text text-anchor="middle" x="0" y="199" style="font-family: Arial; font-size: 13px; fill: rgb(51, 51, 51); fill-opacity: 1; white-space: pre; opacity: 1;" transform="translate(595.78,0)">Jul 2019</text></g><g class="xtick"><text text-anchor="middle" x="0" y="199" style="font-family: Arial; font-size: 13px; fill: rgb(51, 51, 51); fill-opacity: 1; white-space: pre; opacity: 1;" transform="translate(684.12,0)">Aug 2019</text></g><g class="xtick"><text text-anchor="middle" x="0" y="199" style="font-family: Arial; font-size: 13px; fill: rgb(51, 51, 51); fill-opacity: 1; white-space: pre; opacity: 1;" transform="translate(772.46,0)">Sep 2019</text></g><g class="xtick"><text text-anchor="middle" x="0" y="199" style="font-family: Arial; font-size: 13px; fill: rgb(51, 51, 51); fill-opacity: 1; white-space: pre; opacity: 1;" transform="translate(857.95,0)">Oct 2019</text></g><g class="xtick"><text text-anchor="middle" x="0" y="199" style="font-family: Arial; font-size: 13px; fill: rgb(51, 51, 51); fill-opacity: 1; white-space: pre; opacity: 1;" transform="translate(946.29,0)">Nov 2019</text></g><g class="xtick"><text text-anchor="middle" x="0" y="199" style="font-family: Arial; font-size: 13px; fill: rgb(51, 51, 51); fill-opacity: 1; white-space: pre; opacity: 1;" transform="translate(1031.78,0)">Dec 2019</text></g></g><g class="yaxislayer-above"><g class="ytick"><text text-anchor="end" x="79" y="4.55" transform="translate(0,177)" style="font-family: Arial; font-size: 13px; fill: rgb(51, 51, 51); fill-opacity: 1; white-space: pre; opacity: 1;">0</text></g><g class="ytick"><text text-anchor="end" x="79" y="4.55" style="font-family: Arial; font-size: 13px; fill: rgb(51, 51, 51); fill-opacity: 1; white-space: pre; opacity: 1;" transform="translate(0,161.39)">100</text></g><g class="ytick"><text text-anchor="end" x="79" y="4.55" style="font-family: Arial; font-size: 13px; fill: rgb(51, 51, 51); fill-opacity: 1; white-space: pre; opacity: 1;" transform="translate(0,145.76999999999998)">200</text></g><g class="ytick"><text text-anchor="end" x="79" y="4.55" style="font-family: Arial; font-size: 13px; fill: rgb(51, 51, 51); fill-opacity: 1; white-space: pre; opacity: 1;" transform="translate(0,130.16)">300</text></g><g class="ytick"><text text-anchor="end" x="79" y="4.55" style="font-family: Arial; font-size: 13px; fill: rgb(51, 51, 51); fill-opacity: 1; white-space: pre; opacity: 1;" transform="translate(0,114.55)">400</text></g><g class="ytick"><text text-anchor="end" x="79" y="4.55" style="font-family: Arial; font-size: 13px; fill: rgb(51, 51, 51); fill-opacity: 1; white-space: pre; opacity: 1;" transform="translate(0,98.93)">500</text></g><g class="ytick"><text text-anchor="end" x="79" y="4.55" style="font-family: Arial; font-size: 13px; fill: rgb(51, 51, 51); fill-opacity: 1; white-space: pre; opacity: 1;" transform="translate(0,83.32)">600</text></g><g class="ytick"><text text-anchor="end" x="79" y="4.55" style="font-family: Arial; font-size: 13px; fill: rgb(51, 51, 51); fill-opacity: 1; white-space: pre; opacity: 1;" transform="translate(0,67.71000000000001)">700</text></g><g class="ytick"><text text-anchor="end" x="79" y="4.55" style="font-family: Arial; font-size: 13px; fill: rgb(51, 51, 51); fill-opacity: 1; white-space: pre; opacity: 1;" transform="translate(0,52.09)">800</text></g><g class="ytick"><text text-anchor="end" x="79" y="4.55" style="font-family: Arial; font-size: 13px; fill: rgb(51, 51, 51); fill-opacity: 1; white-space: pre; opacity: 1;" transform="translate(0,36.480000000000004)">900</text></g></g><g class="overaxes-above"/></g></g><g class="polarlayer"/><g class="smithlayer"/><g class="ternarylayer"/><g class="geolayer"/><g class="funnelarealayer"/><g class="pielayer"/><g class="iciclelayer"/><g class="treemaplayer"/><g class="sunburstlayer"/><g class="glimages"/><defs id="topdefs-dfd569"><g class="clips"/></defs><g class="layer-above"><g class="imagelayer"/><g class="shapelayer"/></g><g class="infolayer"><g class="g-gtitle"><text class="gtitle" x="600" y="0.22999999999998977" text-anchor="middle" dy="0.7em" style="font-family: 'Arial Black'; font-size: 20px; fill: rgb(51, 51, 51); opacity: 1; font-weight: normal; white-space: pre;">Heatpump schedule optimal_size_co2_optimized</text></g><g class="g-xtitle"/><g class="g-ytitle"><text class="ytitle" transform="rotate(-90,29.496875000000003,105)" x="29.496875000000003" y="105" text-anchor="middle" style="font-family: Arial; font-size: 19px; fill: rgb(51, 51, 51); opacity: 1; font-weight: normal; white-space: pre;">Electrical Power [kW]</text></g></g></svg>