<svg class="main-svg" xmlns="http://www.w3.org/2000/svg" xmlns:xlink="http://www.w3.org/1999/xlink" width="1200" height="230" style="" viewBox="0 0 1200 230"><rect x="0" y="0" width="1200" height="230" style="fill: rgb(255, 255, 255); fill-opacity: 1;"/><defs id="defs-bf4cb7"><g class="clips"><clipPath id="clipbf4cb7xyplot" class="plotclip"><rect width="1040" height="160"/></clipPath><clipPath class="axesclip" id="clipbf4cb7x"><rect x="80" y="0" width="1040" height="230"/></clipPath><clipPath class="axesclip" id="clipbf4cb7y"><rect x="0" y="25" width="1200" height="160"/></clipPath><clipPath class="axesclip" id="clipbf4cb7xy"><rect x="80" y="25" width="1040" height="160"/></clipPath></g><g class="gradients"/><g class="patterns"/></defs><g class="bglayer"/><g class="layer-below"><g class="imagelayer"/><g class="shapelayer"/></g><g class="cartesianlayer"><g class="subplot xy"><g class="layer-subplot"><g class="shapelayer"/><g class="imagelayer"/></g><g class="minor-gridlayer"><g class="x"/><g class="y"/></g><g class="gridlayer"><g class="x"><path class="xgrid crisp" transform="translate(168.34,0)" d="M0,25v160" style="stroke: rgb(200, 200, 200); stroke-opacity: 1; stroke-width: 1px;"/><path class="xgrid crisp" transform="translate(248.13,0)" d="M0,25v160" style="stroke: rgb(200, 200, 200); stroke-opacity: 1; stroke-width: 1px;"/><path class="xgrid crisp" transform="translate(336.47,0)" d="M0,25v160" style="stroke: rgb(200, 200, 200); stroke-opacity: 1; stroke-width: 1px;"/><path class="xgrid crisp" transform="translate(421.96,0)" d="M0,25v160" style="stroke: rgb(200, 200, 200); stroke-opacity: 1; stroke-width: 1px;"/><path class="xgrid crisp" transform="translate(510.3,0)" d="M0,25v160" style="stroke: rgb(200, 200, 200); stroke-opacity: 1; stroke-width: 1px;"/><path class="xgrid crisp" transform="translate(595.78,0)" d="M0,25v160" style="stroke: rgb(200, 200, 200); stroke-opacity: 1; stroke-width: 1px;"/><path class="xgrid crisp" transform="translate(684.12,0)" d="M0,25v160" style="stroke: rgb(200, 200, 200); stroke-opacity: 1; stroke-width: 1px;"/><path class="xgrid crisp" transform="translate(772.46,0)" d="M0,25v160" style="stroke: rgb(200, 200, 200); stroke-opacity: 1; stroke-width: 1px;"/><path class="xgrid crisp" transform="translate(857.95,0)" d="M0,25v160" style="stroke: rgb(200, 200, 200); stroke-opacity: 1; stroke-width: 1px;"/><path class="xgrid crisp" transform="translate(946.29,0)" d="M0,25v160" style="stroke: rgb(200, 200, 200); stroke-opacity: 1; stroke-width: 1px;"/><path class="xgrid crisp" transform="translate(1031.78,0)" d="M0,25v160" style="stroke: rgb(200, 200, 200); stroke-opacity: 1; stroke-width: 1px;"/></g><g class="y"><path class="ygrid crisp" transform="translate(0,162.65)" d="M80,0h1040" style="stroke: rgb(200, 200, 200); stroke-opacity: 1; stroke-width: 1px;"/><path class="ygrid crisp" transform="translate(0,148.12)" d="M80,0h1040" style="stroke: rgb(200, 200, 200); stroke-opacity: 1; stroke-width: 1px;"/><path class="ygrid crisp" transform="translate(0,133.59)" d="M80,0h1040" style="stroke: rgb(200, 200, 200); stroke-opacity: 1; stroke-width: 1px;"/><path class="ygrid crisp" transform="translate(0,119.06)" d="M80,0h1040" style="stroke: rgb(200, 200, 200); stroke-opacity: 1; stroke-width: 1px;"/><path class="ygrid crisp" transform="translate(0,104.53)" d="M80,0h1040" style="stroke: rgb(200, 200, 200); stroke-opacity: 1; stroke-width: 1px;"/><path class="ygrid crisp" transform="translate(0,89.99)" d="M80,0h1040" style="stroke: rgb(200, 200, 200); stroke-opacity: 1; stroke-width: 1px;"/><path class="ygrid crisp" transform="translate(0,75.46000000000001)" d="M80,0h1040" style="stroke: rgb(200, 200, 200); stroke-opacity: 1; stroke-width: 1px;"/><path class="ygrid crisp" transform="translate(0,60.93)" d="M80,0h1040" style="stroke: rgb(200, 200, 200); stroke-opacity: 1; stroke-width: 1px;"/><path class="ygrid crisp" transform="translate(0,46.4)" d="M80,0h1040" style="stroke: rgb(200, 200, 200); stroke-opacity: 1; stroke-width: 1px;"/><path class="ygrid crisp" transform="translate(0,31.87)" d="M80,0h1040" style="stroke: rgb(200, 200, 200); stroke-opacity: 1; stroke-width: 1px;"/></g></g><g class="zerolinelayer"><path class="yzl zl crisp" transform="translate(0,177.18)" d="M80,0h1040" style="stroke: rgb(255, 255, 255); stroke-opacity: 1; stroke-width: 2px;"/></g><path class="xlines-below"/><path class="ylines-below"/><g class="overlines-below"/><g class="xaxislayer-below"/><g class="yaxislayer-below"/><g class="overaxes-below"/><g class="plot" transform="translate(80,25)" clip-path="url(#clipbf4cb7xyplot)"><g class="scatterlayer mlayer"><g class="trace scatter trace4cd2d1" style="stroke-miterlimit: 2; opacity: 1;"><g class="fills"/><g class="errorbars"/><g class="lines"><path class="js-line" d="M0,95.35L0.12,96.44L0.24,93.25L0.36,89.91L2.37,17.82L2.49,18.5L3.09,21.27L3.32,19.57L3.44,19.64L3.8,23.65L3.92,22.77L4.04,19.12L4.16,18.82L4.27,20.49L4.39,22.63L6.53,96.41L6.65,114.21L7.6,70.92L7.84,76.15L7.96,87.23L8.31,84.33L8.91,104.77L9.02,114.52L9.38,122.81L9.62,115.53L9.74,111.8L10.8,31.08L11.28,39.39L11.4,45.19L11.52,47.12L11.87,41.54L11.99,35.25L12.59,15.13L12.94,22.84L13.06,26.89L14.96,76.15L15.08,74.91L15.44,96.41L15.79,91.22L15.91,79.8L16.62,56.8L16.86,61.06L16.98,63.02L17.69,73.54L17.81,77.86L18.29,101.45L18.64,97.1L18.76,93.16L19.59,52.16L19.71,60.04L19.83,62.21L19.95,54.35L20.07,43.37L20.42,16.12L21.02,19.64L21.13,16.25L21.85,10.15L22.08,11.16L22.2,10.97L22.44,10.4L22.68,11.94L22.8,13.69L23.51,21.46L23.63,23.7L24.82,50.8L24.93,51.29L25.05,51.54L25.17,50.75L25.29,48.66L25.53,48.4L25.65,52.16L26.6,65.18L26.72,55.78L27.19,72.88L27.31,79.98L27.55,71.64L27.67,77.67L27.78,88.64L28.5,141.52L28.97,138.28L29.09,133.74L31.11,39.77L31.23,43.37L31.46,44.22L31.58,48.35L31.82,58.5L32.06,47.58L32.18,45.28L32.53,47.12L32.77,44.98L32.89,39.33L33.6,17.52L33.96,21.26L34.08,24.58L34.91,55.07L35.15,45.24L35.26,39.08L35.38,43.35L35.62,31.07L35.74,26.67L36.57,9.64L36.69,10.81L36.81,11.97L37.88,30.83L38,43.3L38.35,41.2L38.59,48.68L38.71,45.53L38.83,36.01L39.06,27.18L39.42,43.88L39.54,48.65L39.89,54.14L40.13,43.81L40.25,46.24L40.73,64.58L40.84,58.47L40.96,49.64L41.32,23.86L41.79,28.42L41.91,30.22L42.27,41.21L42.39,47.12L42.63,41.53L43.1,66.6L43.22,75.09L43.81,132.27L44.29,112.67L44.41,100.91L45.36,52.56L45.48,48.78L46.19,28.95L46.43,34.05L46.54,42.87L46.9,26.75L47.02,26.81L47.14,35.71L47.26,40.96L47.61,24.37L47.73,22.63L48.09,33.47L48.21,39.3L48.8,53.3L48.92,59.55L49.51,114.4L49.63,127.29L50.22,149.57L50.46,141.25L50.58,126.59L51.06,90.86L51.41,99.14L51.53,100.21L52.12,107.86L52.24,105.32L52.36,82.83L52.48,81.73L52.6,88.7L54.02,133.56L54.14,135.52L55.57,147.01L55.69,145.75L56.64,102.09L56.76,104.53L56.87,116.44L57.82,140.38L57.94,141.72L58.06,142.07L58.18,141.75L58.3,145.24L58.66,151.53L59.13,150.81L59.25,151.11L59.84,146.99L59.96,145.63L60.67,141.35L60.79,138.9L61.27,139.28L61.62,120.52L61.74,98.65L61.86,86.03L62.34,106.57L62.45,108.62L63.05,134.82L63.4,126.86L63.52,124.18L63.64,120.71L64,128.28L64.12,127.89L64.24,126.18L64.35,124.31L64.59,130.55L64.71,132.42L64.83,132.61L64.95,131.54L65.07,128.92L65.19,127.04L65.42,131.13L65.54,133.75L66.85,149.78L66.97,149.45L67.44,140.25L67.56,136.95L68.51,124.31L68.63,125.98L68.75,130.69L68.87,133.97L69.34,127.63L69.46,128.06L70.53,101.11L70.65,91.58L72.19,29.27L72.31,36.88L72.43,27.7L72.9,39.27L73.02,38.83L73.14,36.87L73.73,47.99L73.85,56.19L74.09,66.6L74.45,56.3L74.57,46.27L74.8,31.85L75.04,59.26L75.16,64.57L75.99,33.7L76.11,37.6L76.23,43.37L76.35,46.17L76.58,38.22L76.7,29.83L76.94,25.14L77.18,35.55L77.3,43.92L77.53,56.81L77.89,50.25L78.01,31.72L78.37,19.71L78.84,20.44L78.96,22.3L79.91,45.35L80.03,49.95L81.57,149.1L81.69,147.43L82.16,61.57L82.76,67.09L82.88,73.74L83.59,112.76L83.83,110.39L83.95,99.17L84.54,34.88L84.78,40.41L84.9,45.8L85.61,101.7L85.96,98.02L86.08,85.55L86.2,72.08L86.44,107.98L86.68,92.08L86.8,107.26L87.39,138.93L87.63,118.42L87.75,92.09L87.98,53.15L88.46,84.69L88.58,91.06L88.81,83.85L88.93,97.47L89.05,106.29L89.64,123.69L89.76,107.14L89.88,96.33L90.95,128.89L91.07,147.11L91.19,151.17L91.43,138.32L91.54,135.18L91.78,133.62L91.9,130.14L92.02,128.45L92.14,135.31L92.26,139.83L92.38,137.92L92.73,143.74L92.85,146.41L92.97,147.61L93.09,145.42L93.21,139.92L95.23,38.63L95.34,43.37L95.46,52.18L96.77,93.52L96.89,97.4L97.6,149.43L98.08,144.57L98.19,141.72L98.91,90.74L99.26,101.94L99.38,104.29L101.04,148.78L101.16,148.63L101.28,148.53L101.4,148.8L101.52,149.54L101.76,149.6L101.87,148.99L101.99,146.3L102.47,112.08L102.82,130.39L102.94,132.22L103.06,132.13L103.18,128.75L103.42,119.35L103.89,128.58L104.01,127.34L104.37,114.06L104.49,100.21L104.61,96.63L104.96,103.01L105.08,105.59L105.56,122.05L105.91,117.01L106.03,115.09L106.15,114.27L106.27,116.4L106.39,120.82L106.51,122.81L106.74,116.34L106.86,110.75L107.81,61.18L108.17,67.06L108.29,67.41L108.52,73.54L108.64,79.91L108.88,90.28L109.35,85.12L109.47,71.9L109.59,69.81L109.71,77.73L109.83,89.11L109.95,89.91L110.07,75.08L110.42,54.44L110.9,60.73L111.02,58.42L111.73,17.81L111.97,28.37L112.09,33.87L112.44,17.16L112.92,23.18L113.04,22.44L114.1,59.53L114.34,52.16L114.46,43.78L115.05,43.89L115.53,19.56L115.65,17.81L115.89,21.77L116.12,13.4L116.24,14.88L116.48,9.81L117.07,10.36L117.19,11.46L117.79,43.46L117.9,37.05L118.02,24.94L118.26,18.56L118.62,26.77L118.74,24.71L118.85,29.96L119.45,59.82L119.57,76.15L119.68,82.18L120.04,64.71L120.28,76.15L120.4,72.84L120.52,72.37L120.63,66.15L120.99,44.22L121.35,69.81L121.47,73.54L121.58,64.29L122.06,84.1L122.18,85.64L122.42,87.12L122.53,90.39L122.89,96.39L123.01,100.7L123.13,101.34L123.25,100.86L123.37,117.38L124.32,151.07L124.43,146.18L124.91,125.42L125.27,135.37L125.38,135.93L125.74,143.09L125.86,145.43L126.22,144.75L127.05,151.13L127.17,149.6L127.28,143.96L128.95,100.3L129.06,113.34L129.3,140.1L129.78,125.29L129.9,115.52L130.49,62.74L130.85,65.14L130.96,64.13L131.32,75.35L131.44,85.08L132.63,144.76L132.75,143.42L132.86,140.97L133.46,118.28L133.81,125.34L133.93,131.04L134.17,137.2L134.41,131.84L134.53,124.34L134.65,115.52L135,142.6L135.12,143.95L135.24,143.44L135.48,145.56L135.6,144.03L135.71,138.51L136.19,84.33L136.55,105.51L136.66,112.49L137.85,149.55L138.09,148.33L138.21,148.04L138.45,145L138.56,135.06L139.75,68.76L139.87,66.58L140.34,47.5L140.46,75.79L140.58,107.14L141.06,69.81L141.18,71.19L141.29,81.1L141.65,80.45L142.84,143.46L142.96,143.15L143.08,140.97L143.43,145.41L144.03,130.72L144.14,132.95L144.26,136.04L144.86,151.82L145.21,149.15L145.33,146.2L146.04,100.41L146.16,111.94L146.28,129.86L146.4,132.4L146.52,120.72L146.64,114.42L148.3,59.12L148.54,61.09L148.66,58.25L148.77,57.22L148.89,60.45L149.01,81.65L149.25,76.63L149.49,88.82L149.72,84.33L149.84,79.5L149.96,78.13L150.08,63.02L150.67,50.94L150.79,56.68L150.91,61.4L151.86,90.26L151.98,79.5L152.1,77.82L152.34,70.17L152.69,81.39L152.81,80.87L153.41,53.38L153.64,66.6L153.76,75.16L155.07,135.84L155.42,133.45L155.54,131.33L156.49,114.01L156.61,115.99L156.97,126.61L157.32,117.01L157.44,115.33L158.39,143.56L158.51,146.37L158.63,147.48L158.75,144.25L158.87,139.36L159.22,128.33L159.46,136.29L159.58,141.72L160.05,150.99L160.41,146.06L160.53,147.19L160.65,147.46L160.77,142.54L161.12,131.69L161.24,128.38L161.72,101.09L162.07,118.78L162.19,125.1L163.62,151.33L163.74,151.43L163.97,151.62L164.09,151.41L164.21,150.31L164.57,137.93L164.69,127.57L165.87,28.67L165.99,34.06L166.11,60.76L166.23,70.12L166.35,36.59L166.47,26.82L167.3,20.53L167.42,22.25L167.54,25.33L168.96,82.16L169.08,66.57L169.2,43.22L169.32,37.93L169.43,49.47L169.55,63.47L169.91,81.83L170.15,56.71L170.27,58.99L170.74,69.27L170.86,75.87L171.81,107.02L171.93,93.84L172.05,83.23L172.17,79.02L172.52,87.53L172.64,93.87L172.76,101.24L173,75.78L173.12,64.58L173.71,41.86L174.07,43.81L174.18,41.54L174.42,69.13L174.78,45.52L174.9,28.43L175.13,21.51L175.37,28.93L175.49,38.1L176.2,54.13L176.32,52.17L176.44,47.79L176.92,37.25L177.15,48.72L177.27,42.87L177.39,44.93L177.51,53.15L177.63,43.4L177.75,12.21L178.58,8.02L178.7,8.05L179.17,20.7L179.29,23.01L179.53,15.92L179.76,25.68L179.88,33.12L180,38.22L180.36,27.7L180.48,16.15L180.6,14.37L180.83,17.56L181.07,16.71L181.19,20.17L182.5,144.99L182.73,117.28L182.85,92.86L183.45,60.21L183.8,68.32L183.92,73L184.04,82.78L184.4,53.15L184.51,49.97L184.63,46.88L184.87,57.47L184.99,59.12L185.11,59.54L185.23,58.24L185.58,58.7L185.7,62.58L185.82,65.62L185.94,52.56L186.06,38.23L186.3,26.19L186.89,26.81L187.01,30.47L187.25,29.58L187.6,31.69L187.72,36.68L188.31,47.11L188.55,40.4L188.67,35.28L188.79,37.57L188.91,27.38L189.03,17.69L189.14,15.91L189.5,18.12L189.62,21.29L190.33,86.03L190.57,64.58L190.69,57.58L191.04,43.94L191.16,37.04L191.76,11.21L192.23,18.95L192.35,17.71L193.06,9.01L193.42,11.26L193.54,13.2L194.01,39.78L194.13,66.6L194.37,92.18L194.61,61.28L194.73,12.63L195.08,8.11L195.44,13.79L195.56,12.68L196.03,8L196.27,9.01L196.39,11.22L196.86,33.07L197.1,25.71L197.22,19.28L197.69,13.5L198.05,17.15L198.17,19.49L198.52,38.08L198.76,21.41L198.88,16.77L199.12,13.84L199.36,19.78L199.47,26.02L200.31,113.12L200.66,100.66L200.78,94.18L202.44,14.19L202.56,17.56L202.92,33.54L203.04,41.48L203.87,17.13L203.99,17.42L205.06,36.82L205.17,35.55L205.29,32.28L205.89,47.29L206.01,36L206.12,23.73L207.07,8.66L207.19,8.73L208.02,29.37L208.14,35.29L208.74,56.18L209.09,50.68L209.21,36.01L210.16,9.36L210.28,8.87L210.64,8.36L210.87,9.1L210.99,9.53L211.7,15.14L211.94,14.22L212.06,12.24L212.54,17.79L212.65,23.99L213.01,55.01L213.6,48.72L213.72,50.18L214.08,58.5L214.2,51.77L214.32,41.32L214.55,71.49L214.67,36.45L214.79,23.75L215.15,15.19L215.5,21.84L215.62,27.04L215.86,50.52L216.45,44.47L216.57,49.95L217.29,75.79L217.4,54.04L217.52,43.88L218,65.61L218.12,70.73L218.47,93.79L218.95,81.77L219.07,84.47L220.25,146.82L220.61,141.88L220.73,139.37L221.56,114.67L221.8,122.4L221.92,129.32L222.98,150.91L223.1,150.94L224.41,139.47L224.53,141.02L224.65,142.6L225.36,129.91L225.48,124.13L225.95,135.31L226.31,85.52L226.55,94.08L226.67,100.47L226.9,106.65L227.14,90.4L227.26,86.65L227.62,88.76L227.85,84.21L227.97,78.3L228.33,67.53L228.56,75.17L228.68,106.26L228.8,134.25L229.16,100.73L229.4,106.42L229.51,105.43L229.75,107.14L229.99,102.23L230.11,104.59L230.23,108.73L231.77,146.56L231.89,141.72L232.01,138.96L233.43,104.33L233.55,94.11L233.67,92.33L233.79,105.24L234.86,151L234.98,147.81L235.69,64.01L235.93,81.81L236.05,100.11L236.28,115.4L236.76,104.45L236.88,102.68L237.71,19.64L238.18,25.52L238.3,34.79L239.61,119.26L239.73,124.34L239.96,130.16L240.44,125.11L240.56,116.83L241.39,71.61L241.63,85.23L241.74,92.57L242.58,110.04L242.69,115.57L243.64,136.65L243.76,136.61L244.12,134.98L244.24,135.73L244.36,137.94L245.19,147.96L245.54,146.13L245.66,144.88L245.9,147.56L246.02,142.75L246.14,140.71L247.09,95.02L247.21,86.62L247.68,76.56L248.04,80.47L248.16,86.06L248.63,120.95L248.87,89.61L248.99,89.91L249.58,115.25L249.82,106.22L249.94,93.19L250.06,86.92L250.53,95.45L250.65,102.39L251.84,150.32L252.31,148.91L252.43,148.98L252.91,144.93L253.14,146.42L253.26,148.1L253.62,151.27L253.97,148.73L254.09,146.81L254.33,144.11L254.57,150L254.69,151.73L255.28,137.87L255.4,129.94L255.87,36.8L256.47,49.09L256.59,55.6L257.3,86.12L257.42,76.8L257.54,71.51L258.13,82.4L258.25,84.33L258.49,72.92L258.6,54.88L258.84,40L259.32,52.63L259.44,60.54L260.39,134.23L260.86,128.88L260.98,130.54L261.1,130.44L261.22,127.38L261.69,69.26L261.81,90.32L261.93,107.3L262.17,87.82L262.4,115.01L262.52,124.9L263.35,151.27L263.47,149.34L263.59,146.71L264.54,120.21L264.66,94.74L264.78,79.98L265.14,112.43L265.25,125.12L265.37,125.94L265.49,121.09L266.09,85.23L266.32,90.4L266.44,105.23L266.68,127.79L266.92,69.94L267.04,51.24L268.93,151.05L269.05,149.67L269.17,148.1L269.77,127.07L269.88,130.83L270,138.34L270.48,146.85L270.72,141.07L270.83,137.49L271.67,127.08L271.78,112.34L273.09,47.41L273.21,55.36L274.16,94.03L274.28,111.7L274.4,134.25L275.11,128.65L275.23,131.23L275.35,132.49L275.58,127.4L275.7,118.28L276.06,102.5L276.3,124.01L276.42,135.87L276.77,148.55L277.25,144.36L277.36,144.04L277.72,148.87L278.31,147.36L278.43,142.89L278.91,103.47L279.38,118.26L279.5,125.62L280.21,149.03L280.57,144.97L280.69,143.1L281.28,114.46L281.4,87.52L281.88,48.36L282.23,69.58L282.35,76.15L283.18,113.73L283.54,108.24L283.66,106.29L284.01,106.83L284.25,85.1L284.37,69.42L284.85,60.02L285.08,66.09L285.2,71.28L286.51,103.08L286.75,100.91L286.86,96.41L287.22,51.47L287.69,66.63L287.81,69.64L287.93,71.57L288.29,68.01L288.41,68.82L288.53,87.33L288.88,109.55L289,123.15L289.36,130.45L289.71,127.97L289.83,123.87L290.19,77.23L290.66,87.44L290.78,93.6L292.21,142.41L292.33,141.86L292.44,139.41L293.04,72.49L293.39,88.31L293.51,91.61L293.63,89.42L293.87,91.69L293.99,96.95L294.23,103.14L294.58,85.07L294.94,88.77L295.06,89.91L295.53,100.28L295.65,97.06L295.77,82.71L295.89,83.48L296.01,91.18L297.08,117.01L297.19,128.2L297.67,76.15L298.26,79.02L298.38,76.63L298.86,42.88L299.33,47.54L299.45,47.59L299.57,47.22L299.69,48.35L299.81,51.72L300.87,138.9L300.99,139.36L301.11,138.85L301.23,133.99L301.71,70.73L302.06,90.33L302.18,97.6L302.89,133.25L303.01,121.41L303.13,102.86L303.61,107.92L304.08,77.34L304.2,52.29L304.44,32.58L304.91,38.33L305.03,44.23L305.51,50.8L305.62,75.3L305.74,92.85L306.1,39.4L306.22,38.46L306.69,43.64L306.93,43.47L307.05,38.87L307.17,31L307.64,34.94L307.76,41.54L308.47,82.52L308.59,100.91L308.83,62.58L309.3,91.42L309.42,94.73L309.54,94.6L309.66,93.24L309.9,77.12L310.02,65.67L310.49,48.53L310.85,58.57L310.97,55.19L311.09,53.57L311.2,55.3L311.32,78.89L311.56,116.94L312.04,90.55L312.15,95.8L312.51,104.05L312.63,99.33L312.75,83.33L313.1,63.31L313.58,70.14L313.7,72.72L313.94,69.81L314.05,67.05L314.41,118.13L314.89,93.85L315,98.17L315.12,100.78L315.48,92.42L315.6,77.14L316.31,44.53L316.55,51.77L316.67,53.55L316.9,50.8L317.02,74.49L317.14,107.3L317.5,46.56L317.62,49.09L317.73,50.7L317.85,50.39L317.97,47.79L318.57,21.28L318.92,35.12L319.04,34.32L319.75,55.44L319.87,69.43L320.11,51.19L320.23,59.11L320.35,70.73L320.82,96.43L320.94,82.46L321.06,61.06L321.3,53.29L321.65,61.35L321.77,53.99L321.89,58.51L322.96,125.34L323.55,119.52L323.67,115.31L324.15,93.84L324.27,56.84L324.5,27.26L324.74,71.97L324.86,110.65L324.98,126.57L325.33,87.4L325.45,79.5L325.57,85.86L325.81,70.27L326.17,83.1L326.28,81.48L326.4,81.35L326.52,83.86L326.88,108.04L327.23,92.36L327.35,93.93L327.47,101L327.95,90.97L328.06,88.13L328.18,88.44L328.3,91.25L328.78,96.42L329.25,64.45L329.37,66.15L329.49,66.05L329.96,109.07L330.44,93.1L330.56,92.09L330.91,90.23L331.15,98.22L331.27,115.91L331.39,126.13L331.75,103.92L331.86,95.94L332.46,59.74L332.81,70.84L332.93,72.37L333.05,69.55L333.29,78.3L333.41,83.98L334.95,136.31L335.43,134.57L335.55,131.74L336.02,114.58L336.14,109.93L336.5,96.4L336.85,103.09L336.97,122.07L337.09,132.87L337.44,96.89L337.56,85.3L338.16,55.25L338.28,67.07L338.39,87.23L339.11,100.16L339.23,94.73L339.34,92.26L339.58,97.81L339.82,87.26L339.94,86.11L340.65,115.64L341.01,110.74L341.13,106.67L341.36,87.48L341.6,104.17L341.72,120.87L342.08,143.58L342.43,131.69L342.55,129.14L343.5,144.89L343.62,145.24L344.33,148.67L344.45,150.75L344.57,150.95L344.69,147.24L345.4,101.44L345.52,114.14L345.64,132.86L346.47,77.34L346.82,85.54L346.94,83.37L347.42,77.78L347.54,81.96L347.66,88.7L348.84,107.32L348.96,107.41L349.56,89.68L349.67,93.74L349.79,104.8L350.39,139.74L350.62,125.93L350.74,110.04L351.22,118.76L351.57,76.69L351.69,76.75L351.81,79.02L352.41,59.9L352.52,63.6L352.64,85.36L352.88,114.82L353.36,91.61L353.47,91.08L353.71,102.92L353.83,112.36L354.42,98.08L354.66,108.38L354.78,111.62L355.14,107.14L355.37,110.11L355.49,116.36L355.61,118.05L355.73,116.3L355.85,110.77L356.32,97.64L356.68,105.22L356.8,115.22L357.04,135.55L357.51,121.17L357.63,117.33L358.58,97.26L358.7,104L358.82,112.52L359.41,111.78L360.24,147.62L360.36,147.72L360.72,147.13L360.84,147.88L360.95,148.53L361.19,150.19L361.31,145.16L361.79,54.53L362.26,66.65L362.38,76.15L362.85,128.16L363.21,105.2L363.33,97.23L363.8,100.23L364.75,41.6L364.87,51.19L365.47,126.99L365.82,98.97L365.94,85.83L367.13,24.71L367.25,28.87L368.32,100.21L368.43,91.29L368.55,82.45L369.03,75.9L369.15,78.09L369.27,85.04L370.1,150.51L370.33,133.93L370.45,111.95L370.93,72.78L371.17,87.48L371.28,97.06L371.88,25.06L372.12,35.66L372.23,51.77L372.71,93.65L372.95,58.63L373.07,45.8L373.42,42.77L373.66,48.06L373.78,54.35L374.37,64.1L374.49,53.44L374.61,49.1L375.44,74.49L375.56,68.85L375.68,63.44L375.92,61.37L376.15,65.64L376.27,68.68L376.51,56.81L376.75,73.41L376.86,94.74L376.98,74.02L377.58,82.63L377.7,83.87L378.53,52.14L378.76,58.7L378.88,66.31L379.71,123.98L379.83,106.38L379.95,82.96L381.02,51.19L381.14,58.3L382.56,128.04L382.68,121.47L382.8,102.9L382.92,92.09L383.51,97.71L383.63,100.91L385.18,128.49L385.3,137.19L386.13,144.4L386.25,143.46L386.72,143.72L387.08,126.96L387.19,118.83L387.91,96.89L388.14,106.08L388.26,123.22L388.5,94.51L388.98,110.71L389.09,115.91L389.45,125.96L389.69,117.1L389.81,100.67L390.16,75.47L390.52,103.34L390.64,109.69L391.11,144.52L391.35,131.36L391.47,126.44L391.71,125.48L391.83,126.54L391.94,129.92L392.54,140.96L392.66,139.42L392.78,132.95L393.13,115.85L393.61,120.23L393.73,120.15L394.68,146.91L394.79,145.61L395.39,115.69L395.51,100.91L395.63,93.09L395.98,114L396.1,125.62L396.57,120.72L396.81,131.19L396.93,130.08L397.05,125.38L397.52,132.32L397.88,108.72L398,94.53L399.07,22.84L399.19,20.88L400.14,40.41L400.26,51.77L400.49,58.59L400.85,51.14L400.97,53.55L401.09,53.54L401.32,48.35L401.68,55.02L401.8,56.1L401.92,55.21L402.04,58.06L402.16,59.55L402.39,76.94L402.99,74.99L403.11,75.09L403.46,72.37L403.7,75.27L403.82,78.14L405.24,144.74L405.36,150.16L406.79,138.94L406.9,130.27L407.14,121.24L407.5,128.29L407.62,132.13L408.92,152L409.04,151.61L409.52,143.37L409.64,139.71L409.75,137.16L410.11,145.3L410.23,147.79L411.06,151.51L411.18,151.4L411.3,150.96L411.89,142.39L412.01,139.81L412.6,121.07L412.72,124.77L412.84,132.86L412.96,133.51L413.08,129.24L413.32,127.19L413.67,129.65L413.79,135.58L414.03,145.91L414.5,139.73L414.62,137.53L415.45,126.26L415.57,131.59L415.69,136.36L415.81,135.74L415.93,130.18L416.4,110.42L416.64,115.21L416.76,134.26L417,131.93L417.35,135.04L417.47,137.69L417.83,144.88L418.3,141.35L418.42,141.57L418.54,142.58L418.66,141.71L418.78,137.92L420.56,84.33L420.68,87.13L420.8,94.74L421.39,125.52L421.75,119.61L421.87,115.94L421.98,113.52L422.22,119.67L422.34,126.02L423.05,97.36L423.29,106.21L423.41,114.42L424.6,140.53L424.72,144.19L425.55,151.72L425.67,151.45L425.78,150.97L426.61,136.72L426.73,133.48L426.85,133.21L426.97,137.63L427.09,138.71L427.21,136.1L427.33,130.98L427.8,121.11L428.04,128.29L428.16,141.82L429.35,148.85L429.46,149.24L429.82,151.09L430.06,149.57L430.18,146.85L430.53,137.47L430.89,146.11L431.01,150.57L431.36,149.56L431.84,151.75L431.96,151.71L433.03,149.45L433.15,148.19L434.21,129.7L434.33,126.75L434.69,128.28L434.81,127.05L434.93,123.89L435.52,82.16L435.64,73.35L435.88,62.44L436.23,79.02L436.35,82.02L436.59,105.13L436.71,131.56L436.83,139.62L437.54,138.86L437.66,141.31L438.01,146.48L438.25,138.5L438.37,129.17L438.84,118L439.08,120.74L439.2,129.53L439.56,148.99L439.91,135.32L440.03,129.81L441.46,55.06L441.81,60.95L441.93,65.68L442.29,114.32L442.41,141.73L442.53,149.23L443,135.77L443.12,127.28L444.31,36L444.54,55.12L444.66,85.55L444.78,88.74L444.9,61.06L445.14,28.45L445.61,61.3L445.73,74.67L446.09,100.73L446.32,76.02L446.44,63.63L446.56,64.68L446.68,84.14L447.51,148L447.63,143.77L447.75,128.76L448.82,73.54L448.94,74.49L449.06,76.79L449.65,102.58L449.77,121.18L450.01,23.36L450.6,69.74L450.72,64.69L451.07,58.21L451.55,75.04L451.67,85.24L452.62,149.22L452.97,139.9L453.09,134.78L454.16,79.74L454.28,83.34L454.4,94.25L454.99,144.45L455.35,127.1L455.47,137.86L455.94,145.23L456.18,139.35L456.3,135.77L456.42,133.02L456.54,137.54L456.65,145.61L457.13,151.55L457.6,150.68L457.72,145.66L458.55,94.95L458.79,106.69L458.91,113.85L459.03,114.33L459.15,103.04L459.27,97.54L459.39,110.34L459.5,123.32L459.86,147.67L460.34,143.07L460.45,143.89L460.81,143.38L460.93,133.66L461.17,104.19L461.76,121.31L461.88,123.32L462.24,130L462.35,120.22L463.19,57.8L463.3,65.02L463.42,77.07L464.49,148.25L464.61,147.53L464.73,146.2L465.56,143.93L465.68,144.07L465.8,145.48L466.15,150.28L466.39,144.18L466.51,139.99L467.34,97.64L467.46,90.31L467.82,64.06L467.93,77.34L468.05,112.32L468.17,118.75L468.29,66.88L468.53,47.79L468.77,93.73L468.88,111.15L469.12,141.87L469.48,122.06L469.6,86.65L469.72,57.79L470.19,108.01L470.43,61.05L470.55,53.58L470.67,53.15L470.78,65.71L470.9,93.26L471.26,43.28L471.5,64.12L471.62,81L472.09,75.89L472.57,146.32L472.68,138.23L472.8,108.77L472.92,79.98L473.52,112.64L473.63,114.47L474.58,143.61L474.94,139.9L475.06,139.26L475.42,136.16L475.53,137.82L475.65,139.05L475.89,139.93L476.13,137.83L476.25,135.07L476.6,141.33L477.2,125.98L477.31,125.77L477.55,123.67L477.67,120.89L478.15,100.2L478.26,83.85L478.62,64.58L478.98,77.51L479.1,78.5L479.21,80.46L479.33,105.22L480.16,139.96L480.28,145.06L480.76,151.57L481,149.31L481.11,144.51L481.95,86.41L482.18,108.88L482.3,131.65L482.78,144.21L483.13,139.65L483.25,140.99L484.2,146.65L484.32,145.24L484.91,60.55L485.03,80.46L485.15,108.8L485.51,145.85L486.1,139.56L486.22,138.42L486.46,139.26L486.58,142.49L486.93,147.46L487.17,142.73L487.29,139.29L487.53,134.83L487.76,138.19L487.88,144.05L488.12,149.05L488.71,147.96L488.83,146.95L489.66,139.25L489.78,132.99L490.61,110.04L490.73,112.81L490.85,120.71L491.44,59.54L491.8,87.39L491.92,99.26L492.16,108.74L492.51,93.86L492.63,95.45L493.11,111.13L493.34,104.65L493.46,101.45L493.7,115.48L493.94,94.34L494.06,89.42L494.41,74.02L494.77,86.52L494.89,91.16L495.13,99.04L495.24,96.41L495.36,81.89L495.72,66.15L496.19,69.89L496.31,74L496.55,118.46L497.02,66.96L497.14,70.73L497.62,89.91L497.86,79.98L497.97,75.01L498.69,44.22L498.92,48.34L499.04,53.39L500.47,149.02L500.59,148.83L500.71,147.33L500.94,139.62L501.06,127.88L501.42,105.1L501.77,126.81L501.89,135.45L502.61,151.52L502.84,150.03L502.96,148.29L504.39,119.01L504.51,107.03L504.74,82.99L505.1,124.12L505.22,128.84L505.34,131.04L505.57,123.8L505.69,118.47L506.76,41.21L507.12,54.2L507.24,62.08L508.19,143.69L508.78,141.52L508.9,138.98L509.49,107.74L509.61,89.43L509.97,64.13L510.44,68.2L510.56,73.54L511.15,131.58L511.51,125.62L511.63,123.56L512.22,94.25L512.34,81.46L513.05,57.41L513.29,67.52L513.41,76.33L513.77,141.38L514.24,119.71L514.36,114.36L514.95,104.45L515.07,112.08L515.19,124.32L515.31,124.93L515.43,106.36L515.78,60.95L516.14,84.33L516.26,95.94L516.5,136.27L516.85,94.56L516.97,74.81L517.09,76.05L517.21,89.38L517.8,106.31L517.92,100.6L518.04,86.52L518.16,86.03L518.28,99.27L519.23,136.22L519.35,135.97L519.58,140.22L519.94,132.43L520.06,128.78L520.89,99.24L521.01,76.15L521.25,52.76L521.72,61.47L521.84,66.17L522.79,141.72L523.15,137.2L523.27,135.42L523.62,123.15L523.74,104.65L524.22,52.98L524.57,76.06L524.69,80.09L525.76,150.77L526.23,146.74L526.35,143.97L526.95,100.09L527.06,106.79L527.18,119.46L527.54,150.7L528.01,140.73L528.13,132.59L528.96,88.1L529.2,96.6L529.32,106.38L529.91,151.16L530.27,132.15L530.39,118.48L530.86,132.54L531.81,57.23L531.93,59.55L532.17,78.35L532.53,50.56L532.65,52.42L533.71,139.83L533.95,130.44L534.07,119.34L534.66,67.05L535.02,87.58L535.14,99.39L535.49,92.69L535.61,100L536.56,146.45L536.8,134.37L536.92,124.58L538.23,81.86L538.34,85.07L538.46,86.78L539.18,133.89L539.29,140.62L540.13,124.83L540.24,119.31L541.19,73.3L541.43,82.28L541.55,92.57L542.14,145.6L542.74,144.53L542.86,145.49L543.09,143.33L543.21,140.99L543.81,126.21L544.04,132.41L544.16,135.27L544.28,136.27L544.52,132.82L544.64,129.27L544.76,130.32L544.87,140.17L545.11,150.4L545.47,135.23L545.59,124.31L545.71,117.58L546.3,125.54L546.42,130.96L546.66,139.06L547.01,124.49L547.13,116.09L547.61,98.56L547.72,108.82L547.84,128.68L547.96,136.78L548.32,120.72L548.44,107.14L548.67,96.43L548.91,109.75L549.03,120.3L549.39,141.34L549.62,113.88L549.74,88.7L550.1,66.6L550.46,89.36L550.57,90.44L551.64,68.23L551.88,75.53L552,80.77L552.95,108.47L553.07,113.46L553.66,132.88L554.14,128.62L554.26,130.08L554.49,131.37L554.61,130.26L554.73,127.14L555.32,93.79L555.44,86.03L555.56,85.24L555.68,90.41L556.63,126.35L556.75,135.15L557.22,145.43L557.58,140.48L557.7,137.86L557.94,126.61L558.05,108.05L558.29,67.13L558.77,90.8L558.89,102.1L559.24,139.89L559.72,122.03L559.84,120.1L559.95,119.89L560.07,121.76L560.55,129.29L560.79,122.67L560.9,118.49L561.14,116.89L561.26,118.93L561.38,122.46L562.21,151.93L562.57,145.24L562.69,141.77L563.75,109.22L563.87,93.95L563.99,89.43L564.23,103.71L564.35,110.67L565.06,150.45L565.42,137.22L565.53,131.79L565.89,121L566.37,123.72L566.48,123.58L566.84,138.29L567.2,129.41L567.32,122.52L567.55,114.6L567.79,138.77L567.91,143.57L568.5,125.92L568.62,117.06L568.86,112.21L569.22,121.04L569.33,117.88L569.45,114.26L570.17,128.77L570.4,124.36L570.52,121.51L570.76,137.59L571.23,119.95L571.35,112.63L572.18,53.15L572.54,66.6L572.66,70.73L573.73,142.34L573.97,129.66L574.08,114.4L574.32,96.92L574.8,113.37L574.91,122.22L576.1,151.06L576.22,151.03L576.34,150.94L576.46,150.55L576.58,144.05L577.29,127.86L577.53,129.4L577.65,129.94L577.76,130.14L577.88,128.45L578.36,123.39L578.6,127.16L578.71,129.99L579.31,147.03L579.9,146.04L580.02,146.33L580.38,145.66L580.5,144.14L581.8,104.1L581.92,105.45L582.04,129.88L582.87,144.37L582.99,145.81L583.11,145.99L583.23,145.46L583.35,144.23L583.7,130.51L583.94,138.74L584.06,141.51L585.01,149.22L585.13,146.72L585.24,139.6L586.43,115.62L586.55,119.19L586.67,128.28L587.14,148.66L587.62,145.24L587.74,148.33L587.98,151.52L588.57,150.56L588.69,149.92L589.4,150.44L589.64,145.23L589.76,145.23L589.88,144.47L590.11,146.44L590.23,147.44L590.47,141.33L590.94,148L591.06,146.43L591.66,147.62L592.25,124.23L592.37,127.75L592.49,136.8L593.32,149.27L593.44,149.22L593.56,148.58L594.74,128.29L594.86,117.07L595.93,77.33L596.05,81.19L597.47,141.47L597.83,136.68L597.95,134.22L598.54,138.3L598.66,137.5L598.78,136.05L598.9,134.28L599.02,137.06L599.14,143.74L599.26,144.75L599.49,140.82L599.61,137.71L600.56,129.68L600.68,130.51L600.8,132.42L601.04,125.65L601.16,107L601.39,64.63L601.87,100.22L601.99,100.75L602.11,99.27L602.22,113.55L602.58,135.65L603.17,134.26L603.29,136.61L603.65,147.24L604.01,140.91L604.12,138.87L604.6,134.54L604.72,136.45L604.84,144.25L604.95,148.5L605.43,141.91L605.55,142.35L605.79,144.33L605.9,140.41L606.02,135.64L606.14,139.97L606.5,127.9L606.62,127.31L607.09,127.61L607.33,120.09L607.45,137.24L607.69,150.91L608.28,145.91L608.4,141.89L608.99,102.63L609.23,121L609.35,129.46L609.7,146.53L610.06,128.85L610.18,116.99L610.3,109.99L610.54,128.52L611.01,111L611.13,107.34L611.49,103.19L611.72,108.16L611.84,112.67L612.08,112.3L612.55,137.83L612.67,145.02L613.27,151.81L613.5,151.41L613.62,150.76L614.33,148.14L614.57,148.93L614.69,149.55L614.93,150.22L615.05,149.19L615.17,145.38L615.88,94.94L616.23,107.9L616.35,116.72L616.71,117.95L616.95,107.54L617.18,113.16L617.3,114.91L617.66,132.93L617.78,139.61L617.9,141.63L618.02,137.93L618.13,130.38L618.49,108.58L618.97,116.13L619.08,127.21L619.2,137.58L619.68,125.63L619.8,123.45L620.15,113.63L620.39,125.47L620.51,133.6L620.87,149.36L621.1,141.36L621.22,129.85L621.58,89.97L621.93,130.47L622.05,137.93L622.29,140.85L622.41,143.68L623.72,95.94L623.95,102.25L624.07,104.43L624.66,126.04L624.78,141.9L625.02,147.2L625.26,141.46L625.38,134.98L625.5,130.32L625.97,138.8L626.09,141L626.45,151L626.68,147.02L626.8,140.26L627.4,87.87L627.63,121.4L627.75,135.07L627.99,115.34L628.46,126.1L628.58,126.09L628.7,127.18L629.06,125.77L629.18,115.27L629.41,85.26L629.77,125.5L629.89,138.61L630.01,143.72L630.13,124.44L630.25,101.3L630.48,78.35L630.6,41.87L630.72,44.23L630.84,68.2L631.08,100.41L631.55,75.01L631.67,74.79L632.98,133.79L633.1,142.8L633.45,147.89L633.69,140.25L633.81,142.58L633.93,144.58L634.52,121.03L634.64,127.94L634.76,146.27L634.88,143.47L634.99,87.03L635.23,56.18L635.59,89.91L635.71,97.17L636.78,149.85L636.89,150.58L637.13,151.46L637.37,149.96L637.49,142.84L637.61,143.99L637.73,133.36L638.2,83.55L638.56,98.55L638.68,104.04L639.03,128.65L639.27,110.32L639.39,106.44L639.63,99.51L640.1,107.09L640.22,111.95L640.69,133.97L640.93,124.09L641.05,112.57L641.53,95.45L641.76,112.88L641.88,134.85L642,141.73L642.36,125.76L642.48,120.42L642.71,113.65L642.95,120.21L643.07,127.84L643.54,149.12L643.78,134.15L643.9,119.44L644.49,72.25L644.73,103.32L644.85,127.55L644.97,133.04L645.32,117.74L645.44,104.47L646.39,69.42L646.51,69.2L646.75,61.06L647.11,71.85L647.22,80.47L647.7,122.48L648.29,122.31L648.41,127.42L649.12,151.69L649.24,146.87L649.36,127.01L649.84,72L650.19,92.09L650.31,94.26L650.67,119.82L651.02,108.69L651.14,103.45L651.38,88.06L651.62,117.7L651.74,120.25L651.86,125.64L652.21,118.89L652.33,111.52L652.57,89.07L653.16,93.3L653.28,104.15L653.4,126.08L653.75,79.5L653.87,82.16L653.99,85.55L654.47,98.25L654.59,109.87L654.94,98.08L655.3,135.37L655.42,105.53L655.77,90.84L656.01,116.09L656.13,136.5L656.25,146.93L656.6,120.24L656.72,121.43L657.79,141.96L657.91,142.88L658.03,143.58L658.15,143.17L658.27,140.21L658.39,138.69L658.62,143.51L658.74,146.29L659.1,148.63L659.57,148.11L659.69,145.29L660.4,71.68L660.64,102.01L660.76,109.63L660.88,103.82L661.35,115.91L661.47,117.85L661.59,118.16L661.71,125.63L661.95,148.44L662.54,140.45L662.66,138.33L663.61,113.11L663.73,99.08L664.56,70.73L664.68,97.07L664.92,68.66L665.63,129.44L665.75,133.97L665.98,137.24L666.34,132.71L666.46,131.82L666.7,136.61L666.82,141.06L666.93,143.08L667.17,134.1L667.29,124.88L667.65,136.63L667.88,114.76L668,118.66L668.12,121.42L668.24,122.68L668.6,119.18L668.72,117.42L669.07,105.32L669.19,99.93L669.78,74.02L670.14,84.96L670.26,91.31L671.21,139.76L671.33,140.95L671.68,138.55L671.8,136.25L671.92,135.78L672.04,138.59L672.52,150.91L672.99,149.29L673.11,149.22L673.47,151.47L673.82,150.42L673.94,149.84L674.89,141.87L675.13,143.65L675.25,144.6L675.48,147.44L675.84,142.61L675.96,140.79L676.91,147.23L677.03,147.51L677.26,146.13L677.38,144.23L677.62,141.46L677.98,147.18L678.1,146.39L678.81,142.6L678.93,143.3L679.05,146.96L679.4,144.24L679.64,147.48L679.76,148.18L680.11,149.09L680.23,148L680.35,143.4L680.95,95.94L681.3,116.49L681.42,121.18L681.78,125.44L681.9,138.36L682.61,151.21L682.85,149.94L682.96,149.46L683.56,139.85L683.68,137.89L684.27,114.46L684.51,122.51L684.63,127.96L684.86,144.82L685.46,140.65L685.58,141.72L685.69,142.26L685.81,141.88L685.93,139.34L686.64,114.84L686.88,118.95L687,124.42L687.59,151.28L687.95,143.16L688.07,143.95L688.54,149.19L688.78,146.1L688.9,141.62L689.26,132.52L689.73,136.98L689.85,134.03L690.21,115.65L690.44,139.98L690.68,125.89L690.8,127.91L691.51,141.72L691.63,139.04L691.75,131.47L692.34,78.63L692.82,83.1L692.94,85.49L693.06,87.73L693.18,105.09L693.29,127.23L693.77,95.92L693.89,91.19L694.01,90.4L694.12,92.59L694.24,98.52L694.36,100.75L694.48,97.36L694.6,87.05L694.72,75.21L695.19,94.73L695.31,97.83L695.67,92.32L695.91,94.72L696.02,100.91L696.62,125.02L696.97,119.81L697.09,118.97L697.45,114.67L697.69,117.3L697.81,122.49L698.52,151.62L698.87,147.76L698.99,148.98L699.11,149.57L699.35,147.39L699.47,146.47L699.94,140.66L700.18,142.48L700.3,145.51L700.54,149.53L700.77,143.84L700.89,137.17L701.72,126.19L701.84,140.37L701.96,141.26L702.08,133.36L702.44,137.35L702.79,134.32L702.91,133.34L703.5,127.82L703.62,124.08L704.45,79.02L704.57,96.42L704.69,104.83L705.05,95.45L705.4,102.57L705.52,108.42L705.76,107.36L706,114.87L706.12,109.99L706.24,98.55L706.71,84.41L707.07,90.39L707.19,91.58L707.78,116.78L707.9,124.35L708.73,138.05L708.85,135.8L708.97,132.42L709.32,130.31L709.44,132.01L709.56,135.61L710.04,147.48L710.51,146.57L710.63,145.29L710.75,145.82L710.87,145.34L710.99,143.36L711.82,128.76L711.94,131.23L712.05,135.62L712.65,145.67L712.89,141.24L713,135.15L713.12,132.41L713.24,139.7L713.48,139.68L713.6,139.72L714.07,146L714.19,142.61L714.31,136.69L715.97,79.5L716.09,79.14L716.45,58.7L716.8,81.19L716.92,87.79L717.99,146.47L718.47,143.59L718.58,142.59L718.82,141.72L718.94,142.74L719.06,139.23L720.01,151.9L720.13,150.53L720.25,145.05L720.6,126.38L721.08,132.34L721.2,134.46L722.15,151.54L722.38,147.9L722.5,144.41L723.81,89.47L724.05,103.85L724.16,103.59L724.4,95.51L724.52,96.41L724.64,116.31L724.76,119.98L724.88,113.93L725.35,115.86L725.47,115.64L725.71,115.02L725.83,115.65L725.95,117.12L726.54,141.5L726.9,130.94L727.01,126.89L727.37,121.02L727.49,135.52L727.61,139.03L727.85,126.11L727.96,125.55L728.2,128.29L728.56,125.21L728.68,121.32L729.03,101.75L729.63,102.03L729.75,99.13L729.86,96.38L730.1,100.04L730.22,106.21L731.17,147.02L731.29,145.98L731.41,146.24L731.65,139.48L731.76,131.21L732.48,90.46L732.83,106.9L732.95,110.99L733.54,143.86L733.78,136.29L733.9,130.01L734.61,105.46L734.73,110.26L734.85,122.43L735.09,130.81L735.44,122.01L735.56,122.36L735.68,125.04L736.28,146.78L736.51,132.71L736.63,123.08L737.34,90.01L737.58,105.61L737.7,112.6L738.06,123.17L738.29,111.2L738.41,107.27L738.53,107.14L738.65,110.05L738.89,130.32L739.24,106.75L739.36,102.15L740.19,55.32L740.43,60.91L740.55,64.13L740.91,70.48L741.03,79.7L742.21,142.6L742.33,140.45L744.11,81.8L744.35,91.61L744.47,99.52L745.06,129.42L745.3,126.66L745.42,128.9L745.54,131.56L745.77,122.69L745.89,114.49L746.37,78.3L746.72,86.04L746.84,91.38L747.56,131.98L748.15,131.59L748.27,132.13L748.86,112.83L748.98,106.04L749.69,55.3L750.05,61.52L750.17,69.75L750.41,121.39L750.88,95.12L751,94.05L751.47,89.43L751.59,77.34L751.95,58.51L752.31,70.27L752.42,74.02L753.02,106.02L753.14,129.14L753.97,139.73L754.09,140.91L754.32,129.53L754.44,109.19L754.8,85.03L755.15,114.52L755.27,126.34L755.51,136.31L755.75,107.19L755.87,87.72L756.22,40.08L756.7,70.73L756.82,82.79L757.41,127.8L757.77,117.42L757.89,110.11L758.24,104.27L758.36,107.14L758.48,118.12L758.95,151.21L759.43,142.64L759.55,140.54L760.14,120.35L760.26,105.09L761.21,65.02L761.33,66.41L761.45,66.6L761.57,68.66L761.8,89.7L762.16,67.06L762.28,67.09L762.52,66.81L762.64,69.2L762.75,79.02L763.11,107.16L763.47,82.05L763.58,76.05L763.7,75.72L763.82,80.68L764.65,123.59L764.89,106.19L765.01,97.89L765.37,87.46L765.48,92.5L765.6,110.04L765.72,114.21L765.84,104.74L765.96,93.64L766.91,78.48L767.03,80.36L767.15,80.85L767.27,79.16L767.38,85.55L767.62,110.55L767.86,65.7L767.98,54.95L768.1,53.95L768.22,59.39L769.17,110.51L769.52,107.94L769.64,100.82L770.71,37.82L771.18,45.56L771.3,54.8L771.78,77.34L772.13,69.81L772.25,67.09L772.73,78.3L772.85,81.7L772.96,82.62L773.08,98.08L773.2,104.9L773.32,71.33L773.44,61.5L775.46,8.48L775.58,9.37L775.7,10.47L776.29,13.09L776.41,15.73L777,36.16L777.12,56.19L777.71,96.01L777.95,84.1L778.07,80.09L778.55,58.82L778.66,60.23L778.78,77.56L778.9,100.81L779.26,54.52L779.38,56.2L779.5,63.64L780.09,102.46L780.33,82.46L780.45,85.54L781.04,68.66L781.28,69.7L781.4,68.6L781.51,67.74L781.63,71.9L781.75,68.65L781.87,51.89L782.46,43.98L782.58,47.42L782.7,61.47L782.82,80.46L783.41,74.02L783.53,70.18L783.65,69.13L783.89,72.84L784.01,78.3L784.36,77.46L784.48,87.53L784.6,65.02L784.72,56.18L785.08,83.85L785.19,93.4L786.26,136.23L786.38,132.54L786.5,125.02L787.33,109.15L787.45,117.5L788.88,40.32L788.99,38.67L789.23,41.53L789.47,35.32L789.59,35.98L789.71,31.71L789.94,28.67L790.06,29.74L790.18,35.34L790.42,31.68L790.54,40.4L792.2,120.42L792.32,119.09L792.44,113.8L792.79,130.89L792.91,133.22L793.03,134.75L793.15,125.64L793.98,98.91L794.1,93.9L794.81,68.67L794.93,69.36L795.05,74.49L796.24,149.05L796.36,151.7L796.71,149.83L796.83,149.46L797.07,150.06L797.19,147.44L798.26,66.6L798.61,86.03L798.73,90.4L798.85,88.69L798.97,74.16L799.44,47.85L799.8,63.47L799.92,56.7L800.04,50.73L800.27,68.2L800.39,81.47L800.51,82.47L800.63,77.98L800.75,74.64L800.87,72.96L800.99,77.11L801.11,81.4L801.82,143.33L802.06,126.18L802.17,110.27L803,24.91L803.36,33.83L803.48,37.41L804.07,70.81L804.43,64.39L804.55,43.88L804.79,16.2L805.26,29.16L805.38,35.01L805.62,60.66L806.21,58.48L806.33,58.6L806.45,58.23L806.57,60.08L806.69,65.02L807.4,118.11L807.52,114.59L807.64,85.8L807.99,86.76L808.11,90.52L808.35,108.53L808.59,93.83L808.7,74.02L809.54,45.54L809.65,45.64L809.77,46.51L810.01,45.49L810.13,55.56L810.37,100.21L810.96,91.01L811.08,107.14L811.2,108.61L811.32,90.39L811.55,62.14L812.15,65.01L812.27,59.55L812.38,58.97L812.5,61.59L812.62,69.73L813.33,140.5L813.81,128.86L813.93,123.33L814.28,59.12L814.76,74.96L814.88,78.99L815.23,74.49L815.35,72.58L815.59,80.4L815.71,91.07L816.07,149.15L816.66,138.84L816.78,131.91L817.25,105.09L817.61,117.92L817.73,117.28L818.08,104.12L818.32,111.85L818.44,118.78L818.68,118.39L818.92,133.04L819.03,127.75L819.15,121.58L819.27,120.14L819.39,125.97L819.51,135.86L819.75,146.62L819.98,134.59L820.1,81.97L820.34,30.23L820.93,39.92L821.05,41.87L821.29,52.78L821.41,62.15L821.88,54.1L822.6,104.26L822.71,100.78L823.19,58.38L823.66,74.02L823.78,80.24L823.9,82.78L824.02,78.36L824.14,70.95L824.26,66.11L824.38,72.32L824.5,102.9L825.33,138.67L825.45,138.58L827.11,77.34L827.23,79.23L827.35,98.46L827.46,106.06L827.82,83.04L827.94,74.02L828.06,74.49L828.18,82.83L829.13,135.9L829.36,114.28L829.48,115.65L830.31,135.47L830.43,134.16L831.26,81.99L831.38,63.21L832.57,121.86L832.69,119.4L832.81,116.94L832.93,116.01L833.04,122.14L833.28,126.49L833.64,118.72L833.76,112.12L833.99,94.25L834.11,72.84L834.23,64.17L834.71,74.98L834.83,76.34L836.01,150.66L836.25,141.72L836.37,133.86L836.49,134.02L836.61,139.4L836.73,142.22L836.84,137.51L836.96,123.99L837.91,92.08L838.03,88.91L838.98,150.43L839.1,146.11L839.22,137.82L840.29,118.87L840.41,113.9L840.76,97.96L841.24,102.43L841.36,104.25L842.19,127.37L842.42,117.28L842.54,106.7L842.78,59.98L843.26,100.21L843.37,103.64L844.21,144.04L844.68,140.39L844.8,132.78L845.27,136.14L845.51,122.53L845.63,126.85L845.75,132.61L846.11,131.03L846.22,121.56L846.94,75.88L847.17,99.26L847.29,118.7L848.01,132.41L848.12,137.35L848.48,151.41L848.72,146.54L848.84,131.37L849.07,90.58L849.55,123.71L849.67,120.21L849.79,114.12L850.02,129.67L850.14,137.93L850.26,140.47L850.62,132.92L850.74,129.61L851.09,116.99L851.21,92.57L852.16,44.57L852.28,44.68L852.4,43.87L852.52,45.19L852.64,47.89L852.99,102.18L853.11,67.05L853.23,59.12L853.59,77.34L853.7,88.74L854.77,117.37L854.89,112.68L855.01,111.63L856.2,138.52L856.44,137.18L856.55,133.86L857.03,97.54L857.5,106.93L857.62,109.28L858.69,121.55L858.81,113.25L859.17,121.47L859.4,117.5L859.52,111.68L860.47,74.51L860.59,76.01L860.71,79.98L861.42,100.36L861.78,90.72L861.9,94.19L862.02,95.3L862.25,93.38L862.37,87.86L863.44,61.11L863.56,60.71L864.15,69.42L864.27,103.5L864.39,104.6L864.51,94.74L864.98,105.09L865.22,96.42L865.34,77.51L865.58,63.99L865.93,76.15L866.05,83.36L866.41,120.17L866.88,115.65L867,112.34L867.83,122.22L867.95,114.14L868.67,67.11L869.14,67.24L869.26,61.63L869.38,61.05L869.5,65.96L869.73,34.32L870.21,54.18L870.33,56.19L870.57,50.24L870.68,55.93L870.8,74.02L871.28,53.85L871.4,59.12L871.52,69.81L872.94,129.41L873.06,127.52L873.18,115.85L873.41,87.83L873.77,108.46L873.89,125.53L874.01,141.19L874.25,75.9L874.36,69.9L874.96,37.14L875.31,44.8L875.43,46.86L875.55,47.43L875.67,71.9L875.79,77.72L875.91,61.89L876.15,67.76L876.26,55.63L876.38,54.93L876.5,48.7L876.62,37.26L876.98,66.19L877.1,66.15L877.33,57.9L877.57,71.4L877.69,81.11L878.76,112.67L878.88,116.3L879.35,133.72L879.59,117.11L879.71,111.05L879.83,110.3L879.95,111.75L880.06,114.12L881.49,135.58L881.61,132.12L883.03,85.45L883.15,88.31L884.1,106.79L884.22,115.65L884.34,127.53L884.58,91.37L884.69,86.51L885.17,100.04L885.29,91.2L885.41,89.48L885.53,90.4L885.64,100.21L886.12,150.81L886.48,131.7L886.59,117.05L886.95,98.02L887.31,115.26L887.43,121.2L888.14,147.9L888.38,142.57L888.49,132.41L889.68,91.31L889.8,92.06L889.92,91.57L890.04,99.11L891.11,140.36L891.34,136.04L891.46,127.69L891.94,98.31L892.17,124.27L892.29,130.91L893.01,136.32L893.12,129.94L893.24,126.95L893.48,134.78L893.6,138.23L893.96,145.47L894.19,141L894.31,131.74L894.43,130.45L894.55,138.96L895.02,144.03L895.14,143.5L895.26,132.61L895.74,105.09L896.09,119.48L896.21,120.71L896.33,120.8L896.45,124.89L897.52,102.53L897.76,106.15L897.87,108L897.99,108.45L898.11,99.82L898.35,92.57L898.47,98.33L898.59,114.52L899.3,131.07L899.42,125.48L899.54,122.48L900.01,100.95L900.13,115.74L900.25,125.05L900.84,144.03L901.08,138.82L901.2,133.29L901.32,130.81L901.55,138.82L901.91,133.98L902.03,132.42L902.74,105.28L902.98,110.05L903.1,113.64L903.22,115.32L903.34,111.61L903.45,102.69L903.93,53.67L904.29,84.33L904.4,75.25L904.76,81.19L904.88,74.02L905,70.74L905.24,45.63L905.71,67.86L905.83,66.6L906.3,62.58L906.66,69.29L906.78,65.23L907.02,51.77L907.14,40.02L907.85,124.38L908.09,112.5L908.2,97.75L908.32,92.09L908.44,107.08L908.56,118.07L908.8,140.31L909.15,104.8L909.27,115.38L909.39,125.78L909.87,150.84L910.34,147.57L910.46,148.79L910.82,141.73L910.94,127.9L911.05,130.43L911.29,118.73L911.41,121.09L911.53,122.63L911.77,118.67L911.88,116.18L912.6,91.34L912.83,99.74L912.95,117.56L913.19,129.44L913.55,108.87L913.67,112.71L914.02,139.59L914.26,112.37L914.38,106.34L914.97,131.19L915.21,128.26L915.33,122.4L916.28,36.58L916.63,48.35L916.75,55.2L917.7,87.32L917.82,102.71L918.77,151.68L918.89,151.39L919.01,151.21L919.37,149.52L919.48,147.79L921.15,130.04L921.26,132.42L921.98,143.44L922.21,140.83L922.33,137.7L922.69,127.42L922.93,137.56L923.05,142.75L923.64,151.07L923.88,149.08L924,146.16L924.11,145.3L924.35,148.65L924.47,149.22L924.95,150.33L925.06,149.14L926.13,114.05L926.25,115.6L926.37,120.71L927.32,142.83L927.56,136.16L927.68,127.42L928.03,86.33L928.51,102.66L928.63,102.42L929.1,95.46L929.22,91.45L929.81,76.38L929.93,79.98L930.05,88.79L930.88,35.85L931.24,48.71L931.36,51.11L931.71,66.06L931.83,72.24L932.31,97.72L932.43,104.79L933.38,147.8L933.61,146.47L933.73,144.77L933.85,143.86L933.97,145.83L934.09,148.38L934.56,150.75L934.92,148.88L935.04,149.15L935.39,151.59L935.87,150.72L935.99,150.9L936.58,150.86L936.7,149.33L937.89,124.21L938.13,126.8L938.24,130.31L939.08,139.92L939.19,134.63L939.31,115.82L939.55,85.55L940.14,95.93L940.26,95.46L940.62,99.74L940.74,108.92L941.21,135.92L941.33,109.34L941.45,95.45L941.57,114.99L942.04,81.07L942.16,59.09L942.87,42.74L942.99,43.88L943.11,45.91L943.47,61.59L943.71,45.8L943.82,37.79L944.3,49.82L944.42,43.37L944.54,33.8L945.61,20.02L945.72,20.23L945.84,21.14L946.79,46.47L946.91,54.87L947.74,94.26L947.86,81.42L947.98,66.6L948.22,62.94L948.57,67.61L948.69,70.46L948.93,78.02L949.05,88.34L950.47,149.21L950.59,147.32L950.71,139.71L951.66,58.12L952.02,68.65L952.14,68.23L953.32,115.02L953.44,111.25L953.56,108.7L953.8,121.7L953.92,132.34L954.27,150.01L954.63,139.87L954.75,134.86L955.34,97.81L955.46,108.11L955.58,127.01L955.82,124.96L956.29,130.45L956.41,127.51L957.12,86.48L957.36,97.63L957.48,104.19L958.67,148L958.79,149.7L958.9,151.25L959.26,148.65L959.38,145.59L959.97,106.71L960.09,99.37L960.45,86.03L960.69,103.12L960.8,103.75L961.16,115.8L961.4,107.79L961.52,104.73L962.35,80.11L962.58,87.21L962.7,92.57L963.77,144.7L963.89,143.1L964.01,140.02L964.13,139.65L964.25,141.94L964.84,149.28L964.96,148.18L965.08,143.05L965.55,123.13L966.03,131.5L966.15,129.64L966.86,111.94L966.98,120.63L967.1,128.06L967.22,127.87L967.33,115.89L967.93,43.89L968.4,57.22L968.52,54.84L969.35,19.79L969.59,23.19L969.71,25.88L970.3,50.53L970.9,48.72L971.01,47.96L971.85,71.57L971.96,81.9L972.2,88.31L972.32,81.48L972.44,65.75L973.03,28.89L973.39,34.18L973.51,33.97L973.98,24.55L974.22,28.71L974.34,33.12L974.58,40.41L974.81,33L974.93,30.4L975.17,25.52L975.41,30.71L975.53,39.76L975.65,40.09L975.76,26.51L975.88,22.24L976,26.97L976.12,41.23L976.48,65.93L976.95,52.35L977.07,61.14L977.19,68.42L977.31,46.03L977.43,34.48L977.78,45.8L977.9,59.12L979.33,141.51L979.45,135.43L980.28,61.45L980.63,68.74L980.75,74.79L981.7,127.59L981.94,114.59L982.06,103.7L982.77,83.51L983.01,90.79L983.13,90.4L984.19,118.74L984.43,112.87L984.55,113.54L984.67,115.23L984.79,106.95L984.91,101.99L985.26,115.05L985.38,102.18L985.5,83.63L986.21,58.7L986.33,61.58L986.45,63.26L986.69,81.4L987.16,62.15L987.28,38.25L988.23,16.22L988.35,15.81L988.59,16.1L988.71,18.25L989.3,59.12L989.54,43.4L989.66,19L989.89,8.15L990.49,11.96L990.61,12.77L990.84,13.27L990.96,17.26L991.79,81.11L992.15,53.15L992.27,40.4L992.74,18.71L993.1,32.29L993.22,45.47L994.17,137.4L994.41,108.21L994.52,97.17L994.88,76.15L995.24,95.94L995.36,108.75L995.95,146.84L996.19,128.33L996.31,108.83L996.66,64.74L997.14,87.34L997.26,95.05L997.37,98.64L997.61,91.4L997.73,85.09L997.97,87.22L998.21,79.02L998.32,80.68L998.44,92.09L998.8,127.11L999.04,81.21L999.16,55.55L999.39,41.38L999.87,52.55L999.99,51.77L1000.34,49.51L1000.58,53.01L1000.7,54.36L1001.29,111.05L1001.41,132.05L1001.89,151.29L1002.12,142.6L1002.24,122.89L1002.6,53.95L1003.07,81.78L1003.19,90.74L1004.26,122.84L1004.38,123.84L1004.62,116.7L1004.74,91.02L1004.97,57.64L1005.45,77.97L1005.57,76.55L1006.04,111.78L1006.28,102.56L1006.4,94.25L1006.87,59.12L1007.23,74.53L1007.35,71.9L1007.59,83.41L1007.7,94.25L1008.06,47.13L1008.18,71.34L1008.3,84.55L1008.54,73.59L1008.65,74.89L1008.77,86.03L1010.2,143.16L1010.32,141.73L1010.43,130.32L1010.91,85.5L1011.15,109.29L1011.27,115.48L1011.38,123.46L1011.62,105L1011.86,105.61L1011.98,107.03L1012.33,84.08L1012.69,128.85L1012.81,123.63L1012.93,109.63L1014.12,18.46L1014.23,19.64L1014.35,21.12L1015.18,46.52L1015.54,41.86L1015.66,28.77L1015.78,24L1016.13,36.01L1016.25,39.63L1016.97,51.7L1017.2,50.56L1017.32,46.53L1017.56,57.53L1017.68,63.63L1018.39,112.29L1018.51,107.8L1018.63,80.75L1019.22,18.05L1019.7,26.13L1019.82,27.32L1020.17,33.12L1020.29,35.32L1020.88,50.49L1021,55.03L1021.6,24.94L1021.83,39.3L1021.95,43.98L1024.21,151.72L1024.33,151.58L1024.45,151.27L1024.68,150.89L1024.8,146.48L1025.87,99.27L1026.11,114.33L1026.23,124.91L1026.58,151.53L1027.06,137.92L1027.18,128.65L1027.77,96.45L1028.25,102.76L1028.36,102.92L1028.6,106.4L1028.72,110.38L1029.67,138.42L1029.79,138.41L1029.91,139.17L1030.14,141.02L1030.26,138.06L1030.38,128.29L1031.09,98.55L1031.33,108.3L1031.45,112.61L1031.69,119.61L1032.16,113.46L1032.28,108.59L1033.11,141.79L1033.23,136.31L1033.35,128.24L1033.94,107.14L1034.18,116.26L1034.3,121.83L1034.54,126.57L1034.78,117.06L1034.89,114.07L1035.37,127.66L1035.49,134.78L1035.61,138.37L1035.96,133.73L1036.08,120.72L1036.32,100.21L1036.68,123.29L1036.79,127.06L1036.91,126.54L1037.03,121.04L1037.98,59.12L1038.1,64.63L1038.22,88.91L1039.05,130.12L1039.17,126L1039.41,110.78L1039.76,132.86L1039.88,135.87L1040,136.3" style="vector-effect: none; fill: none; stroke: rgb(0, 117, 173); stroke-opacity: 1; stroke-width: 2px; opacity: 1;"/></g><g class="points"/><g class="text"/></g></g></g><g class="overplot"/><path class="xlines-above crisp" d="M0,0" style="fill: none;"/><path class="ylines-above crisp" d="M0,0" style="fill: none;"/><g class="overlines-above"/><g class="xaxislayer-above"><g class="xtick"><text text-anchor="middle" x="0" y="199" transform="translate(80,0)" style="font-family: Arial; font-size: 13px; fill: rgb(51, 51, 51); fill-opacity: 1; white-space: pre; opacity: 1;">Jan 2019</text></g><g class="xtick"><text text-anchor="middle" x="0" y="199" style="font-family: Arial; font-size: 13px; fill: rgb(51, 51, 51); fill-opacity: 1; white-space: pre; opacity: 1;" transform="translate(168.34,0)">Feb 2019</text></g><g class="xtick"><text text-anchor="middle" x="0" y="199" style="font-family: Arial; font-size: 13px; fill: rgb(51, 51, 51); fill-opacity: 1; white-space: pre; opacity: 1;" transform="translate(248.13,0)">Mar 2019</text></g><g class="xtick"><text text-anchor="middle" x="0" y="199" style="font-family: Arial; font-size: 13px; fill: rgb(51, 51, 51); fill-opacity: 1; white-space: pre; opacity: 1;" transform="translate(336.47,0)">Apr 2019</text></g><g class="xtick"><text text-anchor="middle" x="0" y="199" style="font-family: Arial; font-size: 13px; fill: rgb(51, 51, 51); fill-opacity: 1; white-space: pre; opacity: 1;" transform="translate(421.96,0)">May 2019</text></g><g class="xtick"><text text-anchor="middle" x="0" y="199" style="font-family: Arial; font-size: 13px; fill: rgb(51, 51, 51); fill-opacity: 1; white-space: pre; opacity: 1;" transform="translate(510.3,0)">Jun 2019</text></g><g class="xtick"><text text-anchor="middle" x="0" y="199" style="font-family: Arial; font-size: 13px; fill: rgb(51, 51, 51); fill-opacity: 1; white-space: pre; opacity: 1;" transform="translate(595.78,0)">Jul 2019</text></g><g class="xtick"><text text-anchor="middle" x="0" y="199" style="font-family: Arial; font-size: 13px; fill: rgb(51, 51, 51); fill-opacity: 1; white-space: pre; opacity: 1;" transform="translate(684.12,0)">Aug 2019</text></g><g class="xtick"><text text-anchor="middle" x="0" y="199" style="font-family: Arial; font-size: 13px; fill: rgb(51, 51, 51); fill-opacity: 1; white-space: pre; opacity: 1;" transform="translate(772.46,0)">Sep 2019</text></g><g class="xtick"><text text-anchor="middle" x="0" y="199" style="font-family: Arial; font-size: 13px; fill: rgb(51, 51, 51); fill-opacity: 1; white-space: pre; opacity: 1;" transform="translate(857.95,0)">Oct 2019</text></g><g class="xtick"><text text-anchor="middle" x="0" y="199" style="font-family: Arial; font-size: 13px; fill: rgb(51, 51, 51); fill-opacity: 1; white-space: pre; opacity: 1;" transform="translate(946.29,0)">Nov 2019</text></g><g class="xtick"><text text-anchor="middle" x="0" y="199" style="font-family: Arial; font-size: 13px; fill: rgb(51, 51, 51); fill-opacity: 1; white-space: pre; opacity: 1;" transform="translate(1031.78,0)">Dec 2019</text></g></g><g class="yaxislayer-above"><g class="ytick"><text text-anchor="end" x="79" y="4.55" transform="translate(0,177.18)" style="font-family: Arial; font-size: 13px; fill: rgb(51, 51, 51); fill-opacity: 1; white-space: pre; opacity: 1;">0</text></g><g class="ytick"><text text-anchor="end" x="79" y="4.55" style="font-family: Arial; font-size: 13px; fill: rgb(51, 51, 51); fill-opacity: 1; white-space: pre; opacity: 1;" transform="translate(0,162.65)">0.1</text></g><g class="ytick"><text text-anchor="end" x="79" y="4.55" style="font-family: Arial; font-size: 13px; fill: rgb(51, 51, 51); fill-opacity: 1; white-space: pre; opacity: 1;" transform="translate(0,148.12)">0.2</text></g><g class="ytick"><text text-anchor="end" x="79" y="4.55" style="font-family: Arial; font-size: 13px; fill: rgb(51, 51, 51); fill-opacity: 1; white-space: pre; opacity: 1;" transform="translate(0,133.59)">0.3</text></g><g class="ytick"><text text-anchor="end" x="79" y="4.55" style="font-family: Arial; font-size: 13px; fill: rgb(51, 51, 51); fill-opacity: 1; white-space: pre; opacity: 1;" transform="translate(0,119.06)">0.4</text></g><g class="ytick"><text text-anchor="end" x="79" y="4.55" style="font-family: Arial; font-size: 13px; fill: rgb(51, 51, 51); fill-opacity: 1; white-space: pre; opacity: 1;" transform="translate(0,104.53)">0.5</text></g><g class="ytick"><text text-anchor="end" x="79" y="4.55" style="font-family: Arial; font-size: 13px; fill: rgb(51, 51, 51); fill-opacity: 1; white-space: pre; opacity: 1;" transform="translate(0,89.99)">0.6</text></g><g class="ytick"><text text-anchor="end" x="79" y="4.55" style="font-family: Arial; font-size: 13px; fill: rgb(51, 51, 51); fill-opacity: 1; white-space: pre; opacity: 1;" transform="translate(0,75.46000000000001)">0.7</text></g><g class="ytick"><text text-anchor="end" x="79" y="4.55" style="font-family: Arial; font-size: 13px; fill: rgb(51, 51, 51); fill-opacity: 1; white-space: pre; opacity: 1;" transform="translate(0,60.93)">0.8</text></g><g class="ytick"><text text-anchor="end" x="79" y="4.55" style="font-family: Arial; font-size: 13px; fill: rgb(51, 51, 51); fill-opacity: 1; white-space: pre; opacity: 1;" transform="translate(0,46.4)">0.9</text></g><g class="ytick"><text text-anchor="end" x="79" y="4.55" style="font-family: Arial; font-size: 13px; fill: rgb(51, 51, 51); fill-opacity: 1; white-space: pre; opacity: 1;" transform="translate(0,31.87)">1</text></g></g><g class="overaxes-above"/></g></g><g class="polarlayer"/><g class="smithlayer"/><g class="ternarylayer"/><g class="geolayer"/><g class="funnelarealayer"/><g class="pielayer"/><g class="iciclelayer"/><g class="treemaplayer"/><g class="sunburstlayer"/><g class="glimages"/><defs id="topdefs-bf4cb7"><g class="clips"/></defs><g class="layer-above"><g class="imagelayer"/><g class="shapelayer"/></g><g class="infolayer"><g class="g-gtitle"><text class="gtitle" x="600" y="0.22999999999998977" text-anchor="middle" dy="0.7em" style="font-family: 'Arial Black'; font-size: 20px; fill: rgb(51, 51, 51); opacity: 1; font-weight: normal; white-space: pre;">Wind [norm kW]</text></g><g class="g-xtitle"/><g class="g-ytitle"><text class="ytitle" transform="rotate(-90,33.121875,105)" x="33.121875" y="105" text-anchor="middle" style="font-family: Arial; font-size: 19px; fill: rgb(51, 51, 51); opacity: 1; font-weight: normal; white-space: pre;">Power [kW]</text></g></g></svg>