<svg class="main-svg" xmlns="http://www.w3.org/2000/svg" xmlns:xlink="http://www.w3.org/1999/xlink" width="1200" height="230" style="" viewBox="0 0 1200 230"><rect x="0" y="0" width="1200" height="230" style="fill: rgb(255, 255, 255); fill-opacity: 1;"/><defs id="defs-609365"><g class="clips"><clipPath id="clip609365xyplot" class="plotclip"><rect width="1040" height="160"/></clipPath><clipPath class="axesclip" id="clip609365x"><rect x="80" y="0" width="1040" height="230"/></clipPath><clipPath class="axesclip" id="clip609365y"><rect x="0" y="25" width="1200" height="160"/></clipPath><clipPath class="axesclip" id="clip609365xy"><rect x="80" y="25" width="1040" height="160"/></clipPath></g><g class="gradients"/><g class="patterns"/></defs><g class="bglayer"/><g class="layer-below"><g class="imagelayer"/><g class="shapelayer"/></g><g class="cartesianlayer"><g class="subplot xy"><g class="layer-subplot"><g class="shapelayer"/><g class="imagelayer"/></g><g class="minor-gridlayer"><g class="x"/><g class="y"/></g><g class="gridlayer"><g class="x"><path class="xgrid crisp" transform="translate(168.34,0)" d="M0,25v160" style="stroke: rgb(200, 200, 200); stroke-opacity: 1; stroke-width: 1px;"/><path class="xgrid crisp" transform="translate(248.13,0)" d="M0,25v160" style="stroke: rgb(200, 200, 200); stroke-opacity: 1; stroke-width: 1px;"/><path class="xgrid crisp" transform="translate(336.47,0)" d="M0,25v160" style="stroke: rgb(200, 200, 200); stroke-opacity: 1; stroke-width: 1px;"/><path class="xgrid crisp" transform="translate(421.96,0)" d="M0,25v160" style="stroke: rgb(200, 200, 200); stroke-opacity: 1; stroke-width: 1px;"/><path class="xgrid crisp" transform="translate(510.3,0)" d="M0,25v160" style="stroke: rgb(200, 200, 200); stroke-opacity: 1; stroke-width: 1px;"/><path class="xgrid crisp" transform="translate(595.78,0)" d="M0,25v160" style="stroke: rgb(200, 200, 200); stroke-opacity: 1; stroke-width: 1px;"/><path class="xgrid crisp" transform="translate(684.12,0)" d="M0,25v160" style="stroke: rgb(200, 200, 200); stroke-opacity: 1; stroke-width: 1px;"/><path class="xgrid crisp" transform="translate(772.46,0)" d="M0,25v160" style="stroke: rgb(200, 200, 200); stroke-opacity: 1; stroke-width: 1px;"/><path class="xgrid crisp" transform="translate(857.95,0)" d="M0,25v160" style="stroke: rgb(200, 200, 200); stroke-opacity: 1; stroke-width: 1px;"/><path class="xgrid crisp" transform="translate(946.29,0)" d="M0,25v160" style="stroke: rgb(200, 200, 200); stroke-opacity: 1; stroke-width: 1px;"/><path class="xgrid crisp" transform="translate(1031.78,0)" d="M0,25v160" style="stroke: rgb(200, 200, 200); stroke-opacity: 1; stroke-width: 1px;"/></g><g class="y"><path class="ygrid crisp" transform="translate(0,159)" d="M80,0h1040" style="stroke: rgb(200, 200, 200); stroke-opacity: 1; stroke-width: 1px;"/><path class="ygrid crisp" transform="translate(0,141)" d="M80,0h1040" style="stroke: rgb(200, 200, 200); stroke-opacity: 1; stroke-width: 1px;"/><path class="ygrid crisp" transform="translate(0,123)" d="M80,0h1040" style="stroke: rgb(200, 200, 200); stroke-opacity: 1; stroke-width: 1px;"/><path class="ygrid crisp" transform="translate(0,105)" d="M80,0h1040" style="stroke: rgb(200, 200, 200); stroke-opacity: 1; stroke-width: 1px;"/><path class="ygrid crisp" transform="translate(0,87)" d="M80,0h1040" style="stroke: rgb(200, 200, 200); stroke-opacity: 1; stroke-width: 1px;"/><path class="ygrid crisp" transform="translate(0,69)" d="M80,0h1040" style="stroke: rgb(200, 200, 200); stroke-opacity: 1; stroke-width: 1px;"/><path class="ygrid crisp" transform="translate(0,51)" d="M80,0h1040" style="stroke: rgb(200, 200, 200); stroke-opacity: 1; stroke-width: 1px;"/><path class="ygrid crisp" transform="translate(0,33)" d="M80,0h1040" style="stroke: rgb(200, 200, 200); stroke-opacity: 1; stroke-width: 1px;"/></g></g><g class="zerolinelayer"><path class="yzl zl crisp" transform="translate(0,177)" d="M80,0h1040" style="stroke: rgb(255, 255, 255); stroke-opacity: 1; stroke-width: 2px;"/></g><path class="xlines-below"/><path class="ylines-below"/><g class="overlines-below"/><g class="xaxislayer-below"/><g class="yaxislayer-below"/><g class="overaxes-below"/><g class="plot" transform="translate(80,25)" clip-path="url(#clip609365xyplot)"><g class="scatterlayer mlayer"><g class="trace scatter traceb4e686" style="stroke-miterlimit: 2; opacity: 1;"><g class="fills"/><g class="errorbars"/><g class="lines"><path class="js-line" d="M0,8L28.14,8L28.26,152L29.09,152L29.21,8L49.87,8L49.99,46.95L50.11,51.2L50.22,8L50.46,51.2L50.94,8L51.06,8L81.45,8L81.57,51.2L82.52,8L82.64,8L87.27,8L87.39,51.2L88.22,8L88.34,8L90.95,8L91.07,42.31L91.19,51.2L91.31,36.88L91.43,8L92.97,8L93.09,9.43L93.92,8L94.04,8L124.2,8L124.32,152L126.1,152L126.22,20.05L126.33,27.4L126.45,8L126.69,8L126.81,8L127.76,152L127.88,152L128.71,8L128.83,8L132.86,8L132.98,26.75L133.81,8L133.93,8L134.17,40.65L134.65,8L134.76,8L136.78,8L136.9,152L137.73,152L137.85,8L142.36,8L142.48,152L143.31,152L143.43,8L144.26,8L144.38,152L145.45,152L145.57,18.75L146.4,8L146.52,8L158.51,8L158.63,152L160.29,152L160.41,8L162.31,8L162.43,152L163.26,152L163.38,8L164.09,8L164.21,152L165.04,152L165.16,8L167.77,8L167.89,31.17L168.01,51.2L168.13,8L168.48,8L168.6,8L173.12,8L173.23,11.37L173.35,28.29L173.47,8L173.95,8L174.07,8L182.14,8L182.26,152L183.09,152L183.21,8L183.8,8L183.92,22.8L184.99,51.2L185.11,51.2L185.58,51.2L185.7,46.38L185.82,51.2L185.94,8L189.86,8L189.98,32.62L190.09,31.62L190.33,36.06L190.45,45.61L191.16,51.2L191.28,8.76L192.11,8L192.23,8L219.66,8L219.78,152L220.61,152L220.73,8L221.92,8L222.03,29L222.87,152L222.98,152L223.82,8L223.93,8L224.88,152L225,152L225.83,8L225.95,8L230.82,8L230.94,152L231.77,152L231.89,8L233.67,8L233.79,152L234.62,152L234.74,8L244.12,8L244.24,27.39L245.19,152L245.31,152L245.66,152L245.78,27.66L246.61,8L246.73,8L252.67,8L252.79,152L254.33,152L254.45,8L254.69,8L254.81,31.51L255.52,51.2L255.64,35.94L256.47,51.2L256.59,51.2L257.18,51.2L257.3,8L259.67,8L259.79,31.19L260.62,8L260.74,8L262.17,8L262.29,152L263.12,152L263.24,8L268.22,8L268.34,152L269.17,152L269.29,8.6L269.53,8L270,26.83L270.12,152L270.95,152L271.07,20.35L271.9,8L272.02,8L276.3,8L276.42,152L277.25,152L277.36,8L279.62,8L279.74,152L280.57,152L280.69,32.96L281.52,51.2L281.64,51.2L283.06,51.2L283.18,8L284.96,8L285.08,51.2L285.32,8L285.44,51.2L286.27,8L286.39,8L289.71,8L289.83,15.57L289.95,26.76L290.07,8L290.43,8L290.54,8L290.66,27.69L291.26,8L291.38,8L292.21,8L292.33,13.91L292.44,18.34L292.56,8L292.92,8L293.04,9.29L293.51,51.2L293.63,8L293.75,8L293.87,8L293.99,48.09L294.58,8L294.7,8L295.18,8L295.29,17.01L296.24,51.2L296.36,51.2L296.6,51.2L296.72,29.53L297.55,8L297.67,8L298.02,37.64L298.14,51.2L299.81,51.2L299.92,49.83L300.4,8L300.64,43.57L300.76,35.24L301.59,51.2L301.71,51.2L307.29,51.2L307.4,152L308.24,152L308.35,51.2L308.59,51.2L308.71,12.85L309.54,51.2L309.66,8L310.97,152L311.09,152L311.44,8L312.04,51.2L312.15,51.2L312.27,47.38L312.39,8L312.87,8L312.99,51.2L313.82,152L313.94,152L314.17,152L314.29,8L314.41,10.36L314.53,51.2L315.12,51.2L315.24,8L315.48,8L315.6,31.49L316.67,152L316.79,152L317.02,152L317.14,8L318.09,51.2L318.21,28.47L319.4,152L319.52,152L319.75,152L319.87,51.2L320.11,24.43L320.23,47.18L320.35,51.2L321.53,51.2L321.65,152L322.6,152L322.72,51.2L323.67,51.2L323.79,8L324.98,152L325.1,152L325.69,152L325.81,44.08L326.52,51.2L326.64,8L327.11,8L327.23,152L328.54,152L328.66,51.2L329.85,51.2L329.96,43.75L330.8,152L330.91,152L331.75,8L331.86,8L332.58,8L332.7,152L333.53,152L333.65,51.2L334.36,51.2L334.48,37.48L334.71,9.67L335.07,47.22L335.19,51.2L337.21,51.2L337.33,20.32L337.56,8L337.8,30.16L338.04,17.3L338.16,45.37L338.87,51.2L338.99,8L341.72,8L341.84,152L342.67,152L342.79,8L343.98,8L344.09,152L344.93,152L345.04,51.2L345.52,51.2L345.64,40.17L346.11,51.2L346.47,8L346.59,8L347.06,8L347.18,152L348.01,152L348.13,51.2L348.96,8L349.08,8L350.03,8L350.15,152L350.98,152L351.1,8L360.95,8L361.07,152L361.9,152L362.02,51.2L362.62,51.2L362.74,41.18L362.85,8L363.45,51.2L363.57,51.2L369.74,51.2L369.86,152L370.69,152L370.81,51.2L374.85,51.2L374.97,8.78L375.08,10.92L375.2,40.5L376.03,51.2L376.15,51.2L376.98,51.2L377.1,29.79L377.93,8L378.05,8L378.65,8L378.76,51.2L379.6,51.2L379.71,22.81L380.55,8L380.66,8L385.18,8L385.3,38.9L385.41,45.92L385.53,8L385.65,8L386.48,8L386.6,152L387.55,152L387.67,51.2L388.26,51.2L388.38,22.72L388.5,8L388.86,34.43L388.98,49.84L389.21,51.2L389.33,8L389.81,8L389.93,42.87L390.16,51.2L390.28,152L391.11,152L391.23,16.73L391.59,51.2L391.83,8L391.94,8L392.42,8L392.54,152L393.84,152L393.96,51.2L394.08,33.44L394.68,51.2L394.79,51.2L395.03,8L395.51,51.2L395.63,51.2L396.46,152L396.57,152L396.81,152L396.93,25.27L397.29,8L397.41,51.2L397.52,43L398.12,8L398.24,152L399.07,152L399.19,51.2L399.66,51.2L399.78,34.83L400.02,45.06L400.14,31.43L400.37,36.14L400.49,13.75L401.09,8L401.21,152L402.04,152L402.16,51.2L402.51,51.2L402.63,13.37L403.34,42.29L403.46,35.68L403.58,8L404.53,8L404.65,152L405.48,152L405.6,19.48L406.43,51.2L406.55,51.2L408.21,51.2L408.33,17.59L408.45,19.21L408.57,8L409.16,8L409.28,152L411.06,152L411.18,33.28L411.65,8L411.77,51.2L411.89,8L412.96,152L413.08,152L413.91,152L414.03,43.03L414.86,51.2L414.98,51.2L415.22,43.98L415.34,15.42L416.17,152L416.28,152L416.64,152L416.76,51.2L417.83,8L417.95,8L418.78,152L418.9,152L419.49,152L419.61,51.2L420.2,32.54L420.32,8L421.03,8L421.15,152L421.98,152L422.1,51.2L422.46,51.2L422.58,9.18L423.41,8L423.53,8L424,8L424.12,16.65L425.19,152L425.31,152L426.14,8L426.26,8L426.61,8L426.73,43.73L427.33,51.2L427.45,152L428.28,152L428.4,8L428.63,8L428.75,45.75L429.46,8L429.58,49.16L430.41,152L430.53,152L431.01,152L431.13,51.2L431.72,51.2L431.84,9.44L432.31,8L432.43,152L433.98,152L434.1,51.2L435.4,51.2L435.52,152L436.71,152L436.83,51.2L438.01,51.2L438.13,152L440.03,152L440.15,51.2L440.98,51.2L441.1,152L442.41,152L442.53,51.2L443.95,51.2L444.07,152L445.61,152L445.73,51.2L446.44,51.2L446.56,152L448.11,152L448.22,51.2L449.77,51.2L449.89,152L451.55,152L451.67,51.2L452.38,51.2L452.5,152L453.81,152L453.92,51.2L454.64,51.2L454.76,34.27L454.87,8L454.99,152L455.11,152L457.13,152L457.25,51.2L457.49,51.2L457.6,8L458.79,152L458.91,152L459.5,152L459.62,51.2L460.69,51.2L460.81,152L462.24,152L462.35,51.2L463.42,51.2L463.54,152L465.09,152L465.2,51.2L466.63,51.2L466.75,152L468.53,152L468.65,51.2L469.36,51.2L469.48,152L471.5,152L471.62,51.2L471.85,51.2L471.97,15.63L472.33,8L472.45,152L474.35,152L474.47,51.2L475.18,51.2L475.3,152L476.6,152L476.72,51.2L478.15,51.2L478.26,152L479.81,152L479.93,51.2L480.76,51.2L480.88,152L482.3,152L482.42,51.2L483.25,8L483.37,8L483.61,8L483.73,152L485.39,152L485.51,8L486.22,8L486.34,152L488.48,152L488.59,8L489.31,8L489.43,152L493.58,152L493.7,51.2L495.24,51.2L495.36,152L497.26,152L497.38,51.2L498.09,51.2L498.21,152L499.87,152L499.99,51.2L500.59,51.2L500.71,27.87L501.54,152L501.66,152L502.72,152L502.84,51.2L503.2,51.2L503.32,25.83L504.39,152L504.51,152L505.69,152L505.81,51.2L506.05,51.2L506.17,28.68L506.29,8L506.4,51.2L506.52,51.2L506.64,152L508.66,152L508.78,51.2L509.14,51.2L509.25,16.37L510.32,152L510.44,152L511.51,152L511.63,51.2L512.34,51.2L512.46,152L514.36,152L514.48,51.2L515.19,51.2L515.31,152L516.73,152L516.85,51.2L517.57,51.2L517.68,152L520.06,152L520.18,51.2L520.89,51.2L521.01,152L522.32,152L522.43,51.2L523.74,51.2L523.86,152L525.64,152L525.76,51.2L526.47,51.2L526.59,152L528.61,152L528.73,51.2L529.08,51.2L529.2,45.7L529.44,51.2L529.56,152L531.34,152L531.46,51.2L532.29,51.2L532.41,152L534.31,152L534.43,51.2L535.14,51.2L535.26,152L536.44,152L536.56,51.2L538.11,51.2L538.23,152L539.29,152L539.41,51.2L539.65,51.2L539.77,29.08L540.13,8L540.24,152L542.14,152L542.26,51.2L543.09,51.2L543.21,15.32L543.57,8L543.69,152L544.99,152L545.11,51.2L545.82,8L545.94,152L547.84,152L547.96,51.2L548.91,51.2L549.03,39.52L549.27,51.2L549.39,152L550.69,152L550.81,51.2L551.64,8L551.76,152L553.54,152L553.66,51.2L555.2,51.2L555.32,152L556.39,152L556.51,51.2L557.82,51.2L557.94,152L559.24,152L559.36,51.2L560.79,51.2L560.9,152L562.09,152L562.21,51.2L563.64,51.2L563.75,152L565.53,152L565.65,51.2L566.37,51.2L566.48,152L568.5,152L568.62,51.2L568.86,51.2L568.98,47.8L569.33,51.2L569.45,152L571.35,152L571.47,8L572.18,8L572.3,152L574.08,152L574.2,8L574.91,8L575.03,152L576.93,152L577.05,8L577.76,8L577.88,152L579.66,152L579.78,8L580.5,8L580.61,152L585.6,152L585.72,51.2L585.96,51.2L586.08,8L586.31,8L586.43,20.01L587.26,152L587.38,152L587.98,152L588.09,8L588.81,8L588.93,152L593.44,152L593.56,51.2L593.91,8L594.27,51.2L594.39,152L596.29,152L596.41,40.98L597.24,8L597.36,8L598.19,152L598.31,152L599.73,152L599.85,51.2L600.56,51.2L600.68,152L602.34,152L602.46,51.2L603.41,51.2L603.53,152L604.84,152L604.95,51.2L606.14,51.2L606.26,152L608.28,152L608.4,51.2L609.11,51.2L609.23,152L610.54,152L610.65,51.2L612.2,51.2L612.32,152L613.86,152L613.98,8L614.69,8L614.81,152L616.83,152L616.95,8L617.66,8L617.78,152L619.44,152L619.56,8L620.39,8L620.51,152L624.78,152L624.9,51.2L625.97,51.2L626.09,29.11L626.92,152L627.04,152L628.35,152L628.46,8L629.18,8L629.3,152L631.08,152L631.2,8L632.03,8L632.15,152L633.33,152L633.45,8L634.64,8L634.76,152L639.63,152L639.74,51.2L639.98,46.47L640.1,8L640.34,8L640.46,24.51L641.29,152L641.41,152L641.88,152L642,51.2L643.07,51.2L643.19,39.23L644.02,152L644.14,152L644.49,152L644.61,51.2L645.56,51.2L645.68,35.1L645.8,51.2L645.92,8L646.04,152L647.58,152L647.7,51.2L648.89,51.2L649.01,152L650.19,152L650.31,51.2L651.86,51.2L651.97,152L653.16,152L653.28,51.2L654.7,51.2L654.82,152L656.6,152L656.72,51.2L657.44,51.2L657.55,152L659.57,152L659.69,51.2L660.4,51.2L660.52,152L661.83,152L661.95,51.2L663.25,51.2L663.37,152L664.56,152L664.68,51.2L666.1,51.2L666.22,152L667.65,152L667.77,51.2L669.07,51.2L669.19,152L670.38,152L670.5,51.2L671.8,51.2L671.92,152L673.35,152L673.47,51.2L674.3,51.2L674.41,152L676.08,152L676.2,51.2L677.26,51.2L677.38,152L679.05,152L679.16,51.2L680.23,51.2L680.35,152L682.25,152L682.37,51.2L683.08,51.2L683.2,152L685.1,152L685.22,51.2L685.93,51.2L686.05,152L687.95,152L688.07,51.2L688.54,51.2L688.66,25.97L688.78,32.15L688.9,152L690.8,152L690.92,51.2L691.63,51.2L691.75,152L693.18,152L693.29,51.2L694.6,51.2L694.72,152L696.62,152L696.74,51.2L697.09,51.2L697.21,28.61L698.28,152L698.4,152L698.87,152L698.99,51.2L699.71,51.2L699.82,20.59L700.18,8L700.3,152L701.72,152L701.84,51.2L702.91,51.2L703.03,40.78L703.86,152L703.98,152L704.57,152L704.69,51.2L706.12,51.2L706.24,152L707.07,152L707.19,51.2L709.56,51.2L709.68,152L710.51,152L710.63,51.2L711.94,51.2L712.05,152L712.89,152L713,51.2L716.8,51.2L716.92,41.23L717.63,51.2L717.75,152L718.82,152L718.94,51.2L719.3,43.9L719.42,51.13L719.53,8L720.01,8L720.13,19.83L720.96,152L721.08,152L721.91,51.2L722.03,51.2L722.5,51.2L722.62,13.58L722.86,8L722.98,15.8L723.1,41.36L723.93,152L724.05,152L724.4,152L724.52,51.2L725.47,51.2L725.59,31.62L725.83,8L725.95,51.2L726.06,152L727.37,152L727.49,27.78L728.32,51.2L728.44,51.2L728.91,51.2L729.03,152L729.98,152L730.1,51.2L731.53,51.2L731.65,152L733.07,152L733.19,51.2L734.49,51.2L734.61,152L736.04,152L736.16,51.2L737.34,51.2L737.46,152L738.77,152L738.89,51.2L740.43,51.2L740.55,152L741.62,152L741.74,51.2L741.98,51.2L742.09,38.53L742.45,51.2L742.57,46.39L742.69,8L742.92,8L743.04,45.82L743.4,51.2L743.52,152L744.35,152L744.47,51.2L745.3,8L745.42,8L746.13,8L746.25,152L747.08,152L747.2,51.2L748.15,8L748.27,8L748.62,8L748.74,16.65L749.1,51.2L749.22,152L750.05,152L750.17,29.18L750.41,8L750.64,51.2L750.76,51.2L750.88,51.2L751,47.81L751.12,8L751.59,8L751.71,51.2L752.66,152L752.78,152L753.02,152L753.14,8L754.2,51.2L754.32,51.2L754.8,51.2L754.92,152L755.75,152L755.87,51.2L755.99,31.93L756.58,51.2L756.7,51.2L757.05,8L757.41,51.2L757.53,51.2L758,8L758.12,152L758.95,152L759.07,51.2L759.19,49.29L759.31,51.2L759.43,24.47L759.67,8L759.79,51.2L759.9,51.2L760.02,51.2L760.26,8L760.38,152L761.33,152L761.45,51.2L761.69,51.2L761.8,46.13L762.52,51.2L762.64,8L762.99,8L763.11,28.78L763.94,152L764.06,152L764.89,51.2L765.01,51.2L768.22,51.2L768.33,152L769.64,152L769.76,51.2L771.66,51.2L771.78,152L772.61,152L772.73,51.2L774.03,51.2L774.15,18.93L774.98,152L775.1,152L775.7,152L775.81,51.2L777.24,51.2L777.36,152L778.19,152L778.31,51.2L780.21,51.2L780.33,152L781.16,152L781.28,51.2L781.51,51.2L781.63,43.07L781.75,41.15L781.87,8L782.35,8L782.46,24.22L782.58,8L782.7,152L783.53,152L783.65,51.2L784.48,51.2L784.6,36.86L784.72,8L785.31,29.81L785.43,39.85L786.26,51.2L786.38,51.2L787.21,51.2L787.33,26.57L787.57,8L787.93,35.65L788.04,39.01L788.88,51.2L788.99,51.2L789.94,8L790.06,8L792.79,8L792.91,11.06L793.74,8L793.86,8L796.12,8L796.24,152L797.31,152L797.42,48.09L798.26,51.2L798.37,51.2L799.21,8L799.32,8L801.11,8L801.22,152L802.06,152L802.17,8L808.82,8L808.94,152L809.77,152L809.89,8L811.32,8L811.44,152L812.27,152L812.38,8L814.4,8L814.52,152L815.59,152L815.71,8L819.39,8L819.51,152L820.34,152L820.46,8L825.45,8L825.56,16.83L826.4,8L826.51,8L829.01,8L829.13,30.95L829.96,8L830.08,8L830.31,14.68L830.79,8L830.91,8L835.54,8L835.66,43.71L836.49,152L836.61,152L837.44,8L837.56,8L838.27,8L838.39,152L839.22,152L839.34,8L843.61,8L843.73,152L844.56,152L844.68,8L848.12,8L848.24,152L849.07,152L849.19,8L855.49,8L855.6,19.77L856.44,8L856.55,8L873.77,8L873.89,152L874.72,152L874.84,8L885.53,8L885.64,152L886.48,152L886.59,8L887.78,8L887.9,51.2L888.38,51.2L888.49,8L890.87,8L890.99,41.4L891.23,51.2L891.34,32.04L891.46,8L892.53,8L892.65,31.25L893.48,8L893.6,8L894.43,51.2L894.55,51.2L894.79,51.2L894.91,35.6L895.14,51.2L895.38,8L895.5,8L900.49,8L900.61,13.72L900.72,12.29L900.84,19.38L900.96,8L908.56,8L908.68,50.55L908.8,51.2L908.92,8L909.27,8L909.39,37.06L910.22,51.2L910.34,51.2L910.58,51.2L910.7,18.83L910.82,8L911.17,40.82L911.41,13.58L911.53,23.83L912.36,8L912.48,8L913.78,8L913.9,25.24L914.73,8L914.85,8L919.25,8L919.37,152L920.2,152L920.32,51.2L920.67,51.2L920.79,24.74L920.91,51.2L921.15,8L921.38,8L921.5,8L925.06,8L925.18,14.42L925.42,41.95L925.66,8L925.78,8L925.9,8L926.61,8L926.73,17.52L927.56,8L927.68,8L932.54,8L932.66,26.01L933.97,152L934.09,152L936.58,152L936.7,51.2L936.82,49.02L937.41,51.2L937.53,51.2L938.01,51.2L938.13,38.81L939.08,8L939.19,8L941.09,8L941.21,31.05L942.04,8L942.16,8L950.47,8L950.59,39.43L950.71,51.2L950.83,8L950.95,8L951.07,8L953.92,8L954.04,51.2L954.63,51.2L954.75,23.24L955.58,8L955.7,8L959.14,8L959.26,51.2L960.21,8L960.33,8L963.06,8L963.18,36.9L963.53,40.96L963.77,28.03L963.89,8L978.73,8L978.85,152L979.68,152L979.8,8L993.93,8L994.05,36.98L994.17,42.11L994.29,8L1001.53,8L1001.65,152L1002.48,152L1002.6,8L1023.14,8L1023.26,37.33L1023.5,29.73L1023.61,51.2L1023.73,51.2L1023.97,51.2L1024.09,8L1024.56,8L1024.68,18.46L1024.8,37.59L1025.16,8L1025.28,8L1025.4,8L1026.35,8L1026.46,50.3L1026.7,51.2L1026.82,8L1040,8" style="vector-effect: none; fill: none; stroke: rgb(0, 117, 173); stroke-opacity: 1; stroke-width: 2px; opacity: 1;"/></g><g class="points"/><g class="text"/></g></g></g><g class="overplot"/><path class="xlines-above crisp" d="M0,0" style="fill: none;"/><path class="ylines-above crisp" d="M0,0" style="fill: none;"/><g class="overlines-above"/><g class="xaxislayer-above"><g class="xtick"><text text-anchor="middle" x="0" y="199" transform="translate(80,0)" style="font-family: Arial; font-size: 13px; fill: rgb(51, 51, 51); fill-opacity: 1; white-space: pre; opacity: 1;">Jan 2019</text></g><g class="xtick"><text text-anchor="middle" x="0" y="199" style="font-family: Arial; font-size: 13px; fill: rgb(51, 51, 51); fill-opacity: 1; white-space: pre; opacity: 1;" transform="translate(168.34,0)">Feb 2019</text></g><g class="xtick"><text text-anchor="middle" x="0" y="199" style="font-family: Arial; font-size: 13px; fill: rgb(51, 51, 51); fill-opacity: 1; white-space: pre; opacity: 1;" transform="translate(248.13,0)">Mar 2019</text></g><g class="xtick"><text text-anchor="middle" x="0" y="199" style="font-family: Arial; font-size: 13px; fill: rgb(51, 51, 51); fill-opacity: 1; white-space: pre; opacity: 1;" transform="translate(336.47,0)">Apr 2019</text></g><g class="xtick"><text text-anchor="middle" x="0" y="199" style="font-family: Arial; font-size: 13px; fill: rgb(51, 51, 51); fill-opacity: 1; white-space: pre; opacity: 1;" transform="translate(421.96,0)">May 2019</text></g><g class="xtick"><text text-anchor="middle" x="0" y="199" style="font-family: Arial; font-size: 13px; fill: rgb(51, 51, 51); fill-opacity: 1; white-space: pre; opacity: 1;" transform="translate(510.3,0)">Jun 2019</text></g><g class="xtick"><text text-anchor="middle" x="0" y="199" style="font-family: Arial; font-size: 13px; fill: rgb(51, 51, 51); fill-opacity: 1; white-space: pre; opacity: 1;" transform="translate(595.78,0)">Jul 2019</text></g><g class="xtick"><text text-anchor="middle" x="0" y="199" style="font-family: Arial; font-size: 13px; fill: rgb(51, 51, 51); fill-opacity: 1; white-space: pre; opacity: 1;" transform="translate(684.12,0)">Aug 2019</text></g><g class="xtick"><text text-anchor="middle" x="0" y="199" style="font-family: Arial; font-size: 13px; fill: rgb(51, 51, 51); fill-opacity: 1; white-space: pre; opacity: 1;" transform="translate(772.46,0)">Sep 2019</text></g><g class="xtick"><text text-anchor="middle" x="0" y="199" style="font-family: Arial; font-size: 13px; fill: rgb(51, 51, 51); fill-opacity: 1; white-space: pre; opacity: 1;" transform="translate(857.95,0)">Oct 2019</text></g><g class="xtick"><text text-anchor="middle" x="0" y="199" style="font-family: Arial; font-size: 13px; fill: rgb(51, 51, 51); fill-opacity: 1; white-space: pre; opacity: 1;" transform="translate(946.29,0)">Nov 2019</text></g><g class="xtick"><text text-anchor="middle" x="0" y="199" style="font-family: Arial; font-size: 13px; fill: rgb(51, 51, 51); fill-opacity: 1; white-space: pre; opacity: 1;" transform="translate(1031.78,0)">Dec 2019</text></g></g><g class="yaxislayer-above"><g class="ytick"><text text-anchor="end" x="79" y="4.55" transform="translate(0,177)" style="font-family: Arial; font-size: 13px; fill: rgb(51, 51, 51); fill-opacity: 1; white-space: pre; opacity: 1;">0</text></g><g class="ytick"><text text-anchor="end" x="79" y="4.55" style="font-family: Arial; font-size: 13px; fill: rgb(51, 51, 51); fill-opacity: 1; white-space: pre; opacity: 1;" transform="translate(0,159)">50</text></g><g class="ytick"><text text-anchor="end" x="79" y="4.55" style="font-family: Arial; font-size: 13px; fill: rgb(51, 51, 51); fill-opacity: 1; white-space: pre; opacity: 1;" transform="translate(0,141)">100</text></g><g class="ytick"><text text-anchor="end" x="79" y="4.55" style="font-family: Arial; font-size: 13px; fill: rgb(51, 51, 51); fill-opacity: 1; white-space: pre; opacity: 1;" transform="translate(0,123)">150</text></g><g class="ytick"><text text-anchor="end" x="79" y="4.55" style="font-family: Arial; font-size: 13px; fill: rgb(51, 51, 51); fill-opacity: 1; white-space: pre; opacity: 1;" transform="translate(0,105)">200</text></g><g class="ytick"><text text-anchor="end" x="79" y="4.55" style="font-family: Arial; font-size: 13px; fill: rgb(51, 51, 51); fill-opacity: 1; white-space: pre; opacity: 1;" transform="translate(0,87)">250</text></g><g class="ytick"><text text-anchor="end" x="79" y="4.55" style="font-family: Arial; font-size: 13px; fill: rgb(51, 51, 51); fill-opacity: 1; white-space: pre; opacity: 1;" transform="translate(0,69)">300</text></g><g class="ytick"><text text-anchor="end" x="79" y="4.55" style="font-family: Arial; font-size: 13px; fill: rgb(51, 51, 51); fill-opacity: 1; white-space: pre; opacity: 1;" transform="translate(0,51)">350</text></g><g class="ytick"><text text-anchor="end" x="79" y="4.55" style="font-family: Arial; font-size: 13px; fill: rgb(51, 51, 51); fill-opacity: 1; white-space: pre; opacity: 1;" transform="translate(0,33)">400</text></g></g><g class="overaxes-above"/></g></g><g class="polarlayer"/><g class="smithlayer"/><g class="ternarylayer"/><g class="geolayer"/><g class="funnelarealayer"/><g class="pielayer"/><g class="iciclelayer"/><g class="treemaplayer"/><g class="sunburstlayer"/><g class="glimages"/><defs id="topdefs-609365"><g class="clips"/></defs><g class="layer-above"><g class="imagelayer"/><g class="shapelayer"/></g><g class="infolayer"><g class="g-gtitle"><text class="gtitle" x="600" y="0.22999999999998977" text-anchor="middle" dy="0.7em" style="font-family: 'Arial Black'; font-size: 20px; fill: rgb(51, 51, 51); opacity: 1; font-weight: normal; white-space: pre;">Heatpump schedule real_world_co2_optimized</text></g><g class="g-xtitle"/><g class="g-ytitle"><text class="ytitle" transform="rotate(-90,29.496875000000003,105)" x="29.496875000000003" y="105" text-anchor="middle" style="font-family: Arial; font-size: 19px; fill: rgb(51, 51, 51); opacity: 1; font-weight: normal; white-space: pre;">Electrical Power [kW]</text></g></g></svg>