<svg class="main-svg" xmlns="http://www.w3.org/2000/svg" xmlns:xlink="http://www.w3.org/1999/xlink" width="1200" height="230" style="" viewBox="0 0 1200 230"><rect x="0" y="0" width="1200" height="230" style="fill: rgb(255, 255, 255); fill-opacity: 1;"/><defs id="defs-02d216"><g class="clips"><clipPath id="clip02d216xyplot" class="plotclip"><rect width="1040" height="160"/></clipPath><clipPath class="axesclip" id="clip02d216x"><rect x="80" y="0" width="1040" height="230"/></clipPath><clipPath class="axesclip" id="clip02d216y"><rect x="0" y="25" width="1200" height="160"/></clipPath><clipPath class="axesclip" id="clip02d216xy"><rect x="80" y="25" width="1040" height="160"/></clipPath></g><g class="gradients"/><g class="patterns"/></defs><g class="bglayer"/><g class="layer-below"><g class="imagelayer"/><g class="shapelayer"/></g><g class="cartesianlayer"><g class="subplot xy"><g class="layer-subplot"><g class="shapelayer"/><g class="imagelayer"/></g><g class="minor-gridlayer"><g class="x"/><g class="y"/></g><g class="gridlayer"><g class="x"><path class="xgrid crisp" transform="translate(168.34,0)" d="M0,25v160" style="stroke: rgb(200, 200, 200); stroke-opacity: 1; stroke-width: 1px;"/><path class="xgrid crisp" transform="translate(248.13,0)" d="M0,25v160" style="stroke: rgb(200, 200, 200); stroke-opacity: 1; stroke-width: 1px;"/><path class="xgrid crisp" transform="translate(336.47,0)" d="M0,25v160" style="stroke: rgb(200, 200, 200); stroke-opacity: 1; stroke-width: 1px;"/><path class="xgrid crisp" transform="translate(421.96,0)" d="M0,25v160" style="stroke: rgb(200, 200, 200); stroke-opacity: 1; stroke-width: 1px;"/><path class="xgrid crisp" transform="translate(510.3,0)" d="M0,25v160" style="stroke: rgb(200, 200, 200); stroke-opacity: 1; stroke-width: 1px;"/><path class="xgrid crisp" transform="translate(595.78,0)" d="M0,25v160" style="stroke: rgb(200, 200, 200); stroke-opacity: 1; stroke-width: 1px;"/><path class="xgrid crisp" transform="translate(684.12,0)" d="M0,25v160" style="stroke: rgb(200, 200, 200); stroke-opacity: 1; stroke-width: 1px;"/><path class="xgrid crisp" transform="translate(772.46,0)" d="M0,25v160" style="stroke: rgb(200, 200, 200); stroke-opacity: 1; stroke-width: 1px;"/><path class="xgrid crisp" transform="translate(857.95,0)" d="M0,25v160" style="stroke: rgb(200, 200, 200); stroke-opacity: 1; stroke-width: 1px;"/><path class="xgrid crisp" transform="translate(946.29,0)" d="M0,25v160" style="stroke: rgb(200, 200, 200); stroke-opacity: 1; stroke-width: 1px;"/><path class="xgrid crisp" transform="translate(1031.78,0)" d="M0,25v160" style="stroke: rgb(200, 200, 200); stroke-opacity: 1; stroke-width: 1px;"/></g><g class="y"><path class="ygrid crisp" transform="translate(0,160.49)" d="M80,0h1040" style="stroke: rgb(200, 200, 200); stroke-opacity: 1; stroke-width: 1px;"/><path class="ygrid crisp" transform="translate(0,143.98000000000002)" d="M80,0h1040" style="stroke: rgb(200, 200, 200); stroke-opacity: 1; stroke-width: 1px;"/><path class="ygrid crisp" transform="translate(0,127.47)" d="M80,0h1040" style="stroke: rgb(200, 200, 200); stroke-opacity: 1; stroke-width: 1px;"/><path class="ygrid crisp" transform="translate(0,110.97)" d="M80,0h1040" style="stroke: rgb(200, 200, 200); stroke-opacity: 1; stroke-width: 1px;"/><path class="ygrid crisp" transform="translate(0,94.46)" d="M80,0h1040" style="stroke: rgb(200, 200, 200); stroke-opacity: 1; stroke-width: 1px;"/><path class="ygrid crisp" transform="translate(0,77.95)" d="M80,0h1040" style="stroke: rgb(200, 200, 200); stroke-opacity: 1; stroke-width: 1px;"/><path class="ygrid crisp" transform="translate(0,61.44)" d="M80,0h1040" style="stroke: rgb(200, 200, 200); stroke-opacity: 1; stroke-width: 1px;"/><path class="ygrid crisp" transform="translate(0,44.93)" d="M80,0h1040" style="stroke: rgb(200, 200, 200); stroke-opacity: 1; stroke-width: 1px;"/><path class="ygrid crisp" transform="translate(0,28.42)" d="M80,0h1040" style="stroke: rgb(200, 200, 200); stroke-opacity: 1; stroke-width: 1px;"/></g></g><g class="zerolinelayer"><path class="yzl zl crisp" transform="translate(0,177)" d="M80,0h1040" style="stroke: rgb(255, 255, 255); stroke-opacity: 1; stroke-width: 2px;"/></g><path class="xlines-below"/><path class="ylines-below"/><g class="overlines-below"/><g class="xaxislayer-below"/><g class="yaxislayer-below"/><g class="overaxes-below"/><g class="plot" transform="translate(80,25)" clip-path="url(#clip02d216xyplot)"><g class="scatterlayer mlayer"><g class="trace scatter trace32b2e5" style="stroke-miterlimit: 2; opacity: 1;"><g class="fills"/><g class="errorbars"/><g class="lines"><path class="js-line" d="M0,152L0.83,152L0.95,151.09L1.19,145.06L1.31,150.14L1.42,103.64L2.26,152L2.37,152L3.68,152L3.8,135.31L4.16,145.48L4.27,128.04L4.39,120.87L4.51,97.17L4.63,152L4.87,152L4.99,152L6.53,152L6.65,135.97L7.12,56.16L7.36,146.72L7.48,152L9.5,151.25L9.62,137.6L9.74,130.1L10.09,146.38L10.21,145.51L10.33,152L12.23,152L12.35,151.16L12.59,145.59L13.06,151.63L13.18,152L15.08,152L15.2,149.89L15.32,142.53L15.91,145.51L16.03,152L17.93,152L18.05,128.51L19,152L19.12,152L20.78,152L20.9,127.9L21.73,152L21.85,152L23.63,152L23.75,139.21L23.98,126.62L24.7,152L24.82,152L26.48,152L26.6,143.83L26.72,140.33L26.83,106.74L27.78,152L27.9,152L29.33,152L29.45,149.7L29.68,131.09L30.04,144.3L30.16,149.73L30.99,152L31.11,152L32.18,152L32.3,145.11L32.53,141.26L32.89,147.58L33.01,150.87L33.84,152L33.96,152L35.03,152L35.15,150.66L35.38,143.36L35.86,148.46L35.98,151.86L37.05,152L37.16,152L37.88,152L38,145.36L38.11,144.57L38.23,130.3L39.06,152L39.18,152L40.73,152L40.84,143.4L41.08,144.24L41.2,138.04L41.32,115.19L42.27,152L42.39,152L43.58,152L43.69,118.25L44.17,59.06L44.41,120L44.53,151.46L45.36,152L45.48,152L46.43,152L46.54,150.98L46.9,127.25L47.26,147.39L47.38,151.55L48.21,152L48.33,152L49.28,152L49.39,144.57L49.51,101.58L50.11,141.75L50.22,126.66L51.06,152L51.17,152L52.12,152L52.24,101.78L52.72,47.13L52.96,106.88L53.07,132.09L53.91,152L54.02,152L54.97,152L55.09,146.97L55.57,127.51L55.81,141.01L55.92,145.63L56.76,152L56.87,152L57.82,152L57.94,103.02L58.3,47.34L58.66,90.15L58.77,125.78L59.6,152L59.72,152L60.67,152L60.79,143.22L60.91,142.74L61.03,143.41L61.15,143.04L61.27,145.13L62.45,152L62.57,152L63.52,152L63.64,151.24L64,138.48L64.35,138.88L64.47,147.58L65.3,152L65.42,152L66.37,152L66.49,147.71L66.73,101.78L67.09,141.95L67.2,145.91L67.32,142.05L67.44,152L67.68,152L67.8,152L69.22,152L69.34,136.24L69.58,95.35L69.82,141.3L69.93,135.38L70.05,147.47L70.88,152L71,152L72.07,152L72.19,148.67L72.31,140.13L72.9,148.48L73.02,151.46L73.85,152L73.97,152L74.92,152L75.04,147.7L75.52,101.74L75.63,71.2L76.47,152L76.58,152L77.77,152L77.89,104.97L78.13,114.91L78.25,140.32L78.37,136.44L78.72,147.63L78.84,152L80.62,152L80.74,139.94L80.98,131.22L81.1,120.61L81.21,119.24L81.33,129.3L82.28,152L82.4,152L83.47,152L83.59,142.37L83.95,115.06L84.06,78.51L84.9,152L85.01,152L86.32,152L86.44,104.52L86.68,76.94L87.03,124.26L87.15,109.51L87.27,115.87L88.1,152L88.22,152L89.17,152L89.29,140.35L89.41,126.88L89.88,146.57L90,145.54L90.95,152L91.07,152L92.02,151.85L92.14,150.53L92.61,113.32L92.73,71.36L93.8,152L93.92,152L94.87,152L94.99,148.17L95.34,137.66L95.7,143.67L95.82,146.6L96.65,152L96.77,152L97.72,151.52L97.84,129.38L98.19,112.3L98.55,117.59L98.67,123.7L99.5,152L99.62,152L100.57,151.68L100.69,136.37L101.4,122.55L101.52,133.7L102.35,152L102.47,152L103.42,152L103.54,150.93L104.13,117.56L104.37,139.13L104.49,152L106.27,151.98L106.39,148.46L106.62,131.23L107.1,139.83L107.22,148.96L108.05,152L108.17,152L109,152L109.12,150.28L109.83,77.22L109.95,90.6L110.07,106.19L110.9,152L111.02,152L111.85,152L111.97,149.43L112.32,53.69L112.56,94.4L112.68,95.95L113.63,152L113.75,152L114.82,151.37L114.94,147.63L115.29,123.58L115.53,143.72L115.65,147.41L115.77,140.69L115.89,152L116.24,152L116.36,152L117.55,152L117.67,148.03L118.38,125.86L118.5,136.23L118.62,141.69L119.45,152L119.57,152L120.4,152L120.52,151.06L120.87,124.79L121.35,130.94L121.47,138.81L122.3,152L122.42,152L123.25,152L123.37,131.21L123.84,28.93L124.2,71.24L124.32,105.19L125.15,152L125.27,152L126.1,152L126.22,140.28L126.33,137.91L126.45,63.29L126.57,65.17L126.69,40.3L126.81,41.43L126.93,52.9L128,152L128.12,152L128.95,152L129.06,124.81L129.54,27.8L129.9,68.91L130.01,103.26L130.85,152L130.96,152L131.8,152L131.91,126.83L132.51,32.05L132.75,68.98L132.86,102.19L133.7,152L133.81,152L134.65,152L134.76,126.18L135.24,34.32L135.6,68.92L135.71,101.52L136.55,152L136.66,152L137.5,152L137.61,123.63L138.09,34.75L138.45,69.87L138.56,101.01L139.39,152L139.51,152L140.34,152L140.46,124.25L141.06,44.24L141.18,136.99L142.13,152L142.24,152L143.19,152L143.31,137.51L143.55,57.32L144.03,65.73L144.14,114.31L145.09,152L145.21,152L146.04,152L146.16,134.41L146.4,140.32L146.52,97.3L146.64,55.25L147.11,145.39L147.23,152L148.89,152L149.01,145.88L149.25,129.04L149.84,137.67L149.96,147.47L150.79,152L150.91,152L151.74,152L151.86,122.9L152.34,28.56L152.69,79.08L152.81,112.82L153.64,152L153.76,152L154.59,152L154.71,122.62L155.19,34.26L155.54,66.44L155.66,97.61L156.49,152L156.61,152L157.44,152L157.56,120.43L158.04,35.37L158.39,67.86L158.51,97.39L159.34,152L159.46,152L160.29,152L160.41,121.59L160.89,34.28L161.24,72.41L161.36,98.01L162.19,152L162.31,152L163.14,152L163.26,118.84L163.74,33.76L164.09,68.03L164.21,97.28L165.04,152L165.16,152L165.99,152L166.11,118.68L166.59,29.97L166.82,83.58L166.94,137.83L167.06,93.08L167.3,152L167.65,152L167.77,152L168.84,152L168.96,151.1L169.32,108.84L169.43,119.24L169.55,144.59L169.79,135.47L169.91,136.57L170.03,145.64L170.86,152L170.98,152L171.69,152L171.81,147.11L172.28,134.22L172.52,143.58L172.64,146.19L172.76,129.3L173,152L173.23,152L173.35,152L174.54,152L174.66,144.19L175.37,85.38L175.49,117.11L176.44,152L176.56,152L177.39,152L177.51,139.98L177.63,113.75L177.75,146.04L178.22,142.72L178.34,143.9L178.58,131.32L179.17,152L179.29,152L180.24,152L180.36,116.69L180.48,113.96L180.6,118.41L180.71,58.26L181.66,152L181.78,152L183.09,151.99L183.21,122.74L183.68,36.52L183.92,125.9L184.04,121.44L184.16,117.89L184.28,144.24L185.11,152L185.23,152L185.94,151.38L186.06,119.37L186.18,79.12L186.41,145.49L186.77,121.11L186.89,139.37L187.13,133.16L187.72,152L187.84,152L188.79,152L188.91,147.02L189.26,52.16L189.74,92.53L189.86,137.52L189.98,130.6L190.09,152L190.33,152L190.45,152L191.64,151.99L191.76,148.51L192.11,79.88L192.47,111.92L192.59,141.12L192.71,137.71L192.94,152L193.06,152L194.49,152L194.61,151.1L195.08,109.49L195.2,131.82L195.32,135.02L195.44,127.79L195.68,130.66L195.79,152L197.34,151.99L197.46,149.06L197.69,123.68L197.81,51.41L198.05,15.3L198.64,152L198.76,152L200.07,152L200.19,150L200.9,19.15L201.02,142.11L201.14,58.19L201.49,152L201.73,152L201.85,152L202.92,152L203.04,149.24L203.39,54.1L203.63,123.04L203.75,144.6L203.87,139.92L203.99,56.95L204.94,152L205.06,152L205.77,152L205.89,149.02L206.36,128.21L206.6,134.03L206.72,152L206.84,142.19L207.43,152L207.55,152L208.74,151.37L208.85,148.62L209.21,136.47L209.57,139.8L209.69,145.42L210.75,152L210.87,152L211.59,151.72L211.7,144.51L212.18,112.22L212.42,116.66L212.54,94.47L212.65,87.63L212.77,143.14L213.6,152L213.72,152L214.32,152L214.44,142.38L214.91,24.83L215.15,54.26L215.27,130.92L215.5,102.21L216.22,152L216.34,152L217.17,152L217.29,140.38L218,65.58L218.12,97.64L218.23,120.71L219.3,152L219.42,152L220.02,152L220.13,146.7L220.85,39.6L221.08,76.8L221.2,91.21L222.03,152L222.15,152L222.87,152L222.98,140.73L223.58,15.65L223.93,53.91L224.05,83.41L225,152L225.12,152L225.72,152L225.83,138.89L226.43,11.94L226.78,54.75L226.9,86.75L227.85,152L227.97,152L228.56,152L228.68,140.05L229.28,24.58L229.51,52.55L229.63,85.58L229.75,86.96L229.87,124.36L230.7,152L230.82,152L231.41,152L231.53,137.97L232.13,18.97L232.48,56.55L232.6,86.04L233.55,152L233.67,152L234.26,152L234.38,139.81L235.1,21.2L235.33,63.57L235.45,99.57L236.4,152L236.52,152L237.11,152L237.23,135.89L237.47,90.92L237.59,138.73L238.06,112.58L238.18,143.43L238.3,104.34L238.66,152L238.89,152L239.01,152L239.96,152L240.08,144.23L240.56,102.03L241.03,103.87L241.15,121.91L241.27,125.14L241.39,151.15L242.22,152L242.34,152L242.81,152L242.93,143L243.53,66.16L243.88,88.66L244,127.12L244.12,129.65L244.24,151.64L245.07,152L245.19,152L245.66,152L245.78,139.57L246.26,46.55L246.61,100.57L246.73,114.81L247.56,152L247.68,152L248.51,152L248.63,133.08L249.22,13.56L249.58,50.28L249.7,82.67L250.65,152L250.77,152L251.36,152L251.48,132.85L252.07,21.3L252.43,54.52L252.55,85.48L253.5,152L253.62,152L254.33,152L254.45,131.9L255.04,29.38L255.28,48.02L255.4,85.74L255.52,88.41L255.64,132.64L256.47,152L256.59,152L257.18,152L257.3,133.94L257.89,17.04L258.13,38.26L258.25,93.74L259.2,152L259.32,152L260.03,152L260.15,131.8L260.86,28.35L261.1,57.16L261.22,88.46L262.05,152L262.17,152L262.88,152L263,131.2L263.12,125.17L263.24,68.94L263.47,30.14L263.83,76.97L263.95,89.02L264.9,152L265.02,152L265.73,152L265.85,146.01L266.56,25.74L266.68,115.7L267.63,152L267.75,152L268.58,152L268.7,151.17L269.77,115.22L269.88,122.84L270,148.59L270.83,152L270.95,152L271.43,152L271.55,145.66L271.78,115.57L271.9,44.95L272.26,44.91L272.85,148.3L272.97,152L274.16,152L274.28,151.11L274.87,26.83L275.11,79.62L275.23,126.63L275.35,94.47L275.82,152L275.94,152L277.01,152L277.13,151.19L277.72,77.02L278.08,84.14L278.2,107.85L279.15,152L279.26,152L279.98,152L280.1,140.11L280.33,129.62L280.45,137.25L280.57,59.84L280.69,43.23L280.81,75.45L280.93,127.98L281.76,152L281.88,152L282.71,152L282.83,150.92L283.66,44.77L283.9,81.39L284.01,115.1L284.96,152L285.08,152L285.56,152L285.68,150.41L286.39,34.49L286.51,67.22L286.63,98.34L287.81,152L287.93,152L288.41,152L288.53,151.16L289.12,73.42L289.24,80.26L289.36,152L289.48,48.25L290.07,152L290.19,152L291.26,152L291.38,150.86L291.85,28.87L292.21,62.99L292.33,94.69L293.39,152L293.51,152L294.11,152L294.23,150.55L294.82,24.44L295.18,41.73L295.29,78.52L296.24,152L296.36,152L296.96,152L297.08,150.57L297.79,12.06L298.14,50.18L298.26,84.02L299.21,152L299.33,152L299.81,152L299.92,149.1L300.64,16.7L300.99,53.09L301.11,82.88L302.06,152L302.18,152L302.66,152L302.77,148.67L303.49,13.92L303.84,53.36L303.96,80.49L304.91,152L305.03,152L305.51,152L305.62,148.71L306.22,14.5L306.69,50.15L306.81,79.86L307.76,152L307.88,152L308.35,152L308.47,148.78L309.19,10.61L309.54,50.61L309.66,79.3L310.61,152L310.73,152L311.2,152L311.32,148.5L312.04,12L312.39,50.92L312.51,79.3L313.46,152L313.58,152L314.05,152L314.17,148.07L314.89,11.33L315.24,51.41L315.36,79.94L316.31,152L316.43,152L316.9,152L317.02,147.59L317.62,19.34L318.09,56.4L318.21,79.86L319.16,152L319.28,152L319.75,152L319.87,147.51L320.35,61.58L320.7,84.97L320.82,114.78L320.94,103.7L321.18,133.5L321.3,145.28L322.13,152L322.25,152L322.6,152L322.72,147.51L323.43,20.21L323.67,73.89L323.79,116.09L323.91,104.49L324.15,146.16L324.27,152L325.45,152L325.57,147.47L326.17,21.03L326.4,48.59L326.52,94.38L326.64,56.16L327,145.75L327.11,152L328.3,152L328.42,147L328.78,97.61L329.13,131.54L329.25,143.09L329.61,131.89L329.73,143.4L329.85,151.56L330.68,152L330.8,152L331.15,152L331.27,145.09L331.51,120L331.63,56.72L331.75,45.58L331.86,106.68L332.1,69.27L332.46,145.36L332.58,114.56L332.7,151.56L333.53,152L333.65,152L334,152L334.12,144.45L334.71,56.27L334.95,58.26L335.07,107.12L336.14,152L336.26,152L336.85,152L336.97,144.74L337.56,105.56L338.04,112.53L338.16,138.39L339.11,152L339.23,152L339.82,151.38L339.94,140.74L340.53,37.25L340.65,65.86L340.77,116.83L340.89,116.69L341.01,101.83L341.96,152L342.08,152L342.55,152L342.67,144.6L343.26,27.6L343.74,65.48L343.86,116.55L344.81,152L344.93,152L345.4,152L345.52,144.65L346.23,27.39L346.47,45.15L346.59,67.55L347.54,152L347.66,152L348.25,152L348.37,149.84L348.84,100.54L349.32,117.26L349.44,141.57L349.67,123.76L349.79,143.3L349.91,152L351.1,152L351.22,145.31L351.34,119.03L351.93,123.99L352.05,131.73L352.17,122.07L352.64,143.47L352.76,151.89L353.95,152L354.07,148.94L354.42,127.28L354.54,83.57L354.78,49.31L355.97,152L356.09,152L356.8,151.88L356.92,141.99L357.39,60.65L357.75,114.72L357.87,102.68L358.82,152L358.94,152L359.65,151.95L359.77,143.66L360.48,66.08L360.72,89.35L360.84,97.2L361.79,152L361.9,152L362.5,152L362.62,150.26L362.97,100.73L363.45,112.66L363.57,123.12L364.52,152L364.64,152L365.35,151.52L365.47,141.75L366.3,21.72L366.42,56.66L366.53,136.06L366.65,134.58L366.77,138.88L366.89,148.5L367.72,152L367.84,152L368.2,151.35L368.32,144.01L369.15,13.88L369.27,55.79L369.38,87.57L370.57,152L370.69,152L371.05,152L371.17,150.61L371.76,68.05L372.12,86.23L372.23,137.59L373.18,152L373.3,152L373.9,152L374.02,148.87L374.13,147.78L374.25,137.04L374.73,124.2L374.85,127.06L374.97,55.89L375.92,152L376.03,152L376.75,151.51L376.86,141.18L377.58,8L377.81,53.68L377.93,59.35L379,152L379.12,152L379.48,152L379.6,150.87L379.95,75.77L380.07,45.73L380.19,47.64L380.31,63.75L380.55,17.18L380.78,102.43L380.9,94.04L381.02,109.14L381.85,152L381.97,152L382.45,152L382.56,142.76L383.04,29.52L383.51,80.18L383.63,96.43L384.58,152L384.7,152L385.3,151.75L385.41,148.04L385.65,129.26L385.77,77.36L386.84,149.29L386.96,152L388.14,151.51L388.26,139.93L388.98,18.43L389.33,53.28L389.45,86.62L390.4,152L390.52,152L390.88,152L390.99,149.98L391.35,80.15L391.47,53.58L391.71,23.44L392.06,65.2L392.18,83.9L393.13,152L393.25,152L393.73,152L393.84,149.88L394.08,111.88L394.2,80.94L394.56,25.4L394.91,41.48L395.03,69.83L395.86,152L395.98,152L396.69,152L396.81,140.5L396.93,138.28L397.05,118.54L397.29,106.35L397.52,130.7L397.64,123.94L397.76,131.72L398.71,152L398.83,152L399.54,152L399.66,151.03L399.9,140.93L400.02,141.86L400.14,131.87L401.09,150.94L401.21,152L402.39,151.53L402.51,146.39L402.63,148.72L402.87,139.89L402.99,139.11L403.22,140.92L403.46,135.22L403.58,139.26L403.7,125.12L403.82,111.75L404.17,152L404.29,152L405.12,152L405.24,149.33L405.72,60.95L405.84,45.42L406.19,23.63L406.43,55.02L406.55,79.16L407.5,152L407.62,152L407.97,152L408.09,149.56L408.45,81.57L408.57,59.37L408.92,27.77L409.16,41.65L409.28,152L409.4,90.08L409.99,152L410.11,152L410.82,152L410.94,149.15L411.65,60.79L411.89,96.03L412.01,122.51L412.25,103.27L412.49,138.07L412.6,148.91L413.44,152L413.55,152L413.91,140.79L414.03,111.1L414.62,25.6L414.86,72.49L414.98,74.68L415.93,152L416.05,152L416.52,152L416.64,148.93L417.12,65.65L417.23,50.93L418.66,152L418.78,152L419.49,152L419.61,150.32L419.85,139.5L419.97,129.51L420.32,93.86L420.44,115.36L421.98,152L422.1,152L422.34,148.9L422.46,150.08L422.58,130.76L422.93,120.14L423.05,77.07L423.41,70.27L424.12,152L424.24,152L425.07,152L425.19,149.45L425.67,64.82L425.78,42.53L426.02,17.16L426.38,54.59L426.5,78.69L427.45,152L427.56,152L427.92,152L428.04,148.83L428.16,148.64L428.28,132.29L428.51,71.2L428.75,139.75L428.99,91.87L429.11,102.83L429.35,89.81L430.06,152L430.18,152L430.77,152L430.89,149.2L431.25,83.08L431.36,58.61L431.72,39.44L431.96,60.24L432.08,72.05L433.15,152L433.26,152L433.62,152L433.74,149.19L434.1,81.96L434.21,57.38L434.57,19.25L434.93,52.25L435.05,79.2L435.99,152L436.11,152L436.47,152L436.59,148.98L436.83,112.06L436.94,81.81L437.42,23.25L437.66,39.77L437.78,96.98L437.89,96.05L438.01,125.35L438.84,152L438.96,152L439.32,152L439.44,148.69L439.91,59.73L440.03,41.11L440.27,21.56L440.51,37.82L440.63,56.44L441.69,152L441.81,152L442.17,152L442.29,148.36L442.64,83.44L442.76,58.76L443.12,22.48L443.48,55.57L443.59,79.73L444.54,152L444.66,152L445.02,152L445.14,148.27L445.49,82.44L445.61,57.11L445.97,68.82L446.09,86.06L446.32,69.19L446.56,125.84L446.68,144.3L447.63,152L447.75,152L448.11,139.22L448.22,111.7L448.82,17.75L449.17,53.07L449.29,78.2L450.24,152L450.36,152L450.84,151.96L450.96,149.35L451.55,55.52L451.67,25.3L451.79,17.88L452.02,48.31L452.14,76.07L453.09,152L453.21,152L453.57,152L453.69,148.14L454.16,69.42L454.28,38.6L454.4,27.57L454.64,56.07L454.76,94.78L455.7,152L455.82,152L456.54,151.96L456.65,146.02L456.77,147.75L457.01,141.5L457.13,140.9L457.49,32.54L457.84,147.58L457.96,148.83L458.91,152L459.03,152L459.27,152L459.39,148.33L459.62,113.92L459.74,88.22L459.98,108.08L460.1,84.61L460.22,92.79L460.34,67.96L461.76,152L461.88,152L462.12,152L462.24,151.13L462.71,84.22L462.83,115.9L462.95,141.79L463.07,142.6L463.19,123.86L463.3,97.78L463.42,138.33L463.78,136.3L463.9,151.84L464.85,152L464.97,152L465.09,151.02L465.2,138.83L465.92,25.64L466.27,57.28L466.39,79.29L467.34,152L467.46,152L467.82,152L467.93,148.54L468.29,85.53L468.41,59.74L468.77,25.44L469,80.05L469.12,110.81L469.24,89.59L469.6,150.64L469.72,152L470.67,152L470.78,148.74L471.14,82.76L471.26,57.63L471.38,41.05L471.62,64.87L471.85,60.24L471.97,74.74L473.16,152L473.28,152L473.63,151.77L473.75,150.03L473.99,138.66L474.11,122.92L474.23,119.03L474.35,138.61L474.47,99.55L474.94,86.56L475.42,152L475.53,152L476.48,151.37L476.6,142.41L477.08,42.5L477.55,65.11L477.67,68.08L478.86,152L478.98,152L479.21,152L479.33,148.34L479.57,112.82L479.69,81.8L480.28,36.28L480.52,63.75L480.64,80.81L481.59,152L481.71,152L482.06,152L482.18,149.67L483.01,27.73L483.25,40.37L483.37,67.92L484.56,152L484.68,152L485.03,151.78L485.15,150.88L485.27,148.76L485.39,132.61L485.63,38.98L486.1,90.49L486.22,132.53L486.46,123.99L487.17,152L487.29,152L487.76,152L487.88,148.32L488.12,114.2L488.24,91.8L488.48,53.17L488.95,98.75L489.07,87.13L489.19,90.64L489.31,121.71L490.26,152L490.38,152L490.61,152L490.73,149.55L491.33,75.33L491.44,94.58L491.56,142.06L491.68,138.18L492.04,145.04L492.16,148.98L492.28,147.59L492.51,152L492.63,152L492.75,152L493.46,152L493.58,151.13L494.41,54.45L494.53,119.63L494.77,62.04L495.13,136.6L495.24,147.7L496.07,152L496.19,152L496.55,141.89L496.67,114.09L497.26,20.67L497.62,53.73L497.74,76.93L498.69,152L498.81,152L499.16,152L499.28,148.39L499.76,60.53L499.87,43.2L500.11,31.83L500.35,41.76L500.47,60.91L501.54,152L501.66,152L502.01,152L502.13,148.43L502.49,89.24L502.61,65.94L502.96,35.06L503.32,61.82L503.44,82.99L504.39,152L504.51,152L504.86,152L504.98,148.68L505.34,88.37L505.45,63.48L505.81,28.33L506.17,56.34L506.29,79.75L507.24,152L507.35,152L507.71,152L507.83,149.01L508.07,113.06L508.19,80.96L508.66,21.22L509.02,52.44L509.14,75.76L510.09,152L510.2,152L510.56,152L510.68,148.69L510.92,113.85L511.04,82.51L511.51,23.37L511.87,53.73L511.99,77.73L512.94,152L513.05,152L513.41,152L513.53,149.03L513.77,114.44L513.89,84.33L514.36,28.46L514.72,56.67L514.84,88.58L515.9,152L516.02,152L516.26,152L516.38,148.89L516.85,66.1L516.97,50.55L517.21,32.54L517.33,53.57L517.45,139.33L517.92,135.8L518.4,152L518.52,152L519.11,152L519.23,148.72L519.58,85.63L519.7,57.1L520.06,21.52L520.42,52.03L520.53,75.98L521.48,152L521.6,152L521.96,152L522.08,148.66L522.43,85.85L522.55,61.7L522.91,29.28L523.27,53.42L523.38,76.23L524.33,152L524.45,152L524.81,152L524.93,148.98L525.16,113.6L525.28,82.04L525.76,24.17L526.11,54.52L526.23,76.96L527.18,152L527.3,152L527.66,152L527.78,149.42L528.49,65.83L528.61,66.5L528.73,28.75L530.15,152L530.27,152L530.51,152L530.63,149.01L530.86,116.06L530.98,85.95L531.46,26.97L531.58,91.42L531.7,84.42L531.81,138.23L532.05,124.48L532.29,148.01L532.41,152L533.48,152L533.6,150.05L533.83,146.61L533.95,118.21L534.55,59.85L534.66,99.17L534.78,140.88L534.9,121.1L535.26,152L535.38,152L535.49,152L536.33,152L536.44,139.85L537.28,48.77L537.39,60.81L537.51,84.57L538.58,152L538.7,152L539.06,152L539.18,149.16L540.13,73.7L540.24,86.6L540.36,93.25L540.6,108.11L540.72,135.31L541.55,152L541.67,152L541.91,152L542.03,149.36L542.38,83.08L542.5,59.58L542.86,21.72L543.09,34.45L543.21,52.6L544.4,152L544.52,152L544.87,151.96L544.99,150.85L545.47,100.45L545.82,131.34L545.94,128.95L546.18,133.2L546.3,145.84L546.42,140.62L546.66,152L546.89,152L547.01,152L547.72,151.96L547.84,140.73L548.79,77.68L548.91,78.32L549.03,85.35L549.98,152L550.1,152L550.57,151.29L550.69,150.34L551.64,52.65L551.76,144.89L551.88,91.94L552.36,152L552.47,152L552.59,152L553.31,152L553.42,151.11L554.37,43.7L554.49,51.18L554.61,90.36L554.73,89.27L554.85,122.05L555.8,152L555.92,152L556.27,152L556.39,141.26L557.1,56.24L557.34,93.32L557.46,106.79L557.58,101.56L557.7,128.25L557.82,135.1L558.65,152L558.77,152L559,152L559.12,149.92L559.48,84.23L559.6,60.19L559.95,21.28L560.31,52.41L560.43,75.66L561.38,152L561.5,152L561.85,152L561.97,149.93L562.21,117.19L562.33,86.41L562.8,35.28L563.04,58.09L563.16,73.54L564.35,152L564.47,152L564.82,151.84L564.94,142.5L565.77,43.35L565.89,68.88L566.01,75.77L566.25,107.45L566.37,136.44L567.2,152L567.32,152L567.55,152L567.67,151.13L568.03,121.61L568.15,125.77L568.27,79.16L568.38,83.42L568.62,67.6L568.74,123.35L568.86,86.22L569.33,147.71L569.45,152L570.4,152L570.52,150.38L570.88,89.02L571,64.61L571.23,37.89L571.59,48.62L571.71,146.34L571.83,146.92L571.95,119.62L572.9,152L573.02,152L573.37,152L573.49,150.27L574.32,38.85L574.44,43.74L574.56,88.68L574.68,80.81L574.8,109.5L574.91,136.86L575.75,152L575.86,152L576.1,152L576.22,151.21L576.7,76.15L576.81,47.51L577.05,51.1L577.17,42.87L577.29,47.53L577.41,61.89L578.36,152L578.48,152L578.95,152L579.07,150.86L579.31,119.65L579.43,89.85L579.9,32.32L580.26,60.13L580.38,82.4L581.33,152L581.45,152L581.8,152L581.92,150.88L582.16,119.94L582.28,89.67L582.75,33.74L583.11,60.8L583.23,82.85L584.18,152L584.3,152L584.77,151.41L584.89,142.88L585.48,41.04L585.96,69.05L586.08,101.18L587.14,152L587.26,152L587.62,151.97L587.74,143.16L588.33,44.46L588.69,92.34L588.81,115.15L589.76,152L589.88,152L590.47,152L590.59,149.26L590.83,143.69L590.94,117.06L591.3,47.09L591.54,70.55L591.66,144.7L592.84,152L592.96,152L593.32,151.96L593.44,148.75L593.79,77.51L593.91,97.52L594.03,137.95L594.39,145.34L594.62,133.18L594.74,146.03L595.69,152L595.81,152L596.29,151.33L596.41,150.05L597.24,122.93L597.36,137.03L597.71,143.65L597.83,150.34L598.66,152L598.78,152L599.02,152L599.14,148.53L599.37,128.98L599.49,78.69L600.21,133.56L600.32,88.35L601.27,152L601.39,152L601.99,151.5L602.11,149.62L602.7,66.46L602.94,72.18L603.06,125.04L603.29,120.23L603.41,138.57L604.24,152L604.36,152L604.72,152L604.84,143.93L605.55,42.22L605.79,70.79L605.9,77.32L606.02,80.22L606.14,112.72L606.97,152L607.09,152L607.57,152L607.69,144.29L608.4,31.42L608.75,61.82L608.87,106.67L608.99,109.04L609.11,140.21L609.94,152L610.06,152L610.42,152L610.54,144.39L611.13,82.73L611.25,118.95L611.37,135.96L611.49,97.53L611.96,141.95L612.08,150.6L612.91,152L613.03,152L613.27,152L613.39,144.32L614.22,34.78L614.45,57.87L614.57,81.07L615.52,152L615.64,152L616.12,152L616.23,144.79L617.07,67.43L617.3,80.03L617.42,147.57L617.54,133.3L617.78,152L618.13,152L618.25,152L618.97,152L619.08,146.98L619.68,35.37L619.8,46.41L619.92,117.74L620.03,91.65L620.51,150.02L620.63,150.13L621.46,152L621.58,152L621.82,152L621.93,148.85L622.05,149.86L622.17,115.15L622.53,145L623,144.3L623.12,137.1L623.95,152L624.07,152L624.66,152L624.78,147.27L625.38,36.64L625.73,48.81L625.85,85.51L625.97,81.32L626.09,110.08L626.92,152L627.04,152L627.51,152L627.63,145.48L628.35,31.82L628.58,66.46L628.7,81.72L628.94,117.24L629.06,142.11L629.89,152L630.01,152L630.48,151.68L630.6,149.56L630.72,148.78L630.84,136.7L630.96,135.91L631.08,116.2L631.2,144.57L631.55,74.44L631.91,141.19L632.03,150.71L632.86,152L632.98,152L633.21,152L633.33,146.53L634.04,27.56L634.4,56.81L634.52,80.61L635.47,152L635.59,152L636.18,151.74L636.3,143.01L636.42,144.78L636.54,139.9L636.66,140.71L636.78,122.73L637.01,142.91L637.13,138L637.25,59.07L638.2,152L638.32,152L638.91,152L639.03,146.85L639.63,43.32L639.98,75.12L640.1,94.13L641.17,152L641.29,152L641.76,152L641.88,146.64L642.48,54.19L642.71,60.2L642.83,105.73L642.95,107.22L643.07,84.51L644.02,152L644.14,152L644.61,152L644.73,146.46L645.56,68.6L645.8,83.97L645.92,148.32L646.04,125.65L646.39,152L646.63,152L646.75,152L647.46,152L647.58,146.62L648.17,36.15L648.65,70.17L648.77,90.47L649.72,152L649.84,152L650.31,152L650.43,146.99L650.67,145.36L650.79,100.64L651.02,79.41L651.14,100.79L651.26,86.7L651.38,124.25L652.33,152L652.45,152L653.16,152L653.28,147.85L653.99,29.43L654.35,59.71L654.47,84.61L655.42,152L655.54,152L656.13,151.88L656.25,148.27L656.6,115.77L656.72,89.51L657.55,146.39L657.67,152L658.98,151.59L659.1,145.12L659.81,128.48L659.93,144.23L660.05,138.9L660.4,146.74L660.52,152L661.71,152L661.83,147.51L662.54,33.62L662.78,58.09L662.9,84.49L663.14,122.18L663.25,143.41L664.08,152L664.2,152L664.56,152L664.68,147.61L665.39,24.33L665.75,59.39L665.87,84.24L666.82,152L666.93,152L667.41,152L667.53,148.17L668.24,33.97L668.6,60.82L668.72,87.54L669.67,152L669.78,152L670.26,152L670.38,149.29L671.09,38.01L671.45,74.32L671.57,109.06L672.52,152L672.63,152L673.11,152L673.23,148.4L673.94,37.06L674.06,76.09L674.18,131.33L674.3,81.13L674.77,152L674.89,152L675.96,152L676.08,148.62L676.79,32.64L677.03,50.64L677.15,75.99L678.1,152L678.21,152L678.81,152L678.93,148.79L679.52,37.49L679.88,92.08L680,80.61L681.06,152L681.18,152L681.66,152L681.78,150.68L682.49,33.44L682.73,48.91L682.85,66.72L683.91,152L684.03,152L684.63,151.67L684.74,149.22L685.34,136.63L685.46,43.83L686.76,152L686.88,152L687.36,152L687.48,149.37L688.19,37.17L688.43,54.29L688.54,77.97L689.61,152L689.73,152L690.21,152L690.33,149.76L691.04,29.2L691.39,67.71L691.51,91.79L692.46,152L692.58,152L693.06,152L693.18,150.6L693.77,39.9L694.01,60.84L694.12,114.91L695.07,152L695.19,152L695.91,152L696.02,150.01L696.62,40.9L696.97,98.48L697.09,123.75L697.21,94.34L697.57,152L697.69,152L697.81,152L698.76,152L698.87,150.38L699.59,26.5L699.94,61.88L700.06,88.53L701.01,152L701.13,152L701.61,152L701.72,150.37L702.44,27.66L702.79,63.85L702.91,90.15L703.86,152L703.98,152L704.45,152L704.57,150.49L704.81,130.32L705.29,130.86L705.4,142.06L705.52,131.09L706,150.26L706.12,152L707.42,151.57L707.54,144.94L707.9,83.73L708.25,108.11L708.37,139.24L708.49,138.19L708.61,143.73L708.73,145.36L709.56,152L709.68,152L710.27,152L710.39,146.34L710.51,146.71L710.63,116.66L710.87,75.65L710.99,82.63L711.1,126.18L711.22,118.01L711.58,142.01L711.7,149.86L712.53,152L712.65,152L713.12,152L713.24,146.03L713.48,133.88L713.6,102.29L714.55,151.57L714.67,152L715.85,152L715.97,151.14L716.45,128.25L716.68,138.05L716.8,141.36L716.92,143.22L717.04,138.41L717.16,119L718.11,152L718.23,152L718.82,151.47L718.94,139.32L719.06,135.39L719.18,88.36L719.65,49.34L719.89,77.22L720.01,100.08L720.96,152L721.08,152L721.55,152L721.67,151.17L722.38,31.42L722.62,81.77L722.74,87.61L723.69,152L723.81,152L724.52,152L724.64,141.28L725,73.46L725.11,58.38L725.47,51.88L726.06,152L726.18,152L727.37,151.51L727.49,130.06L728.2,45.3L728.32,67.84L728.44,97.93L729.39,152L729.51,152L730.22,152L730.34,140.3L730.81,46.85L731.17,69.53L731.29,84.99L732.36,152L732.48,152L733.07,151.88L733.19,131.18L733.78,34.53L734.14,71.06L734.26,98.28L735.21,152L735.33,152L735.92,152L736.04,136.51L736.75,48.45L736.87,81.88L736.99,105.41L737.82,152L737.94,152L738.77,152L738.89,148.21L739.72,115.76L739.84,84.14L740.91,152L741.03,152L741.62,152L741.74,129.1L742.33,27.97L742.69,66.76L742.81,95.35L743.64,152L743.76,152L744.47,152L744.59,129.36L745.18,26.85L745.42,45.1L745.54,67.95L746.49,152L746.61,152L747.32,152L747.44,132.47L747.91,53.15L748.27,81.86L748.39,94.71L749.46,152L749.57,152L750.17,152L750.29,130.33L750.88,31.06L751.12,47.45L751.24,70.05L752.19,152L752.31,152L753.02,152L753.14,135.17L753.49,55.48L753.97,93.51L754.09,129.87L754.92,152L755.04,152L755.99,151.58L756.1,150.23L756.46,127.48L756.82,135.55L756.94,139.18L757.05,137.2L757.17,146.67L757.29,152L758.72,152L758.84,136.56L759.43,54.47L759.55,86.84L759.67,113.29L760.5,152L760.62,152L761.57,152L761.69,144.8L762.16,81.76L762.52,120.72L762.64,134.06L762.75,127.68L762.99,152L763.11,152L764.42,152L764.53,138.78L764.89,87.61L765.25,140.28L765.37,135.01L766.32,152L766.43,152L767.27,152L767.38,147.34L767.74,99.34L767.98,100.03L768.1,135.52L768.93,152L769.05,152L770.12,152L770.23,141.93L770.83,56.06L770.95,101.4L771.07,122.92L771.3,133.73L771.42,143.53L772.25,152L772.37,152L772.96,152L773.08,134.88L773.68,35.53L773.91,54.67L774.03,126.58L774.15,107.78L774.39,152L774.51,152L774.63,152L775.81,152L775.93,139.1L776.05,139.65L776.17,122.99L776.65,70.1L776.88,90.87L777,134.65L777.83,152L777.95,152L778.66,152L778.78,137.34L779.26,45.08L779.5,93.07L779.61,133.76L779.73,116.93L780.09,152L780.21,152L780.33,152L781.51,152L781.63,146.08L781.99,103.52L782.35,142.79L782.46,140.59L783.41,152L783.53,152L784.36,152L784.48,136.91L784.96,96.12L785.19,131.35L785.31,144.13L785.43,146.05L785.55,134.25L786.5,152L786.62,152L787.21,152L787.33,144.78L787.57,80.77L787.93,115.62L788.04,136.73L789.35,152L789.47,152L790.06,152L790.18,144.38L790.3,125.35L790.78,145.1L790.89,140.54L791.01,143.99L791.13,138L791.49,152L791.61,152L792.91,152L793.03,148.36L793.39,106.07L793.62,120.47L793.74,140.69L794.93,152L795.05,152L795.76,152L795.88,147.51L796,135.16L796.59,143.14L796.71,142.53L796.95,121.48L797.19,152L797.31,152L797.42,152L798.61,152L798.73,147.22L798.97,123.04L799.32,132.33L799.44,146.72L799.56,142.65L799.92,150.65L800.04,152L801.46,152L801.58,144.46L801.7,149.42L802.06,137.28L802.17,137.82L803.12,152L803.24,152L804.43,151.8L804.55,141.74L804.67,149.41L804.79,89.06L805.02,72.71L805.62,148.45L805.74,152L807.16,152L807.28,143.19L807.87,44.13L808.23,85.43L808.35,116.55L809.18,152L809.3,152L810.01,152L810.13,142.26L810.72,42.89L810.96,101.16L811.08,84.75L811.91,152L812.03,152L812.86,152L812.98,144.69L813.45,44.28L813.93,87.21L814.05,119.59L814.88,152L815,152L815.71,152L815.83,144.17L816.3,45.99L816.66,65.67L816.78,87.51L817.73,152L817.85,152L818.56,152L818.68,146.75L819.15,39.79L819.39,50.99L819.51,124.36L819.63,94.56L819.87,152L820.1,152L820.22,152L821.41,152L821.53,143.27L822,41.54L822.36,83.8L822.48,97.03L823.43,152L823.55,152L824.26,152L824.38,150.63L824.85,72.36L824.97,53.24L825.21,65.31L825.33,88.56L826.28,152L826.4,152L827.11,152L827.23,146.16L827.82,56.19L828.06,94.49L828.18,87.57L829.01,152L829.13,152L829.96,152L830.08,151.21L830.91,121.96L831.03,148.1L831.15,141.29L831.26,152L831.62,152L831.74,152L832.81,152L832.93,150.44L833.64,60.69L833.88,124.16L833.99,138.05L834.83,152L834.94,152L835.78,152L835.89,147.06L836.25,139.11L836.37,66.84L837.2,152L837.32,152L838.51,152L838.63,151.14L839.22,57.72L839.34,89.85L839.46,114.66L839.58,104.63L839.69,138.21L839.81,152L841.48,152L841.59,146.7L842.42,138.19L842.54,148.86L843.37,152L843.49,152L844.32,151.73L844.44,127.12L844.68,129.03L844.8,113.12L845.04,72.41L845.27,96.57L845.39,124.27L846.22,152L846.34,152L847.17,152L847.29,134.85L847.77,55.59L848.01,138.39L848.12,109.52L848.96,152L849.07,152L850.02,152L850.14,121.23L850.62,41.59L850.97,91.43L851.09,129.6L851.92,152L852.04,152L852.75,152L852.87,125.48L853.47,70.69L853.59,126.77L853.7,123.62L854.54,152L854.65,152L855.6,152L855.72,141.01L856.08,95.51L856.2,111.03L856.32,67.04L857.27,152L857.39,152L858.45,152L858.57,146.41L859.05,132.63L859.4,134.62L859.52,145.91L860.35,152L860.47,152L861.3,152L861.42,116.72L861.78,52.12L862.02,112.24L862.13,129.55L863.2,152L863.32,152L864.15,152L864.27,115.97L864.75,35.39L864.98,65.43L865.1,92.2L865.93,152L866.05,152L867,152L867.12,150.57L867.6,139.26L867.95,145.1L868.07,150.3L868.9,152L869.02,152L869.85,152L869.97,149.42L870.45,56.6L870.57,101.51L870.68,114.25L870.8,110.21L870.92,150.34L871.75,152L871.87,152L872.7,152L872.82,149.97L873.41,104.97L873.53,124.51L873.65,144.57L874.48,152L874.6,152L875.55,152L875.67,143.06L875.91,64.21L876.38,134.72L876.5,130.26L877.45,152L877.57,152L878.4,152L878.52,150.59L879,61.07L879.35,106.34L879.47,141.37L880.3,152L880.42,152L881.25,152L881.37,141.42L881.73,76L881.84,144.44L882.2,138.63L882.68,152L882.79,152L884.1,152L884.22,124.45L884.58,47.43L884.93,136.93L885.05,137.79L886,152L886.12,152L886.95,152L887.07,149.35L887.43,135.21L887.78,141.32L887.9,146.7L888.85,152L888.97,152L889.8,152L889.92,149.44L890.63,92.81L890.75,102.13L890.87,139.71L891.7,152L891.82,152L892.65,152L892.77,140.68L893.36,74.61L893.6,115.9L893.72,148.84L894.55,152L894.67,152L895.5,152L895.62,147.89L896.33,131.6L896.45,152L896.57,151.37L897.16,152L897.28,152L898.35,152L898.47,142.16L898.94,129.65L899.06,144.71L899.18,135.89L899.3,145.6L900.13,152L900.25,152L901.2,152L901.32,148.08L901.91,94.45L902.03,114.29L902.15,134.38L902.98,152L903.1,152L904.05,152L904.17,129.81L904.4,116.82L904.52,117.71L904.64,34.06L905,98.86L905.12,145.8L905.95,152L906.07,152L907.02,151.46L907.14,138.6L907.25,135.97L907.49,146.1L907.61,148.08L907.85,143.93L908.56,152L908.68,152L909.75,152L909.87,147.94L909.99,122L910.58,142.7L910.7,147.72L911.53,152L911.65,152L912.72,152L912.83,148.01L912.95,148.87L913.07,145.1L913.19,145.26L913.31,132.6L913.43,132.78L913.55,140.42L914.38,152L914.5,152L915.45,152L915.57,148.2L915.92,53.4L916.4,115.52L916.52,149.09L917.35,152L917.47,152L918.3,152L918.42,146.73L918.65,71.38L919.01,125.91L919.13,144.99L919.25,135.16L919.37,152L919.72,152L919.84,152L921.15,152L921.26,147.47L921.5,129.04L921.62,100.49L921.74,104.64L921.86,95.44L921.98,135.6L922.93,152L923.05,152L924.11,151.37L924.23,147L924.47,144.41L924.59,144.55L924.71,139.23L925.66,152L925.78,152L926.96,151.45L927.08,147.84L927.32,134.95L927.68,150.25L927.8,150.47L928.63,152L928.75,152L929.7,152L929.81,140.34L930.41,64.82L930.53,129.02L930.65,142.96L931.48,152L931.59,152L932.54,152L932.66,149.59L932.9,116.27L933.49,136.91L933.61,152L935.51,151.86L935.63,130.27L935.75,130.77L935.87,146.88L935.99,141.22L936.46,152L936.58,152L938.24,152L938.36,150.67L938.72,129.14L939.08,146.27L939.19,148.6L940.03,152L940.14,152L941.21,151.99L941.33,148.86L941.57,150.04L941.69,140.06L941.81,146.07L941.92,75L942.87,152L942.99,152L944.06,151.44L944.18,146.08L944.54,96.82L944.89,147.34L945.01,152L946.91,151.89L947.03,141.51L948.1,152L948.22,152L949.76,152L949.88,139.14L950.47,129.2L950.59,140.32L950.71,152L952.61,152L952.73,140.58L953.2,136.16L953.68,152L953.8,152L955.46,152L955.58,142.86L955.82,58.91L956.17,75.98L956.29,143.59L957.12,152L957.24,152L958.31,152L958.43,134.26L959.02,75.46L959.14,120.6L959.97,152L960.09,152L961.16,152L961.28,113.38L961.63,52.88L961.99,122.88L962.11,152L964.01,152L964.13,142.47L964.48,133.68L964.72,137.16L964.84,148.97L965.67,152L965.79,152L966.86,152L966.98,135.45L967.33,59.2L967.69,130.44L967.81,152L969.71,152L969.83,134.19L970.07,122.14L970.18,91.24L970.42,76.86L971.25,152L971.37,152L972.56,152L972.68,117.81L973.15,75.81L973.27,95.17L973.39,146.12L974.22,152L974.34,152L975.41,152L975.53,98.38L975.76,56.38L976,124.71L976.12,80.65L976.24,147.85L977.07,152L977.19,152L978.26,152L978.38,141.44L978.97,106.69L979.09,147.52L979.92,152L980.04,152L981.11,152L981.23,142.86L981.46,99.66L981.94,149.19L982.06,152L983.96,152L984.08,138.71L984.43,135.07L985.03,152L985.14,152L986.81,152L986.93,149.62L987.04,149.51L987.16,140.93L987.4,140.23L988.23,152L988.35,152L989.66,152L989.78,146.66L990.13,53.69L990.25,147.28L990.49,109.19L990.61,152L992.51,152L992.62,134.76L992.74,74.93L993.22,117.19L993.34,150.1L994.17,152L994.29,152L995.36,152L995.47,116.2L995.83,56.8L996.07,81.18L996.19,142.94L997.02,152L997.14,152L998.21,152L998.32,143.79L998.68,62.85L999.04,146.95L999.16,152L1001.05,152L1001.17,112.58L1001.77,105.43L1002.12,152L1002.24,152L1003.9,152L1004.02,145.38L1004.5,66.19L1004.74,125.5L1004.85,152L1006.75,152L1006.87,119.77L1007.11,137.06L1007.23,58.69L1008.06,152L1008.18,152L1009.6,152L1009.72,141.32L1009.96,107.16L1010.43,128.36L1010.55,152L1012.45,152L1012.57,144.77L1013.05,100.67L1013.17,150.37L1013.28,128.46L1013.4,152L1013.88,152L1014,152L1015.3,152L1015.42,132.85L1016.37,152L1016.49,152L1018.15,152L1018.27,140.22L1018.51,78.98L1018.87,150.99L1018.98,149.35L1019.82,152L1019.93,152L1021,152L1021.12,149.58L1021.36,147.03L1021.48,123.42L1022.43,152L1022.55,152L1023.85,152L1023.97,148.22L1024.33,57.76L1024.56,127.16L1024.68,144.07L1025.51,152L1025.63,152L1026.7,152L1026.82,142.46L1027.06,129.72L1027.3,145.04L1027.41,141.2L1027.53,146.6L1028.36,152L1028.48,152L1029.55,152L1029.67,114.57L1029.79,112.15L1029.91,119.87L1030.03,129.5L1031.09,152L1031.21,152L1032.4,152L1032.52,111.51L1032.88,46.59L1033.11,80.12L1033.23,109.5L1034.06,152L1034.18,152L1035.25,152L1035.37,111.35L1035.73,50.13L1036.08,108.19L1036.2,152L1038.1,152L1038.22,115.05L1038.58,76.63L1039.29,152L1039.41,152L1040,152" style="vector-effect: none; fill: none; stroke: rgb(0, 117, 173); stroke-opacity: 1; stroke-width: 2px; opacity: 1;"/></g><g class="points"/><g class="text"/></g></g></g><g class="overplot"/><path class="xlines-above crisp" d="M0,0" style="fill: none;"/><path class="ylines-above crisp" d="M0,0" style="fill: none;"/><g class="overlines-above"/><g class="xaxislayer-above"><g class="xtick"><text text-anchor="middle" x="0" y="199" transform="translate(80,0)" style="font-family: Arial; font-size: 13px; fill: rgb(51, 51, 51); fill-opacity: 1; white-space: pre; opacity: 1;">Jan 2019</text></g><g class="xtick"><text text-anchor="middle" x="0" y="199" style="font-family: Arial; font-size: 13px; fill: rgb(51, 51, 51); fill-opacity: 1; white-space: pre; opacity: 1;" transform="translate(168.34,0)">Feb 2019</text></g><g class="xtick"><text text-anchor="middle" x="0" y="199" style="font-family: Arial; font-size: 13px; fill: rgb(51, 51, 51); fill-opacity: 1; white-space: pre; opacity: 1;" transform="translate(248.13,0)">Mar 2019</text></g><g class="xtick"><text text-anchor="middle" x="0" y="199" style="font-family: Arial; font-size: 13px; fill: rgb(51, 51, 51); fill-opacity: 1; white-space: pre; opacity: 1;" transform="translate(336.47,0)">Apr 2019</text></g><g class="xtick"><text text-anchor="middle" x="0" y="199" style="font-family: Arial; font-size: 13px; fill: rgb(51, 51, 51); fill-opacity: 1; white-space: pre; opacity: 1;" transform="translate(421.96,0)">May 2019</text></g><g class="xtick"><text text-anchor="middle" x="0" y="199" style="font-family: Arial; font-size: 13px; fill: rgb(51, 51, 51); fill-opacity: 1; white-space: pre; opacity: 1;" transform="translate(510.3,0)">Jun 2019</text></g><g class="xtick"><text text-anchor="middle" x="0" y="199" style="font-family: Arial; font-size: 13px; fill: rgb(51, 51, 51); fill-opacity: 1; white-space: pre; opacity: 1;" transform="translate(595.78,0)">Jul 2019</text></g><g class="xtick"><text text-anchor="middle" x="0" y="199" style="font-family: Arial; font-size: 13px; fill: rgb(51, 51, 51); fill-opacity: 1; white-space: pre; opacity: 1;" transform="translate(684.12,0)">Aug 2019</text></g><g class="xtick"><text text-anchor="middle" x="0" y="199" style="font-family: Arial; font-size: 13px; fill: rgb(51, 51, 51); fill-opacity: 1; white-space: pre; opacity: 1;" transform="translate(772.46,0)">Sep 2019</text></g><g class="xtick"><text text-anchor="middle" x="0" y="199" style="font-family: Arial; font-size: 13px; fill: rgb(51, 51, 51); fill-opacity: 1; white-space: pre; opacity: 1;" transform="translate(857.95,0)">Oct 2019</text></g><g class="xtick"><text text-anchor="middle" x="0" y="199" style="font-family: Arial; font-size: 13px; fill: rgb(51, 51, 51); fill-opacity: 1; white-space: pre; opacity: 1;" transform="translate(946.29,0)">Nov 2019</text></g><g class="xtick"><text text-anchor="middle" x="0" y="199" style="font-family: Arial; font-size: 13px; fill: rgb(51, 51, 51); fill-opacity: 1; white-space: pre; opacity: 1;" transform="translate(1031.78,0)">Dec 2019</text></g></g><g class="yaxislayer-above"><g class="ytick"><text text-anchor="end" x="79" y="4.55" transform="translate(0,177)" style="font-family: Arial; font-size: 13px; fill: rgb(51, 51, 51); fill-opacity: 1; white-space: pre; opacity: 1;">0</text></g><g class="ytick"><text text-anchor="end" x="79" y="4.55" style="font-family: Arial; font-size: 13px; fill: rgb(51, 51, 51); fill-opacity: 1; white-space: pre; opacity: 1;" transform="translate(0,160.49)">0.1</text></g><g class="ytick"><text text-anchor="end" x="79" y="4.55" style="font-family: Arial; font-size: 13px; fill: rgb(51, 51, 51); fill-opacity: 1; white-space: pre; opacity: 1;" transform="translate(0,143.98000000000002)">0.2</text></g><g class="ytick"><text text-anchor="end" x="79" y="4.55" style="font-family: Arial; font-size: 13px; fill: rgb(51, 51, 51); fill-opacity: 1; white-space: pre; opacity: 1;" transform="translate(0,127.47)">0.3</text></g><g class="ytick"><text text-anchor="end" x="79" y="4.55" style="font-family: Arial; font-size: 13px; fill: rgb(51, 51, 51); fill-opacity: 1; white-space: pre; opacity: 1;" transform="translate(0,110.97)">0.4</text></g><g class="ytick"><text text-anchor="end" x="79" y="4.55" style="font-family: Arial; font-size: 13px; fill: rgb(51, 51, 51); fill-opacity: 1; white-space: pre; opacity: 1;" transform="translate(0,94.46)">0.5</text></g><g class="ytick"><text text-anchor="end" x="79" y="4.55" style="font-family: Arial; font-size: 13px; fill: rgb(51, 51, 51); fill-opacity: 1; white-space: pre; opacity: 1;" transform="translate(0,77.95)">0.6</text></g><g class="ytick"><text text-anchor="end" x="79" y="4.55" style="font-family: Arial; font-size: 13px; fill: rgb(51, 51, 51); fill-opacity: 1; white-space: pre; opacity: 1;" transform="translate(0,61.44)">0.7</text></g><g class="ytick"><text text-anchor="end" x="79" y="4.55" style="font-family: Arial; font-size: 13px; fill: rgb(51, 51, 51); fill-opacity: 1; white-space: pre; opacity: 1;" transform="translate(0,44.93)">0.8</text></g><g class="ytick"><text text-anchor="end" x="79" y="4.55" style="font-family: Arial; font-size: 13px; fill: rgb(51, 51, 51); fill-opacity: 1; white-space: pre; opacity: 1;" transform="translate(0,28.42)">0.9</text></g></g><g class="overaxes-above"/></g></g><g class="polarlayer"/><g class="smithlayer"/><g class="ternarylayer"/><g class="geolayer"/><g class="funnelarealayer"/><g class="pielayer"/><g class="iciclelayer"/><g class="treemaplayer"/><g class="sunburstlayer"/><g class="glimages"/><defs id="topdefs-02d216"><g class="clips"/></defs><g class="layer-above"><g class="imagelayer"/><g class="shapelayer"/></g><g class="infolayer"><g class="g-gtitle"><text class="gtitle" x="600" y="0.22999999999998977" text-anchor="middle" dy="0.7em" style="font-family: 'Arial Black'; font-size: 20px; fill: rgb(51, 51, 51); opacity: 1; font-weight: normal; white-space: pre;">PV [norm kWp]</text></g><g class="g-xtitle"/><g class="g-ytitle"><text class="ytitle" transform="rotate(-90,33.121875,105)" x="33.121875" y="105" text-anchor="middle" style="font-family: Arial; font-size: 19px; fill: rgb(51, 51, 51); opacity: 1; font-weight: normal; white-space: pre;">Power [kW]</text></g></g></svg>