<svg class="main-svg" xmlns="http://www.w3.org/2000/svg" xmlns:xlink="http://www.w3.org/1999/xlink" width="1200" height="230" style="" viewBox="0 0 1200 230"><rect x="0" y="0" width="1200" height="230" style="fill: rgb(255, 255, 255); fill-opacity: 1;"/><defs id="defs-da932c"><g class="clips"><clipPath id="clipda932cxyplot" class="plotclip"><rect width="1040" height="160"/></clipPath><clipPath class="axesclip" id="clipda932cx"><rect x="80" y="0" width="1040" height="230"/></clipPath><clipPath class="axesclip" id="clipda932cy"><rect x="0" y="25" width="1200" height="160"/></clipPath><clipPath class="axesclip" id="clipda932cxy"><rect x="80" y="25" width="1040" height="160"/></clipPath></g><g class="gradients"/><g class="patterns"/></defs><g class="bglayer"/><g class="layer-below"><g class="imagelayer"/><g class="shapelayer"/></g><g class="cartesianlayer"><g class="subplot xy"><g class="layer-subplot"><g class="shapelayer"/><g class="imagelayer"/></g><g class="minor-gridlayer"><g class="x"/><g class="y"/></g><g class="gridlayer"><g class="x"><path class="xgrid crisp" transform="translate(168.34,0)" d="M0,25v160" style="stroke: rgb(200, 200, 200); stroke-opacity: 1; stroke-width: 1px;"/><path class="xgrid crisp" transform="translate(248.13,0)" d="M0,25v160" style="stroke: rgb(200, 200, 200); stroke-opacity: 1; stroke-width: 1px;"/><path class="xgrid crisp" transform="translate(336.47,0)" d="M0,25v160" style="stroke: rgb(200, 200, 200); stroke-opacity: 1; stroke-width: 1px;"/><path class="xgrid crisp" transform="translate(421.96,0)" d="M0,25v160" style="stroke: rgb(200, 200, 200); stroke-opacity: 1; stroke-width: 1px;"/><path class="xgrid crisp" transform="translate(510.3,0)" d="M0,25v160" style="stroke: rgb(200, 200, 200); stroke-opacity: 1; stroke-width: 1px;"/><path class="xgrid crisp" transform="translate(595.78,0)" d="M0,25v160" style="stroke: rgb(200, 200, 200); stroke-opacity: 1; stroke-width: 1px;"/><path class="xgrid crisp" transform="translate(684.12,0)" d="M0,25v160" style="stroke: rgb(200, 200, 200); stroke-opacity: 1; stroke-width: 1px;"/><path class="xgrid crisp" transform="translate(772.46,0)" d="M0,25v160" style="stroke: rgb(200, 200, 200); stroke-opacity: 1; stroke-width: 1px;"/><path class="xgrid crisp" transform="translate(857.95,0)" d="M0,25v160" style="stroke: rgb(200, 200, 200); stroke-opacity: 1; stroke-width: 1px;"/><path class="xgrid crisp" transform="translate(946.29,0)" d="M0,25v160" style="stroke: rgb(200, 200, 200); stroke-opacity: 1; stroke-width: 1px;"/><path class="xgrid crisp" transform="translate(1031.78,0)" d="M0,25v160" style="stroke: rgb(200, 200, 200); stroke-opacity: 1; stroke-width: 1px;"/></g><g class="y"><path class="ygrid crisp" transform="translate(0,157.53)" d="M80,0h1040" style="stroke: rgb(200, 200, 200); stroke-opacity: 1; stroke-width: 1px;"/><path class="ygrid crisp" transform="translate(0,138.06)" d="M80,0h1040" style="stroke: rgb(200, 200, 200); stroke-opacity: 1; stroke-width: 1px;"/><path class="ygrid crisp" transform="translate(0,118.59)" d="M80,0h1040" style="stroke: rgb(200, 200, 200); stroke-opacity: 1; stroke-width: 1px;"/><path class="ygrid crisp" transform="translate(0,99.12)" d="M80,0h1040" style="stroke: rgb(200, 200, 200); stroke-opacity: 1; stroke-width: 1px;"/><path class="ygrid crisp" transform="translate(0,79.65)" d="M80,0h1040" style="stroke: rgb(200, 200, 200); stroke-opacity: 1; stroke-width: 1px;"/><path class="ygrid crisp" transform="translate(0,60.19)" d="M80,0h1040" style="stroke: rgb(200, 200, 200); stroke-opacity: 1; stroke-width: 1px;"/><path class="ygrid crisp" transform="translate(0,40.72)" d="M80,0h1040" style="stroke: rgb(200, 200, 200); stroke-opacity: 1; stroke-width: 1px;"/></g></g><g class="zerolinelayer"><path class="yzl zl crisp" transform="translate(0,177)" d="M80,0h1040" style="stroke: rgb(255, 255, 255); stroke-opacity: 1; stroke-width: 2px;"/></g><path class="xlines-below"/><path class="ylines-below"/><g class="overlines-below"/><g class="xaxislayer-below"/><g class="yaxislayer-below"/><g class="overaxes-below"/><g class="plot" transform="translate(80,25)" clip-path="url(#clipda932cxyplot)"><g class="scatterlayer mlayer"><g class="trace scatter tracee98f98" style="stroke-miterlimit: 2; opacity: 1;"><g class="fills"/><g class="errorbars"/><g class="lines"><path class="js-line" d="M0,152L0.83,152L0.95,8L50.22,8L50.34,51.2L51.29,8L51.41,8L54.86,8L54.97,12.69L55.81,8L55.92,8L81.45,8L81.57,51.2L82.52,8L82.64,8L87.27,8L87.39,27.99L88.22,8L88.34,8L90.95,8L91.07,29.86L91.19,51.2L91.43,8L91.66,8L91.78,8L92.14,8L92.26,51.2L92.97,8L93.09,51.2L94.04,8L94.16,8L97.36,8L97.48,33.8L97.72,51.2L97.84,8L97.96,8L98.08,8L100.45,8L100.57,20.53L101.4,8L101.52,8L101.99,31.63L102.23,8L102.35,8L124.32,8L124.43,51.2L124.91,8L125.15,44.18L125.27,48.3L125.62,8L125.98,51.2L126.1,51.2L126.93,8L127.05,8L127.28,50.15L127.76,8L127.88,8L137.38,8L137.5,8.81L138.33,8L138.45,8L144.26,8L144.38,51.2L145.57,51.2L145.69,20.35L146.52,8L146.64,8L158.51,8L158.63,29.31L158.87,51.2L158.99,8L159.22,8L159.34,8L159.58,8L159.7,44.14L160.29,51.2L160.41,8L162.07,8L162.19,19.03L162.79,8L162.9,20.69L163.02,37.45L163.14,51.2L163.26,8L163.5,8L163.62,8L164.21,8L164.33,24.9L164.69,51.2L164.8,8L164.92,8L165.04,8L189.86,8L189.98,22.88L190.09,8L190.57,36.96L190.69,45.89L191.64,8L191.76,8L210.16,8L210.28,12.38L210.4,25.42L210.52,8L210.87,8L210.99,8L221.68,8L221.8,9.17L222.75,51.2L222.87,51.2L223.7,8L223.82,8L224.29,8L224.41,51.2L225.24,8L225.36,8L230.46,8.32L230.58,37.68L231.53,51.2L231.65,8L232.72,8L232.84,15.51L233.31,51.2L233.55,35.46L233.67,29.24L234.38,51.2L234.5,8L244.12,8L244.24,51.2L245.54,51.2L245.66,31.5L246.49,8L246.61,8L250.65,8L250.77,13.87L250.89,18.31L251.24,8L251.36,8L251.48,8L252.55,8L252.67,33.26L253.97,152L254.09,152L254.69,8L255.04,34.23L255.16,51.2L255.76,8L255.87,51.2L255.99,51.2L256.59,51.2L256.71,43.29L257.06,51.2L257.18,38.91L257.3,8L257.89,8L258.01,22.78L258.6,8L258.72,51.2L259.67,51.03L259.79,45.84L259.91,51.2L260.03,8.02L260.5,8L260.62,12.43L261.57,51.2L261.69,51.2L263.47,51.2L263.59,35.75L264.42,51.2L264.54,51.2L265.73,51.2L265.85,32.64L266.68,8L266.8,8L267.87,8L267.98,10.92L269.29,152L269.41,152L270,8L270.24,24.38L270.36,152L271.19,152L271.31,8L272.02,8L272.14,25.59L272.5,51.2L272.73,8L272.85,8L273.68,51.2L273.8,51.2L274.28,51.2L274.4,8L275.47,8L275.58,8.85L276.18,8L276.3,24L277.25,152L277.36,152L278.2,8L278.31,8L279.62,8L279.74,152L280.57,152L280.69,23.24L280.93,20.68L281.64,51.2L281.76,51.2L282.71,51.2L282.83,10.01L283.66,8L283.78,8L298.97,8L299.09,152L299.92,152L300.04,8L300.4,8L300.52,9.15L301.35,51.2L301.47,51.2L303.01,51.2L303.13,13.51L303.25,14.03L303.37,35.4L304.2,51.2L304.32,51.2L310.14,51.2L310.25,152L311.2,152L311.32,51.2L311.68,51.2L311.8,49.54L312.27,51.2L312.39,22.67L312.75,8L312.87,51.2L312.99,51.2L313.34,51.2L313.46,152L314.29,152L314.41,8L315,51.2L315.12,18.35L315.24,8L315.6,8L315.72,51.2L316.55,51.2L316.67,152L317.5,152L317.62,51.2L321.65,51.2L321.77,152L322.96,152L323.08,51.2L324.38,51.2L324.5,152L325.57,152L325.69,51.2L326.64,51.2L326.76,39.64L326.88,8L327,51.2L327.35,51.2L327.47,51.2L328.42,152L328.54,152L329.37,51.03L329.49,51.2L329.85,51.2L329.96,152L330.8,152L330.91,51.2L331.51,51.2L331.63,28.07L332.58,51.2L332.7,51.2L334.12,51.2L334.24,37.97L335.07,8L335.19,8L336.38,152L336.5,152L337.33,8L337.44,8L337.68,8L337.8,10.02L338.04,8L338.16,36.66L338.99,51.2L339.11,51.2L339.58,51.2L339.7,44.48L340.53,8L340.65,8L340.89,8L341.01,39.18L341.84,51.2L341.96,51.2L343.86,51.2L343.98,152L344.81,152L344.93,51.2L345.52,51.2L345.64,36.27L345.76,8L346.11,51.2L346.23,51.2L346.35,51.2L348.37,51.2L348.49,26.21L349.32,8L349.44,8L349.91,8L350.03,12.61L350.86,152L350.98,152L351.81,8L351.93,8L352.76,8L352.88,9.41L353.71,8L353.83,8L360.6,8L360.72,12.38L361.55,51.2L361.67,51.2L368.91,51.2L369.03,39.24L369.27,45.14L369.38,51.2L369.74,51.2L369.86,152L370.69,152L370.81,51.2L372,51.2L372.12,8L373.07,51.2L373.18,51.2L373.9,51.2L374.02,40.7L374.85,8L374.97,8L379.24,8L379.36,152L380.19,152L380.31,8L381.85,8L381.97,42.85L382.21,51.2L382.8,8L382.92,8L383.99,8L384.11,11.99L384.7,8L384.82,12.23L384.94,26.55L385.65,51.2L385.77,8L386.13,8L386.25,13.43L387.08,51.2L387.19,51.2L388.86,51.2L388.98,41.5L389.21,51.2L389.33,50.01L389.45,8L389.81,8L389.93,51.2L390.16,51.2L390.28,152L391.11,152L391.23,8L391.83,51.2L391.94,29.82L392.06,8L392.42,8L392.54,152L393.61,152L393.73,51.2L395.63,51.2L395.74,152L396.69,152L396.81,51.2L402.75,51.2L402.87,17.59L402.99,8L403.34,33.34L403.46,35.51L403.7,51.2L403.82,8L403.94,8L405.36,152L405.48,152L405.72,152L405.84,43.74L405.96,39.43L406.07,8L406.67,8L406.79,51.2L407.02,51.2L407.14,27.48L407.26,10.4L407.5,51.2L407.62,51.2L407.74,51.2L408.57,152L408.69,152L409.52,51.2L409.64,152L411.06,152L411.18,51.2L411.54,51.2L411.65,8L412.72,51.2L412.84,51.2L413.79,152L413.91,152L414.27,152L414.39,51.2L415.34,51.2L415.45,152L416.28,152L416.4,51.2L417.83,51.2L417.95,17.49L418.78,152L418.9,152L419.13,152L419.25,51.2L422.93,51.2L423.05,8.55L423.17,8L423.29,15.64L425.07,152L425.19,152L426.02,8L426.14,8L426.61,8L426.73,152L427.56,152L427.68,51.2L428.28,51.2L428.4,36.2L428.87,51.2L428.99,8L430.3,152L430.41,152L431.13,152L431.25,51.2L432.2,51.2L432.31,152L433.86,152L433.98,51.2L435.88,51.2L435.99,152L437.18,152L437.3,51.2L437.78,51.2L437.89,49.28L438.01,51.2L438.13,152L439.68,152L439.79,51.2L441.58,51.2L441.69,152L442.88,152L443,51.2L443.48,51.2L443.59,31.72L443.71,8L443.83,152L445.97,152L446.09,51.2L446.92,51.2L447.04,152L448.22,152L448.34,51.2L449.65,51.2L449.77,152L451.31,152L451.43,51.2L452.14,51.2L452.26,152L453.92,152L454.04,51.2L454.76,51.2L454.87,33.73L456.18,152L456.3,152L458.32,152L458.44,51.2L460.34,51.2L460.45,152L461.88,152L462,51.2L462.83,51.2L462.95,152L465.2,152L465.32,51.2L466.63,51.2L466.75,152L468.65,152L468.77,51.2L469.48,51.2L469.6,152L470.78,152L470.9,51.2L471.62,51.2L471.73,152L473.04,152L473.16,51.2L474.58,51.2L474.7,152L476.84,152L476.96,51.2L478.03,51.2L478.15,152L479.57,152L479.69,51.2L480.52,51.2L480.64,152L482.18,152L482.3,51.2L483.13,51.2L483.25,152L485.15,152L485.27,51.2L485.98,51.2L486.1,152L487.41,152L487.53,51.2L488.48,51.2L488.59,152L490.85,152L490.97,51.2L491.68,51.2L491.8,152L492.87,152L492.99,51.2L494.41,51.2L494.53,152L495.36,152L495.48,51.2L497.02,51.2L497.14,152L499.52,152L499.64,51.2L500.59,51.2L500.71,152L502.49,152L502.61,51.2L503.56,51.2L503.67,152L505.57,152L505.69,51.2L506.52,51.2L506.64,152L508.42,152L508.54,51.2L509.37,51.2L509.49,152L511.15,152L511.27,51.2L512.1,51.2L512.22,152L513.89,152L514,51.2L515.19,51.2L515.31,152L516.73,152L516.85,51.2L517.57,51.2L517.68,152L519.82,152L519.94,51.2L520.65,51.2L520.77,152L522.32,152L522.43,51.2L523.62,51.2L523.74,152L525.4,152L525.52,51.2L526.35,51.2L526.47,152L528.13,152L528.25,51.2L528.96,51.2L529.08,152L530.63,152L530.75,51.2L531.81,51.2L531.93,152L533.95,152L534.07,51.2L534.9,51.2L535.02,152L536.09,152L536.21,51.2L537.63,51.2L537.75,152L539.41,152L539.53,51.2L541.55,51.2L541.67,152L542.62,152L542.74,51.2L543.69,51.2L543.81,152L545.11,152L545.23,51.2L545.35,48.61L545.47,8L545.82,8L545.94,51.2L546.77,152L546.89,152L547.72,152L547.84,51.2L548.08,51.2L548.2,42.61L548.32,8L548.44,51.2L548.56,51.2L548.67,152L549.51,152L549.62,51.2L551.52,51.2L551.64,152L552.71,152L552.83,51.2L554.14,51.2L554.26,152L555.2,152L555.32,51.2L556.75,51.2L556.87,152L557.94,152L558.05,51.2L560.19,51.2L560.31,152L562.21,152L562.33,51.2L563.64,51.2L563.75,152L565.3,152L565.42,51.2L566.37,51.2L566.48,152L568.15,152L568.27,51.2L569.22,51.2L569.33,152L570.88,152L571,51.2L572.18,51.2L572.3,152L574.32,152L574.44,51.2L575.15,51.2L575.27,152L577.17,152L577.29,51.2L578,51.2L578.12,152L579.78,152L579.9,51.2L580.73,51.2L580.85,152L582.51,152L582.63,51.2L583.35,51.2L583.46,152L585.36,152L585.48,51.2L586.19,51.2L586.31,152L587.98,152L588.09,51.2L588.81,51.2L588.93,152L593.68,152L593.79,51.2L594.51,51.2L594.62,152L595.69,152L595.81,51.2L596.52,51.2L596.64,15.29L596.88,8L597,17.06L597.12,152L599.73,152L599.85,51.2L600.56,51.2L600.68,152L602.22,152L602.34,51.2L603.17,51.2L603.29,152L604.72,152L604.84,51.2L606.26,51.2L606.38,152L608.52,152L608.64,51.2L609.35,51.2L609.47,152L610.89,152L611.01,51.2L612.08,51.2L612.2,152L613.86,152L613.98,51.2L614.69,51.2L614.81,152L615.76,152L615.88,51.2L616.71,51.2L616.83,152L618.97,152L619.08,51.2L619.8,51.2L619.92,152L621.1,152L621.22,51.2L621.93,51.2L622.05,152L623,152L623.12,51.2L623.83,51.2L623.95,152L625.02,152L625.14,51.2L625.97,51.2L626.09,152L627.99,152L628.11,51.2L629.18,51.2L629.3,152L630.6,152L630.72,51.2L631.43,51.2L631.55,152L633.33,152L633.45,51.2L634.64,51.2L634.76,152L637.73,152L637.84,51.2L638.56,51.2L638.68,152L639.51,152L639.63,51.2L639.98,51.2L640.1,14.33L640.34,8L640.46,14.1L640.58,152L641.88,152L642,51.2L643.07,51.2L643.19,36.63L644.02,152L644.14,152L644.61,152L644.73,51.2L645.8,51.2L645.92,41.93L646.04,51.2L646.16,152L647.46,152L647.58,51.2L648.89,51.2L649.01,152L650.31,152L650.43,51.2L651.74,51.2L651.86,152L653.04,152L653.16,51.2L654.59,51.2L654.7,152L656.96,152L657.08,51.2L658.39,51.2L658.5,152L659.69,152L659.81,51.2L660.52,51.2L660.64,152L662.3,152L662.42,51.2L663.02,51.2L663.14,32.83L664.08,152L664.2,152L664.68,152L664.8,51.2L665.87,51.2L665.98,28.88L666.82,152L666.93,152L667.53,152L667.65,51.2L668.95,51.2L669.07,152L670.5,152L670.62,51.2L671.33,51.2L671.45,152L673.35,152L673.47,51.2L674.3,51.2L674.41,152L676.08,152L676.2,51.2L677.03,51.2L677.15,8L678.1,152L678.21,152L680.83,152L680.95,51.2L682.61,51.2L682.73,152L685.34,152L685.46,51.2L687,51.2L687.12,152L690.21,152L690.33,51.2L691.51,51.2L691.63,152L693.41,152L693.53,51.2L694.72,51.2L694.84,152L696.26,152L696.38,51.2L697.45,51.2L697.57,152L699.11,152L699.23,51.2L699.94,51.2L700.06,19.02L700.89,152L701.01,152L701.84,152L701.96,51.2L702.67,51.2L702.79,42.46L703.03,8L703.15,152L703.27,152L704.57,152L704.69,51.06L705.76,51.2L705.88,51.2L708.49,51.2L708.61,152L710.51,152L710.63,51.2L712.41,51.2L712.53,152L713.6,152L713.72,51.2L715.97,51.2L716.09,44.72L716.21,20.32L716.8,45.54L716.92,32.18L717.28,8L717.4,47.95L717.52,152L718.82,152L718.94,51.2L719.3,35.08L719.53,51.2L719.65,51.2L719.77,48.14L719.89,8L720.84,51.2L720.96,51.2L721.2,51.2L721.32,152L722.15,152L722.27,51.2L722.62,51.2L722.74,44.88L722.86,51.2L722.98,8L724.28,152L724.4,152L725.35,8L725.47,8L725.95,8L726.06,51.2L727.01,152L727.13,152L728.08,8L728.2,152L729.63,152L729.75,51.2L731.53,51.2L731.65,152L732.83,152L732.95,51.2L734.61,51.2L734.73,152L736.16,152L736.28,51.2L737.34,51.2L737.46,152L738.29,152L738.41,51.2L740.91,51.2L741.03,152L741.98,152L742.09,29.27L742.45,47.27L742.57,8L742.92,8L743.04,37.15L743.16,8.85L743.28,51.2L743.64,51.2L743.76,152L744.59,152L744.71,8L745.77,51.2L745.89,51.2L747.79,51.2L747.91,27.55L748.74,51.2L748.86,51.2L751.12,51.2L751.24,26.7L751.36,8L751.47,51.2L751.83,51.2L751.95,51.2L752.78,152L752.9,152L753.25,8L753.73,51.2L753.85,51.2L756.82,51.2L756.94,152L757.77,152L757.89,51.2L762.99,51.2L763.11,152L763.94,152L764.06,51.2L766.08,51.2L766.2,152L767.27,152L767.38,51.2L769.28,51.2L769.4,152L770.23,152L770.35,51.2L770.95,51.2L771.07,29.5L771.42,8L771.54,51.2L771.66,51.2L771.78,152L772.61,152L772.73,51.2L774.51,51.2L774.63,152L775.46,152L775.58,51.2L777.83,51.2L777.95,152L778.78,152L778.9,51.2L781.87,51.2L781.99,152L782.82,152L782.94,51.2L784.6,51.2L784.72,50.41L784.96,8L785.43,30.7L785.55,51.2L786.62,51.2L786.74,48.56L786.98,51.2L787.09,42.2L787.21,8L787.81,8L787.93,26.15L788.99,51.2L789.11,51.2L790.06,51.2L790.18,8L790.78,32.05L791.01,19.51L791.13,11.2L791.37,44.19L791.49,8L791.84,8L791.96,8L792.44,8L792.56,51.2L793.03,51.2L793.15,8L795.29,8L795.41,32.58L795.52,31.69L795.64,45.81L796.12,8L796.24,152L797.07,152L797.19,51.2L798.49,51.2L798.61,34.89L799.32,8L799.44,17.64L800.27,8L800.39,8L801.46,8L801.58,152L802.41,152L802.53,34.4L803.36,51.2L803.48,51.2L804.55,51.2L804.67,8L804.79,46.91L805.5,42.3L805.62,51.2L807.16,51.2L807.28,28.82L807.52,8L807.87,44.65L807.99,51.2L813.57,51.2L813.69,152L814.52,152L814.64,51.2L817.37,51.2L817.49,152L818.32,152L818.44,51.2L818.68,51.2L818.8,45.56L819.63,8L819.75,51.2L820.58,152L820.7,152L821.53,51.2L821.65,51.2L822,16.17L822.36,51.2L822.48,51.2L827.35,51.2L827.46,13.83L827.82,46.51L828.06,45.47L828.18,8L829.01,51.2L829.13,51.2L829.36,51.2L829.48,8.49L830.55,152L830.67,152L831.5,51.2L831.62,51.2L834.47,51.2L834.59,28.42L835.89,152L836.01,152L836.25,152L836.37,8L836.61,8L836.73,51.2L836.96,51.2L837.08,8L838.27,8L838.39,152L839.22,152L839.34,51.2L841.48,51.2L841.59,38.47L841.71,8L842.19,51.2L842.31,51.2L842.54,51.2L842.66,8L842.9,8L843.02,51.2L843.26,8L843.73,11.84L843.85,51.2L844.68,152L844.8,152L845.63,51.2L845.75,51.2L848.12,51.2L848.24,152L849.43,152L849.55,51.2L850.02,51.2L850.14,18.11L850.26,8L850.5,32.32L850.62,43.63L851.45,51.2L851.57,51.2L856.2,51.2L856.32,18.82L856.55,8L856.67,30.95L856.79,22.54L856.91,47.98L857.86,51.2L857.98,51.2L858.34,51.2L858.45,28.39L859.29,8L859.4,8L868.19,8L868.31,9.67L868.67,30.76L868.78,41.58L869.26,51.2L869.5,50.97L869.62,32.43L870.45,8L870.57,28.22L870.8,8L871.16,43.24L871.28,35.66L871.52,51.2L871.63,13.87L872.46,8L872.58,8L872.94,51.2L873.06,50.06L873.18,8L874.01,51.2L874.13,38.15L874.25,30.34L874.6,49.07L874.72,44.81L874.84,44.38L875.79,8L875.91,8L885.64,8L885.76,16.54L886.48,51.2L886.59,8L887.54,8L887.66,20.4L887.78,8L888.02,51.2L888.14,51.2L888.38,51.2L888.49,8L890.99,8L891.11,51.2L892.06,8L892.17,8L893.6,8L893.72,14.12L894.19,51.2L894.31,8L894.43,8L894.55,8L894.79,9.19L895.26,8L895.38,8L909.63,8L909.75,51.2L909.99,8L910.58,8.03L910.7,31.32L910.82,51.2L910.94,8L911.29,8L911.41,8L913.78,8L913.9,31.1L914.02,40.12L914.14,8L914.26,8L914.38,8L919.01,8L919.13,35.2L919.25,8L919.37,51.2L919.72,51.2L919.84,47.46L921.03,8L921.15,8L922.1,8L922.21,49.91L923.05,8L923.16,28.85L923.76,51.2L924,43.42L924.11,51.2L924.95,152L925.06,152L925.9,8L926.01,8L926.96,8L927.08,25.83L927.2,51.2L927.32,8L927.68,8L927.8,8L930.17,8L930.29,20.14L930.53,8L930.88,36.07L931,16.47L931.71,8L931.83,51.2L932.54,8L932.66,15.73L932.78,35.18L932.9,36.68L933.02,51.2L935.51,51.2L935.63,9.31L936.58,152L936.7,152L937.65,51.2L937.77,38.89L938.48,8L938.6,49.52L939.43,8L939.55,8L950.59,8L950.71,24.32L951.54,8L951.66,8L953.92,8L954.04,19.33L954.27,51.2L954.63,8L954.75,8L958.19,8L958.31,27.55L959.14,8L959.26,51.2L960.45,8L960.57,8L963.77,8L963.89,27.3L964.01,32.93L964.13,8L964.25,51.2L964.72,8L964.96,51.2L965.08,51.2L965.91,8L966.03,8L979.09,8L979.21,29.04L979.33,51.2L979.45,8L979.8,8L979.92,8L1001.53,8L1001.65,23.7L1001.89,8L1002,51.2L1002.12,51.2L1002.24,51.2L1003.07,8L1003.19,8L1005.33,8L1005.45,22.97L1005.92,8L1006.16,38.49L1006.28,37.07L1006.4,8L1009.72,8L1009.84,11.36L1010.67,8L1010.79,8L1023.61,8L1023.73,30.63L1023.97,51.2L1024.21,8L1024.33,8L1024.45,8L1025.16,51.2L1025.28,31.84L1025.4,8L1026.35,8L1026.46,37.03L1026.94,51.2L1027.06,8L1039.05,8L1039.17,152L1040,152" style="vector-effect: none; fill: none; stroke: rgb(0, 117, 173); stroke-opacity: 1; stroke-width: 2px; opacity: 1;"/></g><g class="points"/><g class="text"/></g></g></g><g class="overplot"/><path class="xlines-above crisp" d="M0,0" style="fill: none;"/><path class="ylines-above crisp" d="M0,0" style="fill: none;"/><g class="overlines-above"/><g class="xaxislayer-above"><g class="xtick"><text text-anchor="middle" x="0" y="199" transform="translate(80,0)" style="font-family: Arial; font-size: 13px; fill: rgb(51, 51, 51); fill-opacity: 1; white-space: pre; opacity: 1;">Jan 2019</text></g><g class="xtick"><text text-anchor="middle" x="0" y="199" style="font-family: Arial; font-size: 13px; fill: rgb(51, 51, 51); fill-opacity: 1; white-space: pre; opacity: 1;" transform="translate(168.34,0)">Feb 2019</text></g><g class="xtick"><text text-anchor="middle" x="0" y="199" style="font-family: Arial; font-size: 13px; fill: rgb(51, 51, 51); fill-opacity: 1; white-space: pre; opacity: 1;" transform="translate(248.13,0)">Mar 2019</text></g><g class="xtick"><text text-anchor="middle" x="0" y="199" style="font-family: Arial; font-size: 13px; fill: rgb(51, 51, 51); fill-opacity: 1; white-space: pre; opacity: 1;" transform="translate(336.47,0)">Apr 2019</text></g><g class="xtick"><text text-anchor="middle" x="0" y="199" style="font-family: Arial; font-size: 13px; fill: rgb(51, 51, 51); fill-opacity: 1; white-space: pre; opacity: 1;" transform="translate(421.96,0)">May 2019</text></g><g class="xtick"><text text-anchor="middle" x="0" y="199" style="font-family: Arial; font-size: 13px; fill: rgb(51, 51, 51); fill-opacity: 1; white-space: pre; opacity: 1;" transform="translate(510.3,0)">Jun 2019</text></g><g class="xtick"><text text-anchor="middle" x="0" y="199" style="font-family: Arial; font-size: 13px; fill: rgb(51, 51, 51); fill-opacity: 1; white-space: pre; opacity: 1;" transform="translate(595.78,0)">Jul 2019</text></g><g class="xtick"><text text-anchor="middle" x="0" y="199" style="font-family: Arial; font-size: 13px; fill: rgb(51, 51, 51); fill-opacity: 1; white-space: pre; opacity: 1;" transform="translate(684.12,0)">Aug 2019</text></g><g class="xtick"><text text-anchor="middle" x="0" y="199" style="font-family: Arial; font-size: 13px; fill: rgb(51, 51, 51); fill-opacity: 1; white-space: pre; opacity: 1;" transform="translate(772.46,0)">Sep 2019</text></g><g class="xtick"><text text-anchor="middle" x="0" y="199" style="font-family: Arial; font-size: 13px; fill: rgb(51, 51, 51); fill-opacity: 1; white-space: pre; opacity: 1;" transform="translate(857.95,0)">Oct 2019</text></g><g class="xtick"><text text-anchor="middle" x="0" y="199" style="font-family: Arial; font-size: 13px; fill: rgb(51, 51, 51); fill-opacity: 1; white-space: pre; opacity: 1;" transform="translate(946.29,0)">Nov 2019</text></g><g class="xtick"><text text-anchor="middle" x="0" y="199" style="font-family: Arial; font-size: 13px; fill: rgb(51, 51, 51); fill-opacity: 1; white-space: pre; opacity: 1;" transform="translate(1031.78,0)">Dec 2019</text></g></g><g class="yaxislayer-above"><g class="ytick"><text text-anchor="end" x="79" y="4.55" transform="translate(0,177)" style="font-family: Arial; font-size: 13px; fill: rgb(51, 51, 51); fill-opacity: 1; white-space: pre; opacity: 1;">0</text></g><g class="ytick"><text text-anchor="end" x="79" y="4.55" style="font-family: Arial; font-size: 13px; fill: rgb(51, 51, 51); fill-opacity: 1; white-space: pre; opacity: 1;" transform="translate(0,157.53)">50</text></g><g class="ytick"><text text-anchor="end" x="79" y="4.55" style="font-family: Arial; font-size: 13px; fill: rgb(51, 51, 51); fill-opacity: 1; white-space: pre; opacity: 1;" transform="translate(0,138.06)">100</text></g><g class="ytick"><text text-anchor="end" x="79" y="4.55" style="font-family: Arial; font-size: 13px; fill: rgb(51, 51, 51); fill-opacity: 1; white-space: pre; opacity: 1;" transform="translate(0,118.59)">150</text></g><g class="ytick"><text text-anchor="end" x="79" y="4.55" style="font-family: Arial; font-size: 13px; fill: rgb(51, 51, 51); fill-opacity: 1; white-space: pre; opacity: 1;" transform="translate(0,99.12)">200</text></g><g class="ytick"><text text-anchor="end" x="79" y="4.55" style="font-family: Arial; font-size: 13px; fill: rgb(51, 51, 51); fill-opacity: 1; white-space: pre; opacity: 1;" transform="translate(0,79.65)">250</text></g><g class="ytick"><text text-anchor="end" x="79" y="4.55" style="font-family: Arial; font-size: 13px; fill: rgb(51, 51, 51); fill-opacity: 1; white-space: pre; opacity: 1;" transform="translate(0,60.19)">300</text></g><g class="ytick"><text text-anchor="end" x="79" y="4.55" style="font-family: Arial; font-size: 13px; fill: rgb(51, 51, 51); fill-opacity: 1; white-space: pre; opacity: 1;" transform="translate(0,40.72)">350</text></g></g><g class="overaxes-above"/></g></g><g class="polarlayer"/><g class="smithlayer"/><g class="ternarylayer"/><g class="geolayer"/><g class="funnelarealayer"/><g class="pielayer"/><g class="iciclelayer"/><g class="treemaplayer"/><g class="sunburstlayer"/><g class="glimages"/><defs id="topdefs-da932c"><g class="clips"/></defs><g class="layer-above"><g class="imagelayer"/><g class="shapelayer"/></g><g class="infolayer"><g class="g-gtitle"><text class="gtitle" x="600" y="0.22999999999998977" text-anchor="middle" dy="0.7em" style="font-family: 'Arial Black'; font-size: 20px; fill: rgb(51, 51, 51); opacity: 1; font-weight: normal; white-space: pre;">Heatpump schedule optimal_size_cost_optimized</text></g><g class="g-xtitle"/><g class="g-ytitle"/></g></svg>