<svg class="main-svg" xmlns="http://www.w3.org/2000/svg" xmlns:xlink="http://www.w3.org/1999/xlink" width="1200" height="230" style="" viewBox="0 0 1200 230"><rect x="0" y="0" width="1200" height="230" style="fill: rgb(255, 255, 255); fill-opacity: 1;"/><defs id="defs-988e05"><g class="clips"><clipPath id="clip988e05xyplot" class="plotclip"><rect width="1040" height="160"/></clipPath><clipPath class="axesclip" id="clip988e05x"><rect x="80" y="0" width="1040" height="230"/></clipPath><clipPath class="axesclip" id="clip988e05y"><rect x="0" y="25" width="1200" height="160"/></clipPath><clipPath class="axesclip" id="clip988e05xy"><rect x="80" y="25" width="1040" height="160"/></clipPath></g><g class="gradients"/><g class="patterns"/></defs><g class="bglayer"/><g class="layer-below"><g class="imagelayer"/><g class="shapelayer"/></g><g class="cartesianlayer"><g class="subplot xy"><g class="layer-subplot"><g class="shapelayer"/><g class="imagelayer"/></g><g class="minor-gridlayer"><g class="x"/><g class="y"/></g><g class="gridlayer"><g class="x"><path class="xgrid crisp" transform="translate(168.34,0)" d="M0,25v160" style="stroke: rgb(200, 200, 200); stroke-opacity: 1; stroke-width: 1px;"/><path class="xgrid crisp" transform="translate(248.13,0)" d="M0,25v160" style="stroke: rgb(200, 200, 200); stroke-opacity: 1; stroke-width: 1px;"/><path class="xgrid crisp" transform="translate(336.47,0)" d="M0,25v160" style="stroke: rgb(200, 200, 200); stroke-opacity: 1; stroke-width: 1px;"/><path class="xgrid crisp" transform="translate(421.96,0)" d="M0,25v160" style="stroke: rgb(200, 200, 200); stroke-opacity: 1; stroke-width: 1px;"/><path class="xgrid crisp" transform="translate(510.3,0)" d="M0,25v160" style="stroke: rgb(200, 200, 200); stroke-opacity: 1; stroke-width: 1px;"/><path class="xgrid crisp" transform="translate(595.78,0)" d="M0,25v160" style="stroke: rgb(200, 200, 200); stroke-opacity: 1; stroke-width: 1px;"/><path class="xgrid crisp" transform="translate(684.12,0)" d="M0,25v160" style="stroke: rgb(200, 200, 200); stroke-opacity: 1; stroke-width: 1px;"/><path class="xgrid crisp" transform="translate(772.46,0)" d="M0,25v160" style="stroke: rgb(200, 200, 200); stroke-opacity: 1; stroke-width: 1px;"/><path class="xgrid crisp" transform="translate(857.95,0)" d="M0,25v160" style="stroke: rgb(200, 200, 200); stroke-opacity: 1; stroke-width: 1px;"/><path class="xgrid crisp" transform="translate(946.29,0)" d="M0,25v160" style="stroke: rgb(200, 200, 200); stroke-opacity: 1; stroke-width: 1px;"/><path class="xgrid crisp" transform="translate(1031.78,0)" d="M0,25v160" style="stroke: rgb(200, 200, 200); stroke-opacity: 1; stroke-width: 1px;"/></g><g class="y"><path class="ygrid crisp" transform="translate(0,159)" d="M80,0h1040" style="stroke: rgb(200, 200, 200); stroke-opacity: 1; stroke-width: 1px;"/><path class="ygrid crisp" transform="translate(0,141)" d="M80,0h1040" style="stroke: rgb(200, 200, 200); stroke-opacity: 1; stroke-width: 1px;"/><path class="ygrid crisp" transform="translate(0,123)" d="M80,0h1040" style="stroke: rgb(200, 200, 200); stroke-opacity: 1; stroke-width: 1px;"/><path class="ygrid crisp" transform="translate(0,105)" d="M80,0h1040" style="stroke: rgb(200, 200, 200); stroke-opacity: 1; stroke-width: 1px;"/><path class="ygrid crisp" transform="translate(0,87)" d="M80,0h1040" style="stroke: rgb(200, 200, 200); stroke-opacity: 1; stroke-width: 1px;"/><path class="ygrid crisp" transform="translate(0,69)" d="M80,0h1040" style="stroke: rgb(200, 200, 200); stroke-opacity: 1; stroke-width: 1px;"/><path class="ygrid crisp" transform="translate(0,51)" d="M80,0h1040" style="stroke: rgb(200, 200, 200); stroke-opacity: 1; stroke-width: 1px;"/><path class="ygrid crisp" transform="translate(0,33)" d="M80,0h1040" style="stroke: rgb(200, 200, 200); stroke-opacity: 1; stroke-width: 1px;"/></g></g><g class="zerolinelayer"><path class="yzl zl crisp" transform="translate(0,177)" d="M80,0h1040" style="stroke: rgb(255, 255, 255); stroke-opacity: 1; stroke-width: 2px;"/></g><path class="xlines-below"/><path class="ylines-below"/><g class="overlines-below"/><g class="xaxislayer-below"/><g class="yaxislayer-below"/><g class="overaxes-below"/><g class="plot" transform="translate(80,25)" clip-path="url(#clip988e05xyplot)"><g class="scatterlayer mlayer"><g class="trace scatter tracec3143e" style="stroke-miterlimit: 2; opacity: 1;"><g class="fills"/><g class="errorbars"/><g class="lines"><path class="js-line" d="M0,8L92.97,8L93.09,9.43L93.92,8L94.04,8L124.32,8L124.43,35.39L125.27,8L125.38,8L125.62,8L125.74,12.44L125.98,34.62L126.22,8L126.45,8L126.57,8L127.17,8L127.28,16.55L128.12,8L128.23,8L142.72,8L142.84,15.13L143.79,8L143.91,8L144.38,8L144.5,35.75L145.21,51.2L145.33,35.52L146.16,8L146.28,8L158.63,8L158.75,21.02L159.34,8L159.46,31.46L160.29,51.2L160.41,8L162.67,8L162.79,14.96L163.02,40.16L163.26,8L163.38,8L163.5,8L164.33,8L164.45,51.2L165.52,8L165.64,8L167.77,8L167.89,31.17L168.01,51.2L168.13,8L168.48,8L168.6,8L173.12,8L173.23,11.37L173.35,28.29L173.47,8L173.95,8L174.07,8L175.13,8L175.25,26.87L175.37,18.83L175.61,45.65L175.73,44.25L175.85,51.2L175.97,39.56L176.56,48.09L176.68,51.2L176.92,50.28L177.03,14.09L177.87,8L177.98,8L182.38,8L182.5,26.56L183.33,8L183.45,8L183.8,8L183.92,22.8L184.99,51.2L185.11,51.2L185.58,51.2L185.7,46.38L185.82,51.2L185.94,8L189.86,8L189.98,32.62L190.09,31.62L190.33,36.06L190.45,45.61L191.16,51.2L191.28,8.76L192.11,8L192.23,8L192.71,42.9L192.94,16.95L193.06,8L210.16,8L210.28,22.92L210.75,51.2L210.99,19.04L211.11,8L212.18,8L212.3,20.49L212.42,21.53L212.54,11.63L213.13,8L213.25,49.11L213.96,51.2L214.08,8L222.15,8L222.27,19.12L222.87,51.2L222.98,8L224.53,8L224.65,8.78L225.48,8L225.6,8L230.46,8L230.58,46.31L231.41,51.2L231.53,37.01L232.25,43.78L232.36,8L232.48,8L232.72,8L232.84,49.64L233.67,51.2L233.79,51.2L234.38,51.2L234.5,8L244.59,8L244.71,15.96L245.19,48.58L245.54,35.03L245.66,25.7L246.49,8L246.61,8L252.67,8L252.79,20.18L253.02,29.67L253.14,152L254.09,152L254.21,27.29L254.69,8L254.81,31.51L254.92,33.84L255.87,51.2L255.99,51.2L257.18,51.2L257.3,8L257.89,8L258.01,32.53L258.49,25.53L258.96,51.2L259.08,51.2L259.91,51.2L260.03,18.88L260.86,8L260.98,8L262.17,8L262.29,152L263.12,152L263.24,8L264.42,8L264.54,152L265.37,152L265.49,8L266.2,8L266.32,25.56L266.68,8L267.15,51.2L267.27,51.2L267.87,51.2L267.98,47.53L268.1,42.05L268.22,51.2L268.58,51.2L268.7,51.2L269.41,51.2L269.53,39.25L269.65,27.02L269.77,51.2L270.12,51.2L270.24,51.2L271.67,51.2L271.78,45.84L271.9,8L272.38,51.2L272.5,51.2L272.62,51.2L274.63,51.2L274.75,19.84L274.99,39.68L275.11,8L275.47,8L275.58,19.65L275.7,19.06L275.82,8L276.18,8L276.3,152L277.13,152L277.25,8L278.2,8L278.31,34.73L279.15,51.2L279.26,48.86L279.38,8L279.5,51.2L279.98,51.2L280.1,42.04L280.57,8L280.81,47.49L280.93,51.2L283.06,51.2L283.18,8L284.96,8L285.08,51.2L285.32,8L285.44,51.2L286.27,8L286.39,8L289.71,8L289.83,15.57L289.95,26.76L290.07,8L290.43,8L290.54,8L290.66,27.69L291.26,8L291.38,8L292.21,8L292.33,13.91L292.44,18.34L292.56,8L292.92,8L293.04,9.29L293.51,51.2L293.63,8L293.75,8L293.87,8L293.99,48.09L294.58,8L294.7,8L295.18,8L295.29,17.01L296.24,51.2L296.36,51.2L296.6,51.2L296.72,29.53L297.55,8L297.67,8L298.02,37.64L298.14,51.2L299.81,51.2L299.92,49.83L300.4,8L300.64,43.57L300.76,35.24L301.59,51.2L301.71,51.2L307.29,51.2L307.4,152L308.24,152L308.35,51.2L308.59,51.2L308.71,12.85L309.54,51.2L309.66,8L310.97,152L311.09,152L311.44,8L312.04,51.2L312.15,51.2L312.27,47.38L312.39,8L312.87,8L312.99,51.2L313.82,152L313.94,152L314.17,152L314.29,8L314.41,10.36L314.53,51.2L315.12,51.2L315.24,8L315.48,8L315.6,31.49L316.67,152L316.79,152L317.02,152L317.14,8L318.09,51.2L318.21,28.47L319.4,152L319.52,152L319.75,152L319.87,51.2L320.11,24.43L320.23,47.18L320.35,51.2L321.53,51.2L321.65,152L322.6,152L322.72,51.2L323.67,51.2L323.79,8L324.98,152L325.1,152L325.69,152L325.81,44.08L326.52,51.2L326.64,8L327.11,8L327.23,152L328.54,152L328.66,51.2L329.85,51.2L329.96,43.75L330.8,152L330.91,152L331.75,8L331.86,8L332.58,8L332.7,152L333.53,152L333.65,51.2L334.36,51.2L334.48,37.48L334.71,9.67L335.07,47.22L335.19,51.2L337.8,51.2L337.92,27.25L338.75,51.2L338.87,51.2L340.18,51.2L340.29,15.81L340.77,8L340.89,14.93L341.01,47.7L341.13,51.2L341.24,30.18L342.08,51.2L342.19,51.2L342.67,51.2L342.79,8L343.98,8L344.09,152L344.93,152L345.04,51.2L345.52,51.2L345.64,40.17L345.76,8L346.11,51.2L346.23,51.2L346.35,51.2L346.94,8L347.06,51.2L347.18,152L348.01,152L348.13,51.2L348.37,51.2L348.49,43.93L348.72,8L349.32,19.29L349.44,33.4L350.27,51.2L350.39,51.2L351.1,51.2L351.22,47.61L351.81,8L351.93,17.58L352.05,27.55L352.41,51.2L352.76,8L352.88,20.17L353.71,8L353.83,8L358.82,8L358.94,12.77L359.17,43.1L359.65,30.78L359.77,8L360.36,8L360.48,13.96L360.6,12.49L360.72,22.91L361.55,51.2L361.67,51.2L369.74,51.2L369.86,152L370.69,152L370.81,51.2L371.17,51.2L371.28,36.29L372.23,8L372.35,8L373.18,152L373.3,152L374.13,8L374.25,8L374.97,8L375.08,10.92L375.92,51.2L376.03,51.2L376.98,51.2L377.1,29.79L377.58,8L377.81,25.72L377.93,19.86L378.76,51.2L378.88,51.2L379.95,51.2L380.07,8L380.31,8L380.43,9.68L381.14,8L381.26,51.2L382.45,51.2L382.56,19.37L383.4,8L383.51,8L383.75,8L383.87,34.05L384.23,51.2L384.58,8L384.7,15.19L384.82,22.78L385.3,51.2L385.41,45.92L385.53,8L386.25,8L386.36,9.68L387.31,51.2L387.43,51.2L388.74,51.2L388.86,49.42L389.21,51.2L389.33,8L389.81,8L389.93,42.87L390.16,51.2L390.28,152L391.11,152L391.23,16.73L391.59,51.2L391.83,8L391.94,8L392.42,8L392.54,152L393.84,152L393.96,51.2L394.08,33.44L394.68,51.2L394.79,51.2L395.63,51.2L395.74,152L396.69,152L396.81,51.2L397.64,8L397.76,8L398.12,8L398.24,152L399.07,152L399.19,51.2L399.66,51.2L399.78,34.83L400.02,45.06L400.14,31.43L400.37,36.14L400.49,13.75L401.09,8L401.21,152L402.04,152L402.16,51.2L402.51,51.2L402.63,13.37L403.34,42.29L403.46,35.68L403.58,8L404.53,8L404.65,152L405.48,152L405.6,19.48L406.07,51.2L406.19,48.79L406.31,8L406.67,8L406.79,51.2L407.02,51.2L407.14,36.88L408.09,152L408.21,152L408.33,8L409.04,51.2L409.16,51.2L409.4,51.2L409.52,20.64L410.7,152L410.82,152L411.06,152L411.18,41.6L411.54,51.2L411.65,8L412.49,51.2L412.6,51.2L413.44,152L413.55,152L413.91,152L414.03,43.03L414.86,51.2L414.98,51.2L415.22,43.98L415.34,15.42L416.17,152L416.28,152L416.64,152L416.76,51.2L417.35,51.2L417.47,35.43L417.83,8L417.95,9.87L418.07,152L419.13,152L419.25,51.2L419.61,51.2L419.73,46.99L419.85,44.48L419.97,51.2L420.2,51.2L420.32,51.2L420.8,51.2L420.92,13.72L421.03,8L421.15,51.2L421.39,51.2L421.51,152L422.34,152L422.46,8L424,8L424.12,16.65L424.36,28.31L424.48,152L425.31,152L425.43,8L425.67,46.54L426.14,8L426.26,8L426.73,8L426.85,152L427.68,152L427.8,51.2L428.28,51.2L428.4,41.67L428.63,8L428.75,51.2L428.87,8L429.11,8L429.23,15.59L429.46,8L429.58,49.16L430.41,152L430.53,152L431.01,152L431.13,51.2L431.72,51.2L431.84,9.44L432.31,8L432.43,152L433.98,152L434.1,51.2L435.4,51.2L435.52,152L436.71,152L436.83,51.2L438.01,51.2L438.13,152L440.03,152L440.15,51.2L440.98,51.2L441.1,152L442.41,152L442.53,51.2L443.95,51.2L444.07,152L445.61,152L445.73,51.2L446.44,51.2L446.56,152L448.11,152L448.22,51.2L449.77,51.2L449.89,152L451.55,152L451.67,51.2L452.38,51.2L452.5,152L453.81,152L453.92,51.2L455.23,51.2L455.35,152L457.13,152L457.25,51.2L457.96,51.2L458.08,152L459.5,152L459.62,51.2L461.05,51.2L461.17,152L462.24,152L462.35,51.2L463.42,51.2L463.54,152L465.68,152L465.8,51.2L466.39,51.2L466.51,38.21L466.63,51.2L466.75,152L468.53,152L468.65,51.2L468.88,51.2L469,27.29L469.24,8L469.36,51.2L469.48,152L471.5,152L471.62,51.2L471.85,51.2L471.97,10.81L472.33,8L472.45,152L474.35,152L474.47,51.2L475.18,51.2L475.3,152L476.6,152L476.72,51.2L478.15,51.2L478.26,152L479.81,152L479.93,51.2L480.76,51.2L480.88,152L482.3,152L482.42,51.2L482.78,51.2L482.9,8L483.61,8L483.73,152L485.39,152L485.51,8L486.22,8L486.34,152L488.48,152L488.59,8L489.31,8L489.43,152L493.58,152L493.7,51.2L495.24,51.2L495.36,152L497.26,152L497.38,51.2L498.09,51.2L498.21,152L499.76,152L499.87,51.2L500.71,51.2L500.82,152L502.72,152L502.84,51.2L503.56,51.2L503.67,152L505.69,152L505.81,51.2L506.05,51.2L506.17,48.97L506.29,8L506.4,51.2L506.52,51.2L506.64,152L508.66,152L508.78,51.2L509.14,51.2L509.25,16.37L510.32,152L510.44,152L511.51,152L511.63,51.2L512.34,51.2L512.46,152L514.36,152L514.48,51.2L515.19,51.2L515.31,152L516.73,152L516.85,51.2L517.57,51.2L517.68,152L520.06,152L520.18,51.2L520.89,51.2L521.01,152L522.32,152L522.43,51.2L523.74,51.2L523.86,152L525.64,152L525.76,51.2L526.47,51.2L526.59,152L528.61,152L528.73,51.2L529.08,51.2L529.2,45.7L529.44,51.2L529.56,152L531.34,152L531.46,51.2L532.29,51.2L532.41,152L534.31,152L534.43,51.2L535.14,51.2L535.26,152L536.44,152L536.56,51.2L538.11,51.2L538.23,152L539.29,152L539.41,51.2L539.65,51.2L539.77,29.08L540.13,8L540.24,152L542.14,152L542.26,51.2L543.09,51.2L543.21,15.32L543.57,8L543.69,152L544.99,152L545.11,51.2L545.82,8L545.94,152L547.84,152L547.96,51.2L548.91,51.2L549.03,8L549.15,20.71L549.27,152L550.69,152L550.81,8L551.64,8L551.76,152L553.54,152L553.66,51.2L555.2,51.2L555.32,152L556.39,152L556.51,51.2L557.82,51.2L557.94,152L559.24,152L559.36,51.2L560.79,51.2L560.9,152L562.09,152L562.21,51.2L563.64,51.2L563.75,152L565.18,152L565.3,51.2L566.37,51.2L566.48,152L568.5,152L568.62,51.2L569.33,51.2L569.45,152L571.35,152L571.47,51.2L572.18,51.2L572.3,152L574.08,152L574.2,51.2L574.91,51.2L575.03,152L576.93,152L577.05,51.2L577.53,51.2L577.65,37.25L578.6,152L578.71,152L579.66,152L579.78,51.2L580.38,51.2L580.5,10.53L581.33,152L581.45,152L582.51,152L582.63,51.2L583.11,51.2L583.23,8L583.35,14.83L583.46,152L585.6,152L585.72,51.2L586.43,51.2L586.55,152L587.98,152L588.09,51.2L588.81,51.2L588.93,152L590.94,152L591.06,51.2L591.78,51.2L591.89,152L593.44,152L593.56,51.2L594.27,51.2L594.39,152L596.29,152L596.41,51.2L596.76,51.2L596.88,8L598.19,152L598.31,152L599.73,152L599.85,51.2L600.21,51.2L600.32,49.22L600.44,8L600.68,152L600.8,152L602.58,152L602.7,51.2L603.41,51.2L603.53,152L604.84,152L604.95,51.2L606.02,51.2L606.14,27.83L606.97,152L607.09,152L608.28,152L608.4,51.2L609.11,51.2L609.23,152L610.54,152L610.65,51.2L612.2,51.2L612.32,152L613.86,152L613.98,51.2L614.69,8L614.81,152L616.83,152L616.95,8L617.66,8L617.78,152L619.44,152L619.56,8L620.39,8L620.51,152L624.78,152L624.9,51.2L625.97,51.2L626.09,29.11L626.92,152L627.04,152L628.35,152L628.46,8L629.18,8L629.3,152L631.08,152L631.2,8L632.03,8L632.15,152L633.81,152L633.93,8L634.64,8L634.76,152L639.03,152L639.15,51.2L640.46,51.2L640.58,152L641.88,152L642,51.2L643.19,51.2L643.31,152L644.37,152L644.49,51.2L645.92,51.2L646.04,152L647.58,152L647.7,51.2L648.89,51.2L649.01,152L650.19,152L650.31,51.2L651.86,51.2L651.97,152L653.16,152L653.28,51.2L654.7,51.2L654.82,152L656.6,152L656.72,51.2L657.44,51.2L657.55,152L659.57,152L659.69,51.2L660.4,51.2L660.52,152L661.83,152L661.95,51.2L663.25,51.2L663.37,152L664.56,152L664.68,51.2L666.1,51.2L666.22,152L667.53,152L667.65,51.2L669.07,51.2L669.19,152L670.38,152L670.5,51.2L671.68,51.2L671.8,152L673.35,152L673.47,51.2L674.3,51.2L674.41,152L676.08,152L676.2,51.2L677.26,51.2L677.38,152L679.05,152L679.16,51.2L680.23,51.2L680.35,152L682.25,152L682.37,51.2L683.08,51.2L683.2,152L685.34,152L685.46,51.2L686.17,51.2L686.29,152L687.95,152L688.07,51.2L688.54,51.2L688.66,31.71L688.78,32.15L688.9,152L690.8,152L690.92,51.2L691.63,51.2L691.75,152L693.18,152L693.29,51.2L694.01,51.2L694.12,12.34L695.19,152L695.31,152L696.62,152L696.74,51.2L697.09,51.2L697.21,8L697.45,51.2L697.57,152L698.87,152L698.99,51.2L699.71,51.2L699.82,20.59L700.18,8L700.3,152L701.72,152L701.84,51.2L702.91,51.2L703.03,40.78L703.86,152L703.98,152L704.57,152L704.69,51.2L706.12,51.2L706.24,152L707.07,152L707.19,51.2L709.44,51.2L709.56,152L710.39,152L710.51,51.2L711.94,51.2L712.05,152L712.89,152L713,51.2L717.63,51.2L717.75,152L718.7,152L718.82,51.2L719.89,51.2L720.01,21.84L721.2,152L721.32,152L721.55,152L721.67,51.2L722.86,8L722.98,15.8L723.1,41.36L723.93,152L724.05,152L724.4,152L724.52,51.2L725.47,51.2L725.59,31.62L725.83,8L725.95,51.2L726.06,152L727.37,152L727.49,27.78L728.32,51.2L728.44,51.2L728.91,51.2L729.03,152L729.98,152L730.1,51.2L731.53,51.2L731.65,152L733.07,152L733.19,51.2L734.49,51.2L734.61,152L736.04,152L736.16,51.2L737.34,51.2L737.46,152L738.77,152L738.89,51.2L740.43,51.2L740.55,152L741.62,152L741.74,51.2L741.98,51.2L742.09,38.53L742.45,51.2L742.57,46.39L742.69,8L742.92,8L743.04,45.82L743.4,51.2L743.52,152L744.35,152L744.47,51.2L744.71,8L745.18,47.77L745.3,51.2L747.67,51.2L747.79,10.52L748.15,51.2L748.39,8L748.51,8L749.93,152L750.05,152L750.41,8L750.88,51.2L751,47.81L751.59,8L751.71,51.2L751.83,51.2L752.66,152L752.78,152L753.02,152L753.14,8L754.2,51.2L754.32,51.2L754.8,51.2L754.92,152L755.75,152L755.87,51.2L760.26,51.2L760.38,152L761.33,152L761.45,51.2L763.11,51.2L763.23,152L764.06,152L764.18,51.2L768.22,51.2L768.33,152L769.64,152L769.76,51.2L771.66,51.2L771.78,152L772.61,152L772.73,51.2L774.03,51.2L774.15,25.43L774.98,152L775.1,152L775.7,152L775.81,51.2L777.24,51.2L777.36,152L778.19,152L778.31,51.2L780.21,51.2L780.33,152L781.16,152L781.28,51.2L781.51,51.2L781.63,43.07L781.75,41.15L781.87,8L782.35,8L782.46,24.22L782.58,8L782.7,152L783.53,152L783.65,51.2L784.48,51.2L784.6,36.86L784.72,8L785.31,29.81L785.43,39.85L786.26,51.2L786.38,51.2L787.21,51.2L787.33,26.57L787.57,8L787.93,35.65L788.04,39.01L788.88,51.2L788.99,51.2L793.27,51.2L793.39,16.34L793.51,11.95L793.62,25.71L793.74,24.89L793.86,45.87L794.1,51.2L794.81,8L794.93,8L795.29,8L795.41,41.59L795.52,40.77L795.64,51.2L796.71,51.2L796.83,39.93L796.95,41.18L797.07,51.2L798.61,51.2L798.73,28.88L798.85,8L799.44,31.23L799.56,51.2L807.4,51.2L807.52,20.61L807.87,51.2L807.99,8L808.82,8L808.94,152L809.77,152L809.89,51.2L810.96,8L811.08,8L811.32,8L811.44,152L812.27,152L812.38,51.2L814.4,51.2L814.52,152L815.47,152L815.59,51.2L816.07,51.2L816.18,48.32L817.13,8L817.25,51.2L818.08,152L818.2,152L818.44,152L818.56,51.2L819.39,8L819.51,8L820.46,152L820.58,152L821.41,51.2L821.53,51.2L821.65,50.12L821.77,12.79L821.88,34.75L822.12,8L822.48,8L822.6,8L822.95,8L823.07,152L823.9,152L824.02,8L825.45,8L825.56,152L826.4,152L826.51,51.2L827.23,51.2L827.35,8L827.58,44.8L828.06,8L828.18,8L829.48,152L829.6,152L830.08,13.67L830.43,51.2L830.55,51.2L835.18,51.2L835.3,152L836.13,152L836.25,51.2L840.29,51.2L840.41,152L841.24,152L841.36,51.2L841.59,15.76L842.07,31.72L842.19,50.8L843.02,8L843.14,8L843.61,8L843.73,152L844.56,152L844.68,8L845.51,8L845.63,152L846.46,152L846.58,51.2L847.06,51.2L847.17,8L847.41,33.31L848.01,27.65L848.12,8L848.24,20.02L848.36,152L849.19,152L849.31,51.2L849.79,51.2L849.91,49.13L850.86,8L850.97,8L851.33,8L851.45,152L852.28,152L852.28,51.2L853.23,51.2L853.35,8L853.7,8L853.82,33.85L855.37,152L855.49,152L856.55,8L856.67,8L857.62,51.2L857.74,51.2L857.98,51.2L858.1,45.5L858.93,8L859.05,8L868.19,8L868.31,20.41L868.67,39.91L868.78,49.91L869.62,51.2L869.73,51.2L869.85,49.52L869.97,8L871.52,51.2L871.63,51.2L872.23,51.2L872.35,8L872.46,39.21L873.06,8L873.18,8L873.41,51.2L873.65,40.65L873.77,12.32L874.72,51.2L874.84,51.2L875.08,43.45L875.2,8L875.31,51.2L875.91,8L876.03,8L885.76,8L885.88,45.84L886.24,51.2L886.36,8L887.9,8L888.02,18.24L888.14,48.13L888.49,8L888.61,8L888.73,8L893.72,8L893.84,16.03L893.96,30.11L894.19,8L894.43,8L894.55,8L895.02,19.39L895.14,15.49L895.26,8L900.49,8L900.61,13.72L900.72,12.29L900.84,19.38L900.96,8L909.39,8L909.51,28.51L909.63,46.29L909.75,8L910.1,8L910.22,8L910.82,8L910.94,14.67L911.17,40.82L911.29,8L911.65,8L911.77,8L925.06,8L925.18,14.42L925.42,41.95L925.66,8L925.78,8L925.9,8L926.61,8L926.73,17.52L926.85,47.74L926.96,8L927.44,8L927.56,8L932.9,8L933.02,40.97L933.14,41.55L933.26,8L934.33,152L934.44,152L934.92,152L935.04,51.2L935.28,51.2L935.39,40.08L936.23,8L936.34,8L937.53,51.2L937.65,51.2L938.13,51.2L938.24,45.15L938.48,51.2L938.6,15.35L939.19,23.63L939.43,8L939.55,8L954.04,8L954.15,41L954.39,51.2L954.51,21.49L954.63,8L963.06,8L963.18,49.28L963.77,51.2L963.89,8L998.92,8L999.04,10.84L999.87,51.2L999.99,8L1000.11,27.71L1000.7,8L1000.82,8L1001.89,8L1002,51.2L1002.12,49L1002.24,8L1004.97,8L1005.09,9.42L1005.57,45.72L1005.69,37.06L1005.8,8L1006.04,8L1006.16,47.05L1007.11,8L1007.23,8L1023.61,8L1023.73,28.33L1023.85,51.2L1024.09,8L1024.33,8L1024.45,8L1024.8,37.59L1024.92,8L1026.35,8L1026.46,50.3L1026.7,51.2L1026.82,8L1040,8" style="vector-effect: none; fill: none; stroke: rgb(0, 117, 173); stroke-opacity: 1; stroke-width: 2px; opacity: 1;"/></g><g class="points"/><g class="text"/></g></g></g><g class="overplot"/><path class="xlines-above crisp" d="M0,0" style="fill: none;"/><path class="ylines-above crisp" d="M0,0" style="fill: none;"/><g class="overlines-above"/><g class="xaxislayer-above"><g class="xtick"><text text-anchor="middle" x="0" y="199" transform="translate(80,0)" style="font-family: Arial; font-size: 13px; fill: rgb(51, 51, 51); fill-opacity: 1; white-space: pre; opacity: 1;">Jan 2019</text></g><g class="xtick"><text text-anchor="middle" x="0" y="199" style="font-family: Arial; font-size: 13px; fill: rgb(51, 51, 51); fill-opacity: 1; white-space: pre; opacity: 1;" transform="translate(168.34,0)">Feb 2019</text></g><g class="xtick"><text text-anchor="middle" x="0" y="199" style="font-family: Arial; font-size: 13px; fill: rgb(51, 51, 51); fill-opacity: 1; white-space: pre; opacity: 1;" transform="translate(248.13,0)">Mar 2019</text></g><g class="xtick"><text text-anchor="middle" x="0" y="199" style="font-family: Arial; font-size: 13px; fill: rgb(51, 51, 51); fill-opacity: 1; white-space: pre; opacity: 1;" transform="translate(336.47,0)">Apr 2019</text></g><g class="xtick"><text text-anchor="middle" x="0" y="199" style="font-family: Arial; font-size: 13px; fill: rgb(51, 51, 51); fill-opacity: 1; white-space: pre; opacity: 1;" transform="translate(421.96,0)">May 2019</text></g><g class="xtick"><text text-anchor="middle" x="0" y="199" style="font-family: Arial; font-size: 13px; fill: rgb(51, 51, 51); fill-opacity: 1; white-space: pre; opacity: 1;" transform="translate(510.3,0)">Jun 2019</text></g><g class="xtick"><text text-anchor="middle" x="0" y="199" style="font-family: Arial; font-size: 13px; fill: rgb(51, 51, 51); fill-opacity: 1; white-space: pre; opacity: 1;" transform="translate(595.78,0)">Jul 2019</text></g><g class="xtick"><text text-anchor="middle" x="0" y="199" style="font-family: Arial; font-size: 13px; fill: rgb(51, 51, 51); fill-opacity: 1; white-space: pre; opacity: 1;" transform="translate(684.12,0)">Aug 2019</text></g><g class="xtick"><text text-anchor="middle" x="0" y="199" style="font-family: Arial; font-size: 13px; fill: rgb(51, 51, 51); fill-opacity: 1; white-space: pre; opacity: 1;" transform="translate(772.46,0)">Sep 2019</text></g><g class="xtick"><text text-anchor="middle" x="0" y="199" style="font-family: Arial; font-size: 13px; fill: rgb(51, 51, 51); fill-opacity: 1; white-space: pre; opacity: 1;" transform="translate(857.95,0)">Oct 2019</text></g><g class="xtick"><text text-anchor="middle" x="0" y="199" style="font-family: Arial; font-size: 13px; fill: rgb(51, 51, 51); fill-opacity: 1; white-space: pre; opacity: 1;" transform="translate(946.29,0)">Nov 2019</text></g><g class="xtick"><text text-anchor="middle" x="0" y="199" style="font-family: Arial; font-size: 13px; fill: rgb(51, 51, 51); fill-opacity: 1; white-space: pre; opacity: 1;" transform="translate(1031.78,0)">Dec 2019</text></g></g><g class="yaxislayer-above"><g class="ytick"><text text-anchor="end" x="79" y="4.55" transform="translate(0,177)" style="font-family: Arial; font-size: 13px; fill: rgb(51, 51, 51); fill-opacity: 1; white-space: pre; opacity: 1;">0</text></g><g class="ytick"><text text-anchor="end" x="79" y="4.55" style="font-family: Arial; font-size: 13px; fill: rgb(51, 51, 51); fill-opacity: 1; white-space: pre; opacity: 1;" transform="translate(0,159)">50</text></g><g class="ytick"><text text-anchor="end" x="79" y="4.55" style="font-family: Arial; font-size: 13px; fill: rgb(51, 51, 51); fill-opacity: 1; white-space: pre; opacity: 1;" transform="translate(0,141)">100</text></g><g class="ytick"><text text-anchor="end" x="79" y="4.55" style="font-family: Arial; font-size: 13px; fill: rgb(51, 51, 51); fill-opacity: 1; white-space: pre; opacity: 1;" transform="translate(0,123)">150</text></g><g class="ytick"><text text-anchor="end" x="79" y="4.55" style="font-family: Arial; font-size: 13px; fill: rgb(51, 51, 51); fill-opacity: 1; white-space: pre; opacity: 1;" transform="translate(0,105)">200</text></g><g class="ytick"><text text-anchor="end" x="79" y="4.55" style="font-family: Arial; font-size: 13px; fill: rgb(51, 51, 51); fill-opacity: 1; white-space: pre; opacity: 1;" transform="translate(0,87)">250</text></g><g class="ytick"><text text-anchor="end" x="79" y="4.55" style="font-family: Arial; font-size: 13px; fill: rgb(51, 51, 51); fill-opacity: 1; white-space: pre; opacity: 1;" transform="translate(0,69)">300</text></g><g class="ytick"><text text-anchor="end" x="79" y="4.55" style="font-family: Arial; font-size: 13px; fill: rgb(51, 51, 51); fill-opacity: 1; white-space: pre; opacity: 1;" transform="translate(0,51)">350</text></g><g class="ytick"><text text-anchor="end" x="79" y="4.55" style="font-family: Arial; font-size: 13px; fill: rgb(51, 51, 51); fill-opacity: 1; white-space: pre; opacity: 1;" transform="translate(0,33)">400</text></g></g><g class="overaxes-above"/></g></g><g class="polarlayer"/><g class="smithlayer"/><g class="ternarylayer"/><g class="geolayer"/><g class="funnelarealayer"/><g class="pielayer"/><g class="iciclelayer"/><g class="treemaplayer"/><g class="sunburstlayer"/><g class="glimages"/><defs id="topdefs-988e05"><g class="clips"/></defs><g class="layer-above"><g class="imagelayer"/><g class="shapelayer"/></g><g class="infolayer"><g class="g-gtitle"><text class="gtitle" x="600" y="0.22999999999998977" text-anchor="middle" dy="0.7em" style="font-family: 'Arial Black'; font-size: 20px; fill: rgb(51, 51, 51); opacity: 1; font-weight: normal; white-space: pre;">Heatpump schedule real_world_cost_optimized</text></g><g class="g-xtitle"/><g class="g-ytitle"><text class="ytitle" transform="rotate(-90,29.496875000000003,105)" x="29.496875000000003" y="105" text-anchor="middle" style="font-family: Arial; font-size: 19px; fill: rgb(51, 51, 51); opacity: 1; font-weight: normal; white-space: pre;">Electrical Power [kW]</text></g></g></svg>