<svg class="main-svg" xmlns="http://www.w3.org/2000/svg" xmlns:xlink="http://www.w3.org/1999/xlink" width="1200" height="230" style="" viewBox="0 0 1200 230"><rect x="0" y="0" width="1200" height="230" style="fill: rgb(255, 255, 255); fill-opacity: 1;"/><defs id="defs-ad0a14"><g class="clips"><clipPath id="clipad0a14xyplot" class="plotclip"><rect width="1040" height="160"/></clipPath><clipPath class="axesclip" id="clipad0a14x"><rect x="80" y="0" width="1040" height="230"/></clipPath><clipPath class="axesclip" id="clipad0a14y"><rect x="0" y="25" width="1200" height="160"/></clipPath><clipPath class="axesclip" id="clipad0a14xy"><rect x="80" y="25" width="1040" height="160"/></clipPath></g><g class="gradients"/><g class="patterns"/></defs><g class="bglayer"/><g class="layer-below"><g class="imagelayer"/><g class="shapelayer"/></g><g class="cartesianlayer"><g class="subplot xy"><g class="layer-subplot"><g class="shapelayer"/><g class="imagelayer"/></g><g class="minor-gridlayer"><g class="x"/><g class="y"/></g><g class="gridlayer"><g class="x"><path class="xgrid crisp" transform="translate(168.34,0)" d="M0,25v160" style="stroke: rgb(200, 200, 200); stroke-opacity: 1; stroke-width: 1px;"/><path class="xgrid crisp" transform="translate(248.13,0)" d="M0,25v160" style="stroke: rgb(200, 200, 200); stroke-opacity: 1; stroke-width: 1px;"/><path class="xgrid crisp" transform="translate(336.47,0)" d="M0,25v160" style="stroke: rgb(200, 200, 200); stroke-opacity: 1; stroke-width: 1px;"/><path class="xgrid crisp" transform="translate(421.96,0)" d="M0,25v160" style="stroke: rgb(200, 200, 200); stroke-opacity: 1; stroke-width: 1px;"/><path class="xgrid crisp" transform="translate(510.3,0)" d="M0,25v160" style="stroke: rgb(200, 200, 200); stroke-opacity: 1; stroke-width: 1px;"/><path class="xgrid crisp" transform="translate(595.78,0)" d="M0,25v160" style="stroke: rgb(200, 200, 200); stroke-opacity: 1; stroke-width: 1px;"/><path class="xgrid crisp" transform="translate(684.12,0)" d="M0,25v160" style="stroke: rgb(200, 200, 200); stroke-opacity: 1; stroke-width: 1px;"/><path class="xgrid crisp" transform="translate(772.46,0)" d="M0,25v160" style="stroke: rgb(200, 200, 200); stroke-opacity: 1; stroke-width: 1px;"/><path class="xgrid crisp" transform="translate(857.95,0)" d="M0,25v160" style="stroke: rgb(200, 200, 200); stroke-opacity: 1; stroke-width: 1px;"/><path class="xgrid crisp" transform="translate(946.29,0)" d="M0,25v160" style="stroke: rgb(200, 200, 200); stroke-opacity: 1; stroke-width: 1px;"/><path class="xgrid crisp" transform="translate(1031.78,0)" d="M0,25v160" style="stroke: rgb(200, 200, 200); stroke-opacity: 1; stroke-width: 1px;"/></g><g class="y"><path class="ygrid crisp" transform="translate(0,180.69)" d="M80,0h1040" style="stroke: rgb(200, 200, 200); stroke-opacity: 1; stroke-width: 1px;"/><path class="ygrid crisp" transform="translate(0,158.71)" d="M80,0h1040" style="stroke: rgb(200, 200, 200); stroke-opacity: 1; stroke-width: 1px;"/><path class="ygrid crisp" transform="translate(0,136.74)" d="M80,0h1040" style="stroke: rgb(200, 200, 200); stroke-opacity: 1; stroke-width: 1px;"/><path class="ygrid crisp" transform="translate(0,114.76)" d="M80,0h1040" style="stroke: rgb(200, 200, 200); stroke-opacity: 1; stroke-width: 1px;"/><path class="ygrid crisp" transform="translate(0,92.79)" d="M80,0h1040" style="stroke: rgb(200, 200, 200); stroke-opacity: 1; stroke-width: 1px;"/><path class="ygrid crisp" transform="translate(0,70.81)" d="M80,0h1040" style="stroke: rgb(200, 200, 200); stroke-opacity: 1; stroke-width: 1px;"/><path class="ygrid crisp" transform="translate(0,48.84)" d="M80,0h1040" style="stroke: rgb(200, 200, 200); stroke-opacity: 1; stroke-width: 1px;"/><path class="ygrid crisp" transform="translate(0,26.86)" d="M80,0h1040" style="stroke: rgb(200, 200, 200); stroke-opacity: 1; stroke-width: 1px;"/></g></g><g class="zerolinelayer"/><path class="xlines-below"/><path class="ylines-below"/><g class="overlines-below"/><g class="xaxislayer-below"/><g class="yaxislayer-below"/><g class="overaxes-below"/><g class="plot" transform="translate(80,25)" clip-path="url(#clipad0a14xyplot)"><g class="scatterlayer mlayer"><g class="trace scatter trace04fd05" style="stroke-miterlimit: 2; opacity: 1;"><g class="fills"/><g class="errorbars"/><g class="lines"><path class="js-line" d="M0,136L0.47,140.86L0.59,128.8L1.19,42.9L1.42,72.88L1.54,94.26L1.66,98.51L1.9,85.91L2.02,93.65L2.14,79.12L3.09,140.23L3.21,141.15L3.56,108.62L3.68,97.88L3.92,57.77L4.39,105.88L4.51,116.78L4.87,77.9L5.22,101.79L5.34,115.82L6.17,131.74L6.29,122.81L6.77,42.31L7.12,96.72L7.24,112.29L7.36,114.03L7.48,99.56L7.84,61.9L7.96,101.99L8.67,134.87L8.79,134.61L8.91,133.13L9.5,88.31L9.62,46.53L10.21,121.35L10.45,99.9L10.57,90.06L10.69,68.94L11.16,117.1L11.28,127.67L11.87,129.95L11.99,117.23L12.11,101.6L12.47,67.2L12.59,92.38L13.06,124L13.3,104.97L13.42,88.98L13.54,68.5L13.89,120.26L14.01,133.77L14.72,140.98L14.84,134.49L15.32,50.48L15.67,81.95L15.79,98.59L15.91,99.69L16.03,82.57L16.15,81.51L16.27,86.94L16.39,61.71L17.1,145.35L17.34,144.73L17.45,142.44L17.57,144.25L17.69,135.02L17.81,111.63L18.17,23.73L18.64,88.47L18.76,95.03L19.24,76.24L19.35,104.64L19.47,117.44L20.3,132.67L20.42,129.52L20.54,128.03L21.02,27.71L21.25,93.89L21.37,93.15L21.61,109.79L21.85,86.87L21.97,93.97L22.08,80.78L22.92,139.4L23.03,138.24L23.15,131.23L23.27,131.85L23.39,128.05L23.87,51.67L24.22,100.36L24.34,113.24L24.46,112.47L24.58,95.1L24.82,86.37L24.93,68.87L25.88,138.43L26,138.51L26.24,131.84L26.36,113.48L26.72,41L27.07,81.94L27.19,103.23L27.31,108.15L27.43,99.42L27.55,86.37L27.78,77.16L27.9,102.9L28.85,134.49L28.97,133.2L29.09,131.2L29.21,110.85L29.57,39.52L29.92,91.03L30.04,101.29L30.16,115.72L30.51,85.64L30.63,67.23L31.46,135.23L31.58,135.5L31.82,133.02L31.94,122.44L32.41,41.5L32.53,70.63L32.65,94.72L33.01,111.7L33.48,81.06L33.6,114.55L34.67,128.35L34.79,123.76L35.26,44.31L35.5,94.1L35.62,89.13L35.86,119.83L36.21,89.22L36.33,66.27L37.16,131.39L37.28,127.51L37.4,131.69L37.64,127.75L37.76,109.09L38.11,42.04L38.47,88.55L38.59,115.45L38.71,117.45L38.83,105.27L39.18,75.84L39.3,111.64L40.37,141.42L40.49,131.36L40.96,41.44L41.32,91.59L41.44,114.05L41.56,115.18L41.68,101.74L42.03,77.08L42.27,120.34L42.39,115.6L42.86,135.75L43.22,132.5L43.34,134.94L43.81,43.35L44.17,98.48L44.29,117.02L44.41,117.44L44.53,105.66L44.88,63.97L45.12,113.94L45.24,116.02L45.95,137.86L46.19,134.74L46.31,110.26L46.66,52.75L46.78,80.07L46.9,90.96L47.02,89.29L47.14,117.78L47.26,117.07L47.38,92.86L47.73,80L48.44,136.55L48.56,133.83L48.68,126.37L49.51,59.63L49.87,86.51L49.99,118.93L50.11,121.38L50.22,111.16L50.34,103.63L50.58,61.95L50.7,107.41L51.29,134.79L51.53,133.77L51.65,127.31L51.77,129.63L51.89,122.51L52.01,117.84L52.36,69.15L52.72,91.1L52.84,123.05L52.96,125.26L53.07,108.26L53.19,109.82L53.31,91.11L53.43,74.8L53.79,122.06L53.91,122.61L54.26,130.78L54.62,123.79L54.74,121.71L54.97,104.92L55.09,92.41L55.21,63.81L55.69,117.01L55.81,118.12L56.28,78.43L56.4,100.83L56.52,122.55L56.99,134.13L57.35,132.76L57.47,125.03L57.59,126.62L57.71,120.11L57.82,95.79L57.94,97.91L58.06,49.89L58.54,128.91L58.89,100.23L59.01,98.65L59.13,63.67L59.37,121.4L59.6,120L59.72,128.52L60.08,132.85L60.44,131.28L60.55,118.68L60.91,41.11L61.27,100.7L61.39,116.42L61.98,86.32L62.1,111.64L62.93,131.22L63.05,131.42L63.4,114.04L63.52,103.26L63.76,35.12L64,83.98L64.12,87.82L64.24,117.59L64.71,101.13L64.83,73.23L65.9,144.82L66.02,141.52L66.14,139.18L66.25,122.08L66.61,30.64L66.97,77.33L67.09,113.13L67.2,117.06L67.32,110.59L67.44,87.76L67.68,62.04L67.92,115.54L68.04,122.87L68.75,143.64L68.87,140.93L68.99,136.35L69.46,48.15L69.82,83.15L69.93,113.52L70.05,119L70.17,98.03L70.29,105.43L70.41,89.36L70.53,73.74L70.77,127.68L70.88,128.59L71.24,144.79L71.72,142.37L71.83,140.98L72.31,60.64L72.67,84.17L72.78,111.07L72.9,115.05L73.02,112.38L73.14,89.65L73.38,75.92L73.5,108.29L73.62,127.33L73.73,131.42L73.97,119.53L74.21,123.52L74.33,122.09L74.45,128.01L74.8,114.74L74.92,103.36L75.16,52.04L75.28,86.14L75.4,108.89L75.75,128.16L76.23,81.58L76.35,110.88L77.06,121.48L77.18,114.35L77.53,128.06L77.65,113.9L77.77,96.63L78.01,37.14L78.13,48.95L78.25,95.69L78.37,92.74L78.48,109.19L78.6,116.15L78.84,98.06L78.96,88.52L79.08,58.43L79.43,129.56L79.55,132.48L79.67,137.21L80.03,132.43L80.26,133.6L80.38,127.29L80.86,39.77L81.21,92.37L81.33,106.84L81.45,116.07L81.81,95.23L81.93,78.49L82.88,135.75L83,135.42L83.11,135.65L83.23,133.12L83.71,48.36L84.06,92.79L84.18,112.91L84.42,104.61L84.54,92.76L84.78,69.47L85.85,132.37L85.96,131.32L86.2,118.21L86.32,98.36L86.56,47.25L86.8,100.83L86.91,87.62L87.03,115.11L87.15,121.64L87.27,115.53L87.39,91.7L87.63,81.29L87.75,104.65L87.86,124.9L88.1,121.45L88.34,129.14L88.46,127.61L88.58,131.61L88.93,130.64L89.05,119.38L89.41,60.69L89.88,96.95L90,113.87L90.48,79.76L90.59,93.55L90.71,116.53L91.78,137.75L91.9,120.4L92.26,50.05L92.61,82.38L92.73,105.4L92.85,110.61L92.97,91.04L93.09,108.12L93.21,87.68L93.33,74.44L93.56,116.32L93.68,127.3L93.8,123.55L94.28,131.45L94.39,132.44L94.75,118.84L94.87,97L95.11,40.59L95.46,85.63L95.58,111.52L95.7,114.57L95.82,101.4L95.94,101.57L96.18,66.5L96.29,101.63L96.41,120.57L97.13,133.52L97.24,133.27L97.36,136.93L97.48,136.8L97.6,114.2L97.96,35.04L98.31,83.22L98.43,109.6L98.55,120.06L98.91,100.15L99.03,70.47L99.86,136.57L99.97,128.58L100.21,137.27L100.45,116.04L100.57,93.52L100.69,90.78L100.81,47.62L101.4,110.24L101.76,94.75L101.87,79.26L102.59,138.85L102.82,135.05L102.94,134.46L103.06,135.1L103.18,126.35L103.66,44.64L103.77,69.73L103.89,82.11L104.13,117.18L104.49,102.22L104.61,89.48L104.72,61.22L105.08,133.42L105.2,138.35L105.32,137.77L105.56,139.44L105.67,133.69L105.79,141.14L106.15,121.77L106.27,100.54L106.51,43.87L106.98,107.32L107.1,112.54L107.57,71.36L107.69,101.27L107.81,120.35L108.64,142.01L108.76,140.93L108.88,135.67L109.35,48.75L109.59,100.48L109.71,98.22L109.95,124.89L110.3,94.6L110.42,75L111.37,144.14L111.49,144.34L111.73,140.89L111.85,126.53L112.32,75.59L112.68,98.99L112.8,117.2L113.27,67.79L113.51,117.18L113.63,118.28L114.1,133.85L114.46,130.5L114.58,131.63L115.05,34.87L115.41,79.71L115.53,109.49L115.65,111.41L115.77,108.52L115.89,79.65L116.12,69.15L117.07,130.37L117.31,127.31L117.43,127.63L117.9,28.92L118.02,43L118.14,86.55L118.26,89.1L118.38,108.1L118.5,111.37L118.62,85.74L118.97,58.76L119.57,125.76L119.8,119.07L119.92,124.86L120.16,127.42L120.28,122.01L120.75,44.75L120.87,58.54L120.99,82.94L121.11,77.11L121.23,117.39L121.82,69.77L121.94,107.11L122.65,131.12L122.77,125.26L122.89,124.29L123.13,127.03L123.25,118.62L123.37,107.31L123.6,47.27L124.08,109.78L124.2,117.61L124.67,73.61L124.79,101.23L124.91,125.56L125.15,116.18L125.62,125.66L125.74,124.67L125.98,114.45L126.1,108.2L126.33,95.14L126.45,47.02L127.05,112.54L127.4,100.54L127.52,78.37L128,125.06L128.47,118.81L128.59,119.16L128.71,119.41L128.83,116.7L129.18,89.88L129.3,54.25L129.9,119.33L130.13,99.48L130.25,96.51L130.37,71.91L130.61,117.63L130.85,115.43L130.96,115.26L131.68,135.38L131.8,124.68L131.91,107.88L132.15,43.46L132.27,70.55L132.39,91.3L132.51,93.06L132.63,121.79L132.75,120.7L132.86,106.47L133.1,97.54L133.22,69.4L134.17,133.56L134.29,132.52L134.53,132.68L134.65,124.54L134.76,110.21L135,59.35L135.36,95.4L135.48,122.11L135.6,125.25L135.71,114.05L135.83,104.64L136.07,65.59L136.19,97.2L136.78,129.1L137.02,127.88L137.14,126.5L137.38,132.3L137.5,115.98L137.61,101.28L137.85,32.38L137.97,62.23L138.09,90.44L138.33,125.6L138.45,123.34L138.56,97.84L138.92,70.94L139.51,138.73L139.63,141.17L140.23,136.16L140.34,118.45L140.7,52.83L141.06,97.56L141.18,123.51L141.29,124.48L141.41,121.77L141.53,101.11L141.77,77.77L141.89,99.25L142.36,140.54L142.96,139.13L143.08,137.61L143.55,41.94L143.91,90.59L144.03,111.31L144.14,118.87L144.5,99.69L144.62,72.01L145.33,144.51L145.57,138.98L145.69,145.34L145.93,143.11L146.04,120.14L146.4,49.15L146.76,83.84L146.88,103.43L146.99,109.73L147.11,95.97L147.35,97.76L147.47,55.92L148.3,138.92L148.42,138.56L148.54,138.43L148.66,139.56L148.77,137.26L148.89,120.54L149.25,34.24L149.61,92.7L149.72,109.66L149.84,115.41L150.2,100.42L150.32,69.81L151.03,138.36L151.27,130.46L151.39,130.3L151.98,103.18L152.1,41.82L152.69,123.5L152.93,113.6L153.05,101.62L153.17,67.14L153.41,122.76L153.64,119.96L153.76,120.72L154,131.09L154.47,119.92L154.59,117.76L154.83,106.83L154.95,50.47L155.42,126.13L155.78,111.42L155.9,103.93L156.02,83.15L156.37,129.72L156.49,135.18L156.61,137.36L156.85,135.69L156.97,127.72L157.32,121.27L157.44,107.95L157.68,88.81L157.8,53.38L157.92,42.49L158.04,92.92L158.16,94.27L158.27,116.45L158.75,96.37L158.87,66.97L159.22,123.07L159.82,121.34L159.94,111.28L160.17,121.65L160.41,107.71L160.53,99.69L160.65,49.87L161.12,122.69L161.24,126.57L161.72,63.88L161.95,122.51L162.07,125.95L162.55,135.28L162.9,131.42L163.02,127.57L163.5,39.66L163.62,81.35L163.74,102.38L164.09,123.72L164.21,108.07L164.33,109.01L164.45,105.56L164.57,62.24L165.28,133.01L165.4,132.92L165.52,126.79L165.64,130.89L165.87,128.65L165.99,116.74L166.35,40.01L166.47,65.83L166.59,91.28L166.7,85.03L166.82,115.03L166.94,117.49L167.18,118.28L167.42,76.43L167.54,110.96L167.65,130.15L167.77,130.46L167.89,133.87L168.01,133.22L168.13,125.57L168.37,135.55L168.72,126.66L168.84,117.79L169.2,44.67L169.55,82.42L169.67,106.04L169.79,110.65L169.91,97.6L170.03,89.28L170.27,61.53L170.38,104.2L170.98,137.05L171.22,135.82L171.33,136.64L171.69,125.05L171.81,104.2L171.93,99.32L172.05,62.69L172.52,121.36L173,92.79L173.12,58.93L173.95,139.93L174.07,139.29L174.18,141.08L174.42,135.75L174.54,126.88L174.9,51.2L175.25,86.78L175.37,118.74L175.61,112.65L175.73,97.88L175.97,72.19L176.08,108.52L176.2,126.06L176.32,124.57L176.44,130.13L176.68,127.96L176.8,133.62L177.03,143.2L177.39,122.79L177.51,103.37L177.75,49.5L177.87,54.61L177.98,91.29L178.1,85.07L178.34,107.07L178.58,96.29L178.7,98.98L178.81,71.4L179.29,135.57L179.41,132.84L179.53,134.78L180,132.35L180.12,132.39L180.24,117.31L180.6,53.97L180.95,90.17L181.07,107.19L181.19,109.58L181.31,100.76L181.43,92.01L181.55,97.1L181.66,71.31L181.78,90.84L181.9,118.78L182.02,113.83L182.14,130.96L182.26,136.61L182.61,139.47L182.73,134.71L182.97,126.68L183.09,118.43L183.45,41.5L183.8,90.63L183.92,116.2L184.51,80.92L184.63,100.27L184.75,114.71L185.58,135.75L185.7,134.73L185.82,134.44L186.3,57.81L186.65,68.21L186.77,101.83L186.89,109.9L187.13,98.55L187.25,102.36L187.36,82.47L188.19,143.17L188.31,140.07L188.43,140L188.67,136.48L188.79,124.57L189.14,50.06L189.5,79.58L189.62,105.78L189.74,113.01L189.86,97.59L190.09,104.84L190.21,73.65L191.16,139.11L191.28,141.16L191.4,143.31L191.52,137.53L191.64,125.42L191.99,58.14L192.35,83.11L192.47,109.39L192.59,112.79L192.71,100.92L192.83,96.88L192.94,99.28L193.06,73.01L194.25,147.07L194.37,140.83L194.84,49.79L195.2,79.48L195.32,104.62L195.56,87.46L195.79,112.1L195.91,69.08L196.63,146.31L196.86,144.48L196.98,146.54L197.58,99.2L197.69,47.58L197.81,47.79L197.93,88.95L198.29,118.35L198.41,104.27L198.52,88.89L198.64,89.74L198.76,75.56L199.12,134.79L199.71,130.41L199.83,127.93L200.54,56.18L200.9,93.36L201.02,99.11L201.26,114.95L201.49,94.12L201.61,59.13L202.56,131.64L202.68,122.85L202.8,126.33L203.04,115.33L203.16,112.63L203.39,59.47L203.75,102.26L203.87,112.99L203.99,122.64L204.11,100.12L204.34,109.44L204.46,71.56L205.17,136L205.41,134.17L205.53,131.22L206.24,53.66L206.48,92.18L206.6,99.22L206.84,122.48L207.19,93.34L207.31,65.5L208.02,131.4L208.26,126.73L208.38,127.95L208.97,93.35L209.09,50.88L209.69,120.38L209.92,96.6L210.04,96.05L210.16,65.91L210.4,122.83L210.64,121.84L210.75,123.03L210.99,118.08L211.11,124.54L211.35,129.81L211.59,122.56L211.7,106.08L211.94,57.73L212.3,87L212.42,119.5L212.77,100.63L212.89,110.46L213.01,80.89L213.84,138.69L213.96,135.69L214.67,64.54L214.91,87.26L215.03,100.88L215.39,116.66L215.86,85.56L215.98,109.22L216.81,144.45L217.05,137.3L217.17,137.55L217.64,41.95L217.88,90.42L218,92.31L218.23,116.57L218.59,106.44L218.71,75.34L219.42,145.22L219.66,138.96L219.78,139.83L220.02,138.77L220.13,125L220.49,45.83L220.85,91.2L220.97,111.05L221.08,110L221.2,112.68L221.32,101.74L221.56,72.85L222.27,139.69L222.39,137.54L222.51,130.52L222.63,136.27L222.87,130.42L222.98,113.97L223.34,47.76L223.46,88.74L223.93,117.32L224.29,116.32L224.41,73.65L225.12,146.97L225.36,146.59L225.48,144.97L225.6,146.07L225.72,142.52L225.83,122.36L226.19,58.45L226.55,90.98L226.67,118.89L226.78,126.22L227.14,102.11L227.26,83.72L227.97,147.79L228.21,137.31L228.33,145.04L228.68,131.48L228.8,114.91L229.04,56.41L229.51,120.9L229.63,127.5L230.11,94.8L230.35,128.13L230.46,123.76L231.18,147.45L231.3,144.19L231.41,142.04L231.89,47.58L232.25,90.49L232.36,114.49L232.48,114.91L232.6,104L232.96,77.66L233.55,142.9L233.67,134.85L234.03,142.68L234.26,138.34L234.38,120.96L234.74,54.52L234.86,78.76L234.98,110.37L235.33,121.27L235.81,76.73L235.93,108.85L236.88,139.84L237,138.22L237.11,136.84L237.23,124.81L237.59,56.81L237.94,88.98L238.06,108.2L238.18,115.74L238.3,91.82L238.54,92.16L238.66,65.89L239.25,147.29L239.73,146.01L239.84,146.13L239.96,145.61L240.08,123.83L240.44,51.87L240.79,84.78L240.91,107.99L241.03,112.34L241.15,96.95L241.39,104.23L241.51,63.2L242.34,148.92L242.46,148.78L242.58,147.76L242.81,144.42L242.93,120.08L243.29,39.07L243.64,88.74L243.76,108.04L243.88,108.46L244,105.99L244.36,74.5L244.48,106.6L245.43,148.83L245.54,147.94L245.66,144.42L246.14,41.89L246.49,96.85L246.61,111.61L246.85,119.29L247.21,72.14L247.33,115.64L248.27,148.25L248.39,148.02L248.51,143.49L248.99,47.22L249.34,84.28L249.46,116.52L249.58,117.66L249.7,114.36L249.82,108.8L249.94,112.81L250.06,87.73L251.01,139.58L251.12,140.99L251.96,79.39L252.19,89.48L252.31,121.56L252.43,124.69L252.55,112.5L252.67,100.57L252.79,101.09L252.91,74.95L253.5,138.27L253.74,136.91L253.97,138.16L254.09,139.42L254.33,137.81L254.45,112.59L254.81,59.79L255.04,114.46L255.16,95.76L255.28,124.7L255.4,128.84L255.52,113.47L255.76,123.2L255.87,100.03L256.23,132.31L256.71,132.07L256.82,125.59L256.94,134.06L257.3,110.64L257.42,96.69L257.65,44.58L257.77,73.9L257.89,107.7L258.01,96.89L258.25,129.58L258.49,108.74L258.6,117.25L258.72,89.08L259.08,139.27L259.2,137.96L259.32,139.79L259.67,142.44L259.79,139.77L259.91,132.06L260.03,141.87L260.27,105.43L260.39,104.89L260.5,36.66L261.1,117.93L261.22,107.25L261.45,111.86L261.57,87.53L262.4,142.24L262.52,141.67L262.64,136.4L262.76,135.37L262.88,140.16L263,122.47L263.35,39.2L263.71,95.61L263.83,119.19L263.95,125.5L264.19,107.23L264.3,108.05L264.42,87.84L265.37,143.02L265.49,142.04L265.73,143.38L265.85,123.48L266.2,39.44L266.56,88.07L266.68,122.41L266.8,127.8L266.92,105.79L267.15,109.96L267.27,89.08L267.98,141.13L268.22,139.06L268.34,136.32L268.46,140.6L268.58,137.28L268.7,118.32L269.05,43.32L269.41,85.38L269.53,110.92L269.65,118.4L269.77,103.57L270,109.71L270.12,90.49L270.95,146.56L271.07,145.3L271.19,146.36L271.43,142.59L271.55,117.66L271.9,51.23L272.26,91.56L272.38,118.09L272.5,123.61L272.62,103.01L272.85,122.21L272.97,90.53L273.92,145.99L274.04,140.82L274.16,143.86L274.28,133.36L274.4,113.62L274.75,56.61L274.87,92.68L274.99,102.64L275.11,98.47L275.23,129.36L275.47,114.44L275.58,108.1L275.7,110.11L275.82,82.66L276.53,144.27L276.65,143.24L276.77,143.52L276.89,144.38L277.01,140.81L277.13,134.11L277.6,59.22L277.96,93.76L278.08,116.63L278.2,117.75L278.31,108.32L278.55,112.64L278.67,77.22L278.79,102.09L278.91,121.18L279.62,146.48L279.86,145.4L279.98,143.27L280.45,40.89L280.81,90.32L280.93,119.62L281.05,120.48L281.16,96.87L281.52,70L282.23,146.77L282.35,146.73L282.47,146.59L282.59,145.85L282.71,147.08L282.83,138.69L283.3,43L283.66,88.48L283.78,118.91L283.9,119.69L284.01,96.58L284.37,79.72L285.32,144.23L285.44,142.34L285.56,145.22L285.68,142.27L285.8,123.12L286.15,52.28L286.51,90.5L286.63,113.45L286.75,114.15L286.86,91.84L287.22,77.46L288.05,142.82L288.17,145.09L288.29,141.71L288.53,141.92L288.64,111.5L289,38.7L289.36,91.89L289.48,120.51L289.59,119.87L289.71,103.58L290.07,88.7L290.9,144.91L291.14,137.46L291.26,137.6L291.73,98.01L291.85,65.28L292.44,122.1L292.8,115.09L292.92,82.21L293.75,145.62L293.87,145.33L293.99,138.11L294.11,135.92L294.23,138.28L294.34,114.25L294.7,48.41L294.82,90.25L294.94,99.29L295.06,78.48L295.18,120L295.77,84.14L295.89,122.16L296.72,145.36L296.96,143.36L297.08,128.35L297.55,20.08L297.91,78.54L298.02,110.94L298.14,114.61L298.38,99.54L298.5,107.77L298.62,93.51L299.33,145.29L299.69,144.84L299.81,142.36L300.28,98.99L300.4,41.58L300.99,123L301.23,88.66L301.35,93.25L301.47,91.49L301.59,114.53L301.82,128.44L302.42,122.51L302.54,125.68L302.66,125.93L302.77,118.48L303.25,30.06L303.61,71.47L303.72,107.33L303.84,104.29L303.96,72.87L304.79,124.88L304.91,122.09L305.03,118.53L305.15,118.38L305.27,113.88L305.51,123.25L305.62,120.3L305.74,95.56L306.1,24.32L306.22,66.03L306.34,87.27L306.46,78.66L306.57,103.22L306.93,93.93L307.05,98.42L307.17,83.06L307.52,124.11L307.64,126.33L307.88,128.41L308,125.31L308.12,131.26L308.83,70.19L308.95,46.1L309.78,109.97L309.9,95.51L310.02,75.59L310.73,129.89L310.85,124.43L310.97,129.56L311.2,125.59L311.32,125.9L311.44,107.39L311.8,46.1L312.15,76.86L312.27,104.75L312.51,88.63L312.63,97.51L312.75,98.17L312.87,80.76L313.22,124.14L313.34,125.06L313.82,132.47L314.05,127.46L314.17,124.71L314.65,48.51L315,75.58L315.12,102.62L315.24,106.72L315.48,93.29L315.6,96.52L315.72,72.77L316.55,126.03L316.67,126.26L317.14,103.14L317.26,92.35L317.38,85.7L317.5,35.37L318.09,102.02L318.45,93.23L318.57,59.56L319.28,125.06L319.52,124.74L319.63,120.36L319.75,122.99L319.87,121.74L319.99,103L320.35,27.1L320.58,72.93L320.7,73.89L320.94,95.34L321.3,82.86L321.42,51.26L322.25,127.03L322.37,128.6L322.72,124.92L322.84,104.26L323.2,28.48L323.55,74.95L323.67,103.8L323.79,104.87L323.91,81.38L324.27,60.16L324.98,130.93L325.1,130.3L325.57,124.14L325.69,97.09L326.05,28.7L326.17,67.26L326.28,82.26L326.4,75.91L326.52,95.84L326.64,104.32L327.11,74.05L327.35,103.06L327.47,117.27L327.59,112.76L327.83,124.4L328.18,118.31L328.3,123.3L328.54,101.85L328.66,86.23L328.9,42.57L329.25,72.28L329.37,93.71L329.49,102.28L329.61,75.63L329.85,86.19L329.96,60.96L330.91,122.65L331.03,120.05L331.15,117.54L331.27,119.87L331.39,98.43L331.75,30.41L332.1,76.31L332.22,98.25L332.34,99.96L332.46,77.63L332.81,68.16L333.41,124.31L333.53,120.41L333.76,125.63L334.36,88.42L334.48,73.8L334.6,45.87L335.07,98.08L335.19,97.13L335.66,72.06L335.78,96.31L335.9,111.38L336.38,124.25L336.61,120.87L336.73,113.03L336.85,115.79L336.97,110.95L337.09,95.15L337.44,8L337.56,41.07L337.68,77.06L337.8,72.88L337.92,90.26L338.04,90.08L338.16,86.92L338.51,62.38L338.63,91.81L338.75,115L339.7,128.97L339.82,123.89L340.29,30.65L340.65,72.11L340.77,101.91L340.89,103.48L341.01,91.76L341.24,101.41L341.36,67.14L341.48,94.02L341.6,104.84L342.08,127.84L342.55,122.65L342.67,119.89L343.14,35.39L343.38,85.96L343.5,80.32L343.62,106.63L344.21,77.35L344.33,87.3L345.16,127.17L345.28,122.89L345.4,123.68L345.52,113.62L345.99,29.33L346.35,72.01L346.47,102.03L346.59,102.76L346.71,89.66L347.06,81.29L347.66,134.46L347.77,133.6L347.89,133.44L348.01,130.49L348.25,132.13L348.37,129.9L348.49,108.39L348.84,29.59L349.2,75.75L349.32,104.4L349.44,109.19L349.67,90.99L349.79,93.54L349.91,86.04L350.62,134.06L350.86,133.9L350.98,131.65L351.1,130.38L351.22,132.8L351.34,110.2L351.81,72.74L352.05,81.71L352.17,105.81L352.41,88.38L352.52,97.86L352.64,102.6L352.76,78.26L353.12,119.32L353.24,113.24L353.36,113.35L353.47,120.84L353.83,112.75L354.07,119.55L354.19,105.57L354.42,97.36L354.54,55.1L355.02,113.6L355.49,101.85L355.61,74.62L356.32,130.16L356.56,122.56L356.68,119.27L356.92,117.88L357.04,107.01L357.39,40.52L357.63,94.14L357.75,90.36L357.99,110.61L358.34,103.88L358.46,83.42L358.82,131.85L359.29,124.71L359.41,125.13L359.53,125.32L359.65,129.84L359.89,116.02L360,95.94L360.24,33.55L360.36,80.81L360.6,76.78L360.84,111.27L361.19,100.96L361.31,76.71L362.02,126.96L362.14,125.3L362.26,126.16L362.5,125.59L362.62,128.75L363.09,42.28L363.45,91.37L363.57,116.17L363.8,93.41L364.04,95.07L364.16,78.23L364.99,125.7L365.11,125.27L365.23,126.4L365.35,128.59L365.47,126.11L365.59,106.95L365.94,49.12L366.06,87.35L366.18,97.42L366.3,85.47L366.53,115.74L366.77,104.41L366.89,102.58L367.01,82.97L367.37,127.77L367.48,124.92L367.6,127.03L367.96,129.38L368.2,126.73L368.32,125.18L368.79,38.45L369.15,78.37L369.27,109.28L369.38,110.84L369.5,106.23L369.62,86.32L369.86,86.15L370.33,132.68L370.69,130.75L370.81,130.59L370.93,136.67L371.17,130.84L371.28,114.35L371.64,29.67L372,81.59L372.12,105.06L372.23,112.58L372.35,94.33L372.59,98.45L372.71,61.47L373.42,136.89L373.54,131.14L373.66,129.94L374.13,110.2L374.25,91.42L374.49,53.12L374.73,92.72L374.85,85.49L374.97,105.1L375.08,113.04L375.2,87.38L375.44,102.05L375.56,85.99L376.39,132.05L376.51,132.01L376.63,127.8L376.75,129.11L376.86,126.03L376.98,103.62L377.34,39.51L377.7,81.73L377.81,108.91L377.93,112.15L378.05,89.64L378.41,66.13L378.76,127.23L379,124.8L379.12,125.4L379.24,125.31L379.36,125.81L379.48,127.89L379.6,130.08L379.71,130.07L379.83,109.18L380.19,37.82L380.55,81.29L380.66,108.36L380.78,108.54L380.9,89.17L381.26,80.12L381.85,129.86L381.97,132.92L382.45,134.97L382.56,127.93L382.68,109.52L382.92,85.9L383.04,25.99L383.63,112.21L383.99,98.16L384.11,76.51L384.82,133.49L385.06,130.88L385.18,135.72L385.3,138.17L385.41,124.99L385.89,40.43L386.25,73.26L386.36,106.21L386.48,110.79L386.6,107.22L386.72,83.37L386.96,72.72L387.79,136.55L387.91,135.8L388.03,137.16L388.14,134.35L388.26,130.36L388.74,31.76L389.09,75.9L389.21,108.88L389.33,108.35L389.45,96.71L389.81,74.53L390.52,135.99L390.76,135.81L390.88,131.83L390.99,132.23L391.11,130.91L391.23,113.55L391.59,49.54L391.71,87.28L391.83,98.92L392.06,113.73L392.66,77.75L392.78,96.13L393.61,137.33L393.73,137.01L393.84,136.22L393.96,133.68L394.08,113.32L394.32,93.55L394.44,46.81L395.39,108.62L395.51,75.36L396.1,134.13L396.46,134.04L396.57,133.09L396.69,133.51L396.81,130.42L397.41,31.78L397.64,69.7L397.76,92.83L397.88,94.94L398,58.72L398.36,54.81L398.71,120.32L399.07,113.25L399.19,112.7L399.31,112.32L399.42,118.18L399.66,128.54L399.78,103.59L399.9,77.64L400.14,24.64L400.37,86.18L400.49,75.54L400.61,99.73L400.73,114.03L401.09,88.08L401.21,71.82L401.56,133.67L402.04,118.17L402.16,122.48L402.39,131.2L402.63,111.18L402.75,89.74L402.87,91.38L402.99,30.61L403.46,115.16L403.94,108.76L404.06,73.63L404.41,128.35L404.89,120.75L405.01,123.5L405.24,133.79L405.48,116.79L405.6,103.04L405.84,48.19L406.07,109.45L406.19,93.51L406.31,119.14L406.43,122.91L406.55,105.91L406.79,122.68L406.9,90.06L407.5,136.08L407.85,135.07L407.97,134.02L408.21,131.9L408.33,117.89L408.69,48.38L408.92,104.44L409.04,94.77L409.28,120.62L409.64,115.57L409.75,87.05L410.11,134.66L410.59,131.98L410.7,131.28L411.06,134.25L411.42,103.96L411.54,67.35L412.13,115.73L412.49,111.16L412.6,89.9L413.55,138.21L413.67,133.11L413.91,136.91L414.03,123.44L414.15,114.65L414.39,57.5L414.5,88.68L414.62,108.38L414.74,109.03L414.86,116.38L414.98,121.66L415.1,103.7L415.34,107.87L415.45,83.1L415.81,136.83L416.4,136.76L416.52,129.71L416.64,126.38L416.76,133.82L416.88,126.78L417,99.55L417.23,49.43L417.59,82.3L417.71,115.29L417.83,113.19L417.95,92.85L418.3,88.15L419.02,143.42L419.13,144.91L419.25,145.68L419.49,145.23L419.61,140.62L420.08,40.83L420.44,83.66L420.56,115.65L421.15,75.54L421.27,116.51L421.87,147.41L422.22,145.98L422.34,144.47L422.58,121.01L422.7,102.41L422.93,39.49L423.29,81.26L423.41,112.46L423.53,114.67L423.65,103.06L423.77,112.04L423.88,105.64L424,88.98L424.36,134.91L424.48,132.48L425.07,145.66L425.31,142.17L425.43,125.79L425.78,47.93L425.9,85.22L426.02,99.93L426.14,95.75L426.26,122.76L426.38,125.5L426.5,99.56L426.85,80.62L427.56,143.69L427.68,141.85L427.8,142.88L428.16,140.85L428.28,116.92L428.63,41.52L428.87,95.58L428.99,88.42L429.94,131.54L430.06,134.25L430.77,143.93L431.01,142.15L431.13,122.94L431.48,54.58L431.84,93.23L431.96,129.22L432.08,130.28L432.2,103.9L432.55,75.5L433.26,143.96L433.38,147.52L433.5,147.92L433.62,146.17L433.74,146.14L433.86,138.6L434.33,63.67L434.57,114.39L434.69,106.9L434.93,127.13L435.28,113.13L435.4,86.03L435.99,145.34L436.35,136.76L436.47,129.71L436.59,126.38L436.71,133.82L436.83,126.78L436.94,99.55L437.18,49.43L437.54,82.3L437.66,115.29L437.78,113.19L437.89,122.36L438.01,101.76L438.25,85.85L438.37,107.93L438.49,125.82L439.08,144.39L439.44,140.09L439.56,133.24L440.03,50.27L440.15,73.51L440.27,107.37L440.39,100.29L440.51,130.29L440.74,113.81L440.86,119.62L441.1,88.39L441.34,128.85L441.46,137.06L442.05,148.33L442.29,145.22L442.41,138.79L442.88,54.2L443.24,97.66L443.36,126.62L443.48,128.17L443.59,111.93L443.95,88.25L444.07,121.31L444.19,131.73L445.02,146.47L445.14,144.63L445.26,143.54L445.38,125.65L445.73,32.74L446.09,92.77L446.21,118.22L446.32,121.71L446.44,102.46L446.56,101.72L446.8,92.91L446.92,119.09L447.75,147.5L447.99,146.8L448.11,144.23L448.58,53.9L448.94,94.63L449.06,110.41L449.17,121L449.29,99.39L449.53,101.74L449.65,87.61L450.6,147.7L450.72,148.12L450.96,142.03L451.07,116.19L451.43,56.6L451.67,93.15L451.79,93.8L451.91,126.74L452.5,88.79L452.62,120.09L452.74,132.43L453.09,141.26L453.21,144.16L453.57,146.23L453.69,144.99L453.81,139.14L454.4,86.87L454.64,104.43L454.76,130.69L455.23,109.51L455.35,94.12L456.06,145.89L456.3,144.55L456.42,144.75L456.65,136.26L456.77,115.7L457.13,61.13L457.25,67.13L457.37,99.11L457.49,88.11L457.6,117.83L457.84,94.37L457.96,115.71L458.2,78.45L458.44,127.15L458.55,132.43L459.27,144.14L459.39,138.95L459.5,136.21L459.98,39.44L460.34,97.54L460.45,123.49L461.05,92.99L461.17,121.91L461.29,134.09L461.64,141.45L462.24,141.41L462.35,137.22L462.83,51.07L462.95,64.09L463.07,97.08L463.19,85.34L463.42,114.61L463.66,103.09L463.78,108.16L463.9,86.37L464.37,134.46L464.49,139.24L464.61,139.79L464.73,144.31L464.85,143.84L464.97,139.65L465.2,135.72L465.32,122.22L465.68,64.78L465.92,105.13L466.03,111.76L466.27,125.2L466.39,111.56L466.51,106.05L466.75,101.16L467.7,142.98L467.82,141.93L468.05,139.92L468.17,125.88L468.53,68.33L468.88,105.03L469,119.68L469.24,93.93L469.6,98.71L469.72,111.73L470.55,145.04L470.67,143.84L471.02,121.02L471.14,110.6L471.38,66.41L471.73,90.17L471.85,116.58L471.97,117.88L472.09,98.52L472.45,93.28L473.16,143.75L473.28,137.63L473.75,145.05L473.87,122.76L474.23,49.27L474.58,88.12L474.7,111.5L474.82,114.56L474.94,95.13L475.3,83.47L476.01,143.34L476.13,142.9L476.36,144.67L476.48,139.67L476.6,140.71L476.72,124.25L477.08,69.46L477.43,91.83L477.55,121.91L477.67,120.6L477.79,100.7L478.15,86.77L478.5,132.48L478.62,130.92L478.74,124.34L478.86,120.88L479.21,129.6L479.33,131.15L479.93,50.51L480.05,75.64L480.16,106.47L480.28,101.02L480.52,119.74L480.76,107.37L480.88,114.21L481,83.84L481.35,135.63L481.47,130.66L481.59,132.89L482.18,133.79L482.3,126.42L482.42,110.59L482.78,50.38L483.13,90.49L483.25,116.51L483.37,117.39L483.49,96.4L483.85,82.95L484.44,137.67L484.68,134.31L484.8,130.37L484.91,130.78L485.03,129.46L485.15,128.09L485.63,41.08L485.98,89.4L486.1,112.37L486.46,116.38L486.58,100.48L486.69,86.93L487.29,147.07L487.64,145.02L487.76,146.61L488.12,120.75L488.24,102.78L488.48,50.85L488.83,97.82L488.95,118.34L489.07,116.81L489.19,104.08L489.43,109.42L489.54,96.63L489.66,118.37L490.26,146.1L490.49,145.96L490.61,146.16L490.85,133.27L490.97,121.25L491.33,51.32L491.68,87.92L491.8,115.56L491.92,113.61L492.04,90.94L492.39,82.45L493.11,146.51L493.23,142.91L493.34,145.82L493.58,142.36L493.7,143.15L493.82,119.72L494.18,46.09L494.53,85.8L494.65,117.58L494.77,116.62L494.89,95.87L495.24,94.66L495.72,144.83L495.84,143.73L495.96,147.35L496.55,139.66L496.67,120.47L497.02,45.25L497.26,103.89L497.38,101.97L497.5,128.47L498.09,97.64L498.21,124.07L498.33,136.3L498.45,135.22L498.57,137.24L498.69,142.61L498.81,141.45L499.04,145.62L499.16,145.38L499.28,145.22L499.4,142.08L499.87,57.76L500.23,88.77L500.35,119.81L500.47,122.42L500.59,107.52L500.94,92.27L501.06,117.89L502.01,143.23L502.13,143.75L502.49,115.08L502.61,92.48L502.72,66.75L502.96,118.15L503.08,110.13L503.2,130.27L503.32,131.87L503.44,103.69L503.79,89.85L504.51,144.63L504.62,144.7L504.74,143.72L504.86,146.01L505.1,145.87L505.22,126.73L505.57,54.58L505.93,91.19L506.05,119.84L506.17,122.18L506.29,108.65L506.64,90.67L506.76,111.92L506.88,130.99L507.35,147.17L507.71,147.06L507.83,146.97L507.95,146.24L508.07,131.11L508.42,44.61L508.66,105.1L508.78,104.73L509.14,100.5L509.73,135.18L509.85,137.82L510.32,146.06L510.8,144.64L510.92,129.93L511.27,81.08L511.63,92.9L511.75,122.36L511.87,123.3L511.99,104.17L512.34,91.58L513.05,144.18L513.17,139.3L513.53,137.8L513.65,141.12L514.12,64.59L514.48,103.75L514.6,117.73L514.72,124.98L514.84,102.68L515.07,116.58L515.19,80.32L515.67,140.37L516.02,134.59L516.14,135.03L516.26,138.12L516.5,135.4L516.62,119.69L516.97,46.38L517.21,89.51L517.33,95.35L517.57,117.04L517.92,103.21L518.04,70.34L518.75,143.36L518.87,142.14L518.99,131.43L519.23,137.09L519.35,131.24L519.47,115.08L519.82,63.47L520.18,93.37L520.3,124.51L520.65,106.39L520.77,115.09L520.89,92.96L521.48,145.44L521.84,133.15L521.96,118.75L522.2,126.5L522.32,115.8L522.43,105.35L522.55,105.46L522.67,60.13L523.27,123.04L523.5,109.87L523.62,112.93L523.74,97.19L524.1,141.19L524.22,137.67L524.33,142.53L524.69,134.35L525.05,141.21L525.16,126.81L525.52,52.63L525.88,96.89L526,119.65L526.11,123.41L526.35,110.13L526.47,120.51L526.59,100.51L527.42,137.53L527.54,136.61L527.66,138.2L527.78,133.62L527.9,131.1L528.37,57.17L528.73,84.73L528.85,110.06L528.96,115.41L529.2,98.95L529.32,106.34L529.44,92.83L530.15,144.88L530.39,142.98L530.51,142.84L530.86,122.66L530.98,107.36L531.1,103.96L531.22,55.55L531.7,125.52L532.05,118.36L532.17,96.53L533.24,145.7L533.36,143.15L533.48,144.75L533.71,120.84L533.83,95.27L533.95,89.72L534.07,40.46L534.66,118.81L535.02,111.63L535.14,81.73L535.85,146.74L535.97,144.61L536.09,144.46L536.21,145.87L536.44,141.12L536.56,120.02L536.92,52.78L537.28,91.53L537.39,128.81L537.51,128.22L537.63,110.09L537.99,97.24L538.46,138.6L538.58,137.11L538.7,139.94L538.82,144.99L539.29,136.09L539.41,114.53L539.77,55.78L540.13,91.65L540.24,109.43L540.48,99.02L540.6,115.03L540.72,110.59L540.84,98.61L541.55,143.84L541.79,142.9L541.91,142.78L542.26,118.56L542.38,104.34L542.5,98.33L542.62,52.89L543.21,126.14L543.57,122.49L543.69,100.33L544.16,141.49L544.52,135.59L544.64,136.84L544.87,140.82L544.99,139.46L545.11,118.74L545.47,48.79L545.82,85.11L545.94,114.01L546.06,113.36L546.18,106.31L546.42,109.04L546.54,87.07L547.49,144.63L547.61,141.93L547.84,139.44L547.96,119.16L548.32,60.5L548.67,101.52L548.79,113.09L548.91,117.68L549.03,89.76L549.86,140.37L549.98,137.13L550.1,137.5L550.34,144.48L550.69,139.29L550.81,126.22L551.17,75.35L551.52,92.29L551.64,118.2L552.12,106.22L552.24,96L552.95,140.83L553.19,140.37L553.31,139.54L553.9,100.9L554.02,54.56L554.49,115.71L554.97,97.79L555.09,87.41L555.92,142.9L556.04,142.17L556.15,143.41L556.27,134.03L556.75,100.9L556.87,42.62L557.46,120.79L557.82,116.57L557.94,99.55L558.65,148.1L559,144.46L559.12,141.17L559.6,98.79L559.72,58.79L560.31,119.5L560.67,112.99L560.79,93.54L561.38,149.24L561.74,144.94L561.85,144.79L562.45,102.46L562.57,65.43L563.04,116.09L563.52,115.32L563.64,100.32L564.23,139.77L564.58,136.57L564.7,135.75L564.94,134.76L565.06,121.94L565.42,39.07L565.65,99.02L565.77,91.52L565.89,117.69L566.48,87.48L566.6,107.56L566.84,141.68L567.43,134.12L567.55,132.23L567.79,139.37L567.91,124L568.03,103.08L568.27,45.26L568.38,69.72L568.5,103.17L568.62,87.44L568.86,123.15L569.1,112.81L569.22,112.22L569.33,91.79L569.69,137.5L569.81,137.18L569.93,138.75L570.17,137.87L570.28,142.25L570.64,140.64L570.76,124.7L571.12,72.03L571.47,99.43L571.59,118.8L571.71,117.42L571.83,100.4L571.95,98.22L572.07,105.55L572.18,81.04L573.02,140.31L573.13,134.63L573.25,134.38L573.37,139.23L573.61,121.76L573.73,100.22L573.97,58.42L574.32,91.64L574.44,114.09L574.56,118.91L574.68,95.73L574.91,107.2L575.03,84.1L575.39,133.57L575.86,132.21L575.98,132.01L576.22,129.24L576.34,135.03L576.46,129.94L576.58,112.06L576.81,66.48L577.17,86.27L577.29,115.22L577.41,116.96L577.53,100.99L577.76,110.68L577.88,89.66L578,129.75L578.36,140.99L578.48,145.56L578.71,142.07L579.07,146.25L579.19,142.81L579.31,128.98L579.66,62.1L580.02,92.44L580.14,118.25L580.38,99.5L580.85,117.89L580.97,133.71L581.8,145.58L582.04,143.79L582.16,130.62L582.51,54.42L582.87,89.5L582.99,110.54L583.11,116.1L583.23,91.13L583.46,105.4L583.58,74.07L584.53,146.97L584.65,148.29L584.89,141.99L585.01,126.67L585.36,41.72L585.6,92.61L585.72,86.5L586.67,138.61L586.79,134.98L587.5,145.95L587.62,144.58L587.74,141.81L588.21,51.57L588.57,90.11L588.69,118.09L588.81,121.3L588.93,101.51L589.04,104.27L589.28,92.33L589.4,114.58L590.11,147.03L590.23,147L590.35,141.29L590.47,146.76L590.71,125.73L590.83,111.85L590.94,109.05L591.06,79.02L591.66,120.79L591.89,113.24L592.01,104.78L592.13,97.16L592.37,126.29L592.49,138.84L592.73,135.29L593.2,145.51L593.44,143.98L593.56,125.28L593.91,69.33L594.27,99.07L594.39,118.64L594.51,120.16L594.62,103.98L594.98,87.97L595.69,146.97L595.81,144.84L596.05,147.98L596.29,143.57L596.41,117.58L596.76,32.08L597.12,84.53L597.24,119.35L597.36,121.12L597.47,111.31L597.71,119.81L597.83,96.71L597.95,131.78L598.54,144.94L598.9,144.93L599.02,140.38L599.14,140.77L599.26,116.36L599.61,44.81L599.97,91.25L600.09,110.14L600.32,106.74L600.44,118.25L600.56,111.98L600.68,106.23L601.39,148.83L601.75,143.82L601.87,143.13L602.11,119.41L602.22,97.45L602.46,57.9L602.82,89.17L602.94,113.1L603.06,115.46L603.17,108.38L603.41,110.11L603.53,100.35L604.36,143.15L604.48,141.91L604.72,146.82L604.84,146.18L604.95,128.33L605.31,59.97L605.67,100.9L605.79,118.79L605.9,121.21L606.02,99.25L606.74,143.96L607.09,142.58L607.21,141.67L607.33,143.27L607.57,136.5L607.69,136.91L608.16,53.24L608.52,96.68L608.64,121.3L608.75,125.77L608.87,109.16L609.11,114.86L609.23,92.97L609.94,137.6L610.06,134.14L610.18,133.56L610.3,134.46L610.42,131.16L610.54,133.44L610.65,116.93L611.01,54.36L611.25,109.62L611.37,98.63L611.6,121.9L612.2,121.49L612.32,132.05L612.79,147.58L613.15,144.65L613.27,134.94L613.39,139.47L613.5,124.72L613.62,116.24L613.86,72.4L613.98,95.6L614.1,116.73L614.45,125.19L614.93,87.83L615.05,110.62L615.76,144.92L615.88,141.16L616,141.24L616.59,75.51L616.71,47.4L617.3,115.75L617.66,113.11L617.78,102.26L618.61,146.5L618.73,145.77L618.85,145.08L619.08,133.7L619.2,115.79L619.56,46.43L619.8,103.68L619.92,103.95L620.03,104.35L620.15,124.18L620.63,90.43L620.75,126.92L621.58,144.02L621.7,144.4L621.93,139.81L622.05,122.86L622.41,37.46L622.65,103.96L622.77,96.99L623,119.59L623.36,100.89L623.48,86.94L624.43,146.59L624.55,149.43L624.78,144.27L624.9,117.69L625.26,50.56L625.38,93.58L625.5,104.93L625.61,95.79L625.73,121.42L626.09,117L626.21,115.56L626.33,98.27L626.68,142.24L626.8,143.29L627.16,140.11L627.4,149.45L627.51,149.22L627.63,143.82L628.11,70.53L628.46,104.29L628.58,127.2L628.82,110.75L629.06,114.3L629.18,91.81L630.13,151.62L630.25,145.78L630.48,138.99L630.6,106.83L630.96,61.62L631.08,72.86L631.2,101.47L631.31,97.7L631.55,114.44L631.67,104.3L631.79,110.07L632.03,103.97L632.15,120.95L632.26,134.28L633.1,150.2L633.21,150.09L633.33,147.92L633.81,67.38L634.16,97.02L634.28,124.23L634.4,125.3L634.52,107.67L634.88,106.05L635.83,152L635.94,148.18L636.06,149.98L636.18,144.16L636.3,122.17L636.66,38.23L637.01,88.74L637.13,120.36L637.25,121.25L637.37,115.27L637.61,118.78L637.73,99.66L637.84,113.97L637.96,134.93L638.2,123.89L638.56,139.87L638.68,142.15L638.91,139.69L639.03,140.17L639.15,122.39L639.51,52.85L639.86,99.91L639.98,117.38L640.1,118.35L640.22,113.05L640.34,115.92L640.46,109.48L640.58,94.21L641.53,144.76L641.64,144.18L641.76,141.7L641.88,144.48L642,125.97L642.36,49.15L642.59,105.94L642.71,100.85L642.83,118.48L643.31,114.5L643.43,96.12L643.78,144.11L644.26,139.56L644.37,143.71L644.61,143.4L644.73,139.92L645.21,65.32L645.56,97.34L645.68,123.87L645.8,121.72L645.92,101.85L646.27,91.9L646.63,143.49L646.87,141.92L646.99,132.69L647.22,144.67L647.58,140.34L647.7,128.44L648.06,45.43L648.41,97L648.53,122.31L648.65,123.26L648.77,112.04L648.89,113.61L649.01,125.76L649.12,101.59L649.48,144.3L649.72,131.4L649.84,130.64L649.96,129.97L650.07,132.38L650.19,130.35L650.31,134.77L650.55,109.67L650.67,97.86L650.91,71.87L651.02,97.61L651.5,121.12L651.86,110.54L651.97,95.09L652.45,136.65L652.92,132.89L653.04,133.14L653.16,135.22L653.28,132.82L653.4,117.48L653.75,63.41L654.11,93.55L654.23,123.89L654.35,124.35L654.47,112.71L654.82,98.32L654.94,113.87L655.06,135.03L655.77,144.82L655.89,143.5L656.01,141.39L656.49,83.73L656.6,43.09L657.79,122.91L657.91,132.37L658.62,148.31L658.86,145.57L658.98,144.59L659.45,42.13L659.81,75.51L659.93,105.71L660.05,108.71L660.17,100.13L660.29,100.4L660.4,96.52L660.52,93.86L660.64,123.29L661,145.12L661.47,137.4L661.59,137.53L661.83,140.53L662.07,111.53L662.19,102.58L662.3,56.62L662.9,118.75L663.02,104.32L663.37,93.38L663.85,139.67L663.97,129.9L664.08,129.3L664.2,136.53L664.44,133.51L664.56,139.6L664.68,141.19L665.15,61.5L665.51,94.48L665.63,124.14L665.75,128.53L665.87,114.33L666.1,116.09L666.22,101.78L666.93,138.72L667.17,133.56L667.29,130.13L667.65,114.84L667.77,104.27L668,62.88L668.24,110.4L668.36,103.28L668.48,118.32L668.72,110.09L668.83,125.77L668.95,113.91L669.07,101.52L669.78,141.66L670.02,132.73L670.14,136.36L670.38,134.87L670.5,118.95L670.85,87.23L671.21,106.01L671.33,130.85L671.45,129.49L671.57,107.89L671.92,98.65L672.63,149.01L672.75,150.14L672.99,149.56L673.11,147.73L673.23,148.46L673.35,129.1L673.7,61.97L674.06,100.82L674.18,128.34L674.3,134.13L674.41,114.52L674.53,126.09L674.65,113.13L674.77,88.83L675.25,143.46L675.36,140.28L675.6,138.07L675.84,138.3L675.96,141.73L676.08,147.59L676.2,131.69L676.31,115.18L676.55,51.2L676.91,82.94L677.03,108.32L677.15,115.73L677.26,95.84L677.5,105.3L677.62,97.75L678.1,142.82L678.69,140.57L678.81,141.51L679.4,51.02L679.64,95.83L679.76,85.79L680.71,125.3L680.83,126.28L681.18,138.79L681.54,130.24L681.66,130.85L681.78,129.65L681.9,115.64L682.25,52.88L682.61,87.06L682.73,119.05L682.85,122.25L682.96,107.6L683.08,101.64L683.32,86.71L684.03,144.64L684.15,142.52L684.27,132.24L684.39,138.86L684.63,129.93L684.74,115.28L685.1,52.34L685.46,85.92L685.58,110.81L685.69,114.92L685.81,91.11L686.53,138.55L686.76,135.73L686.88,135.95L687.12,135.99L687.59,118.65L687.71,98.04L687.95,60.28L688.31,89.66L688.43,118.21L688.54,122.43L688.9,108.79L689.02,94.5L689.49,136.51L689.97,135.12L690.09,133.45L690.21,135.06L690.33,132.78L690.44,114.53L690.8,56.99L691.16,84.42L691.28,117.55L691.39,118.71L691.51,113.94L691.63,101.03L691.87,80.76L692.94,142.22L693.06,141.86L693.18,138.78L693.29,115.59L693.65,65.39L694.01,87.23L694.12,117.15L694.24,118.01L694.36,96.94L694.72,87.09L695.19,140.28L695.31,138.84L695.43,138.28L695.67,142.89L696.02,140.57L696.14,118.63L696.62,56.55L696.86,91.13L696.97,119.68L697.09,122.73L697.21,108.2L697.33,109.45L697.57,91.27L698.04,136.49L698.4,130.02L698.52,130.36L698.76,133.37L698.87,132.41L698.99,116.86L699.35,61.95L699.71,90.39L699.82,115.39L699.94,122.61L700.06,98.3L700.3,113.04L700.42,88.88L700.89,136.96L701.37,136.25L701.49,136.19L701.96,100.71L702.08,81.84L702.2,51.65L702.67,119.88L702.79,120.46L703.27,91.59L703.39,115.4L703.5,131.03L704.1,141.43L704.34,136.47L704.45,139.62L704.57,136.44L704.69,112.32L705.05,47.91L705.29,89.67L705.4,88.52L705.52,116.21L706.24,111.2L706.35,126.45L706.83,142.96L707.3,134.66L707.42,134.01L707.9,35.19L708.25,90.34L708.37,113.36L708.49,114.39L708.61,90.64L708.97,82.43L709.8,144.23L709.92,143.87L710.04,145.45L710.27,139.98L710.39,113.23L710.75,46.31L711.1,88.01L711.22,116.38L711.34,117.09L711.46,94.06L711.82,90.27L712.41,141.55L712.53,141.52L713,146.62L713.12,139.8L713.24,105.95L713.48,94.07L713.6,51.59L714.07,116.3L714.55,105.07L714.67,79.63L715.62,148.55L715.73,143.66L715.85,147.75L715.97,141.52L716.09,120.12L716.45,28.8L716.8,97.56L716.92,112.98L717.52,83.55L717.63,111.51L718.58,148.17L718.7,147.43L718.82,144.71L719.3,38.04L719.65,86.86L719.77,112.99L719.89,117.87L720.01,96.98L720.25,112.47L720.37,99L721.2,138.38L721.32,131.44L721.43,139.01L721.55,139.51L721.67,133.77L722.15,64.49L722.5,96.48L722.62,121.77L722.86,110.93L722.98,98.82L723.21,98.17L724.05,145.01L724.16,145.75L724.28,146.62L724.4,140.26L724.88,90.79L725,40.99L725.59,119.16L725.95,115.02L726.06,83.19L726.9,143.78L727.01,143.93L727.25,142.54L727.37,143.58L727.49,118.79L727.85,41.12L728.2,89.78L728.32,116.35L728.44,117.96L728.56,105.53L728.68,105.63L728.8,114.16L728.91,76.58L729.39,140L729.51,139.16L729.86,138.42L729.98,141.94L730.1,140.54L730.22,137.23L730.7,80.44L731.05,100.29L731.17,120.44L731.29,124.6L731.41,94.55L731.76,82.63L732.36,145.82L732.48,141.09L732.6,146.57L733.07,141.06L733.19,122.34L733.54,54.23L733.78,103.76L733.9,105.4L734.14,126.39L734.61,101.2L734.73,117.07L735.68,143.6L735.8,141.11L736.04,119.31L736.16,98.54L736.39,25.35L736.75,87.37L736.87,110.75L736.99,120.82L737.11,102.05L737.34,112.4L737.46,76.26L738.18,141.31L738.41,138.41L738.53,139.86L738.65,137.49L738.77,139.23L738.89,119.64L739.24,44.89L739.6,78.92L739.72,111.64L739.96,99.28L740.19,121L740.31,90.86L740.91,143.12L741.38,141.24L741.5,138.11L741.62,140.57L741.74,117.44L742.09,53.83L742.45,96.49L742.57,113.2L742.69,124.83L743.04,107.93L743.16,90.95L743.99,136.36L744.11,134.57L744.23,138.67L744.59,119.98L744.71,97.03L744.94,37.31L745.18,94.65L745.3,89.91L746.25,137.36L746.37,142.28L746.49,144.61L746.72,139.35L747.2,144.35L747.32,144.78L747.79,38.89L748.15,95.89L748.27,122.33L748.39,124.44L748.51,108.79L748.86,82.94L749.34,143.86L749.57,136.03L749.69,135.31L750.05,140.45L750.17,137.83L750.29,122.45L750.64,68.93L751,91.69L751.12,119.84L751.24,118.32L751.36,104.75L751.71,74.28L752.07,139.39L752.42,136.84L752.54,134.62L752.66,139.25L753.02,133.82L753.14,118.16L753.49,73.95L753.85,97.36L753.97,119.61L754.09,118.66L754.2,99.27L754.56,86.84L755.15,145.8L755.27,143.41L755.39,138.79L755.75,140.77L755.87,138.73L755.99,120.62L756.46,39.56L756.7,86.16L756.82,113.84L756.94,117.04L757.05,90.81L758,140.16L758.12,134.74L758.36,142.65L758.72,135.38L758.84,117.27L759.19,37.06L759.55,90.82L759.67,122.32L759.79,123.98L759.9,98.74L760.26,89.75L760.85,145.94L760.97,142.41L761.09,138.63L761.21,142.58L761.57,137.01L761.69,115.37L762.04,41.55L762.4,91.65L762.52,119.02L762.64,118.15L762.75,106.85L763.11,88.33L763.58,141.67L763.94,140.42L764.06,141.72L764.18,142.93L764.42,139.44L764.53,121.65L764.89,39.66L765.25,92.73L765.37,111.94L765.48,116.73L765.6,97.82L765.84,105.47L765.96,83.77L766.67,136.8L766.91,135.63L767.03,136.69L767.15,135.51L767.27,136.18L767.38,119.45L767.74,34.57L768.1,89.18L768.22,120.29L768.33,122.13L768.45,88.89L768.81,82.27L768.93,111.95L769.05,127.95L769.88,142.19L770,139.6L770.12,138.82L770.23,120.94L770.59,59.42L770.95,94.28L771.07,119.86L771.18,118.16L771.3,92.83L771.66,84.22L772.37,142.92L772.49,143.18L772.73,143.73L773.08,121.15L773.2,103.02L773.44,55.5L773.8,89.53L773.91,118.36L774.03,117.64L774.15,99.73L774.51,83.15L775.34,140.17L775.46,141.99L775.7,132.59L775.81,134.16L775.93,115.68L776.29,41.95L776.65,96.87L776.76,118.42L776.88,124.33L777,102.13L777.24,112.77L777.36,94.6L777.95,145.39L778.31,144.85L778.43,140.8L778.78,114.42L778.9,97.68L779.14,44.06L779.26,69.66L779.38,101.49L779.5,94.63L779.61,124.41L779.97,106.76L780.09,111.21L780.21,77.36L780.68,139.69L780.8,138.04L780.92,137.08L781.04,144.77L781.16,145.35L781.28,138.1L781.51,135.19L781.63,113.34L781.99,31.2L782.35,94.18L782.46,120.41L782.58,120.92L782.7,92.3L783.06,81.76L783.53,139.31L783.65,136.05L783.77,137.88L784.13,143.19L784.24,140.44L784.36,132.32L784.84,44.81L785.19,91.84L785.31,117.57L785.43,118.78L785.55,105.18L785.79,109.3L785.91,94.29L786.86,146.44L786.98,145.79L787.09,144.29L787.33,117.56L787.45,93.32L787.57,90.53L787.69,37.44L788.28,119.48L788.52,104.08L788.64,96.15L788.76,84.32L788.99,123L789.11,135.28L789.35,143.74L789.83,142.42L789.94,134.82L790.06,136.61L790.18,116.46L790.54,72.32L790.89,93.64L791.01,123.49L791.13,122.74L791.25,103.62L791.61,91.05L791.96,139.83L792.2,136.68L792.32,135.16L792.67,141.59L792.91,138.94L793.03,120.84L793.39,60.19L793.74,87.98L793.86,118.54L793.98,119.11L794.1,98.06L794.46,87.59L795.52,146.19L795.64,145.39L795.76,139.44L796.24,28.59L796.59,86.33L796.71,118.11L796.83,115.82L796.95,96.03L797.31,90.02L798.49,141.26L798.61,141.97L799.09,35.35L799.44,92.62L799.56,110.02L799.68,119L799.8,98.74L800.04,101.28L800.16,87.97L800.99,145.11L801.22,142.97L801.34,142.22L801.46,141.47L801.58,120.23L801.94,38.45L802.29,81.45L802.41,108.97L802.53,109.46L802.65,74.99L803,68.75L803.6,137.64L803.72,137.22L803.84,136.95L804.19,144.56L804.31,138.5L804.43,115.85L804.79,27.78L805.14,90.51L805.26,100.6L805.38,114.31L805.5,93.74L805.74,109.65L805.85,77.64L806.8,143.92L806.92,137.95L807.04,141.55L807.16,137.52L807.28,118.99L807.64,34.54L807.99,81.61L808.11,110.76L808.23,109.73L808.35,91.1L808.7,75.13L809.18,142.36L809.42,132.72L809.54,135.37L809.77,142.54L809.89,130.12L810.01,131.7L810.13,120.49L810.49,39.97L810.84,89.62L810.96,119.33L811.08,118.89L811.2,93.66L811.55,85.98L812.03,141.24L812.27,139.57L812.38,138.63L812.62,142.92L812.86,141.32L812.98,121.65L813.33,43.57L813.69,85.9L813.81,115.52L813.93,116.26L814.05,93.68L814.4,91.66L814.88,142.25L815,137.96L815.12,140.59L815.23,140.91L815.35,144.01L815.47,145.56L815.59,139.22L815.71,141.75L815.83,116.73L816.3,44.32L816.54,91.18L816.66,112.73L816.78,116.69L816.9,99.6L817.13,109.93L817.25,87.95L817.85,146.99L818.2,145.81L818.32,135.73L818.44,140.77L818.56,135.92L818.68,113.52L819.03,42.54L819.39,83.06L819.51,110.67L819.63,114.28L819.75,97.28L819.98,105.86L820.1,90.64L820.7,143.11L821.17,141.42L821.29,143.45L821.41,140.56L821.53,115.71L821.88,44.07L822.24,89.92L822.36,112.36L822.48,120.58L822.6,104.97L822.83,109.05L822.95,82.25L823.66,140.49L824.02,136.7L824.14,143.5L824.38,117.97L824.5,88.88L824.61,86.11L824.73,32.92L825.33,122.24L825.56,88.08L825.68,100.52L825.8,89.51L826.04,124.51L826.16,138.19L826.75,145.12L826.87,143.7L826.99,137.68L827.46,80.63L827.58,48.59L828.18,117.46L828.53,107.89L828.65,84.95L829.6,140.18L829.72,136.95L829.96,144.28L830.08,117.26L830.43,41.27L830.79,77.41L830.91,104.6L831.03,109.76L831.38,96L831.5,87.12L831.62,86.86L831.74,117.96L832.57,138.84L832.69,130.88L832.81,143.34L833.04,98.78L833.16,85.05L833.28,46.01L833.76,104.95L833.88,114.96L834.35,78.52L834.59,115.65L834.71,129.64L834.94,126.11L835.06,133.07L835.18,139.81L835.66,140.45L836.01,71.6L836.13,24.58L836.73,118.92L837.08,112.22L837.2,77.26L837.91,135.27L838.15,131.9L838.27,133.12L838.51,137.59L838.63,109.6L838.98,32.36L839.34,87.86L839.46,114.59L839.58,119.3L839.69,95.42L839.93,112.51L840.05,79.08L841,134.69L841.12,129.6L841.24,133.66L841.36,130.27L841.48,110.37L841.83,49.7L842.19,78.82L842.31,105.76L842.42,114.05L842.66,96.93L842.78,104.02L842.9,75.71L843.97,136.28L844.09,135.57L844.56,76.74L844.68,34.13L845.27,111.54L845.51,100.4L845.63,98.24L845.75,82.95L845.99,125.12L846.11,135.27L846.58,132.73L846.82,133.94L846.94,135.26L847.06,133.02L847.17,107.31L847.53,52.53L847.89,86.5L848.01,119.47L848.12,121.93L848.24,104.85L848.6,69.42L849.31,144.84L849.43,143.56L849.67,145.01L850.02,111.64L850.14,87.59L850.26,86.91L850.38,59.45L850.86,118.56L851.21,116.25L851.33,111.4L851.45,86.97L851.92,141.82L852.04,141.77L852.16,146.87L852.64,139.8L852.75,114.89L853.11,68.86L853.23,77.84L853.35,103.26L853.7,122.14L854.18,75.43L854.3,108.57L854.89,144.53L855.13,137.25L855.25,139.18L855.37,143.58L855.49,138.4L855.6,121.86L855.96,48.92L856.32,88.16L856.44,115.96L856.55,117.79L856.67,95.2L857.03,64.92L857.62,136.01L857.74,135.75L857.86,135.56L857.98,136.03L858.1,134.35L858.22,137.63L858.34,132.9L858.45,121.67L858.81,50.78L859.17,82.82L859.29,105.74L859.4,112.41L859.64,86.5L859.76,84.8L859.88,69.78L860,115.09L860.12,133.63L860.59,133.56L860.83,143.65L861.07,142.45L861.19,141.75L861.66,37.34L862.02,90.17L862.13,119.56L862.73,82.1L862.85,105.8L862.97,125.81L863.68,143.48L863.8,135.62L863.92,137.63L864.15,119.22L864.27,99.94L864.51,33.42L864.75,96.09L864.87,93.51L864.98,116.63L865.46,98.39L865.58,74.37L866.53,144.05L866.65,139.39L866.77,146.75L867,114.96L867.12,93.77L867.36,58.39L867.6,97.25L867.72,82.02L867.83,112.14L867.95,117.95L868.07,94.77L868.31,100.66L868.43,82L869.38,141.35L869.5,141.17L869.85,117.93L869.97,99.45L870.21,45L870.33,68.33L870.45,89.14L870.57,83.26L870.68,114.85L870.8,116.48L870.92,90.14L871.28,75.86L871.4,113.26L871.52,126.13L871.63,135.7L871.87,126.02L872.23,126.18L872.35,131.95L872.58,129.08L872.7,112.89L873.06,45.96L873.41,85.17L873.53,121.33L874.13,72.15L874.25,95.06L874.36,130.82L874.6,139.8L875.08,135.59L875.2,134.85L875.43,133.03L875.55,109.84L875.79,86.24L875.91,38.38L876.5,118.43L876.86,98.13L876.98,66.85L877.93,141.41L878.05,141.04L878.16,143.71L878.28,142.09L878.4,121.37L878.76,32.91L879.11,85.52L879.23,96.16L879.35,112.75L879.71,89.13L879.83,73.11L880.78,143.12L880.9,139.65L881.01,141.79L881.13,139.79L881.25,119.42L881.61,34.42L881.96,89.69L882.08,116.77L882.2,115.91L882.32,85.81L882.44,92.56L882.56,92.47L882.68,61.87L883.63,141.21L883.74,135.53L883.86,143.38L884.1,122.31L884.22,105.74L884.46,45.56L884.81,92.26L884.93,117.19L885.41,92.21L885.53,67.13L886.36,136.37L886.48,141.43L886.95,116.9L887.07,96.34L887.31,28.05L887.66,79.09L887.78,108.74L887.9,114.31L888.02,88.53L888.14,86.5L888.38,79.45L888.61,115.98L888.73,132.94L889.09,139.38L889.56,136.21L889.68,132.57L890.16,58.24L890.51,93.19L890.63,114.27L890.75,118.34L890.87,99.55L890.99,101.88L891.11,95.6L891.23,73.44L891.58,129.4L891.7,126.17L892.29,139.09L892.53,138.29L892.65,123.13L893.01,38.4L893.36,91.24L893.48,116.92L893.6,117.5L893.72,101.52L893.96,97.57L894.07,79.11L895.02,131.79L895.14,132.33L895.26,133.32L895.38,133.16L895.5,115.61L895.86,23.97L896.21,85.32L896.33,113.1L896.45,114.37L896.57,91.35L896.92,72.03L898.11,142.82L898.23,138.12L898.71,27.97L898.82,88.18L898.94,99.67L899.06,95.79L899.18,114.58L899.3,108.44L899.42,77.62L899.77,57.87L900.37,144.28L900.84,141.47L900.96,141.1L901.2,121.39L901.32,95.89L901.55,36.38L901.79,81.09L901.91,77.88L902.15,111.22L902.5,88.26L902.62,62.73L903.34,143.5L903.57,140.97L903.69,140.86L904.05,118.61L904.17,95.33L904.4,30.44L904.76,80.41L904.88,111.73L905,116.25L905.12,94.18L905.24,105.94L905.35,98.25L905.47,70.98L905.83,129.02L905.95,135.44L906.3,141.78L906.66,139.47L906.78,135.85L907.25,42.22L907.61,82.94L907.73,106.6L907.85,108.31L907.97,97.1L908.09,94.66L908.2,94.97L908.32,70.53L909.15,146.22L909.27,144.4L909.39,141.24L909.63,135.92L909.75,117.04L910.1,65.69L910.46,86.47L910.58,106.51L910.7,108.95L910.82,88.73L911.17,74.99L911.77,132.92L911.88,119.73L912,134.98L912.48,129.86L912.6,114.55L912.95,50.65L913.31,84.65L913.43,111.3L913.55,109.12L913.67,92.46L914.02,87.18L914.14,102.65L914.73,131.92L914.97,129.74L915.09,127.29L915.21,131.45L915.33,120.62L915.45,110.24L915.8,39.24L916.16,93.99L916.28,127.56L916.87,82.8L916.99,113.67L917.11,127.71L917.35,134.74L917.7,130.89L917.82,125.29L917.94,134.17L918.3,123.14L918.42,96.36L918.65,40.73L919.01,84.87L919.13,118.32L919.25,117.95L919.37,81.64L919.72,76.36L919.96,123.26L920.08,131.77L920.32,134.32L920.79,127.77L920.91,131.69L921.15,117.02L921.26,95.45L921.5,40.11L921.62,71.4L921.74,91.71L921.86,92.56L921.98,100.51L922.1,105.62L922.21,87.31L922.33,90.42L922.45,84.46L922.57,84.98L922.69,112.43L923.4,140.19L923.76,138.2L923.88,136.95L924.35,25.19L924.71,79.04L924.83,110.66L924.95,110.46L925.06,85.09L925.42,61.75L926.13,143.76L926.25,142.1L926.85,125.06L926.96,98.51L927.2,26.22L927.44,91.98L927.56,84.78L927.68,116.98L928.15,82.16L928.27,69.89L928.86,140.39L929.22,135.38L929.34,133.82L929.46,136.55L929.58,134.54L929.7,118.65L930.05,39.92L930.41,82.82L930.53,112.76L930.65,116.09L930.76,85.87L931.12,67.59L931.24,107.92L931.83,136.35L932.19,135.84L932.31,135.8L932.43,135.6L932.54,118.79L932.9,55.47L933.26,89.08L933.38,105.47L933.49,114.15L933.85,96.68L933.97,83.49L934.92,137.39L935.04,137.77L935.28,136.37L935.39,115.24L935.75,33.23L936.11,76.89L936.23,112.22L936.34,111.86L936.46,96.66L936.58,71.47L937.06,122.85L937.18,137.55L937.77,134.01L937.89,134.68L938.01,136.42L938.36,92.9L938.48,66.41L938.6,36.37L938.84,87.92L938.96,80.61L939.08,112.11L939.67,68.84L939.79,109.61L939.91,130.1L940.74,137.43L940.86,136.25L940.97,130.76L941.45,22L941.69,83.52L941.81,83.19L942.04,106.37L942.4,85.15L942.52,69.84L943.23,138.89L943.47,138.38L943.59,135.51L943.71,136.8L943.82,133.07L943.94,111.56L944.3,32.11L944.66,86.6L944.77,101.12L944.89,107.89L945.01,86.72L945.25,87.11L945.37,67.53L946.08,132.79L946.2,131.61L946.32,128.52L946.56,134.81L946.67,132.09L946.79,116.8L947.15,36.39L947.51,80.01L947.62,105.55L947.74,115.04L947.98,91.71L948.1,92.09L948.22,58.75L948.93,133.12L949.17,132.33L949.29,132.78L949.41,134.21L949.52,132.19L949.64,111.01L950,53.71L950.36,84.71L950.47,102.07L950.59,108.1L950.83,86.84L950.95,97.5L951.07,84.42L951.66,131.42L952.02,129.78L952.14,136.39L952.49,119.69L952.61,100.02L952.85,50.96L953.2,85.07L953.32,105.09L953.44,114.44L953.56,96.76L953.8,100.16L953.92,76.05L954.75,135.18L954.87,126.18L954.99,135.03L955.34,117.57L955.46,92.99L955.7,29.03L956.05,81.32L956.17,107.71L956.29,108.39L956.41,84.3L956.77,69.84L957.84,140.21L957.95,142.81L958.07,140.85L958.19,121.32L958.55,33.89L958.9,76.91L959.02,109.41L959.14,112.77L959.26,90.15L959.62,67.64L960.57,141.43L960.69,141.98L960.92,139.59L961.04,116.43L961.4,30.35L961.75,82.19L961.87,108.2L961.99,108.05L962.11,92.35L962.35,85.19L962.47,66.37L963.42,139.88L963.53,140.36L963.89,114.4L964.01,94.24L964.25,24.14L964.37,59.54L964.48,85.97L964.6,81.73L964.72,111.3L964.84,112.19L964.96,92.47L965.2,92.66L965.32,79.14L965.43,107.84L966.27,145.91L966.38,145.17L966.5,143.5L966.62,143.21L966.74,120.91L967.1,29.74L967.45,83.27L967.57,106.56L967.69,117.2L967.93,84.9L968.05,89.28L968.17,70.27L968.88,143.41L969.12,141.95L969.23,137.62L969.59,119.76L969.71,92.63L970.07,68.66L970.3,88.48L970.42,107.25L970.54,114.01L970.66,88.09L970.78,91.64L970.9,90.94L971.01,73.37L971.37,120.67L971.49,127.9L971.96,144.44L972.32,140.65L972.44,118.78L972.8,49.63L973.15,93.6L973.27,117.08L973.86,68.24L973.98,98.54L974.1,121.76L974.22,117.13L974.58,131.49L974.7,138.21L975.17,141.59L975.41,93.16L975.53,61.3L975.65,27.05L975.88,91.04L976,83.93L976.12,112.31L976.24,112.6L976.36,79.82L976.48,67.8L976.83,103.45L976.95,119.18L977.55,141.82L977.78,140.22L977.9,140.15L978.02,138.26L978.14,115.86L978.5,31.74L978.85,78.33L978.97,111.28L979.09,114.15L979.21,90.27L979.33,88.8L979.45,90.53L979.56,58.25L980.16,138.75L980.4,138.28L980.51,140.2L980.87,135.88L980.99,116.11L981.34,27.26L981.7,87.09L981.82,112.67L981.94,113.17L982.06,86.61L982.41,62.62L982.53,105.96L982.65,124.51L982.89,126.9L983.01,125.66L983.13,140.27L983.24,142.33L983.48,139.8L983.72,141.81L983.84,119.76L984.19,29.02L984.55,74.69L984.67,99.68L984.79,102.87L984.91,77.38L985.26,61.42L985.98,143.57L986.09,143.15L986.21,144.47L986.45,143.61L986.57,134.34L987.04,37.86L987.4,83.3L987.52,112.63L987.64,118.48L987.76,96.68L987.88,98.99L987.99,86.64L988.11,74.24L988.35,124.4L988.47,131.86L988.59,132.31L988.71,140.93L989.06,143.89L989.3,141.53L989.42,136.13L989.89,40.09L990.25,79.55L990.37,100.27L990.49,100.9L990.61,91.18L990.72,93.55L990.84,93.39L990.96,65.84L991.67,136.51L991.91,134.09L992.03,135.71L992.27,138.29L992.39,115.53L992.74,43.22L993.1,93.72L993.22,106.06L993.34,112.99L993.46,89.47L993.69,90.2L993.81,68.58L994.52,143.25L994.76,140.69L994.88,141.97L995,142.68L995.12,141.76L995.24,112.61L995.59,32.29L995.95,87.06L996.07,115.9L996.19,115.37L996.31,88.14L996.42,93.09L996.54,86.76L996.66,58.28L997.61,138L997.73,138.83L997.97,132.98L998.09,117.35L998.44,35.84L998.8,80.16L998.92,112.36L999.51,72.5L999.63,112.34L1000.22,136.4L1000.46,136.21L1000.58,136.47L1000.7,137.19L1000.82,134.78L1000.94,118.29L1001.29,36.76L1001.65,88.84L1001.77,112.28L1001.89,113.51L1002,93.7L1002.36,64.9L1002.48,106.12L1002.6,125.88L1003.55,143.64L1003.67,138.01L1004.14,25.88L1004.5,80.73L1004.62,103.15L1004.74,108.94L1005.09,90.59L1005.21,68.73L1005.92,138.78L1006.16,138.42L1006.28,138.71L1006.4,140.88L1006.52,137.03L1006.64,121.82L1006.99,36.72L1007.35,92.55L1007.47,118.29L1007.59,115.63L1007.7,89.94L1007.94,95.9L1008.06,68.69L1009.01,141.73L1009.13,141.06L1009.25,140.79L1009.37,141.09L1009.49,121.9L1009.84,47.46L1010.2,85.56L1010.32,112.71L1010.43,110.12L1010.55,80.94L1010.79,94.23L1010.91,66.18L1011.86,146.5L1011.98,146.69L1012.1,147.71L1012.22,144.68L1012.33,127.81L1012.69,37L1013.05,84.01L1013.17,111.47L1013.76,75.35L1013.88,104.53L1014.71,146.51L1014.95,145.8L1015.07,143.4L1015.54,36.42L1015.9,77.61L1016.02,109.91L1016.13,115.74L1016.37,94.53L1016.49,95.53L1016.61,69.07L1017.44,145.45L1017.56,136.39L1017.68,141.97L1017.92,131.83L1018.03,122.62L1018.39,54.28L1018.75,90.68L1018.87,109.23L1018.98,111.62L1019.1,85.87L1019.22,91.66L1019.34,88.97L1019.46,65.06L1020.41,136.19L1020.53,135.95L1020.76,133.23L1020.88,117.72L1021.24,37.7L1021.6,79.31L1021.71,111.34L1021.83,112.15L1021.95,82.6L1022.31,66.06L1023.14,144.99L1023.26,144.58L1023.61,143.87L1023.73,123.59L1024.09,33.99L1024.45,90.02L1024.56,117.15L1025.16,75.72L1025.28,99.87L1025.4,122.28L1026.11,145.85L1026.35,143.15L1026.46,135.13L1026.94,28.63L1027.18,84.26L1027.3,80.42L1028.01,73.59L1028.25,126.75L1028.36,137.22L1028.72,145.46L1029.2,141.91L1029.31,132.41L1029.79,57.93L1030.14,92.84L1030.26,104.48L1030.38,110.87L1030.5,88.83L1030.62,97.99L1030.74,89.54L1030.86,74.2L1031.09,133.64L1031.21,132.54L1031.33,132.04L1031.45,142L1031.69,142.54L1032.04,142.25L1032.16,138.47L1032.64,30.28L1032.99,87.89L1033.11,116.7L1033.35,90.36L1033.59,94.19L1033.71,68.14L1034.66,139.75L1034.78,130.85L1034.89,137.88L1035.13,115.7L1035.25,93.81L1035.37,72.88L1035.61,117.92L1035.84,96.76L1035.96,118.09L1036.56,62.01L1036.68,92.87L1036.79,126.17L1037.51,139.13L1037.63,138.43L1037.74,134.34L1037.86,134.12L1037.98,121.28L1038.34,42.68L1038.69,84.86L1038.81,116L1039.05,83.04L1039.41,83.5L1039.53,103.25L1040,130.54" style="vector-effect: none; fill: none; stroke: rgb(0, 117, 173); stroke-opacity: 1; stroke-width: 2px; opacity: 1;"/></g><g class="points"/><g class="text"/></g></g></g><g class="overplot"/><path class="xlines-above crisp" d="M0,0" style="fill: none;"/><path class="ylines-above crisp" d="M0,0" style="fill: none;"/><g class="overlines-above"/><g class="xaxislayer-above"><g class="xtick"><text text-anchor="middle" x="0" y="199" transform="translate(80,0)" style="font-family: Arial; font-size: 13px; fill: rgb(51, 51, 51); fill-opacity: 1; white-space: pre; opacity: 1;">Jan 2019</text></g><g class="xtick"><text text-anchor="middle" x="0" y="199" style="font-family: Arial; font-size: 13px; fill: rgb(51, 51, 51); fill-opacity: 1; white-space: pre; opacity: 1;" transform="translate(168.34,0)">Feb 2019</text></g><g class="xtick"><text text-anchor="middle" x="0" y="199" style="font-family: Arial; font-size: 13px; fill: rgb(51, 51, 51); fill-opacity: 1; white-space: pre; opacity: 1;" transform="translate(248.13,0)">Mar 2019</text></g><g class="xtick"><text text-anchor="middle" x="0" y="199" style="font-family: Arial; font-size: 13px; fill: rgb(51, 51, 51); fill-opacity: 1; white-space: pre; opacity: 1;" transform="translate(336.47,0)">Apr 2019</text></g><g class="xtick"><text text-anchor="middle" x="0" y="199" style="font-family: Arial; font-size: 13px; fill: rgb(51, 51, 51); fill-opacity: 1; white-space: pre; opacity: 1;" transform="translate(421.96,0)">May 2019</text></g><g class="xtick"><text text-anchor="middle" x="0" y="199" style="font-family: Arial; font-size: 13px; fill: rgb(51, 51, 51); fill-opacity: 1; white-space: pre; opacity: 1;" transform="translate(510.3,0)">Jun 2019</text></g><g class="xtick"><text text-anchor="middle" x="0" y="199" style="font-family: Arial; font-size: 13px; fill: rgb(51, 51, 51); fill-opacity: 1; white-space: pre; opacity: 1;" transform="translate(595.78,0)">Jul 2019</text></g><g class="xtick"><text text-anchor="middle" x="0" y="199" style="font-family: Arial; font-size: 13px; fill: rgb(51, 51, 51); fill-opacity: 1; white-space: pre; opacity: 1;" transform="translate(684.12,0)">Aug 2019</text></g><g class="xtick"><text text-anchor="middle" x="0" y="199" style="font-family: Arial; font-size: 13px; fill: rgb(51, 51, 51); fill-opacity: 1; white-space: pre; opacity: 1;" transform="translate(772.46,0)">Sep 2019</text></g><g class="xtick"><text text-anchor="middle" x="0" y="199" style="font-family: Arial; font-size: 13px; fill: rgb(51, 51, 51); fill-opacity: 1; white-space: pre; opacity: 1;" transform="translate(857.95,0)">Oct 2019</text></g><g class="xtick"><text text-anchor="middle" x="0" y="199" style="font-family: Arial; font-size: 13px; fill: rgb(51, 51, 51); fill-opacity: 1; white-space: pre; opacity: 1;" transform="translate(946.29,0)">Nov 2019</text></g><g class="xtick"><text text-anchor="middle" x="0" y="199" style="font-family: Arial; font-size: 13px; fill: rgb(51, 51, 51); fill-opacity: 1; white-space: pre; opacity: 1;" transform="translate(1031.78,0)">Dec 2019</text></g></g><g class="yaxislayer-above"><g class="ytick"><text text-anchor="end" x="79" y="4.55" transform="translate(0,180.69)" style="font-family: Arial; font-size: 13px; fill: rgb(51, 51, 51); fill-opacity: 1; white-space: pre; opacity: 1;">0.2</text></g><g class="ytick"><text text-anchor="end" x="79" y="4.55" style="font-family: Arial; font-size: 13px; fill: rgb(51, 51, 51); fill-opacity: 1; white-space: pre; opacity: 1;" transform="translate(0,158.71)">0.3</text></g><g class="ytick"><text text-anchor="end" x="79" y="4.55" style="font-family: Arial; font-size: 13px; fill: rgb(51, 51, 51); fill-opacity: 1; white-space: pre; opacity: 1;" transform="translate(0,136.74)">0.4</text></g><g class="ytick"><text text-anchor="end" x="79" y="4.55" style="font-family: Arial; font-size: 13px; fill: rgb(51, 51, 51); fill-opacity: 1; white-space: pre; opacity: 1;" transform="translate(0,114.76)">0.5</text></g><g class="ytick"><text text-anchor="end" x="79" y="4.55" style="font-family: Arial; font-size: 13px; fill: rgb(51, 51, 51); fill-opacity: 1; white-space: pre; opacity: 1;" transform="translate(0,92.79)">0.6</text></g><g class="ytick"><text text-anchor="end" x="79" y="4.55" style="font-family: Arial; font-size: 13px; fill: rgb(51, 51, 51); fill-opacity: 1; white-space: pre; opacity: 1;" transform="translate(0,70.81)">0.7</text></g><g class="ytick"><text text-anchor="end" x="79" y="4.55" style="font-family: Arial; font-size: 13px; fill: rgb(51, 51, 51); fill-opacity: 1; white-space: pre; opacity: 1;" transform="translate(0,48.84)">0.8</text></g><g class="ytick"><text text-anchor="end" x="79" y="4.55" style="font-family: Arial; font-size: 13px; fill: rgb(51, 51, 51); fill-opacity: 1; white-space: pre; opacity: 1;" transform="translate(0,26.86)">0.9</text></g></g><g class="overaxes-above"/></g></g><g class="polarlayer"/><g class="smithlayer"/><g class="ternarylayer"/><g class="geolayer"/><g class="funnelarealayer"/><g class="pielayer"/><g class="iciclelayer"/><g class="treemaplayer"/><g class="sunburstlayer"/><g class="glimages"/><defs id="topdefs-ad0a14"><g class="clips"/></defs><g class="layer-above"><g class="imagelayer"/><g class="shapelayer"/></g><g class="infolayer"><g class="g-gtitle"><text class="gtitle" x="600" y="0.22999999999998977" text-anchor="middle" dy="0.7em" style="font-family: 'Arial Black'; font-size: 20px; fill: rgb(51, 51, 51); opacity: 1; font-weight: normal; white-space: pre;">Electricity Demand normalized to 1kW</text></g><g class="g-xtitle"/><g class="g-ytitle"><text class="ytitle" transform="rotate(-90,33.121875,105)" x="33.121875" y="105" text-anchor="middle" style="font-family: Arial; font-size: 19px; fill: rgb(51, 51, 51); opacity: 1; font-weight: normal; white-space: pre;">Power [kW]</text></g></g></svg>