<svg class="main-svg" xmlns="http://www.w3.org/2000/svg" xmlns:xlink="http://www.w3.org/1999/xlink" width="1200" height="480" style="" viewBox="0 0 1200 480"><rect x="0" y="0" width="1200" height="480" style="fill: rgb(255, 255, 255); fill-opacity: 1;"/><defs id="defs-461f4f"><g class="clips"><clipPath id="clip461f4fxyplot" class="plotclip"><rect width="1040" height="410"/></clipPath><clipPath class="axesclip" id="clip461f4fx"><rect x="80" y="0" width="1040" height="480"/></clipPath><clipPath class="axesclip" id="clip461f4fy"><rect x="0" y="25" width="1200" height="410"/></clipPath><clipPath class="axesclip" id="clip461f4fxy"><rect x="80" y="25" width="1040" height="410"/></clipPath></g><g class="gradients"/><g class="patterns"/></defs><g class="bglayer"/><g class="layer-below"><g class="imagelayer"/><g class="shapelayer"/></g><g class="cartesianlayer"><g class="subplot xy"><g class="layer-subplot"><g class="shapelayer"/><g class="imagelayer"/></g><g class="minor-gridlayer"><g class="x"/><g class="y"/></g><g class="gridlayer"><g class="x"><path class="xgrid crisp" transform="translate(168.34,0)" d="M0,25v410" style="stroke: rgb(200, 200, 200); stroke-opacity: 1; stroke-width: 1px;"/><path class="xgrid crisp" transform="translate(248.13,0)" d="M0,25v410" style="stroke: rgb(200, 200, 200); stroke-opacity: 1; stroke-width: 1px;"/><path class="xgrid crisp" transform="translate(336.47,0)" d="M0,25v410" style="stroke: rgb(200, 200, 200); stroke-opacity: 1; stroke-width: 1px;"/><path class="xgrid crisp" transform="translate(421.96,0)" d="M0,25v410" style="stroke: rgb(200, 200, 200); stroke-opacity: 1; stroke-width: 1px;"/><path class="xgrid crisp" transform="translate(510.3,0)" d="M0,25v410" style="stroke: rgb(200, 200, 200); stroke-opacity: 1; stroke-width: 1px;"/><path class="xgrid crisp" transform="translate(595.78,0)" d="M0,25v410" style="stroke: rgb(200, 200, 200); stroke-opacity: 1; stroke-width: 1px;"/><path class="xgrid crisp" transform="translate(684.12,0)" d="M0,25v410" style="stroke: rgb(200, 200, 200); stroke-opacity: 1; stroke-width: 1px;"/><path class="xgrid crisp" transform="translate(772.46,0)" d="M0,25v410" style="stroke: rgb(200, 200, 200); stroke-opacity: 1; stroke-width: 1px;"/><path class="xgrid crisp" transform="translate(857.95,0)" d="M0,25v410" style="stroke: rgb(200, 200, 200); stroke-opacity: 1; stroke-width: 1px;"/><path class="xgrid crisp" transform="translate(946.29,0)" d="M0,25v410" style="stroke: rgb(200, 200, 200); stroke-opacity: 1; stroke-width: 1px;"/><path class="xgrid crisp" transform="translate(1031.78,0)" d="M0,25v410" style="stroke: rgb(200, 200, 200); stroke-opacity: 1; stroke-width: 1px;"/></g><g class="y"><path class="ygrid crisp" transform="translate(0,425.3)" d="M80,0h1040" style="stroke: rgb(200, 200, 200); stroke-opacity: 1; stroke-width: 1px;"/><path class="ygrid crisp" transform="translate(0,354.47)" d="M80,0h1040" style="stroke: rgb(200, 200, 200); stroke-opacity: 1; stroke-width: 1px;"/><path class="ygrid crisp" transform="translate(0,283.64)" d="M80,0h1040" style="stroke: rgb(200, 200, 200); stroke-opacity: 1; stroke-width: 1px;"/><path class="ygrid crisp" transform="translate(0,212.81)" d="M80,0h1040" style="stroke: rgb(200, 200, 200); stroke-opacity: 1; stroke-width: 1px;"/><path class="ygrid crisp" transform="translate(0,141.98000000000002)" d="M80,0h1040" style="stroke: rgb(200, 200, 200); stroke-opacity: 1; stroke-width: 1px;"/><path class="ygrid crisp" transform="translate(0,71.15)" d="M80,0h1040" style="stroke: rgb(200, 200, 200); stroke-opacity: 1; stroke-width: 1px;"/></g></g><g class="zerolinelayer"/><path class="xlines-below"/><path class="ylines-below"/><g class="overlines-below"/><g class="xaxislayer-below"/><g class="yaxislayer-below"/><g class="overaxes-below"/><g class="plot" transform="translate(80,25)" clip-path="url(#clip461f4fxyplot)"><g class="scatterlayer mlayer"><g class="trace scatter trace2ea511" style="stroke-miterlimit: 2; opacity: 1;"><g class="fills"/><g class="errorbars"/><g class="lines"><path class="js-line" d="M0,295.62L0.71,293.72L0.83,294.99L0.95,293.08L1.31,295.62L1.54,295.62L1.66,298.8L3.68,325.6L3.8,321.72L3.92,319.16L4.16,317.23L4.27,320.44L4.39,319.8L4.51,315.96L6.41,354.97L6.53,355.66L6.77,352.21L6.89,346.74L7.24,328.84L7.72,336.05L7.84,336.05L8.43,339.36L8.67,338.03L8.79,337.37L9.14,340.02L9.5,336.71L9.62,335.39L10.57,326.89L10.69,327.54L11.64,323.01L11.99,323.66L12.11,326.24L12.23,326.89L12.35,324.95L12.47,324.95L12.59,323.01L13.65,313.4L13.77,313.4L14.13,310.86L14.49,311.49L14.6,313.4L15.91,304.5L16.03,304.5L17.34,308.95L17.45,311.49L17.57,310.86L17.69,312.77L17.93,311.49L18.05,313.4L18.4,310.22L18.88,311.49L19,312.77L20.07,324.3L20.3,319.8L20.42,319.8L20.54,319.16L20.66,312.77L20.9,315.32L21.02,308.95L21.49,300.06L21.73,308.31L21.85,307.04L22.92,320.44L23.15,319.16L23.27,320.44L23.63,325.6L23.75,328.84L24.1,326.89L25.17,335.39L25.29,334.07L25.41,333.41L25.65,334.07L26.24,331.45L26.36,333.41L27.19,329.49L27.43,331.45L27.55,332.1L29.09,353.59L29.21,352.9L29.33,350.83L29.8,345.39L29.92,342.7L31.46,326.24L31.58,326.89L31.7,325.6L33.36,314.68L33.48,319.16L33.72,319.8L33.84,318.51L33.96,318.51L34.08,317.87L34.31,318.51L34.43,315.96L34.55,314.04L35.38,305.14L35.5,310.86L35.62,319.8L35.98,310.22L36.1,300.06L36.81,290.54L36.93,291.17L37.05,294.35L38.23,314.68L38.35,307.68L38.47,306.41L39.66,323.01L39.78,322.37L40.01,325.6L40.61,324.3L40.73,324.95L41.08,318.51L41.2,315.32L41.56,306.41L42.03,308.31L42.15,309.58L42.39,307.04L42.74,308.95L42.86,310.22L43.1,309.58L43.34,310.86L43.46,312.13L43.69,316.59L43.93,308.95L44.05,307.04L44.41,303.24L44.53,306.41L44.64,310.22L45.59,315.96L45.71,314.04L45.83,318.51L46.07,308.95L46.43,315.32L46.54,308.95L46.9,284.15L47.26,291.81L47.38,297.53L47.61,298.8L47.73,309.58L47.85,305.14L48.21,316.59L48.33,319.8L49.39,334.73L49.51,332.76L49.63,329.49L49.99,321.72L50.34,327.54L50.46,337.37L51.53,352.9L51.65,353.59L52.24,361.28L52.36,352.9L52.84,325.6L53.19,332.76L53.31,338.03L54.97,387.94L55.09,373.56L56.04,350.83L56.16,352.9L56.28,356.36L56.52,354.28L56.64,359.16L56.76,364.12L57.82,389.5L57.94,384.85L58.06,372.82L58.66,332.76L59.01,346.74L59.13,354.97L59.84,379.52L59.96,369.89L60.08,364.12L60.2,361.99L60.55,367.71L60.67,369.89L61.62,353.59L61.74,356.36L61.86,357.06L62.1,354.97L62.34,359.16L62.45,361.99L62.81,365.55L63.17,363.41L63.29,363.41L63.76,365.55L63.88,364.12L64,361.28L64.12,358.46L64.59,361.99L64.71,363.41L65.3,370.62L65.42,366.99L65.54,365.55L65.66,366.27L65.9,364.12L66.02,364.84L66.14,364.12L66.37,364.84L66.49,363.41L66.61,357.06L66.85,347.42L67.32,352.21L67.44,353.59L68.63,375.78L68.75,371.35L68.87,366.27L68.99,368.44L69.46,364.12L69.58,364.12L69.82,358.46L69.93,355.66L71.12,340.69L71.36,342.03L71.48,343.37L71.6,344.72L71.83,339.36L71.95,332.76L72.19,327.54L72.31,324.95L72.9,305.14L73.26,312.13L73.38,311.49L73.73,315.32L74.21,313.4L74.33,312.77L74.8,315.32L74.92,312.77L75.04,310.86L75.16,313.4L75.4,304.5L75.52,300.7L75.75,291.17L76.11,302.6L76.23,303.87L76.58,300.06L76.7,305.14L76.82,310.86L77.65,322.37L77.77,321.08L77.89,322.37L78.01,321.72L78.13,314.04L78.48,312.77L78.6,315.96L79.91,328.19L80.03,327.54L80.15,326.89L80.38,328.84L80.5,328.84L80.62,328.84L80.74,330.14L80.98,326.24L81.1,324.95L81.45,314.04L81.69,326.89L81.81,331.45L83.23,352.21L83.35,352.21L83.59,348.78L83.71,343.37L84.42,312.13L84.9,319.16L85.01,321.72L86.2,369.89L86.44,363.41L86.56,345.39L87.03,314.68L87.39,322.37L87.51,328.84L87.98,335.39L88.1,328.84L88.22,327.54L88.58,330.14L88.7,328.19L89.17,328.84L89.88,310.86L90.12,312.77L90.24,317.87L91.43,326.24L91.54,326.89L92.97,295.62L93.09,303.24L93.21,307.68L94.16,322.37L94.28,317.87L94.99,324.95L95.11,327.54L96.41,337.37L96.53,333.41L96.65,332.1L96.89,334.07L97.01,334.07L97.13,336.05L97.84,378.02L97.96,359.16L98.08,348.78L98.31,319.8L98.79,334.07L98.91,346.07L99.38,365.55L99.62,354.97L99.74,352.9L100.69,347.42L100.81,347.42L101.4,336.71L101.52,338.69L101.64,346.07L102.35,363.41L102.47,361.28L102.59,361.28L103.3,369.16L103.66,367.71L103.77,366.27L104.13,345.39L104.61,357.76L104.72,359.86L105.79,369.16L105.91,367.71L106.03,364.84L106.27,368.44L106.51,357.06L106.62,348.1L107.81,318.51L107.93,321.08L108.05,319.16L108.29,324.3L108.41,325.6L110.07,291.17L110.19,299.43L110.3,301.97L111.25,315.96L111.61,313.4L111.73,308.95L111.97,310.22L112.09,304.5L112.8,276.42L113.04,281.59L113.15,286.07L113.87,305.77L114.34,303.24L114.46,303.87L115.17,276.42L115.29,269.26L115.77,263.97L116.95,307.68L117.07,307.68L117.67,318.51L118.02,314.68L118.14,312.77L118.5,304.5L118.97,308.31L119.09,308.31L119.8,323.66L119.92,321.72L120.04,319.8L120.28,324.3L120.75,320.44L120.87,316.59L121.47,311.49L121.58,312.77L121.7,315.32L122.42,319.8L122.77,318.51L122.89,328.19L123.25,338.03L123.48,327.54L123.6,317.87L124.32,282.87L124.43,286.71L124.55,300.06L125.86,340.69L125.98,340.69L126.1,341.36L126.22,334.07L127.17,260.64L127.4,279.65L127.52,294.99L128.59,342.03L128.71,344.04L129.06,345.39L129.18,331.45L129.3,322.37L129.9,240.69L130.25,265.3L130.37,273.83L130.96,303.87L131.08,315.96L131.8,343.37L131.91,335.39L132.03,323.66L132.75,252.52L133.1,275.78L133.22,286.07L133.81,326.24L134.17,324.95L134.29,321.72L134.53,323.01L134.65,319.16L134.76,321.08L134.88,313.4L135,303.24L135.71,244.92L135.95,261.31L136.07,282.87L136.66,323.66L137.02,320.44L137.14,330.14L137.61,333.41L137.85,301.33L137.97,285.43L138.56,236.4L138.8,265.96L138.92,285.43L139.63,334.73L139.87,327.54L139.99,333.41L140.7,300.06L140.82,283.51L141.18,257.28L141.53,282.23L141.65,282.87L143.31,342.7L143.43,330.79L144.26,269.91L144.38,274.48L144.5,279.65L144.74,289.26L144.86,294.35L145.81,326.24L145.93,325.6L146.04,322.37L146.16,326.24L146.28,317.23L146.4,305.77L146.76,260.64L147.35,274.48L147.47,277.72L147.71,287.99L148.3,286.07L148.42,280.3L148.77,286.71L149.13,281.59L149.25,277.72L149.96,266.62L150.08,273.18L150.2,279.01L151.51,338.03L151.62,336.71L151.74,338.03L151.86,337.37L151.98,329.49L152.57,289.9L152.93,299.43L153.05,307.04L154.36,354.97L154.47,347.42L154.71,352.21L154.83,328.84L155.66,265.96L155.9,287.35L156.02,299.43L157.44,354.28L157.56,347.42L158.51,233.51L158.75,255.93L158.87,266.62L159.94,333.41L160.05,332.76L160.17,334.07L160.41,338.03L160.53,321.72L161.36,222.4L161.6,238.55L161.72,259.3L162.79,323.66L162.9,332.1L163.38,305.77L163.5,279.65L164.21,214.74L164.45,230.59L164.57,258.63L165.64,309.58L165.75,308.31L165.87,319.16L167.06,217.83L167.18,226.9L167.3,236.4L167.42,237.84L167.54,249.09L168.48,288.63L168.72,287.99L168.84,284.15L169.08,284.15L169.2,286.71L169.91,275.13L170.15,279.01L170.27,282.23L171.45,291.81L171.57,301.33L171.69,302.6L171.93,297.53L172.05,296.26L172.88,279.65L173.12,284.15L173.23,286.07L173.47,291.81L173.59,282.87L173.83,284.79L173.95,283.51L174.07,282.87L174.3,285.43L174.42,285.43L174.54,288.63L174.78,280.3L174.9,272.53L175.73,253.89L175.85,261.31L175.97,266.62L176.2,277.72L176.8,274.48L176.92,275.13L177.39,278.36L177.75,248.4L177.87,250.47L177.98,264.64L178.1,261.98L178.46,269.26L178.58,270.57L178.7,269.26L178.81,296.26L179.53,308.31L179.65,301.33L179.76,304.5L180.12,319.16L180.36,308.95L180.48,299.43L180.83,279.01L181.07,283.51L181.19,293.08L182.26,303.87L182.38,300.7L182.97,314.04L183.21,306.41L183.33,295.62L184.16,252.52L184.4,262.64L184.51,263.97L185.82,287.35L185.94,288.63L186.3,255.25L186.89,260.64L187.01,285.43L187.13,275.78L187.48,293.08L187.6,284.15L187.72,290.54L188.55,303.87L188.67,301.33L188.79,293.72L188.91,297.53L189.14,282.87L189.26,282.23L189.74,262.64L189.86,268.6L189.98,286.07L190.09,284.79L190.21,295.62L190.69,314.68L190.93,305.14L191.04,299.43L191.16,300.06L191.28,298.16L191.4,293.08L191.88,294.99L191.99,280.94L192.11,273.18L192.35,261.98L192.83,267.94L192.94,268.6L193.42,267.94L194.01,271.22L194.13,275.13L194.25,273.83L194.37,277.72L194.49,284.15L194.73,289.26L194.84,275.78L194.96,259.97L195.08,261.31L195.2,252.52L195.44,240.69L195.79,255.93L195.91,265.3L196.63,312.77L197.1,308.95L197.22,306.41L197.58,321.08L197.69,319.16L197.81,310.86L198.05,319.8L198.29,295.62L198.52,307.68L198.64,314.68L198.88,315.32L199,317.87L199.36,308.31L199.71,312.77L199.83,318.51L200.07,319.16L200.19,317.87L200.31,317.23L201.26,278.36L201.49,283.51L201.61,287.35L201.97,294.35L202.21,283.51L202.32,287.35L202.44,286.07L202.56,280.3L202.8,301.97L202.92,303.87L203.16,303.87L203.27,298.8L204.11,279.65L204.22,286.07L204.34,289.26L205.17,317.23L205.41,310.22L205.53,307.04L205.77,308.95L205.89,305.77L206.01,303.87L206.36,297.53L206.6,303.87L206.72,306.41L207.19,310.22L207.31,307.68L207.43,300.7L207.67,302.6L207.79,296.26L207.91,295.62L208.14,295.62L208.26,317.87L208.97,292.45L209.09,293.08L209.21,296.26L209.45,286.71L209.57,275.13L210.16,263.97L210.4,265.3L210.52,264.64L210.75,265.3L210.87,263.97L210.99,267.28L211.23,266.62L211.35,267.28L211.47,269.26L211.94,271.22L212.06,269.91L212.18,264.64L212.65,252.52L212.89,260.64L213.01,270.57L213.13,271.22L213.25,282.23L213.6,308.31L214.08,296.26L214.2,291.17L214.67,266.62L214.79,252.52L215.27,222.4L215.5,251.15L215.62,292.45L216.69,308.31L216.81,310.22L217.17,319.8L217.4,312.13L217.52,301.97L217.76,306.41L217.88,297.53L218,284.15L218.35,282.23L219.54,328.19L219.66,327.54L220.13,336.71L220.25,326.24L220.37,309.58L221.32,282.87L221.44,289.26L221.56,298.8L222.87,357.06L222.98,356.36L223.1,340.02L223.93,267.28L224.05,268.6L224.17,269.26L225.83,348.78L225.95,330.14L226.9,237.84L227.14,248.4L227.26,258.63L228.56,336.05L228.68,338.03L229.63,214.74L229.99,231.33L230.11,242.1L231.41,321.08L231.53,323.01L232.36,212.4L232.72,217.83L232.84,232.06L233.43,287.99L233.55,303.24L234.38,323.66L234.5,315.96L234.62,305.14L234.98,253.89L235.1,236.4L235.33,224.66L235.57,244.92L235.69,257.28L236.28,301.97L236.52,285.43L236.64,286.71L236.76,287.99L236.88,297.53L237.11,315.32L237.47,296.26L237.59,288.63L237.94,300.06L238.06,284.79L238.89,321.08L239.01,317.87L239.13,317.23L239.37,317.87L239.49,315.32L239.84,327.54L240.2,317.23L240.32,310.86L241.15,284.79L241.39,291.17L241.51,295.62L242.81,309.58L242.93,308.95L243.53,267.28L244,273.18L244.12,275.13L244.24,275.78L244.36,282.87L245.66,308.95L245.78,308.31L245.9,297.53L246.73,253.21L246.97,257.28L247.09,259.3L248.63,307.04L248.75,288.63L249.7,228.38L249.82,230.59L249.94,237.12L251.24,325.6L251.36,326.89L251.6,298.8L251.72,275.13L252.67,210.83L252.79,217.83L252.91,227.64L253.97,315.32L254.09,314.68L254.33,318.51L254.45,309.58L255.28,206.05L255.64,215.52L255.76,225.41L256.82,301.33L256.94,306.41L257.18,310.86L257.3,306.41L257.42,292.45L258.25,223.91L258.49,229.86L258.6,239.27L259.79,307.04L260.03,298.16L260.15,296.89L261.22,192.88L261.45,208.45L261.57,219.37L262.4,267.28L262.52,261.98L262.88,291.81L263.24,257.28L263.35,247.7L264.19,209.25L264.42,215.52L264.54,288.63L265.14,308.95L265.61,303.24L265.73,302.6L265.97,294.35L266.09,280.94L266.56,264.64L266.68,252.52L267.51,299.43L267.63,298.16L267.75,300.7L268.7,305.14L268.82,303.87L269.77,280.3L269.88,270.57L270,269.91L270.12,280.3L270.83,296.26L270.95,295.62L271.07,296.89L271.55,290.54L271.67,286.71L272.73,215.52L272.85,222.4L272.97,238.55L274.28,317.23L274.4,306.41L274.52,287.35L275.35,218.6L275.58,225.41L275.7,231.33L276.89,305.77L277.25,296.26L277.36,279.65L278.2,226.9L278.43,238.55L278.55,246.31L279.5,279.01L279.62,275.13L279.74,276.42L279.98,284.79L280.21,272.53L280.33,272.53L280.45,271.22L280.93,227.64L281.16,244.92L281.28,263.31L281.4,259.97L281.64,266.62L281.76,266.62L281.88,271.87L282.83,302.6L282.95,301.33L283.06,294.99L283.78,243.51L284.25,256.6L284.37,266.62L284.61,273.18L284.73,282.87L285.8,319.8L285.91,314.04L286.03,308.95L286.75,261.98L287.1,269.91L287.22,275.13L288.41,343.37L288.64,333.41L288.76,321.08L289.59,280.94L289.83,287.99L289.95,291.17L291.38,320.44L291.49,316.59L291.61,307.68L292.56,272.53L292.68,276.42L292.8,280.3L294.23,324.3L294.34,319.8L294.46,310.86L295.29,267.94L295.53,278.36L295.65,285.43L296.96,307.04L297.08,307.04L297.43,273.83L297.55,251.15L297.91,235.68L298.02,228.38L298.14,224.66L298.5,236.4L298.62,248.4L299.57,326.24L299.92,307.68L300.04,282.87L301.11,206.05L301.35,226.16L301.47,232.79L302.54,265.3L302.66,263.97L302.77,266.62L303.01,256.6L303.13,249.09L303.84,203.63L304.08,210.04L304.2,218.6L305.27,262.64L305.39,269.91L305.62,296.26L305.86,257.28L305.98,244.22L306.81,191.19L307.05,201.19L307.17,215.52L308.47,273.18L308.59,256.6L309.66,177.22L309.78,179.01L309.9,186.9L310.97,286.07L311.32,270.57L311.44,255.93L312.51,173.61L312.63,177.22L313.34,263.31L313.46,278.36L313.58,271.22L313.82,294.35L313.94,306.41L314.05,315.96L314.29,287.99L314.41,258.63L315.24,170.87L315.36,175.42L315.48,177.22L317.02,297.53L317.14,278.36L317.26,249.09L318.21,172.7L318.33,178.12L318.8,221.65L318.92,236.4L319.63,267.28L319.87,253.21L319.99,251.15L321.06,190.33L321.18,192.88L321.3,198.73L322.72,262.64L322.84,252.52L323.79,133.52L324.15,159.62L324.27,178.12L325.45,293.08L325.57,289.9L325.69,261.98L326.76,143.85L326.88,144.86L327,158.66L328.3,288.63L328.42,285.43L328.54,277.07L328.9,260.64L329.25,271.22L329.37,277.07L329.49,280.94L329.85,272.53L330.2,279.65L330.32,280.3L330.8,279.01L331.03,282.87L331.15,286.07L331.27,286.71L331.39,282.87L332.34,239.98L332.46,248.4L332.58,248.4L333.29,294.99L333.41,294.35L333.53,295.62L334.12,306.41L334.24,301.97L334.36,292.45L334.6,283.51L334.71,289.26L334.83,270.57L334.95,272.53L335.07,265.3L335.19,261.31L335.31,258.63L335.55,269.26L335.66,282.23L336.14,300.7L336.26,306.41L336.5,302.6L336.61,303.87L336.73,310.86L336.85,311.49L336.97,306.41L337.68,265.3L338.04,277.07L338.16,279.01L338.63,286.71L338.99,284.15L339.11,283.51L340.06,275.78L340.18,272.53L340.29,273.83L340.41,265.96L341.13,241.4L341.24,243.51L341.36,258.63L342.55,323.01L342.67,319.8L342.79,303.24L343.86,216.29L343.98,218.6L344.21,229.86L344.33,246.31L345.4,300.7L345.52,294.35L345.64,280.3L346.23,205.25L346.59,213.96L346.71,215.52L346.82,214.74L346.94,224.66L348.01,268.6L348.13,272.53L348.84,269.26L348.96,263.31L349.32,248.4L349.67,256.6L349.79,257.96L350.86,299.43L351.22,292.45L351.34,283.51L351.69,265.3L351.93,293.08L352.05,301.33L353.12,319.16L353.24,321.08L353.47,319.8L353.59,322.37L353.71,322.37L353.83,324.95L353.95,327.54L354.19,317.87L354.31,314.04L354.78,293.08L354.9,289.9L355.14,291.81L355.37,279.65L355.49,285.43L355.61,293.72L356.8,346.74L356.92,342.03L357.04,323.66L357.99,276.42L358.1,277.72L358.22,275.78L358.46,280.3L358.58,287.99L358.82,294.99L358.94,303.87L359.65,335.39L359.77,328.19L359.89,307.68L360.84,254.57L360.95,249.78L361.43,269.26L361.55,280.94L361.67,280.3L361.79,282.87L361.9,284.15L362.02,287.35L362.38,282.87L362.5,286.07L362.62,282.23L362.74,281.59L362.85,271.87L363.57,246.31L363.69,249.09L363.8,251.84L363.92,247.7L364.16,255.93L364.28,255.93L364.4,259.97L364.52,259.3L364.64,261.98L364.75,267.28L365.35,289.9L365.59,275.78L365.7,259.3L366.42,235.68L366.53,245.61L366.65,250.47L366.89,249.78L368.2,269.91L368.32,269.91L369.5,230.59L369.62,229.12L370.57,275.78L370.81,268.6L370.93,267.94L371.52,243.51L371.64,226.9L371.76,210.83L372.35,221.65L372.47,264.64L374.02,298.16L374.13,296.89L374.25,294.99L375.32,248.4L375.44,252.52L375.56,257.28L376.75,305.14L376.86,297.53L376.98,289.26L377.81,234.24L378.17,235.68L378.29,239.98L379.6,326.24L379.71,317.23L379.83,303.87L380.43,250.47L380.9,258.63L381.02,259.97L382.45,324.3L382.68,308.95L382.8,293.08L383.63,253.89L383.75,257.28L383.87,269.91L385.3,295.62L385.41,293.72L385.53,289.26L386.25,255.25L386.6,271.87L386.72,273.83L387.79,285.43L387.91,284.79L388.03,285.43L388.14,288.63L388.38,280.3L388.5,269.26L389.57,199.55L389.81,212.4L389.93,226.9L390.99,290.54L391.11,285.43L392.18,179.9L392.3,197.9L392.42,192.03L393.84,282.87L393.96,273.18L394.08,257.96L395.15,164.36L395.27,177.22L395.39,191.19L396.69,261.98L396.81,253.89L397.41,220.89L397.76,230.59L397.88,231.33L398,229.86L398.12,232.79L398.24,242.1L398.59,251.15L399.07,249.78L399.19,249.78L399.42,253.21L400.02,251.84L400.14,251.84L400.61,244.92L400.97,247.7L401.09,248.4L402.04,258.63L402.16,259.3L402.39,260.64L402.63,259.97L402.75,257.96L403.82,234.96L404.06,242.81L404.17,256.6L405.24,307.68L405.36,301.33L405.48,284.15L406.43,206.86L406.55,208.45L406.67,204.44L407.02,218.6L407.14,241.4L408.09,291.17L408.21,279.65L409.28,176.32L409.4,184.3L409.52,185.17L409.87,215.52L409.99,230.59L410.94,274.48L411.06,263.97L411.18,250.47L411.65,181.67L412.01,207.65L412.13,228.38L412.25,206.86L412.72,239.98L412.84,244.22L413.79,272.53L413.91,267.28L415.1,183.42L415.22,184.3L415.34,182.55L416.64,265.3L416.76,258.63L416.88,234.96L417.83,186.9L417.95,185.17L419.37,244.22L419.49,243.51L420.32,229.86L420.44,238.55L421.15,247.7L421.27,255.25L422.34,275.13L422.46,271.87L422.58,267.28L423.17,247.01L423.29,234.24L423.53,233.51L423.88,239.98L424,245.61L425.19,303.24L425.31,292.45L426.38,195.4L426.5,199.55L426.61,197.07L426.85,205.25L426.97,217.06L427.92,247.01L428.04,247.7L428.51,208.45L428.63,193.72L428.75,199.55L429.11,186.04L429.23,186.04L429.46,174.52L429.7,182.55L429.82,194.56L430.89,265.3L431.01,252.52L432.2,139.76L432.31,140.79L432.43,138.73L432.55,152.83L433.62,256.6L433.74,252.52L434.93,116.19L435.28,122.81L435.4,138.73L436.59,241.4L436.71,222.4L437.78,101.33L438.01,109.42L438.13,188.62L439.44,244.92L439.56,237.12L439.68,218.6L440.74,107.13L440.86,110.56L442.29,217.06L442.41,206.05L442.53,187.76L443.48,95.42L443.71,101.33L443.83,107.13L445.14,213.18L445.26,211.62L445.38,210.04L445.49,217.06L445.73,207.65L446.09,207.65L446.21,213.18L447.27,265.3L447.39,260.64L447.51,257.96L447.75,264.64L447.87,271.22L447.99,273.18L448.11,267.28L448.22,248.4L449.41,126.06L449.65,136.66L449.77,156.73L450.24,247.7L450.72,239.98L450.84,240.69L450.96,244.92L451.31,234.24L451.43,228.38L452.26,174.52L452.5,179.9L452.62,200.37L453.57,279.65L453.69,275.78L453.92,252.52L454.04,233.51L454.64,149.87L454.99,154.79L455.11,163.42L456.3,247.7L456.42,245.61L456.54,245.61L457.13,213.18L457.25,217.06L457.37,193.72L457.6,165.3L457.96,208.45L458.08,216.29L458.44,226.9L458.55,237.84L458.67,241.4L459.03,229.86L459.15,229.12L459.5,239.98L459.62,232.06L459.74,225.41L460.69,169.95L460.81,185.17L460.93,193.72L462.12,236.4L462.24,233.51L462.35,229.86L462.95,194.56L463.07,219.37L463.66,239.27L463.9,233.51L464.02,236.4L464.97,253.21L465.09,251.84L465.2,241.4L466.39,151.85L466.75,162.48L466.87,186.9L467.7,257.96L467.93,256.6L468.05,239.27L469.12,86.96L469.24,89.4L469.36,119.52L470.67,202.82L470.78,195.4L470.9,193.72L471.02,171.79L471.14,178.12L471.5,164.36L471.62,166.24L471.73,163.42L472.21,162.48L473.28,226.9L473.4,226.16L473.99,232.06L474.11,229.12L474.23,226.9L474.7,212.4L474.82,210.04L475.06,206.86L475.18,217.83L475.3,216.29L475.42,216.29L476.13,255.93L476.36,250.47L476.48,249.09L477.2,194.56L477.31,169.95L478.03,146.88L478.15,160.57L478.26,180.78L479.33,242.81L479.45,229.86L479.57,206.05L480.64,111.69L480.76,112.82L480.88,116.19L481.59,206.05L481.95,195.4L482.06,203.63L482.18,205.25L482.3,203.63L482.42,191.19L483.61,102.5L483.73,113.95L483.85,135.62L485.03,220.13L485.15,214.74L486.22,160.57L486.34,198.73L486.46,219.37L486.69,192.03L487.17,216.29L487.29,217.83L487.88,234.96L488,226.16L488.12,213.96L489.19,157.7L489.31,161.53L489.43,161.53L489.66,178.12L489.78,195.4L490.61,244.22L490.73,239.98L490.85,228.38L491.21,197.07L491.33,182.55L491.56,163.42L491.68,184.3L491.8,198.73L491.92,210.83L492.16,189.48L492.51,197.9L492.63,202.01L493.46,232.06L493.7,222.4L493.82,216.29L495.01,144.86L495.13,149.87L496.31,220.13L496.43,210.04L496.55,192.88L497.74,113.95L497.86,116.19L497.97,121.72L498.69,211.62L499.16,192.03L499.28,188.62L499.76,147.88L499.87,130.35L500.59,68.07L500.82,73.21L500.94,96.61L502.01,210.04L502.13,209.25L502.61,107.13L502.72,70.65L502.84,74.49L502.96,56.22L503.08,46.72L503.32,24.05L503.44,34.14L503.56,45.34L503.79,74.49L503.91,100.16L504.86,197.9L505.1,176.32L505.22,161.53L505.93,83.27L506.29,95.42L506.4,101.33L507.83,249.78L507.95,229.12L508.07,217.06L509.14,119.52L509.37,126.06L509.49,145.87L510.56,257.28L510.68,255.93L510.8,235.68L511.99,77.02L512.22,94.23L512.34,113.95L513.41,252.52L513.53,250.47L513.65,220.89L514.72,43.96L515.07,58.89L515.19,79.53L516.14,199.55L516.26,197.9L516.38,204.44L517.45,74.49L517.57,95.42L517.68,126.06L519.23,229.86L519.35,220.13L519.47,203.63L520.53,143.85L520.77,155.76L520.89,164.36L521.96,257.96L522.08,256.6L522.2,243.51L523.5,153.81L523.62,156.73L524.93,266.62L525.05,251.15L525.16,237.12L526.23,133.52L526.47,143.85L526.59,154.79L527.66,256.6L527.78,259.3L529.2,122.81L529.32,134.57L529.44,149.87L530.39,232.06L530.51,223.91L530.63,226.16L531.1,138.73L531.22,122.81L531.46,102.5L531.81,123.9L531.93,122.81L532.05,117.3L532.29,120.62L532.41,154.79L533.36,232.06L533.48,228.38L533.6,232.06L533.83,220.13L533.95,222.4L534.07,206.86L534.55,169.03L534.9,191.19L535.02,202.01L536.33,262.64L536.44,253.89L536.56,239.27L537.39,179.9L537.75,191.19L537.87,197.9L539.18,285.43L539.29,276.42L539.41,254.57L540.36,186.04L540.6,186.7L540.72,187.02L542.98,192.88L543.09,187.76L543.45,173.61L543.69,188.62L543.81,208.45L544.28,253.21L544.87,249.78L544.99,245.61L545.59,181.67L545.82,206.05L545.94,223.16L547.37,246.31L547.49,254.57L547.96,232.06L548.08,210.04L548.56,217.06L548.91,179.9L549.03,172.7L550.1,233.51L550.22,232.79L550.34,234.24L550.57,238.55L550.93,229.86L551.05,234.24L551.17,233.51L551.41,201.19L551.52,234.96L551.88,226.9L552,226.9L552.12,217.83L552.59,232.06L552.71,232.79L553.42,242.1L553.66,237.84L553.78,229.86L554.73,175.42L554.85,183.42L554.97,191.19L556.15,245.61L556.39,242.81L556.51,234.24L557.34,156.73L557.7,183.71L557.82,190.33L559.24,259.3L559.36,247.7L559.48,238.55L560.55,158.66L560.67,160.57L560.79,168.1L561.85,263.31L561.97,265.96L563.28,135.62L563.52,143.85L563.64,155.76L564.82,263.97L564.94,251.84L566.01,127.14L566.13,129.28L566.25,130.35L567.67,228.38L567.79,224.66L568.98,131.41L569.22,142.83L569.33,152.83L570.4,232.79L570.52,236.4L570.76,204.44L570.88,171.79L571.59,84.51L571.83,124.98L571.95,108.28L573.37,212.4L573.61,206.86L573.73,198.73L574.56,120.62L574.8,128.22L574.91,127.14L576.1,241.4L576.22,242.1L576.46,214.74L576.58,178.12L577.65,96.61L577.76,104.82L579.07,244.92L579.19,229.12L579.31,203.63L580.38,64.17L580.5,58.89L580.85,112.82L580.97,144.86L581.92,224.66L582.04,209.25L582.16,177.22L583.23,21.12L583.35,35.55L583.7,104.82L583.82,134.57L584.77,212.4L584.89,197.9L586.08,20.5L586.19,20.5L586.43,39.78L586.55,82.03L587.62,214.74L587.74,190.33L588.69,20.5L588.81,50.82L588.93,66.77L589.88,166.24L589.99,172.7L590.11,157.7L590.59,186.9L590.71,163.42L590.83,169.95L591.42,133.52L591.54,120.62L591.66,115.07L591.78,130.35L591.89,170.87L592.96,213.96L593.08,217.06L593.32,220.13L593.44,213.96L593.56,201.19L594.03,152.83L594.27,170.87L594.39,206.86L594.51,210.83L594.62,191.19L594.74,180.78L595.69,205.25L595.81,209.25L596.41,219.37L596.64,211.62L596.76,211.62L596.88,213.18L597,209.25L597.12,205.25L597.59,181.67L597.95,187.76L598.07,191.19L599.14,207.65L599.26,202.01L600.56,123.9L600.68,144.86L601.75,217.06L601.87,225.41L602.22,220.13L602.34,214.74L603.17,165.3L603.41,169.95L603.53,180.78L604.72,241.4L604.84,237.84L605.9,146.88L606.14,149.87L606.26,153.81L607.57,250.47L607.69,243.51L608.75,141.81L608.87,146.88L608.99,147.88L610.42,237.84L610.54,233.51L610.65,228.38L611.6,191.19L611.72,192.03L611.84,203.63L611.96,198.73L612.2,212.4L612.32,218.6L613.15,246.31L613.27,252.52L613.39,251.15L613.5,237.12L614.69,137.7L614.81,140.79L615.64,231.33L616,229.86L616.12,220.13L616.23,223.16L616.35,204.44L617.42,132.47L617.54,150.86L617.66,148.87L617.78,166.24L618.85,209.25L618.97,213.18L619.08,217.06L619.2,210.04L619.32,193.72L619.8,135.62L620.27,155.76L620.39,146.88L621.46,203.63L621.58,206.05L622.05,220.13L622.29,210.83L622.41,204.44L622.88,200.37L623.6,220.89L623.72,220.13L624.55,234.96L624.78,230.59L624.9,224.66L626.09,146.88L626.21,149.87L626.33,162.48L627.28,239.27L627.4,243.51L627.51,247.7L627.63,239.27L627.75,220.13L628.94,91.82L629.06,101.33L630.01,188.62L630.13,187.76L630.25,188.62L630.84,197.07L630.96,192.03L631.08,195.4L631.2,182.55L631.31,209.25L631.79,169.03L632.03,181.67L632.15,200.37L633.21,234.96L633.33,232.79L634.52,120.62L634.76,133.52L634.88,161.53L635.94,234.24L636.06,239.27L636.42,235.68L636.54,232.06L637.37,201.19L637.61,217.83L637.73,223.91L638.91,251.15L639.03,249.78L639.15,237.12L640.1,195.4L640.22,197.07L641.76,276.42L641.88,275.13L642,256.6L642.71,196.24L642.95,206.05L643.07,195.4L643.31,192.03L643.43,202.01L643.54,233.51L644.26,263.31L644.61,260.64L644.73,259.3L645.92,174.52L646.04,213.96L646.16,200.37L646.39,226.16L646.75,216.29L646.87,226.9L647.58,245.61L647.7,226.9L648.77,167.17L649.01,178.12L649.12,195.4L649.96,251.15L650.07,248.4L650.19,242.81L650.67,225.41L650.79,217.06L651.62,165.3L651.74,168.1L651.86,171.79L652.81,226.9L652.92,224.66L653.04,221.65L653.4,210.83L653.52,191.19L654.59,86.96L654.7,115.07L655.65,210.83L655.77,213.18L656.13,218.6L656.37,211.62L656.49,205.25L657.32,166.24L657.44,174.52L657.55,179.01L658.62,217.83L658.74,216.29L658.98,220.13L659.1,217.83L659.22,210.04L659.57,203.63L659.69,210.83L659.81,217.83L659.93,213.18L660.29,220.89L660.4,230.59L661.35,246.31L661.47,248.4L661.71,260.64L662.07,251.15L662.19,244.92L663.02,182.55L663.25,191.19L663.37,210.04L664.32,263.97L664.44,267.94L664.56,268.6L664.68,261.98L664.92,255.93L665.03,225.41L665.98,162.48L666.1,168.1L667.53,268.6L667.65,247.01L668.6,145.87L668.83,149.87L668.95,158.66L669.9,242.81L670.14,234.24L670.26,239.27L670.62,209.25L670.73,192.03L671.45,126.06L671.8,133.52L671.92,156.73L672.99,226.9L673.11,228.38L673.23,229.12L673.35,217.06L674.06,109.42L674.41,140.79L674.53,144.86L675.6,222.4L675.72,224.66L676.08,229.86L676.2,215.52L677.15,115.07L677.26,133.52L677.38,152.83L678.81,229.12L678.93,224.66L679.05,213.96L680.23,113.95L680.35,122.81L681.42,213.96L681.54,208.45L681.66,210.04L681.9,203.63L682.01,194.56L682.37,145.87L682.49,126.06L683.08,90.62L683.2,102.5L683.32,150.86L683.91,213.18L684.27,206.05L684.39,200.37L684.63,203.63L684.74,194.56L684.98,205.25L685.1,191.19L685.22,184.3L685.34,196.24L685.58,147.88L685.69,130.35L686.29,188.62L686.41,198.73L687.36,226.16L687.59,220.13L687.71,194.56L688.54,110.56L688.78,113.95L688.9,119.52L689.97,223.16L690.09,226.9L690.33,231.33L690.44,220.89L690.56,192.03L691.51,102.5L691.63,107.13L691.75,130.35L692.82,203.63L692.94,203.63L693.18,207.65L693.29,204.44L693.41,185.17L693.89,135.62L694.24,159.62L694.36,173.61L696.14,239.27L696.26,234.96L697.21,188.62L697.33,193.72L698.87,291.81L698.99,282.23L700.06,171.79L700.18,174.52L700.3,179.9L701.25,273.83L701.37,272.53L701.49,278.36L701.84,262.64L701.96,234.24L702.79,150.86L703.03,153.81L703.15,169.03L704.1,258.63L704.22,248.4L704.45,259.3L704.57,253.89L704.69,240.69L705.76,203.63L705.88,212.4L706.35,238.55L706.47,249.78L707.07,265.96L707.42,263.31L707.54,260.64L707.9,234.96L708.02,214.74L708.25,215.52L708.37,210.04L708.61,213.96L708.73,215.52L710.39,253.21L710.51,249.78L711.1,213.18L711.58,225.41L711.7,231.33L713.12,271.22L713.24,266.62L713.95,228.38L714.31,240.69L714.43,248.4L715.38,261.31L715.5,261.31L716.33,257.28L716.45,253.21L717.28,238.55L717.4,247.01L717.52,260.64L718.58,293.08L718.7,294.35L719.18,271.22L719.3,247.01L719.89,208.45L720.25,217.83L720.37,243.51L721.43,287.99L721.55,289.9L721.67,290.54L721.79,287.35L721.91,265.3L722.74,186.9L722.98,194.56L723.1,199.55L723.57,255.93L723.93,243.51L724.05,243.51L725.59,166.24L725.71,168.1L725.83,171.79L726.66,251.15L727.01,237.84L727.13,239.27L727.37,251.84L727.61,221.65L727.73,201.19L728.56,160.57L728.68,169.03L728.8,178.12L729.98,227.64L730.1,229.12L730.22,236.4L730.58,221.65L730.7,205.25L731.41,166.24L731.53,170.87L731.65,176.32L732.6,245.61L732.71,254.57L732.95,255.25L733.07,251.84L733.19,239.27L734.26,129.28L734.38,137.7L734.49,161.53L735.56,259.97L735.68,261.31L735.92,264.64L736.04,258.63L736.16,251.15L737.11,149.87L737.23,163.42L738.06,225.41L738.29,223.16L738.41,226.9L739.24,243.51L739.36,242.81L739.48,237.12L739.96,208.45L740.19,219.37L740.31,229.86L741.62,294.99L741.74,296.26L742.81,224.66L742.92,226.9L743.04,236.4L744.23,307.04L744.35,313.4L745.66,234.24L745.77,235.68L745.89,246.31L747.08,319.16L747.2,317.87L747.32,323.66L748.51,221.65L748.62,223.91L748.74,239.27L750.05,314.04L750.17,313.4L750.29,307.68L750.41,261.98L751.24,169.95L751.47,179.01L751.59,194.56L752.9,295.62L753.02,296.89L753.49,227.64L753.61,206.05L754.09,186.04L754.32,202.01L754.44,210.83L755.51,263.31L755.75,257.28L755.87,231.33L756.34,239.98L756.58,234.96L756.7,230.59L757.05,227.64L757.29,232.79L757.41,237.84L758.72,270.57L758.84,273.83L759.79,209.25L760.02,216.29L760.14,222.4L761.33,239.98L761.45,240.69L761.57,243.51L761.8,238.55L761.92,230.59L762.64,215.52L762.75,219.37L762.87,223.16L763.7,251.15L763.94,248.4L764.06,248.4L764.18,247.7L764.3,250.47L764.42,251.84L764.65,247.01L764.77,234.96L765.13,215.52L765.48,222.4L765.6,223.91L766.55,230.59L766.79,229.86L766.91,230.59L767.15,228.38L767.27,231.33L767.5,229.86L767.62,224.66L768.1,200.37L768.22,208.45L768.33,231.33L768.81,227.64L768.93,234.96L769.64,248.4L769.76,246.31L769.88,244.92L770.12,249.78L770.23,242.1L770.35,243.51L770.47,234.96L771.07,213.18L771.3,216.29L771.42,220.89L772.61,267.94L772.73,263.97L772.85,267.94L773.2,255.25L773.32,241.4L774.03,179.9L774.27,192.88L774.39,208.45L774.63,203.63L774.86,220.89L775.1,209.25L775.22,197.07L775.81,237.12L776.29,236.4L776.41,232.06L776.53,234.24L776.65,225.41L776.76,220.89L776.88,218.6L777.12,225.41L777.24,232.79L778.19,273.83L778.31,273.83L778.43,280.94L778.78,269.91L778.9,258.63L779.73,191.19L779.97,198.73L780.09,205.25L781.28,235.68L781.4,237.12L781.75,237.84L782.11,230.59L782.23,223.16L783.53,293.08L783.65,288.63L784.01,301.33L784.48,292.45L784.6,287.35L785.55,261.31L785.67,261.98L785.79,273.83L786.14,290.54L786.62,287.35L786.74,290.54L786.86,293.72L787.33,291.17L787.45,286.71L788.04,257.96L788.4,262.64L788.52,262.64L788.76,263.97L788.99,259.3L789.35,259.97L789.47,261.31L789.71,258.63L789.94,260.64L790.06,261.98L790.3,256.6L790.42,269.26L790.54,268.6L790.66,267.28L791.13,262.64L791.37,265.3L791.49,267.94L792.67,305.77L793.03,303.87L793.15,294.99L793.74,263.97L794.1,271.22L794.22,273.18L795.76,286.07L795.88,286.07L796.95,263.97L797.07,267.94L797.19,275.78L797.31,280.94L797.9,279.01L798.02,277.72L798.14,278.36L798.26,275.13L798.37,273.83L800.39,242.81L800.51,242.1L800.75,243.51L800.87,236.4L801.58,260.64L801.82,255.93L801.94,255.93L802.17,253.89L802.53,255.25L802.65,256.6L803,261.98L803.12,265.96L804.07,274.48L804.19,272.53L805.5,248.4L805.62,249.09L805.74,263.97L805.97,266.62L806.09,271.87L806.69,286.07L807.04,284.15L807.16,282.23L807.4,278.36L807.52,267.28L808.35,212.4L808.47,219.37L808.59,237.84L809.89,272.53L810.13,267.28L810.25,257.28L811.2,188.62L811.32,196.24L811.44,213.96L812.62,237.84L812.74,239.27L812.86,242.81L813.1,239.27L813.22,225.41L813.93,158.66L814.17,179.9L814.28,195.4L815.71,253.21L815.83,248.4L815.95,249.09L816.07,228.38L816.66,150.86L817.02,178.12L817.13,206.86L818.08,261.98L818.2,258.63L818.32,261.98L818.44,267.94L818.8,259.97L818.92,249.09L819.63,187.76L819.87,208.45L819.98,222.4L821.53,269.91L821.65,266.62L821.77,257.28L822.36,229.86L822.71,232.79L822.83,247.01L823.55,279.65L823.78,275.78L823.9,272.53L824.14,267.94L824.26,268.6L824.38,271.87L825.33,202.01L825.56,216.29L825.68,226.9L826.4,249.09L826.63,247.7L826.75,248.4L826.87,247.01L827.11,251.84L827.23,251.84L827.46,237.12L827.58,223.16L828.18,202.82L828.3,228.38L828.89,261.98L829.25,255.25L829.36,254.57L829.84,253.21L829.96,255.93L830.2,255.93L830.31,257.28L831.03,238.55L831.38,246.31L831.5,247.7L831.62,249.09L831.74,245.61L831.86,245.61L831.98,244.22L832.45,279.01L832.93,272.53L833.04,269.91L833.88,226.9L833.99,215.52L835.66,279.65L835.89,271.87L836.01,265.3L836.73,212.4L837.08,232.06L837.2,242.1L838.63,285.43L838.74,275.78L838.86,264.64L839.34,221.65L839.81,234.96L839.93,244.92L840.53,277.07L840.88,260.64L841,255.93L841.36,257.96L841.59,255.25L841.71,253.21L842.42,238.55L842.66,242.1L842.78,243.51L843.61,277.07L843.73,266.62L843.85,253.21L844.44,261.31L844.56,257.28L844.68,252.52L845.27,213.18L845.39,223.16L845.51,234.96L846.11,247.01L846.34,242.1L846.46,241.4L847.29,247.7L847.41,237.12L848.12,214.74L848.24,215.52L848.36,229.12L849.43,279.01L849.55,281.59L850.02,293.72L850.14,280.94L850.26,273.18L851.09,217.83L851.21,228.38L851.33,240.69L852.4,265.3L852.52,265.3L852.75,264.64L852.87,261.98L853.35,199.55L853.82,217.83L853.94,226.9L855.13,292.45L855.37,289.9L855.49,289.26L855.84,290.54L855.96,287.99L856.55,269.91L856.79,280.3L856.91,286.07L857.03,282.87L857.39,293.08L857.5,294.35L857.98,305.77L858.57,303.87L858.69,300.06L859.4,273.83L859.76,282.23L859.88,284.15L860.59,291.81L860.71,293.08L860.83,292.45L860.95,294.35L861.07,296.26L861.42,314.04L861.54,302.6L861.66,294.99L862.02,273.18L862.49,285.43L862.61,288.63L863.2,294.99L863.32,300.7L864.27,338.03L864.39,325.6L865.1,269.91L865.34,288.63L865.46,298.16L865.7,305.77L865.82,315.96L865.93,325.6L866.53,313.4L866.65,312.77L867.6,296.26L867.72,293.08L869.26,259.3L869.38,258.63L869.73,254.57L869.85,251.15L869.97,251.84L870.09,247.7L870.33,241.4L870.45,230.59L870.8,214.74L871.16,229.86L871.28,238.55L872.82,261.98L873.06,258.63L873.18,257.28L873.53,249.78L873.89,255.25L874.01,259.3L875.67,277.72L875.79,273.18L875.91,263.31L876.38,247.7L876.62,258.63L876.74,261.98L876.86,271.87L877.45,264.64L877.57,267.28L877.69,265.96L877.93,269.26L878.05,276.42L878.52,282.23L878.76,277.72L878.88,268.6L879.11,259.97L879.59,269.91L879.71,281.59L880.42,301.33L880.78,295.62L880.9,296.89L881.25,303.24L881.96,269.91L882.2,271.87L882.32,277.07L883.03,291.17L883.51,290.54L883.63,289.9L883.98,294.99L884.1,299.43L884.22,300.7L884.34,293.72L885.05,263.31L885.29,271.87L885.41,272.53L886.48,291.81L886.59,293.08L887.07,296.89L887.19,294.99L887.31,292.45L887.78,286.07L888.14,288.63L888.26,289.26L888.85,290.54L888.97,297.53L889.8,304.5L889.92,303.87L890.04,301.97L890.75,284.79L890.87,286.07L890.99,297.53L892.06,334.73L892.29,332.76L892.41,327.54L892.65,332.76L892.77,337.37L892.89,338.69L893.01,334.07L893.12,321.72L893.6,293.08L893.84,314.04L893.96,318.51L894.79,312.77L895.02,314.68L895.14,315.96L895.86,326.89L896.21,325.6L896.33,323.66L898.11,305.77L898.23,305.77L898.35,308.31L898.71,301.33L898.82,296.26L899.3,291.81L899.42,292.45L899.54,300.06L900.37,307.68L900.49,305.14L901.32,312.77L901.44,310.86L901.55,307.68L902.15,287.99L902.39,294.99L902.5,297.53L902.74,300.06L902.86,309.58L903.81,334.07L904.05,329.49L904.17,325.6L905,288.63L905.12,292.45L905.24,300.7L905.95,310.22L906.19,308.31L906.3,307.68L906.54,309.58L907.02,299.43L907.14,291.81L907.37,274.48L907.85,287.99L907.97,289.9L908.44,299.43L908.92,298.8L909.04,297.53L909.87,307.04L909.99,302.6L910.1,301.33L910.94,294.99L911.05,299.43L911.17,305.77L911.41,297.53L911.77,301.33L911.88,301.97L912.6,307.68L912.72,310.22L913.19,298.16L913.31,290.54L913.55,277.72L913.9,293.72L914.02,296.89L914.26,291.81L914.38,290.54L915.57,307.04L915.68,306.41L915.8,296.89L916.4,283.51L916.52,286.07L916.63,293.72L917.7,316.59L917.82,315.96L917.94,314.68L918.06,316.59L918.18,324.95L918.3,324.3L918.42,317.87L919.01,288.63L919.48,296.89L919.6,299.43L921.03,316.59L921.26,315.32L921.38,313.4L922.1,295.62L922.33,299.43L922.45,301.33L923.28,310.22L923.52,308.95L923.64,308.95L924.23,306.41L924.35,302.6L924.95,297.53L925.18,300.7L925.3,301.33L926.25,308.95L926.37,308.31L927.32,311.49L927.44,310.22L927.91,307.04L928.03,310.22L928.98,303.24L929.1,305.77L929.22,306.41L929.46,308.31L929.7,303.87L929.81,299.43L930.53,246.31L930.88,257.96L931,261.31L931.24,261.98L931.36,268.6L932.78,308.95L932.9,302.6L933.02,286.71L933.49,267.94L933.73,282.87L933.85,291.81L933.97,290.54L934.09,308.31L934.21,305.14L934.33,311.49L934.44,319.16L934.8,314.68L935.04,318.51L935.16,318.51L936.46,305.14L936.58,306.41L937.29,312.77L937.41,310.86L937.53,309.58L938.36,302.6L938.48,299.43L939.19,285.43L939.55,288.63L939.67,289.9L940.97,305.14L941.09,298.8L941.45,298.16L941.57,295.62L942.64,271.87L942.76,271.87L942.99,269.26L943.11,275.78L943.23,275.78L943.47,279.01L943.82,275.78L943.94,272.53L944.18,279.01L944.3,271.22L944.54,261.31L945.01,263.97L945.13,269.91L946.08,281.59L946.2,279.65L946.32,279.01L946.56,280.94L946.79,279.65L946.91,278.36L947.27,275.13L947.39,280.3L948.34,317.87L948.57,312.13L948.69,310.22L948.81,309.58L948.93,311.49L949.05,314.68L949.17,311.49L949.64,315.32L949.76,316.59L950.59,301.97L950.71,308.31L951.66,341.36L951.78,325.6L952.14,332.1L952.49,324.3L952.61,323.01L952.73,324.3L953.09,320.44L953.2,319.16L953.32,318.51L953.44,319.16L953.56,323.01L954.63,328.84L954.75,326.89L955.34,330.14L955.58,328.19L955.7,327.54L956.05,310.86L956.53,317.87L956.65,319.16L956.89,320.44L957.24,317.23L957.48,317.87L957.6,319.8L958.31,329.49L958.43,327.54L958.55,322.37L959.02,298.16L959.38,312.13L959.5,323.01L961.16,355.66L961.28,347.42L961.87,297.53L962.23,314.68L962.35,317.23L963.42,358.46L963.53,346.07L963.65,354.28L964.25,345.39L964.37,344.72L964.84,339.36L965.08,340.69L965.2,344.72L967.1,337.37L967.22,332.76L967.69,307.04L968.28,311.49L968.4,310.86L970.42,275.78L970.66,280.94L970.78,284.15L970.9,283.51L971.01,286.07L971.13,286.07L971.25,290.54L971.61,289.26L971.73,291.81L971.85,291.81L971.96,291.17L972.32,286.07L972.56,286.71L972.68,291.81L973.27,271.22L973.98,271.87L974.1,272.53L974.46,268.6L975.41,298.16L975.53,295.62L976,273.83L976.36,281.59L976.48,287.99L977.66,307.68L977.78,310.86L978.14,324.95L978.5,315.96L978.61,313.4L979.21,306.41L979.33,321.08L980.04,340.69L980.28,336.71L980.4,335.39L981.23,344.72L981.34,338.03L981.94,323.01L982.29,326.24L982.41,328.19L983.36,319.16L983.48,321.72L983.6,321.72L983.96,323.01L984.08,321.08L984.19,317.87L984.91,311.49L985.03,313.4L985.14,316.59L986.09,334.73L986.21,330.14L986.69,331.45L986.93,330.14L987.04,328.84L987.88,306.41L988.23,310.86L988.35,314.04L989.3,308.95L989.42,314.68L989.78,303.87L989.89,289.9L990.13,279.65L990.37,291.17L990.61,289.26L990.72,289.9L991.2,282.87L991.44,286.07L991.56,289.26L991.67,299.43L992.15,293.72L992.27,284.79L993.22,248.4L993.34,271.22L994.17,287.35L994.29,286.71L994.41,284.15L994.76,284.15L994.88,286.71L995.24,292.45L995.36,296.26L995.47,299.43L995.71,284.79L995.83,280.3L996.07,270.57L996.31,285.43L996.42,291.81L997.14,307.68L997.26,306.41L997.37,303.24L997.61,298.8L997.85,303.24L997.97,307.68L998.32,309.58L998.56,293.72L998.68,279.01L998.8,263.97L999.27,280.94L999.39,286.71L999.99,283.51L1000.22,295.62L1000.34,291.81L1000.46,290.54L1000.58,293.08L1000.7,301.33L1001.41,284.15L1001.53,267.28L1001.89,247.7L1002.12,263.31L1002.24,277.72L1002.6,296.26L1002.95,282.87L1003.07,278.36L1003.79,315.96L1004.02,304.5L1004.14,296.89L1004.62,269.26L1004.97,280.94L1005.09,291.81L1005.21,289.26L1005.33,304.5L1005.57,296.26L1006.04,298.16L1006.16,311.49L1006.28,313.4L1006.64,308.31L1006.75,295.62L1007.23,269.91L1007.7,277.07L1007.82,275.13L1007.94,278.36L1008.06,275.78L1008.18,262.64L1009.25,298.8L1009.37,303.87L1009.6,313.4L1009.96,303.24L1010.08,300.06L1010.43,285.43L1010.79,295.62L1010.91,296.89L1011.38,313.4L1011.86,311.49L1011.98,309.58L1012.93,298.16L1013.05,284.15L1013.4,280.3L1013.64,284.15L1013.76,285.43L1014.83,294.99L1014.95,293.72L1015.07,292.45L1015.54,294.99L1015.66,294.35L1015.78,289.26L1015.9,289.9L1016.02,286.71L1016.13,284.15L1016.49,295.62L1017.08,292.45L1017.2,293.72L1017.32,291.81L1017.56,295.62L1017.68,298.16L1018.27,305.77L1018.39,303.87L1018.51,299.43L1019.93,284.15L1020.05,286.71L1020.65,292.45L1020.76,289.26L1020.88,287.99L1021.36,289.26L1021.71,286.07L1021.83,289.26L1023.14,305.14L1023.5,304.5L1023.61,304.5L1023.85,307.68L1024.09,306.41L1024.21,298.8L1024.45,286.71L1024.8,298.16L1024.92,304.5L1025.87,313.4L1025.99,312.77L1026.11,313.4L1026.46,311.49L1026.58,309.58L1026.94,306.41L1027.06,302.6L1027.41,299.43L1027.65,306.41L1027.77,307.68L1028.25,329.49L1028.6,326.24L1028.72,328.84L1029.2,333.41L1029.55,331.45L1029.67,330.79L1029.79,331.45L1029.91,327.54L1030.26,320.44L1030.62,326.89L1030.74,327.54L1031.69,360.57L1031.81,355.66L1031.93,350.15L1032.4,371.35L1032.64,352.9L1032.76,342.03L1033.23,321.08L1033.47,332.1L1033.59,337.37L1033.94,347.42L1034.06,351.52L1034.18,350.83L1034.3,356.36L1034.54,358.46L1034.78,352.9L1034.89,350.15L1035.25,353.59L1035.37,351.52L1035.49,344.04L1036.08,294.99L1036.44,319.16L1036.56,321.72L1036.91,336.05L1037.51,333.41L1037.63,335.39L1038.1,338.03L1038.46,321.72L1038.58,303.87L1038.69,296.26L1039.17,308.95L1039.29,308.31L1040,329.49" style="vector-effect: none; fill: none; stroke: rgb(0, 117, 173); stroke-opacity: 1; stroke-width: 2px; opacity: 1;"/></g><g class="points"/><g class="text"/></g></g></g><g class="overplot"/><path class="xlines-above crisp" d="M0,0" style="fill: none;"/><path class="ylines-above crisp" d="M0,0" style="fill: none;"/><g class="overlines-above"/><g class="xaxislayer-above"><g class="xtick"><text text-anchor="middle" x="0" y="449" transform="translate(80,0)" style="font-family: Arial; font-size: 13px; fill: rgb(51, 51, 51); fill-opacity: 1; white-space: pre; opacity: 1;">Jan 2019</text></g><g class="xtick"><text text-anchor="middle" x="0" y="449" style="font-family: Arial; font-size: 13px; fill: rgb(51, 51, 51); fill-opacity: 1; white-space: pre; opacity: 1;" transform="translate(168.34,0)">Feb 2019</text></g><g class="xtick"><text text-anchor="middle" x="0" y="449" style="font-family: Arial; font-size: 13px; fill: rgb(51, 51, 51); fill-opacity: 1; white-space: pre; opacity: 1;" transform="translate(248.13,0)">Mar 2019</text></g><g class="xtick"><text text-anchor="middle" x="0" y="449" style="font-family: Arial; font-size: 13px; fill: rgb(51, 51, 51); fill-opacity: 1; white-space: pre; opacity: 1;" transform="translate(336.47,0)">Apr 2019</text></g><g class="xtick"><text text-anchor="middle" x="0" y="449" style="font-family: Arial; font-size: 13px; fill: rgb(51, 51, 51); fill-opacity: 1; white-space: pre; opacity: 1;" transform="translate(421.96,0)">May 2019</text></g><g class="xtick"><text text-anchor="middle" x="0" y="449" style="font-family: Arial; font-size: 13px; fill: rgb(51, 51, 51); fill-opacity: 1; white-space: pre; opacity: 1;" transform="translate(510.3,0)">Jun 2019</text></g><g class="xtick"><text text-anchor="middle" x="0" y="449" style="font-family: Arial; font-size: 13px; fill: rgb(51, 51, 51); fill-opacity: 1; white-space: pre; opacity: 1;" transform="translate(595.78,0)">Jul 2019</text></g><g class="xtick"><text text-anchor="middle" x="0" y="449" style="font-family: Arial; font-size: 13px; fill: rgb(51, 51, 51); fill-opacity: 1; white-space: pre; opacity: 1;" transform="translate(684.12,0)">Aug 2019</text></g><g class="xtick"><text text-anchor="middle" x="0" y="449" style="font-family: Arial; font-size: 13px; fill: rgb(51, 51, 51); fill-opacity: 1; white-space: pre; opacity: 1;" transform="translate(772.46,0)">Sep 2019</text></g><g class="xtick"><text text-anchor="middle" x="0" y="449" style="font-family: Arial; font-size: 13px; fill: rgb(51, 51, 51); fill-opacity: 1; white-space: pre; opacity: 1;" transform="translate(857.95,0)">Oct 2019</text></g><g class="xtick"><text text-anchor="middle" x="0" y="449" style="font-family: Arial; font-size: 13px; fill: rgb(51, 51, 51); fill-opacity: 1; white-space: pre; opacity: 1;" transform="translate(946.29,0)">Nov 2019</text></g><g class="xtick"><text text-anchor="middle" x="0" y="449" style="font-family: Arial; font-size: 13px; fill: rgb(51, 51, 51); fill-opacity: 1; white-space: pre; opacity: 1;" transform="translate(1031.78,0)">Dec 2019</text></g></g><g class="yaxislayer-above"><g class="ytick"><text text-anchor="end" x="79" y="4.55" transform="translate(0,425.3)" style="font-family: Arial; font-size: 13px; fill: rgb(51, 51, 51); fill-opacity: 1; white-space: pre; opacity: 1;">1.5</text></g><g class="ytick"><text text-anchor="end" x="79" y="4.55" style="font-family: Arial; font-size: 13px; fill: rgb(51, 51, 51); fill-opacity: 1; white-space: pre; opacity: 1;" transform="translate(0,354.47)">2</text></g><g class="ytick"><text text-anchor="end" x="79" y="4.55" style="font-family: Arial; font-size: 13px; fill: rgb(51, 51, 51); fill-opacity: 1; white-space: pre; opacity: 1;" transform="translate(0,283.64)">2.5</text></g><g class="ytick"><text text-anchor="end" x="79" y="4.55" style="font-family: Arial; font-size: 13px; fill: rgb(51, 51, 51); fill-opacity: 1; white-space: pre; opacity: 1;" transform="translate(0,212.81)">3</text></g><g class="ytick"><text text-anchor="end" x="79" y="4.55" style="font-family: Arial; font-size: 13px; fill: rgb(51, 51, 51); fill-opacity: 1; white-space: pre; opacity: 1;" transform="translate(0,141.98000000000002)">3.5</text></g><g class="ytick"><text text-anchor="end" x="79" y="4.55" style="font-family: Arial; font-size: 13px; fill: rgb(51, 51, 51); fill-opacity: 1; white-space: pre; opacity: 1;" transform="translate(0,71.15)">4</text></g></g><g class="overaxes-above"/></g></g><g class="polarlayer"/><g class="smithlayer"/><g class="ternarylayer"/><g class="geolayer"/><g class="funnelarealayer"/><g class="pielayer"/><g class="iciclelayer"/><g class="treemaplayer"/><g class="sunburstlayer"/><g class="glimages"/><defs id="topdefs-461f4f"><g class="clips"/></defs><g class="layer-above"><g class="imagelayer"/><g class="shapelayer"/></g><g class="infolayer"><g class="g-gtitle"><text class="gtitle" x="600" y="0.4800000000000182" text-anchor="middle" dy="0.7em" style="font-family: 'Arial Black'; font-size: 20px; fill: rgb(51, 51, 51); opacity: 1; font-weight: normal; white-space: pre;">COP based on temperature</text></g><g class="g-xtitle"/><g class="g-ytitle"><text class="ytitle" transform="rotate(-90,33.121875,230)" x="33.121875" y="230" text-anchor="middle" style="font-family: Arial; font-size: 19px; fill: rgb(51, 51, 51); opacity: 1; font-weight: normal; white-space: pre;">COP</text></g></g></svg>