<svg class="main-svg" xmlns="http://www.w3.org/2000/svg" xmlns:xlink="http://www.w3.org/1999/xlink" width="1200" height="230" style="" viewBox="0 0 1200 230"><rect x="0" y="0" width="1200" height="230" style="fill: rgb(255, 255, 255); fill-opacity: 1;"/><defs id="defs-113413"><g class="clips"><clipPath id="clip113413xyplot" class="plotclip"><rect width="1040" height="160"/></clipPath><clipPath class="axesclip" id="clip113413x"><rect x="80" y="0" width="1040" height="230"/></clipPath><clipPath class="axesclip" id="clip113413y"><rect x="0" y="25" width="1200" height="160"/></clipPath><clipPath class="axesclip" id="clip113413xy"><rect x="80" y="25" width="1040" height="160"/></clipPath></g><g class="gradients"/><g class="patterns"/></defs><g class="bglayer"/><g class="layer-below"><g class="imagelayer"/><g class="shapelayer"/></g><g class="cartesianlayer"><g class="subplot xy"><g class="layer-subplot"><g class="shapelayer"/><g class="imagelayer"/></g><g class="minor-gridlayer"><g class="x"/><g class="y"/></g><g class="gridlayer"><g class="x"><path class="xgrid crisp" transform="translate(168.34,0)" d="M0,25v160" style="stroke: rgb(200, 200, 200); stroke-opacity: 1; stroke-width: 1px;"/><path class="xgrid crisp" transform="translate(248.13,0)" d="M0,25v160" style="stroke: rgb(200, 200, 200); stroke-opacity: 1; stroke-width: 1px;"/><path class="xgrid crisp" transform="translate(336.47,0)" d="M0,25v160" style="stroke: rgb(200, 200, 200); stroke-opacity: 1; stroke-width: 1px;"/><path class="xgrid crisp" transform="translate(421.96,0)" d="M0,25v160" style="stroke: rgb(200, 200, 200); stroke-opacity: 1; stroke-width: 1px;"/><path class="xgrid crisp" transform="translate(510.3,0)" d="M0,25v160" style="stroke: rgb(200, 200, 200); stroke-opacity: 1; stroke-width: 1px;"/><path class="xgrid crisp" transform="translate(595.78,0)" d="M0,25v160" style="stroke: rgb(200, 200, 200); stroke-opacity: 1; stroke-width: 1px;"/><path class="xgrid crisp" transform="translate(684.12,0)" d="M0,25v160" style="stroke: rgb(200, 200, 200); stroke-opacity: 1; stroke-width: 1px;"/><path class="xgrid crisp" transform="translate(772.46,0)" d="M0,25v160" style="stroke: rgb(200, 200, 200); stroke-opacity: 1; stroke-width: 1px;"/><path class="xgrid crisp" transform="translate(857.95,0)" d="M0,25v160" style="stroke: rgb(200, 200, 200); stroke-opacity: 1; stroke-width: 1px;"/><path class="xgrid crisp" transform="translate(946.29,0)" d="M0,25v160" style="stroke: rgb(200, 200, 200); stroke-opacity: 1; stroke-width: 1px;"/><path class="xgrid crisp" transform="translate(1031.78,0)" d="M0,25v160" style="stroke: rgb(200, 200, 200); stroke-opacity: 1; stroke-width: 1px;"/></g><g class="y"><path class="ygrid crisp" transform="translate(0,170.53)" d="M80,0h1040" style="stroke: rgb(200, 200, 200); stroke-opacity: 1; stroke-width: 1px;"/><path class="ygrid crisp" transform="translate(0,155.25)" d="M80,0h1040" style="stroke: rgb(200, 200, 200); stroke-opacity: 1; stroke-width: 1px;"/><path class="ygrid crisp" transform="translate(0,139.97)" d="M80,0h1040" style="stroke: rgb(200, 200, 200); stroke-opacity: 1; stroke-width: 1px;"/><path class="ygrid crisp" transform="translate(0,124.69)" d="M80,0h1040" style="stroke: rgb(200, 200, 200); stroke-opacity: 1; stroke-width: 1px;"/><path class="ygrid crisp" transform="translate(0,109.4)" d="M80,0h1040" style="stroke: rgb(200, 200, 200); stroke-opacity: 1; stroke-width: 1px;"/><path class="ygrid crisp" transform="translate(0,94.12)" d="M80,0h1040" style="stroke: rgb(200, 200, 200); stroke-opacity: 1; stroke-width: 1px;"/><path class="ygrid crisp" transform="translate(0,78.84)" d="M80,0h1040" style="stroke: rgb(200, 200, 200); stroke-opacity: 1; stroke-width: 1px;"/><path class="ygrid crisp" transform="translate(0,63.56)" d="M80,0h1040" style="stroke: rgb(200, 200, 200); stroke-opacity: 1; stroke-width: 1px;"/><path class="ygrid crisp" transform="translate(0,48.28)" d="M80,0h1040" style="stroke: rgb(200, 200, 200); stroke-opacity: 1; stroke-width: 1px;"/><path class="ygrid crisp" transform="translate(0,33)" d="M80,0h1040" style="stroke: rgb(200, 200, 200); stroke-opacity: 1; stroke-width: 1px;"/></g></g><g class="zerolinelayer"/><path class="xlines-below"/><path class="ylines-below"/><g class="overlines-below"/><g class="xaxislayer-below"/><g class="yaxislayer-below"/><g class="overaxes-below"/><g class="plot" transform="translate(80,25)" clip-path="url(#clip113413xyplot)"><g class="scatterlayer mlayer"><g class="trace scatter trace1603ab" style="stroke-miterlimit: 2; opacity: 1;"><g class="fills"/><g class="errorbars"/><g class="lines"><path class="js-line" d="M0,99.89L0.24,102.24L0.59,100.28L0.71,86.87L0.95,47.76L1.54,61.97L1.66,66.43L1.78,63.22L1.9,81.66L2.37,100.49L2.85,99.43L2.97,94.4L3.09,97.93L3.44,94.83L3.56,80.55L3.8,44.96L4.39,53.41L4.51,55.53L4.63,48.54L4.75,74.28L4.87,81.64L4.99,80.93L5.11,90.36L5.34,94.38L5.82,93.58L5.94,93.05L6.29,91.54L6.41,71.35L6.65,33.57L7.24,41.44L7.36,42.31L8.19,90.67L8.55,88.8L8.67,88.09L8.91,89.76L9.14,88.79L9.26,72.33L9.5,15.99L10.09,28.86L10.21,39.38L11.4,90.56L11.52,84.8L11.75,89.76L12.11,79.15L12.23,36.19L12.82,53.55L12.94,45.78L13.06,47.15L14.25,100.23L14.37,100.51L14.6,99.11L14.84,103.17L14.96,88.81L15.2,51.35L15.79,58.36L15.91,52.49L16.74,103.73L17.1,103.54L17.22,104.31L17.45,102.04L17.69,105.13L17.81,92.57L18.4,39.87L18.64,61.39L18.76,58.65L18.88,60.06L19,87.16L20.3,108.45L20.42,103.94L20.54,105.09L20.66,94.33L20.9,36.16L21.49,58.13L21.61,63.11L21.73,60.21L21.85,70.06L21.97,84.89L22.08,83.92L22.2,86.76L22.32,90.34L22.8,95.88L22.92,90.03L23.03,92.55L23.15,90.77L23.39,92.18L23.51,74.42L24.22,27.7L24.34,42.4L24.46,43.3L25.65,96.97L25.77,95.3L25.88,94.58L26,94.19L26.12,96.71L26.24,95.21L26.36,76.98L26.6,20.11L27.19,50.54L27.31,47.47L28.62,97.46L28.73,96.34L28.97,95.96L29.09,91.96L29.45,15.02L29.92,45.93L30.04,52.69L30.28,44.81L30.99,91.06L31.23,90.33L31.35,91L31.58,95.04L32.06,91.37L32.18,52.41L32.3,53.11L32.41,58.66L32.53,60.18L32.65,58.05L32.89,59.18L33.01,50.32L34.2,103.58L34.31,100.56L34.55,100.88L34.91,90.31L35.03,49.99L35.74,71.57L35.86,63.71L35.98,57.35L36.69,103.44L36.93,100.33L37.05,102.49L37.64,97.95L37.76,80.7L38,45.14L38.59,56.11L38.71,51.82L38.83,54.04L38.95,70.84L39.78,90.22L39.89,88.91L40.01,88.04L40.13,89.84L40.25,94.93L40.61,78.98L40.73,37.33L40.96,34.22L41.08,42.24L41.2,44.36L42.39,96.65L42.51,97.26L42.98,102.25L43.1,98L43.22,95.91L43.34,97.28L43.46,83.65L43.81,37.81L44.17,52.19L44.29,58.91L45.24,102.33L45.48,97.94L45.59,102.72L46.31,84.85L46.43,44.62L46.54,34.9L46.9,52.73L47.02,63.81L48.44,99.3L48.56,97.77L48.68,99.66L48.8,96.03L48.92,97.94L49.04,93.18L49.39,31.42L49.75,45.83L49.87,53.23L49.99,51.4L50.11,63.04L50.22,58.49L50.34,77.99L50.46,83.68L50.58,84.21L50.7,82.8L50.82,90.84L50.94,89.66L51.06,79.2L51.29,73.17L51.53,85.49L51.65,89.11L51.77,89.45L51.89,85.06L52.01,79.39L52.12,25.93L52.24,21.48L52.48,31.63L52.6,43.17L52.84,38.8L54.02,89.8L54.26,86.48L54.38,86.51L54.86,66.16L54.97,19.16L55.09,16.53L55.21,31.13L56.99,94.06L57.11,92.02L57.23,90.39L57.47,91.64L57.59,89.4L57.71,77.64L57.94,28.95L58.54,49.03L58.66,44.25L59.72,92.32L59.84,91.25L59.96,87.14L60.08,89.99L60.44,88.71L60.55,76.53L60.79,17.73L61.39,36.08L61.5,46L61.62,39.82L61.74,67.58L61.86,78.79L61.98,72.89L62.34,87.55L62.45,89.67L62.69,83.12L63.05,90.63L63.17,90.85L63.64,11.91L64.12,18.58L64.24,26.17L65.42,88.78L65.54,87.12L65.78,85.7L66.02,90.36L66.14,90.15L66.25,79.83L66.61,18.83L67.09,36.98L67.2,40.85L67.32,34.21L67.44,59.83L67.56,71.35L68.87,91.33L68.99,88.76L69.1,82.04L69.46,18.74L69.93,39.12L70.05,30.96L71.12,87.03L71.36,85.55L71.48,87.33L71.6,88.77L71.83,86.25L71.95,80.38L72.19,24.86L72.78,39.26L72.9,38.29L73.97,93.96L74.09,95.2L74.33,94.18L74.57,96.27L74.68,97.35L75.16,29.76L75.4,56.89L75.52,63.65L75.75,46.16L75.99,83.35L76.11,90.87L76.23,87.35L76.47,98.86L76.58,96.68L76.7,98.03L76.82,98.66L76.94,96.82L77.3,97.53L77.42,95.39L77.53,97.67L77.65,86.1L77.77,50.68L77.89,40.6L78.01,51.78L78.37,47.86L78.48,63.62L78.6,63.34L78.72,63.55L78.84,73.37L79.31,98.23L79.67,96.02L79.79,97.86L79.91,97.47L80.03,94.5L80.38,96.77L80.5,80.99L80.74,38.51L81.21,57.83L81.33,60.44L81.45,62.95L81.57,59.43L81.69,83.65L82.52,96.33L82.64,94.45L82.76,91.92L83.23,87.87L83.35,69.08L83.59,22.62L84.06,49.3L84.18,51.05L84.42,54.34L84.54,72.16L85.37,93.35L85.61,90.58L85.73,89.91L86.08,86.32L86.2,76.31L86.44,25.54L86.91,49.27L87.03,51.52L88.22,96.9L88.34,97.31L88.46,98.19L88.93,96.52L89.05,80.91L89.29,28.6L89.88,49.22L90,50.25L91.07,95.07L91.19,94.43L91.31,97.14L91.9,78.22L92.02,42.88L92.14,31.32L92.49,57.11L92.61,69.66L92.85,58.03L92.97,69.41L93.09,88.7L93.92,106.4L94.16,105.29L94.28,106.61L94.75,85.99L94.87,50.87L94.99,51.01L95.11,57.55L95.94,75.32L96.06,88.72L96.18,81.36L96.65,97.18L96.77,96.99L97.13,96.81L97.36,99.91L97.48,94.4L97.84,31.01L98.19,50.52L98.31,49.14L98.79,79.47L98.91,91.81L99.03,87.31L99.26,96.36L99.62,92.87L99.74,91.49L100.09,92.97L100.21,90.17L100.33,92.15L100.45,79.66L100.69,10.24L101.28,35.6L101.4,47.02L101.52,45.18L101.64,61.84L102.59,95.5L102.71,93.51L102.82,95.55L103.18,90.71L103.3,76.83L103.54,8L104.13,28.44L104.25,41.45L105.44,83.11L105.56,81.22L105.79,81.68L105.91,80.22L106.03,82.48L106.39,11.97L106.74,24.64L106.86,45.72L106.98,38.5L107.1,49.92L107.22,47.08L107.34,64.8L108.29,99.35L108.41,98.05L108.64,101.12L108.88,96.49L109,85.79L109.35,27.67L109.71,71.01L109.83,75.01L111.02,103.36L111.14,101.67L111.37,103.64L111.73,99.53L111.85,94.91L112.09,52.81L112.56,74.34L112.68,74.42L113.87,110.28L113.99,106.79L114.1,109.18L114.7,98L114.82,47.59L116,108.36L116.12,105.38L116.48,102.62L116.95,112.18L117.07,107.73L117.31,106.41L117.43,110.91L117.55,95.33L118.14,48.57L118.38,59.55L118.5,61.49L118.62,61.23L118.74,79.57L119.68,101.58L119.8,101.18L119.92,104.13L120.28,98.4L120.4,87.71L120.63,37.18L121.23,57.36L121.35,59.23L121.47,58.89L121.58,78.99L122.53,101.23L122.65,101.68L123.25,80.73L123.37,47.39L124.08,69.62L124.2,65.09L124.32,87.81L125.15,106.63L125.27,106.72L125.5,105.02L125.62,107.89L125.86,105.38L125.98,105.95L126.1,82.93L126.22,36.58L126.81,72.95L126.93,67.92L127.64,108.12L128,106.01L128.12,109.6L128.35,108.26L128.47,106.81L128.59,106.33L128.83,108.38L128.95,89.09L129.18,29.57L129.66,80.2L129.78,82.8L130.96,108.96L131.08,106.72L131.2,107.66L131.44,104.6L131.56,104.86L131.68,104.36L132.03,38.48L132.39,74.36L132.51,77.81L132.63,78.81L132.75,87.9L133.7,107.22L133.81,109.5L134.53,101.83L134.65,83.35L134.76,43.12L135.36,88.63L135.48,80.07L136.31,110.03L136.43,108.53L137.38,97.94L137.5,81.07L137.73,40.74L138.21,67.73L138.33,80.59L139.51,111.26L139.63,109.43L139.75,110.65L140.11,107.81L140.23,105.4L140.58,44.48L140.94,75.63L141.06,83.42L142.13,112.72L142.24,112.26L142.36,116.2L142.48,116.35L142.6,114.65L142.84,115.82L142.96,114.43L143.08,114.81L143.19,103.47L143.43,61.36L143.91,77.65L144.03,76.61L145.21,122.38L145.33,120.47L145.57,117.32L145.93,120.35L146.04,100.25L146.28,61.57L146.76,91.17L146.88,91.45L147.94,120.3L148.3,120.05L148.42,119.9L148.77,118.04L148.89,102.44L149.13,48.25L149.72,73.2L149.84,80.06L150.91,113.74L151.03,106.96L151.27,108.76L151.74,91.08L151.86,46.32L151.98,39.59L152.22,60.85L152.34,64.38L152.46,61.36L152.57,72.85L152.69,69.65L152.81,76.38L153.52,106.03L153.88,105.46L154,103.76L154.12,104.25L154.24,100.98L154.47,101.22L154.59,81.72L154.71,37.58L155.31,63.26L155.42,71.36L155.54,69.84L155.66,77.66L155.78,77.94L156.61,101.64L156.73,98.95L156.85,100L157.09,100.91L157.32,98.07L157.44,79.12L157.68,32.96L158.16,62.7L158.27,77.98L159.46,105.33L159.58,105.62L159.7,105.41L159.82,106.52L159.94,102.54L160.17,103.63L160.29,89.35L160.41,35.69L161,78.47L161.12,93.81L161.24,94.51L161.36,101.64L161.48,94.08L161.84,114.24L161.95,113.18L162.31,118.35L162.67,114.22L162.79,113.61L163.02,111.69L163.14,89.99L163.38,53.54L163.85,87.27L163.97,83.31L164.8,117.92L164.92,117.77L165.04,116.86L165.16,119.46L165.64,115.78L165.75,114.99L165.87,115.31L165.99,101.46L166.23,62.92L166.7,99.57L166.82,111.6L167.3,127.83L167.89,124.28L168.01,126.94L168.13,128.71L168.37,123.27L168.48,124.78L168.6,123.77L168.72,123.53L168.84,116.18L169.08,62L169.67,84.95L169.79,87.53L170.98,122.6L171.1,119.93L171.33,120.89L171.45,118.59L171.57,120.18L171.69,108.32L171.93,69.84L172.4,86.5L172.52,84.87L172.76,87.65L172.88,100.09L173.71,118.05L173.95,116.99L174.07,116.27L174.3,117.58L174.42,114.69L174.54,105.18L174.66,65.43L175.25,107.99L175.37,103.85L175.49,104.47L175.61,115.06L175.73,114.46L175.85,120.54L175.97,114.16L176.32,120.88L176.56,119L176.68,122.26L177.15,119.22L177.27,120.23L177.39,100.13L177.51,85.39L178.1,101.82L178.22,108.86L178.46,97.23L178.7,111.71L178.81,112.46L179.53,125.03L179.65,124.44L179.76,120.79L179.88,123.47L180.12,119.18L180.24,105.91L180.48,72.34L180.95,90.37L181.07,99.68L182.14,120.19L182.26,119.29L182.38,122.18L182.85,118.47L182.97,117.71L183.33,59.76L183.68,83.59L183.8,94.45L184.4,122.41L184.75,121.52L184.87,118.72L185.23,126.34L185.7,123.64L185.82,126.25L186.18,88.96L186.77,90.87L186.89,89.73L188.19,122.66L188.31,123.08L188.67,117.82L188.79,110.41L189.14,72.08L189.5,86.94L189.62,92.36L190.69,125.76L191.04,125.38L191.16,123.89L191.28,124.37L191.4,122.7L191.52,124.06L191.64,111.82L191.76,79.54L192.35,111.37L192.47,111.13L192.59,103.64L193.06,120.67L193.18,122.45L193.78,127.87L194.01,126.63L194.13,124.69L194.25,128.26L194.49,114.46L194.61,87.94L194.73,88.37L194.84,93.42L196.15,124.41L196.27,123.18L196.51,123.63L196.63,119.76L196.98,122.61L197.1,122.37L197.34,109.76L197.46,73.06L197.58,84L197.81,67.93L198.29,81.58L198.41,88.43L199.24,117.34L199.36,117.98L199.59,118.65L199.83,115.62L200.07,116.43L200.19,102.96L200.31,60.95L200.9,73.99L201.02,79.26L202.09,121L202.21,120.52L202.32,119.5L202.44,120.99L202.92,119.03L203.04,103.6L203.51,66.97L203.87,76.58L203.99,94.16L205.29,120.08L205.41,120.51L205.77,115.29L205.89,101.7L206.01,65.36L206.6,79.09L206.72,86.88L206.84,82.38L207.07,94.41L207.19,102.43L207.31,99.4L207.55,111.09L207.67,112.66L208.02,113.9L208.14,110.92L208.26,111.23L208.5,114.55L208.62,112.72L208.74,100.15L208.97,58.7L209.57,64.53L209.69,73.57L209.8,71.57L209.92,95.49L210.75,119.3L210.99,117.89L211.11,117.49L211.23,116.37L211.47,118.56L211.59,108.19L211.82,79.09L212.3,105.41L212.42,105.53L212.65,109.98L212.77,119.54L212.89,127.11L213.01,116.43L213.6,125.02L213.72,123.28L214.2,124.67L214.32,122.53L214.44,115.5L214.55,79.37L215.15,123.46L215.27,118.43L215.74,132.01L216.1,122.99L216.22,127.04L216.45,128.22L216.57,123.68L216.69,125.74L216.81,122.49L217.17,123.37L217.29,103.76L217.88,60.42L218.12,74.2L218.23,64.97L219.07,114.91L219.3,114.47L219.42,117.72L220.13,105.11L220.25,70.83L220.49,73.37L220.61,67.26L220.85,69.67L220.97,82.13L222.39,118.01L222.51,116.25L222.98,100.85L223.1,62.19L223.58,77.53L223.7,85.94L223.82,80.24L224.05,97.89L224.17,105.23L224.29,119.49L225,119.12L225.12,118.27L225.36,117.99L225.48,114.96L225.6,113.81L225.72,114.07L225.83,94.78L225.95,52.18L226.55,69.94L226.67,91.33L227.5,124.53L227.62,121.83L228.56,110.98L228.68,91.12L228.8,58.74L229.4,80.78L229.51,95.67L230.23,120.85L230.35,120.44L230.46,122.43L230.7,124.02L231.41,117.25L231.53,97.92L231.65,62.73L232.13,99.85L232.25,109.38L232.84,129.12L233.31,126.91L233.43,123.08L233.67,118.96L233.91,124.37L234.03,123.75L234.15,123.96L234.26,122.02L234.38,103.97L234.62,77.56L234.98,105.65L235.1,115.52L235.21,114.62L235.33,121.23L236.28,130.65L236.4,130.3L236.64,130.8L237.11,127.64L237.23,112.24L237.94,79.65L238.06,88.08L238.18,93.35L238.3,91.7L238.42,102.05L239.49,119.75L239.61,120.39L239.84,117.69L239.96,116.69L240.32,62.56L240.79,83.16L240.91,82.88L242.1,117.37L242.22,117.21L242.34,114.76L242.81,115.87L242.93,99.94L243.29,57.23L243.76,73.96L243.88,76.35L244.95,113.85L245.07,112.89L245.19,112.61L245.31,114.07L245.66,112.71L245.78,98.88L245.9,68.3L246.49,86.56L246.61,79.83L247.44,117.53L247.68,116.73L247.8,118.62L247.92,118.77L248.04,117.52L248.51,112.41L248.63,92.31L248.75,63.09L249.34,87.17L249.46,103.09L249.94,125.86L250.53,122.91L250.65,119.95L251.01,116.83L251.12,115.57L251.36,112.24L251.48,97.85L251.6,66.24L252.19,102.61L252.31,104.67L252.79,128.69L253.26,125.91L253.38,127.09L253.62,119.85L254.21,119.94L254.33,102.03L254.45,77.73L255.04,108.46L255.16,119.57L255.28,115.51L255.4,125.16L255.52,124.71L255.64,129.78L256.47,123.93L256.59,125.82L257.18,102.87L257.3,76.28L258.49,130.64L258.72,126.77L258.84,125.27L259.08,129.73L259.55,126.91L259.67,125.89L259.79,124.84L259.91,125.89L260.03,110.61L260.15,74.07L260.74,103.88L260.86,122.08L260.98,121.89L261.1,119.96L261.34,134.15L261.93,132.93L262.05,130.77L262.29,131.68L262.52,130.55L262.64,131.21L262.76,131.66L263.12,94.71L263.59,111.67L263.71,118.91L264.3,136.56L264.9,135.1L265.02,135.93L265.61,132.65L265.73,117.63L265.85,80.45L266.44,117.66L266.56,117.5L266.92,139.26L267.39,128.56L267.51,133.06L267.98,131.31L268.1,131.61L268.22,129.02L268.34,130.74L268.46,129.54L268.58,114.11L268.82,71.59L269.41,86.54L269.53,106.22L270.6,131.09L270.72,127.62L271.31,124.82L271.43,116.44L271.55,76.16L272.14,107.58L272.26,113.59L272.85,134.83L273.45,134.31L273.57,134.11L273.68,134.34L273.8,132.52L274.16,129.49L274.28,117.04L274.4,76.03L274.99,119.2L275.11,115.83L275.23,116.74L275.35,124.33L276.18,136.74L276.3,136.4L276.42,136.47L277.13,124.11L277.25,100.85L277.6,77.47L277.96,90.73L278.08,92.71L278.2,92.29L278.31,107.6L279.03,127.13L279.26,127.11L279.38,127.67L279.74,125.46L279.86,128.13L279.98,111.24L280.21,81.38L280.69,108.32L280.81,113.57L281.76,134L281.88,132.43L282.11,132.84L282.23,130.6L282.47,132.55L282.59,133.22L282.71,131.54L282.83,112L282.95,84.3L283.54,97.53L283.66,95.8L284.73,130.32L284.85,129L285.08,130.44L285.32,128.22L285.56,129.02L285.68,116.27L286.15,82.78L286.51,93.03L286.63,104.55L286.75,104.75L286.86,113.86L287.34,125.61L287.81,123.88L287.93,122.63L288.05,123.35L288.29,122.89L288.41,120.89L288.76,64.58L289.24,71.72L289.36,79.37L290.43,125.15L290.66,124.19L290.78,123.92L291.26,124.06L291.38,107.78L291.49,70.71L291.61,72.05L291.73,84.43L293.04,127.07L293.16,125.11L293.28,124.28L293.51,126.78L293.99,123.92L294.11,124.28L294.46,74.1L294.82,95.99L294.94,104.54L295.06,99.82L295.41,112.76L295.53,116.68L296.72,128.15L296.84,125.94L296.96,126.13L297.08,110.7L297.19,85.27L297.79,98.06L297.91,99.82L299.09,132.32L299.21,130.7L299.81,127.17L299.92,101.82L300.04,67.03L300.52,100.43L300.64,110.75L300.76,105.86L300.87,121.78L300.99,117.35L301.11,128.29L301.35,141.98L301.47,113.33L301.82,131.33L301.94,128.47L302.06,129.46L302.3,125.82L302.42,123.24L302.54,123.11L302.66,120.32L302.89,78.23L303.25,103.81L303.37,110.66L304.08,140.01L304.2,134.58L304.32,128.69L304.79,132.96L305.03,131.88L305.15,128.97L305.27,130.87L305.51,127.5L305.62,109.38L305.74,77.41L306.34,115.43L306.46,120.41L306.57,113.36L306.81,136.05L306.93,142.87L307.05,143.2L307.17,118.72L307.29,135.06L308,134.26L308.12,135.05L308.47,125.78L308.59,104.24L308.71,95.04L309.07,124.03L309.19,129.21L309.42,125.46L309.54,135.26L309.66,144.66L309.78,145.62L309.9,142.52L310.02,127.29L310.37,137.76L310.85,134.49L310.97,135.09L311.09,132.91L311.2,134.81L311.32,117.61L311.44,92.29L311.92,124.86L312.04,130.3L312.15,123.99L312.51,144.4L312.63,147.17L312.87,133.74L313.46,134.04L313.58,135.4L314.05,133.24L314.17,121.74L314.29,78.78L314.89,131.61L315,127.05L315.12,128.19L315.24,138.83L315.48,146.18L315.72,127.15L315.95,137.68L316.07,138.33L317.02,119.87L317.14,93.14L318.33,145.79L318.45,141.82L318.57,131L319.16,138.41L319.28,139.36L319.75,136.04L319.87,124.65L320.11,103.7L320.58,126.64L320.7,130.74L320.82,126.49L321.06,143.38L321.18,146.97L321.42,127.88L321.77,139.41L321.89,138.95L322.13,139.95L322.6,136.8L322.72,130.12L322.96,115.72L323.32,134.44L323.43,122.22L323.55,124.19L324.03,147.86L324.38,136.6L324.5,134.31L324.74,138.46L325.22,136.32L325.33,136.47L325.57,126.69L325.69,104.18L326.76,147.12L326.88,142.06L327,144.11L327.35,136.4L327.83,140.25L327.95,142.45L328.42,127.81L328.54,123.17L328.66,122.95L328.78,126.37L329.37,123.25L329.73,134.69L329.85,135.1L330.56,140.86L330.8,138.83L330.91,137.09L331.03,137.54L331.15,136.48L331.27,129.18L331.39,99.22L331.98,114.85L332.1,112.64L332.58,141.75L333.17,139.16L333.29,139.71L333.53,139.86L333.88,138.03L334,136.52L334.24,93.88L334.71,105.62L334.83,116.48L334.95,115.07L335.19,118.36L335.31,127.94L336.02,136.85L336.14,136.66L336.26,136.95L336.5,137.87L336.61,135.96L336.85,136.81L336.97,122.27L337.56,98.22L337.68,105.82L337.8,110.83L337.92,103.27L338.28,126.77L338.39,120.29L338.51,127.04L339.11,133.08L339.34,131.44L339.46,132.2L339.7,131.09L339.82,117.25L340.41,92.72L340.65,98.24L340.77,97.44L342.08,132.54L342.19,132.11L342.31,131.64L342.55,132.52L342.67,116.55L342.79,80.48L343.38,115.25L343.5,116L344.09,143.42L344.21,116.18L344.81,132L345.04,130.58L345.16,132.52L345.64,98.44L345.99,110.86L346.11,118.17L346.82,146.01L347.3,136.68L347.42,137.07L348.37,123.57L348.49,103.26L348.72,92.72L349.08,105.56L349.2,108.05L349.32,102.85L349.44,109.11L349.56,125.94L350.39,134.18L350.74,134.04L350.86,133.31L351.1,130.74L351.22,120.73L351.34,91.06L351.93,109.3L352.05,114.35L352.17,107.86L352.52,126.1L352.64,127.75L353.12,133.07L353.36,131.2L353.47,130.13L353.59,130.76L353.71,129.05L353.83,127.92L353.95,129.71L354.07,113.84L354.19,88.03L354.78,91.14L354.9,99.24L355.14,78.18L355.26,100.86L355.37,110.59L356.21,122.14L356.56,121.25L356.68,119.56L356.8,121.71L356.92,108.1L357.15,74.17L357.75,74.79L357.87,81.16L358.7,124.08L359.05,123.28L359.17,122.15L359.53,122.77L359.77,103.21L359.89,80.01L361.67,129.75L361.79,128.93L361.9,127.51L362.14,129L362.26,126.88L362.38,127.55L362.5,126.95L362.62,114.49L362.85,98.32L363.33,116.29L363.45,131.48L363.69,137.83L363.8,118.15L364.64,135.27L364.75,135.14L364.87,135.6L364.99,134.01L365.23,134.53L365.35,132.33L365.7,97.2L366.06,104.62L366.18,113.48L366.42,116.05L366.53,119.57L366.77,145.63L366.89,119.06L367.13,131.05L367.25,132.86L367.48,131.36L367.96,134.44L368.08,131.45L368.32,125.15L368.43,100.29L368.55,92.21L368.91,113.72L369.03,113.41L369.38,122.77L369.5,129.16L369.62,143.15L369.86,124.64L370.22,134.89L370.33,134.85L370.45,135.2L370.57,134.53L370.69,133.4L370.93,134.3L371.05,132.79L371.17,122.32L371.4,110.5L371.76,123.7L371.88,123.08L372,124.4L372.23,115.28L372.59,129.07L372.71,131.94L372.83,131.03L373.07,134.31L373.18,132.9L373.3,133.85L373.42,134.44L373.54,133.18L373.66,133.23L373.78,132.03L373.9,130.91L374.02,122.01L374.25,89.18L374.85,97.74L374.97,96.94L376.03,131.63L376.39,130.14L376.51,128.5L376.63,129.91L376.75,127.48L376.86,113.08L376.98,87.84L377.58,93.04L377.7,100.39L379,134.03L379.12,133.34L379.24,131.25L379.36,132.49L379.6,130.47L379.71,115.04L379.83,82.22L380.43,105.71L380.55,103.66L380.66,101.94L380.78,108.65L380.9,118.5L381.26,130L381.73,129.63L381.85,129.92L382.45,126.01L382.56,113.93L382.92,79.71L383.28,87.93L383.4,90.76L384.58,125.04L384.7,124.03L384.82,123.61L385.18,123.8L385.3,125.3L385.65,82.19L386.13,92.36L386.25,92.25L387.31,130.32L387.43,129.74L387.55,130.18L387.79,127.32L388.14,128.2L388.26,117.61L388.5,91.01L388.98,114.99L389.09,115.71L389.57,145.37L390.04,133.4L390.16,134.54L390.4,134.01L390.52,134.76L390.64,130.87L390.76,133.21L390.99,129.3L391.11,115.34L391.23,104.04L391.47,128.07L391.71,124.79L391.83,134.99L392.42,147.5L392.66,143.99L392.78,122.16L392.89,139.01L393.61,136.36L393.73,135.88L394.08,109.46L394.2,122.29L394.32,129.86L395.27,146.42L395.51,140.69L395.63,129.51L395.74,142.47L396.34,140.09L396.46,138.53L396.81,130.34L396.93,102.61L398.36,134.84L398.47,133.17L398.59,135.32L398.95,136.84L399.31,135.74L399.42,135.26L399.54,136.61L399.66,124.22L400.14,108.65L400.49,111.99L400.61,111.45L401.32,137.72L401.56,137.5L401.68,136.38L402.04,138.68L402.16,134.96L402.27,134.13L402.39,133.21L402.51,124.5L402.63,102.19L403.22,110.91L403.34,113.71L403.46,114.22L403.58,118.51L404.41,133.91L404.53,133.37L404.65,133.67L404.77,134.44L404.89,131.45L405.01,132.51L405.12,130.94L405.48,101.85L405.84,114.43L405.96,112.76L406.67,146.28L406.9,127.31L407.02,130.6L407.74,136.28L407.85,133.87L407.97,133.41L408.21,120.8L408.33,94.55L409.52,148.68L409.75,142.44L409.87,134.95L409.99,139.73L410.7,139L410.82,135.69L410.94,135.24L411.06,125.8L411.18,109.25L411.65,137.91L411.77,135.68L411.89,133.17L412.01,139.64L412.13,138.33L412.25,143.6L412.37,148.54L412.49,125.45L412.84,138.29L412.96,139.3L413.2,139.21L413.32,138.36L413.44,139.31L413.55,136.14L413.79,138.21L413.91,132.18L414.03,113.4L414.62,137.95L414.74,128.9L415.45,146.68L415.69,139.92L415.81,140.63L416.64,138.43L416.76,129.81L417,116.8L417.35,131.87L417.47,117.08L417.59,125.6L418.54,139.9L418.66,140.33L418.9,139.57L419.13,141.09L419.25,139L419.37,140.51L419.49,139.64L419.61,128.65L419.85,112.95L420.44,118.82L420.56,116.93L421.51,138.37L421.63,135.67L421.75,139.58L422.34,134.99L422.46,125.13L422.7,95.94L423.29,103.61L423.41,109.85L424.24,133.92L424.36,133.06L424.48,134.6L424.72,135.82L424.83,132.77L425.19,133.92L425.31,121.56L425.43,99.69L426.02,118.89L426.14,111.71L426.38,123.11L426.5,132.38L426.73,142.94L426.85,123.35L427.21,134.07L427.33,134.12L427.56,134.38L428.16,122.97L428.28,105.72L429.46,148.51L429.58,131.37L429.7,130.32L430.41,138.67L430.53,135.72L430.65,136.53L430.77,137.13L430.89,134.42L431.01,125.88L431.13,114.63L431.6,130.76L431.72,137.96L431.84,138.38L431.96,135.02L432.31,146.84L432.67,146.03L432.79,127.84L433.5,140.21L433.62,139.21L433.74,138.38L433.98,121.64L434.45,135.27L434.57,145.28L434.81,139.68L435.05,143.47L435.16,147.52L435.52,148.51L435.76,133.29L435.99,140.98L436.11,140.68L436.35,140.74L436.59,136.93L436.71,134.06L436.83,127.34L437.42,134.5L437.54,135.43L437.66,135.6L437.78,143.6L437.89,143.06L438.01,146.86L438.49,148.07L438.61,138.35L439.08,140.58L439.2,139.72L439.32,140.11L439.44,139.81L439.56,132.27L439.68,122.65L439.91,138.19L440.27,133.22L440.39,135.53L440.51,131.9L440.63,145.44L440.74,142.72L440.86,149.57L441.1,143.77L441.34,149.86L441.58,148.56L441.69,147.97L441.81,148.86L442.29,146.86L442.41,139.63L442.88,130.35L443.24,133.5L443.36,137.78L444.19,149.52L444.31,144.99L444.78,149.86L445.14,147.95L445.26,143.8L445.49,130.33L446.09,134.12L446.21,135.95L447.16,148.5L447.27,147.4L447.39,149.02L447.99,147.7L448.11,143.2L448.34,126.13L448.82,138.27L448.94,134.27L449.06,132.02L449.17,140.97L449.29,146.92L449.41,147.3L449.53,144.06L449.89,150.27L450.24,149.5L450.36,147.09L450.48,150.1L450.84,147L450.96,143.28L451.07,129.8L451.67,144.63L451.79,138.03L451.91,135.67L452.14,144.6L452.26,147.5L452.38,145.53L452.86,148.86L452.97,147.32L453.09,149.12L453.33,150.59L453.92,127.06L454.04,132.78L454.16,141.41L454.52,142.01L454.76,131.29L454.87,141.14L455.7,150.18L455.94,149.85L456.06,146.01L456.77,129.13L456.89,129.3L457.01,139.45L457.25,134.09L457.37,142.75L457.49,137.84L457.6,136.8L458.08,146.19L458.44,145.44L458.55,141.91L458.67,140.74L458.79,148.98L459.27,149.08L459.39,144.56L459.5,146.6L459.62,131.57L460.22,143.28L460.45,137.94L460.57,140.33L461.4,149.94L461.52,146.94L461.88,150.97L462.24,149.62L462.35,142.87L463.19,131.9L463.3,136.35L464.14,149.09L464.25,146.45L464.49,149.88L464.61,146.41L464.97,148.87L465.09,147.47L465.32,126.96L465.92,134.57L466.03,138.49L466.15,137.88L466.27,141.45L467.1,148.46L467.58,148.22L467.7,146.66L467.93,147.18L468.05,142.11L468.29,135.82L468.41,137.69L468.53,142.26L469,138.3L469.12,142.39L469.24,145.22L469.48,144.99L469.95,150.59L470.07,148.26L470.19,147.14L470.31,151.22L470.78,149.37L470.9,142.65L471.02,136.09L471.62,138.82L471.73,138.51L471.85,134.35L471.97,147.75L472.33,143.63L472.45,148.52L472.68,146.94L472.92,149.74L473.04,147L473.16,149.49L473.63,147.46L473.75,144.82L473.87,132.47L474.47,145.23L474.58,140.45L474.7,140L474.82,143.37L475.53,149.06L475.65,147.56L475.77,149.09L475.89,149.97L476.01,148.09L476.36,148.72L476.48,147.59L476.72,128.28L477.2,136.2L477.31,140.67L477.55,138.07L477.67,143.16L477.79,146.33L478.03,144.36L478.62,149.69L478.74,147.43L478.98,149.67L479.33,147.54L479.45,140.37L479.81,141.42L480.05,134.68L480.16,142.27L480.4,136.98L480.64,145.86L480.76,147.04L480.88,146.62L481.11,147.26L481.23,148.76L481.59,147.83L481.83,150.92L481.95,147.71L482.18,149.87L482.3,140.78L482.54,134.96L483.13,137.66L483.25,140.35L483.85,150.35L484.2,147.36L484.32,147.77L484.56,150.87L484.68,147.55L484.91,150.01L485.03,148.16L485.27,134.33L485.74,137.9L485.86,144.15L485.98,137.6L486.34,148.46L486.46,145.72L486.58,146.99L486.69,146.41L486.93,147.79L487.05,147.31L487.17,149.29L487.53,149.95L487.64,147.44L487.76,150.26L488.59,135.46L488.71,143.08L488.83,136.11L489.31,150.01L489.43,144.26L489.54,148.12L489.78,150.47L489.9,146.77L490.02,150.06L491.09,136.58L491.44,139.73L491.56,145.31L491.68,138.46L492.16,146.96L492.28,147.93L492.39,144.71L492.87,151.64L492.99,145.02L493.11,149.37L493.23,149.74L493.34,147.05L493.46,150.13L493.7,141.51L493.82,135.5L493.94,129.56L494.41,143.33L494.53,139.29L494.65,136.74L494.77,143.17L494.89,149.81L495.24,144.85L495.6,146.93L495.72,149.13L496.67,132.69L496.79,132.24L497.74,148.36L497.86,148.12L497.97,144.72L498.81,150.65L498.92,147.04L499.04,149.97L499.4,142.59L499.52,136.75L499.76,140.03L499.87,133.79L499.99,134.53L500.11,134.06L500.23,133.79L500.35,140.2L501.3,149L501.42,148.51L501.77,150.3L501.89,147.98L502.13,149.59L502.25,146.92L502.49,130.38L503.08,132.93L503.2,138.31L504.03,149.9L504.15,147.86L504.27,150.12L504.98,149.81L505.1,142.71L505.34,133.35L505.93,137.62L506.05,141.85L507,150.07L507.12,150.75L507.47,151.28L508.07,134.92L508.19,136.05L508.3,142.27L508.66,143.97L508.9,138.2L509.02,146.5L509.14,150.73L509.25,145.35L509.85,150.13L509.97,149.62L510.56,150.9L510.8,145.85L510.92,133.86L511.51,146.43L511.75,143.57L511.87,143.88L512.58,150.93L512.7,148.2L512.82,150.5L513.05,150.7L513.77,135.53L513.89,140.3L514,146.28L514.24,139.33L514.36,146.81L514.72,146.61L514.84,146L515.43,150.32L515.67,149.84L515.78,147.67L515.9,151.52L516.26,147.37L516.38,149.5L516.5,142.73L516.62,138.05L517.21,140.85L517.33,141.46L517.45,136.84L517.8,150.84L517.92,144.26L518.04,150.11L518.16,147.01L518.52,150.75L518.75,148.59L518.87,151.9L519.47,136.82L519.82,141.79L519.94,142.06L520.18,145.67L520.3,137.69L520.42,145.29L520.53,149.53L520.65,149.93L520.77,146.07L521.6,151.78L521.72,147.35L521.84,151.43L522.2,144.84L522.32,133.65L523.5,146.99L523.62,145.17L524.22,150.75L524.57,149.61L524.69,147.73L524.81,149.7L525.05,141.89L525.16,130.9L525.76,145.78L526.11,144.46L526.23,150.29L526.59,145.1L526.95,147.61L527.06,151.28L528.01,131.74L528.13,141.59L528.25,143.34L528.37,137.82L528.49,139.64L528.61,136.89L529.56,148.86L529.68,147.54L530.27,151.05L530.39,147.2L530.51,149.19L530.63,149.56L530.86,130.13L530.98,137.49L531.1,144.05L531.58,138.92L531.81,144.72L531.93,147.14L532.05,150.64L532.17,143.68L532.65,150L532.76,149.1L533.12,151.27L533.71,136.46L533.83,140.23L533.95,147.32L534.07,138.37L534.66,144.65L534.78,147.35L535.14,144.31L535.26,151.56L535.49,147.65L535.61,148.99L535.73,150.68L535.85,147.56L536.21,149.17L536.33,148.48L536.68,129.42L537.04,136.22L537.16,142.17L537.28,138.51L537.63,148.02L537.75,147.81L538.11,134.9L538.23,143.34L538.34,144.6L539.18,141.89L539.29,137.07L539.41,121.68L540.01,138.98L540.13,135.18L540.24,135.42L540.36,146.61L540.48,148.02L540.72,145.74L540.84,147.61L540.96,134.9L541.19,144.6L541.79,143.48L541.91,143.7L542.14,137.07L542.26,121.68L543.45,149.11L543.81,146.24L543.93,140.53L544.28,145.26L544.76,144.41L544.87,144.25L545.23,125.66L545.71,135.77L545.82,140.65L545.94,137.53L546.18,146.45L546.3,147.81L546.42,135.93L547.01,141.77L547.13,144.21L547.72,146.02L547.84,137.57L547.96,128L548.32,138.13L548.44,135.82L548.56,141.09L548.67,137.57L548.91,139.33L549.03,150.67L549.15,141.39L549.74,145.79L549.86,145.2L549.98,146.56L550.22,143.75L550.46,146.01L550.57,144.16L550.93,128.99L551.52,129.69L551.64,133.77L552.47,144.39L552.59,142.84L552.71,144.51L552.95,143.25L553.07,146.43L553.42,144.2L553.54,138.48L553.66,126.78L554.26,138.86L554.37,135.15L554.73,148.32L555.09,147.74L555.2,139.9L555.68,146.45L555.92,144.13L556.04,144.66L556.15,145.26L556.27,143.7L556.39,138.05L556.51,126.41L557.1,131.91L557.22,136.27L557.58,149.87L558.17,147.73L558.29,142.11L558.53,146.39L559.12,144.42L559.24,137.68L559.36,126.84L559.6,139.44L559.95,134.62L560.07,135.05L560.79,149.03L561.02,145.75L561.14,143.24L561.26,146.59L561.5,143.14L561.85,144.7L561.97,144.17L562.21,128.08L562.69,135.94L562.8,138.52L562.92,134.43L563.28,145.14L563.4,149.05L563.87,149.27L563.99,139.83L564.11,143.72L564.23,146.26L564.35,146.5L564.47,146.28L564.58,145.24L564.82,144.75L564.94,141.65L565.06,129.85L565.65,141.55L565.77,136.5L566.72,150.62L566.84,146.09L567.08,143.06L567.2,147.49L567.55,146.14L567.67,147.69L567.91,136.48L568.5,138.97L568.62,135.66L569.57,149.94L569.81,149.2L569.93,147.85L570.17,150.5L570.28,146.43L570.4,149.83L570.64,142.82L570.76,134.36L571.83,147.02L571.95,149.01L572.18,144.57L572.66,149.69L572.78,147.1L572.9,148.67L573.02,150.12L573.37,147.95L573.49,144.22L573.61,134.8L573.85,146.9L574.08,138.04L574.2,147.78L574.44,139.89L574.68,150.13L574.91,143.76L575.03,149.91L575.15,146.38L575.75,150.61L575.86,146.56L575.98,151.12L576.46,135.67L576.93,138.22L577.05,140.28L577.17,139.23L577.29,142.64L577.41,142.34L577.53,147.4L577.88,144.96L578,148.38L578.24,146.37L578.36,147.53L578.48,149.55L578.6,146.26L579.07,147.86L579.19,143.53L579.31,134.09L579.9,135.22L580.02,138.73L580.14,136.78L580.26,146.28L580.38,144.68L580.5,148.2L580.61,145.43L580.97,149.57L581.09,149.11L581.21,149.28L581.56,151.35L581.68,147.39L581.8,147.98L581.92,149.95L582.16,131.18L582.63,137.95L582.75,139.27L582.87,135.17L583.11,146.31L583.23,149.66L583.58,146.67L583.94,150.03L584.06,147.89L584.18,149.59L584.41,150.27L584.89,143.81L585.01,131.42L585.13,131.28L585.24,139.79L585.36,135.45L585.84,139.49L585.96,147.71L586.08,145.02L586.19,148.62L586.55,147.98L586.67,149.77L586.91,148.47L587.38,149.21L587.5,149.08L587.62,149.2L587.74,142.82L587.86,136.16L588.57,137.92L588.69,142.52L589.64,150.17L589.76,148.97L589.88,149.07L589.99,150.57L590.71,137.56L590.83,137.57L590.94,145.95L591.18,140.95L591.66,146.23L591.78,150.31L592.01,146.06L592.49,150.49L592.61,149.67L592.84,152L593.68,132.9L593.79,141.68L593.91,136.1L594.15,146.51L594.39,142.79L594.51,146.1L594.86,145.62L595.22,149.56L595.46,149.22L595.57,147.72L595.81,150.69L596.17,149.02L596.29,142.4L596.41,134.07L597,144.5L597.12,138.76L597.36,139.68L597.47,146.7L597.59,149.32L597.71,143.93L598.19,149.07L598.31,148.62L598.42,147.79L598.66,149.69L598.9,148.01L599.02,149.22L599.37,136.45L599.73,139.26L599.85,148.69L599.97,138.56L600.56,146.72L600.68,148.02L600.8,143.86L601.16,149.77L601.39,149.18L601.51,149.29L601.87,148.14L601.99,143.57L602.34,149.6L602.46,133.24L602.82,137.29L602.94,140.33L603.77,148.96L603.89,146.48L604.12,149.72L604.6,148.22L604.72,147.89L604.95,130.8L605.43,142.23L605.55,142.9L605.67,137.96L606.14,149.16L606.26,146.56L606.38,146.1L606.5,148.64L606.74,140.86L607.09,145.44L607.21,145.32L607.57,145.36L607.69,141.25L607.8,136.08L608.28,142.34L608.4,149.7L608.52,137.56L609.11,144.52L609.23,146.05L609.59,147.66L609.7,143.88L609.94,146.57L610.06,145.04L610.42,145.2L610.54,141.44L610.65,129.38L611.13,146.62L611.37,129.86L611.49,127.92L612.44,146.86L612.55,144.62L612.67,147.29L613.27,145.28L613.39,141.83L613.5,131.71L613.98,142.6L614.1,147.22L614.22,140.27L614.69,148.13L614.81,146.47L614.93,145.19L615.05,148.15L615.17,143.73L615.64,145.47L615.76,146.04L615.88,146.17L616,145.47L616.12,145.3L616.35,134L616.71,139.51L616.83,145.52L617.18,137.83L617.3,145.57L617.78,145.4L617.9,149.63L618.13,148L618.25,150.31L618.49,150.36L619.2,136.82L619.32,138.45L619.44,139.24L619.56,133.14L620.39,148.86L620.51,147.33L620.63,144.73L620.75,150.27L621.46,148.92L621.58,148.86L621.7,148.97L621.82,147.64L622.05,136.18L622.53,139.27L622.65,145.43L622.77,139.65L623.12,148.24L623.36,145.28L623.48,148.07L623.72,146.9L623.95,150.68L624.31,150.46L624.43,148.94L624.66,149.34L624.78,142.47L624.9,130.02L625.5,146.35L625.73,137.83L625.85,143.24L626.56,151.1L626.68,147.42L627.16,151.12L627.28,147.07L627.51,150.36L627.63,142.02L627.75,135.49L627.99,143.55L628.23,143.19L628.35,147.89L628.58,139.1L629.06,146.93L629.18,144.2L629.53,151.29L630.01,149.12L630.13,147.81L630.25,149.56L630.48,145.72L630.6,133.7L631.55,144.53L631.67,143.41L632.38,149.16L632.5,149.02L632.62,147.65L632.74,150.12L632.98,147.48L633.21,149.87L633.33,143.25L633.45,135.2L633.93,144.16L634.04,142.18L634.16,140.47L635.11,146.97L635.23,147.94L635.59,145.5L635.83,150.04L635.94,145.94L636.06,147.1L636.3,135.65L636.78,141.69L636.89,145.88L637.13,136.69L637.61,143.9L637.73,144.22L638.08,145.6L638.2,147.36L638.44,145.43L638.68,150.07L638.79,144.55L638.91,147.25L639.03,143.01L639.15,135.35L639.74,145.75L639.86,138.31L639.98,135.79L640.1,143.98L640.34,143.34L640.46,143.52L640.58,143.09L640.69,128.22L641.41,143.08L641.53,142.69L641.64,143.09L641.76,142.93L641.88,138.73L642,128.71L642.59,137.15L642.71,132.8L643.31,144.64L643.43,142.64L643.54,137.32L644.37,142.35L644.49,141.12L644.61,140.79L644.73,136.1L644.85,124.4L645.32,138.06L645.44,148.68L645.8,133.29L646.16,143.33L646.27,146.87L646.39,136.01L646.99,145.87L647.11,143.83L647.34,143.6L647.46,144.04L647.58,138.83L647.7,129.97L648.29,141.76L648.41,137.32L648.89,148.2L649.12,140.93L649.24,136.6L650.07,144.08L650.19,143.42L650.31,137.18L650.55,121.86L650.91,134.26L651.02,137.94L651.14,133.26L651.5,138.1L651.62,144.91L651.86,145.46L651.97,144.98L652.09,148.31L652.21,148.22L652.33,142.15L652.57,146.02L653.16,145.42L653.28,139.62L653.4,130.74L653.64,141.93L653.99,140.62L654.11,139.09L654.59,145.75L654.94,143.34L655.06,147.02L655.42,148.52L655.54,143.81L655.77,147.36L655.89,147.1L656.25,136.18L656.6,138.74L656.72,143.39L657.08,139.37L657.55,146.35L657.67,145.1L658.5,149.96L658.62,148.99L658.98,146.59L659.1,130.31L659.69,148.36L659.93,139.25L660.05,140.06L661.12,150.36L661.24,146.49L661.35,149.69L661.71,147.24L661.83,139.91L662.19,123.92L662.66,130.85L662.78,132.55L663.14,149.27L663.61,143.13L663.73,143.99L664.32,143.22L664.56,143.38L664.68,137.21L664.8,125.19L665.03,137.86L665.27,136.66L665.39,142.73L665.51,137.16L665.98,148.31L666.1,145.09L666.34,139.08L666.82,144L666.93,143.81L667.17,144.5L667.41,142.91L667.53,138.82L667.65,124.87L668.12,141.02L668.24,144.34L668.36,136.63L668.72,148.59L668.95,142.07L669.07,144.35L669.31,148.9L669.43,140.22L669.78,145.02L669.9,144.53L670.02,144.78L670.26,143.7L670.38,139.67L670.5,129.21L670.97,140.09L671.09,149.15L671.21,137.11L671.8,145.44L671.92,145.69L672.04,149.94L672.16,143.02L672.63,145.49L672.75,145.78L672.99,145.25L673.11,145.36L673.23,141.52L673.35,132.06L673.82,143.22L673.94,148.63L674.06,137.58L674.65,143.55L674.77,147.13L675.01,148.69L675.13,147.73L675.25,143.46L675.72,145.35L675.96,144.2L676.08,138.2L676.2,131.09L676.67,143.38L676.79,142.74L677.03,138.35L677.26,146.73L677.38,144.77L677.5,144.15L677.86,150.73L678.1,140.94L678.33,147.6L678.45,145.45L678.69,146.8L678.81,145.39L678.93,141.17L679.16,132.02L679.64,137.21L679.76,140.51L679.88,135.1L680.35,147.49L680.47,145.62L681.3,150.09L681.42,149.62L681.54,146.39L681.9,130.41L682.13,140.12L682.25,140.99L682.49,139.33L682.61,135.57L683.79,150.68L683.91,146.49L684.15,150.52L684.51,149.18L684.63,142.7L684.74,135.5L685.1,151.34L685.34,138.37L685.46,139.7L686.29,150.89L686.41,148.52L686.53,147.83L686.76,146.39L687.12,151.06L687.24,147.59L687.36,149.19L687.59,135.92L688.07,138.46L688.19,148.09L688.43,141.56L688.9,145.23L689.02,145.99L689.85,150.24L689.97,147.52L690.21,148.75L690.33,140.81L690.44,127.76L690.92,145.4L691.04,146.41L691.16,141.12L691.63,150.01L691.75,143.15L691.87,146.31L692.58,151.48L692.7,146.48L692.94,150.49L693.06,147.8L693.18,138.49L693.29,127.14L693.89,137.01L694.01,136.18L694.12,130.32L694.6,143.49L694.72,142.95L695.67,148.82L695.79,144.24L695.91,144.43L696.02,141.4L696.14,136.36L696.74,141.73L696.86,140.71L696.97,141.02L697.09,140.33L697.21,138.46L697.45,146.76L698.04,145.26L698.16,147.55L698.28,146.59L698.4,147.15L698.52,139.25L698.64,136.81L698.76,143.99L698.87,138.97L698.99,115.25L699.59,138.89L699.94,135.77L700.06,137.58L700.3,145.34L700.89,142.63L701.01,142.45L701.13,143.13L701.37,141.29L701.49,140.52L701.61,142.3L701.72,136.85L701.84,124.35L702.32,137.41L702.44,136.99L702.56,122.81L703.03,148.51L703.5,143.17L703.62,144.75L704.45,143.25L704.57,137.98L704.69,119.19L705.29,133.97L705.4,128.32L705.88,142.86L706.35,141.61L706.47,142.34L706.59,141.92L706.83,143.08L706.95,142.58L707.07,143.1L707.3,142.84L707.42,137.51L707.9,116.16L708.14,133.74L708.25,128.13L708.37,127.96L708.49,131.27L709.32,142.81L709.44,143.21L710.15,141.11L710.27,129.2L710.39,107.98L710.99,118.28L711.1,119.76L711.34,125.65L711.46,134.37L712.05,141.8L712.41,141.03L712.53,140.88L713.12,135.32L713.24,104.42L713.48,129.59L714.07,127.27L714.19,121.79L715.14,139.46L715.26,139.43L715.38,139.8L715.5,139.49L715.62,137.91L715.73,139.38L715.85,138.75L715.97,130.76L716.09,106.09L716.68,113.43L716.8,117.66L716.92,111.97L717.16,130.26L717.28,135.75L717.52,133.4L717.63,135.73L717.87,137.32L717.99,135.6L718.23,135.65L718.35,135.11L718.47,134.85L718.58,135.27L718.7,133.1L718.94,92.61L719.42,114.6L719.53,122.64L720.01,135.34L720.13,142.72L720.25,143.99L720.37,131.63L720.96,138.11L721.2,136.23L721.32,137.46L721.67,125.1L721.79,103.6L722.98,143.23L723.1,143.51L723.21,133.22L723.81,139.26L723.93,140.58L724.05,141.92L724.4,139.34L724.52,132.97L724.64,111.65L725.23,126.53L725.35,131.36L725.83,148.92L726.18,138.52L726.3,139.26L726.66,142.04L727.13,141.29L727.25,140.73L727.49,105.72L727.85,123.81L727.96,126.26L728.68,147.35L728.8,142.96L728.91,137.41L729.03,137.18L729.15,141.66L730.1,138.82L730.22,134.83L730.34,110.35L730.93,142.56L731.05,136.31L731.53,148.61L731.65,143.49L731.76,135.17L732,143.52L732.6,143.45L732.71,142.82L733.07,137.52L733.19,118L734.38,148.19L734.61,146.35L734.73,140.94L734.97,143.64L735.56,142.63L735.68,143.24L735.92,137.7L736.04,122.87L736.16,119.64L736.28,135.63L736.51,128.22L736.63,138.97L736.75,129.92L737.23,146.49L737.34,143.85L737.46,147.1L737.58,138.28L738.06,144.77L738.18,145.23L738.77,139.31L738.89,121.77L739.84,142.95L739.96,139.88L740.08,138.12L741.03,144.6L741.14,141.51L741.38,143.87L741.5,142.14L741.62,134.43L741.74,103.44L742.33,113.22L742.45,116.71L742.92,140.86L743.4,138.14L743.52,138.28L744.23,133.39L744.35,134.55L744.47,123.84L744.59,87.81L745.18,114.76L745.3,116.22L745.77,139.6L746.37,135.9L746.49,135.38L746.61,136.32L746.84,132.92L746.96,135.35L747.08,133.56L747.2,133.18L747.32,120.02L747.44,84.46L748.03,118.04L748.15,123.28L748.74,121.88L749.1,137.09L749.22,137.02L749.34,136.3L749.93,132.13L750.05,132.35L750.17,116.74L750.29,96.55L750.76,118.52L750.88,125.92L751,125.1L751.12,129.07L751.24,131.11L751.59,145.25L752.07,138.5L752.19,137.65L752.42,135.51L752.78,136.19L752.9,133.36L753.14,91.33L753.49,115.08L753.61,120.73L754.2,140.33L754.56,133.72L754.68,137.64L754.8,137.85L754.92,136.7L755.04,135.48L755.51,137.31L755.75,135.45L755.87,127.31L755.99,106.33L756.58,115.31L756.7,115.07L758,136.95L758.12,136.55L758.6,136.3L758.72,126.3L758.84,107.1L759.43,125.67L759.55,121.02L760.5,139.4L760.62,139.65L761.57,132.57L761.69,111.21L761.92,122.69L762.28,119.86L762.4,112.04L763.58,138.39L763.7,137.47L763.82,138.49L764.06,136.54L764.18,136.82L764.3,135.12L764.53,111.36L764.89,118.47L765.01,124.84L765.13,121.3L765.37,129.67L765.6,128.07L765.72,132.57L765.84,131.54L765.96,133.85L766.08,133.18L766.2,136.81L766.32,136.68L766.43,137.97L766.79,139.05L766.91,137.57L767.03,138.91L767.15,136.23L767.27,133.89L767.38,116.09L768.57,142.67L768.69,130.8L769.4,141.75L769.52,140.79L769.64,140.73L770,139.58L770.12,132.18L770.23,116.34L770.83,122.32L770.95,122.15L771.42,136.45L771.78,134.55L771.9,136.37L772.37,139.29L772.61,138.51L772.73,137.25L772.85,136.68L772.96,128.68L773.08,105.13L773.56,131.97L773.68,129.98L773.8,130.13L774.15,148.96L774.39,142.41L774.51,131.83L774.98,140.89L775.34,139.99L775.46,140.55L775.58,140.37L775.7,138.37L776.29,123.18L776.53,131.2L776.65,131.81L777.6,141.48L777.71,141.08L777.83,138.71L778.07,139.65L778.19,138.56L778.31,137.42L778.43,137.24L778.55,137.78L778.66,129.19L778.78,108.19L779.38,118.03L779.5,123.49L779.97,147.09L780.45,140.25L780.56,140.43L780.92,140.82L781.51,135.39L781.63,111.76L781.75,110.99L781.87,117.63L781.99,110.22L782.46,122.17L782.58,125.98L782.82,136.95L783.41,134.52L783.53,132.13L783.65,134.14L784.13,131.72L784.24,130.55L784.48,93L784.96,105.73L785.08,107.58L785.19,105.57L785.43,114.1L785.55,122.68L786.26,129.14L786.38,128.03L786.5,126.79L786.62,127.86L786.74,123.87L787.09,127.59L787.21,112.09L787.33,83.29L787.93,111.79L788.04,112.75L789.35,134.56L789.47,134.88L789.71,135.4L789.94,133.19L790.06,126.38L790.18,100.35L790.89,104.07L791.01,109.89L791.13,106.18L791.25,116.54L791.37,124.19L791.49,122.95L791.73,127.54L791.84,127.46L792.32,130.38L792.44,126.69L792.56,126.86L792.67,129L792.79,125.38L792.91,117.02L793.15,80.3L793.62,108.31L793.74,107.67L794.69,127.4L794.81,127.73L795.05,129.12L795.64,124.72L795.76,117.54L796.24,84.32L796.59,87.49L796.71,97.78L796.83,95.77L796.95,104.37L797.07,115.14L797.19,111.45L797.54,122.85L797.66,123.16L797.9,122.99L798.02,124.91L798.26,126.08L798.61,116.4L798.73,87.24L798.85,87.4L798.97,102.56L799.09,101.1L799.32,104.37L799.44,108.96L800.27,130.27L800.39,129.77L800.51,131.58L800.87,129.2L801.11,129.43L801.22,131.66L801.46,125.61L801.58,102.47L803.36,131.61L803.48,129.45L803.84,132.32L804.19,130.06L804.31,121.7L804.55,89.64L805.14,103.37L805.26,103.17L806.21,130.02L806.33,129.01L806.45,126.95L806.57,125.03L806.8,129.52L806.92,129.31L807.04,130.14L807.4,90.44L807.75,111.55L807.87,116.21L809.06,131.14L809.18,129.99L809.3,132.71L809.77,130.51L809.89,128.12L810.13,97.11L810.37,113.26L810.49,116.79L811.2,143.11L811.67,134.41L811.79,134.97L811.91,136.6L812.5,134.46L812.62,134.32L812.74,134.54L812.86,131.39L813.1,104.33L813.57,130.67L813.69,126.94L814.17,147.93L814.52,137.36L814.64,138.67L815.47,136.38L815.59,137.81L815.83,99.5L816.3,122.3L816.42,124.94L816.54,119.44L816.9,132.16L817.02,136.6L817.25,132.06L817.61,138.36L817.73,136.26L817.85,137.53L818.32,134.44L818.44,135.17L818.56,123.54L818.68,91.55L819.27,116.81L819.39,119.65L819.63,141.79L820.22,135.02L820.34,136.78L820.46,137.68L820.7,137.59L820.82,134.64L820.93,134.06L821.05,136.85L821.29,135.31L821.41,127.35L821.65,100.03L822.24,108.89L822.36,119.53L822.71,136.73L823.31,136.27L823.43,136.04L824.14,132.16L824.26,120.81L824.38,85.62L824.97,120.8L825.09,120.35L825.56,135.97L826.16,135.04L826.28,132.74L826.4,134.3L826.75,130.17L826.87,130.26L826.99,131.36L827.11,122.99L827.35,91.83L827.82,113.26L827.94,113.26L828.18,113.26L828.3,125.8L829.01,136.53L829.13,136.28L829.25,135.28L829.48,135.78L829.6,134.63L829.72,135.1L829.84,133.57L830.08,95.26L830.43,113.71L830.55,120.83L830.91,120.52L831.26,134.48L831.38,132.78L831.5,132.57L831.86,136.48L832.33,134.92L832.45,133.58L832.57,133.72L832.69,133.02L832.81,121.37L832.93,90.01L833.52,126.24L833.64,123.62L834.83,137.8L834.94,137.25L835.3,135.54L835.42,138L835.54,137.87L835.66,130.25L836.13,110.28L836.49,113.55L836.61,121.24L837.56,135.82L837.68,134.12L837.91,134.8L838.27,133.76L838.39,134.29L838.51,121L838.63,96.18L839.22,119.61L839.34,122.37L840.41,136.45L840.64,136.42L840.76,136L841,138.1L841.12,134.67L841.24,137.27L841.36,130.51L841.59,102.43L842.07,116.57L842.19,116.1L843.14,137.39L843.26,134.57L843.37,136.65L843.73,133.13L843.97,134.19L844.09,132.24L844.44,83.14L844.68,109.86L844.8,112.84L845.75,133.91L845.87,136.03L845.99,135.75L846.11,136.78L846.22,132.28L846.34,136.07L846.94,133.73L847.06,126.95L847.17,95L847.77,118.38L847.89,121.92L848.12,132.21L848.24,133.98L848.36,131.85L848.84,136.16L848.96,137.12L849.55,132.68L849.79,132.84L849.91,120.92L850.02,94.21L850.62,115.7L850.74,121.51L850.86,122.01L850.97,130.85L851.33,126.98L851.81,135.57L851.92,134.31L852.04,135.08L852.28,132.79L852.4,135.2L852.64,133.07L852.75,121.23L852.87,100.01L853.35,124.9L853.47,131.75L853.59,130.33L853.7,134.94L853.82,141.8L853.94,120.9L854.54,131.6L854.65,132.72L855.25,134.36L855.37,131.86L855.6,128.54L855.72,105.32L855.84,111.2L856.2,103.33L856.32,106.43L856.44,103.33L856.67,100.65L856.79,113.11L857.62,131.54L857.74,128.37L858.22,128.4L858.34,129.39L858.57,84.87L859.17,96.63L859.29,93.96L859.4,93.62L859.52,99.15L859.76,139.44L860.35,128.06L860.47,127.83L860.95,129.26L861.07,127.33L861.19,126.33L862.13,75.67L862.25,88.8L862.37,88.97L862.49,100.69L863.32,121.47L863.44,120.23L863.56,117.09L864.03,120.27L864.15,106.3L864.27,68.54L864.98,80.8L865.1,83.6L866.17,119.05L866.65,118.55L866.77,117.88L866.88,118.29L867,106.29L867.24,75.96L867.83,85.15L867.95,96.62L868.07,96.49L868.19,100.71L869.14,120.93L869.26,121.52L869.73,121.95L869.85,116.39L869.97,88.31L871.16,114.66L871.28,112.56L871.4,114.28L871.52,123.5L872.11,120.85L872.23,119.07L872.35,121.44L872.46,118.93L872.58,119.69L872.7,107.38L872.82,71.88L873.41,117.12L873.53,107.38L873.77,103.52L874.6,121.48L874.72,119.53L875.2,122.27L875.31,121.46L875.43,119.21L875.79,82.15L876.15,98.17L876.26,115.11L876.62,110.97L876.86,118.2L876.98,118.07L877.1,116.82L877.21,122.62L877.33,120.95L877.45,122.29L877.57,122.09L877.69,122.89L877.81,123.28L878.28,123.82L878.4,110.99L878.52,85.65L878.64,88.43L878.88,80.61L879.11,88.28L879.23,76.35L880.42,120.85L880.54,121.33L880.9,117.17L881.13,117.22L881.25,98.29L881.49,62.58L881.96,87.61L882.08,86.84L883.27,120.1L883.39,118.34L883.63,121.18L883.74,116.47L883.98,117.31L884.1,105.02L884.22,63.23L884.81,101.41L884.93,92.06L886,119.6L886.12,120.87L886.83,116.15L886.95,104.23L887.07,63.5L887.66,84.01L887.78,78.39L888.73,119.69L888.97,119.51L889.09,121.27L889.44,120.08L889.68,120.26L889.8,107.28L889.92,74.54L890.63,80.46L890.75,75.58L891.82,116.05L891.94,118L892.65,102.95L892.77,53.2L894.07,97.13L894.19,100.79L894.55,112.08L895.14,108.2L895.26,108.72L895.38,109.12L895.5,88.34L895.62,49.89L896.21,71.91L896.33,69.98L896.45,69.38L896.57,70.53L896.69,87.9L897.64,106.49L897.76,107.65L897.99,107.96L898.11,104.56L898.23,106.95L898.35,94.07L898.82,48.69L899.18,52.51L899.3,68.75L899.54,77.15L899.66,99.94L899.77,96.51L900.01,105.24L900.13,102.62L900.25,105.95L900.49,107.65L900.61,102.65L900.84,103.67L900.96,109.94L901.44,45.25L901.79,53.63L901.91,61.91L902.03,47.68L902.39,77.8L902.5,90.5L902.62,86.3L902.98,97.93L903.1,97.06L903.45,102.11L903.57,96.02L903.81,96.16L903.93,97.91L904.17,39.36L904.76,48.45L904.88,60.96L905.95,100.63L906.07,99.82L906.19,103.74L906.78,102.48L906.9,86.91L907.02,46.02L907.61,69.59L907.73,77.81L907.85,74.15L908.09,88.05L908.2,97.44L908.32,94.63L908.56,104.74L908.68,104.36L909.04,109.14L909.39,107.35L909.51,106.33L909.75,87.06L909.87,46.24L911.53,110.51L911.65,107.68L911.77,113.35L912.48,112.55L912.6,94.26L912.72,57.76L913.31,75.21L913.43,73.2L914.26,112.33L914.5,110.25L914.62,110.13L914.85,111.72L914.97,111.98L915.09,111.7L915.21,112.24L915.33,107.85L915.68,59.81L916.04,72.6L916.16,80.88L916.28,69.42L916.63,91.18L916.75,100.39L917.7,111.44L917.82,110.49L917.94,107.93L918.06,112.7L918.3,95.13L918.42,49.23L919.96,109.16L920.08,113.49L920.2,114.27L920.32,110.57L920.55,114.13L920.67,106.98L921.03,109.72L921.15,93.09L921.26,51.69L921.86,73.24L921.98,70.4L922.1,57.02L922.45,95.99L922.57,95.47L923.52,109.24L923.64,107.83L923.76,111.27L923.88,109.06L924,93.19L924.23,50.25L924.71,71.44L924.83,71.99L924.95,71.52L925.06,73.98L925.18,90.14L925.9,114.8L926.25,113.85L926.37,115.09L926.73,111.74L926.85,103.93L927.32,62.06L927.56,69.88L927.68,75.08L928.86,114.51L928.98,112.49L929.34,109.93L929.58,110.6L929.7,97.74L929.81,49.84L930.41,111.8L930.53,103.15L931.83,125.78L931.95,122.35L932.19,125.84L932.31,121.99L932.43,123.87L932.54,109.99L932.66,74.91L933.26,105.77L933.38,99.11L934.33,122.02L934.68,120.69L934.8,119.44L934.92,119.21L935.04,117.19L935.16,115.67L935.28,117.39L935.39,101.61L935.87,60.83L936.23,70.8L936.34,74.52L937.29,119.05L937.65,116.54L937.77,118.74L938.01,119.33L938.13,116.53L938.24,102.12L938.36,71.27L939.08,76.43L939.19,91.23L939.31,86.07L939.43,100.72L939.55,109.91L939.67,107.49L939.91,117.75L940.03,115L940.14,118.39L940.26,118.23L940.38,116.42L940.74,117.49L940.97,112.67L941.09,102.92L941.21,65.14L941.92,68.27L942.04,82.38L943.23,122.71L943.35,118.89L943.47,118.5L943.59,120.57L943.71,120.21L943.82,120.62L944.06,58.94L944.54,82.53L944.66,83.22L944.89,78.35L945.01,83.49L945.13,96.8L946.08,116.98L946.2,115.25L946.67,117.29L946.79,104.21L947.03,73.57L947.51,77.01L947.62,85.21L947.74,74.2L948.1,104.79L948.22,105.94L949.29,116.64L949.41,113.59L949.52,112.24L949.64,100.22L949.88,51.54L950.47,67.23L950.59,66.52L951.78,107.69L951.9,106.13L952.02,106.22L952.14,107L952.37,104.94L952.49,87.01L952.73,36.04L953.32,45.51L953.44,57.1L953.56,46.82L953.68,72.07L953.8,91.01L953.92,86.32L954.15,100.06L954.27,105.72L954.39,103.46L954.51,109.32L954.87,107.38L954.99,108.02L955.1,108.16L955.22,107.92L955.34,95.27L955.58,40.59L956.17,53.78L956.29,56.84L956.53,77.81L956.65,91.7L956.77,86.94L957.12,102.57L957.24,100.62L957.6,104.38L957.72,100.33L957.84,101.79L958.07,101.35L958.19,84.29L958.31,42.11L958.9,63.13L959.02,59.42L959.97,107.89L960.09,106.68L960.21,107.74L960.57,105.71L960.69,103.45L960.8,106.12L960.92,104.19L961.04,84.6L961.16,33.55L961.75,63.82L961.87,69.09L963.06,106.18L963.3,105.54L963.42,104.83L963.53,106.1L963.77,102.88L963.89,90.86L964.13,29.14L964.72,52.1L964.84,65.49L965.79,104.84L966.03,104.45L966.15,103.51L966.5,105.55L966.62,101.83L966.74,94.76L966.98,30.73L967.57,38.94L967.69,56.97L969,107.43L969.23,106.63L969.35,107.71L969.59,93.84L969.71,56.37L971.13,108.87L971.25,108.78L971.37,115.16L971.61,115.68L972.08,111.58L972.2,108.99L972.32,110.32L972.44,92.54L972.56,57.04L973.15,89.55L973.27,84.36L974.34,111.94L974.46,112.43L974.81,113.74L975.17,112.74L975.29,104.95L975.76,57.83L976.12,68.96L976.24,74.58L976.36,76.84L976.48,95.43L976.71,94.3L977.66,117.64L977.78,112.26L977.9,114.49L978.02,111.62L978.14,96.83L978.38,54.09L978.97,64.42L979.09,76.96L979.21,68.14L979.56,96.53L979.68,105.48L980.16,115.18L980.51,113.1L980.63,113.74L980.75,114.29L980.87,110.04L981.23,45.48L981.7,55.24L981.82,60.94L982.89,106.94L983.01,105.41L983.48,110.98L983.72,109.62L983.84,95.32L984.08,42.69L984.67,58.05L984.79,67.3L984.91,63.09L985.03,82.2L985.14,93.17L986.33,107.04L986.45,104.42L986.69,94.72L986.81,49.79L986.93,36.11L987.28,61.83L987.4,60.26L987.52,67.08L987.76,59.47L988.59,94L988.71,108.58L988.94,107.43L989.18,111.24L989.42,109.86L989.54,95.06L989.66,59.37L990.25,77.51L990.37,86.81L990.49,79.72L990.84,101.45L990.96,99.01L991.32,113.16L991.79,111.61L991.91,111.83L992.03,111.92L992.15,110.12L992.27,110.92L992.39,96.47L992.51,65.6L993.1,85L993.22,86.23L994.17,115.86L994.29,113.74L994.64,113L994.76,116.78L995,113.77L995.12,112.13L995.24,106.97L995.36,62.54L996.19,85.09L996.31,78.72L996.42,94.98L996.54,91.13L996.66,95.65L996.78,109.33L997.97,118.63L998.09,100.12L998.21,77.28L998.8,101.73L998.92,100.03L1000.11,126.45L1000.22,124.77L1000.34,125.03L1000.7,126.77L1000.94,116.12L1001.05,89.63L1001.17,83.33L1001.53,98.68L1001.65,102.62L1001.77,93.1L1001.89,113.85L1002.12,109.2L1002.24,118.68L1002.36,112.77L1002.6,126.67L1002.72,124.46L1002.84,127.64L1003.67,122.74L1003.79,107.14L1004.26,69.27L1004.5,76.61L1004.62,83.59L1004.74,79.53L1004.97,96.66L1005.09,105.96L1006.16,122.91L1006.4,122.5L1006.52,121.31L1006.75,88.01L1006.99,108.83L1007.11,111.58L1007.35,106.68L1007.59,113.14L1007.7,112.05L1007.82,122.96L1008.06,122.54L1008.54,130.28L1008.77,128.37L1008.89,125.66L1009.01,127.8L1009.37,122.29L1009.49,117.88L1009.6,75.3L1010.32,83.2L1010.43,84.83L1011.38,115.49L1011.74,113.91L1011.86,114.25L1011.98,115.69L1012.22,113.04L1012.33,104.43L1012.45,60.87L1013.17,68.96L1013.28,83.94L1013.4,79.03L1013.52,97.07L1013.64,105.37L1014.83,118.52L1014.95,116.53L1015.07,116.27L1015.18,99.44L1015.3,68.93L1016.02,73.84L1016.13,82.88L1016.97,116.73L1017.44,115.29L1017.56,114.03L1017.92,116.84L1018.03,105.03L1018.15,62.38L1018.75,90.14L1018.87,78.37L1019.82,116.71L1019.93,113.63L1020.05,117.41L1020.17,117.25L1020.29,115.4L1020.65,116.85L1020.76,116.79L1020.88,100.64L1021.71,66.8L1021.83,66.15L1022.9,115.76L1023.02,112.62L1023.26,118.26L1023.61,113.32L1023.73,100.16L1023.85,55.69L1024.45,76.79L1024.56,74.17L1025.63,119.03L1025.75,118.27L1026.46,110.04L1026.58,97.37L1027.41,52.58L1027.53,70.71L1027.65,72.19L1027.77,83.16L1028.6,113.94L1028.72,113.61L1028.84,108.88L1028.96,112.22L1029.31,109.24L1029.43,98.84L1029.55,47.37L1030.14,57.33L1030.26,64.89L1031.21,109.23L1031.69,106.33L1031.81,104.44L1031.93,106.32L1032.04,103.99L1032.16,104.96L1032.28,81.11L1032.52,22.01L1032.99,66.65L1033.11,55.76L1034.18,98.8L1034.3,98.57L1034.42,94.68L1034.54,97.11L1035.01,91.75L1035.13,67.93L1035.25,26.8L1035.73,85.94L1035.84,52.73L1035.96,43.62L1036.91,101.51L1037.03,104.1L1037.98,88.3L1038.1,42.9L1038.22,34.41L1038.46,54.64L1038.58,65.42L1039.88,107.03L1040,105.97" style="vector-effect: none; fill: none; stroke: rgb(0, 117, 173); stroke-opacity: 1; stroke-width: 2px; opacity: 1;"/></g><g class="points"/><g class="text"/></g></g></g><g class="overplot"/><path class="xlines-above crisp" d="M0,0" style="fill: none;"/><path class="ylines-above crisp" d="M0,0" style="fill: none;"/><g class="overlines-above"/><g class="xaxislayer-above"><g class="xtick"><text text-anchor="middle" x="0" y="199" transform="translate(80,0)" style="font-family: Arial; font-size: 13px; fill: rgb(51, 51, 51); fill-opacity: 1; white-space: pre; opacity: 1;">Jan 2019</text></g><g class="xtick"><text text-anchor="middle" x="0" y="199" style="font-family: Arial; font-size: 13px; fill: rgb(51, 51, 51); fill-opacity: 1; white-space: pre; opacity: 1;" transform="translate(168.34,0)">Feb 2019</text></g><g class="xtick"><text text-anchor="middle" x="0" y="199" style="font-family: Arial; font-size: 13px; fill: rgb(51, 51, 51); fill-opacity: 1; white-space: pre; opacity: 1;" transform="translate(248.13,0)">Mar 2019</text></g><g class="xtick"><text text-anchor="middle" x="0" y="199" style="font-family: Arial; font-size: 13px; fill: rgb(51, 51, 51); fill-opacity: 1; white-space: pre; opacity: 1;" transform="translate(336.47,0)">Apr 2019</text></g><g class="xtick"><text text-anchor="middle" x="0" y="199" style="font-family: Arial; font-size: 13px; fill: rgb(51, 51, 51); fill-opacity: 1; white-space: pre; opacity: 1;" transform="translate(421.96,0)">May 2019</text></g><g class="xtick"><text text-anchor="middle" x="0" y="199" style="font-family: Arial; font-size: 13px; fill: rgb(51, 51, 51); fill-opacity: 1; white-space: pre; opacity: 1;" transform="translate(510.3,0)">Jun 2019</text></g><g class="xtick"><text text-anchor="middle" x="0" y="199" style="font-family: Arial; font-size: 13px; fill: rgb(51, 51, 51); fill-opacity: 1; white-space: pre; opacity: 1;" transform="translate(595.78,0)">Jul 2019</text></g><g class="xtick"><text text-anchor="middle" x="0" y="199" style="font-family: Arial; font-size: 13px; fill: rgb(51, 51, 51); fill-opacity: 1; white-space: pre; opacity: 1;" transform="translate(684.12,0)">Aug 2019</text></g><g class="xtick"><text text-anchor="middle" x="0" y="199" style="font-family: Arial; font-size: 13px; fill: rgb(51, 51, 51); fill-opacity: 1; white-space: pre; opacity: 1;" transform="translate(772.46,0)">Sep 2019</text></g><g class="xtick"><text text-anchor="middle" x="0" y="199" style="font-family: Arial; font-size: 13px; fill: rgb(51, 51, 51); fill-opacity: 1; white-space: pre; opacity: 1;" transform="translate(857.95,0)">Oct 2019</text></g><g class="xtick"><text text-anchor="middle" x="0" y="199" style="font-family: Arial; font-size: 13px; fill: rgb(51, 51, 51); fill-opacity: 1; white-space: pre; opacity: 1;" transform="translate(946.29,0)">Nov 2019</text></g><g class="xtick"><text text-anchor="middle" x="0" y="199" style="font-family: Arial; font-size: 13px; fill: rgb(51, 51, 51); fill-opacity: 1; white-space: pre; opacity: 1;" transform="translate(1031.78,0)">Dec 2019</text></g></g><g class="yaxislayer-above"><g class="ytick"><text text-anchor="end" x="79" y="4.55" transform="translate(0,170.53)" style="font-family: Arial; font-size: 13px; fill: rgb(51, 51, 51); fill-opacity: 1; white-space: pre; opacity: 1;">0.1</text></g><g class="ytick"><text text-anchor="end" x="79" y="4.55" style="font-family: Arial; font-size: 13px; fill: rgb(51, 51, 51); fill-opacity: 1; white-space: pre; opacity: 1;" transform="translate(0,155.25)">0.2</text></g><g class="ytick"><text text-anchor="end" x="79" y="4.55" style="font-family: Arial; font-size: 13px; fill: rgb(51, 51, 51); fill-opacity: 1; white-space: pre; opacity: 1;" transform="translate(0,139.97)">0.3</text></g><g class="ytick"><text text-anchor="end" x="79" y="4.55" style="font-family: Arial; font-size: 13px; fill: rgb(51, 51, 51); fill-opacity: 1; white-space: pre; opacity: 1;" transform="translate(0,124.69)">0.4</text></g><g class="ytick"><text text-anchor="end" x="79" y="4.55" style="font-family: Arial; font-size: 13px; fill: rgb(51, 51, 51); fill-opacity: 1; white-space: pre; opacity: 1;" transform="translate(0,109.4)">0.5</text></g><g class="ytick"><text text-anchor="end" x="79" y="4.55" style="font-family: Arial; font-size: 13px; fill: rgb(51, 51, 51); fill-opacity: 1; white-space: pre; opacity: 1;" transform="translate(0,94.12)">0.6</text></g><g class="ytick"><text text-anchor="end" x="79" y="4.55" style="font-family: Arial; font-size: 13px; fill: rgb(51, 51, 51); fill-opacity: 1; white-space: pre; opacity: 1;" transform="translate(0,78.84)">0.7</text></g><g class="ytick"><text text-anchor="end" x="79" y="4.55" style="font-family: Arial; font-size: 13px; fill: rgb(51, 51, 51); fill-opacity: 1; white-space: pre; opacity: 1;" transform="translate(0,63.56)">0.8</text></g><g class="ytick"><text text-anchor="end" x="79" y="4.55" style="font-family: Arial; font-size: 13px; fill: rgb(51, 51, 51); fill-opacity: 1; white-space: pre; opacity: 1;" transform="translate(0,48.28)">0.9</text></g><g class="ytick"><text text-anchor="end" x="79" y="4.55" style="font-family: Arial; font-size: 13px; fill: rgb(51, 51, 51); fill-opacity: 1; white-space: pre; opacity: 1;" transform="translate(0,33)">1</text></g></g><g class="overaxes-above"/></g></g><g class="polarlayer"/><g class="smithlayer"/><g class="ternarylayer"/><g class="geolayer"/><g class="funnelarealayer"/><g class="pielayer"/><g class="iciclelayer"/><g class="treemaplayer"/><g class="sunburstlayer"/><g class="glimages"/><defs id="topdefs-113413"><g class="clips"/></defs><g class="layer-above"><g class="imagelayer"/><g class="shapelayer"/></g><g class="infolayer"><g class="g-gtitle"><text class="gtitle" x="600" y="0.22999999999998977" text-anchor="middle" dy="0.7em" style="font-family: 'Arial Black'; font-size: 20px; fill: rgb(51, 51, 51); opacity: 1; font-weight: normal; white-space: pre;">Heat Demand normalized to 1kW</text></g><g class="g-xtitle"/><g class="g-ytitle"><text class="ytitle" transform="rotate(-90,33.121875,105)" x="33.121875" y="105" text-anchor="middle" style="font-family: Arial; font-size: 19px; fill: rgb(51, 51, 51); opacity: 1; font-weight: normal; white-space: pre;">Power [kW]</text></g></g></svg>