<svg class="main-svg" xmlns="http://www.w3.org/2000/svg" xmlns:xlink="http://www.w3.org/1999/xlink" width="1200" height="480" style="" viewBox="0 0 1200 480"><rect x="0" y="0" width="1200" height="480" style="fill: rgb(255, 255, 255); fill-opacity: 1;"/><defs id="defs-35700c"><g class="clips"><clipPath id="clip35700cxyplot" class="plotclip"><rect width="934" height="410"/></clipPath><clipPath id="clip35700cxy2plot" class="plotclip"><rect width="934" height="410"/></clipPath><clipPath class="axesclip" id="clip35700cx"><rect x="80" y="0" width="934" height="480"/></clipPath><clipPath class="axesclip" id="clip35700cy"><rect x="0" y="25" width="1200" height="410"/></clipPath><clipPath class="axesclip" id="clip35700cxy"><rect x="80" y="25" width="934" height="410"/></clipPath><clipPath class="axesclip" id="clip35700cy2"><rect x="0" y="25" width="1200" height="410"/></clipPath><clipPath class="axesclip" id="clip35700cxy2"><rect x="80" y="25" width="934" height="410"/></clipPath></g><g class="gradients"/><g class="patterns"/></defs><g class="bglayer"/><g class="layer-below"><g class="imagelayer"/><g class="shapelayer"/></g><g class="cartesianlayer"><g class="subplot xy"><g class="layer-subplot"><g class="shapelayer"/><g class="imagelayer"/></g><g class="minor-gridlayer"><g class="x"/><g class="y"/><g class="y2"/></g><g class="gridlayer"><g class="x"><path class="xgrid crisp" transform="translate(159.34,0)" d="M0,25v410" style="stroke: rgb(200, 200, 200); stroke-opacity: 1; stroke-width: 1px;"/><path class="xgrid crisp" transform="translate(230.99,0)" d="M0,25v410" style="stroke: rgb(200, 200, 200); stroke-opacity: 1; stroke-width: 1px;"/><path class="xgrid crisp" transform="translate(310.33000000000004,0)" d="M0,25v410" style="stroke: rgb(200, 200, 200); stroke-opacity: 1; stroke-width: 1px;"/><path class="xgrid crisp" transform="translate(387.1,0)" d="M0,25v410" style="stroke: rgb(200, 200, 200); stroke-opacity: 1; stroke-width: 1px;"/><path class="xgrid crisp" transform="translate(466.44,0)" d="M0,25v410" style="stroke: rgb(200, 200, 200); stroke-opacity: 1; stroke-width: 1px;"/><path class="xgrid crisp" transform="translate(543.21,0)" d="M0,25v410" style="stroke: rgb(200, 200, 200); stroke-opacity: 1; stroke-width: 1px;"/><path class="xgrid crisp" transform="translate(622.55,0)" d="M0,25v410" style="stroke: rgb(200, 200, 200); stroke-opacity: 1; stroke-width: 1px;"/><path class="xgrid crisp" transform="translate(701.88,0)" d="M0,25v410" style="stroke: rgb(200, 200, 200); stroke-opacity: 1; stroke-width: 1px;"/><path class="xgrid crisp" transform="translate(778.66,0)" d="M0,25v410" style="stroke: rgb(200, 200, 200); stroke-opacity: 1; stroke-width: 1px;"/><path class="xgrid crisp" transform="translate(858,0)" d="M0,25v410" style="stroke: rgb(200, 200, 200); stroke-opacity: 1; stroke-width: 1px;"/><path class="xgrid crisp" transform="translate(934.77,0)" d="M0,25v410" style="stroke: rgb(200, 200, 200); stroke-opacity: 1; stroke-width: 1px;"/></g><g class="y"><path class="ygrid crisp" transform="translate(0,425.3)" d="M80,0h934" style="stroke: rgb(200, 200, 200); stroke-opacity: 1; stroke-width: 1px;"/><path class="ygrid crisp" transform="translate(0,354.47)" d="M80,0h934" style="stroke: rgb(200, 200, 200); stroke-opacity: 1; stroke-width: 1px;"/><path class="ygrid crisp" transform="translate(0,283.64)" d="M80,0h934" style="stroke: rgb(200, 200, 200); stroke-opacity: 1; stroke-width: 1px;"/><path class="ygrid crisp" transform="translate(0,212.81)" d="M80,0h934" style="stroke: rgb(200, 200, 200); stroke-opacity: 1; stroke-width: 1px;"/><path class="ygrid crisp" transform="translate(0,141.98000000000002)" d="M80,0h934" style="stroke: rgb(200, 200, 200); stroke-opacity: 1; stroke-width: 1px;"/><path class="ygrid crisp" transform="translate(0,71.15)" d="M80,0h934" style="stroke: rgb(200, 200, 200); stroke-opacity: 1; stroke-width: 1px;"/></g><g class="y2"><path class="y2grid crisp" transform="translate(0,424.36)" d="M80,0h934" style="stroke: rgb(255, 255, 255); stroke-opacity: 1; stroke-width: 1px;"/><path class="y2grid crisp" transform="translate(0,383.27)" d="M80,0h934" style="stroke: rgb(255, 255, 255); stroke-opacity: 1; stroke-width: 1px;"/><path class="y2grid crisp" transform="translate(0,301.09)" d="M80,0h934" style="stroke: rgb(255, 255, 255); stroke-opacity: 1; stroke-width: 1px;"/><path class="y2grid crisp" transform="translate(0,260)" d="M80,0h934" style="stroke: rgb(255, 255, 255); stroke-opacity: 1; stroke-width: 1px;"/><path class="y2grid crisp" transform="translate(0,218.91)" d="M80,0h934" style="stroke: rgb(255, 255, 255); stroke-opacity: 1; stroke-width: 1px;"/><path class="y2grid crisp" transform="translate(0,177.81)" d="M80,0h934" style="stroke: rgb(255, 255, 255); stroke-opacity: 1; stroke-width: 1px;"/><path class="y2grid crisp" transform="translate(0,136.72)" d="M80,0h934" style="stroke: rgb(255, 255, 255); stroke-opacity: 1; stroke-width: 1px;"/><path class="y2grid crisp" transform="translate(0,95.63)" d="M80,0h934" style="stroke: rgb(255, 255, 255); stroke-opacity: 1; stroke-width: 1px;"/><path class="y2grid crisp" transform="translate(0,54.54)" d="M80,0h934" style="stroke: rgb(255, 255, 255); stroke-opacity: 1; stroke-width: 1px;"/></g></g><g class="zerolinelayer"><path class="y2zl zl crisp" transform="translate(0,342.18)" d="M80,0h934" style="stroke: rgb(255, 255, 255); stroke-opacity: 1; stroke-width: 2px;"/></g><path class="xlines-below"/><path class="ylines-below"/><g class="overlines-below"><path class="xy2-x"/><path class="xy2-y"/></g><g class="xaxislayer-below"/><g class="yaxislayer-below"/><g class="overaxes-below"><g class="xy2-x"/><g class="xy2-y"/></g><g class="plot" transform="translate(80,25)" clip-path="url(#clip35700cxyplot)"><g class="scatterlayer mlayer"><g class="trace scatter trace263ee9" style="stroke-miterlimit: 2; opacity: 1;"><g class="fills"/><g class="errorbars"/><g class="lines"><path class="js-line" d="M0,295.62L0.85,293.08L0.96,293.72L2.24,301.97L2.35,308.31L2.45,305.14L2.67,315.96L2.77,315.96L2.88,321.72L3.31,325.6L3.41,321.72L3.52,319.16L3.73,317.23L3.84,320.44L3.95,319.8L4.05,315.96L5.86,355.66L5.97,354.97L6.5,328.84L6.93,336.05L7.04,336.05L8.21,340.02L8.32,338.03L8.96,329.49L9.06,327.54L9.38,328.19L10.45,323.01L10.77,323.66L10.88,326.24L10.98,326.89L11.09,324.95L11.2,324.95L11.3,323.01L12.48,312.77L12.58,311.49L12.69,310.86L12.8,312.13L13.01,311.49L13.12,313.4L14.4,304.5L14.5,304.5L16.21,313.4L16.42,311.49L16.53,310.22L17.81,320.44L17.91,319.8L18.02,324.3L19.3,300.06L19.41,304.5L19.51,308.31L19.62,307.04L20.05,310.22L20.15,313.4L20.26,312.77L20.37,315.32L20.47,315.96L21.43,329.49L21.54,328.84L21.65,326.89L21.97,332.1L22.07,330.79L22.18,332.76L22.61,335.39L22.82,333.41L22.93,332.76L23.03,334.07L23.46,331.45L23.67,333.41L23.78,332.76L23.99,333.41L24.42,329.49L24.63,331.45L24.74,332.1L26.13,353.59L26.23,352.9L26.34,350.83L26.76,345.39L26.87,342.7L28.47,325.6L28.58,325.6L29.43,315.96L29.64,316.59L29.75,315.96L29.96,314.68L30.07,319.16L30.28,319.8L30.39,318.51L30.5,318.51L30.6,317.87L30.82,318.51L30.92,315.96L31.03,314.04L31.78,305.14L31.88,310.86L31.99,319.8L32.31,310.22L32.42,300.06L33.06,290.54L33.27,294.35L33.38,296.26L34.34,314.68L34.44,307.68L34.55,306.41L35.62,323.01L35.72,322.37L35.94,325.6L36.58,324.95L36.68,324.3L37.32,306.41L37.85,309.58L37.96,309.58L38.07,307.04L38.49,310.22L38.71,309.58L38.81,310.22L39.24,316.59L39.35,314.04L39.45,308.95L39.88,303.24L40.09,310.22L40.2,312.77L40.95,315.96L41.05,314.04L41.16,318.51L41.37,308.95L41.69,315.32L41.8,308.95L42.12,284.15L42.55,297.53L42.65,298.16L42.76,298.8L42.87,309.58L42.97,305.14L43.29,316.59L43.4,319.8L44.36,334.73L44.57,329.49L44.68,324.3L44.89,321.72L45.11,324.3L45.21,327.54L46.07,350.83L46.17,350.15L46.28,352.9L46.92,361.28L47.03,352.9L47.45,325.6L47.77,332.76L47.88,338.03L49.37,387.94L49.48,373.56L50.33,350.83L50.44,352.9L50.54,356.36L50.76,354.28L50.86,359.16L50.97,364.12L51.93,389.5L52.04,384.85L52.14,372.82L52.68,332.76L53,346.74L53.1,354.97L53.74,379.52L53.96,364.12L54.06,361.99L54.38,367.71L54.49,369.89L55.34,353.59L55.56,357.06L55.66,355.66L55.77,354.97L55.88,358.46L55.98,359.16L56.41,365.55L56.84,363.41L56.94,364.12L57.26,365.55L57.37,364.12L57.48,361.28L57.58,358.46L58.12,363.41L58.22,364.12L58.65,370.62L58.75,366.99L58.86,365.55L58.97,366.27L59.18,364.12L59.39,364.12L59.5,363.41L59.61,364.84L59.71,363.41L59.82,357.06L60.03,347.42L60.57,353.59L60.67,355.66L61.53,369.89L61.63,375.78L62.91,353.59L63.02,351.52L63.87,340.69L64.19,343.37L64.3,344.72L65.47,305.14L65.9,311.49L66.01,313.4L66.11,311.49L66.22,315.32L66.75,312.77L66.86,314.04L67.18,315.32L67.29,312.77L67.39,310.86L67.5,313.4L67.71,304.5L67.82,300.7L68.03,291.17L68.46,303.87L68.57,303.87L68.78,300.06L68.99,310.86L69.1,315.32L69.95,322.37L70.06,321.72L70.48,312.77L70.8,320.44L70.91,324.95L72.3,328.84L72.4,328.84L72.51,330.14L72.72,326.24L72.83,324.95L73.15,314.04L73.36,326.89L73.47,331.45L74.86,352.21L74.96,351.52L75.82,312.13L76.24,319.16L76.35,321.72L77.42,369.89L77.63,363.41L77.74,345.39L78.16,314.68L78.48,322.37L78.59,328.84L79.02,335.39L79.23,327.54L79.34,327.54L79.55,330.14L79.65,328.19L79.76,326.24L80.08,328.84L80.29,327.54L80.4,320.44L80.72,310.86L81.15,319.8L81.25,323.01L82.21,326.89L82.32,324.3L82.43,324.95L82.75,323.01L82.85,322.37L83.17,312.77L83.28,301.33L83.49,295.62L83.71,307.68L83.81,315.96L84.03,314.68L84.56,322.37L84.67,317.87L84.77,318.51L85.31,324.95L85.41,327.54L86.59,337.37L86.69,333.41L86.8,332.1L87.01,334.07L87.12,334.07L87.23,336.05L87.87,378.02L88.08,348.78L88.19,326.89L88.29,319.8L88.72,334.07L88.83,346.07L89.25,365.55L89.47,354.97L89.57,352.9L91.06,336.71L91.17,338.69L91.92,363.41L92.13,361.28L92.24,361.99L92.77,369.16L93.09,367.71L93.2,366.27L93.52,345.39L93.94,357.76L94.05,359.86L95.01,369.16L95.12,367.71L95.22,364.84L95.44,368.44L95.65,357.06L95.76,348.1L96.82,318.51L96.93,321.08L97.04,319.16L97.36,325.6L97.57,321.72L97.68,322.37L97.78,324.3L98.1,317.23L98.21,311.49L98.85,291.17L99.06,301.97L99.17,303.87L99.38,303.24L99.49,308.31L99.92,315.96L100.24,313.4L100.34,308.95L100.56,310.22L100.66,304.5L101.3,276.42L101.51,281.59L101.62,286.07L102.26,305.77L102.79,303.87L102.9,301.33L103.33,291.81L103.43,276.42L103.97,263.97L104.07,275.78L104.18,281.59L105.14,307.68L105.25,308.95L105.67,318.51L105.99,314.68L106.1,312.77L106.42,304.5L106.95,308.31L107.06,318.51L107.27,315.96L107.59,323.66L107.91,322.37L108.02,324.3L109.09,311.49L109.3,315.32L109.41,315.96L109.62,315.32L109.94,319.8L110.26,318.51L110.37,328.19L110.69,338.03L110.9,327.54L111.01,317.87L111.64,282.87L111.86,300.06L111.96,307.68L113.03,340.69L113.14,340.69L113.24,341.36L113.35,334.07L114.2,260.64L114.42,279.65L114.52,294.99L115.59,344.04L115.7,341.36L115.91,345.39L116.02,331.45L116.12,322.37L116.66,240.69L116.98,265.3L117.08,273.83L117.62,303.87L117.72,315.96L118.36,343.37L118.58,323.66L118.68,310.86L119.22,252.52L119.54,275.78L119.64,286.07L120.18,326.24L120.6,321.72L120.71,322.37L120.82,323.01L120.92,319.16L121.03,321.08L121.14,313.4L121.24,303.24L121.88,244.92L122.09,261.31L122.2,282.87L123.16,330.14L123.27,326.24L123.59,333.41L123.69,317.87L123.8,301.33L124.44,236.4L124.65,265.96L124.76,285.43L125.4,334.73L125.72,333.41L125.83,329.49L125.93,330.14L126.04,328.19L126.15,326.24L126.79,257.28L127.21,282.87L127.32,289.9L128.71,342.7L128.81,330.79L129.56,269.91L129.77,279.65L129.88,280.94L130.95,326.24L131.16,322.37L131.27,326.24L131.8,260.64L132.33,274.48L132.44,277.72L132.65,287.99L133.18,286.07L133.29,280.3L133.61,286.71L133.93,281.59L134.04,277.72L134.68,266.62L134.78,273.18L134.89,279.01L136.06,338.03L136.17,336.71L136.28,338.03L136.38,337.37L136.49,329.49L137.02,289.9L137.34,299.43L137.45,307.04L138.62,354.97L138.73,347.42L138.84,351.52L138.94,352.21L139.05,328.84L139.8,265.96L140.01,287.35L140.12,299.43L141.4,354.28L141.5,347.42L141.61,330.79L142.36,233.51L142.68,266.62L142.78,284.79L144.06,338.03L144.17,321.72L144.91,222.4L145.13,238.55L145.23,259.3L146.3,332.1L146.41,327.54L146.51,331.45L146.62,330.14L146.73,305.77L147.47,214.74L147.69,230.59L147.79,258.63L148.97,319.16L149.07,308.95L149.29,279.65L149.39,250.47L150.03,217.83L150.25,236.4L150.35,237.84L151.31,288.63L151.53,287.99L151.63,284.15L151.85,284.15L151.95,286.71L152.59,275.13L152.81,279.01L152.91,282.23L153.77,290.54L153.87,291.81L154.19,302.6L154.62,292.45L154.72,289.26L155.26,279.65L155.47,284.15L155.58,286.07L155.79,291.81L155.9,282.87L156.22,283.51L156.32,282.87L156.75,288.63L156.86,284.79L156.96,280.3L157.82,253.89L157.92,261.31L158.03,266.62L158.24,277.72L158.88,275.13L158.99,271.87L159.31,278.36L159.63,248.4L159.95,261.98L160.06,266.62L160.38,270.57L160.48,269.26L160.59,296.26L161.23,308.31L161.55,307.68L161.66,308.95L161.76,319.16L162.19,296.89L162.3,287.35L162.4,279.01L162.83,295.62L162.94,301.97L163.15,298.8L163.58,302.6L163.68,303.87L163.9,300.7L164.11,312.13L164.22,313.4L164.32,314.04L164.43,310.86L164.53,306.41L165.39,252.52L165.71,263.97L165.81,267.94L166.88,287.35L166.99,288.63L167.31,255.25L167.84,260.64L167.95,285.43L168.05,275.78L168.37,293.08L168.59,290.54L168.69,295.62L168.91,291.81L169.12,294.99L169.23,301.33L169.33,303.87L169.55,293.72L169.65,297.53L169.76,293.08L170.4,262.64L170.51,268.6L170.61,286.07L170.72,284.79L170.83,295.62L171.25,314.68L171.57,299.43L171.68,300.06L172.43,280.94L172.53,273.18L172.75,261.98L173.28,268.6L173.39,268.6L173.71,267.94L174.35,275.13L174.45,273.83L174.56,277.72L174.88,289.26L174.99,275.78L175.09,259.97L175.2,261.31L175.3,252.52L175.52,240.69L175.84,255.93L175.94,265.3L176.58,312.77L177.12,306.41L177.22,308.31L177.33,309.58L177.44,321.08L177.76,305.77L177.86,319.8L178.08,295.62L178.61,315.32L178.72,317.87L179.04,308.31L179.46,318.51L179.57,318.51L179.68,319.16L179.89,317.23L180,312.13L180.74,278.36L180.96,283.51L181.06,287.35L181.38,294.35L181.6,283.51L181.7,287.35L181.81,286.07L181.92,280.3L182.13,301.97L182.24,303.87L182.45,303.87L182.56,298.8L183.3,279.65L183.52,289.26L183.62,293.08L184.26,317.23L184.58,307.04L184.69,307.04L184.8,308.95L185.01,303.87L185.12,297.53L186.07,310.22L186.18,307.68L186.93,295.62L187.03,317.87L187.67,292.45L187.89,296.26L187.99,294.99L188.74,263.97L189.06,264.64L189.17,264.64L189.38,263.97L190.34,271.22L190.45,269.91L190.55,264.64L190.98,252.52L191.19,260.64L191.3,270.57L191.41,271.22L191.51,282.23L191.83,308.31L192.26,296.26L192.37,291.17L192.79,266.62L192.9,252.52L193.33,222.4L193.54,251.15L193.65,292.45L194.82,317.23L194.93,315.96L195.03,319.8L195.25,312.13L195.35,301.97L195.57,306.41L195.67,297.53L195.78,284.15L196.1,282.23L197.16,328.19L197.27,327.54L197.38,332.76L197.59,336.71L197.8,326.24L197.91,309.58L198.76,282.87L198.87,289.26L198.98,298.8L200.15,357.06L200.26,356.36L200.36,340.02L201.11,267.28L201.32,269.26L201.43,274.48L202.82,348.78L202.92,330.14L203.78,237.84L203.99,248.4L204.1,258.63L205.38,338.03L205.48,319.8L206.23,214.74L206.55,231.33L206.66,242.1L207.93,323.01L208.04,306.41L208.68,212.4L209,217.83L209.11,232.06L210.49,323.66L210.6,315.96L210.71,305.14L211.35,224.66L211.56,244.92L211.67,257.28L212.2,301.97L212.52,286.71L212.63,287.99L212.95,315.32L213.37,288.63L213.48,289.9L213.69,300.06L213.8,284.79L214.55,321.08L214.76,317.23L214.87,317.23L214.97,317.87L215.08,315.32L215.19,323.66L215.29,323.01L215.4,327.54L215.61,323.66L215.72,317.23L216.57,284.79L216.79,291.17L216.89,295.62L218.06,309.58L218.17,308.95L218.28,303.87L218.7,267.28L219.24,275.13L219.34,275.78L220.52,306.41L220.62,308.95L220.73,308.31L220.84,297.53L221.58,253.21L221.8,257.28L221.9,259.3L223.29,307.04L223.4,288.63L224.25,228.38L224.36,230.59L224.46,237.12L225.74,326.89L225.85,322.37L226.92,210.83L227.02,217.83L227.13,227.64L228.09,315.32L228.19,314.68L228.3,315.96L228.41,318.51L228.51,309.58L228.62,289.9L229.26,206.05L229.58,215.52L229.69,225.41L230.75,306.41L230.86,308.95L230.97,310.86L231.07,306.41L231.18,292.45L231.93,223.91L232.14,229.86L232.25,239.27L233.31,307.04L233.53,298.16L233.63,296.89L234.59,192.88L234.91,219.37L235.02,248.4L235.13,242.1L235.45,265.3L235.55,265.96L235.66,267.28L235.77,261.98L235.87,282.87L235.98,281.59L236.09,291.81L237.26,209.25L237.37,210.83L237.47,215.52L237.58,288.63L238.11,308.95L238.54,303.24L238.65,302.6L238.86,294.35L238.96,280.94L239.39,264.64L239.5,252.52L240.46,300.7L240.56,301.97L241.31,305.14L241.42,303.87L241.52,301.97L242.48,269.91L242.59,280.3L242.7,292.45L242.91,291.81L243.12,293.72L243.23,296.26L243.44,296.89L243.87,290.54L243.98,286.71L244.94,215.52L245.04,222.4L245.15,238.55L246.32,317.23L246.43,306.41L246.54,287.35L247.28,218.6L247.6,231.33L247.71,239.98L248.67,305.77L248.99,296.26L249.1,279.65L249.84,226.9L250.05,238.55L250.16,246.31L251.33,282.87L251.44,284.79L252.29,227.64L252.51,244.92L252.61,263.31L252.72,259.97L252.93,266.62L253.04,266.62L253.15,271.87L254,302.6L254.21,294.99L254.32,287.35L254.85,243.51L255.28,256.6L255.39,266.62L255.6,273.18L255.71,282.87L256.67,319.8L256.88,308.95L256.99,297.53L257.52,261.98L257.84,269.91L257.95,275.13L259.01,343.37L259.23,333.41L259.33,321.08L260.08,280.94L260.4,291.17L260.5,293.72L261.68,320.44L261.78,316.59L261.89,307.68L262.74,272.53L262.85,276.42L262.96,280.3L264.24,324.3L264.34,319.8L264.45,310.86L265.2,267.94L265.41,278.36L265.52,285.43L266.8,307.04L266.9,303.24L267.12,273.83L267.22,251.15L267.54,235.68L267.65,228.38L267.76,224.66L268.08,236.4L268.18,248.4L269.04,326.24L269.36,307.68L269.46,282.87L270.42,206.05L270.64,226.16L270.74,232.79L271.7,265.3L271.81,263.97L271.91,266.62L272.13,256.6L272.23,249.09L272.87,203.63L273.19,218.6L273.3,233.51L274.47,296.26L274.58,285.43L274.69,257.28L275.54,191.19L275.75,201.19L275.86,215.52L277.03,273.18L277.14,256.6L278.1,177.22L278.31,186.9L278.42,197.9L279.27,286.07L279.49,277.07L279.59,270.57L280.66,173.61L280.87,184.3L280.98,201.19L282.04,315.96L282.15,308.95L282.26,287.99L283.11,170.87L283.32,177.22L283.43,184.3L284.71,297.53L284.82,278.36L285.78,172.7L285.88,178.12L285.99,182.55L287.06,267.28L287.27,253.21L287.38,251.15L288.34,190.33L288.55,198.73L288.66,209.25L289.83,262.64L289.94,252.52L290.79,133.52L291.11,159.62L291.22,178.12L292.28,293.08L292.39,289.9L292.49,261.98L293.45,143.85L293.67,158.66L293.77,176.32L294.84,288.63L294.95,285.43L295.37,260.64L295.69,271.22L295.8,277.07L295.91,280.94L296.23,272.53L296.55,279.65L296.65,280.3L297.08,279.01L297.29,282.87L297.4,286.07L297.51,286.71L297.61,282.87L297.72,276.42L298.47,239.98L298.68,248.4L298.79,286.71L300.07,306.41L300.17,301.97L301.13,258.63L301.24,263.31L301.35,269.26L302.41,310.86L302.52,311.49L303.26,265.3L303.58,277.07L303.69,279.01L304.12,286.71L304.54,283.51L304.65,282.87L305.4,275.78L305.5,272.53L305.61,273.83L305.72,265.96L306.36,241.4L306.57,258.63L306.68,266.62L307.64,323.01L307.74,319.8L307.85,303.24L308.81,216.29L308.92,218.6L309.13,229.86L309.24,246.31L310.2,300.7L310.3,294.35L310.41,280.3L310.94,205.25L311.37,215.52L311.48,214.74L312.65,272.53L312.76,271.87L313.29,269.26L313.39,263.31L313.71,248.4L314.14,257.96L314.25,263.97L315.1,299.43L315.42,292.45L315.53,283.51L315.85,265.3L316.06,293.08L316.17,301.33L317.23,321.08L317.34,319.8L317.87,327.54L317.98,322.37L318.09,317.87L319.15,279.65L319.26,285.43L319.37,293.72L320.43,346.74L320.54,342.03L320.65,323.66L321.5,276.42L321.61,277.72L321.71,275.78L321.93,280.3L322.03,287.99L322.25,294.99L322.35,303.87L322.99,335.39L323.1,328.19L323.21,307.68L324.16,249.78L324.27,252.52L324.48,257.28L324.59,269.26L325.12,287.35L325.44,282.87L325.55,286.07L326.51,246.31L326.83,247.7L326.94,251.15L328.11,289.9L328.22,286.07L328.32,275.78L329.07,235.68L329.18,245.61L329.28,250.47L329.5,249.78L330.78,269.91L330.88,261.31L331.95,229.12L332.06,237.84L332.8,275.78L333.12,267.94L333.23,265.3L333.76,226.9L333.87,210.83L334.4,221.65L334.51,264.64L335.89,298.16L336,296.89L336.11,294.99L337.07,248.4L337.28,257.28L337.39,265.3L338.35,305.14L338.45,297.53L338.56,289.26L339.31,234.24L339.73,239.98L339.84,248.4L340.91,326.24L341.01,317.23L341.12,303.87L341.65,250.47L342.08,258.63L342.19,259.97L343.47,324.3L343.68,308.95L343.79,293.08L344.53,253.89L344.64,257.28L344.75,269.91L346.02,295.62L346.13,293.72L346.24,289.26L346.88,255.25L347.2,271.87L347.3,273.83L348.58,288.63L348.69,287.35L349.86,199.55L350.08,212.4L350.18,226.9L351.14,290.54L351.25,285.43L351.36,262.64L352.21,179.9L352.42,192.03L352.53,197.9L353.7,282.87L353.81,273.18L353.92,257.96L354.88,164.36L355.09,191.19L355.2,205.25L356.26,261.98L356.37,253.89L356.9,220.89L357.33,231.33L357.43,229.86L358.71,253.21L358.82,252.52L359.78,244.92L359.99,246.31L360.1,247.7L361.38,260.64L361.7,257.96L361.81,255.25L361.91,256.6L362.13,253.21L362.23,254.57L362.34,251.84L362.66,234.96L362.87,242.81L362.98,256.6L363.94,307.68L364.05,301.33L364.15,284.15L365.01,206.86L365.11,208.45L365.22,204.44L365.54,218.6L365.65,241.4L366.5,291.17L366.6,279.65L367.56,176.32L367.78,185.17L367.88,189.48L368.95,270.57L369.06,274.48L369.7,181.67L370.02,207.65L370.12,228.38L370.23,206.86L370.76,244.22L370.87,255.25L371.62,272.53L371.72,267.28L371.83,249.78L372.79,183.42L372.9,184.3L373,182.55L374.18,265.3L374.28,258.63L374.39,234.96L375.35,185.17L375.46,195.4L375.78,211.62L375.88,224.66L375.99,225.41L376.1,220.89L376.63,244.22L377.05,241.4L377.16,236.4L377.48,229.86L378.87,268.6L378.97,269.26L379.29,275.13L379.4,271.87L379.51,267.28L380.57,233.51L380.68,239.98L380.79,245.61L381.85,303.24L381.96,292.45L382.07,269.26L382.92,195.4L383.03,199.55L383.13,197.07L383.35,205.25L383.45,217.06L384.31,247.01L384.41,247.7L384.84,208.45L384.95,193.72L385.05,199.55L385.37,186.04L385.48,186.04L385.59,181.67L385.69,174.52L386.01,194.56L386.12,216.29L386.97,265.3L387.08,252.52L387.19,228.38L388.14,139.76L388.25,140.79L388.36,138.73L388.46,152.83L389.42,256.6L389.53,252.52L389.64,241.4L390.6,116.19L390.81,119.52L390.92,122.81L392.09,241.4L392.2,222.4L392.3,202.01L393.16,101.33L393.37,109.42L393.48,188.62L394.65,244.92L394.76,237.12L394.86,218.6L395.82,107.13L395.93,110.56L396.04,118.41L397.21,217.06L397.32,206.05L397.42,187.76L398.27,95.42L398.59,107.13L398.7,124.98L400.09,217.06L400.19,208.45L400.3,207.65L401.69,265.3L401.9,257.96L402.01,258.63L402.33,273.18L402.54,248.4L402.65,234.24L403.61,126.06L403.82,136.66L403.93,156.73L404.35,247.7L404.89,240.69L404.99,244.92L405.42,228.38L405.53,218.6L406.17,174.52L406.38,179.9L406.49,200.37L407.34,279.65L407.45,275.78L407.55,271.87L408.3,149.87L408.72,163.42L408.83,177.22L409.79,247.7L410,245.61L410.11,242.81L410.96,165.3L411.18,181.67L411.28,208.45L411.92,241.4L412.24,229.86L412.35,229.12L412.67,239.98L412.78,232.06L412.88,225.41L413.74,169.95L413.84,185.17L413.95,193.72L415.02,236.4L415.12,233.51L415.23,229.86L415.76,194.56L415.87,219.37L415.98,235.68L416.19,229.12L416.94,242.1L417.04,242.1L417.47,247.01L417.58,253.21L417.79,241.4L417.9,230.59L418.86,151.85L419.07,154.79L419.18,162.48L420.03,257.96L420.24,256.6L420.35,239.27L421.31,86.96L421.41,89.4L421.52,119.52L422.69,202.82L422.8,195.4L422.91,193.72L423.65,163.42L423.76,171.79L423.87,164.36L424.08,162.48L424.19,173.61L425.68,232.06L425.79,229.12L426.64,206.86L426.85,216.29L426.96,216.29L427.6,255.93L427.92,249.09L428.03,243.51L428.45,211.62L428.56,194.56L429.31,146.88L429.41,160.57L429.52,180.78L430.48,242.81L430.58,229.86L430.69,206.05L431.65,111.69L431.86,116.19L431.97,141.81L432.5,206.05L432.93,203.63L433.04,205.25L433.25,191.19L433.36,178.12L434.32,102.5L434.42,113.95L434.53,135.62L435.6,220.13L435.7,214.74L435.81,206.05L435.92,214.74L436.13,187.76L436.24,168.1L436.66,160.57L436.77,198.73L436.88,219.37L437.09,192.03L437.62,217.83L437.73,226.9L437.94,229.12L438.05,234.24L438.16,234.96L438.26,226.16L439.33,157.7L439.54,161.53L439.65,163.42L440.61,244.22L440.82,228.38L440.93,224.66L441.46,163.42L441.67,198.73L441.78,210.83L441.99,189.48L442.53,205.25L442.63,211.62L443.17,232.06L443.38,222.4L443.49,216.29L444.55,144.86L444.66,149.87L444.77,157.7L445.73,220.13L445.83,210.04L447.01,113.95L447.11,116.19L447.22,121.72L447.86,211.62L448.29,192.03L448.39,188.62L448.93,130.35L449.03,115.07L449.57,68.07L449.89,96.61L449.99,130.35L450.85,210.04L451.06,197.07L451.16,156.73L452.02,24.05L452.23,45.34L452.34,50.82L453.4,197.9L453.62,176.32L453.72,161.53L454.36,83.27L454.79,101.33L454.9,113.95L456.07,249.78L456.18,229.12L456.28,217.06L457.24,119.52L457.46,126.06L457.56,145.87L458.52,257.28L458.63,255.93L458.74,235.68L459.8,77.02L460.02,94.23L460.12,113.95L461.08,252.52L461.19,250.47L461.3,220.89L462.25,43.96L462.57,58.89L462.68,79.53L463.75,204.44L463.85,186.04L464.71,74.49L464.81,95.42L464.92,126.06L466.31,229.86L466.52,203.63L466.63,197.07L467.48,143.85L467.69,155.76L467.8,164.36L468.76,257.96L468.87,256.6L468.97,243.51L470.15,153.81L470.25,156.73L470.36,169.03L471.43,266.62L471.53,251.15L472.6,133.52L472.81,143.85L472.92,154.79L473.98,259.3L474.09,247.7L475.26,122.81L475.48,149.87L475.58,174.52L476.33,232.06L476.54,226.16L476.65,217.06L477.29,102.5L477.82,117.3L477.93,119.52L478.04,120.62L478.14,154.79L479,232.06L479.1,228.38L479.21,232.06L479.96,178.12L480.06,169.03L480.7,219.37L480.81,232.79L480.92,232.06L481.02,234.96L481.13,239.98L481.66,262.64L481.77,253.89L481.88,239.27L482.62,179.9L482.94,191.19L483.05,197.9L484.22,285.43L484.33,276.42L484.43,254.57L485.29,186.04L485.5,186.7L485.61,187.02L487.63,192.88L487.74,187.76L488.06,173.61L488.27,188.62L488.38,208.45L488.81,253.21L489.34,249.78L489.45,245.61L489.98,181.67L490.19,206.05L490.3,223.16L491.58,246.31L491.69,254.57L492.22,210.04L492.33,186.04L492.43,186.9L492.54,197.07L492.65,217.06L493.07,172.7L493.18,187.76L493.29,185.17L494.46,238.55L494.56,237.12L494.78,229.86L494.99,233.51L495.1,216.29L495.2,201.19L495.31,234.96L495.74,226.9L495.84,217.83L496.8,237.12L496.91,239.27L497.02,242.1L497.23,237.84L497.34,229.86L498.19,175.42L498.3,183.42L498.4,191.19L499.47,245.61L499.68,242.81L499.79,234.24L500.54,156.73L500.86,183.71L500.96,190.33L502.24,259.3L502.46,238.55L502.56,223.16L503.42,158.66L503.63,168.1L503.74,195.4L504.69,265.96L504.8,255.93L504.91,226.16L505.87,135.62L506.08,143.85L506.19,155.76L507.25,263.97L507.36,251.84L508.32,127.14L508.53,130.35L508.64,141.81L509.81,228.38L509.92,224.66L510.99,131.41L511.2,142.83L511.31,152.83L512.37,236.4L512.48,231.33L513.33,84.51L513.65,108.28L513.76,117.3L514.93,212.4L515.04,209.25L515.14,206.86L516,120.62L516.32,127.14L516.42,151.85L517.49,242.1L517.6,236.4L518.77,96.61L518.88,104.82L518.98,116.19L520.05,244.92L520.16,229.12L521.33,58.89L521.44,65.47L521.54,77.02L522.61,224.66L522.72,209.25L523.78,21.12L523.89,35.55L524,35.55L525.17,212.4L525.28,197.9L525.38,157.7L526.45,20.5L526.55,24.05L527.73,214.74L527.83,190.33L527.94,155.76L528.69,20.5L528.9,66.77L529.01,105.98L529.11,100.16L529.22,109.42L529.33,102.5L529.43,137.7L530.39,186.9L530.5,163.42L530.71,169.95L530.93,151.85L531.03,147.88L531.35,115.07L531.57,170.87L531.67,186.04L531.78,184.3L531.99,190.33L532.1,194.56L532.85,220.13L532.95,213.96L533.06,201.19L533.49,152.83L533.7,170.87L533.81,206.86L533.91,210.83L534.02,191.19L534.13,180.78L535.62,219.37L535.83,211.62L535.94,211.62L536.04,213.18L536.26,205.25L536.36,195.4L536.68,181.67L537.11,191.19L537.22,197.07L538.07,207.65L538.18,202.01L538.28,187.76L539.35,123.9L539.46,144.86L539.56,169.95L540.52,225.41L540.63,224.66L541.06,210.83L541.16,206.05L541.7,165.3L542.02,180.78L542.12,196.24L543.08,241.4L543.19,237.84L543.3,222.4L544.15,146.88L544.36,149.87L544.47,153.81L545.64,250.47L545.75,243.51L546.71,141.81L546.92,147.88L547.03,154.79L548.2,237.84L548.31,233.51L549.27,191.19L549.48,203.63L549.59,198.73L550.76,252.52L550.87,251.15L550.97,237.12L552.04,137.7L552.15,140.79L552.89,231.33L553.21,229.86L553.32,220.13L553.43,223.16L553.53,204.44L554.49,132.47L554.6,150.86L554.71,148.87L555.77,209.25L555.88,213.18L555.99,217.06L556.09,210.04L556.2,193.72L556.63,135.62L557.16,146.88L557.26,166.24L557.37,162.48L557.48,179.01L557.58,198.73L557.8,195.4L557.9,202.82L558.01,202.82L558.12,203.63L558.65,220.13L558.86,210.83L558.97,204.44L559.4,200.37L560.04,220.89L560.14,220.13L560.25,222.4L560.57,221.65L560.68,225.41L560.78,229.86L560.89,234.96L561.21,224.66L561.32,217.06L562.28,146.88L562.49,162.48L562.6,199.55L563.56,247.7L563.66,239.27L564.84,91.82L564.94,101.33L565.05,126.06L566.44,192.88L566.54,197.07L566.97,209.25L567.4,169.03L567.61,181.67L567.72,200.37L568.67,234.96L568.78,232.79L569.85,120.62L570.06,133.52L570.17,161.53L571.23,239.27L571.34,238.55L571.45,239.27L571.55,235.68L571.66,232.06L572.41,201.19L572.62,217.83L572.73,223.91L573.79,251.15L573.9,249.78L574.01,237.12L574.86,195.4L574.97,197.07L575.07,202.01L575.39,230.59L575.5,244.92L576.35,276.42L576.46,275.13L576.57,256.6L577.53,195.4L577.63,192.03L578.06,242.1L578.17,251.84L578.27,249.78L578.38,259.97L578.48,259.3L578.59,263.31L579.02,259.3L579.12,246.31L580.08,174.52L580.19,213.96L580.3,200.37L580.51,226.16L580.83,216.29L580.94,226.9L581.58,245.61L581.68,226.9L581.79,220.89L582.64,167.17L582.86,178.12L582.96,195.4L583.71,251.15L583.92,242.81L584.03,240.69L584.14,241.4L584.24,232.06L585.2,165.3L585.42,171.79L585.52,185.17L586.27,226.9L586.59,219.37L586.7,219.37L587.87,86.96L587.98,115.07L588.08,161.53L589.04,215.52L589.15,217.83L589.25,218.6L589.36,215.52L589.47,211.62L590.32,166.24L590.53,179.01L590.64,189.48L591.49,217.83L591.6,216.29L591.71,216.29L591.81,220.13L592.13,208.45L592.24,205.25L592.35,203.63L592.45,210.83L592.56,217.83L592.67,213.18L592.99,220.89L593.09,230.59L594.16,255.93L594.27,260.64L594.59,251.15L594.69,244.92L595.44,182.55L595.65,191.19L595.76,210.04L596.72,267.94L596.83,268.6L597.47,186.04L597.57,178.12L598.11,162.48L598.21,168.1L598.32,181.67L599.39,267.28L599.49,268.6L600.45,145.87L600.77,158.66L600.88,174.52L601.62,242.81L601.84,234.24L601.94,239.27L602.26,209.25L602.37,192.03L603.01,126.06L603.33,133.52L603.44,156.73L604.4,226.9L604.5,228.38L604.61,229.12L604.72,217.06L605.36,109.42L605.68,140.79L605.78,144.86L606.85,224.66L606.96,226.16L607.17,229.86L607.28,215.52L608.13,115.07L608.24,133.52L608.34,152.83L609.62,229.12L609.73,224.66L609.84,213.96L610.9,113.95L611.01,122.81L611.11,152.83L611.97,213.96L612.07,208.45L612.18,210.04L612.61,188.62L612.71,169.95L613.46,90.62L613.57,102.5L613.67,150.86L614.21,213.18L614.53,206.05L614.63,200.37L614.85,203.63L614.95,194.56L615.17,205.25L615.27,191.19L615.38,184.3L615.49,196.24L615.7,147.88L615.81,130.35L617.3,226.16L617.51,220.13L617.62,194.56L618.37,110.56L618.58,113.95L618.69,119.52L619.65,223.16L619.75,226.9L619.97,231.33L620.07,220.89L620.18,192.03L621.03,102.5L621.14,107.13L621.24,130.35L622.2,203.63L622.31,203.63L622.52,207.65L622.63,204.44L622.74,185.17L623.16,135.62L623.48,159.62L623.59,173.61L625.19,239.27L625.3,234.96L626.15,188.62L626.26,193.72L626.36,202.82L627.54,289.9L627.64,291.81L628.71,171.79L628.92,179.9L629.03,213.18L629.99,278.36L630.1,275.78L630.2,276.42L631.16,150.86L631.48,169.03L631.59,202.82L632.33,258.63L632.55,251.15L632.65,259.3L633.83,203.63L633.93,212.4L634.04,215.52L635,265.96L635.11,261.98L635.21,263.31L635.64,249.09L635.75,234.96L636.17,210.04L636.49,215.52L636.6,219.37L637.77,251.84L637.88,253.21L638.31,237.84L638.41,232.06L638.63,213.18L639.05,225.41L639.16,231.33L640.44,271.22L640.55,266.62L641.19,228.38L641.51,240.69L641.61,248.4L642.57,261.31L642.68,260.64L643.32,257.28L643.42,253.21L644.17,238.55L644.28,247.01L644.38,260.64L645.45,294.35L645.56,291.81L645.88,271.22L645.98,247.01L646.52,208.45L646.84,217.83L646.94,243.51L648.01,289.9L648.12,290.54L648.33,265.3L648.44,240.69L649.08,186.9L649.4,199.55L649.5,223.91L649.82,255.93L650.25,243.51L650.36,234.96L650.46,241.4L650.89,228.38L651,219.37L651.64,166.24L651.96,186.04L652.06,209.25L652.6,251.15L652.91,237.84L653.02,239.27L653.23,251.84L653.45,221.65L653.55,201.19L654.3,160.57L654.51,178.12L654.62,188.62L655.79,236.4L655.9,234.96L656.01,229.86L656.86,166.24L657.07,176.32L657.18,210.83L658.25,255.25L658.35,251.84L659.42,129.28L659.63,161.53L659.74,189.48L660.91,264.64L661.02,258.63L661.55,178.12L661.66,153.81L661.87,149.87L662.09,163.42L662.19,179.9L663.26,233.51L663.36,231.33L663.9,243.51L664.11,237.12L664.22,233.51L664.54,208.45L664.86,229.86L664.96,242.1L666.03,294.99L666.14,296.26L667.1,224.66L667.2,226.9L667.31,236.4L668.48,313.4L668.59,306.41L669.66,234.24L669.76,235.68L669.87,246.31L671.15,323.66L671.26,314.68L672.22,221.65L672.32,223.91L672.43,239.27L673.6,314.04L673.71,313.4L673.82,307.68L674.67,169.95L674.77,173.61L674.88,179.01L676.27,296.89L676.37,289.9L677.23,186.04L677.44,202.01L677.55,210.83L678.51,263.31L678.72,257.28L678.83,231.33L679.25,239.98L679.47,234.96L679.57,230.59L679.89,227.64L680.11,232.79L680.21,237.84L681.49,273.83L681.6,268.6L681.71,251.15L682.35,209.25L682.56,216.29L682.67,222.4L683.73,239.98L683.84,240.69L683.95,243.51L684.16,238.55L684.27,230.59L684.9,215.52L685.12,223.16L685.22,229.86L685.86,251.15L686.18,248.4L686.29,247.7L686.5,251.84L686.72,247.01L686.82,234.96L687.14,215.52L687.57,223.91L687.68,225.41L687.78,223.91L688,228.38L688.32,226.16L688.42,230.59L688.96,228.38L689.06,231.33L689.17,231.33L689.49,217.06L689.6,207.65L689.81,200.37L689.92,208.45L690.02,231.33L690.45,227.64L690.56,234.96L690.66,242.81L690.77,242.1L690.88,244.92L690.98,246.31L691.41,244.92L691.62,249.78L691.73,242.1L691.84,243.51L691.94,234.96L692.48,213.18L692.8,220.89L692.9,229.86L694.08,267.94L694.18,267.28L694.29,266.62L695.14,179.9L695.46,208.45L695.57,220.13L695.89,220.89L696.21,197.07L696.31,202.01L696.42,221.65L696.74,237.12L697.27,232.06L697.38,234.24L697.7,218.6L698.02,232.79L698.13,248.4L699.09,280.94L699.3,272.53L699.41,269.91L700.26,191.19L700.58,205.25L700.69,211.62L701.75,237.12L701.86,236.4L702.07,237.84L702.18,234.24L702.29,233.51L702.5,223.16L702.61,234.96L702.71,255.93L704.1,301.33L704.42,296.26L704.53,292.45L705.49,261.31L705.59,261.98L705.7,273.83L706.55,290.54L706.66,293.72L707.3,277.07L707.4,267.94L707.72,257.96L708.26,260.64L708.36,263.97L709.22,258.63L709.32,260.64L709.54,261.98L709.64,258.63L709.75,256.6L709.86,269.26L710.5,262.64L710.6,264.64L710.82,267.94L710.92,271.87L711.67,292.45L711.78,302.6L711.88,305.77L712.2,303.87L712.31,294.99L712.84,263.97L713.27,273.18L713.38,275.13L713.48,274.48L713.7,277.07L713.8,277.72L714.76,286.07L714.87,284.15L714.98,280.3L715.72,263.97L715.83,267.94L715.94,275.78L716.04,280.94L716.68,277.72L716.79,278.36L718.39,244.92L718.49,245.61L718.6,244.92L719.24,236.4L719.35,247.7L719.88,260.64L720.31,255.25L720.41,253.89L721.16,261.98L721.27,265.96L722.12,274.48L722.23,272.53L723.4,248.4L723.51,249.09L723.61,263.97L723.83,266.62L723.93,271.87L724.47,286.07L724.89,282.23L725,281.59L725.32,253.21L725.43,244.22L725.96,212.4L726.07,219.37L726.17,237.84L727.34,272.53L727.56,267.28L727.66,257.28L728.52,188.62L728.62,196.24L728.73,213.96L730.01,242.81L730.12,240.69L730.22,239.27L730.33,225.41L730.97,158.66L731.18,179.9L731.29,195.4L732.57,253.21L732.68,248.4L732.78,249.09L733.42,150.86L733.74,178.12L733.85,206.86L735.02,267.94L735.13,266.62L735.56,229.86L735.66,210.83L736.09,187.76L736.3,208.45L736.41,222.4L737.79,269.91L738.01,257.28L738.11,248.4L738.54,229.86L738.86,232.79L738.97,247.01L739.61,279.65L739.93,272.53L740.03,271.87L740.78,232.79L740.89,218.6L741.21,202.01L741.53,226.9L741.63,236.4L741.85,239.98L741.95,244.22L742.81,251.84L742.91,251.84L743.13,237.12L743.23,223.16L743.77,202.82L743.87,228.38L743.98,241.4L744.41,261.98L744.83,254.57L744.94,253.89L745.26,253.21L745.69,257.28L745.79,253.21L746.33,238.55L746.65,246.31L746.75,247.7L747.18,244.22L747.29,249.09L747.39,262.64L747.61,279.01L748.03,272.53L748.14,269.91L748.88,226.9L748.99,215.52L750.48,279.65L750.7,271.87L750.8,265.3L751.44,212.4L751.76,232.06L751.87,242.1L753.15,285.43L753.26,275.78L753.36,264.64L753.79,221.65L754.22,234.96L754.32,244.92L754.86,277.07L755.18,260.64L755.28,255.93L755.6,257.96L755.82,255.25L755.92,253.21L756.56,238.55L756.88,243.51L756.99,248.4L757.63,277.07L757.74,266.62L757.84,253.21L758.38,261.31L758.48,257.28L758.59,252.52L759.12,213.18L759.23,223.16L759.33,234.96L759.87,247.01L760.08,242.1L760.19,241.4L760.93,247.7L761.04,237.12L761.68,214.74L761.79,215.52L761.89,229.12L762.96,281.59L763.07,281.59L763.39,293.72L763.6,273.18L763.71,257.96L764.35,217.83L764.56,240.69L764.67,245.61L765.52,265.3L765.63,265.3L765.95,261.98L766.05,250.47L766.37,199.55L766.91,226.9L767.01,236.4L767.12,235.68L767.23,239.27L767.33,243.51L767.44,245.61L767.55,273.18L767.97,292.45L768.4,289.26L768.51,289.9L768.61,290.54L768.72,287.99L768.83,284.15L769.25,269.91L769.47,280.3L769.57,286.07L769.68,282.87L770,293.08L770.1,294.35L770.53,305.77L771.06,303.87L771.17,300.06L771.81,273.83L772.13,282.23L772.24,284.15L773.2,294.35L773.3,296.26L773.62,314.04L773.73,302.6L773.84,294.99L774.16,273.18L774.58,285.43L774.69,288.63L775.22,294.99L775.33,300.7L776.18,338.03L776.29,325.6L776.4,306.41L776.93,269.91L777.14,288.63L777.25,298.16L777.57,315.96L777.68,325.6L778.53,310.22L778.64,308.95L778.96,302.6L779.06,300.06L781.19,251.15L781.3,251.84L782.05,214.74L782.37,229.86L782.47,238.55L783.86,261.98L784.18,257.28L784.29,253.89L784.5,249.78L784.82,255.25L784.93,259.3L786.42,277.72L786.53,273.18L786.63,263.31L787.06,247.7L787.38,261.98L787.49,271.87L788.02,264.64L788.34,267.28L788.45,269.26L788.98,282.23L789.19,277.72L789.3,268.6L789.51,259.97L789.94,269.91L790.05,281.59L790.69,301.33L791.11,296.89L791.22,293.08L791.43,303.24L791.75,288.63L791.86,282.23L792.07,269.91L792.6,281.59L792.71,284.79L793.03,291.17L793.46,290.54L793.56,289.9L793.88,294.99L793.99,299.43L794.1,300.7L794.2,293.72L794.31,284.15L794.84,263.31L795.16,272.53L795.27,278.36L796.44,296.89L796.55,296.89L797.3,286.07L797.62,288.63L797.72,289.26L798.26,290.54L798.36,297.53L799.11,304.5L799.22,303.87L799.32,301.97L799.96,284.79L800.18,297.53L800.28,304.5L801.77,337.37L801.88,338.69L802.52,293.08L802.63,303.24L802.73,314.04L803.16,318.51L803.48,314.04L803.59,312.77L804.12,318.51L804.23,322.37L804.55,326.89L804.97,323.66L805.08,321.72L805.4,323.01L805.83,317.87L805.93,307.68L806.04,310.86L806.57,305.77L806.68,305.77L806.79,308.31L807.11,301.33L807.21,296.26L807.64,291.81L807.75,292.45L807.85,300.06L808.6,307.68L808.71,305.14L808.81,305.77L809.45,312.77L809.56,310.86L809.67,307.68L810.2,287.99L810.52,297.53L810.63,298.16L811.59,329.49L811.69,334.07L812.76,288.63L812.86,292.45L812.97,300.7L813.61,310.22L813.93,307.68L814.04,306.41L814.14,309.58L814.57,299.43L814.68,291.81L814.89,274.48L815.42,289.9L815.53,294.35L816.6,301.33L816.7,301.33L817.13,307.04L817.34,301.33L817.45,298.8L818.09,294.99L818.2,299.43L818.3,305.77L818.52,297.53L818.94,301.97L819.05,302.6L819.58,307.68L819.69,310.22L820.12,298.16L820.22,290.54L820.44,277.72L820.86,296.89L820.97,296.26L821.29,290.54L821.61,299.43L821.72,298.8L822.25,307.04L822.36,306.41L822.46,296.89L822.99,283.51L823.1,286.07L823.21,293.72L824.17,316.59L824.27,315.96L824.38,314.68L824.59,324.95L824.81,317.87L824.91,312.77L825.34,288.63L825.77,296.89L825.87,299.43L827.15,316.59L827.37,315.32L827.47,313.4L828.11,295.62L828.43,301.33L828.54,302.6L828.75,307.68L828.86,310.22L830.03,306.41L830.14,302.6L830.67,297.53L830.89,300.7L830.99,301.33L831.85,308.95L831.95,308.31L832.06,309.58L832.81,311.49L832.91,310.22L834.3,303.24L834.4,305.77L834.72,308.31L834.83,307.04L834.94,303.87L835.68,246.31L836,257.96L836.11,261.31L836.32,261.98L836.43,268.6L837.71,308.95L837.82,302.6L837.92,286.71L838.35,267.94L838.56,282.87L838.67,291.81L838.78,290.54L838.88,308.31L838.99,305.14L839.2,319.16L839.31,317.87L839.74,318.51L840.27,312.77L840.38,311.49L841.02,305.14L841.12,306.41L841.23,308.31L841.76,312.77L841.98,309.58L842.08,308.95L843.47,285.43L843.68,288.63L843.79,288.63L845.07,305.14L845.17,298.8L845.28,298.8L845.6,295.62L845.71,289.9L846.67,271.87L846.77,270.57L846.88,269.26L846.99,275.78L847.09,275.78L847.31,279.01L847.63,275.78L847.73,272.53L847.95,279.01L848.05,271.22L848.27,261.31L848.8,269.91L848.91,269.91L849.65,281.59L849.76,279.65L849.87,279.01L850.08,280.94L850.4,278.36L850.51,277.72L850.72,275.13L850.83,280.3L851.68,317.87L851.89,312.13L852,310.22L852.11,309.58L852.21,311.49L852.32,314.68L852.96,316.59L853.28,303.87L853.39,305.14L853.49,303.24L853.71,301.97L853.81,308.31L854.66,341.36L854.77,325.6L854.88,332.1L855.09,332.1L855.2,329.49L856.16,318.51L856.26,319.16L856.37,323.01L857.33,328.84L857.54,328.19L857.65,328.84L857.97,330.14L858.08,328.84L858.18,328.19L858.29,327.54L858.4,322.37L858.61,310.86L859.14,319.16L859.25,317.23L860.21,326.24L860.32,324.95L860.64,329.49L860.74,327.54L860.85,322.37L861.28,298.16L861.6,312.13L861.7,323.01L863.2,355.66L863.3,347.42L863.84,297.53L864.26,317.23L864.37,331.45L865.22,358.46L865.43,354.28L865.54,352.21L866.5,339.36L866.61,341.36L866.71,340.69L866.93,344.72L867.46,342.7L867.57,342.03L868.74,325.6L868.85,317.87L869.06,307.04L869.59,311.49L869.7,310.86L871.51,275.78L871.73,280.94L871.83,284.15L871.94,283.51L872.05,286.07L872.15,286.07L872.26,290.54L872.69,291.81L873.22,286.07L873.33,286.71L873.43,286.71L873.54,291.81L873.86,279.65L873.97,275.78L874.07,271.22L874.29,276.42L874.71,271.87L874.82,272.53L875.14,268.6L875.99,298.16L876.1,295.62L876.2,284.79L876.52,273.83L876.84,281.59L876.95,287.99L878.44,324.95L878.55,320.44L879.4,306.41L879.51,321.08L880.15,340.69L880.47,335.39L880.58,337.37L880.68,336.05L880.9,340.02L881,344.72L881.11,344.04L881.22,344.72L881.32,338.03L881.86,323.01L882.18,326.24L882.28,328.19L883.14,319.16L883.35,321.72L883.46,322.37L883.67,323.01L883.88,317.87L883.99,315.32L884.1,316.59L884.31,313.4L884.42,313.4L884.52,311.49L885.59,334.73L885.91,330.14L886.02,330.14L886.12,331.45L886.44,328.84L886.55,325.6L886.65,328.84L886.87,312.13L886.97,309.58L887.19,306.41L887.29,310.86L887.51,310.86L887.61,314.04L888.47,308.95L888.57,314.68L888.89,303.87L889,289.9L889.21,279.65L889.43,291.17L889.75,289.9L889.85,287.35L890.17,282.87L890.49,289.26L890.6,299.43L891.99,248.4L892.09,271.22L892.84,287.35L892.95,286.71L893.05,284.15L893.37,284.15L893.48,286.71L893.8,292.45L893.91,296.26L894.01,299.43L894.23,284.79L894.33,280.3L894.55,270.57L894.76,285.43L894.87,291.81L895.51,307.68L895.72,303.24L895.83,300.06L895.93,298.8L896.15,303.24L896.25,307.68L896.57,309.58L896.79,293.72L896.89,279.01L897,263.97L897.53,286.71L897.64,289.9L898.06,283.51L898.28,295.62L898.38,291.81L898.49,290.54L898.7,301.33L898.92,296.89L899.02,287.35L899.13,289.9L899.24,284.15L899.34,284.15L899.45,267.28L899.77,247.7L900.09,277.72L900.2,284.79L900.41,296.26L900.84,278.36L900.94,286.71L901.05,278.36L901.48,315.96L901.8,296.89L901.9,281.59L902.22,269.26L902.54,280.94L902.65,291.81L902.76,289.26L902.86,304.5L903.08,296.26L903.5,298.16L903.61,311.49L903.72,313.4L904.04,308.31L904.14,295.62L904.57,269.91L905.1,275.13L905.21,278.36L905.42,262.64L905.64,273.83L905.74,280.3L906.7,313.4L907.02,303.24L907.13,300.06L907.45,285.43L907.87,296.89L907.98,299.43L908.3,313.4L908.83,309.58L908.94,307.68L909.69,298.16L909.79,284.15L910.11,280.3L910.33,284.15L910.43,285.43L911.39,294.99L911.5,293.72L911.61,292.45L912.03,294.99L912.14,294.35L912.25,289.26L912.35,289.9L912.46,286.71L912.57,284.15L912.89,295.62L913.53,293.72L913.63,291.81L914.49,305.77L914.7,299.43L914.81,296.89L914.91,298.16L915.13,294.99L915.23,286.71L915.45,286.71L915.55,284.15L916.51,289.9L916.62,292.45L917.58,286.07L917.69,289.26L918.86,305.14L919.18,304.5L919.28,304.5L919.5,307.68L919.71,306.41L919.82,298.8L920.03,286.71L920.35,298.16L920.46,304.5L921.31,313.4L921.42,312.77L921.52,313.4L922.27,306.41L922.38,302.6L922.7,299.43L922.91,306.41L923.02,307.68L923.44,329.49L923.87,328.84L923.98,331.45L924.3,333.41L924.62,331.45L924.72,330.79L924.83,331.45L924.94,327.54L925.26,320.44L925.68,327.54L925.79,335.39L927.18,371.35L927.28,362.7L927.92,321.08L928.24,337.37L928.35,338.69L929.09,358.46L929.31,352.9L929.41,350.15L929.73,353.59L929.84,351.52L929.95,344.04L930.48,294.99L930.8,319.16L930.91,321.72L931.23,336.05L931.87,335.39L931.97,332.76L932.29,338.03L932.51,330.79L932.61,321.72L932.83,296.26L933.36,308.31L933.47,311.49L934,329.49" style="vector-effect: none; fill: none; stroke: rgb(0, 117, 173); stroke-opacity: 1; stroke-width: 2px; opacity: 1;"/></g><g class="points"/><g class="text"/></g></g></g><g class="overplot"><g class="xy2" transform="translate(80,25)" clip-path="url(#clip35700cxy2plot)"><g class="scatterlayer mlayer"><g class="trace scatter trace8d02a1" style="stroke-miterlimit: 2; opacity: 1;"><g class="fills"/><g class="errorbars"/><g class="lines"><path class="js-line" d="M0,276.09L0.85,272.8L0.96,273.62L2.24,284.31L2.35,292.52L2.45,288.42L2.67,302.39L2.77,302.39L2.88,309.78L3.31,314.71L3.41,309.78L3.52,306.5L3.73,304.03L3.84,308.14L3.95,307.32L4.05,302.39L5.86,351.7L5.97,350.87L6.5,318.82L6.93,327.86L7.04,327.86L8.21,332.79L8.32,330.33L8.96,319.64L9.06,317.18L9.38,318L10.13,314.71L10.24,312.25L10.45,311.43L10.66,313.07L10.77,312.25L10.88,315.54L10.98,316.36L11.09,313.89L11.2,313.89L11.3,311.43L12.48,298.28L12.58,296.63L12.69,295.81L12.8,297.46L13.01,296.63L13.12,299.1L14.4,287.59L14.5,287.59L16.21,299.1L16.42,296.63L16.53,294.99L17.81,308.14L17.91,307.32L18.02,313.07L19.3,281.84L19.41,287.59L19.51,292.52L19.62,290.88L20.05,294.99L20.15,299.1L20.26,298.28L20.37,301.56L20.47,302.39L21.43,319.64L21.54,318.82L21.65,316.36L21.97,322.93L22.07,321.29L22.18,323.75L22.61,327.04L22.82,324.58L22.93,323.75L23.03,325.4L23.46,322.11L23.67,324.58L23.78,323.75L23.99,324.58L24.42,319.64L24.63,322.11L24.74,322.93L26.13,349.23L26.23,348.41L26.34,345.94L26.76,339.37L26.87,336.08L28.47,314.71L28.58,314.71L29.43,302.39L29.64,303.21L29.75,302.39L29.96,300.74L30.07,306.5L30.28,307.32L30.39,305.67L30.5,305.67L30.6,304.85L30.82,305.67L30.92,302.39L31.03,299.92L31.78,288.42L31.88,295.81L31.99,307.32L32.31,294.99L32.42,281.84L33.06,269.51L33.27,274.44L33.38,276.91L34.34,300.74L34.44,291.7L34.55,290.06L35.62,311.43L35.72,310.6L35.94,314.71L36.58,313.89L36.68,313.07L37.32,290.06L37.85,294.17L37.96,294.17L38.07,290.88L38.49,294.99L38.71,294.17L38.81,294.99L39.24,303.21L39.35,299.92L39.45,293.35L39.88,285.95L40.09,294.99L40.2,298.28L40.95,302.39L41.05,299.92L41.16,305.67L41.37,293.35L41.69,301.56L41.8,293.35L42.12,261.3L42.55,278.55L42.65,279.38L42.76,280.2L42.87,294.17L42.97,288.42L43.29,303.21L43.4,307.32L44.36,326.22L44.57,319.64L44.68,313.07L44.89,309.78L45.11,313.07L45.21,317.18L46.07,345.94L46.17,345.12L46.28,348.41L46.92,358.27L47.03,348.41L47.45,314.71L47.77,323.75L47.88,330.33L49.37,387.86L49.48,372.24L50.33,345.94L50.44,348.41L50.54,352.52L50.76,350.05L50.86,355.81L50.97,361.56L51.93,389.5L52.04,384.57L52.14,371.42L52.68,323.75L53,341.01L53.1,350.87L53.74,378.82L53.96,361.56L54.06,359.09L54.38,365.67L54.49,368.13L55.34,349.23L55.56,353.34L55.66,351.7L55.77,350.87L55.88,354.98L55.98,355.81L56.41,363.2L56.84,360.74L56.94,361.56L57.26,363.2L57.37,361.56L57.48,358.27L57.58,354.98L58.12,360.74L58.22,361.56L58.65,368.95L58.75,364.85L58.86,363.2L58.97,364.02L59.18,361.56L59.39,361.56L59.5,360.74L59.61,362.38L59.71,360.74L59.82,353.34L60.03,341.83L60.57,349.23L60.67,351.7L61.53,368.13L61.63,374.71L62.91,349.23L63.02,346.77L63.87,333.62L64.19,336.9L64.3,338.55L65.47,288.42L65.9,296.63L66.01,299.1L66.11,296.63L66.22,301.56L66.75,298.28L66.86,299.92L67.18,301.56L67.29,298.28L67.39,295.81L67.5,299.1L67.71,287.59L67.82,282.66L68.03,270.34L68.46,286.77L68.57,286.77L68.78,281.84L68.99,295.81L69.1,301.56L69.95,310.6L70.06,309.78L70.48,298.28L70.8,308.14L70.91,313.89L72.3,318.82L72.4,318.82L72.51,320.47L72.72,315.54L72.83,313.89L73.15,299.92L73.36,316.36L73.47,322.11L74.86,347.59L74.96,346.77L75.71,305.67L75.82,297.46L76.88,337.72L76.99,346.77L77.42,368.13L77.63,360.74L77.74,339.37L78.16,300.74L78.48,310.6L78.59,318.82L79.02,327.04L79.23,317.18L79.34,317.18L79.55,320.47L79.65,318L79.76,315.54L80.08,318.82L80.29,317.18L80.4,308.14L80.72,295.81L81.15,307.32L81.25,311.43L82.21,316.36L82.32,313.07L82.43,313.89L82.75,311.43L82.85,310.6L83.17,298.28L83.28,283.48L83.49,276.09L83.71,291.7L83.81,302.39L84.03,300.74L84.56,310.6L84.67,304.85L84.77,305.67L85.31,313.89L85.41,317.18L86.59,329.51L86.69,324.58L86.8,322.93L87.01,325.4L87.12,325.4L87.23,327.86L87.87,377.17L88.08,343.48L88.19,316.36L88.29,307.32L88.72,325.4L88.83,340.19L89.25,363.2L89.47,350.87L89.57,348.41L91.06,328.68L91.17,331.15L91.92,360.74L92.13,358.27L92.24,359.09L92.77,367.31L93.09,365.67L93.2,364.02L93.52,339.37L93.94,354.16L94.05,356.63L95.01,367.31L95.12,365.67L95.22,362.38L95.44,366.49L95.65,353.34L95.76,342.66L96.82,305.67L96.93,308.96L97.04,306.5L97.36,314.71L97.57,309.78L97.68,310.6L97.78,313.07L98.1,304.03L98.21,296.63L98.85,270.34L99.06,284.31L99.17,286.77L99.38,285.95L99.49,292.52L99.92,302.39L100.24,299.1L100.34,293.35L100.56,294.99L100.66,287.59L101.3,251.43L101.51,258.01L101.62,263.76L102.26,289.24L102.79,286.77L102.9,283.48L103.33,271.16L103.43,251.43L103.97,235.82L104.07,250.61L104.18,258.01L105.14,291.7L105.25,293.35L105.67,305.67L105.99,300.74L106.1,298.28L106.42,287.59L106.95,292.52L107.06,305.67L107.27,302.39L107.59,312.25L107.91,310.6L108.02,313.07L109.09,296.63L109.3,301.56L109.41,302.39L109.62,301.56L109.94,307.32L110.26,305.67L110.37,318L110.69,330.33L110.9,317.18L111.01,304.85L111.64,259.65L111.86,281.84L111.96,291.7L113.03,333.62L113.14,333.62L113.24,334.44L113.35,325.4L114.2,231.71L114.42,255.54L114.52,275.27L115.59,337.72L115.7,334.44L115.91,339.37L116.02,322.11L116.12,310.6L116.66,207.88L116.98,237.46L117.08,248.15L117.62,286.77L117.72,302.39L118.36,336.9L118.58,312.25L118.68,295.81L119.22,221.85L119.54,250.61L119.64,263.76L120.18,315.54L120.6,309.78L120.71,310.6L120.82,311.43L120.92,306.5L121.03,308.96L121.14,299.1L121.88,212.81L122.09,232.53L122.2,259.65L123.16,320.47L123.27,315.54L123.59,324.58L123.69,304.85L123.8,283.48L124.44,202.95L124.65,238.28L124.76,262.94L125.4,326.22L125.72,324.58L125.83,319.64L125.93,320.47L126.04,318L126.15,315.54L126.79,227.6L127.21,259.65L127.32,268.69L128.71,336.08L128.81,321.29L129.56,243.21L129.77,255.54L129.88,257.19L130.95,315.54L131.16,310.6L131.27,315.54L131.8,231.71L132.33,248.97L132.44,253.08L132.65,266.23L133.18,263.76L133.29,256.36L133.61,264.58L133.93,258.01L134.04,253.08L134.68,239.11L134.78,247.32L134.89,254.72L136.06,330.33L136.17,328.68L136.28,330.33L136.38,329.51L136.49,319.64L137.02,268.69L137.34,281.02L137.45,290.88L138.62,350.87L138.73,341.83L138.94,347.59L139.05,318.82L139.8,238.28L140.01,265.4L140.12,281.02L141.4,350.05L141.5,341.83L141.61,321.29L142.36,199.66L142.68,239.11L142.78,262.12L144.06,330.33L144.17,309.78L144.91,187.33L145.13,205.41L145.23,230.07L146.3,322.93L146.41,317.18L146.51,322.11L146.62,320.47L146.73,289.24L147.47,179.11L147.69,196.37L147.79,229.24L148.97,306.5L149.07,293.35L149.29,255.54L149.39,219.38L150.03,182.4L150.25,202.95L150.35,204.59L151.31,267.05L151.53,266.23L151.63,261.3L151.85,261.3L151.95,264.58L152.59,249.79L152.81,254.72L152.91,258.83L153.77,269.51L153.87,271.16L154.19,285.13L154.62,271.98L154.72,267.87L155.26,255.54L155.47,261.3L155.58,263.76L155.79,271.16L155.9,259.65L156.22,260.47L156.32,259.65L156.75,267.05L156.86,262.12L156.96,256.36L157.82,223.49L157.92,232.53L158.03,239.11L158.24,253.08L158.88,249.79L158.99,245.68L159.31,253.9L159.63,216.92L159.95,233.35L160.06,239.11L160.38,244.04L160.48,242.39L160.59,276.91L161.23,292.52L161.55,291.7L161.66,293.35L161.76,306.5L162.19,277.73L162.3,265.4L162.4,254.72L162.83,276.09L162.94,284.31L163.15,280.2L163.58,285.13L163.68,286.77L163.9,282.66L164.11,297.46L164.22,299.1L164.32,299.92L164.43,295.81L164.53,290.06L165.39,221.85L165.6,234.17L165.71,235.82L166.99,267.05L167.09,258.83L167.31,225.13L167.84,231.71L167.95,262.94L168.05,250.61L168.37,272.8L168.59,269.51L168.69,276.09L168.91,271.16L169.12,275.27L169.23,283.48L169.33,286.77L169.55,273.62L169.65,278.55L169.76,272.8L170.4,234.17L170.51,241.57L170.61,263.76L170.72,262.12L170.83,276.09L171.25,300.74L171.57,281.02L171.68,281.84L172.43,257.19L172.53,247.32L172.75,233.35L173.28,241.57L173.39,241.57L173.71,240.75L174.35,249.79L174.45,248.15L174.56,253.08L174.88,267.87L174.99,250.61L175.09,230.89L175.2,232.53L175.3,221.85L175.52,207.88L175.84,225.96L175.94,237.46L176.58,298.28L177.12,290.06L177.22,292.52L177.33,294.17L177.44,308.96L177.76,289.24L177.86,307.32L178.08,276.09L178.61,301.56L178.72,304.85L179.04,292.52L179.46,305.67L179.57,305.67L179.68,306.5L179.89,304.03L180,297.46L180.74,253.9L180.96,260.47L181.06,265.4L181.38,274.44L181.6,260.47L181.7,265.4L181.81,263.76L181.92,256.36L182.13,284.31L182.24,286.77L182.45,286.77L182.56,280.2L183.3,255.54L183.52,267.87L183.62,272.8L184.26,304.03L184.58,290.88L184.69,290.88L184.8,293.35L185.01,286.77L185.12,278.55L186.07,294.99L186.18,291.7L186.93,276.09L187.03,304.85L187.67,271.98L187.89,276.91L187.99,275.27L188.74,235.82L189.06,236.64L189.17,236.64L189.38,235.82L190.34,244.86L190.45,243.21L190.55,236.64L190.98,221.85L191.19,231.71L191.3,244.04L191.41,244.86L191.51,258.83L191.83,292.52L192.26,276.91L192.37,270.34L192.79,239.11L192.9,221.85L193.33,187.33L193.54,220.2L193.65,271.98L194.82,304.03L194.93,302.39L195.03,307.32L195.25,297.46L195.35,284.31L195.57,290.06L195.67,278.55L195.78,261.3L196.1,258.83L197.16,318L197.27,317.18L197.38,323.75L197.59,328.68L197.8,315.54L197.91,294.17L198.76,259.65L198.87,267.87L198.98,280.2L200.15,353.34L200.26,352.52L200.36,332.79L201.11,239.93L201.32,242.39L201.43,248.97L202.82,343.48L202.92,320.47L203.78,204.59L203.99,216.92L204.1,229.24L205.38,330.33L205.48,307.32L206.23,179.11L206.55,197.19L206.66,209.52L207.93,311.43L208.04,290.06L208.68,176.65L209,182.4L209.11,198.01L210.49,312.25L210.6,302.39L210.71,288.42L211.35,189.8L211.56,212.81L211.67,227.6L212.2,284.31L212.52,264.58L212.63,266.23L212.95,301.56L213.37,267.05L213.48,268.69L213.69,281.84L213.8,262.12L214.55,308.96L214.76,304.03L214.87,304.03L214.97,304.85L215.08,301.56L215.19,312.25L215.29,311.43L215.4,317.18L215.61,312.25L215.72,304.03L216.57,262.12L216.79,270.34L216.89,276.09L218.06,294.17L218.17,293.35L218.28,286.77L218.7,239.93L219.34,250.61L219.45,259.65L220.62,293.35L220.73,292.52L220.84,278.55L221.58,222.67L221.8,227.6L221.9,230.07L223.29,290.88L223.4,267.05L224.25,193.91L224.36,196.37L224.46,203.77L225.74,316.36L225.85,310.6L226.92,175L227.02,182.4L227.13,193.08L228.09,301.56L228.19,300.74L228.3,302.39L228.41,305.67L228.51,294.17L228.62,268.69L229.26,170.07L229.58,179.93L229.69,190.62L230.86,293.35L230.97,295.81L231.29,246.5L231.39,226.78L231.93,188.97L232.25,206.23L232.35,217.74L233.31,290.88L233.63,277.73L233.74,261.3L234.59,156.92L234.91,184.04L235.02,216.92L235.13,209.52L235.45,237.46L235.55,238.28L235.66,239.93L235.77,233.35L235.87,259.65L235.98,258.01L236.09,271.16L237.26,173.36L237.37,175L237.47,179.93L237.58,267.05L238.11,293.35L238.54,285.95L238.65,285.13L238.86,274.44L238.96,257.19L239.39,236.64L239.5,221.85L240.46,282.66L240.56,284.31L241.31,288.42L241.42,286.77L241.52,284.31L242.48,243.21L242.59,256.36L242.7,271.98L242.91,271.16L243.12,273.62L243.23,276.91L243.44,277.73L243.87,269.51L243.98,264.58L244.94,179.93L245.04,187.33L245.15,205.41L246.32,304.03L246.43,290.06L246.54,265.4L247.28,183.22L247.6,197.19L247.71,207.05L248.67,289.24L248.99,276.91L249.1,255.54L249.84,192.26L250.05,205.41L250.16,214.45L251.33,259.65L251.44,262.12L252.29,193.08L252.51,212.81L252.61,235L252.72,230.89L252.93,239.11L253.04,239.11L253.15,245.68L254,285.13L254.21,275.27L254.32,265.4L254.85,211.16L255.28,226.78L255.39,239.11L255.6,247.32L255.71,259.65L256.67,307.32L256.88,293.35L256.99,278.55L257.52,233.35L257.84,243.21L257.95,249.79L259.01,336.9L259.23,324.58L259.33,308.96L260.08,257.19L260.4,270.34L260.5,273.62L261.68,308.14L261.78,303.21L261.89,291.7L262.74,246.5L262.85,251.43L262.96,256.36L264.24,313.07L264.34,307.32L264.45,295.81L265.2,240.75L265.41,253.9L265.52,262.94L266.8,290.88L266.9,285.95L267.12,248.15L267.22,220.2L267.65,193.91L267.76,189.8L268.93,281.02L269.04,315.54L269.57,249.79L269.68,233.35L270.42,170.07L270.64,191.44L270.74,198.84L271.7,237.46L271.81,235.82L271.91,239.11L272.13,226.78L272.23,217.74L272.87,167.61L273.19,183.22L273.3,199.66L274.47,276.91L274.58,262.94L274.69,227.6L275.54,155.28L275.75,165.14L275.86,179.93L277.03,247.32L277.14,226.78L278.1,142.13L278.21,143.77L278.31,151.17L279.27,263.76L279.59,244.04L279.7,225.96L280.66,138.84L280.77,142.13L281.3,205.41L281.4,235L282.04,302.39L282.26,266.23L282.36,229.24L283.11,136.38L283.32,142.13L283.43,148.7L284.71,278.55L284.82,253.9L285.78,138.02L285.88,142.95L286.31,186.51L286.42,202.95L287.06,239.93L287.38,220.2L287.48,206.23L288.34,154.46L288.55,162.68L288.66,173.36L289.83,234.17L289.94,221.85L290.79,105.15L291.11,126.52L291.22,142.95L292.28,272.8L292.39,268.69L292.49,233.35L293.45,113.37L293.67,125.69L293.77,141.31L294.84,267.05L294.95,262.94L295.05,252.26L295.37,231.71L295.8,252.26L295.91,257.19L296.23,246.5L296.65,256.36L296.76,257.19L297.08,254.72L297.29,259.65L297.4,263.76L297.51,264.58L297.61,259.65L298.47,207.05L298.68,216.92L298.79,264.58L300.07,290.06L300.17,284.31L301.13,229.24L301.24,235L301.35,242.39L302.41,295.81L302.52,296.63L303.26,237.46L303.58,252.26L303.69,254.72L304.12,264.58L304.54,260.47L304.65,259.65L305.4,250.61L305.5,246.5L305.61,248.15L305.72,238.28L306.36,208.7L306.57,229.24L306.68,239.11L307.64,311.43L307.74,307.32L307.85,285.95L308.81,180.76L308.92,183.22L309.13,195.55L309.24,214.45L310.2,282.66L310.3,274.44L310.41,256.36L310.94,169.25L311.37,179.93L311.48,179.11L312.65,246.5L312.76,245.68L313.29,242.39L313.39,235L313.71,216.92L314.14,228.42L314.25,235.82L315.1,281.02L315.42,271.98L315.53,260.47L315.85,237.46L316.06,272.8L316.17,283.48L317.23,308.96L317.34,307.32L317.87,317.18L317.98,310.6L318.09,304.85L319.15,255.54L319.26,262.94L319.37,273.62L320.43,341.01L320.54,335.26L320.65,312.25L321.5,251.43L321.61,253.08L321.71,250.61L321.93,256.36L322.03,266.23L322.25,275.27L322.35,286.77L322.99,327.04L323.1,318L323.21,291.7L324.16,218.56L324.27,221.85L324.48,227.6L324.59,242.39L325.12,265.4L325.44,259.65L325.55,263.76L326.51,214.45L326.83,216.09L326.94,220.2L328.11,268.69L328.22,263.76L328.32,250.61L329.07,202.12L329.18,213.63L329.28,219.38L329.5,218.56L330.78,243.21L330.88,232.53L331.95,194.73L332.06,204.59L332.8,250.61L333.12,240.75L333.23,237.46L333.76,192.26L333.87,175L334.4,186.51L334.51,236.64L335.89,279.38L336,277.73L336.11,275.27L337.07,216.92L337.28,227.6L337.39,237.46L338.35,288.42L338.45,278.55L338.56,267.87L339.31,200.48L339.63,202.12L339.73,207.05L340.91,315.54L341.12,286.77L341.23,265.4L341.65,219.38L342.08,229.24L342.19,230.89L343.47,313.07L343.68,293.35L343.79,272.8L344.53,223.49L344.64,227.6L344.75,243.21L346.02,276.09L346.13,273.62L346.24,267.87L346.88,225.13L347.2,245.68L347.3,248.15L348.58,267.05L348.69,265.4L349.86,163.5L350.08,176.65L350.18,192.26L351.14,269.51L351.25,262.94L351.36,234.17L352.21,144.6L352.42,156.1L352.53,161.85L353.7,259.65L353.81,247.32L353.92,228.42L354.88,130.62L355.09,155.28L355.2,169.25L356.26,233.35L356.37,223.49L356.9,185.69L357.33,197.19L357.43,195.55L358.71,222.67L358.82,221.85L359.78,212.81L359.99,214.45L360.1,216.09L360.95,227.6L361.06,229.24L361.38,231.71L361.59,230.89L361.7,228.42L362.66,201.3L362.87,210.34L362.98,226.78L363.94,291.7L364.05,283.48L364.15,261.3L365.01,170.89L365.11,172.54L365.22,168.43L365.54,183.22L365.65,208.7L366.5,270.34L366.6,255.54L367.56,141.31L367.78,149.53L367.88,153.64L368.95,244.04L369.06,248.97L369.7,146.24L370.02,171.72L370.12,193.91L370.23,170.89L370.76,211.99L370.87,225.13L371.62,246.5L371.72,239.93L371.83,218.56L372.79,147.88L372.9,148.7L373,147.06L374.18,237.46L374.28,229.24L374.39,201.3L375.35,149.53L375.46,159.39L375.78,175.83L375.88,189.8L375.99,190.62L376.1,185.69L376.63,211.99L377.05,208.7L377.16,202.95L377.48,195.55L378.87,241.57L378.97,242.39L379.29,249.79L379.4,245.68L379.51,239.93L380.57,199.66L380.68,207.05L380.79,213.63L381.85,285.95L381.96,271.98L382.07,242.39L382.92,159.39L383.03,163.5L383.13,161.03L383.35,169.25L383.45,181.58L384.31,215.27L384.41,216.09L384.84,172.54L384.95,157.74L385.05,163.5L385.37,150.35L385.48,150.35L385.59,146.24L385.69,139.66L386.01,158.57L386.12,180.76L386.97,237.46L387.08,221.85L387.19,193.91L388.14,110.08L388.25,110.9L388.36,109.26L388.46,120.76L389.42,226.78L389.53,221.85L389.64,208.7L390.6,92L390.7,93.64L390.81,94.46L391.02,109.26L391.13,125.69L392.09,208.7L392.2,187.33L392.3,165.96L393.16,81.32L393.37,87.07L393.48,152.81L394.65,212.81L394.76,203.77L394.86,183.22L395.82,85.42L395.93,87.89L396.04,93.64L397.21,181.58L397.32,170.07L397.42,151.99L398.27,77.21L398.49,81.32L398.59,85.42L400.09,181.58L400.19,172.54L400.3,171.72L400.41,178.29L400.62,171.72L400.73,177.47L401.69,237.46L401.79,231.71L401.9,228.42L402.01,229.24L402.11,236.64L402.33,247.32L402.54,216.92L402.65,200.48L403.61,99.4L403.82,107.61L403.93,124.05L404.35,216.09L404.89,207.88L404.99,212.81L405.42,193.91L405.53,183.22L406.17,139.66L406.38,144.6L406.49,164.32L407.34,255.54L407.45,250.61L407.55,245.68L408.3,118.3L408.72,129.8L408.83,142.13L409.79,216.09L410,213.63L410.11,210.34L410.96,131.45L411.18,146.24L411.28,172.54L411.92,208.7L412.24,195.55L412.35,194.73L412.67,207.05L412.78,198.01L412.88,190.62L413.74,135.56L413.84,149.53L413.95,157.74L415.02,202.95L415.23,195.55L415.34,190.62L415.76,158.57L415.87,184.04L415.98,202.12L416.19,194.73L416.94,209.52L417.04,209.52L417.47,215.27L417.58,222.67L417.79,208.7L417.9,196.37L418.86,119.94L419.07,122.41L419.18,128.98L420.03,228.42L420.24,226.78L420.35,206.23L421.31,71.45L421.41,73.1L421.52,94.46L422.69,166.79L422.8,159.39L422.91,157.74L423.65,129.8L423.76,137.2L423.87,130.62L424.08,128.98L424.19,138.84L425.68,198.01L425.79,194.73L426.64,170.89L426.85,180.76L426.96,180.76L427.6,225.96L427.92,217.74L428.03,211.16L428.45,175.83L428.56,158.57L429.31,115.83L429.41,127.34L429.52,145.42L430.48,210.34L430.58,195.55L430.69,170.07L431.65,88.71L431.76,89.53L431.86,92L432.5,170.07L432.93,167.61L433.04,169.25L433.25,155.28L433.36,142.95L434.32,82.14L434.42,90.36L434.53,106.79L435.6,184.87L435.7,179.11L435.81,170.07L435.92,179.11L436.13,151.99L436.24,133.91L436.66,127.34L436.77,162.68L436.88,184.04L437.09,156.1L437.62,182.4L437.73,192.26L437.94,194.73L438.05,200.48L438.16,201.3L438.26,191.44L439.33,124.87L439.44,128.16L439.54,128.16L439.65,129.8L439.76,142.95L440.61,211.99L440.71,207.05L440.82,193.91L441.14,161.03L441.25,147.06L441.46,129.8L441.57,148.7L441.67,162.68L441.78,175L441.99,153.64L442.42,165.96L442.53,169.25L443.17,198.01L443.38,187.33L443.49,180.76L444.55,114.19L444.66,118.3L445.73,184.87L445.83,174.18L445.94,156.92L447.01,90.36L447.22,96.11L447.33,104.33L447.86,175.83L448.39,152.81L448.5,147.88L449.57,59.13L449.89,78.03L449.99,102.68L450.85,174.18L451.06,161.03L451.16,124.05L452.02,32.83L452.23,45.15L452.34,48.44L453.4,161.85L453.62,141.31L453.72,128.16L454.36,68.99L454.79,81.32L454.9,90.36L456.07,218.56L456.18,194.73L456.28,181.58L457.24,94.46L457.46,99.4L457.56,115.01L458.52,227.6L458.63,225.96L458.74,202.12L459.8,64.88L459.91,68.17L460.02,76.38L461.08,221.85L461.3,185.69L461.4,156.92L462.25,44.33L462.57,53.37L462.68,66.52L463.75,168.43L463.85,150.35L464.71,63.23L464.81,77.21L464.92,99.4L466.09,184.87L466.2,192.26L466.31,195.55L466.41,184.87L466.52,167.61L467.48,113.37L467.69,123.23L467.8,130.62L468.76,228.42L468.87,226.78L468.97,211.16L470.15,121.58L470.25,124.05L470.36,134.73L471.43,239.11L471.53,220.2L472.6,105.15L472.81,113.37L472.92,122.41L473.98,230.07L474.09,216.09L475.26,96.93L475.37,105.97L475.48,118.3L476.33,198.01L476.54,191.44L476.65,181.58L477.29,82.14L477.72,96.93L477.82,92.82L478.04,95.29L478.14,122.41L479.21,198.01L479.32,193.08L480.06,134.73L480.38,155.28L480.49,165.96L481.66,234.17L481.77,223.49L481.88,206.23L482.62,144.6L482.94,155.28L483.05,161.85L484.22,262.94L484.33,251.43L484.43,224.31L485.29,150.35L485.5,150.97L485.61,151.29L487.63,156.92L487.74,151.99L488.06,138.84L488.27,152.81L488.38,172.54L488.81,222.67L489.34,218.56L489.45,213.63L489.98,146.24L490.3,188.15L490.41,189.8L491.69,224.31L491.79,219.38L491.9,217.74L492.22,174.18L492.33,150.35L492.43,151.17L492.54,161.03L492.65,181.58L493.07,138.02L493.18,151.99L493.29,149.53L494.46,205.41L494.56,203.77L494.78,195.55L494.99,199.66L495.1,180.76L495.2,165.14L495.31,201.3L495.74,192.26L495.84,182.4L496.8,203.77L496.91,206.23L497.02,209.52L497.23,204.59L497.34,195.55L498.19,140.49L498.3,147.88L498.4,155.28L499.47,213.63L499.68,210.34L499.79,200.48L500.54,124.05L500.86,148.16L500.96,154.46L502.24,230.07L502.46,205.41L502.56,188.15L503.42,125.69L503.63,133.91L503.74,159.39L504.69,238.28L504.8,225.96L504.91,191.44L505.87,106.79L506.08,113.37L506.19,123.23L507.25,235.82L507.36,221.03L507.47,202.12L508.32,100.22L508.43,101.86L508.53,102.68L509.81,193.91L509.92,189.8L510.03,178.29L510.99,103.5L511.09,107.61L511.2,112.54L512.37,202.95L512.48,197.19L512.59,168.43L513.33,69.81L513.55,98.57L513.65,86.25L514.93,176.65L515.14,170.89L515.25,162.68L516,95.29L516.21,101.04L516.32,100.22L517.49,209.52L517.6,202.95L518.77,78.03L518.88,83.78L520.05,212.81L520.16,194.73L520.26,167.61L521.22,56.66L521.33,53.37L521.65,89.53L521.76,114.19L522.61,189.8L522.72,173.36L522.82,142.13L523.78,31.18L523.89,39.4L524.21,83.78L524.32,105.97L525.17,176.65L525.28,161.85L525.38,124.87L526.34,20.5L526.45,26.25L526.55,32.83L527.09,132.27L527.19,147.88L527.73,179.11L527.83,154.46L527.94,123.23L528.69,28.72L528.9,58.3L529.01,84.6L529.11,80.49L529.22,87.07L529.33,82.14L529.43,108.44L530.39,151.17L530.5,129.8L530.71,135.56L530.93,119.94L531.03,116.65L531.35,91.18L531.57,136.38L531.67,150.35L531.78,148.7L531.99,154.46L532.1,158.57L532.85,184.87L532.95,178.29L533.06,165.14L533.49,120.76L533.7,136.38L533.81,170.89L533.91,175L534.02,155.28L534.13,145.42L535.09,173.36L535.19,175.83L535.62,184.04L535.94,175.83L536.04,177.47L536.68,146.24L537.11,155.28L537.22,161.03L538.07,171.72L538.18,165.96L538.28,151.99L539.35,97.75L539.46,114.19L539.56,135.56L540.52,190.62L540.63,189.8L541.06,175L541.16,170.07L541.7,131.45L542.02,145.42L542.12,160.21L543.08,208.7L543.19,204.59L543.3,187.33L544.15,115.83L544.36,118.3L544.47,121.58L545.64,219.38L545.75,211.16L546.71,111.72L546.92,116.65L547.03,122.41L548.2,204.59L548.31,199.66L549.27,155.28L549.48,167.61L549.59,162.68L550.76,221.85L550.87,220.2L550.97,203.77L552.04,108.44L552.15,110.9L552.89,197.19L553.32,184.87L553.43,188.15L554.49,104.33L554.6,119.12L554.71,117.48L554.81,132.27L555.88,177.47L555.99,181.58L556.63,106.79L557.16,115.83L557.26,132.27L557.37,128.98L557.48,143.77L557.58,162.68L557.8,159.39L557.9,166.79L558.01,166.79L558.12,167.61L558.65,184.87L558.86,175L558.97,168.43L559.4,164.32L560.04,185.69L560.14,184.87L560.25,187.33L560.57,186.51L560.68,190.62L560.78,195.55L560.89,201.3L561.21,189.8L561.32,181.58L562.28,115.83L562.49,128.98L562.6,163.5L563.56,216.09L563.66,206.23L564.84,74.74L564.94,81.32L565.05,99.4L566.54,161.03L566.65,156.1L566.76,159.39L566.86,147.06L566.97,173.36L567.4,134.73L567.72,164.32L567.82,175.83L567.93,175L568.03,177.47L568.14,180.76L568.67,201.3L568.89,185.69L568.99,158.57L569.85,95.29L569.95,100.22L570.06,105.15L571.23,206.23L571.34,205.41L571.45,206.23L571.55,202.12L571.66,198.01L572.41,165.14L572.62,182.4L572.73,188.97L573.79,220.2L573.9,218.56L574.01,203.77L574.86,159.39L574.97,161.03L575.07,165.96L575.39,196.37L575.5,212.81L576.35,251.43L576.46,249.79L576.57,226.78L577.53,159.39L577.63,156.1L577.95,199.66L578.06,209.52L578.59,235L578.91,231.71L579.02,230.07L580.08,139.66L580.19,178.29L580.3,164.32L580.51,191.44L580.83,180.76L580.94,192.26L581.58,213.63L581.68,192.26L581.79,185.69L582.64,133.09L582.86,142.95L582.96,159.39L583.71,220.2L583.92,210.34L584.03,207.88L584.14,208.7L584.24,198.01L585.2,131.45L585.42,137.2L585.52,149.53L586.27,192.26L586.59,184.04L586.7,184.04L587.87,71.45L587.98,91.18L588.08,128.16L589.04,179.93L589.15,182.4L589.25,183.22L589.36,179.93L589.47,175.83L590.32,132.27L590.53,143.77L590.64,153.64L591.49,182.4L591.6,180.76L591.71,180.76L591.81,184.87L592.13,172.54L592.24,169.25L592.35,167.61L592.45,175L592.56,182.4L592.67,177.47L592.99,185.69L593.09,196.37L594.27,231.71L594.37,230.07L594.59,220.2L594.69,212.81L595.44,147.06L595.65,155.28L595.76,174.18L596.72,240.75L596.83,241.57L598.11,128.98L598.21,133.91L598.32,146.24L599.39,239.93L599.49,241.57L600.45,115.01L600.66,118.3L600.77,125.69L601.62,210.34L601.94,206.23L602.05,201.3L603.01,99.4L603.33,105.15L603.44,124.05L604.5,193.91L604.61,194.73L605.36,87.07L605.78,114.19L605.89,136.38L606.96,191.44L607.06,193.91L607.17,195.55L607.28,179.93L608.13,91.18L608.24,105.15L608.34,120.76L609.62,194.73L609.73,189.8L609.84,178.29L610.9,90.36L611.01,96.93L611.97,178.29L612.07,172.54L612.18,174.18L612.61,152.81L612.71,135.56L613.46,73.92L613.57,82.14L613.67,119.12L614.21,177.47L614.53,170.07L614.63,164.32L614.85,167.61L614.95,158.57L615.17,169.25L615.27,155.28L615.38,148.7L615.49,160.21L615.7,116.65L615.81,102.68L616.34,152.81L616.45,162.68L617.3,191.44L617.51,184.87L617.62,158.57L618.37,87.89L618.58,90.36L618.69,94.46L619.75,192.26L619.86,196.37L619.97,197.19L620.07,185.69L621.03,82.14L621.14,85.42L621.24,102.68L622.2,167.61L622.31,167.61L622.52,171.72L622.63,168.43L622.74,149.53L623.16,106.79L623.48,126.52L623.59,138.84L625.19,206.23L625.3,201.3L625.4,181.58L626.15,152.81L626.26,157.74L626.36,166.79L627.64,271.16L627.75,258.83L628.71,137.2L628.82,139.66L628.92,144.6L629.99,253.9L630.1,250.61L630.2,251.43L630.31,234.17L631.16,119.12L631.38,121.58L631.48,134.73L632.33,229.24L632.44,216.92L632.55,220.2L632.65,230.07L632.97,200.48L633.08,187.33L633.19,189.8L633.4,178.29L633.51,175.83L633.83,167.61L633.93,176.65L634.36,205.41L634.47,218.56L635,238.28L635.43,231.71L635.53,226.78L636.17,174.18L636.49,179.93L636.6,184.04L637.77,221.03L637.88,222.67L638.41,198.01L638.52,188.15L638.63,177.47L639.16,197.19L639.27,204.59L640.44,244.86L640.55,239.11L641.19,193.91L641.51,207.88L641.61,216.92L642.57,232.53L642.68,231.71L643.32,227.6L643.42,222.67L644.17,205.41L644.28,215.27L644.38,231.71L645.45,274.44L645.56,271.16L645.88,244.86L645.98,215.27L646.52,172.54L646.84,182.4L646.94,211.16L648.01,268.69L648.12,269.51L648.33,237.46L648.44,207.88L649.08,151.17L649.4,163.5L649.5,188.97L649.82,225.96L650.25,211.16L650.36,201.3L650.46,208.7L650.89,193.91L651,184.04L651.64,132.27L651.85,137.2L651.96,150.35L652.6,220.2L652.91,204.59L653.02,206.23L653.23,221.03L653.45,186.51L653.55,165.14L654.3,127.34L654.51,142.95L654.62,152.81L655.79,202.95L655.9,201.3L656.01,195.55L656.86,132.27L657.07,141.31L657.18,175L658.25,225.13L658.35,221.03L659.42,101.86L659.63,128.16L659.74,153.64L660.91,236.64L661.02,229.24L661.98,118.3L662.09,129.8L662.19,144.6L663.26,199.66L663.36,197.19L663.9,211.16L664.11,203.77L664.22,199.66L664.54,172.54L664.86,195.55L664.96,209.52L666.03,275.27L666.14,276.91L667.1,189.8L667.2,192.26L667.31,202.95L668.48,299.1L668.59,290.06L669.66,200.48L669.76,202.12L669.87,214.45L671.15,312.25L671.26,300.74L672.22,186.51L672.32,188.97L672.43,206.23L673.6,299.92L673.71,299.1L673.82,291.7L674.67,135.56L674.77,138.84L674.88,143.77L676.27,277.73L676.37,268.69L676.48,253.08L677.23,150.35L677.33,159.39L677.44,165.96L678.51,235L678.72,227.6L678.83,197.19L679.25,207.05L679.47,201.3L679.57,196.37L679.89,193.08L680.11,198.84L680.21,204.59L681.28,240.75L681.39,244.04L681.49,248.15L681.6,241.57L681.71,220.2L682.35,173.36L682.56,180.76L682.67,187.33L683.73,207.05L683.84,207.88L683.95,211.16L684.16,205.41L684.27,196.37L684.9,179.93L685.12,188.15L685.22,195.55L685.86,220.2L686.18,216.92L686.29,216.09L686.5,221.03L686.72,215.27L686.82,201.3L687.14,179.93L687.57,188.97L687.68,190.62L687.78,188.97L688,193.91L688.32,191.44L688.42,196.37L688.96,193.91L689.06,197.19L689.17,197.19L689.49,181.58L689.6,171.72L689.81,164.32L689.92,172.54L690.02,197.19L690.45,193.08L690.56,201.3L690.66,210.34L690.77,209.52L690.88,212.81L690.98,214.45L691.2,216.92L691.3,214.45L691.41,212.81L691.62,218.56L691.73,209.52L691.84,211.16L691.94,201.3L692.48,177.47L692.8,185.69L692.9,195.55L694.08,240.75L694.18,239.93L694.29,239.11L695.14,144.6L695.46,172.54L695.57,184.87L695.89,185.69L696.21,161.03L696.31,165.96L696.42,186.51L696.74,203.77L697.27,198.01L697.38,200.48L697.7,183.22L698.02,198.84L698.13,216.92L699.09,257.19L699.3,246.5L699.41,243.21L700.26,155.28L700.58,169.25L700.69,175.83L701.75,203.77L701.86,202.95L702.07,204.59L702.18,200.48L702.29,199.66L702.5,188.15L702.61,201.3L702.71,225.96L704.1,283.48L704.42,276.91L704.53,271.98L705.49,232.53L705.59,233.35L705.7,248.15L706.55,269.51L706.66,273.62L707.3,252.26L707.4,240.75L707.72,228.42L708.26,231.71L708.36,235.82L709.22,229.24L709.32,231.71L709.54,233.35L709.64,229.24L709.75,226.78L709.86,242.39L710.5,234.17L710.6,236.64L710.82,240.75L710.92,245.68L711.67,271.98L711.78,285.13L711.88,289.24L712.2,286.77L712.31,275.27L712.84,235.82L713.27,247.32L713.38,249.79L713.48,248.97L713.7,252.26L713.8,253.08L714.76,263.76L714.87,261.3L714.98,256.36L715.72,235.82L715.83,240.75L715.94,250.61L716.04,257.19L716.68,253.08L716.79,253.9L718.39,212.81L718.49,213.63L718.6,212.81L719.24,202.95L719.35,216.09L719.88,231.71L720.31,225.13L720.41,223.49L721.16,233.35L721.27,238.28L722.12,248.97L722.23,246.5L723.4,216.92L723.51,217.74L723.61,235.82L723.83,239.11L723.93,245.68L724.47,263.76L724.89,258.83L725,258.01L725.32,222.67L725.43,211.99L725.96,176.65L726.17,204.59L726.28,208.7L727.34,246.5L727.56,239.93L727.66,227.6L728.52,152.81L728.62,160.21L728.73,178.29L730.01,210.34L730.12,207.88L730.22,206.23L730.33,190.62L730.97,125.69L731.18,144.6L731.29,159.39L732.57,222.67L732.68,216.92L732.78,217.74L733.42,119.12L733.74,142.95L733.85,170.89L735.02,240.75L735.13,239.11L735.56,195.55L735.66,175L736.09,151.99L736.3,172.54L736.41,187.33L737.79,243.21L738.01,227.6L738.11,216.92L738.54,195.55L738.86,198.84L738.97,215.27L739.61,255.54L739.93,246.5L740.03,245.68L740.78,198.84L740.89,183.22L741.21,165.96L741.53,192.26L741.63,202.95L741.85,207.05L741.95,211.99L742.81,221.03L742.91,221.03L743.13,203.77L743.23,188.15L743.77,166.79L743.87,193.91L743.98,208.7L744.41,233.35L744.83,224.31L744.94,223.49L745.26,222.67L745.69,227.6L745.79,222.67L746.33,205.41L746.65,214.45L746.75,216.09L747.18,211.99L747.29,217.74L747.39,234.17L747.61,254.72L748.03,246.5L748.14,243.21L748.88,192.26L748.99,179.93L750.48,255.54L750.7,245.68L750.8,237.46L751.44,176.65L751.76,198.01L751.87,209.52L753.15,262.94L753.26,250.61L753.36,236.64L753.79,186.51L754.22,201.3L754.32,212.81L754.86,252.26L755.18,231.71L755.28,225.96L755.6,228.42L755.82,225.13L755.92,222.67L756.56,205.41L756.88,211.16L756.99,216.92L757.63,252.26L757.74,239.11L757.84,222.67L758.38,232.53L758.48,227.6L758.59,221.85L759.12,177.47L759.33,201.3L759.44,209.52L759.87,215.27L760.08,209.52L760.19,208.7L760.93,216.09L761.04,203.77L761.68,179.11L761.79,179.93L761.89,194.73L762.96,258.01L763.07,258.01L763.39,273.62L763.6,247.32L763.71,228.42L764.35,182.4L764.56,207.88L764.67,213.63L765.52,237.46L765.63,237.46L765.95,233.35L766.05,219.38L766.37,163.5L766.91,192.26L767.01,202.95L767.12,202.12L767.23,206.23L767.33,211.16L767.44,213.63L767.55,247.32L767.97,271.98L768.4,267.87L768.51,268.69L768.61,269.51L768.72,266.23L768.83,261.3L769.25,243.21L769.47,256.36L769.57,263.76L769.68,259.65L770,272.8L770.1,274.44L770.53,289.24L771.06,286.77L771.17,281.84L771.81,248.15L772.13,258.83L772.24,261.3L773.2,274.44L773.3,276.91L773.62,299.92L773.73,285.13L773.84,275.27L774.16,247.32L774.58,262.94L774.69,267.05L775.22,275.27L775.33,282.66L776.18,330.33L776.29,314.71L776.4,290.06L776.93,243.21L777.14,267.05L777.25,279.38L777.57,302.39L777.68,314.71L778.53,294.99L778.64,293.35L778.96,285.13L779.06,281.84L780.98,226.78L781.09,224.31L782.05,179.11L782.37,195.55L782.47,205.41L783.86,233.35L784.18,227.6L784.29,223.49L784.5,218.56L784.82,225.13L784.93,230.07L786.42,253.08L786.53,247.32L786.63,235L787.06,216.09L787.38,233.35L787.49,245.68L788.02,236.64L788.34,239.93L788.45,242.39L788.98,258.83L789.19,253.08L789.3,241.57L789.51,230.89L789.94,243.21L790.05,258.01L790.69,283.48L791.11,277.73L791.22,272.8L791.43,285.95L791.75,267.05L791.86,258.83L792.07,243.21L792.6,258.01L792.71,262.12L793.03,270.34L793.46,269.51L793.56,268.69L793.88,275.27L793.99,281.02L794.1,282.66L794.2,273.62L794.31,261.3L794.84,235L795.16,246.5L795.27,253.9L796.55,277.73L796.66,277.73L797.3,263.76L797.62,267.05L797.72,267.87L798.26,269.51L798.36,278.55L799.11,287.59L799.32,284.31L799.43,278.55L799.64,273.62L799.75,265.4L799.96,262.12L800.07,263.76L800.18,278.55L801.14,326.22L801.35,323.75L801.45,317.18L801.67,323.75L801.77,329.51L801.88,331.15L801.99,325.4L802.09,309.78L802.52,272.8L802.73,299.92L802.84,305.67L803.59,298.28L803.8,300.74L803.91,302.39L804.55,316.36L804.87,314.71L804.97,312.25L806.68,289.24L806.79,292.52L807,287.59L807.11,283.48L807.64,271.16L807.85,281.84L807.96,287.59L808.28,285.95L809.45,298.28L809.56,295.81L809.67,291.7L810.2,266.23L810.52,278.55L810.63,279.38L811.59,319.64L811.69,325.4L812.76,267.05L812.86,271.98L812.97,282.66L813.61,294.99L813.93,291.7L814.04,290.06L814.14,294.17L814.57,281.02L814.68,271.16L814.89,248.97L815.42,268.69L815.53,274.44L816.6,283.48L816.7,283.48L817.13,290.88L817.34,283.48L817.45,280.2L818.09,275.27L818.2,281.02L818.3,289.24L818.52,278.55L818.94,284.31L819.05,285.13L819.58,291.7L819.69,294.99L820.12,279.38L820.22,269.51L820.44,253.08L820.86,277.73L820.97,276.91L821.29,269.51L821.61,281.02L821.72,280.2L822.25,290.88L822.36,290.06L822.46,277.73L822.99,260.47L823.1,263.76L823.21,273.62L824.17,303.21L824.27,302.39L824.38,300.74L824.59,313.89L824.81,304.85L824.91,298.28L825.34,267.05L825.77,277.73L825.87,281.02L827.15,303.21L827.37,301.56L827.47,299.1L828.11,276.09L828.43,283.48L828.54,285.13L828.75,291.7L828.86,294.99L830.03,290.06L830.14,285.13L830.67,278.55L830.89,282.66L830.99,283.48L831.85,293.35L831.95,292.52L832.06,294.17L832.81,296.63L832.91,294.99L834.3,285.95L834.4,289.24L834.72,292.52L834.83,290.88L834.94,286.77L835.68,214.45L836,228.42L836.11,232.53L836.32,233.35L836.43,241.57L837.71,293.35L837.82,285.13L837.92,264.58L838.35,240.75L838.56,259.65L838.67,271.16L838.78,269.51L838.88,292.52L838.99,288.42L839.2,306.5L839.31,304.85L839.74,305.67L840.27,298.28L840.38,296.63L841.02,288.42L841.12,290.06L841.23,292.52L841.76,298.28L841.98,294.17L842.08,293.35L843.47,262.94L843.68,267.05L843.79,267.05L845.07,288.42L845.17,280.2L845.28,280.2L845.6,276.09L845.71,268.69L846.67,245.68L846.77,244.04L846.88,242.39L846.99,250.61L847.09,250.61L847.31,254.72L847.63,250.61L847.73,246.5L847.95,254.72L848.05,244.86L848.27,232.53L848.8,243.21L848.91,243.21L849.65,258.01L849.76,255.54L849.87,254.72L850.08,257.19L850.4,253.9L850.51,253.08L850.72,249.79L850.83,256.36L851.68,304.85L851.89,297.46L852,294.99L852.11,294.17L852.21,296.63L852.32,300.74L852.96,303.21L853.28,286.77L853.39,288.42L853.49,285.95L853.71,284.31L853.81,292.52L854.66,334.44L854.77,314.71L854.88,322.93L855.09,322.93L855.2,319.64L856.16,305.67L856.26,306.5L856.37,311.43L857.33,318.82L857.54,318L857.65,318.82L857.97,320.47L858.08,318.82L858.18,318L858.29,317.18L858.4,310.6L858.61,295.81L859.14,306.5L859.25,304.03L860.21,315.54L860.32,313.89L860.64,319.64L860.74,317.18L860.85,310.6L861.28,279.38L861.6,297.46L861.7,311.43L863.2,351.7L863.3,341.83L863.84,278.55L864.26,304.03L864.37,322.11L865.22,354.98L865.43,350.05L865.54,347.59L866.5,331.97L866.61,334.44L866.71,333.62L866.93,338.55L867.46,336.08L867.57,335.26L868.74,314.71L868.85,304.85L869.06,290.88L869.59,296.63L869.7,295.81L871.51,250.61L871.73,257.19L871.83,261.3L871.94,260.47L872.05,263.76L872.15,263.76L872.26,269.51L872.69,271.16L873.22,263.76L873.33,264.58L873.43,264.58L873.54,271.16L873.86,255.54L873.97,250.61L874.07,244.86L874.29,251.43L874.71,245.68L874.82,246.5L875.14,241.57L875.99,279.38L876.1,276.09L876.2,262.12L876.52,248.15L876.84,258.01L876.95,266.23L878.44,313.89L878.55,308.14L879.4,290.06L879.51,308.96L880.15,333.62L880.47,327.04L880.58,329.51L880.68,327.86L880.9,332.79L881,338.55L881.11,337.72L881.22,338.55L881.32,330.33L881.86,311.43L882.18,315.54L882.28,318L883.14,306.5L883.35,309.78L883.46,310.6L883.67,311.43L883.88,304.85L883.99,301.56L884.1,303.21L884.31,299.1L884.42,299.1L884.52,296.63L885.59,326.22L885.91,320.47L886.02,320.47L886.12,322.11L886.44,318.82L886.55,314.71L886.65,318.82L886.87,297.46L886.97,294.17L887.19,290.06L887.29,295.81L887.51,295.81L887.61,299.92L888.47,293.35L888.57,300.74L888.89,286.77L889,268.69L889.21,255.54L889.43,270.34L889.75,268.69L889.85,265.4L890.17,259.65L890.49,267.87L890.6,281.02L891.99,216.92L892.09,244.86L892.84,265.4L892.95,264.58L893.05,261.3L893.37,261.3L893.48,264.58L893.8,271.98L893.91,276.91L894.01,281.02L894.23,262.12L894.33,256.36L894.55,244.04L894.76,262.94L894.87,271.16L895.51,291.7L895.72,285.95L895.83,281.84L895.93,280.2L896.15,285.95L896.25,291.7L896.57,294.17L896.79,273.62L896.89,254.72L897,235.82L897.53,264.58L897.64,268.69L898.06,260.47L898.28,276.09L898.38,271.16L898.49,269.51L898.7,283.48L898.92,277.73L899.02,265.4L899.13,268.69L899.24,261.3L899.34,261.3L899.45,239.93L899.77,216.09L900.09,253.08L900.2,262.12L900.41,276.91L900.84,253.9L900.94,264.58L901.05,253.9L901.48,302.39L901.8,277.73L901.9,258.01L902.22,242.39L902.54,257.19L902.65,271.16L902.76,267.87L902.86,287.59L903.08,276.91L903.5,279.38L903.61,296.63L903.72,299.1L904.04,292.52L904.14,276.09L904.57,243.21L905.1,249.79L905.21,253.9L905.42,234.17L905.64,248.15L905.74,256.36L906.7,299.1L907.02,285.95L907.13,281.84L907.45,262.94L907.87,277.73L907.98,281.02L908.3,299.1L908.83,294.17L908.94,291.7L909.69,279.38L909.79,261.3L910.11,256.36L910.33,261.3L910.43,262.94L911.39,275.27L911.5,273.62L911.61,271.98L912.03,275.27L912.14,274.44L912.25,267.87L912.35,268.69L912.46,264.58L912.57,261.3L912.89,276.09L913.53,273.62L913.63,271.16L914.49,289.24L914.7,281.02L914.81,277.73L914.91,279.38L915.13,275.27L915.23,264.58L915.45,264.58L915.55,261.3L916.51,268.69L916.62,271.98L917.58,263.76L917.69,267.87L918.86,288.42L919.18,287.59L919.28,287.59L919.5,291.7L919.71,290.06L919.82,280.2L920.03,264.58L920.35,279.38L920.46,287.59L921.31,299.1L921.42,298.28L921.52,299.1L922.27,290.06L922.38,285.13L922.7,281.02L922.91,290.06L923.02,291.7L923.44,319.64L923.87,318.82L923.98,322.11L924.3,324.58L924.62,322.11L924.72,321.29L924.83,322.11L924.94,317.18L925.26,308.14L925.68,317.18L925.79,327.04L927.18,369.78L927.28,359.91L927.92,308.96L928.24,329.51L928.35,331.15L929.09,354.98L929.31,348.41L929.41,345.12L929.73,349.23L929.84,346.77L929.95,337.72L930.48,275.27L930.8,306.5L930.91,309.78L931.23,327.86L931.87,327.04L931.97,323.75L932.29,330.33L932.51,321.29L932.61,309.78L932.83,276.91L933.36,292.52L933.47,296.63L934,319.64" style="vector-effect: none; fill: none; stroke: rgb(129, 181, 21); stroke-opacity: 1; stroke-width: 2px; opacity: 1;"/></g><g class="points"/><g class="text"/></g></g></g></g><path class="xlines-above crisp" d="M0,0" style="fill: none;"/><path class="ylines-above crisp" d="M0,0" style="fill: none;"/><g class="overlines-above"><path class="xy2-x crisp" d="M0,0" style="fill: none;"/><path class="xy2-y crisp" d="M0,0" style="fill: none;"/></g><g class="xaxislayer-above"><g class="xtick"><text text-anchor="middle" x="0" y="449" transform="translate(80,0)" style="font-family: Arial; font-size: 13px; fill: rgb(51, 51, 51); fill-opacity: 1; white-space: pre; opacity: 1;">Jan 2019</text></g><g class="xtick"><text text-anchor="middle" x="0" y="449" style="font-family: Arial; font-size: 13px; fill: rgb(51, 51, 51); fill-opacity: 1; white-space: pre; opacity: 1;" transform="translate(159.34,0)">Feb 2019</text></g><g class="xtick"><text text-anchor="middle" x="0" y="449" style="font-family: Arial; font-size: 13px; fill: rgb(51, 51, 51); fill-opacity: 1; white-space: pre; opacity: 1;" transform="translate(230.99,0)">Mar 2019</text></g><g class="xtick"><text text-anchor="middle" x="0" y="449" style="font-family: Arial; font-size: 13px; fill: rgb(51, 51, 51); fill-opacity: 1; white-space: pre; opacity: 1;" transform="translate(310.33000000000004,0)">Apr 2019</text></g><g class="xtick"><text text-anchor="middle" x="0" y="449" style="font-family: Arial; font-size: 13px; fill: rgb(51, 51, 51); fill-opacity: 1; white-space: pre; opacity: 1;" transform="translate(387.1,0)">May 2019</text></g><g class="xtick"><text text-anchor="middle" x="0" y="449" style="font-family: Arial; font-size: 13px; fill: rgb(51, 51, 51); fill-opacity: 1; white-space: pre; opacity: 1;" transform="translate(466.44,0)">Jun 2019</text></g><g class="xtick"><text text-anchor="middle" x="0" y="449" style="font-family: Arial; font-size: 13px; fill: rgb(51, 51, 51); fill-opacity: 1; white-space: pre; opacity: 1;" transform="translate(543.21,0)">Jul 2019</text></g><g class="xtick"><text text-anchor="middle" x="0" y="449" style="font-family: Arial; font-size: 13px; fill: rgb(51, 51, 51); fill-opacity: 1; white-space: pre; opacity: 1;" transform="translate(622.55,0)">Aug 2019</text></g><g class="xtick"><text text-anchor="middle" x="0" y="449" style="font-family: Arial; font-size: 13px; fill: rgb(51, 51, 51); fill-opacity: 1; white-space: pre; opacity: 1;" transform="translate(701.88,0)">Sep 2019</text></g><g class="xtick"><text text-anchor="middle" x="0" y="449" style="font-family: Arial; font-size: 13px; fill: rgb(51, 51, 51); fill-opacity: 1; white-space: pre; opacity: 1;" transform="translate(778.66,0)">Oct 2019</text></g><g class="xtick"><text text-anchor="middle" x="0" y="449" style="font-family: Arial; font-size: 13px; fill: rgb(51, 51, 51); fill-opacity: 1; white-space: pre; opacity: 1;" transform="translate(858,0)">Nov 2019</text></g><g class="xtick"><text text-anchor="middle" x="0" y="449" style="font-family: Arial; font-size: 13px; fill: rgb(51, 51, 51); fill-opacity: 1; white-space: pre; opacity: 1;" transform="translate(934.77,0)">Dec 2019</text></g></g><g class="yaxislayer-above"><g class="ytick"><text text-anchor="end" x="79" y="4.55" transform="translate(0,425.3)" style="font-family: Arial; font-size: 13px; fill: rgb(51, 51, 51); fill-opacity: 1; white-space: pre; opacity: 1;">1.5</text></g><g class="ytick"><text text-anchor="end" x="79" y="4.55" style="font-family: Arial; font-size: 13px; fill: rgb(51, 51, 51); fill-opacity: 1; white-space: pre; opacity: 1;" transform="translate(0,354.47)">2</text></g><g class="ytick"><text text-anchor="end" x="79" y="4.55" style="font-family: Arial; font-size: 13px; fill: rgb(51, 51, 51); fill-opacity: 1; white-space: pre; opacity: 1;" transform="translate(0,283.64)">2.5</text></g><g class="ytick"><text text-anchor="end" x="79" y="4.55" style="font-family: Arial; font-size: 13px; fill: rgb(51, 51, 51); fill-opacity: 1; white-space: pre; opacity: 1;" transform="translate(0,212.81)">3</text></g><g class="ytick"><text text-anchor="end" x="79" y="4.55" style="font-family: Arial; font-size: 13px; fill: rgb(51, 51, 51); fill-opacity: 1; white-space: pre; opacity: 1;" transform="translate(0,141.98000000000002)">3.5</text></g><g class="ytick"><text text-anchor="end" x="79" y="4.55" style="font-family: Arial; font-size: 13px; fill: rgb(51, 51, 51); fill-opacity: 1; white-space: pre; opacity: 1;" transform="translate(0,71.15)">4</text></g></g><g class="overaxes-above"><g class="xy2-x"/><g class="xy2-y"><g class="y2tick"><text text-anchor="start" x="1015" y="5.6" transform="translate(0,424.36)" style="font-family: Arial; font-size: 16px; fill: rgb(51, 51, 51); fill-opacity: 1; white-space: pre; opacity: 1;">10</text></g><g class="y2tick"><text text-anchor="start" x="1015" y="5.6" style="font-family: Arial; font-size: 16px; fill: rgb(51, 51, 51); fill-opacity: 1; white-space: pre; opacity: 1;" transform="translate(0,383.27)">5</text></g><g class="y2tick"><text text-anchor="start" x="1015" y="5.6" style="font-family: Arial; font-size: 16px; fill: rgb(51, 51, 51); fill-opacity: 1; white-space: pre; opacity: 1;" transform="translate(0,342.18)">0</text></g><g class="y2tick"><text text-anchor="start" x="1015" y="5.6" style="font-family: Arial; font-size: 16px; fill: rgb(51, 51, 51); fill-opacity: 1; white-space: pre; opacity: 1;" transform="translate(0,301.09)">5</text></g><g class="y2tick"><text text-anchor="start" x="1015" y="5.6" style="font-family: Arial; font-size: 16px; fill: rgb(51, 51, 51); fill-opacity: 1; white-space: pre; opacity: 1;" transform="translate(0,260)">10</text></g><g class="y2tick"><text text-anchor="start" x="1015" y="5.6" style="font-family: Arial; font-size: 16px; fill: rgb(51, 51, 51); fill-opacity: 1; white-space: pre; opacity: 1;" transform="translate(0,218.91)">15</text></g><g class="y2tick"><text text-anchor="start" x="1015" y="5.6" style="font-family: Arial; font-size: 16px; fill: rgb(51, 51, 51); fill-opacity: 1; white-space: pre; opacity: 1;" transform="translate(0,177.81)">20</text></g><g class="y2tick"><text text-anchor="start" x="1015" y="5.6" style="font-family: Arial; font-size: 16px; fill: rgb(51, 51, 51); fill-opacity: 1; white-space: pre; opacity: 1;" transform="translate(0,136.72)">25</text></g><g class="y2tick"><text text-anchor="start" x="1015" y="5.6" style="font-family: Arial; font-size: 16px; fill: rgb(51, 51, 51); fill-opacity: 1; white-space: pre; opacity: 1;" transform="translate(0,95.63)">30</text></g><g class="y2tick"><text text-anchor="start" x="1015" y="5.6" style="font-family: Arial; font-size: 16px; fill: rgb(51, 51, 51); fill-opacity: 1; white-space: pre; opacity: 1;" transform="translate(0,54.54)">35</text></g></g></g></g><g class="subplot xy2"/></g><g class="polarlayer"/><g class="smithlayer"/><g class="ternarylayer"/><g class="geolayer"/><g class="funnelarealayer"/><g class="pielayer"/><g class="iciclelayer"/><g class="treemaplayer"/><g class="sunburstlayer"/><g class="glimages"/><defs id="topdefs-35700c"><g class="clips"/><clipPath id="legend35700c"><rect width="167" height="58" x="0" y="0"/></clipPath></defs><g class="layer-above"><g class="imagelayer"/><g class="shapelayer"/></g><g class="infolayer"><g class="legend" pointer-events="all" transform="translate(1032.68,25)"><rect class="bg" shape-rendering="crispEdges" width="167" height="58" x="0" y="0" style="stroke: rgb(68, 68, 68); stroke-opacity: 1; fill: rgb(255, 255, 255); fill-opacity: 1; stroke-width: 0px;"/><g class="scrollbox" transform="" clip-path="url(#legend35700c)"><g class="groups"><g class="traces" transform="translate(0,16.9)" style="opacity: 1;"><text class="legendtext" text-anchor="start" x="40" y="6.24" style="font-family: Arial; font-size: 16px; fill: rgb(51, 51, 51); fill-opacity: 1; white-space: pre;">COP</text><g class="layers" style="opacity: 1;"><g class="legendfill"/><g class="legendlines"><path class="js-line" d="M5,0h30" style="fill: none; stroke: rgb(0, 117, 173); stroke-opacity: 1; stroke-width: 2px;"/></g><g class="legendsymbols"><g class="legendpoints"/></g></g><rect class="legendtoggle" x="0" y="-11.9" width="161.109375" height="23.8" style="fill: rgb(0, 0, 0); fill-opacity: 0;"/></g><g class="traces" transform="translate(0,40.7)" style="opacity: 1;"><text class="legendtext" text-anchor="start" x="40" y="6.24" style="font-family: Arial; font-size: 16px; fill: rgb(51, 51, 51); fill-opacity: 1; white-space: pre;">Temperature [C]</text><g class="layers" style="opacity: 1;"><g class="legendfill"/><g class="legendlines"><path class="js-line" d="M5,0h30" style="fill: none; stroke: rgb(129, 181, 21); stroke-opacity: 1; stroke-width: 2px;"/></g><g class="legendsymbols"><g class="legendpoints"/></g></g><rect class="legendtoggle" x="0" y="-11.9" width="161.109375" height="23.8" style="fill: rgb(0, 0, 0); fill-opacity: 0;"/></g></g></g><rect class="scrollbar" rx="20" ry="3" width="0" height="0" x="0" y="0" style="fill: rgb(128, 139, 164); fill-opacity: 1;"/></g><g class="g-gtitle"><text class="gtitle" x="480" y="0.4800000000000182" text-anchor="middle" dy="0.7em" style="font-family: 'Arial Black'; font-size: 20px; fill: rgb(51, 51, 51); opacity: 1; font-weight: normal; white-space: pre;">COP based on temperature 2019</text></g><g class="g-xtitle"/><g class="g-ytitle"><text class="ytitle" transform="rotate(-90,33.121875,230)" x="33.121875" y="230" text-anchor="middle" style="font-family: Arial; font-size: 19px; fill: rgb(51, 51, 51); opacity: 1; font-weight: normal; white-space: pre;">COP</text></g><g class="g-y2title"><text class="y2title" transform="rotate(-90,1070.05,230)" x="1070.05" y="230" text-anchor="middle" style="font-family: Arial; font-size: 19px; fill: rgb(51, 51, 51); opacity: 1; font-weight: normal; white-space: pre;">Temperature [C]</text></g></g></svg>