<svg class="main-svg" xmlns="http://www.w3.org/2000/svg" xmlns:xlink="http://www.w3.org/1999/xlink" width="1200" height="230" style="" viewBox="0 0 1200 230"><rect x="0" y="0" width="1200" height="230" style="fill: rgb(255, 255, 255); fill-opacity: 1;"/><defs id="defs-7d2a88"><g class="clips"><clipPath id="clip7d2a88xyplot" class="plotclip"><rect width="1040" height="160"/></clipPath><clipPath class="axesclip" id="clip7d2a88x"><rect x="80" y="0" width="1040" height="230"/></clipPath><clipPath class="axesclip" id="clip7d2a88y"><rect x="0" y="25" width="1200" height="160"/></clipPath><clipPath class="axesclip" id="clip7d2a88xy"><rect x="80" y="25" width="1040" height="160"/></clipPath></g><g class="gradients"/><g class="patterns"/></defs><g class="bglayer"/><g class="layer-below"><g class="imagelayer"/><g class="shapelayer"/></g><g class="cartesianlayer"><g class="subplot xy"><g class="layer-subplot"><g class="shapelayer"/><g class="imagelayer"/></g><g class="minor-gridlayer"><g class="x"/><g class="y"/></g><g class="gridlayer"><g class="x"><path class="xgrid crisp" transform="translate(168.34,0)" d="M0,25v160" style="stroke: rgb(200, 200, 200); stroke-opacity: 1; stroke-width: 1px;"/><path class="xgrid crisp" transform="translate(248.13,0)" d="M0,25v160" style="stroke: rgb(200, 200, 200); stroke-opacity: 1; stroke-width: 1px;"/><path class="xgrid crisp" transform="translate(336.47,0)" d="M0,25v160" style="stroke: rgb(200, 200, 200); stroke-opacity: 1; stroke-width: 1px;"/><path class="xgrid crisp" transform="translate(421.96,0)" d="M0,25v160" style="stroke: rgb(200, 200, 200); stroke-opacity: 1; stroke-width: 1px;"/><path class="xgrid crisp" transform="translate(510.3,0)" d="M0,25v160" style="stroke: rgb(200, 200, 200); stroke-opacity: 1; stroke-width: 1px;"/><path class="xgrid crisp" transform="translate(595.78,0)" d="M0,25v160" style="stroke: rgb(200, 200, 200); stroke-opacity: 1; stroke-width: 1px;"/><path class="xgrid crisp" transform="translate(684.12,0)" d="M0,25v160" style="stroke: rgb(200, 200, 200); stroke-opacity: 1; stroke-width: 1px;"/><path class="xgrid crisp" transform="translate(772.46,0)" d="M0,25v160" style="stroke: rgb(200, 200, 200); stroke-opacity: 1; stroke-width: 1px;"/><path class="xgrid crisp" transform="translate(857.95,0)" d="M0,25v160" style="stroke: rgb(200, 200, 200); stroke-opacity: 1; stroke-width: 1px;"/><path class="xgrid crisp" transform="translate(946.29,0)" d="M0,25v160" style="stroke: rgb(200, 200, 200); stroke-opacity: 1; stroke-width: 1px;"/><path class="xgrid crisp" transform="translate(1031.78,0)" d="M0,25v160" style="stroke: rgb(200, 200, 200); stroke-opacity: 1; stroke-width: 1px;"/></g><g class="y"><path class="ygrid crisp" transform="translate(0,180.85)" d="M80,0h1040" style="stroke: rgb(200, 200, 200); stroke-opacity: 1; stroke-width: 1px;"/><path class="ygrid crisp" transform="translate(0,164.81)" d="M80,0h1040" style="stroke: rgb(200, 200, 200); stroke-opacity: 1; stroke-width: 1px;"/><path class="ygrid crisp" transform="translate(0,132.74)" d="M80,0h1040" style="stroke: rgb(200, 200, 200); stroke-opacity: 1; stroke-width: 1px;"/><path class="ygrid crisp" transform="translate(0,116.71)" d="M80,0h1040" style="stroke: rgb(200, 200, 200); stroke-opacity: 1; stroke-width: 1px;"/><path class="ygrid crisp" transform="translate(0,100.67)" d="M80,0h1040" style="stroke: rgb(200, 200, 200); stroke-opacity: 1; stroke-width: 1px;"/><path class="ygrid crisp" transform="translate(0,84.63)" d="M80,0h1040" style="stroke: rgb(200, 200, 200); stroke-opacity: 1; stroke-width: 1px;"/><path class="ygrid crisp" transform="translate(0,68.6)" d="M80,0h1040" style="stroke: rgb(200, 200, 200); stroke-opacity: 1; stroke-width: 1px;"/><path class="ygrid crisp" transform="translate(0,52.56)" d="M80,0h1040" style="stroke: rgb(200, 200, 200); stroke-opacity: 1; stroke-width: 1px;"/><path class="ygrid crisp" transform="translate(0,36.53)" d="M80,0h1040" style="stroke: rgb(200, 200, 200); stroke-opacity: 1; stroke-width: 1px;"/></g></g><g class="zerolinelayer"><path class="yzl zl crisp" transform="translate(0,148.78)" d="M80,0h1040" style="stroke: rgb(255, 255, 255); stroke-opacity: 1; stroke-width: 2px;"/></g><path class="xlines-below"/><path class="ylines-below"/><g class="overlines-below"/><g class="xaxislayer-below"/><g class="yaxislayer-below"/><g class="overaxes-below"/><g class="plot" transform="translate(80,25)" clip-path="url(#clip7d2a88xyplot)"><g class="scatterlayer mlayer"><g class="trace scatter trace01234f" style="stroke-miterlimit: 2; opacity: 1;"><g class="fills"/><g class="errorbars"/><g class="lines"><path class="js-line" d="M0,107.74L0.71,106.78L0.83,107.42L0.95,106.46L1.31,107.74L1.54,107.74L1.66,109.35L3.68,122.82L3.8,120.89L3.92,119.61L4.16,118.65L4.27,120.25L4.39,119.93L4.51,118L6.41,136.93L6.53,137.25L6.77,135.64L6.89,133.08L7.24,124.42L7.72,127.95L7.84,127.95L8.43,129.55L8.67,128.91L8.79,128.59L9.14,129.87L9.5,128.27L9.62,127.63L10.57,123.46L10.69,123.78L11.64,121.53L11.99,121.85L12.11,123.14L12.23,123.46L12.35,122.49L12.47,122.49L12.59,121.53L13.65,116.72L13.77,116.72L14.13,115.44L14.49,115.76L14.6,116.72L16.03,112.23L16.15,112.23L18.05,116.72L18.17,116.08L18.29,115.76L18.4,115.12L18.88,115.76L19,116.4L20.07,122.17L20.3,119.93L20.42,119.93L20.54,119.61L20.66,116.4L20.9,117.68L21.02,114.48L21.49,109.99L21.73,114.16L21.85,113.51L22.92,120.25L23.15,119.61L23.27,120.25L23.63,122.82L23.75,124.42L24.1,123.46L25.17,127.63L25.29,126.98L25.41,126.66L25.65,126.98L26.24,125.7L26.36,126.66L27.19,124.74L27.43,125.7L27.55,126.02L29.09,136.29L29.21,135.96L29.33,135L29.8,132.44L29.92,131.15L31.7,122.82L31.82,122.82L32.77,118L32.89,118.33L33.01,118.33L33.36,117.36L33.48,119.61L33.72,119.93L33.84,119.29L33.96,119.29L34.08,118.97L34.31,119.29L34.43,118L34.55,117.04L35.38,112.55L35.5,115.44L35.62,119.93L35.98,115.12L36.1,109.99L36.81,105.18L36.93,105.5L37.05,107.1L38.23,117.36L38.35,113.84L38.47,113.19L39.66,121.53L39.78,121.21L40.01,122.82L40.61,122.17L40.73,122.49L41.08,119.29L41.2,117.68L41.56,113.19L42.03,114.16L42.15,114.8L42.39,113.51L42.74,114.48L42.86,115.12L43.1,114.8L43.34,115.44L43.46,116.08L43.69,118.33L43.93,114.48L44.05,113.51L44.41,111.59L44.53,113.19L44.64,115.12L45.59,118L45.71,117.04L45.83,119.29L46.07,114.48L46.43,117.68L46.54,114.48L46.9,101.97L47.26,105.82L47.38,108.7L47.61,109.35L47.73,114.8L47.85,112.55L48.21,118.33L48.33,119.93L49.39,127.31L49.51,126.34L49.63,124.74L49.99,120.89L50.34,123.78L50.46,128.59L51.53,135.96L51.65,136.29L52.24,139.81L52.36,135.96L52.84,122.82L53.19,126.34L53.31,128.91L54.74,149.11L54.86,148.79L54.97,151.36L55.21,142.06L55.33,140.78L56.04,135L56.16,135.96L56.28,137.57L56.52,136.61L56.64,138.85L56.76,141.1L57.82,152L57.94,150.08L58.06,144.94L58.66,126.34L59.01,133.08L59.13,136.93L59.84,147.83L59.96,143.66L60.08,141.1L60.2,140.13L60.55,142.7L60.67,143.66L61.62,136.29L61.74,137.57L61.86,137.89L62.1,136.93L62.34,138.85L62.45,140.13L62.81,141.74L63.17,140.78L63.29,140.78L63.76,141.74L63.88,141.1L64,139.81L64.12,138.53L64.59,140.13L64.71,140.78L65.3,143.98L65.42,142.38L65.54,141.74L65.66,142.06L65.9,141.1L66.02,141.42L66.14,141.1L66.37,141.42L66.49,140.78L66.61,137.89L66.85,133.4L67.32,135.64L67.44,136.29L68.63,146.23L68.75,144.3L68.87,142.06L68.99,143.02L69.46,141.1L69.58,141.1L69.82,138.53L69.93,137.25L71.12,130.19L71.36,130.83L71.48,131.47L71.6,132.12L71.83,129.55L71.95,126.34L72.19,123.78L72.31,122.49L72.9,112.55L73.26,116.08L73.38,115.76L73.73,117.68L74.21,116.72L74.33,116.4L74.8,117.68L74.92,116.4L75.04,115.44L75.16,116.72L75.4,112.23L75.52,110.31L75.75,105.5L76.11,111.27L76.23,111.91L76.58,109.99L76.7,112.55L76.82,115.44L77.65,121.21L77.77,120.57L77.89,121.21L78.01,120.89L78.13,117.04L78.48,116.4L78.6,118L79.91,124.1L80.03,123.78L80.15,123.46L80.38,124.42L80.5,124.42L80.62,124.42L80.74,125.06L80.98,123.14L81.1,122.49L81.45,117.04L81.69,123.46L81.81,125.7L83.23,135.64L83.35,135.64L83.59,134.04L83.71,131.47L84.42,116.08L84.9,119.61L85.01,120.89L86.2,143.66L86.44,140.78L86.56,132.44L87.03,117.36L87.39,121.21L87.51,124.42L87.98,127.63L88.1,124.42L88.22,123.78L88.58,125.06L88.7,124.1L88.81,123.14L89.17,124.42L89.41,123.78L89.53,120.25L89.88,115.44L90.24,118.97L90.36,119.93L91.07,122.49L91.19,122.17L91.31,122.49L91.54,123.46L91.66,122.17L91.9,122.17L92.02,122.17L92.61,116.4L92.73,110.63L92.97,107.74L93.21,113.84L93.33,118L93.56,117.36L94.16,121.21L94.28,118.97L94.99,122.49L95.11,123.78L96.41,128.59L96.53,126.66L96.65,126.02L96.89,126.98L97.01,126.98L97.13,127.95L97.84,147.19L97.96,138.85L98.08,134.04L98.31,119.93L98.79,126.98L98.91,132.76L99.38,141.74L99.62,136.93L99.74,135.96L101.04,130.83L101.16,130.83L101.4,128.27L101.64,132.76L101.76,138.21L101.87,137.25L102.23,139.81L102.35,140.78L102.59,139.81L102.94,141.74L103.06,142.38L103.3,143.34L103.77,142.06L103.89,139.49L104.13,132.44L104.61,138.21L104.72,139.17L105.79,143.34L105.91,142.7L106.03,141.42L106.27,143.02L106.51,137.89L106.62,133.72L107.81,119.29L107.93,120.57L108.05,119.61L108.29,122.17L108.41,122.82L110.07,105.5L110.19,109.67L110.3,110.95L111.25,118L111.61,116.72L111.73,114.48L111.97,115.12L112.09,112.23L112.8,98.12L113.04,100.69L113.15,102.93L113.87,112.87L114.34,111.59L114.46,111.91L115.17,98.12L115.29,94.59L115.77,92.03L116.95,113.84L117.07,113.84L117.67,119.29L118.02,117.36L118.14,116.4L118.5,112.23L118.97,114.16L119.09,114.16L119.8,121.85L119.92,120.89L120.04,119.93L120.28,122.17L120.75,120.25L120.87,118.33L121.47,115.76L121.58,116.4L121.7,117.68L122.42,119.93L122.77,119.29L122.89,124.1L123.25,128.91L123.48,123.78L123.6,118.97L124.32,101.33L124.43,103.25L124.55,109.99L125.86,130.19L125.98,130.19L126.1,130.51L126.22,126.98L127.17,90.42L127.4,99.72L127.52,107.42L128.59,130.83L128.71,131.8L129.06,132.44L129.18,125.7L129.3,121.21L129.9,81.12L130.25,92.67L130.37,96.84L130.96,111.91L131.08,118L131.8,131.47L131.91,127.63L132.03,121.85L132.75,86.57L133.1,97.8L133.22,102.93L133.81,123.14L134.17,122.49L134.29,120.89L134.53,121.53L134.65,119.61L134.76,120.57L134.88,116.72L135,111.59L135.71,83.05L135.95,90.74L136.07,101.33L136.66,121.85L137.02,120.25L137.14,125.06L137.61,126.66L137.73,118.97L137.85,110.63L138.56,79.2L138.8,92.99L138.92,102.61L139.63,127.31L139.87,123.78L139.99,126.66L140.7,109.99L140.82,101.65L141.18,88.82L141.53,101.01L141.65,101.33L143.31,131.15L143.43,125.38L144.26,94.91L144.38,97.16L144.5,99.72L144.74,104.53L144.86,107.1L145.81,123.14L145.93,122.82L146.04,121.21L146.16,123.14L146.28,118.65L146.4,112.87L146.76,90.42L147.35,97.16L147.47,98.76L147.71,103.89L148.3,102.93L148.42,100.04L148.77,103.25L149.13,100.69L149.25,98.76L149.96,93.31L150.08,96.52L150.2,99.4L151.51,128.91L151.62,128.27L151.74,128.91L151.86,128.59L151.98,124.74L152.57,104.86L152.93,109.67L153.05,113.51L154.36,136.93L154.47,133.4L154.71,135.64L154.83,124.42L155.66,92.99L155.9,103.57L156.02,109.67L157.44,136.61L157.56,133.4L158.51,77.92L158.75,88.18L158.87,93.31L159.94,126.66L160.05,126.34L160.17,126.98L160.41,128.91L160.53,120.89L161.36,73.1L161.6,80.16L161.72,89.78L162.79,121.85L162.9,126.02L163.38,112.87L163.5,99.72L164.21,69.9L164.45,76.63L164.57,89.46L165.64,114.8L165.75,114.16L165.87,119.61L167.06,71.18L167.18,75.03L167.3,79.2L167.42,79.84L167.54,84.97L168.48,104.21L168.72,103.89L168.84,101.97L169.08,101.97L169.2,103.25L169.91,97.48L170.15,99.4L170.27,101.01L171.45,105.82L171.57,110.63L171.69,111.27L171.93,108.7L172.05,108.06L172.88,99.72L173.12,101.97L173.23,102.93L173.47,105.82L173.59,101.33L173.83,102.29L173.95,101.65L174.07,101.33L174.3,102.61L174.42,102.61L174.54,104.21L174.78,100.04L174.9,96.2L175.73,87.22L175.85,90.74L175.97,93.31L176.2,98.76L176.8,97.16L176.92,97.48L177.39,99.08L177.75,84.65L177.87,85.61L177.98,92.35L178.1,91.06L178.46,94.59L178.58,95.23L178.7,94.59L178.81,108.06L179.53,114.16L179.65,110.63L179.76,112.23L180.12,119.61L180.36,114.48L180.48,109.67L180.83,99.4L181.07,101.65L181.19,106.46L182.26,111.91L182.38,110.31L182.97,117.04L183.21,113.19L183.33,107.74L184.16,86.57L184.4,91.39L184.51,92.03L185.94,104.21L186.06,101.01L186.3,87.86L186.89,90.42L187.01,102.61L187.13,97.8L187.48,106.46L187.6,101.97L187.72,105.18L188.55,111.91L188.67,110.63L188.79,106.78L188.91,108.7L189.14,101.33L189.26,101.01L189.74,91.39L189.86,94.27L189.98,102.93L190.09,102.29L190.21,107.74L190.69,117.36L190.93,112.55L191.04,109.67L191.16,109.99L191.28,109.02L191.4,106.46L191.88,107.42L191.99,100.37L192.11,96.52L192.35,91.06L192.83,93.95L192.94,94.27L194.01,95.55L194.13,97.48L194.25,96.84L194.37,98.76L194.49,101.97L194.73,104.53L194.84,97.8L194.96,90.1L195.08,90.74L195.2,86.57L195.44,81.12L195.79,88.18L195.91,92.67L196.63,116.4L197.1,114.48L197.22,113.19L197.58,120.57L197.69,119.61L197.81,115.44L198.05,119.93L198.29,107.74L198.52,113.84L198.64,117.36L199,118.97L199.12,115.76L199.36,114.16L199.71,116.4L199.83,119.29L200.07,119.61L200.19,118.97L200.31,118.65L201.26,99.08L201.49,101.65L201.61,103.57L201.97,107.1L202.21,101.65L202.32,103.57L202.44,102.93L202.56,100.04L202.8,110.95L202.92,111.91L203.16,111.91L203.27,109.35L204.11,99.72L204.22,102.93L204.34,104.53L205.17,118.65L205.41,115.12L205.53,113.51L205.77,114.48L205.89,112.87L206.01,111.91L206.36,108.7L206.6,111.91L206.72,113.19L207.19,115.12L207.31,113.84L207.43,110.31L207.67,111.27L207.79,108.06L207.91,107.74L208.14,107.74L208.26,118.97L208.97,106.14L209.09,106.46L209.21,108.06L209.45,103.25L209.57,97.48L210.16,92.03L210.4,92.67L210.52,92.35L210.75,92.67L210.87,92.03L210.99,93.63L211.23,93.31L211.35,93.63L211.47,94.59L211.94,95.55L212.06,94.91L212.18,92.35L212.65,86.57L212.89,90.42L213.01,95.23L213.13,95.55L213.25,101.01L213.6,114.16L214.08,108.06L214.2,105.5L214.67,93.31L214.79,86.57L215.27,73.1L215.5,85.93L215.62,106.14L216.69,114.16L216.81,115.12L217.17,119.93L217.4,116.08L217.52,110.95L217.76,113.19L217.88,108.7L218,101.97L218.35,101.01L219.54,124.1L219.66,123.78L220.13,128.27L220.25,123.14L220.37,114.8L221.32,101.33L221.44,104.53L221.56,109.35L222.87,137.89L222.98,137.57L223.1,129.87L223.93,93.63L224.05,94.27L224.17,94.59L225.83,134.04L225.95,125.06L226.9,79.84L227.14,84.65L227.26,89.46L228.56,127.95L228.68,128.91L229.63,69.9L229.99,76.95L230.11,81.76L231.53,121.53L231.65,113.19L232.36,68.94L232.72,71.18L232.84,77.27L233.43,103.89L233.55,111.59L234.38,121.85L234.5,118L234.62,112.55L234.98,87.22L235.1,79.2L235.33,74.07L235.57,83.05L235.69,88.82L236.28,110.95L236.64,103.25L236.76,103.89L237.11,117.68L237.47,108.06L237.59,104.21L237.94,109.99L238.06,102.29L238.89,120.57L239.01,118.97L239.13,118.65L239.37,118.97L239.49,117.68L239.84,123.78L240.2,118.65L240.32,115.44L241.15,102.29L241.39,105.5L241.51,107.74L242.81,114.8L242.93,114.48L243.53,93.63L244,96.52L244.12,97.48L244.24,97.8L244.36,101.33L245.66,114.48L245.78,114.16L245.9,108.7L246.73,86.9L246.97,88.82L247.09,89.78L248.63,113.51L248.75,104.21L249.7,75.67L249.82,76.63L249.94,79.52L251.24,122.82L251.36,123.46L251.6,109.35L251.72,97.48L252.67,68.29L252.79,71.18L252.91,75.35L253.97,117.68L254.09,117.36L254.33,119.29L254.45,114.8L255.28,66.37L255.64,70.22L255.76,74.39L256.94,113.19L257.06,114.48L257.18,115.44L257.3,113.19L257.42,106.14L258.25,73.75L258.49,76.31L258.6,80.48L259.79,113.51L260.03,109.02L260.15,108.38L261.22,61.24L261.45,67.33L261.57,71.82L262.4,93.63L262.52,91.06L262.88,105.82L263.24,88.82L263.35,84.33L264.19,67.65L264.3,68.29L264.42,70.22L265.14,114.48L265.25,112.87L265.37,111.59L265.97,107.1L266.09,100.37L266.56,92.35L266.68,86.57L267.51,109.67L267.63,109.02L267.75,110.31L268.7,112.55L268.82,111.91L269.77,100.04L269.88,95.23L270,94.91L270.12,100.04L270.83,108.06L270.95,107.74L271.07,108.38L271.55,105.18L271.67,103.25L272.73,70.22L272.85,73.1L272.97,80.16L274.28,118.65L274.4,113.19L274.52,103.57L275.35,71.5L275.58,74.39L275.7,76.95L276.89,112.87L277.25,108.06L277.36,99.72L278.2,75.03L278.43,80.16L278.55,83.69L279.5,99.4L279.62,97.48L279.74,98.12L279.98,102.29L280.21,96.2L280.33,96.2L280.45,95.55L280.93,75.35L281.16,83.05L281.28,91.71L281.4,90.1L281.64,93.31L281.76,93.31L281.88,95.88L282.83,111.27L283.06,107.42L283.18,103.57L283.78,82.41L284.25,88.5L284.37,93.31L284.61,96.52L284.73,101.33L285.8,119.93L285.91,117.04L286.03,114.48L286.75,91.06L287.1,94.91L287.22,97.48L288.41,131.47L288.64,126.66L288.76,120.57L289.59,100.37L289.83,103.89L289.95,105.5L291.38,120.25L291.49,118.33L291.61,113.84L292.56,96.2L292.68,98.12L292.8,100.04L294.23,122.17L294.34,119.93L294.46,115.44L295.29,93.95L295.53,99.08L295.65,102.61L296.96,113.51L297.08,113.51L297.43,96.84L297.55,85.93L297.91,78.88L298.02,75.67L298.14,74.07L298.5,79.2L298.62,84.65L299.57,123.14L299.92,113.84L300.04,101.33L301.11,66.37L301.23,67.97L301.35,74.71L302.54,92.67L302.66,92.03L302.77,93.31L303.25,80.8L303.37,74.07L303.84,65.41L304.2,71.5L304.32,77.92L305.62,108.06L305.74,102.61L306.81,60.6L306.93,62.84L307.29,73.75L307.4,82.08L307.76,81.12L308.47,96.52L308.59,88.5L309.66,55.47L309.78,56.11L309.9,58.99L310.97,102.93L311.32,95.23L311.44,88.18L312.39,54.5L312.51,54.18L312.87,64.45L312.99,73.75L314.05,118L314.29,103.89L314.41,89.46L315.24,53.22L315.36,54.82L315.48,55.47L315.95,81.44L316.07,85.93L316.19,84.01L316.31,85.93L316.43,93.95L316.67,92.67L317.02,108.7L317.14,99.08L317.26,84.97L318.21,53.86L318.33,55.79L318.68,69.26L318.8,72.78L319.63,93.63L319.75,88.18L319.87,86.9L320.23,78.56L320.35,73.43L321.06,60.28L321.3,63.48L321.42,67.65L322.72,91.39L322.84,86.57L323.79,41.03L324.03,46.16L324.15,49.37L325.45,106.46L325.57,104.86L325.69,91.06L326.76,44.24L326.88,44.56L327,49.05L328.3,104.21L328.54,98.44L328.66,92.35L328.9,90.42L329.01,92.67L329.13,94.27L329.49,100.37L329.85,96.2L329.96,96.84L331.15,102.93L331.27,103.25L332.34,80.8L332.46,84.65L332.58,84.65L333.29,107.42L333.41,107.1L333.53,107.74L334.12,113.19L334.24,110.95L334.36,106.14L334.6,101.65L334.71,104.53L334.83,95.23L334.95,96.2L335.07,92.67L335.19,90.74L335.31,89.46L335.55,94.59L335.66,101.01L336.14,110.31L336.26,113.19L336.5,111.27L336.61,111.91L336.73,115.44L336.85,115.76L336.97,113.19L337.68,92.67L338.04,98.44L338.16,99.4L338.63,103.25L338.99,101.97L339.11,101.65L340.06,97.8L340.18,96.2L340.29,96.84L340.41,92.99L341.13,81.44L341.24,82.41L341.36,89.46L342.55,121.53L342.67,119.93L342.79,111.59L343.86,70.54L343.98,71.5L344.21,76.31L344.33,83.69L345.4,110.31L345.52,107.1L345.64,100.04L346.23,66.05L346.59,69.58L346.71,70.22L346.82,69.9L346.94,74.07L348.13,96.2L348.25,95.88L348.84,94.59L348.96,91.71L349.32,84.65L349.67,88.5L349.79,89.14L350.86,109.67L351.22,106.14L351.34,101.65L351.69,92.67L351.93,106.46L352.05,110.63L353.12,119.61L353.24,120.57L353.47,119.93L353.59,121.21L353.71,121.21L353.83,122.49L353.95,123.78L354.19,118.97L354.31,117.04L354.78,106.46L354.9,104.86L355.14,105.82L355.37,99.72L355.49,102.61L355.61,106.78L356.8,133.08L356.92,130.83L357.04,121.85L357.99,98.12L358.1,98.76L358.22,97.8L358.46,100.04L358.58,103.89L358.82,107.42L358.94,111.91L359.65,127.63L359.77,124.1L359.89,113.84L360.84,87.54L360.95,85.29L361.43,94.59L361.55,100.37L361.67,100.04L361.79,101.33L361.9,101.97L362.02,103.57L362.38,101.33L362.5,102.93L362.62,101.01L362.74,100.69L362.85,95.88L363.57,83.69L363.69,84.97L363.8,86.25L363.92,84.33L364.16,88.18L364.28,88.18L364.4,90.1L364.52,89.78L364.64,91.06L364.75,93.63L365.35,104.86L365.59,97.8L365.7,89.78L366.42,78.88L366.53,83.37L366.65,85.61L366.89,85.29L368.2,94.91L368.32,94.91L369.5,76.63L369.62,75.99L370.57,97.8L370.81,94.27L370.93,93.95L371.52,82.41L371.64,75.03L371.76,68.29L372.35,72.78L372.47,92.35L374.02,109.02L374.13,108.38L374.25,107.42L375.32,84.65L375.44,86.57L375.56,88.82L376.75,112.55L376.86,108.7L376.98,104.53L377.81,78.24L378.17,78.88L378.29,80.8L379.6,123.14L379.71,118.65L379.83,111.91L380.43,85.61L380.9,89.46L381.02,90.1L382.45,122.17L382.68,114.48L382.8,106.46L383.63,87.22L383.75,88.82L383.87,94.91L385.3,107.74L385.41,106.78L385.53,104.53L386.25,87.86L386.6,95.88L386.72,96.84L387.79,102.61L387.91,102.29L388.03,102.61L388.14,104.21L388.38,100.04L388.5,94.59L389.57,63.8L389.81,68.94L389.93,75.03L390.99,105.18L391.11,102.61L392.18,56.43L392.3,63.16L392.42,60.92L392.66,66.37L392.78,71.5L393.84,101.33L393.96,96.52L395.15,50.98L395.27,55.47L395.39,60.6L396.69,91.06L396.81,87.22L397.41,72.46L397.76,76.63L397.88,76.95L398,76.31L398.12,77.59L398.24,81.76L398.59,85.93L399.07,85.29L399.19,85.29L399.42,86.9L400.02,86.25L400.14,86.25L400.61,83.05L400.97,84.33L401.09,84.65L402.16,89.78L402.27,90.1L402.39,90.42L402.51,89.78L402.63,90.1L402.75,89.14L403.82,78.56L404.06,82.08L404.17,88.5L405.24,113.84L405.36,110.63L405.48,101.97L406.43,66.69L406.55,67.33L406.67,65.73L406.9,68.94L407.02,71.5L408.09,105.5L408.21,99.72L409.28,55.14L409.4,58.03L409.52,58.35L409.87,70.22L409.99,76.63L410.94,97.16L411.06,92.03L411.18,85.61L411.65,57.07L412.01,67.01L412.13,75.67L412.25,66.69L412.72,80.8L412.84,82.73L413.79,96.2L413.91,93.63L415.1,57.71L415.22,58.03L415.34,57.39L415.45,60.92L416.64,92.67L416.76,89.46L416.88,78.56L417.83,58.99L417.95,58.35L419.37,82.73L419.49,82.41L420.32,76.31L420.44,80.16L421.15,84.33L421.27,87.86L422.34,97.48L422.46,95.88L422.58,93.63L423.77,77.92L423.88,80.8L425.19,111.59L425.31,106.14L425.43,94.59L426.38,62.2L426.5,63.8L426.61,62.84L426.85,66.05L426.97,70.86L427.92,84.01L428.04,84.33L428.51,67.33L428.63,61.56L428.75,63.8L429.11,58.67L429.23,58.67L429.46,54.5L429.7,57.39L429.82,61.88L430.89,92.67L431.01,86.57L432.2,42.96L432.31,43.28L432.43,42.64L432.55,47.13L433.62,88.5L433.74,86.57L434.93,35.9L435.16,36.86L435.28,37.83L436.59,81.44L436.71,73.1L436.83,64.77L437.78,31.73L437.89,32.05L438.01,33.98L438.73,76.31L438.84,71.82L438.96,74.07L439.44,83.05L439.56,79.52L439.68,71.5L440.74,33.34L440.86,34.3L442.29,70.86L442.41,66.37L442.53,59.31L443.48,30.13L443.71,31.73L443.83,33.34L445.14,69.26L445.38,67.97L445.49,70.86L446.09,67.01L446.21,69.26L446.32,74.39L446.44,73.43L446.56,77.27L446.68,81.12L447.99,96.52L448.11,93.63L449.41,38.79L449.53,39.43L449.89,61.24L450.01,78.56L450.24,84.33L450.84,81.12L450.96,83.05L451.55,71.5L451.67,67.97L452.26,54.5L452.5,56.43L452.62,64.12L453.57,99.72L453.69,97.8L453.81,95.88L454.64,46.16L454.99,47.77L455.11,50.65L456.3,84.33L456.54,83.37L456.65,82.08L457.6,51.3L457.84,57.07L457.96,67.33L458.67,81.44L459.03,76.31L459.15,75.99L459.5,80.8L459.62,77.27L459.74,74.39L460.69,52.9L460.81,58.35L460.93,61.56L462.12,79.2L462.24,77.92L462.35,76.31L462.95,61.88L463.07,71.82L463.19,78.88L463.42,75.99L463.66,80.48L463.78,79.52L463.9,77.92L464.97,86.9L465.09,86.25L465.2,81.44L466.39,46.81L466.63,47.77L466.75,50.33L467.7,89.14L467.93,88.5L468.05,80.48L469.12,27.88L469.24,28.53L470.43,65.09L470.55,64.12L470.67,65.09L470.9,61.56L471.02,53.54L471.14,55.79L471.5,50.98L471.62,51.62L471.73,50.65L472.21,50.33L473.28,75.03L473.4,74.71L473.52,75.03L473.99,77.27L474.11,75.99L474.23,75.03L474.82,67.97L474.94,66.69L476.13,88.18L476.48,84.97L476.6,82.41L477.08,68.61L477.2,61.88L478.03,45.2L478.15,49.69L479.33,82.08L479.45,76.31L480.64,34.62L480.76,34.94L480.88,35.9L481,43.6L481.59,66.37L482.06,65.41L482.18,66.05L482.3,65.41L482.42,60.6L483.61,32.05L483.73,35.26L483.85,41.67L485.03,72.14L485.15,69.9L486.22,49.69L486.34,63.48L486.46,71.82L486.69,60.92L487.17,70.54L487.29,71.18L487.88,78.56L488,74.71L488.12,69.58L489.19,48.73L489.31,50.01L489.43,50.01L489.54,50.65L489.66,55.79L490.61,82.73L490.73,80.8L490.85,75.67L491.21,62.84L491.33,57.39L491.56,50.65L491.68,58.03L491.8,63.48L491.92,68.29L492.16,59.96L492.51,63.16L492.63,64.77L493.46,77.27L493.7,73.1L493.82,70.54L495.01,44.56L495.13,46.16L496.31,72.14L496.43,67.97L496.55,61.24L497.74,35.26L497.86,35.9L497.97,37.51L498.69,68.61L498.92,59.96L499.04,57.39L499.16,60.92L499.52,53.86L499.64,50.65L500.59,23.07L500.82,24.36L500.94,30.45L502.01,67.97L502.13,67.65L502.25,62.84L503.32,12.81L503.44,15.06L504.15,42.64L504.27,49.37L504.86,63.16L505.1,55.14L505.22,50.01L505.93,26.92L506.29,30.13L506.4,31.73L507.83,85.29L507.95,75.99L508.07,70.86L509.14,36.86L509.25,37.18L509.37,38.79L510.56,88.82L510.8,78.88L510.92,68.29L511.99,25.32L512.1,26.6L512.22,29.81L513.41,86.57L513.65,72.46L513.77,61.24L514.72,17.3L515.07,20.83L515.19,25.96L516.14,63.8L516.26,63.16L516.38,65.73L517.45,24.68L517.57,30.13L517.68,38.79L518.87,67.65L518.99,72.14L519.23,76.31L519.35,72.14L519.47,65.41L520.53,44.24L520.77,48.09L520.89,50.98L521.96,89.14L522.08,88.5L522.2,82.41L523.5,47.45L523.62,48.41L524.93,93.31L525.05,85.93L525.16,79.52L526.23,41.03L526.35,42.64L526.47,44.24L527.78,89.78L527.9,84.33L528.01,77.92L529.2,37.83L529.32,41.35L530.39,77.27L530.63,74.71L530.75,70.86L531.46,32.05L531.81,38.15L531.93,37.83L532.05,36.22L532.29,37.18L532.41,47.77L533.36,77.27L533.48,75.67L533.6,77.27L534.55,52.58L534.66,54.18L534.78,63.16L534.9,60.6L535.14,67.33L535.26,71.82L536.33,91.39L536.44,87.22L537.39,56.43L537.63,60.6L537.75,60.6L538.46,86.9L538.58,94.91L538.7,95.88L538.82,91.71L538.94,99.4L539.18,102.61L539.29,98.12L539.41,87.54L540.36,58.67L540.48,58.79L540.6,58.92L542.98,61.24L543.09,59.31L543.45,54.18L543.69,59.63L543.81,67.33L544.28,86.9L544.87,85.29L544.99,83.37L545.59,57.07L545.82,66.37L545.94,73.43L547.37,83.69L547.49,87.54L548.08,67.97L548.2,58.67L548.32,58.99L548.44,62.84L548.56,70.86L549.03,53.86L549.15,59.31L549.27,58.35L549.39,61.24L549.51,68.29L550.57,80.16L550.69,79.52L550.93,76.31L551.17,77.92L551.29,70.54L551.41,64.45L551.52,78.56L551.88,75.03L552,75.03L552.12,71.18L552.59,77.27L552.71,77.59L553.42,81.76L553.66,79.84L553.78,76.31L554.73,54.82L554.85,57.71L554.97,60.6L556.15,83.37L556.39,82.08L556.51,78.24L557.34,48.41L557.7,57.82L557.82,60.28L559.24,89.78L559.48,80.16L559.6,73.43L560.55,49.05L560.67,49.69L560.79,52.26L561.97,92.99L562.09,88.18L563.16,43.28L563.28,41.67L563.99,73.43L564.11,78.56L564.82,92.03L564.94,86.25L565.06,78.88L566.01,39.11L566.13,39.75L566.25,40.07L567.67,75.67L567.79,74.07L568.98,40.39L569.1,42L569.22,43.92L570.52,79.2L570.64,76.95L570.76,65.73L571.59,27.24L571.71,31.73L571.83,38.47L571.95,33.66L572.3,48.09L572.42,54.18L573.37,68.94L573.61,66.69L573.73,63.48L574.56,37.18L574.8,39.43L574.91,39.11L576.22,81.76L576.34,79.2L577.65,30.45L577.76,32.69L578.36,64.77L578.48,72.78L579.07,83.05L579.19,75.99L579.31,65.41L580.38,22.11L580.5,20.83L580.85,34.94L580.97,44.56L581.92,74.07L582.04,67.65L582.16,55.47L583.23,12.17L583.35,15.38L583.58,18.9L583.7,32.69L584.77,68.94L584.89,63.16L586.08,8L586.19,10.24L586.55,26.6L586.67,36.86L587.62,69.9L587.74,60.28L587.86,48.09L588.69,11.21L588.93,22.75L589.04,33.02L589.16,31.41L589.28,33.98L589.4,32.05L589.52,42.32L590.47,56.75L590.59,58.99L591.66,35.58L591.78,40.07L592.73,66.37L592.84,67.33L593.32,72.14L593.44,69.58L593.56,64.45L594.03,47.13L594.27,53.22L594.39,66.69L594.51,68.29L594.62,60.6L594.74,56.75L595.57,64.45L595.69,66.05L596.41,71.82L596.52,70.86L596.64,68.61L596.88,69.26L597,67.65L597.12,66.05L597.59,57.07L597.95,59.31L598.07,60.6L599.14,67.01L599.26,64.77L600.44,38.47L600.56,38.15L601.87,74.39L601.99,74.07L602.46,68.29L602.58,66.37L603.17,51.3L603.53,56.75L603.65,62.52L604.72,81.44L604.84,79.84L604.95,73.1L605.9,45.2L606.02,46.81L606.14,46.16L606.38,53.54L606.5,61.56L607.57,85.61L607.69,82.41L608.75,43.6L608.87,45.2L608.99,45.52L609.59,70.54L609.7,73.1L609.82,73.43L609.94,72.78L610.06,71.82L610.42,79.84L610.77,73.43L610.89,68.29L611.6,60.6L611.72,60.92L611.84,65.41L611.96,63.48L612.2,68.94L612.32,71.5L613.15,83.69L613.27,86.57L613.39,85.93L613.5,79.52L614.57,42.64L614.69,42.32L614.93,47.45L615.05,59.63L615.64,76.95L616,76.31L616.12,72.14L616.23,73.43L616.35,65.73L617.42,40.71L617.54,46.49L617.66,45.84L617.78,51.62L618.85,67.65L618.97,69.26L619.08,70.86L619.2,67.97L619.32,61.56L619.8,41.67L620.27,48.09L620.39,45.2L621.46,65.41L621.58,66.37L622.05,72.14L622.29,68.29L622.41,65.73L622.88,64.12L623.6,72.46L623.72,72.14L624.55,78.56L624.78,76.63L624.9,74.07L626.09,45.2L626.33,50.33L626.45,63.8L627.51,84.33L627.63,80.48L628.94,29.17L629.06,31.73L630.25,59.63L630.36,59.96L630.6,59.96L630.72,61.24L630.84,62.84L630.96,60.92L631.08,62.2L631.2,57.39L631.31,67.65L631.79,52.58L631.91,52.9L633.21,78.56L633.33,77.59L634.52,37.18L634.64,39.11L634.76,41.03L635.94,78.24L636.06,80.48L636.42,78.88L636.54,77.27L637.37,64.45L637.61,71.18L637.73,73.75L638.91,85.93L639.03,85.29L639.15,79.52L640.1,62.2L640.22,62.84L640.81,83.05L640.93,86.57L641.76,98.12L641.88,97.48L642,88.5L642.71,62.52L642.95,66.37L643.07,62.2L643.31,60.92L643.43,64.77L643.54,77.92L644.26,91.71L644.61,90.42L644.73,89.78L645.92,54.5L646.04,69.58L646.16,64.12L646.39,74.71L646.75,70.54L646.87,75.03L647.58,83.37L647.7,75.03L648.77,51.94L649.01,55.79L649.12,62.2L649.96,85.93L650.07,84.65L650.19,82.08L650.67,74.39L650.79,70.86L651.62,51.3L651.74,52.26L651.86,53.54L652.81,75.03L653.04,72.78L653.16,71.82L653.52,60.6L653.64,52.58L654.59,27.88L654.7,35.58L655.65,68.29L655.77,69.26L656.13,71.5L656.37,68.61L656.49,66.05L657.32,51.62L657.44,54.5L657.55,56.11L658.62,71.18L658.74,70.54L658.86,70.54L658.98,72.14L659.34,67.33L659.45,66.05L659.57,65.41L659.69,68.29L659.81,71.18L659.93,69.26L660.29,72.46L660.4,76.63L661.35,83.69L661.47,84.65L661.71,90.42L662.07,85.93L662.19,83.05L663.02,57.39L663.25,60.6L663.37,67.97L664.44,93.95L664.56,94.27L665.15,62.2L665.27,58.67L665.98,50.33L666.1,52.26L666.22,57.07L667.29,92.67L667.41,93.63L667.53,94.27L667.65,84.01L668.6,44.88L668.83,46.16L668.95,49.05L669.9,82.08L670.26,80.48L670.38,78.56L671.45,38.79L671.8,41.03L671.92,48.41L672.99,75.03L673.11,75.67L673.23,75.99L673.35,70.86L674.06,33.98L674.3,43.6L674.41,43.28L674.65,53.22L674.77,59.31L676.08,76.31L676.2,70.22L677.15,35.58L677.26,41.03L677.38,47.13L678.81,75.99L678.93,74.07L679.05,69.58L680.23,35.26L680.35,37.83L681.42,69.58L681.54,67.33L681.66,67.97L681.9,65.41L682.01,61.88L682.37,44.88L682.49,38.79L683.08,28.85L683.2,32.05L683.32,46.49L683.91,69.26L684.27,66.37L684.39,64.12L684.63,65.41L684.74,61.88L684.98,66.05L685.1,60.6L685.22,58.03L685.34,62.52L685.58,45.52L685.69,40.07L686.17,55.14L686.29,59.63L687.36,74.71L687.48,74.39L687.59,72.14L688.54,34.3L688.66,35.58L688.78,35.26L689.02,47.77L689.14,56.11L690.33,76.95L690.44,72.46L691.51,32.05L691.63,33.34L692.82,65.41L692.94,65.41L693.18,67.01L693.29,65.73L693.41,58.35L693.89,41.67L694.24,49.37L694.36,54.18L696.14,80.48L696.26,78.56L697.21,59.63L697.33,61.56L698.87,105.82L698.99,101.01L699.11,88.5L700.06,53.54L700.18,54.5L700.42,69.26L700.54,76.63L701.49,99.08L701.61,97.8L701.72,98.12L701.84,91.39L702.79,46.49L702.91,47.13L703.03,47.45L704.45,89.78L704.57,87.22L705.64,67.97L705.76,65.41L707.07,92.99L707.3,91.71L707.42,91.71L707.9,78.56L708.02,69.9L708.25,70.22L708.37,67.97L708.61,69.58L708.73,70.22L710.39,86.9L710.51,85.29L711.1,69.26L711.58,74.39L711.7,76.95L713.12,95.55L713.24,93.31L713.95,75.67L714.31,81.12L714.43,84.65L715.38,90.74L715.5,90.74L716.33,88.82L716.45,86.9L717.28,80.16L717.4,84.01L717.52,90.42L718.58,106.46L718.7,107.1L719.18,95.55L719.3,84.01L719.89,67.33L720.25,71.18L720.37,82.41L721.43,103.89L721.55,104.86L721.67,105.18L721.79,103.57L721.91,92.67L722.74,58.99L722.86,61.56L722.98,61.88L723.21,73.75L723.33,83.37L723.57,88.18L723.93,82.41L724.05,82.41L724.16,78.56L724.28,81.44L724.76,75.67L724.88,71.82L725.59,51.62L725.83,53.54L725.95,58.67L726.66,85.93L726.9,80.8L727.01,79.84L727.25,84.97L727.37,86.25L728.56,49.69L728.68,52.58L728.8,55.79L730.22,79.2L730.34,78.56L731.41,51.62L731.65,55.14L731.76,68.29L732.95,87.86L733.07,86.25L734.26,39.75L734.38,42.32L734.49,50.01L735.68,90.74L735.8,92.35L736.16,85.93L736.28,70.54L737.11,46.16L737.23,50.65L737.34,56.43L738.53,77.92L738.65,76.95L739.24,82.41L739.48,79.52L739.6,77.92L739.96,67.33L740.31,76.31L740.43,81.76L741.62,107.42L741.74,108.06L742.81,74.07L742.92,75.03L743.04,79.2L744.35,116.72L744.47,113.19L745.66,78.24L745.77,78.88L745.89,83.69L747.32,121.85L747.44,117.36L748.51,72.78L748.62,73.75L748.74,80.48L750.05,117.04L750.17,116.72L750.29,113.84L751.24,52.9L751.36,54.18L751.71,69.58L751.83,75.99L753.02,108.38L753.14,104.86L754.09,58.67L754.32,64.77L754.44,68.29L755.51,91.71L755.75,88.82L755.87,76.95L756.34,80.8L756.58,78.56L756.7,76.63L757.05,75.35L757.29,77.59L757.41,79.84L758.48,91.71L758.6,93.95L758.84,96.84L758.95,94.27L759.07,85.93L759.79,67.65L760.02,70.54L760.14,73.1L761.33,80.8L761.45,81.12L761.57,82.41L761.8,80.16L761.92,76.63L762.64,70.22L762.75,71.82L762.87,73.43L763.7,85.93L763.94,84.65L764.06,84.65L764.18,84.33L764.3,85.61L764.42,86.25L764.65,84.01L764.77,78.56L765.13,70.22L765.48,73.1L765.6,73.75L766.55,76.63L766.79,76.31L766.91,76.63L767.15,75.67L767.27,76.95L767.5,76.31L767.62,74.07L768.1,64.12L768.22,67.33L768.33,76.95L768.81,75.35L768.93,78.56L769.64,84.65L769.76,83.69L769.88,83.05L770.12,85.29L770.23,81.76L770.35,82.41L770.47,78.56L771.07,69.26L771.3,70.54L771.42,72.46L772.61,93.95L772.73,92.03L772.85,93.95L773.2,87.86L773.32,81.44L774.03,56.43L774.27,61.24L774.39,67.33L774.63,65.41L774.86,72.46L775.1,67.65L775.22,62.84L775.81,79.52L776.29,79.2L776.41,77.27L776.53,78.24L776.65,74.39L776.76,72.46L776.88,71.5L777.12,74.39L777.24,77.59L778.31,96.84L778.43,100.37L779.73,60.6L779.97,63.48L780.09,66.05L781.28,78.88L781.4,79.52L781.75,79.84L782.11,76.63L782.23,73.43L783.53,106.46L783.65,104.21L784.01,110.63L784.48,106.14L784.6,103.57L785.55,90.74L785.67,91.06L785.79,96.84L786.14,105.18L786.62,103.57L786.74,105.18L786.86,106.78L787.33,105.5L787.45,103.25L788.04,89.14L788.4,91.39L788.52,91.39L788.76,92.03L788.99,89.78L789.35,90.1L789.47,90.74L789.71,89.46L789.94,90.42L790.06,91.06L790.3,88.5L790.42,94.59L790.54,94.27L790.66,93.63L791.13,91.39L791.37,92.67L791.49,93.95L792.67,112.87L793.03,111.91L793.15,107.42L793.74,92.03L794.1,95.55L794.22,96.52L795.76,102.93L795.88,102.93L796.95,92.03L797.07,93.95L797.19,97.8L797.31,100.37L797.9,99.4L798.02,98.76L798.14,99.08L798.26,97.48L798.37,96.84L800.27,83.05L800.39,82.08L800.51,81.76L800.75,82.41L800.87,79.2L801.58,90.42L801.82,88.18L801.94,88.18L802.17,87.22L802.53,87.86L802.65,88.5L803,91.06L803.12,92.99L804.07,97.16L804.19,96.2L805.5,84.65L805.62,84.97L805.74,92.03L805.97,93.31L806.09,95.88L806.69,102.93L807.16,101.01L807.28,100.69L807.64,86.9L807.75,82.73L808.35,68.94L808.47,71.82L808.59,79.84L809.89,96.2L810.13,93.63L810.25,88.82L811.2,59.63L811.32,62.52L811.44,69.58L812.62,79.84L812.74,80.48L812.86,82.08L813.1,80.48L813.22,74.39L813.93,49.05L814.17,56.43L814.28,62.2L815.71,86.9L815.83,84.65L815.95,84.97L816.07,75.67L816.66,46.49L817.02,55.79L817.13,66.69L818.32,91.06L818.44,93.95L818.8,90.1L818.92,84.97L819.63,59.31L819.87,67.33L819.98,73.1L821.53,94.91L821.65,93.31L821.77,88.82L822.36,76.31L822.71,77.59L822.83,84.01L823.55,99.72L823.78,97.8L823.9,96.2L824.14,93.95L824.26,94.27L824.38,95.88L825.33,64.77L825.56,70.54L825.68,75.03L826.4,84.97L826.63,84.33L826.75,84.65L826.87,84.01L827.11,86.25L827.23,86.25L827.46,79.52L827.58,73.43L828.18,65.09L828.3,75.67L828.89,91.06L829.25,87.86L829.36,87.54L829.84,86.9L829.96,88.18L830.31,88.82L830.43,86.9L831.03,80.16L831.26,82.08L831.38,83.69L831.62,84.97L831.74,83.37L831.86,83.37L831.98,82.73L832.45,99.4L832.93,96.2L833.04,94.91L833.88,75.03L833.99,70.22L835.66,99.72L835.89,95.88L836.01,92.67L836.73,68.94L837.08,77.27L837.2,81.76L838.63,102.61L838.74,97.8L838.86,92.35L839.34,72.78L839.81,78.56L839.93,83.05L840.53,98.44L840.88,90.42L841,88.18L841.36,89.14L841.59,87.86L841.71,86.9L842.42,80.16L842.66,81.76L842.78,82.41L843.61,98.44L843.73,93.31L843.85,86.9L844.44,90.74L844.56,88.82L844.68,86.57L845.27,69.26L845.39,73.43L845.51,78.56L846.11,84.01L846.34,81.76L846.46,81.44L847.29,84.33L847.41,79.52L848.12,69.9L848.24,70.22L848.36,75.99L849.55,100.69L849.67,100.69L850.02,106.78L850.26,96.52L850.38,89.14L851.09,71.18L851.21,75.67L851.33,81.12L852.4,92.67L852.52,92.67L852.87,91.06L852.99,85.61L853.35,63.8L853.82,71.18L853.94,75.03L855.13,106.14L855.49,104.53L855.6,104.53L855.84,105.18L855.96,103.89L856.08,101.97L856.55,94.91L856.79,100.04L856.91,102.93L857.03,101.33L857.39,106.46L857.5,107.1L857.98,112.87L858.57,111.91L858.69,109.99L859.4,96.84L859.76,101.01L859.88,101.97L860.59,105.82L860.71,106.46L860.83,106.14L860.95,107.1L861.07,108.06L861.42,117.04L861.54,111.27L861.66,107.42L862.02,96.52L862.49,102.61L862.61,104.21L863.2,107.42L863.32,110.31L864.27,128.91L864.39,122.82L865.1,94.91L865.34,104.21L865.46,109.02L865.82,118L865.93,122.82L866.77,116.4L866.88,115.12L867.6,108.06L867.72,106.46L869.26,89.78L869.38,89.46L869.73,87.54L869.85,85.93L869.97,86.25L870.09,84.33L870.33,81.44L870.45,76.63L870.8,69.9L871.16,76.31L871.28,80.16L872.82,91.06L873.06,89.46L873.18,88.82L873.53,85.29L873.89,87.86L874.01,89.78L875.67,98.76L875.79,96.52L875.91,91.71L876.38,84.33L876.62,89.46L876.74,91.06L876.86,95.88L877.45,92.35L877.57,93.63L877.69,92.99L877.93,94.59L878.05,98.12L878.52,101.01L878.76,98.76L878.88,94.27L879.11,90.1L879.59,94.91L879.71,100.69L880.42,110.63L880.78,107.74L880.9,108.38L881.25,111.59L881.96,94.91L882.2,95.88L882.32,98.44L883.03,105.5L883.51,105.18L883.63,104.86L883.98,107.42L884.1,109.67L884.22,110.31L884.34,106.78L885.05,91.71L885.29,95.88L885.41,96.2L886.48,105.82L886.59,106.46L887.07,108.38L887.19,107.42L887.31,106.14L887.78,102.93L888.14,104.21L888.26,104.53L888.85,105.18L888.97,108.7L889.8,112.23L889.92,111.91L890.04,110.95L890.75,102.29L890.87,102.93L890.99,108.7L892.06,127.31L892.29,126.34L892.41,123.78L892.65,126.34L892.77,128.59L892.89,129.23L893.01,126.98L893.12,120.89L893.6,106.46L893.84,117.04L893.96,119.29L894.79,116.4L895.02,117.36L895.14,118L895.86,123.46L896.21,122.82L896.33,121.85L898.11,112.87L898.23,112.87L898.35,114.16L898.71,110.63L898.82,108.06L899.3,105.82L899.42,106.14L899.54,109.99L900.37,113.84L900.49,112.55L901.32,116.4L901.44,115.44L901.55,113.84L902.15,103.89L902.39,107.42L902.5,108.7L902.74,109.99L902.86,114.8L903.81,126.98L904.05,124.74L904.17,122.82L905,104.21L905.12,106.14L905.24,110.31L905.95,115.12L906.19,114.16L906.3,113.84L906.54,114.8L907.02,109.67L907.14,105.82L907.37,97.16L907.85,103.89L907.97,104.86L908.44,109.67L908.92,109.35L909.04,108.7L909.87,113.51L909.99,111.27L910.1,110.63L910.94,107.42L911.05,109.67L911.17,112.87L911.41,108.7L911.77,110.63L911.88,110.95L912.6,113.84L912.72,115.12L913.19,109.02L913.31,105.18L913.55,98.76L913.9,106.78L914.02,108.38L914.26,105.82L914.38,105.18L915.57,113.51L915.68,113.19L915.8,108.38L916.4,101.65L916.52,102.93L916.63,106.78L917.7,118.33L917.82,118L917.94,117.36L918.06,118.33L918.18,122.49L918.3,122.17L918.42,118.97L919.01,104.21L919.48,108.38L919.6,109.67L921.03,118.33L921.26,117.68L921.38,116.72L922.1,107.74L922.33,109.67L922.45,110.63L923.28,115.12L923.52,114.48L923.64,114.48L924.23,113.19L924.35,111.27L924.95,108.7L925.18,110.31L925.3,110.63L926.25,114.48L926.37,114.16L927.32,115.76L927.44,115.12L927.91,113.51L928.03,115.12L928.98,111.59L929.1,112.87L929.22,113.19L929.46,114.16L929.7,111.91L929.81,109.67L930.53,83.69L930.88,89.14L931,90.74L931.24,91.06L931.36,94.27L932.78,114.48L932.9,111.27L933.02,103.25L933.49,93.95L933.73,101.33L933.85,105.82L933.97,105.18L934.09,114.16L934.21,112.55L934.33,115.76L934.44,119.61L934.8,117.36L935.04,119.29L935.16,119.29L936.46,112.55L936.58,113.19L937.29,116.4L937.41,115.44L937.53,114.8L938.36,111.27L938.48,109.67L939.19,102.61L939.55,104.21L939.67,104.86L940.97,112.55L941.09,109.35L941.45,109.02L941.57,107.74L942.64,95.88L942.76,95.88L942.99,94.59L943.11,97.8L943.23,97.8L943.47,99.4L943.82,97.8L943.94,96.2L944.18,99.4L944.3,95.55L944.54,90.74L945.01,92.03L945.13,94.91L946.08,100.69L946.2,99.72L946.32,99.4L946.56,100.37L946.79,99.72L946.91,99.08L947.27,97.48L947.39,100.04L948.34,118.97L948.57,116.08L948.69,115.12L948.81,114.8L948.93,115.76L949.05,117.36L949.17,115.76L949.64,117.68L949.76,118.33L950.59,110.95L950.71,114.16L951.66,130.51L951.78,122.82L952.14,126.02L952.49,122.17L952.61,121.53L952.73,122.17L953.09,120.25L953.2,119.61L953.32,119.29L953.44,119.61L953.56,121.53L954.63,124.42L954.75,123.46L955.34,125.06L955.58,124.1L955.7,123.78L956.05,115.44L956.53,118.97L956.65,119.61L956.89,120.25L957.24,118.65L957.48,118.97L957.6,119.93L958.31,124.74L958.43,123.78L958.55,121.21L959.02,109.02L959.38,116.08L959.5,121.53L961.16,137.25L961.28,133.4L961.87,108.7L962.23,117.36L962.35,118.65L963.42,138.53L963.53,132.76L963.65,136.61L964.25,132.44L964.37,132.12L964.84,129.55L965.08,130.19L965.2,132.12L967.1,128.59L967.22,126.34L967.69,113.51L968.28,115.76L968.4,115.44L970.42,97.8L970.66,100.37L970.78,101.97L970.9,101.65L971.01,102.93L971.13,102.93L971.25,105.18L971.61,104.53L971.73,105.82L971.85,105.82L971.96,105.5L972.32,102.93L972.56,103.25L972.68,105.82L973.27,95.55L973.98,95.88L974.1,96.2L974.46,94.27L975.41,109.02L975.53,107.74L976,96.84L976.36,100.69L976.48,103.89L977.66,113.84L977.78,115.44L978.14,122.49L978.5,118L978.61,116.72L979.21,113.19L979.33,120.57L980.04,130.19L980.28,128.27L980.4,127.63L981.23,132.12L981.34,128.91L981.94,121.53L982.29,123.14L982.41,124.1L983.36,119.61L983.48,120.89L983.6,120.89L983.96,121.53L984.08,120.57L984.19,118.97L984.91,115.76L985.03,116.72L985.14,118.33L986.09,127.31L986.21,125.06L986.69,125.7L986.93,125.06L987.04,124.42L987.88,113.19L988.23,115.44L988.35,117.04L989.3,114.48L989.42,117.36L989.78,111.91L989.89,104.86L990.13,99.72L990.37,105.5L990.61,104.53L990.72,104.86L991.2,101.33L991.44,102.93L991.56,104.53L991.67,109.67L992.15,106.78L992.27,102.29L993.22,84.65L993.34,95.55L994.17,103.57L994.29,103.25L994.41,101.97L994.76,101.97L994.88,103.25L995.24,106.14L995.36,108.06L995.47,109.67L995.71,102.29L995.83,100.04L996.07,95.23L996.31,102.61L996.42,105.82L997.14,113.84L997.26,113.19L997.37,111.59L997.61,109.35L997.85,111.59L997.97,113.84L998.32,114.8L998.56,106.78L998.68,99.4L998.8,92.03L999.27,100.37L999.39,103.25L999.99,101.65L1000.22,107.74L1000.34,105.82L1000.46,105.18L1000.58,106.46L1000.7,110.63L1001.41,101.97L1001.53,93.63L1001.89,84.33L1002.12,91.71L1002.24,98.76L1002.6,108.06L1002.95,101.33L1003.07,99.08L1003.79,118L1004.02,112.23L1004.14,108.38L1004.62,94.59L1004.97,100.37L1005.09,105.82L1005.21,104.53L1005.33,112.23L1005.57,108.06L1006.04,109.02L1006.16,115.76L1006.28,116.72L1006.64,114.16L1006.75,107.74L1007.23,94.91L1007.82,97.48L1007.94,99.08L1008.18,91.39L1008.42,96.84L1008.54,100.04L1009.6,116.72L1009.84,113.51L1009.96,111.59L1010.43,102.61L1010.79,107.74L1010.91,108.38L1011.38,116.72L1011.86,115.76L1011.98,114.8L1012.93,109.02L1013.05,101.97L1013.4,100.04L1013.64,101.97L1013.76,102.61L1014.83,107.42L1014.95,106.78L1015.07,106.14L1015.54,107.42L1015.66,107.1L1015.78,104.53L1015.9,104.86L1016.02,103.25L1016.13,101.97L1016.49,107.74L1017.08,106.14L1017.2,106.78L1017.32,105.82L1017.56,107.74L1017.68,109.02L1018.27,112.87L1018.39,111.91L1018.51,109.67L1019.93,101.97L1020.05,103.25L1020.65,106.14L1020.76,104.53L1020.88,103.89L1021.36,104.53L1021.71,102.93L1021.83,104.53L1023.14,112.55L1023.5,112.23L1023.61,112.23L1023.85,113.84L1024.09,113.19L1024.21,109.35L1024.45,103.25L1024.8,109.02L1024.92,112.23L1025.87,116.72L1025.99,116.4L1026.11,116.72L1026.46,115.76L1026.58,114.8L1026.94,113.19L1027.06,111.27L1027.41,109.67L1027.65,113.19L1027.77,113.84L1028.25,124.74L1028.6,123.14L1028.72,124.42L1029.2,126.66L1029.55,125.7L1029.67,125.38L1029.79,125.7L1029.91,123.78L1030.26,120.25L1030.62,123.46L1030.74,123.78L1031.69,139.49L1031.81,137.25L1031.93,134.68L1032.4,144.3L1032.64,135.96L1032.76,130.83L1033.23,120.57L1033.47,126.02L1033.59,128.59L1033.94,133.4L1034.06,135.32L1034.18,135L1034.3,137.57L1034.54,138.53L1034.78,135.96L1034.89,134.68L1035.25,136.29L1035.37,135.32L1035.49,131.8L1036.08,107.42L1036.44,119.61L1036.56,120.89L1036.91,127.95L1037.51,126.66L1037.63,127.63L1038.1,128.91L1038.46,120.89L1038.58,111.91L1038.69,108.06L1039.17,114.48L1039.29,114.16L1040,124.74" style="vector-effect: none; fill: none; stroke: rgb(0, 117, 173); stroke-opacity: 1; stroke-width: 2px; opacity: 1;"/></g><g class="points"/><g class="text"/></g></g></g><g class="overplot"/><path class="xlines-above crisp" d="M0,0" style="fill: none;"/><path class="ylines-above crisp" d="M0,0" style="fill: none;"/><g class="overlines-above"/><g class="xaxislayer-above"><g class="xtick"><text text-anchor="middle" x="0" y="199" transform="translate(80,0)" style="font-family: Arial; font-size: 13px; fill: rgb(51, 51, 51); fill-opacity: 1; white-space: pre; opacity: 1;">Jan 2019</text></g><g class="xtick"><text text-anchor="middle" x="0" y="199" style="font-family: Arial; font-size: 13px; fill: rgb(51, 51, 51); fill-opacity: 1; white-space: pre; opacity: 1;" transform="translate(168.34,0)">Feb 2019</text></g><g class="xtick"><text text-anchor="middle" x="0" y="199" style="font-family: Arial; font-size: 13px; fill: rgb(51, 51, 51); fill-opacity: 1; white-space: pre; opacity: 1;" transform="translate(248.13,0)">Mar 2019</text></g><g class="xtick"><text text-anchor="middle" x="0" y="199" style="font-family: Arial; font-size: 13px; fill: rgb(51, 51, 51); fill-opacity: 1; white-space: pre; opacity: 1;" transform="translate(336.47,0)">Apr 2019</text></g><g class="xtick"><text text-anchor="middle" x="0" y="199" style="font-family: Arial; font-size: 13px; fill: rgb(51, 51, 51); fill-opacity: 1; white-space: pre; opacity: 1;" transform="translate(421.96,0)">May 2019</text></g><g class="xtick"><text text-anchor="middle" x="0" y="199" style="font-family: Arial; font-size: 13px; fill: rgb(51, 51, 51); fill-opacity: 1; white-space: pre; opacity: 1;" transform="translate(510.3,0)">Jun 2019</text></g><g class="xtick"><text text-anchor="middle" x="0" y="199" style="font-family: Arial; font-size: 13px; fill: rgb(51, 51, 51); fill-opacity: 1; white-space: pre; opacity: 1;" transform="translate(595.78,0)">Jul 2019</text></g><g class="xtick"><text text-anchor="middle" x="0" y="199" style="font-family: Arial; font-size: 13px; fill: rgb(51, 51, 51); fill-opacity: 1; white-space: pre; opacity: 1;" transform="translate(684.12,0)">Aug 2019</text></g><g class="xtick"><text text-anchor="middle" x="0" y="199" style="font-family: Arial; font-size: 13px; fill: rgb(51, 51, 51); fill-opacity: 1; white-space: pre; opacity: 1;" transform="translate(772.46,0)">Sep 2019</text></g><g class="xtick"><text text-anchor="middle" x="0" y="199" style="font-family: Arial; font-size: 13px; fill: rgb(51, 51, 51); fill-opacity: 1; white-space: pre; opacity: 1;" transform="translate(857.95,0)">Oct 2019</text></g><g class="xtick"><text text-anchor="middle" x="0" y="199" style="font-family: Arial; font-size: 13px; fill: rgb(51, 51, 51); fill-opacity: 1; white-space: pre; opacity: 1;" transform="translate(946.29,0)">Nov 2019</text></g><g class="xtick"><text text-anchor="middle" x="0" y="199" style="font-family: Arial; font-size: 13px; fill: rgb(51, 51, 51); fill-opacity: 1; white-space: pre; opacity: 1;" transform="translate(1031.78,0)">Dec 2019</text></g></g><g class="yaxislayer-above"><g class="ytick"><text text-anchor="end" x="79" y="4.55" transform="translate(0,180.85)" style="font-family: Arial; font-size: 13px; fill: rgb(51, 51, 51); fill-opacity: 1; white-space: pre; opacity: 1;">−10</text></g><g class="ytick"><text text-anchor="end" x="79" y="4.55" style="font-family: Arial; font-size: 13px; fill: rgb(51, 51, 51); fill-opacity: 1; white-space: pre; opacity: 1;" transform="translate(0,164.81)">−5</text></g><g class="ytick"><text text-anchor="end" x="79" y="4.55" style="font-family: Arial; font-size: 13px; fill: rgb(51, 51, 51); fill-opacity: 1; white-space: pre; opacity: 1;" transform="translate(0,148.78)">0</text></g><g class="ytick"><text text-anchor="end" x="79" y="4.55" style="font-family: Arial; font-size: 13px; fill: rgb(51, 51, 51); fill-opacity: 1; white-space: pre; opacity: 1;" transform="translate(0,132.74)">5</text></g><g class="ytick"><text text-anchor="end" x="79" y="4.55" style="font-family: Arial; font-size: 13px; fill: rgb(51, 51, 51); fill-opacity: 1; white-space: pre; opacity: 1;" transform="translate(0,116.71)">10</text></g><g class="ytick"><text text-anchor="end" x="79" y="4.55" style="font-family: Arial; font-size: 13px; fill: rgb(51, 51, 51); fill-opacity: 1; white-space: pre; opacity: 1;" transform="translate(0,100.67)">15</text></g><g class="ytick"><text text-anchor="end" x="79" y="4.55" style="font-family: Arial; font-size: 13px; fill: rgb(51, 51, 51); fill-opacity: 1; white-space: pre; opacity: 1;" transform="translate(0,84.63)">20</text></g><g class="ytick"><text text-anchor="end" x="79" y="4.55" style="font-family: Arial; font-size: 13px; fill: rgb(51, 51, 51); fill-opacity: 1; white-space: pre; opacity: 1;" transform="translate(0,68.6)">25</text></g><g class="ytick"><text text-anchor="end" x="79" y="4.55" style="font-family: Arial; font-size: 13px; fill: rgb(51, 51, 51); fill-opacity: 1; white-space: pre; opacity: 1;" transform="translate(0,52.56)">30</text></g><g class="ytick"><text text-anchor="end" x="79" y="4.55" style="font-family: Arial; font-size: 13px; fill: rgb(51, 51, 51); fill-opacity: 1; white-space: pre; opacity: 1;" transform="translate(0,36.53)">35</text></g></g><g class="overaxes-above"/></g></g><g class="polarlayer"/><g class="smithlayer"/><g class="ternarylayer"/><g class="geolayer"/><g class="funnelarealayer"/><g class="pielayer"/><g class="iciclelayer"/><g class="treemaplayer"/><g class="sunburstlayer"/><g class="glimages"/><defs id="topdefs-7d2a88"><g class="clips"/></defs><g class="layer-above"><g class="imagelayer"/><g class="shapelayer"/></g><g class="infolayer"><g class="g-gtitle"><text class="gtitle" x="600" y="0.22999999999998977" text-anchor="middle" dy="0.7em" style="font-family: 'Arial Black'; font-size: 20px; fill: rgb(51, 51, 51); opacity: 1; font-weight: normal; white-space: pre;">Air temperature of german weather station DWD 5440</text></g><g class="g-xtitle"/><g class="g-ytitle"><text class="ytitle" transform="rotate(-90,29.137500000000003,105)" x="29.137500000000003" y="105" text-anchor="middle" style="font-family: Arial; font-size: 19px; fill: rgb(51, 51, 51); opacity: 1; font-weight: normal; white-space: pre;">Temperature [°C]</text></g></g></svg>