<svg class="main-svg" xmlns="http://www.w3.org/2000/svg" xmlns:xlink="http://www.w3.org/1999/xlink" width="1200" height="230" style="" viewBox="0 0 1200 230"><rect x="0" y="0" width="1200" height="230" style="fill: rgb(255, 255, 255); fill-opacity: 1;"/><defs id="defs-b75be6"><g class="clips"><clipPath id="clipb75be6xyplot" class="plotclip"><rect width="941" height="160"/></clipPath><clipPath class="axesclip" id="clipb75be6x"><rect x="80" y="0" width="941" height="230"/></clipPath><clipPath class="axesclip" id="clipb75be6y"><rect x="0" y="25" width="1200" height="160"/></clipPath><clipPath class="axesclip" id="clipb75be6xy"><rect x="80" y="25" width="941" height="160"/></clipPath></g><g class="gradients"/><g class="patterns"/></defs><g class="bglayer"/><g class="layer-below"><g class="imagelayer"/><g class="shapelayer"/></g><g class="cartesianlayer"><g class="subplot xy"><g class="layer-subplot"><g class="shapelayer"/><g class="imagelayer"/></g><g class="minor-gridlayer"><g class="x"/><g class="y"/></g><g class="gridlayer"><g class="x"><path class="xgrid crisp" transform="translate(146.94,0)" d="M0,25v160" style="stroke: rgb(200, 200, 200); stroke-opacity: 1; stroke-width: 1px;"/><path class="xgrid crisp" transform="translate(276.64,0)" d="M0,25v160" style="stroke: rgb(200, 200, 200); stroke-opacity: 1; stroke-width: 1px;"/><path class="xgrid crisp" transform="translate(406.33,0)" d="M0,25v160" style="stroke: rgb(200, 200, 200); stroke-opacity: 1; stroke-width: 1px;"/><path class="xgrid crisp" transform="translate(531.85,0)" d="M0,25v160" style="stroke: rgb(200, 200, 200); stroke-opacity: 1; stroke-width: 1px;"/><path class="xgrid crisp" transform="translate(661.54,0)" d="M0,25v160" style="stroke: rgb(200, 200, 200); stroke-opacity: 1; stroke-width: 1px;"/><path class="xgrid crisp" transform="translate(787.06,0)" d="M0,25v160" style="stroke: rgb(200, 200, 200); stroke-opacity: 1; stroke-width: 1px;"/><path class="xgrid crisp" transform="translate(916.75,0)" d="M0,25v160" style="stroke: rgb(200, 200, 200); stroke-opacity: 1; stroke-width: 1px;"/></g><g class="y"><path class="ygrid crisp" transform="translate(0,145.31)" d="M80,0h941" style="stroke: rgb(200, 200, 200); stroke-opacity: 1; stroke-width: 1px;"/><path class="ygrid crisp" transform="translate(0,113.62)" d="M80,0h941" style="stroke: rgb(200, 200, 200); stroke-opacity: 1; stroke-width: 1px;"/><path class="ygrid crisp" transform="translate(0,81.93)" d="M80,0h941" style="stroke: rgb(200, 200, 200); stroke-opacity: 1; stroke-width: 1px;"/><path class="ygrid crisp" transform="translate(0,50.239999999999995)" d="M80,0h941" style="stroke: rgb(200, 200, 200); stroke-opacity: 1; stroke-width: 1px;"/></g></g><g class="zerolinelayer"><path class="yzl zl crisp" transform="translate(0,177)" d="M80,0h941" style="stroke: rgb(255, 255, 255); stroke-opacity: 1; stroke-width: 2px;"/></g><path class="xlines-below"/><path class="ylines-below"/><g class="overlines-below"/><g class="xaxislayer-below"/><g class="yaxislayer-below"/><g class="overaxes-below"/><g class="plot" transform="translate(80,25)" clip-path="url(#clipb75be6xyplot)"><g class="scatterlayer mlayer"><g class="trace scatter trace90f728" style="stroke-miterlimit: 2; opacity: 1;"><g class="fills"/><g class="errorbars"/><g class="lines"><path class="js-line" d="M0,152L0.7,152L0.87,149.92L2.09,12.52L2.27,16.84L2.44,27.26L4.01,152L4.18,152L4.88,152L5.06,150.55L6.28,15.12L6.45,18.37L6.62,58.49L6.8,61.89L6.97,60.49L7.15,89.28L8.19,152L8.37,152L9.06,152L9.24,149.77L10.46,20.02L10.63,30.97L10.81,33.61L12.55,152L12.73,152L13.25,152L13.42,150.52L14.47,26.19L14.99,37.6L15.17,51.26L16.56,152L16.74,152L17.43,152L17.61,150.04L18.65,20.45L19.18,32.82L19.35,48.56L20.74,152L20.92,152L21.62,152L21.79,148.05L22.31,139.7L22.49,109.41L22.84,29.93L23.19,74.69L23.36,77.2L25.1,152L25.28,152L25.8,152L25.97,149.28L26.85,22.81L27.37,25.44L27.54,29.62L29.29,152L29.46,152L29.98,152L30.16,150.65L30.51,116.66L30.68,89.74L30.86,72.93L31.03,98.76L31.2,94.55L31.38,119.41L31.55,106.97L31.73,122.07L31.9,137.86L32.25,124.38L32.42,130.86L32.6,143.56L33.64,152L33.82,152L34.17,152L34.34,149.64L35.56,50.57L35.74,60.51L35.91,46.33L36.26,61.95L36.43,86.98L37.48,152L37.65,152L38.53,151.94L38.7,144.58L39.57,26.44L39.75,60.56L39.92,73.23L41.14,148.68L41.31,152L42.71,151.81L42.88,137.39L44.1,23.43L44.28,18.36L45.32,148.94L45.5,151.92L46.72,152L46.89,149.79L48.11,18.61L48.46,29.82L48.64,63.86L50.21,152L50.38,152L50.9,152L51.08,150.24L51.43,106.02L51.6,72.63L51.95,84.05L52.12,47.63L52.3,91.83L52.47,92.55L52.65,100.99L52.82,99.96L52.99,85.29L54.39,152L54.56,152L55.09,152L55.26,150.27L56.13,45.69L56.31,86.9L56.66,46.44L57,56.43L57.18,98.77L58.4,152L58.57,152L59.44,151.58L59.62,148.69L60.32,100.98L60.49,107.14L60.66,76.85L60.84,77.74L61.01,67.01L61.36,72.8L61.54,105.91L62.41,152L62.58,152L63.45,152L63.63,151.06L65.02,23.29L65.2,27.03L65.37,42.1L66.77,152L66.94,152L67.81,151.75L67.99,149.4L69.03,133.69L69.21,136.18L69.73,84.06L69.9,96.49L70.08,117.08L71.12,152L71.3,152L71.82,152L72,150.62L73.22,8L73.56,22.34L73.74,38.2L75.13,152L75.31,152L76.01,152L76.18,150.76L77.4,15.74L77.75,25.99L77.92,50.87L79.49,152L79.67,152L80.19,152L80.36,150.71L80.71,124.3L80.89,99.14L81.58,55.53L81.76,21.66L82.28,58.43L82.46,84.44L83.5,152L83.68,152L84.37,152L84.55,150.81L85.24,46.08L85.94,48.05L86.12,35.02L86.64,86.6L86.81,117.06L87.86,152L88.03,152L88.56,152L88.73,150.97L89.6,27.82L89.78,67.69L89.95,71.56L90.13,18.73L90.65,72.27L90.82,89.48L91.87,152L92.04,152L92.74,152L92.91,150.75L93.26,133.49L93.44,99.52L93.79,138.68L94.13,91.7L94.31,102.19L96.23,152L96.4,152L96.92,152L97.1,148.79L97.8,100.98L97.97,57.75L98.14,69.77L98.32,8.34L98.84,54.69L99.02,54.15L99.19,90.12L100.24,152L100.41,152L101.11,152L101.28,151.24L101.81,79.44L101.98,66.83L102.15,52.07L102.33,64.73L102.5,103.16L102.85,56.82L103.03,120.69L103.2,119.03L103.37,108.03L104.42,152L104.59,152L105.29,152L105.47,149.97L106.34,39.08L106.51,58.26L106.69,79.78L107.03,52.3L107.38,56.06L107.56,102.15L108.6,152L108.78,152L109.65,151.94L109.82,146.5L110.87,90.82L111.04,99.14L111.22,111.52L111.39,88.27L111.74,116.57L111.92,124.48L112.96,152L113.14,152L113.66,152L113.83,149.99L114.18,100.47L114.36,68.16L115.23,22.75L115.4,24.6L115.58,44.3L116.97,152L117.15,152L118.02,151.8L118.19,141.3L119.24,27.74L119.41,34.82L119.59,60.36L119.76,63.87L119.93,102.42L121.33,152L121.5,152L122.2,151.64L122.38,140.6L123.42,21.09L123.6,29.23L123.77,57.28L123.94,52.41L124.12,103.6L124.47,122.95L124.64,137.65L125.51,152L125.69,152L126.38,151.33L126.56,140.6L127.43,29.82L127.78,36.77L127.95,37.02L129.35,152L129.52,152L130.39,152L130.57,151.18L130.92,102.48L131.09,70.8L131.79,14.4L131.96,32.63L132.14,45.59L132.31,49.64L132.49,84.16L133.88,152L134.06,152L134.75,151.5L134.93,141.67L135.97,16.94L136.15,20.82L136.32,29.93L138.06,152L138.24,152L138.76,152L138.94,149.36L139.28,104.32L139.46,73.14L140.16,24.14L140.51,33.4L140.68,51.65L142.25,152L142.42,152L143.12,151.64L143.29,142.81L144.34,18.27L144.51,21.36L144.69,31.31L146.26,152L146.43,152L147.13,152L147.3,149.54L147.48,143.79L147.65,109.36L148.52,25.84L148.7,29.63L148.87,37.81L150.44,152L150.62,152L151.49,152L151.66,151.16L152.36,102.46L152.53,25.71L154.28,152L154.45,152L155.67,151.78L155.85,143.71L156.89,22.1L157.07,24.37L157.24,35.33L158.98,152L159.16,152L159.85,151.88L160.03,144.94L161.25,45.23L161.42,58.22L162.99,152L163.17,152L164.04,151.92L164.21,143.62L164.91,38.51L165.43,46.88L165.61,102.01L165.78,50.21L166.13,94.01L166.3,120.93L167.18,152L167.35,152L168.22,151.88L168.4,145.23L169.44,23.67L169.62,25.83L169.79,34.19L171.01,152L171.19,152L172.41,152L172.58,146.45L173.8,30.47L173.98,32.95L174.15,53.04L175.37,152L175.54,152L176.59,151.87L176.76,147.03L177.11,122.02L177.29,50.52L178.16,88.01L178.33,73.71L179.55,152L179.73,152L180.77,151.98L180.95,148.37L182.17,17.57L182.34,53.89L183.91,152L184.09,152L184.96,151.37L185.13,145.49L186.35,42.67L186.53,116.98L186.7,87.81L187.05,126.24L187.22,133.05L188.1,152L188.27,152L189.14,152L189.32,146.78L190.54,37.9L190.71,49.59L191.93,152L192.1,152L193.15,152L193.33,149.86L193.5,148.42L193.67,131.59L194.72,29.37L194.89,64.08L196.11,152L196.29,152L201.69,151.98L201.87,145.96L202.74,31.08L203.09,34.58L203.26,90.83L203.44,57.03L203.78,113.1L203.96,124.74L204.83,152L205,152L205.7,152L205.88,149.86L206.05,147.47L206.23,116.48L207.1,26.42L207.27,29.59L207.45,39.56L209.01,152L209.19,152L210.06,152L210.23,147.83L211.28,29.51L211.45,31.99L211.63,43.37L212.85,152L213.02,152L214.24,152L214.42,146.28L215.46,26.32L215.81,43.24L215.99,55.72L217.21,152L217.38,152L218.43,152L218.6,148.28L219.65,19.9L220,31.03L220.17,47.07L221.57,152L221.74,152L222.61,152L222.79,148L223.83,21.18L224.01,26.6L224.18,37.08L225.75,152L225.92,152L226.8,152L226.97,148.02L228.02,20.32L228.19,24.97L228.36,34.98L229.93,152L230.11,152L230.98,152L231.15,148.32L232.2,21.11L232.55,34.99L232.72,52.31L234.12,152L234.29,152L235.16,152L235.34,148.81L236.21,22.77L236.56,23.21L236.73,35.23L238.3,152L238.47,152L239.35,152L239.52,148.55L240.57,19.48L240.92,34.5L241.09,54.67L242.48,152L242.66,152L243.53,152L243.7,149.14L244.58,37.13L244.92,54.76L245.1,53.14L246.49,152L246.67,152L247.71,152L247.89,148.96L248.93,21.69L249.11,49.09L249.28,62.99L250.85,152L251.03,152L251.9,152L252.07,149.53L253.29,27.91L253.47,48.74L255.04,152L255.21,152L256.08,152L256.26,150.76L256.95,117.26L257.13,49.4L258.17,110.76L258.35,143.86L259.22,152L259.39,152L260.27,152L260.44,149.61L261.49,19.49L261.66,88.92L261.83,68.9L262.18,83.98L262.36,133.1L262.53,131.7L262.71,145.27L263.58,152L263.75,152L264.45,152L264.62,149.26L264.97,89.29L265.15,62.5L265.5,43.27L265.67,60.98L265.84,84.39L266.02,86.68L266.19,61.99L267.41,152L267.59,152L268.81,151.39L268.98,130.9L269.68,81.42L269.85,97.43L270.03,46.11L271.6,152L271.77,152L272.82,152L272.99,150.58L273.69,136.39L273.86,131.25L274.04,130.1L274.21,139L274.39,136.47L274.56,145.39L275.61,152L275.78,152L277.17,151.32L277.35,139.35L278.4,69.55L278.57,117.35L278.92,112.23L279.62,150.72L279.79,152L281.18,152L281.36,150.99L282.58,27.36L282.75,61.43L282.93,62.2L283.1,96.56L284.15,152L284.32,152L285.37,152L285.54,150.82L286.59,26.27L286.76,45.82L286.94,53.78L287.98,151.92L288.16,152L289.55,152L289.73,150.61L290.77,31.17L291.12,44.28L291.3,61.68L292.52,152L292.69,152L293.74,152L293.91,150.05L294.96,28.29L295.13,31.57L295.3,61.51L296.7,152L296.87,152L298.09,151.27L298.27,133.82L298.79,43.74L299.31,69.02L299.49,78.16L300.71,152L300.88,152L302.1,152L302.28,151.06L302.97,72.98L303.32,79.43L303.5,119.68L304.02,84.44L304.2,106.8L304.37,145.46L305.24,152L305.42,152L306.29,152L306.46,151.19L307.51,126.45L307.68,87.79L309.42,152L309.6,152L310.65,152L310.82,148.18L311.87,67.7L312.04,85.78L312.21,95.39L313.43,152L313.61,152L314.83,151.27L315,136.78L315.53,47.8L316.05,62.42L316.22,91.85L316.4,80.79L316.57,114.51L316.75,128.67L317.79,152L317.97,152L319.01,151.4L319.19,143.59L320.06,39.74L320.23,48.23L320.41,65.06L321.8,152L321.98,152L327.38,151.71L327.55,149.22L327.9,109.97L328.25,112.87L328.43,58.45L329.47,142.21L329.65,148.87L330.52,152L330.69,152L331.39,152L331.56,151.23L331.91,99.41L332.09,58.71L332.44,31.54L332.96,44.64L333.13,63.56L334.35,152L334.53,152L335.75,151.86L335.92,143.5L336.97,48.79L337.14,96.1L338.19,152L338.36,152L339.93,151.78L340.11,142.22L340.98,59.85L341.15,98.35L341.33,102.82L341.5,69.98L341.85,113.47L342.02,137.64L342.89,152L343.07,152L344.12,151.41L344.29,141.24L344.99,38.44L345.34,39.73L345.51,84.31L346.56,152L346.73,152L348.3,151.76L348.47,147.68L349.17,45.45L349.69,68.37L349.87,87.46L351.09,152L351.26,152L352.48,151.99L352.66,148.72L353.7,62.47L353.88,63.1L355.27,152L355.45,152L356.67,152L356.84,150.61L357.19,141.68L357.36,125.47L357.89,61.69L358.24,96.3L358.41,108.77L359.46,152L359.63,152L360.85,151.99L361.02,147.69L361.55,45.76L362.07,78.01L362.24,70.56L363.12,152L363.29,152L365.03,152L365.21,150L366.08,106.4L366.25,77.64L366.43,82.84L366.6,124.58L366.78,119.09L366.95,131.45L367.13,141.32L368,152L368.17,152L369.22,152L369.39,151.23L370.09,110.63L370.26,115.86L370.44,94.52L371.83,152L372.01,152L373.4,151.95L373.58,144.15L374.27,40.86L374.62,51.94L374.8,61.6L376.19,152L376.37,152L377.59,151.99L377.76,142.19L378.28,80.66L378.81,83.82L378.98,90.41L379.85,151.42L380.03,152L381.94,151.68L382.12,147.24L382.47,135.32L382.64,113.33L383.16,80.93L383.34,130.24L384.21,152L384.38,152L386.13,151.73L386.3,150.3L387.35,129.1L387.52,112.22L388.57,152L388.74,152L390.31,151.63L390.49,147.69L391.71,74.49L391.88,114.33L392.75,152L392.93,152L394.32,152L394.49,149.6L394.84,138.56L395.02,124.37L395.19,123.89L395.37,95.1L395.54,71.86L395.89,104.05L396.06,118.45L397.11,152L397.28,152L398.5,152L398.68,151.07L399.55,125.33L399.72,105.5L400.94,152L401.12,152L402.69,152L402.86,150.79L403.73,105.15L403.91,94.17L404.61,116.25L404.78,142.42L405.65,152L405.83,152L406.87,152L407.05,148.45L407.39,87.64L407.92,93.09L408.09,105.76L408.27,88.46L408.62,110.65L408.79,124.95L409.66,152L409.84,152L411.06,152L411.23,146.4L412.1,35.55L412.28,38.88L412.45,70.92L413.84,152L414.02,152L415.24,152L415.41,147.56L416.29,41.31L416.46,44.01L416.63,94.56L416.81,78.09L416.98,104.74L417.16,133.49L418.03,152L418.2,152L419.42,152L419.6,146.29L420.12,58.72L420.64,64.34L420.82,64.11L422.04,152L422.21,152L423.61,152L423.78,150.78L424.65,93.84L424.83,99.41L425,96.89L426.05,152L426.22,152L427.79,152L427.96,150.66L429.19,112.76L429.36,121.63L430.58,152L430.75,152L431.97,152L432.15,149.17L433.19,67.82L433.37,111.9L434.76,152L434.94,152L436.33,151.3L436.51,149.61L437.2,94.33L437.55,101.3L437.73,119.03L437.9,115.11L438.08,141.03L438.95,152L439.12,152L440.34,152L440.52,150.99L441.56,91.94L441.74,93.91L441.91,114.8L442.09,116.12L442.26,138.81L443.13,152L443.31,152L444.53,152L444.7,149.46L445.57,70.98L445.75,105.57L445.92,101.42L446.97,152L447.14,152L453.07,151.51L453.24,149.26L454.29,130.33L454.46,134.21L454.64,135.64L455.68,152L455.86,152L457.25,151.95L457.43,148.1L458.12,134.77L458.3,139.94L458.47,142.2L458.65,138.27L458.82,142.23L458.99,148.49L459.87,152L460.04,152L461.26,152L461.44,150.57L462.13,81.52L462.31,57.64L463.53,152L463.7,152L465.44,152L465.62,150.22L466.14,110.24L466.32,78.79L466.49,58.18L466.84,79.81L467.01,93.36L468.06,152L468.23,152L469.63,152L469.8,150.19L470.5,62.66L470.85,79.11L471.02,88.82L472.42,152L472.59,152L473.81,152L473.99,150.94L475.03,90.5L475.38,98.08L475.56,123.61L476.43,152L476.6,152L478.17,151.62L478.34,147.85L479.04,62.79L479.22,91.11L479.39,103.94L480.44,152L480.61,152L482.35,151.81L482.53,146.08L483.23,65.24L483.57,80.33L483.75,104.01L484.79,152L484.97,152L486.36,152L486.54,150.96L487.41,51.44L487.58,58.05L487.76,76.5L488.98,152L489.15,152L490.72,151.6L490.9,146.66L491.59,77.85L491.77,83.83L491.94,107.21L492.12,100.15L492.29,121.92L492.46,144.87L493.34,152L493.51,152L494.91,152L495.08,149.95L496.3,117.85L496.47,128.72L497.35,152L497.52,152L499.09,151.93L499.26,145.98L499.79,122.1L500.31,122.59L500.48,122.49L501.7,152L501.88,152L503.27,151.97L503.45,149.83L504.32,117.97L504.49,129.78L504.67,127.19L505.89,152L506.06,152L507.46,151.99L507.63,138.09L507.98,101.67L508.33,108L508.5,123.97L508.68,118.24L508.85,138.55L510.07,152L510.25,152L511.64,152L511.81,150.45L512.86,104.27L513.04,111.73L513.21,136.07L514.08,152L514.26,152L515.82,151.87L516,146.29L516.87,78.61L517.04,88.24L517.22,107.35L518.09,152L518.26,152L520.01,151.71L520.18,140.04L520.71,66.39L521.05,79.47L521.23,89.55L522.45,152L522.62,152L524.19,152L524.37,146.97L524.89,101.1L525.24,103.06L525.41,101.49L525.59,106.59L525.76,134.18L526.63,152L526.81,152L528.38,152L528.55,148L529.6,96.41L529.77,114.14L529.94,118.04L530.82,152L530.99,152L532.56,152L532.73,149.71L533.26,89.59L533.61,101.89L533.78,109.59L534.65,152L534.83,152L536.74,152L536.92,150.12L537.79,128.33L537.96,112.42L539.18,152L539.36,152L540.93,152L541.1,147.99L541.8,67.89L542.15,101.85L542.32,111.72L543.19,152L543.37,152L545.11,151.94L545.28,143.96L545.98,76.55L546.16,95.88L546.33,117.82L546.68,134.94L546.85,147.54L547.73,152L547.9,152L549.29,152L549.47,149.99L549.82,144.88L549.99,137.53L550.51,125.11L550.69,131L550.86,134.99L551.73,152L551.91,152L553.3,152L553.48,150.94L553.83,140.88L554,101.12L554.52,61.2L554.7,103.29L555.74,152L555.92,152L557.66,152L557.84,150.87L558.71,101.27L558.88,102.42L559.06,116.26L559.93,152L560.1,152L561.85,152L562.02,147.47L562.72,74.5L562.89,81.28L563.07,95.64L564.11,152L564.29,152L566.03,152L566.2,150.04L566.9,85.21L567.08,107.53L567.25,119.82L568.47,152L568.64,152L570.21,152L570.39,149.35L571.08,77.13L571.43,104.86L571.61,121.76L572.65,152L572.83,152L574.22,152L574.4,148.43L575.09,79.36L575.27,90.52L575.44,101.78L576.49,152L576.66,152L578.41,151.98L578.58,146.79L578.93,96.49L579.45,99.96L579.63,119.46L581.02,152L581.2,152L582.59,152L582.76,150.84L583.64,115.98L583.81,122.96L583.98,130.43L585.03,152L585.21,152L586.77,152L586.95,145.54L587.99,96.73L588.17,120.21L589.04,152L589.21,152L590.96,152L591.13,147.54L592,121.77L592.18,128.05L593.22,152L593.4,152L595.14,152L595.32,149.68L596.01,126.11L596.19,117.36L597.58,152L597.76,152L599.5,151.96L599.67,147.38L600.37,124.24L600.55,131L600.72,135.64L601.77,152L601.94,152L603.51,152L603.68,148.27L604.56,127.21L604.73,133.68L605.95,152L606.12,152L607.69,152L607.87,149.78L608.56,97.49L608.74,100.75L608.91,118.55L609.96,152L610.13,152L611.88,152L612.05,147.91L612.75,91.69L613.1,116.46L613.27,126.92L614.14,152L614.32,152L616.23,151.98L616.41,149.44L616.76,130.91L616.93,123.05L617.11,103.35L617.45,140.6L617.63,146.57L618.5,152L618.68,152L620.24,152L620.42,150.7L620.94,94.07L621.46,109.71L621.64,126.52L622.51,152L622.68,152L624.43,152L624.6,150.56L625.3,84.17L625.47,96.22L625.65,118.27L626.69,152L626.87,152L628.79,151.4L628.96,138.26L629.66,107.15L629.83,115.08L630.01,130.03L631.05,152L631.23,152L632.8,152L632.97,150.8L633.67,84.59L633.84,90.12L634.02,104.72L635.06,152L635.24,152L637.15,151.71L637.33,147.71L637.85,106.85L638.03,118.68L638.2,133.17L638.37,135.29L638.55,147.42L639.59,152L639.77,152L641.16,152L641.34,150.82L641.86,91.96L642.03,101.36L642.21,125.86L642.38,123.22L642.56,131.81L642.73,144.74L643.6,152L643.78,152L645.52,152L645.7,150.37L646.39,119.34L646.74,131.23L646.92,146.48L647.79,152L647.96,152L649.7,151.94L649.88,145.44L650.75,117.42L650.93,136.86L651.97,152L652.15,152L653.89,151.98L654.06,150.31L654.59,135.38L654.93,143.44L655.11,138.55L656.15,152L656.33,152L658.25,151.54L658.42,149.54L658.77,137.75L659.12,144.34L659.29,147.49L660.16,152L660.34,152L662.26,152L662.43,150.32L663.48,138.87L663.65,143.91L664.52,152L664.7,152L666.44,152L666.61,149.59L667.31,100.66L667.49,119.02L667.66,136.5L668.53,152L668.71,152L670.62,151.88L670.8,146.56L671.32,121.61L671.67,136.46L671.84,141.98L672.72,152L672.89,152L674.81,152L674.98,148.85L675.5,90.81L675.85,114.68L676.03,136.82L676.9,152L677.07,152L678.99,151.9L679.17,148.59L679.51,143.91L679.69,129.19L679.86,111.5L680.21,146.57L680.39,148.58L681.26,152L681.43,152L683.18,151.99L683.35,146.08L683.7,103.8L684.05,129.57L684.22,144.63L685.44,152L685.62,152L687.36,152L687.53,150.31L688.23,136.46L688.4,138.77L688.58,143.32L689.63,152L689.8,152L691.54,151.92L691.72,146.57L692.41,101.33L692.59,126.5L692.76,129.35L693.63,152L693.81,152L695.73,152L695.9,147.84L696.6,132.6L696.77,143.03L696.95,146.58L697.82,152L697.99,152L699.91,152L700.08,151.21L700.61,137.74L700.96,144.99L701.13,147.74L702,152L702.18,152L704.09,152L704.27,150.69L704.79,141.48L705.14,143.54L705.31,147.3L706.36,152L706.53,152L708.28,152L708.45,151.2L708.97,129.09L709.32,130.42L709.5,139.92L710.37,152L710.54,152L712.64,151.66L712.81,149.52L713.33,146.25L713.51,147.55L713.68,150.69L714.9,152L715.08,152L717.17,151.43L717.34,150.5L719.09,152L719.26,152L720.83,152L721,149.69L721.18,149.75L721.35,148.16L721.7,146.1L721.87,148.53L722.92,152L723.1,152L725.01,152L725.19,149.13L725.36,148.93L725.54,147L725.88,140.15L726.06,146.18L726.23,149.4L727.28,152L727.45,152L729.37,151.49L729.55,149.35L730.07,148.79L730.24,149.41L730.42,150.41L731.29,152L731.46,152L733.38,152L733.55,150.75L733.9,127.15L734.25,137.91L734.43,143.35L735.3,152L735.47,152L737.56,152L737.74,149.36L738.26,116.06L738.44,132.31L738.61,140.49L739.66,152L739.83,152L741.75,152L741.92,148.79L742.62,137.98L742.79,138.43L742.97,146.1L743.84,152L744.01,152L745.93,152L746.11,150.52L746.63,128.31L746.8,133.96L746.98,141.32L748.02,152L748.2,152L754.47,151.98L754.65,150.78L754.82,150.77L755,149.89L755.35,148.4L755.87,152L756.04,152L758.66,152L758.83,149.68L759.7,152L759.88,152L763.19,151.99L763.36,148.71L764.24,152L764.41,152L767.2,152L767.37,150.82L767.72,147.73L767.9,151.47L768.07,148.9L768.25,152L771.38,152L771.56,147.98L772.43,152L772.6,152L779.92,152L780.1,151.14L780.27,144.69L780.62,152L780.8,152L780.97,152L783.93,152L784.11,150.71L785.5,152L785.68,152L788.29,152L788.47,148.83L789.51,152L789.69,152L792.13,151.95L792.3,149.91L792.82,135.51L793.17,140.14L793.35,146.5L794.22,152L794.39,152L796.31,151.25L796.49,135.05L796.66,132.96L796.83,136.55L797.01,142.53L798.05,152L798.23,152L800.49,151.77L800.67,145.39L801.19,142.79L801.72,150.75L801.89,152L804.5,152L804.68,150.69L805.38,103.84L805.55,122.6L805.72,143.81L806.6,152L806.77,152L808.69,152L808.86,151.08L809.21,133.32L809.39,107.86L810.95,152L811.13,152L813.05,151.96L813.22,149.3L813.39,149.67L813.57,146.44L813.74,147.97L813.92,142.75L815.14,152L815.31,152L817.06,152L817.23,149.1L817.93,99.85L818.1,114.77L818.28,141.74L819.15,152L819.32,152L821.24,152L821.41,149.38L821.76,138.14L821.94,114.05L823.16,152L823.33,152L825.6,151.41L825.77,139.39L825.95,143.83L826.29,135.84L826.47,137.25L827.69,152L827.86,152L829.61,152L829.78,150.44L830.48,108.49L830.65,121.21L830.83,140.95L831.7,152L831.87,152L833.79,152L833.97,149.79L834.66,112.74L834.84,124.83L835.01,137.01L835.88,152L836.06,152L837.97,152L838.15,148.17L838.85,112.65L839.02,114.37L839.19,133.61L840.07,152L840.24,152L842.16,152L842.33,150.17L843.03,122.16L843.2,125.56L843.38,136.33L844.25,152L844.42,152L846.34,152L846.52,149.86L847.04,119.41L847.21,124.25L847.39,139.89L848.61,152L848.78,152L850.53,151.97L850.7,151.06L851.4,139.91L851.57,144.83L851.75,145.83L852.62,152L852.79,152L854.71,152L854.88,150.13L855.23,147.01L855.41,139.01L856.28,151.7L856.45,152L858.89,152L859.07,150.01L859.24,149.46L859.42,136.59L859.77,110.28L859.94,142.86L860.11,144.37L861.16,152L861.33,152L863.08,152L863.25,150.27L863.43,147.88L863.6,133.64L863.95,127.01L864.12,115.93L865.17,152L865.34,152L867.44,151.4L867.61,146.72L867.78,146.64L867.96,144.97L868.31,135.66L868.48,140.2L868.66,145.19L869.53,152L869.7,152L871.44,152L871.62,151.12L872.49,130.39L872.67,136.84L872.84,148.55L873.71,152L873.89,152L875.63,152L875.8,150.92L876.33,133.67L876.5,116.41L877.72,152L877.89,152L879.99,151.28L880.16,143.64L880.34,137.09L880.86,144.83L881.03,143.96L882.08,152L882.25,152L884,152L884.17,151.12L884.87,138.36L885.04,141.53L885.22,144.18L886.09,152L886.26,152L888.35,151.95L888.53,146.13L888.7,146.11L888.88,130.52L889.05,130.99L889.23,137.27L889.4,136.23L889.57,145.28L890.45,152L890.62,152L892.36,152L892.54,148.98L893.24,126.03L893.41,131.04L893.58,140.43L894.46,152L894.63,152L896.72,151.36L896.9,149.08L897.07,141.1L897.59,144.42L897.77,144.77L897.94,144.46L898.12,150.18L898.99,152L899.16,152L900.73,152L900.91,146.21L901.25,116.01L901.6,129.57L901.78,143.89L903,152L903.17,152L904.91,152L905.09,148.05L905.79,90.5L905.96,109.47L906.14,134.75L907.18,152L907.36,152L909.27,152L909.45,151.16L909.8,146.92L910.14,151.59L910.32,151.64L911.19,152L911.36,152L913.46,152L913.63,150.27L913.81,147.93L914.33,150.38L914.5,150.05L914.68,149.38L914.85,151.88L916.25,152L916.42,152L917.99,151.49L918.16,150.67L918.34,151.44L918.51,148.8L918.69,148.18L918.86,150.74L919.73,152L919.91,152L921.82,151.95L922,150.18L922.52,146.9L922.7,148.13L922.87,150.13L923.74,152L923.92,152L926.36,151.39L926.53,150.47L926.71,150.38L926.88,151.13L927.05,151.73L928.62,152L928.8,152L930.37,151.95L930.54,151.24L930.71,147.24L931.06,151.6L931.24,150.55L931.41,148.92L932.28,152L932.46,152L934.55,152L934.72,150.94L935.6,152L935.77,152L938.73,152L938.91,148.2L939.43,151.72L939.61,147.41L940.48,152L940.65,152L941,152" style="vector-effect: none; fill: none; stroke: rgb(0, 117, 173); stroke-opacity: 1; stroke-width: 2px; opacity: 1;"/></g><g class="points"/><g class="text"/></g><g class="trace scatter trace22cc3f" style="stroke-miterlimit: 2; opacity: 1;"><g class="fills"/><g class="errorbars"/><g class="lines"><path class="js-line" d="M0,152L0.52,152L0.7,149.92L1.92,12.52L2.09,16.84L2.27,27.26L3.84,152L4.01,152L4.71,152L4.88,150.55L6.1,15.12L6.28,18.37L6.45,58.49L6.62,61.89L6.8,60.49L6.97,89.28L8.02,152L8.19,152L8.89,152L9.06,149.77L10.29,20.02L10.46,30.97L10.63,33.61L12.38,152L12.55,152L13.07,152L13.25,150.52L14.29,26.19L14.82,37.6L14.99,51.26L16.39,152L16.56,152L17.26,152L17.43,150.04L18.48,20.45L19,32.82L19.18,48.56L20.57,152L20.74,152L21.44,152L21.62,148.05L22.14,139.7L22.31,109.41L22.66,29.93L23.01,74.69L23.19,77.2L24.93,152L25.1,152L25.63,152L25.8,149.28L26.67,22.81L27.19,25.44L27.37,29.62L29.11,152L29.29,152L29.81,152L29.98,150.65L30.33,116.66L30.51,89.74L30.68,72.93L30.86,98.76L31.03,94.55L31.2,119.41L31.38,106.97L31.55,122.07L31.73,137.86L32.08,124.38L32.25,130.86L32.42,143.56L33.47,152L33.64,152L33.99,152L34.17,149.64L35.39,50.57L35.56,60.51L35.74,46.33L36.09,61.95L36.26,86.98L37.31,152L37.48,152L38.35,151.94L38.53,144.58L39.4,26.44L39.57,60.56L39.75,73.23L40.97,148.68L41.14,152L42.54,151.81L42.71,137.39L43.93,23.43L44.1,18.36L45.15,148.94L45.32,151.92L46.54,152L46.72,149.79L47.94,18.61L48.29,29.82L48.46,63.86L50.03,152L50.21,152L50.73,152L50.9,150.24L51.25,106.02L51.43,72.63L51.77,84.05L51.95,47.63L52.12,91.83L52.3,92.55L52.47,100.99L52.65,99.96L52.82,85.29L54.21,152L54.39,152L54.91,152L55.09,150.27L55.96,45.69L56.48,46.44L56.66,59.99L56.83,56.43L57,98.77L58.22,152L58.4,152L59.27,151.58L59.44,148.69L60.14,100.98L60.32,107.14L60.49,76.85L60.66,77.74L60.84,67.01L61.19,72.8L61.36,105.91L62.23,152L62.41,152L63.28,152L63.45,151.06L64.85,23.29L65.02,27.03L65.2,42.1L66.59,152L66.77,152L67.64,151.75L67.81,149.4L68.86,133.69L69.03,136.18L69.56,84.06L69.73,96.49L69.9,117.08L70.95,152L71.12,152L71.65,152L71.82,150.62L73.04,8L73.39,22.34L73.56,38.2L74.96,152L75.13,152L75.83,152L76.01,150.76L77.23,15.74L77.57,25.99L77.75,50.87L79.32,152L79.49,152L80.01,152L80.19,150.71L80.54,124.3L80.71,99.14L81.41,55.53L81.58,21.66L82.11,58.43L82.28,84.44L83.33,152L83.5,152L84.2,152L84.37,150.81L85.94,35.02L86.12,43.42L87.68,152L87.86,152L88.38,152L88.56,150.97L89.43,27.82L89.6,67.69L89.78,71.56L89.95,18.73L90.47,72.27L90.65,89.48L91.69,152L91.87,152L92.57,152L92.74,150.75L93.09,133.49L93.26,99.52L93.61,138.68L93.96,91.7L94.13,102.19L96.23,152L96.4,152L96.75,152L96.92,148.79L97.62,100.98L97.8,57.75L97.97,69.77L98.14,8.34L98.67,54.69L98.84,54.15L99.02,90.12L100.06,152L100.24,152L100.93,152L101.11,151.24L101.81,66.83L101.98,52.07L102.33,103.16L102.5,94.71L102.68,56.82L103.55,139.89L103.72,151.09L104.59,152L104.77,152L105.12,152L105.29,149.97L106.16,39.08L106.34,58.26L106.51,79.78L106.86,52.3L107.21,56.06L107.38,102.15L108.43,152L108.6,152L109.48,151.94L109.65,146.5L110.7,90.82L110.87,99.14L111.04,111.52L111.22,88.27L111.57,116.57L111.74,124.48L112.79,152L112.96,152L113.48,152L113.66,149.99L114.01,100.47L114.18,68.16L115.05,22.75L115.23,24.6L115.4,44.3L116.8,152L116.97,152L117.84,151.8L118.02,141.3L119.06,27.74L119.24,34.82L119.41,60.36L119.59,63.87L119.76,102.42L121.16,152L121.33,152L122.03,151.64L122.2,140.6L123.25,21.09L123.42,29.23L123.6,57.28L123.77,52.41L123.94,103.6L124.29,122.95L124.47,137.65L125.34,152L125.51,152L126.21,151.33L126.38,140.6L127.26,29.82L127.61,36.77L127.78,37.02L129.17,152L129.35,152L130.22,152L130.39,151.18L130.74,102.48L130.92,70.8L131.61,14.4L131.79,32.63L131.96,45.59L132.14,49.64L132.31,84.16L133.71,152L133.88,152L134.58,151.5L134.75,141.67L135.8,16.94L135.97,20.82L136.15,29.93L137.72,152L137.89,152L138.59,152L138.76,149.36L138.94,142.24L139.11,104.32L139.98,24.14L140.16,24.93L140.33,33.4L142.07,152L142.25,152L142.95,151.64L143.12,142.81L144.17,18.27L144.34,21.36L144.51,31.31L146.08,152L146.26,152L146.95,152L147.13,149.54L147.3,143.79L147.48,109.36L148.35,25.84L148.52,29.63L148.7,37.81L150.27,152L150.44,152L151.31,152L151.49,151.16L152.18,102.46L152.36,25.71L154.1,152L154.28,152L155.5,151.78L155.67,143.71L156.72,22.1L156.89,24.37L157.07,35.33L158.81,152L158.98,152L159.68,151.88L159.85,144.94L161.08,45.23L161.25,58.22L162.82,152L162.99,152L163.86,151.92L164.04,143.62L164.74,38.51L165.26,46.88L165.43,102.01L165.61,50.21L165.96,94.01L166.13,120.93L167,152L167.18,152L168.05,151.88L168.22,145.23L169.27,23.67L169.44,25.83L169.62,34.19L170.84,152L171.01,152L172.23,152L172.41,146.45L173.63,30.47L173.8,32.95L173.98,53.04L175.2,152L175.37,152L176.42,151.87L176.59,147.03L176.94,122.02L177.11,50.52L177.98,88.01L178.16,73.71L179.38,152L179.55,152L180.6,151.98L180.77,148.37L181.99,17.57L182.17,53.89L183.74,152L183.91,152L184.78,151.37L184.96,145.49L186.18,42.67L186.35,116.98L186.53,87.81L186.88,126.24L187.05,133.05L187.92,152L188.1,152L188.97,152L189.14,146.78L190.36,37.9L190.54,49.59L191.76,152L191.93,152L192.98,152L193.15,149.86L193.33,148.42L193.5,131.59L194.55,29.37L194.72,64.08L195.94,152L196.11,152L201.52,151.98L201.69,145.96L202.56,31.08L202.91,34.58L203.09,90.83L203.26,57.03L203.61,113.1L203.78,124.74L204.66,152L204.83,152L205.53,152L205.7,149.86L205.88,147.47L206.05,116.48L206.92,26.42L207.1,29.59L207.27,39.56L208.84,152L209.01,152L209.89,152L210.06,147.83L211.11,29.51L211.28,31.99L211.45,43.37L212.68,152L212.85,152L214.07,152L214.24,146.28L215.29,26.32L215.64,43.24L215.81,55.72L217.03,152L217.21,152L218.25,152L218.43,148.28L219.47,19.9L219.82,31.03L220,47.07L221.39,152L221.57,152L222.44,152L222.61,148L223.66,21.18L223.83,26.6L224.01,37.08L225.58,152L225.75,152L226.62,152L226.8,148.02L227.84,20.32L228.02,24.97L228.19,34.98L229.76,152L229.93,152L230.8,152L230.98,148.32L232.03,21.11L232.37,34.99L232.55,52.31L233.94,152L234.12,152L234.99,152L235.16,148.81L236.03,22.77L236.38,23.21L236.56,35.23L238.13,152L238.3,152L239.17,152L239.35,148.55L240.39,19.48L240.74,34.5L240.92,54.67L242.31,152L242.48,152L243.36,152L243.53,149.14L244.4,37.13L244.75,54.76L244.92,53.14L246.32,152L246.49,152L247.54,152L247.71,148.96L248.76,21.69L248.93,49.09L249.11,62.99L250.68,152L250.85,152L251.72,152L251.9,149.53L253.12,27.91L253.29,48.74L254.86,152L255.04,152L255.91,152L256.08,150.76L256.78,117.26L256.95,49.4L258,110.76L258.17,143.86L259.05,152L259.22,152L260.09,152L260.27,149.61L261.31,19.49L261.49,88.92L261.66,68.9L262.01,83.98L262.18,133.1L262.36,131.7L262.53,145.27L263.4,152L263.58,152L264.27,152L264.45,149.26L264.97,62.5L265.15,47.88L265.32,43.27L265.5,60.98L266.89,151.81L267.06,152L268.63,151.39L268.81,130.9L269.5,81.42L269.68,97.43L269.85,46.11L271.42,152L271.6,152L272.64,152L272.82,150.58L273.86,130.1L274.04,139L274.21,136.47L274.39,145.39L275.43,152L275.61,152L277,151.32L277.17,139.35L278.22,69.55L278.4,117.35L278.74,112.23L279.44,150.72L279.62,152L281.01,152L281.18,150.99L282.4,27.36L282.58,61.43L282.75,62.2L282.93,96.56L283.97,152L284.15,152L285.19,152L285.37,150.82L286.41,26.27L286.59,45.82L286.76,53.78L287.98,152L288.16,152L289.38,152L289.55,150.61L290.6,31.17L290.95,44.28L291.12,61.68L292.34,152L292.52,152L293.56,152L293.74,150.05L294.78,28.29L294.96,31.57L295.13,61.51L296.52,152L296.7,152L297.92,151.27L298.09,133.82L298.62,43.74L299.14,69.02L299.31,78.16L300.53,152L300.71,152L301.93,152L302.1,151.06L302.8,72.98L303.15,79.43L303.32,119.68L303.85,84.44L304.02,106.8L304.2,145.46L305.24,152L305.42,152L306.11,152L306.29,151.19L307.33,126.45L307.51,87.79L309.08,152L309.25,152L310.47,152L310.65,148.18L311.69,67.7L311.87,85.78L312.04,95.39L313.26,152L313.43,152L314.65,151.27L314.83,136.78L315.35,47.8L315.87,62.42L316.05,91.85L316.22,80.79L316.4,114.51L316.57,128.67L317.62,152L317.79,152L318.84,151.4L319.01,143.59L319.88,39.74L320.06,48.23L320.23,65.06L321.63,152L321.8,152L327.21,151.71L327.38,149.22L327.73,109.97L328.08,112.87L328.25,58.45L329.3,142.21L329.47,148.87L330.34,152L330.52,152L331.22,152L331.39,151.23L331.74,99.41L331.91,58.71L332.26,31.54L332.78,44.64L332.96,63.56L334.18,152L334.35,152L335.57,151.86L335.75,143.5L336.79,48.79L336.97,96.1L338.01,152L338.19,152L339.76,151.78L339.93,142.22L340.8,59.85L340.98,98.35L341.15,102.82L341.33,69.98L341.67,113.47L341.85,137.64L342.72,152L342.89,152L343.94,151.41L344.12,141.24L344.81,38.44L345.16,39.73L345.34,84.31L346.38,152L346.56,152L348.12,151.76L348.3,147.68L349,45.45L349.52,68.37L349.69,87.46L350.91,152L351.09,152L352.31,151.99L352.48,148.72L353.53,62.47L353.7,63.1L355.1,152L355.27,152L356.49,152L356.67,150.61L357.02,141.68L357.19,125.47L357.71,61.69L358.06,96.3L358.24,108.77L359.28,152L359.46,152L360.68,151.99L360.85,147.69L361.37,45.76L361.9,78.01L362.07,70.56L362.94,152L363.12,152L364.86,152L365.03,150L365.91,106.4L366.08,77.64L366.25,82.84L366.43,124.58L366.6,119.09L366.78,131.45L366.95,141.32L367.82,152L368,152L369.04,152L369.22,151.23L370.26,94.52L370.44,109.45L370.61,111.2L371.83,152L372.01,152L373.23,151.95L373.4,144.15L374.1,40.86L374.45,51.94L374.62,61.6L376.02,152L376.19,152L377.41,151.99L377.59,142.19L378.11,80.66L378.63,83.82L378.81,90.41L379.68,151.42L379.85,152L381.77,151.68L381.94,147.24L382.29,135.32L382.47,113.33L382.99,80.93L383.16,130.24L384.04,152L384.21,152L385.95,151.73L386.13,150.3L387.35,112.22L387.52,132L387.7,132.62L387.87,147.91L388.74,152L388.92,152L390.14,151.63L390.31,147.69L391.53,74.49L391.71,114.33L392.58,152L392.75,152L394.15,152L394.32,149.6L394.67,138.56L394.84,124.37L395.02,123.89L395.19,95.1L395.37,71.86L395.72,104.05L395.89,118.45L396.94,152L397.11,152L398.33,152L398.5,151.07L399.38,125.33L399.55,105.5L400.77,152L400.94,152L402.51,152L402.69,150.79L403.73,94.17L403.91,97.22L404.08,108.41L404.26,102.57L404.43,116.25L404.61,142.42L405.48,152L405.65,152L406.7,152L406.87,148.45L407.22,87.64L407.74,93.09L407.92,105.76L408.09,88.46L408.44,110.65L408.62,124.95L409.49,152L409.66,152L410.88,152L411.06,146.4L411.93,35.55L412.1,38.88L412.28,70.92L413.67,152L413.84,152L415.07,152L415.24,147.56L416.11,41.31L416.29,44.01L416.46,94.56L416.63,78.09L416.81,104.74L416.98,133.49L417.85,152L418.03,152L419.25,152L419.42,146.29L419.95,58.72L420.47,64.34L420.64,64.11L421.86,152L422.04,152L423.43,152L423.61,150.78L424.48,93.84L424.65,99.41L424.83,96.89L425.87,152L426.05,152L427.62,152L427.79,150.66L429.01,112.76L429.19,121.63L430.41,152L430.58,152L431.8,152L431.97,149.17L433.02,67.82L433.19,111.9L434.59,152L434.76,152L436.16,151.3L436.33,149.61L437.03,94.33L437.38,101.3L437.55,119.03L437.73,115.11L437.9,141.03L438.77,152L438.95,152L440.17,152L440.34,150.99L441.39,91.94L441.56,93.91L441.74,114.8L441.91,116.12L442.09,138.81L442.96,152L443.13,152L444.35,152L444.53,149.46L445.4,70.98L445.57,105.57L445.75,101.42L446.79,152L446.97,152L452.89,151.51L453.07,149.26L454.11,130.33L454.29,134.21L454.46,135.64L455.51,152L455.68,152L457.08,151.95L457.25,148.1L457.95,134.77L458.12,139.94L458.3,142.2L458.47,138.27L458.65,142.23L458.82,148.49L459.69,152L459.87,152L461.09,152L461.26,150.57L461.96,81.52L462.13,57.64L463.35,152L463.53,152L465.27,152L465.44,150.22L465.97,110.24L466.14,78.79L466.32,58.18L466.66,79.81L466.84,93.36L467.89,152L468.06,152L469.45,152L469.63,150.19L470.33,62.66L470.67,79.11L470.85,88.82L472.24,152L472.42,152L473.64,152L473.81,150.94L474.86,90.5L475.21,98.08L475.38,123.61L476.25,152L476.43,152L478,151.62L478.17,147.85L478.87,62.79L479.04,91.11L479.22,103.94L480.26,152L480.44,152L482.18,151.81L482.35,146.08L483.05,65.24L483.4,80.33L483.57,104.01L484.62,152L484.79,152L486.19,152L486.36,150.96L487.24,51.44L487.41,58.05L487.58,76.5L488.8,152L488.98,152L490.55,151.6L490.72,146.66L491.42,77.85L491.59,83.83L491.77,107.21L491.94,100.15L492.12,121.92L492.29,144.87L493.16,152L493.34,152L494.73,152L494.91,149.95L496.13,117.85L496.3,128.72L497.17,152L497.35,152L498.91,151.93L499.09,145.98L499.61,122.1L500.14,122.59L500.31,122.49L501.53,152L501.7,152L503.1,151.97L503.27,149.83L504.14,117.97L504.49,127.19L504.67,132.8L505.54,152L505.71,152L507.28,151.99L507.46,138.09L507.81,101.67L508.15,108L508.33,123.97L508.5,118.24L508.68,138.55L509.9,152L510.07,152L511.47,152L511.64,150.45L512.69,104.27L512.86,111.73L513.04,136.07L514.08,152L514.26,152L515.65,151.87L515.82,146.29L516.7,78.61L516.87,88.24L517.04,107.35L517.92,152L518.09,152L519.83,151.71L520.01,140.04L520.53,66.39L520.88,79.47L521.05,89.55L522.27,152L522.45,152L524.02,152L524.19,146.97L524.71,101.1L525.06,103.06L525.24,101.49L525.59,134.18L525.76,150.72L526.63,152L526.81,152L528.2,152L528.38,148L529.42,96.41L529.6,114.14L529.77,118.04L530.64,152L530.82,152L532.38,152L532.56,149.71L533.08,89.59L533.43,101.89L533.61,109.59L534.48,152L534.65,152L536.57,152L536.74,150.12L537.61,128.33L537.79,112.42L539.01,152L539.18,152L540.75,152L540.93,147.99L541.62,67.89L541.97,101.85L542.15,111.72L543.02,152L543.19,152L544.94,151.94L545.11,143.96L545.81,76.55L545.98,95.88L546.16,117.82L547.55,152L547.73,152L549.12,152L549.29,149.99L549.64,144.88L549.82,137.53L550.34,125.11L550.51,131L550.69,134.99L551.56,152L551.73,152L553.13,152L553.3,150.94L553.65,140.88L553.83,101.12L554.35,61.2L554.52,103.29L555.57,152L555.74,152L557.49,152L557.66,150.87L558.36,114.34L558.53,101.27L558.71,102.42L558.88,116.26L559.75,152L559.93,152L561.67,152L561.85,147.47L562.54,74.5L562.72,81.28L562.89,95.64L563.94,152L564.11,152L565.86,152L566.03,150.04L566.73,85.21L566.9,107.53L567.08,119.82L568.3,152L568.47,152L570.04,152L570.21,149.35L570.91,77.13L571.26,104.86L571.43,121.76L572.48,152L572.65,152L574.05,152L574.22,148.43L574.92,79.36L575.09,90.52L575.27,101.78L576.31,152L576.49,152L578.23,151.98L578.41,146.79L578.76,96.49L579.28,99.96L579.45,119.46L580.85,152L581.02,152L582.42,152L582.59,150.84L583.46,115.98L583.64,122.96L583.81,130.43L584.86,152L585.03,152L586.6,152L586.77,145.54L587.82,96.73L587.99,120.21L588.87,152L589.04,152L590.78,152L590.96,147.54L591.83,121.77L592,128.05L593.05,152L593.22,152L594.97,152L595.14,149.68L595.84,126.11L596.01,117.36L597.41,152L597.58,152L599.33,151.96L599.5,147.38L600.2,124.24L600.37,131L600.55,135.64L601.59,152L601.77,152L603.33,152L603.51,148.27L604.38,127.21L604.56,133.68L605.78,152L605.95,152L607.52,152L607.69,149.78L608.39,97.49L608.56,100.75L608.74,118.55L609.78,152L609.96,152L611.7,152L611.88,147.91L612.57,91.69L612.92,116.46L613.1,126.92L613.97,152L614.14,152L616.06,151.98L616.23,149.44L616.58,130.91L616.76,123.05L616.93,103.35L617.28,140.6L617.45,146.57L618.33,152L618.5,152L620.07,152L620.24,150.7L620.77,94.07L621.29,109.71L621.46,126.52L622.34,152L622.51,152L624.25,152L624.43,150.56L625.13,84.17L625.3,96.22L625.47,118.27L626.52,152L626.69,152L628.61,151.4L628.79,138.26L629.48,107.15L629.66,115.08L629.83,130.03L630.88,152L631.05,152L632.62,152L632.8,150.8L633.49,84.59L633.67,90.12L633.84,104.72L634.89,152L635.06,152L636.98,151.71L637.15,147.71L637.68,106.85L637.85,118.68L638.03,133.17L638.2,135.29L638.37,147.42L639.42,152L639.59,152L640.99,152L641.16,150.82L641.69,91.96L641.86,101.36L642.03,125.86L642.21,123.22L642.38,131.81L643.25,152L643.43,152L645.35,152L645.52,150.37L646.22,119.34L646.57,131.23L646.74,146.48L647.61,152L647.79,152L649.53,151.94L649.7,145.44L650.58,117.42L650.75,136.86L651.8,152L651.97,152L653.71,151.98L653.89,150.31L654.41,135.38L654.93,138.55L655.11,145.02L655.98,152L656.15,152L658.07,151.54L658.25,149.54L658.6,137.75L658.94,144.34L659.12,147.49L659.99,152L660.16,152L662.08,152L662.26,150.32L663.3,138.87L663.48,143.91L664.35,152L664.52,152L666.27,152L666.44,149.59L667.14,100.66L667.31,119.02L667.49,136.5L668.36,152L668.53,152L670.45,151.88L670.62,146.56L671.15,121.61L671.5,136.46L671.67,141.98L672.54,152L672.72,152L674.63,152L674.81,148.85L675.33,90.81L675.68,114.68L675.85,136.82L676.73,152L676.9,152L678.82,151.9L678.99,148.59L679.34,143.91L679.51,129.19L679.69,111.5L680.04,146.57L680.21,148.58L681.08,152L681.26,152L683,151.99L683.18,146.08L683.52,103.8L683.87,129.57L684.05,144.63L685.27,152L685.44,152L687.18,152L687.36,150.31L688.06,136.46L688.23,138.77L688.4,143.32L689.63,152L689.8,152L691.37,151.92L691.54,146.57L692.24,101.33L692.41,126.5L692.59,129.35L693.46,152L693.63,152L695.55,152L695.73,147.84L696.42,132.6L696.6,143.03L696.77,146.58L697.82,152L697.99,152L699.74,152L699.91,151.21L700.43,137.74L700.78,144.99L700.96,147.74L701.83,152L702,152L703.92,152L704.09,150.69L704.62,141.48L704.97,143.54L705.14,147.3L706.19,152L706.36,152L708.1,152L708.28,151.2L708.8,129.09L709.15,130.42L709.32,139.92L710.2,152L710.37,152L712.46,151.66L712.64,149.52L713.16,146.25L713.33,147.55L713.51,150.69L714.73,152L714.9,152L716.99,151.43L717.17,150.5L718.91,152L719.09,152L720.65,152L720.83,149.69L721,149.75L721.18,148.16L721.53,146.1L721.7,148.53L722.75,152L722.92,152L724.84,152L725.01,149.13L725.19,148.93L725.36,147L725.71,140.15L725.88,146.18L726.06,149.4L727.1,152L727.28,152L729.2,151.49L729.37,149.35L729.89,148.79L730.07,149.41L730.24,150.41L731.11,152L731.29,152L733.21,152L733.38,150.75L733.73,127.15L734.08,137.91L734.25,143.35L735.12,152L735.3,152L737.39,152L737.56,149.36L738.09,116.06L738.26,132.31L738.44,140.49L739.48,152L739.66,152L741.57,152L741.75,148.79L742.45,137.98L742.62,138.43L742.79,146.1L743.67,152L743.84,152L745.76,152L745.93,150.52L746.45,128.31L746.63,133.96L746.8,141.32L747.85,152L748.02,152L754.3,151.98L754.47,150.78L754.65,150.77L754.82,149.89L755.17,148.4L755.69,152L755.87,152L758.48,152L758.66,149.68L759.53,152L759.7,152L763.02,151.99L763.19,148.71L764.06,152L764.24,152L767.02,152L767.2,150.82L767.55,147.73L767.72,151.47L767.9,148.9L768.07,152L771.21,152L771.38,147.98L772.25,152L772.43,152L779.75,152L779.92,151.14L780.1,144.69L780.45,152L780.62,152L780.8,152L783.76,152L783.93,150.71L785.33,152L785.5,152L788.12,152L788.29,148.83L789.34,152L789.51,152L791.95,151.95L792.13,149.91L792.65,135.51L793,140.14L793.17,146.5L794.05,152L794.22,152L796.14,151.25L796.31,135.05L796.49,132.96L796.66,136.55L796.83,142.53L798.05,152L798.23,152L800.32,151.77L800.49,145.39L801.02,142.79L801.54,150.75L801.72,152L804.33,152L804.5,150.69L805.2,103.84L805.38,122.6L805.55,143.81L806.42,152L806.6,152L808.51,152L808.69,151.08L809.04,133.32L809.21,107.86L810.78,152L810.95,152L812.87,151.96L813.05,149.3L813.22,149.67L813.39,146.44L813.57,147.97L813.74,142.75L814.96,152L815.14,152L816.88,152L817.06,149.1L817.75,99.85L817.93,114.77L818.1,141.74L818.97,152L819.15,152L821.07,152L821.24,149.38L821.59,138.14L821.76,114.05L822.98,152L823.16,152L825.42,151.41L825.6,139.39L825.77,143.83L826.12,135.84L826.29,137.25L827.52,152L827.69,152L829.43,152L829.61,150.44L830.3,108.49L830.48,121.21L830.65,140.95L831.52,152L831.7,152L833.62,152L833.79,149.79L834.49,112.74L834.66,124.83L834.84,137.01L835.71,152L835.88,152L837.8,152L837.97,148.17L838.67,112.65L838.85,114.37L839.02,133.61L839.89,152L840.07,152L841.98,152L842.16,150.17L842.86,122.16L843.03,125.56L843.2,136.33L844.08,152L844.25,152L846.17,152L846.34,149.86L846.87,119.41L847.04,124.25L847.21,139.89L848.43,152L848.61,152L850.35,151.97L850.53,151.06L851.22,139.91L851.4,144.83L851.57,145.83L852.62,152L852.79,152L854.54,152L854.71,150.13L855.06,147.01L855.23,139.01L856.1,151.7L856.28,152L858.72,152L858.89,150.01L859.07,149.46L859.24,136.59L859.59,110.28L859.77,142.86L859.94,144.37L860.81,152L860.99,152L862.9,152L863.08,150.27L863.25,147.88L863.43,133.64L863.77,127.01L863.95,115.93L864.99,152L865.17,152L867.26,151.4L867.44,146.72L867.61,146.64L867.78,144.97L868.13,135.66L868.31,140.2L868.48,145.19L869.35,152L869.53,152L871.27,152L871.44,151.12L872.32,130.39L872.49,136.84L872.67,148.55L873.54,152L873.71,152L875.45,152L875.63,150.92L876.15,133.67L876.33,116.41L877.55,152L877.72,152L879.81,151.28L879.99,143.64L880.16,137.09L880.68,144.83L880.86,143.96L881.9,152L882.08,152L883.82,152L884,151.12L884.69,138.36L884.87,141.53L885.04,144.18L885.91,152L886.09,152L888.18,151.95L888.35,146.13L888.53,146.11L888.7,130.52L888.88,130.99L889.05,137.27L889.23,136.23L889.4,145.28L890.27,152L890.45,152L892.19,152L892.36,148.98L893.06,126.03L893.24,131.04L893.41,140.43L894.28,152L894.46,152L896.55,151.36L896.72,149.08L896.9,141.1L897.42,144.42L897.59,144.77L897.77,144.46L897.94,150.18L898.81,152L898.99,152L900.56,152L900.73,146.21L901.08,116.01L901.43,129.57L901.6,143.89L902.82,152L903,152L904.74,152L904.91,148.05L905.61,90.5L905.79,109.47L905.96,134.75L907.01,152L907.18,152L909.1,152L909.27,151.16L909.62,146.92L909.97,151.59L910.14,151.64L911.02,152L911.19,152L913.28,152L913.46,150.27L913.63,147.93L914.15,150.38L914.33,150.05L914.5,149.38L914.68,151.88L916.07,152L916.25,152L917.81,151.49L917.99,150.67L918.16,151.44L918.34,148.8L918.51,148.18L919.38,152L919.56,152L921.65,151.95L921.82,150.18L922.35,146.9L922.52,148.13L922.7,150.13L923.57,152L923.74,152L926.18,151.39L926.36,150.47L926.53,150.38L926.71,151.13L926.88,151.73L928.45,152L928.62,152L930.19,151.95L930.37,151.24L930.54,147.24L930.89,151.6L931.06,150.55L931.24,148.92L932.11,152L932.28,152L934.38,152L934.55,150.94L935.42,152L935.6,152L938.56,152L938.73,148.2L939.26,151.72L939.43,147.41L940.3,152L940.48,152L941,152" style="vector-effect: none; fill: none; stroke: rgb(129, 181, 21); stroke-opacity: 1; stroke-width: 2px; opacity: 1;"/></g><g class="points"/><g class="text"/></g></g></g><g class="overplot"/><path class="xlines-above crisp" d="M0,0" style="fill: none;"/><path class="ylines-above crisp" d="M0,0" style="fill: none;"/><g class="overlines-above"/><g class="xaxislayer-above"><g class="xtick"><text text-anchor="middle" x="0" y="199" transform="translate(146.94,0)" style="font-family: Arial; font-size: 13px; fill: rgb(51, 51, 51); fill-opacity: 1; white-space: pre; opacity: 1;">Jul 2022</text></g><g class="xtick"><text text-anchor="middle" x="0" y="199" style="font-family: Arial; font-size: 13px; fill: rgb(51, 51, 51); fill-opacity: 1; white-space: pre; opacity: 1;" transform="translate(276.64,0)">Aug 2022</text></g><g class="xtick"><text text-anchor="middle" x="0" y="199" style="font-family: Arial; font-size: 13px; fill: rgb(51, 51, 51); fill-opacity: 1; white-space: pre; opacity: 1;" transform="translate(406.33,0)">Sep 2022</text></g><g class="xtick"><text text-anchor="middle" x="0" y="199" style="font-family: Arial; font-size: 13px; fill: rgb(51, 51, 51); fill-opacity: 1; white-space: pre; opacity: 1;" transform="translate(531.85,0)">Oct 2022</text></g><g class="xtick"><text text-anchor="middle" x="0" y="199" style="font-family: Arial; font-size: 13px; fill: rgb(51, 51, 51); fill-opacity: 1; white-space: pre; opacity: 1;" transform="translate(661.54,0)">Nov 2022</text></g><g class="xtick"><text text-anchor="middle" x="0" y="199" style="font-family: Arial; font-size: 13px; fill: rgb(51, 51, 51); fill-opacity: 1; white-space: pre; opacity: 1;" transform="translate(787.06,0)">Dec 2022</text></g><g class="xtick"><text text-anchor="middle" x="0" y="199" style="font-family: Arial; font-size: 13px; fill: rgb(51, 51, 51); fill-opacity: 1; white-space: pre; opacity: 1;" transform="translate(916.75,0)">Jan 2023</text></g></g><g class="yaxislayer-above"><g class="ytick"><text text-anchor="end" x="79" y="4.55" transform="translate(0,177)" style="font-family: Arial; font-size: 13px; fill: rgb(51, 51, 51); fill-opacity: 1; white-space: pre; opacity: 1;">0</text></g><g class="ytick"><text text-anchor="end" x="79" y="4.55" style="font-family: Arial; font-size: 13px; fill: rgb(51, 51, 51); fill-opacity: 1; white-space: pre; opacity: 1;" transform="translate(0,145.31)">5k</text></g><g class="ytick"><text text-anchor="end" x="79" y="4.55" style="font-family: Arial; font-size: 13px; fill: rgb(51, 51, 51); fill-opacity: 1; white-space: pre; opacity: 1;" transform="translate(0,113.62)">10k</text></g><g class="ytick"><text text-anchor="end" x="79" y="4.55" style="font-family: Arial; font-size: 13px; fill: rgb(51, 51, 51); fill-opacity: 1; white-space: pre; opacity: 1;" transform="translate(0,81.93)">15k</text></g><g class="ytick"><text text-anchor="end" x="79" y="4.55" style="font-family: Arial; font-size: 13px; fill: rgb(51, 51, 51); fill-opacity: 1; white-space: pre; opacity: 1;" transform="translate(0,50.239999999999995)">20k</text></g></g><g class="overaxes-above"/></g></g><g class="polarlayer"/><g class="smithlayer"/><g class="ternarylayer"/><g class="geolayer"/><g class="funnelarealayer"/><g class="pielayer"/><g class="iciclelayer"/><g class="treemaplayer"/><g class="sunburstlayer"/><g class="glimages"/><defs id="topdefs-b75be6"><g class="clips"/><clipPath id="legendb75be6"><rect width="160" height="58" x="0" y="0"/></clipPath></defs><g class="layer-above"><g class="imagelayer"/><g class="shapelayer"/></g><g class="infolayer"><g class="legend" pointer-events="all" transform="translate(1039.8200000000002,25)"><rect class="bg" shape-rendering="crispEdges" width="160" height="58" x="0" y="0" style="stroke: rgb(68, 68, 68); stroke-opacity: 1; fill: rgb(255, 255, 255); fill-opacity: 1; stroke-width: 0px;"/><g class="scrollbox" transform="" clip-path="url(#legendb75be6)"><g class="groups"><g class="traces" transform="translate(0,16.9)" style="opacity: 1;"><text class="legendtext" text-anchor="start" x="40" y="6.24" style="font-family: Arial; font-size: 16px; fill: rgb(51, 51, 51); fill-opacity: 1; white-space: pre;">pv_power2</text><g class="layers" style="opacity: 1;"><g class="legendfill"/><g class="legendlines"><path class="js-line" d="M5,0h30" style="fill: none; stroke: rgb(0, 117, 173); stroke-opacity: 1; stroke-width: 2px;"/></g><g class="legendsymbols"><g class="legendpoints"/></g></g><rect class="legendtoggle" x="0" y="-11.9" width="154.3125" height="23.8" style="fill: rgb(0, 0, 0); fill-opacity: 0;"/></g><g class="traces" transform="translate(0,40.7)" style="opacity: 1;"><text class="legendtext" text-anchor="start" x="40" y="6.24" style="font-family: Arial; font-size: 16px; fill: rgb(51, 51, 51); fill-opacity: 1; white-space: pre;">pv_power2_n+1</text><g class="layers" style="opacity: 1;"><g class="legendfill"/><g class="legendlines"><path class="js-line" d="M5,0h30" style="fill: none; stroke: rgb(129, 181, 21); stroke-opacity: 1; stroke-width: 2px;"/></g><g class="legendsymbols"><g class="legendpoints"/></g></g><rect class="legendtoggle" x="0" y="-11.9" width="154.3125" height="23.8" style="fill: rgb(0, 0, 0); fill-opacity: 0;"/></g></g></g><rect class="scrollbar" rx="20" ry="3" width="0" height="0" x="0" y="0" style="fill: rgb(128, 139, 164); fill-opacity: 1;"/></g><g class="g-gtitle"><text class="gtitle" x="480" y="0.22999999999998977" text-anchor="middle" dy="0.7em" style="font-family: 'Arial Black'; font-size: 20px; fill: rgb(51, 51, 51); opacity: 1; font-weight: normal; white-space: pre;">Testdaten</text></g><g class="g-xtitle"/><g class="g-ytitle"/></g></svg>