<svg class="main-svg" xmlns="http://www.w3.org/2000/svg" xmlns:xlink="http://www.w3.org/1999/xlink" width="1200" height="230" style="" viewBox="0 0 1200 230"><rect x="0" y="0" width="1200" height="230" style="fill: rgb(255, 255, 255); fill-opacity: 1;"/><defs id="defs-3aae21"><g class="clips"><clipPath id="clip3aae21xyplot" class="plotclip"><rect width="976" height="143"/></clipPath><clipPath class="axesclip" id="clip3aae21x"><rect x="80" y="0" width="976" height="230"/></clipPath><clipPath class="axesclip" id="clip3aae21y"><rect x="0" y="25" width="1200" height="143"/></clipPath><clipPath class="axesclip" id="clip3aae21xy"><rect x="80" y="25" width="976" height="143"/></clipPath></g><g class="gradients"/><g class="patterns"/></defs><g class="bglayer"/><g class="layer-below"><g class="imagelayer"/><g class="shapelayer"/></g><g class="cartesianlayer"><g class="subplot xy"><g class="layer-subplot"><g class="shapelayer"/><g class="imagelayer"/></g><g class="minor-gridlayer"><g class="x"/><g class="y"/></g><g class="gridlayer"><g class="x"><path class="xgrid crisp" transform="translate(161.9,0)" d="M0,25v143" style="stroke: rgb(200, 200, 200); stroke-opacity: 1; stroke-width: 1px;"/><path class="xgrid crisp" transform="translate(243.8,0)" d="M0,25v143" style="stroke: rgb(200, 200, 200); stroke-opacity: 1; stroke-width: 1px;"/><path class="xgrid crisp" transform="translate(325.71000000000004,0)" d="M0,25v143" style="stroke: rgb(200, 200, 200); stroke-opacity: 1; stroke-width: 1px;"/><path class="xgrid crisp" transform="translate(407.61,0)" d="M0,25v143" style="stroke: rgb(200, 200, 200); stroke-opacity: 1; stroke-width: 1px;"/><path class="xgrid crisp" transform="translate(489.51,0)" d="M0,25v143" style="stroke: rgb(200, 200, 200); stroke-opacity: 1; stroke-width: 1px;"/><path class="xgrid crisp" transform="translate(571.4100000000001,0)" d="M0,25v143" style="stroke: rgb(200, 200, 200); stroke-opacity: 1; stroke-width: 1px;"/><path class="xgrid crisp" transform="translate(653.31,0)" d="M0,25v143" style="stroke: rgb(200, 200, 200); stroke-opacity: 1; stroke-width: 1px;"/><path class="xgrid crisp" transform="translate(735.22,0)" d="M0,25v143" style="stroke: rgb(200, 200, 200); stroke-opacity: 1; stroke-width: 1px;"/><path class="xgrid crisp" transform="translate(817.12,0)" d="M0,25v143" style="stroke: rgb(200, 200, 200); stroke-opacity: 1; stroke-width: 1px;"/><path class="xgrid crisp" transform="translate(899.02,0)" d="M0,25v143" style="stroke: rgb(200, 200, 200); stroke-opacity: 1; stroke-width: 1px;"/><path class="xgrid crisp" transform="translate(980.92,0)" d="M0,25v143" style="stroke: rgb(200, 200, 200); stroke-opacity: 1; stroke-width: 1px;"/></g><g class="y"><path class="ygrid crisp" transform="translate(0,146.51999999999998)" d="M80,0h976" style="stroke: rgb(200, 200, 200); stroke-opacity: 1; stroke-width: 1px;"/><path class="ygrid crisp" transform="translate(0,132.19)" d="M80,0h976" style="stroke: rgb(200, 200, 200); stroke-opacity: 1; stroke-width: 1px;"/><path class="ygrid crisp" transform="translate(0,117.87)" d="M80,0h976" style="stroke: rgb(200, 200, 200); stroke-opacity: 1; stroke-width: 1px;"/><path class="ygrid crisp" transform="translate(0,103.54)" d="M80,0h976" style="stroke: rgb(200, 200, 200); stroke-opacity: 1; stroke-width: 1px;"/><path class="ygrid crisp" transform="translate(0,89.21)" d="M80,0h976" style="stroke: rgb(200, 200, 200); stroke-opacity: 1; stroke-width: 1px;"/><path class="ygrid crisp" transform="translate(0,74.88)" d="M80,0h976" style="stroke: rgb(200, 200, 200); stroke-opacity: 1; stroke-width: 1px;"/><path class="ygrid crisp" transform="translate(0,60.56)" d="M80,0h976" style="stroke: rgb(200, 200, 200); stroke-opacity: 1; stroke-width: 1px;"/><path class="ygrid crisp" transform="translate(0,46.230000000000004)" d="M80,0h976" style="stroke: rgb(200, 200, 200); stroke-opacity: 1; stroke-width: 1px;"/><path class="ygrid crisp" transform="translate(0,31.9)" d="M80,0h976" style="stroke: rgb(200, 200, 200); stroke-opacity: 1; stroke-width: 1px;"/></g></g><g class="zerolinelayer"><path class="yzl zl crisp" transform="translate(0,160.85)" d="M80,0h976" style="stroke: rgb(255, 255, 255); stroke-opacity: 1; stroke-width: 2px;"/></g><path class="xlines-below"/><path class="ylines-below"/><g class="overlines-below"/><g class="xaxislayer-below"/><g class="yaxislayer-below"/><g class="overaxes-below"/><g class="plot" transform="translate(80,25)" clip-path="url(#clip3aae21xyplot)"><g class="scatterlayer mlayer"><g class="trace scatter trace250e88" style="stroke-miterlimit: 2; opacity: 1;"><g class="fills"/><g class="errorbars"/><g class="lines"><path class="js-line" d="M0,135.85L47.78,135.85L54.6,131.98L61.43,97.71L68.25,45.96L75.08,7.15L81.9,15.19L88.73,49.75L95.55,100.28L102.38,127.2L109.2,130.33L116.03,135.85L122.85,135.85L211.58,135.85L218.41,134.78L225.23,122.27L232.06,92.8L238.88,78L245.71,98.15L252.53,102.99L259.36,115.57L266.18,128.9L273.01,135.83L375.38,135.85L382.21,132.6L389.03,114L395.86,62.45L402.69,43.05L409.51,69.73L416.34,94.98L423.16,104.56L429.99,128.32L436.81,135.83L539.19,135.85L546.01,131.25L552.84,109.68L559.66,78.43L566.49,81.16L573.31,95.35L580.14,102.81L586.97,103.27L593.79,130.77L600.62,133.46L607.44,135.85L614.27,135.85L702.99,135.85L709.82,133.61L716.64,127.4L723.47,113.7L730.29,90.63L737.12,76.71L743.94,82.28L750.77,111.65L757.59,126.45L764.42,134.31L771.24,135.85L778.07,135.85L866.8,135.85L873.62,132.94L880.45,101.24L887.27,63.12L894.1,16.98L900.92,11.4L907.75,42.22L914.57,95.17L921.4,122L928.22,134.49L935.05,135.85L941.87,135.85L976,135.85" style="vector-effect: none; fill: none; stroke: rgb(0, 117, 173); stroke-opacity: 1; stroke-width: 2px; opacity: 1;"/></g><g class="points"/><g class="text"/></g><g class="trace scatter tracee3e49e" style="stroke-miterlimit: 2; opacity: 1;"><g class="fills"/><g class="errorbars"/><g class="lines"><path class="js-line" d="M0,135.85L47.78,135.85L54.6,134.96L61.43,130.75L68.25,123.65L81.9,81.14L88.73,83.74L95.55,101.88L102.38,127.77L109.2,132.68L116.03,135.85L211.58,135.85L218.41,135.04L225.23,127.32L232.06,112.99L238.88,99.28L245.71,109.58L252.53,112.9L259.36,121.47L266.18,131.93L273.01,135.8L375.38,135.85L382.21,134.11L389.03,123.7L395.86,111.62L402.69,95.91L409.51,95.66L416.34,107.86L423.16,113.65L429.99,130.8L436.81,135.84L539.19,135.85L546.01,133.83L552.84,120.79L559.66,105.31L566.49,103.45L573.31,107.18L580.14,112.61L586.97,112.98L593.79,132.58L600.62,130.35L607.44,135.85L614.27,135.85L702.99,135.85L709.82,134.49L716.64,129.68L723.47,120.85L730.29,111.58L737.12,96.89L743.94,100.61L750.77,118.08L757.59,129.5L764.42,135.07L771.24,135.85L778.07,135.85L866.8,135.85L873.62,134.35L887.27,110.7L894.1,93.36L900.92,78.61L907.75,79.07L914.57,97.55L921.4,123.19L928.22,134.67L935.05,135.85L976,135.85" style="vector-effect: none; fill: none; stroke: rgb(129, 181, 21); stroke-opacity: 1; stroke-width: 2px; opacity: 1;"/></g><g class="points"/><g class="text"/></g><g class="trace scatter trace68262d" style="stroke-miterlimit: 2; opacity: 1;"><g class="fills"/><g class="errorbars"/><g class="lines"><path class="js-line" d="M0,135.85L61.43,135.15L68.25,135.08L102.38,135.81L109.2,135.85L211.58,135.67L218.41,134.95L232.06,133.78L238.88,134.12L259.36,135.13L266.18,135.79L354.91,135.85L361.73,135.85L375.38,135.76L382.21,134.95L402.69,133.35L409.51,133.99L436.81,135.85L443.64,135.85L539.19,135.74L546.01,134.96L559.66,134.01L566.49,134.04L580.14,134.53L586.97,135.16L600.62,135.85L607.44,135.85L709.82,135.25L716.64,134.74L723.47,133.65L730.29,133.84L750.77,135.11L757.59,135.79L846.32,135.85L853.15,135.85L866.8,135.71L873.62,135.03L887.27,135.12L894.1,135.14L976,135.85" style="vector-effect: none; fill: none; stroke: rgb(249, 166, 24); stroke-opacity: 1; stroke-width: 2px; opacity: 1;"/></g><g class="points"/><g class="text"/></g></g></g><g class="overplot"/><path class="xlines-above crisp" d="M0,0" style="fill: none;"/><path class="ylines-above crisp" d="M0,0" style="fill: none;"/><g class="overlines-above"/><g class="xaxislayer-above"><g class="xtick"><text text-anchor="middle" x="0" y="182" transform="translate(80,0)" style="font-family: Arial; font-size: 13px; fill: rgb(51, 51, 51); fill-opacity: 1; white-space: pre; opacity: 1;"><tspan class="line" dy="0em" x="0" y="182">00:00</tspan><tspan class="line" dy="1.3em" x="0" y="182">Jan 1, 2020</tspan></text></g><g class="xtick"><text text-anchor="middle" x="0" y="182" style="font-family: Arial; font-size: 13px; fill: rgb(51, 51, 51); fill-opacity: 1; white-space: pre; opacity: 1;" transform="translate(161.9,0)">12:00</text></g><g class="xtick"><text text-anchor="middle" x="0" y="182" style="font-family: Arial; font-size: 13px; fill: rgb(51, 51, 51); fill-opacity: 1; white-space: pre; opacity: 1;" transform="translate(243.8,0)"><tspan class="line" dy="0em" x="0" y="182">00:00</tspan><tspan class="line" dy="1.3em" x="0" y="182">Jan 2, 2020</tspan></text></g><g class="xtick"><text text-anchor="middle" x="0" y="182" style="font-family: Arial; font-size: 13px; fill: rgb(51, 51, 51); fill-opacity: 1; white-space: pre; opacity: 1;" transform="translate(325.71000000000004,0)">12:00</text></g><g class="xtick"><text text-anchor="middle" x="0" y="182" style="font-family: Arial; font-size: 13px; fill: rgb(51, 51, 51); fill-opacity: 1; white-space: pre; opacity: 1;" transform="translate(407.61,0)"><tspan class="line" dy="0em" x="0" y="182">00:00</tspan><tspan class="line" dy="1.3em" x="0" y="182">Jan 3, 2020</tspan></text></g><g class="xtick"><text text-anchor="middle" x="0" y="182" style="font-family: Arial; font-size: 13px; fill: rgb(51, 51, 51); fill-opacity: 1; white-space: pre; opacity: 1;" transform="translate(489.51,0)">12:00</text></g><g class="xtick"><text text-anchor="middle" x="0" y="182" style="font-family: Arial; font-size: 13px; fill: rgb(51, 51, 51); fill-opacity: 1; white-space: pre; opacity: 1;" transform="translate(571.4100000000001,0)"><tspan class="line" dy="0em" x="0" y="182">00:00</tspan><tspan class="line" dy="1.3em" x="0" y="182">Jan 4, 2020</tspan></text></g><g class="xtick"><text text-anchor="middle" x="0" y="182" style="font-family: Arial; font-size: 13px; fill: rgb(51, 51, 51); fill-opacity: 1; white-space: pre; opacity: 1;" transform="translate(653.31,0)">12:00</text></g><g class="xtick"><text text-anchor="middle" x="0" y="182" style="font-family: Arial; font-size: 13px; fill: rgb(51, 51, 51); fill-opacity: 1; white-space: pre; opacity: 1;" transform="translate(735.22,0)"><tspan class="line" dy="0em" x="0" y="182">00:00</tspan><tspan class="line" dy="1.3em" x="0" y="182">Jan 5, 2020</tspan></text></g><g class="xtick"><text text-anchor="middle" x="0" y="182" style="font-family: Arial; font-size: 13px; fill: rgb(51, 51, 51); fill-opacity: 1; white-space: pre; opacity: 1;" transform="translate(817.12,0)">12:00</text></g><g class="xtick"><text text-anchor="middle" x="0" y="182" style="font-family: Arial; font-size: 13px; fill: rgb(51, 51, 51); fill-opacity: 1; white-space: pre; opacity: 1;" transform="translate(899.02,0)"><tspan class="line" dy="0em" x="0" y="182">00:00</tspan><tspan class="line" dy="1.3em" x="0" y="182">Jan 6, 2020</tspan></text></g><g class="xtick"><text text-anchor="middle" x="0" y="182" style="font-family: Arial; font-size: 13px; fill: rgb(51, 51, 51); fill-opacity: 1; white-space: pre; opacity: 1;" transform="translate(980.92,0)">12:00</text></g></g><g class="yaxislayer-above"><g class="ytick"><text text-anchor="end" x="79" y="4.55" transform="translate(0,160.85)" style="font-family: Arial; font-size: 13px; fill: rgb(51, 51, 51); fill-opacity: 1; white-space: pre; opacity: 1;">0</text></g><g class="ytick"><text text-anchor="end" x="79" y="4.55" style="font-family: Arial; font-size: 13px; fill: rgb(51, 51, 51); fill-opacity: 1; white-space: pre; opacity: 1;" transform="translate(0,146.51999999999998)">1000</text></g><g class="ytick"><text text-anchor="end" x="79" y="4.55" style="font-family: Arial; font-size: 13px; fill: rgb(51, 51, 51); fill-opacity: 1; white-space: pre; opacity: 1;" transform="translate(0,132.19)">2000</text></g><g class="ytick"><text text-anchor="end" x="79" y="4.55" style="font-family: Arial; font-size: 13px; fill: rgb(51, 51, 51); fill-opacity: 1; white-space: pre; opacity: 1;" transform="translate(0,117.87)">3000</text></g><g class="ytick"><text text-anchor="end" x="79" y="4.55" style="font-family: Arial; font-size: 13px; fill: rgb(51, 51, 51); fill-opacity: 1; white-space: pre; opacity: 1;" transform="translate(0,103.54)">4000</text></g><g class="ytick"><text text-anchor="end" x="79" y="4.55" style="font-family: Arial; font-size: 13px; fill: rgb(51, 51, 51); fill-opacity: 1; white-space: pre; opacity: 1;" transform="translate(0,89.21)">5000</text></g><g class="ytick"><text text-anchor="end" x="79" y="4.55" style="font-family: Arial; font-size: 13px; fill: rgb(51, 51, 51); fill-opacity: 1; white-space: pre; opacity: 1;" transform="translate(0,74.88)">6000</text></g><g class="ytick"><text text-anchor="end" x="79" y="4.55" style="font-family: Arial; font-size: 13px; fill: rgb(51, 51, 51); fill-opacity: 1; white-space: pre; opacity: 1;" transform="translate(0,60.56)">7000</text></g><g class="ytick"><text text-anchor="end" x="79" y="4.55" style="font-family: Arial; font-size: 13px; fill: rgb(51, 51, 51); fill-opacity: 1; white-space: pre; opacity: 1;" transform="translate(0,46.230000000000004)">8000</text></g><g class="ytick"><text text-anchor="end" x="79" y="4.55" style="font-family: Arial; font-size: 13px; fill: rgb(51, 51, 51); fill-opacity: 1; white-space: pre; opacity: 1;" transform="translate(0,31.9)">9000</text></g></g><g class="overaxes-above"/></g></g><g class="polarlayer"/><g class="smithlayer"/><g class="ternarylayer"/><g class="geolayer"/><g class="funnelarealayer"/><g class="pielayer"/><g class="iciclelayer"/><g class="treemaplayer"/><g class="sunburstlayer"/><g class="glimages"/><defs id="topdefs-3aae21"><g class="clips"/><clipPath id="legend3aae21"><rect width="124" height="82" x="0" y="0"/></clipPath></defs><g class="layer-above"><g class="imagelayer"/><g class="shapelayer"/></g><g class="infolayer"><g class="legend" pointer-events="all" transform="translate(1075.52,25)"><rect class="bg" shape-rendering="crispEdges" width="124" height="82" x="0" y="0" style="stroke: rgb(68, 68, 68); stroke-opacity: 1; fill: rgb(255, 255, 255); fill-opacity: 1; stroke-width: 0px;"/><g class="scrollbox" transform="" clip-path="url(#legend3aae21)"><g class="groups"><g class="traces" transform="translate(0,16.9)" style="opacity: 1;"><text class="legendtext" text-anchor="start" x="40" y="6.24" style="font-family: Arial; font-size: 16px; fill: rgb(51, 51, 51); fill-opacity: 1; white-space: pre;">pv_power2</text><g class="layers" style="opacity: 1;"><g class="legendfill"/><g class="legendlines"><path class="js-line" d="M5,0h30" style="fill: none; stroke: rgb(0, 117, 173); stroke-opacity: 1; stroke-width: 2px;"/></g><g class="legendsymbols"><g class="legendpoints"/></g></g><rect class="legendtoggle" x="0" y="-11.9" width="118.375" height="23.8" style="fill: rgb(0, 0, 0); fill-opacity: 0;"/></g><g class="traces" transform="translate(0,40.7)" style="opacity: 1;"><text class="legendtext" text-anchor="start" x="40" y="6.24" style="font-family: Arial; font-size: 16px; fill: rgb(51, 51, 51); fill-opacity: 1; white-space: pre;">pv_power1</text><g class="layers" style="opacity: 1;"><g class="legendfill"/><g class="legendlines"><path class="js-line" d="M5,0h30" style="fill: none; stroke: rgb(129, 181, 21); stroke-opacity: 1; stroke-width: 2px;"/></g><g class="legendsymbols"><g class="legendpoints"/></g></g><rect class="legendtoggle" x="0" y="-11.9" width="118.375" height="23.8" style="fill: rgb(0, 0, 0); fill-opacity: 0;"/></g><g class="traces" transform="translate(0,64.5)" style="opacity: 1;"><text class="legendtext" text-anchor="start" x="40" y="6.24" style="font-family: Arial; font-size: 16px; fill: rgb(51, 51, 51); fill-opacity: 1; white-space: pre;">Dhi</text><g class="layers" style="opacity: 1;"><g class="legendfill"/><g class="legendlines"><path class="js-line" d="M5,0h30" style="fill: none; stroke: rgb(249, 166, 24); stroke-opacity: 1; stroke-width: 2px;"/></g><g class="legendsymbols"><g class="legendpoints"/></g></g><rect class="legendtoggle" x="0" y="-11.9" width="118.375" height="23.8" style="fill: rgb(0, 0, 0); fill-opacity: 0;"/></g></g></g><rect class="scrollbar" rx="20" ry="3" width="0" height="0" x="0" y="0" style="fill: rgb(128, 139, 164); fill-opacity: 1;"/></g><g class="g-gtitle"/><g class="g-xtitle"/><g class="g-ytitle"/></g></svg>